<svg xmlns="http://www.w3.org/2000/svg" width="1000" height="1000" viewBox="0 0 1000 1000"><g fill="#141413"><path d="M418.8.3A168 168 0 0 0 394.1 14c-.7.6-1.6 1.4-2.1 1.6s-1.9 1.4-3.1 2.6a15 15 0 0 1-3.3 2.7 20 20 0 0 0-5.6 5.6q-.6 1.3-2.8 3.4a19 19 0 0 0-2.6 3.1q-.5.9-1.6 2.1c-1 1.1-1.6 2-5.7 10.3-4.4 8.8-5.1 10.4-5.1 11.8 0 .3-.4 1.4-.9 2.4-.9 1.8-1 2.2-1.3 3.9l-.5 1.9-.5 2q-.1 1.3-.5 2.2l-.5 2q-.1 1.3-.5 2.2-.3 1-.5 3.1 0 2.1-.4 2.7c-.6 1.2-.8 2.5-.8 7.1v4.7h-20.6c-21.5 0-21.8 0-23.2.8q-.4.3-3.7.4c-2.4.1-3.4.2-4.1.5q-1 .3-3.2.5-2.3.1-3.2.5l-2 .5-2 .5-2 .5a13 13 0 0 0-5 1.8l-3.3 1.4c-1.9 0-5.7 1.8-7.4 3.4q-1.2 1.2-3.1 2.1c-1.8.9-2 1.1-6.2 5.2a41 41 0 0 0-6.5 7.5 96 96 0 0 0-7.2 13.8l-.2.9-30.1.1c-29.2.1-30.1.1-31 .5-.8.3-1.6.4-5.3.5-4.2.1-5.1.2-6.1.8-.4.2-1.7.3-4.8.4-3.5.1-4.5.2-5.2.5q-1 .3-3.2.5-2.3.1-3.2.5c-.7.3-1.7.4-4.2.5a16 16 0 0 0-4.1.4c-1.4.6-2 .8-3.3 1l-1.8.5q-.7.3-2.2.3c-2 0-3.2.3-5.3 1.4l-2.3.8c-1.2 0-2.6.5-5.3 1.9q-2.7 1.3-3.3 1.3c-1.2 0-2.6.5-5.2 1.8q-2.5 1.3-3.7 2.4-1.2 1.2-3.4 2.3l-2.2 1-8.4 8.5-8.5 8.5-1.5 3.1a16 16 0 0 1-2.6 4.2c-.9 1-1.5 2-3.5 6-2.4 4.7-3 6.3-3 7.5l-.8 2.2q-1.4 2.6-1.4 4.3c0 .3-.4 1.3-.8 2.2-.4.8-.9 2.1-1 2.8a14 14 0 0 1-1 3.3l-.4 2q-.1 1.2-.5 2.1-.3 1-.5 3.1-.1 2.2-.5 3.1-.3 1-.5 3.2 0 2.2-.4 2.8c-.6 1-.7 1.9-.8 8.1-.1 5.7-.2 6.5-.5 7.3-.4.9-.4 1.5-.4 13.2 0 11.8 0 12.3.4 13.2.3.8.4 1.6.5 8.5.1 7.4.2 8.2.8 9.3.2.4.3 1.9.4 5.9.1 4.7.2 5.5.5 6.3s.4 1.6.5 4.2c.1 2.5.2 3.5.5 4.2s.4 1.7.5 5.2c.1 4.1.2 5 .8 6q.3.6.4 2.8.2 2.3.5 3.2c.3.7.4 1.7.5 4.1s.2 3.4.5 4.1.4 1.7.5 4.2c.1 3.2.3 4 .8 5 .2.3.3 1.5.4 2.8q.2 2.3.5 3.2t.5 3.1c.2 2.1.3 2.6.5 3.1s.4 1.8.5 3.1.3 2.6.5 3.1c.3.7.4 1.7.5 4.2.1 3.2.3 4 .8 5 .2.3.3 1.5.4 2.7q.2 2.1.5 3.1c.2.5.4 1.8.5 3.1s.3 2.6.5 3.1c.3.7.4 1.7.5 4.2.1 3.2.3 4 .8 5q.3.5.4 3.8c.1 2.6.2 3.5.5 4.2s.4 1.7.5 5.3c.1 3.7.2 4.5.5 5.3s.4 1.6.5 5.2c.1 4.2.2 5 .8 6 .2.4.3 1.9.4 5.9.1 4.7.2 5.5.5 6.3.4.8.4 1.6.5 10.6s.1 9.8.5 10.6c.4.9.4 1.5.5 16.9.1 16.2.1 16.4.9 17.9.3.5.3 2 .3 14.6s0 14-.3 14.6c-.8 1.5-.8 1.7-.9 18-.1 15.5-.1 16.1-.5 17s-.4 1.5-.5 12.7a51 51 0 0 1-.5 12.7 43 43 0 0 0-.5 11.6c0 8.5-.2 10.8-.4 11.2-.6 1.1-.7 1.8-.8 10.3-.1 8-.1 8.7-.5 9.5s-.4 1.6-.5 8.4-.2 7.6-.5 8.4c-.4.8-.4 1.5-.5 9.5 0 6.7-.2 8.7-.4 9-.6 1.2-.7 2-.8 10.4-.1 8-.1 8.7-.5 9.5s-.4 1.5-.5 9.5-.1 8.7-.5 9.5-.4 1.5-.5 11.7c0 8.6-.2 10.9-.4 11.3-.6 1.2-.7 1.8-.8 12.4-.1 10-.1 10.8-.5 11.6s-.4 1.5-.5 9.5-.1 8.7-.5 9.5-.4 1.5-.5 9.5-.1 8.7-.5 9.5-.4 1.5-.5 10.6c0 7.7-.2 9.8-.4 10.2-.7 1.2-.7 1.7-.8 14.5a58 58 0 0 1-.5 13.7c-.4.9-.4 1.4-.4 20.7 0 19.1 0 19.8.4 20.7.3.8.4 1.6.5 6.3.1 5.2.2 6 .8 7.1.2.4.3 1.7.4 4.9.1 3.6.2 4.6.5 5.3q.3 1 .5 3.1c0 1.3.3 2.6.5 3.1q.3 1 .5 3.1.1 2.1.5 3.1l.5 2a9 9 0 0 0 .8 3l.5 1.7q0 1 .4 1.9l.5 2.1.5 2.1.5 2.1.5 2c.6 1.6.7 2 .9 3.3q.3 1.3 1.6 4t1.4 3.4c0 1.4.6 2.8 3.5 8.6 2.6 5.1 3 6 4.1 7l1.6 2.2c.2.5 1 1.4 1.5 2q1 1 1.5 2l1.6 2.1 1.8 2.4a56 56 0 0 0 14.2 13.1c.5.2 1.4 1 2 1.5l2 1.5q.9.5 2.1 1.6c1.1 1 2 1.6 10.3 5.7a42 42 0 0 0 11.6 5.1l2.3.8q3 1.4 4.4 1.4l2.2.8q2.6 1.5 4.3 1.4c.3 0 1.3.4 2.2.8.8.4 2.1.9 2.8 1 1.3.2 1.7.3 3.3 1l2 .4q1.2.1 2.1.5 1 .3 3.1.5 2.2.1 3.1.5 1 .3 3.2.5 2.2 0 2.8.4c1 .5 1.8.7 4.9.8 2.4.1 3.4.2 4.1.5s1.7.4 5.3.5c3.7.1 4.5.2 5.3.5.8.4 1.6.4 10.6.5s9.8.1 10.6.5c.9.4 1.5.4 32.5.4s31.6 0 32.5-.4 1.5-.4 12.7-.5 11.9-.1 12.7-.5c.8-.3 1.6-.4 7.4-.5s6.6-.1 7.4-.5c.8-.3 1.6-.4 7.3-.5 6.2-.1 6.4-.1 7.6-.6s1.5-.5 6.6-.6c4.7-.1 5.5-.2 6.3-.5a20 20 0 0 1 6.3-.5c4.7-.1 5.5-.2 6.3-.5s1.6-.4 5.2-.5c4.2-.1 5-.2 6-.8a27 27 0 0 1 5.9-.4c4.7-.1 5.5-.2 6.3-.5s1.6-.4 7.4-.5 6.6-.1 7.4-.5a20 20 0 0 1 6.3-.5c5.2-.1 6-.2 7.1-.8.4-.2 1.7-.3 4.9-.4a16 16 0 0 0 5.3-.5c.7-.3 1.6-.4 5.2-.5s4.5-.2 5.2-.5 1.6-.4 5.3-.5c4.2-.1 5.1-.2 6.1-.8.4-.2 1.7-.3 4.8-.4 3.6-.1 4.4-.2 5.2-.5s1.6-.4 6.4-.5 5.6-.2 6.4-.5a16 16 0 0 1 5.2-.5c4.2-.1 5-.2 6-.8a27 27 0 0 1 5.9-.4c4.7-.1 5.5-.2 6.3-.5s1.6-.4 8.5-.5 7.7-.1 8.5-.5c.8-.3 1.6-.4 6.3-.5s5.5-.2 6.3-.5a20 20 0 0 1 6.3-.5c5.2-.1 6-.2 7.1-.8a27 27 0 0 1 5.9-.4c4.7-.1 5.5-.2 6.3-.5s1.6-.4 5.2-.5 4.5-.2 5.2-.5 1.6-.4 6.4-.5c5.3-.1 6.2-.2 7.2-.8.4-.2 1.7-.3 4.8-.4 3.6-.1 4.4-.2 5.2-.5q.9-.4 2.9-.4c1.8-.1 2-.1 2.5.4l2.7 1.5q2 1 3.2 2.2c1 1 2 1.5 5.3 3.2 3.3 1.6 4.3 2.3 5.2 3.1 1 1 2.2 1.6 9.2 5.1 7.7 3.9 9.4 4.6 10.7 4.6.3 0 2.1.8 4.2 1.8 3.6 1.9 5 2.4 6.3 2.4q.7 0 3.4 1.4a13 13 0 0 0 5 1.8q1 .1 2 .5t1.9.4l1.7.5c1.7.8.7.8 57.1.8 49.7-.1 54.3-.1 55-.4 1.4-.6 2-.8 3.3-1 .7-.1 2-.6 2.8-1q1.5-.7 2.2-.8c1.2 0 2.6-.5 5.3-1.9q2.7-1.2 3.3-1.3.8 0 1.7-.3c.6-.1 7-3.2 14.3-6.9a74 74 0 0 0 14.5-7.8c1-.9 1.9-1.5 4.3-2.7s3.3-1.8 4.3-2.7l2.1-1.6c.5-.2 1.4-1 2-1.5s1.6-1.3 2.2-1.6q1-.6 2.3-1.7l2.1-1.6c.5-.3 2.2-1.7 4.2-3.7s3.7-3.5 4.3-3.8a142 142 0 0 0 19.3-20.3c.2-.5 1.4-1.9 2.6-3.1q2.1-2.2 2.7-3.3.5-1 1.7-2.3l1.6-2.1q.5-.9 1.6-2.1a17 17 0 0 0 2.7-4.3c1.2-2.3 1.8-3.4 2.6-4.2.9-1 1.5-2 3.7-6.4a27 27 0 0 1 5.1-8.2c.4-.8.9-2.5.9-3.3 0-.3 1.5-3.5 3.4-7.4 3.3-6.5 4-8.1 4-9.4 0-.3.6-1.7 1.4-3.3a13 13 0 0 0 1.8-5q.1-1 .5-2t.4-2q.1-1.1 1-2.8c.5-1 1-2.3 1.1-3l.4-1.9q.8-2.2.8-3.3l.4-1.4a9 9 0 0 0 .8-3q.1-1 .5-2 .3-1 .5-3.1t.5-3.1c.3-.7.4-1.7.5-4.2q0-3.3.4-3.8c.6-1 .7-1.9.8-8.1.1-5.7.2-6.5.5-7.3.4-.8.4-1.4.4-6.9s0-6-.4-6.9c-.3-.8-.4-1.6-.5-7.3-.1-6.2-.2-7-.8-8.1-.2-.4-.3-1.7-.4-4.9-.1-3.6-.2-4.6-.5-5.3q-.3-1-.5-3.1-.1-2.1-.5-3.1l-.5-2a9 9 0 0 0-.8-3l-.5-1.7q0-1-.4-1.9l-.5-2.1-.5-2.1-.5-2.1-.5-2a14 14 0 0 1-.9-3.3l-.5-1.8-.3-1.2q0-1.7-1.4-4.3l-.8-2.3q0-1.7-1.3-4.1l-.7-2-.3-1.6c-.1-.6-3.7-8-8-16.5a108 108 0 0 0-10.9-19.8q-1-2.1-2.2-3.3-1.1-1.2-1.6-2.1l-1.6-2.1-1.7-2.2c-.4-.7-3.5-4-11-11.5a100 100 0 0 0-20-17.5l-2.1-1.6q-1.1-1-3.2-2.1-2.2-1-3.3-2.2c-1-1-1.9-1.5-4.3-2.7a18 18 0 0 1-4.2-2.6c-1-1-2.2-1.6-9.2-5.1-7.7-3.9-9.4-4.6-10.7-4.6-.3 0-1.5-.5-2.7-1.1l-2.2-1.1.5-.8c.9-1.6 1-2.6.9-11.6-.1-7.8-.1-8.6-.5-9.4-.3-.7-.4-1.6-.5-4.1-.1-3.1-.3-4-.8-5a13 13 0 0 1-.4-3.7c-.1-2.6-.2-3.5-.5-4.2s-.4-1.7-.5-4.2-.2-3.5-.5-4.2-.4-1.7-.5-4.2c-.1-3.2-.3-4-.8-5a13 13 0 0 1-.4-3.8c-.1-2.6-.2-3.5-.5-4.2s-.4-1.7-.5-4.2-.2-3.5-.5-4.2-.4-1.7-.5-4.2c-.1-3.2-.3-4-.8-5a27 27 0 0 1-.4-5.9c-.1-4.7-.2-5.5-.5-6.3s-.4-1.6-.5-7.4-.1-6.6-.5-7.4c-.3-.8-.4-1.6-.5-8.4s-.1-7.6-.5-8.4-.4-1.6-.5-15.9c-.1-15.2-.1-15.4-.9-16.9-.3-.5-.3-2.7-.3-23.1s0-22.6.3-23.1c.8-1.5.8-1.9.9-11.6.1-9 .1-9.8.5-10.6s.4-1.5.5-8.4c.1-6.8.2-7.6.5-8.4s.4-1.6.5-6.3.2-5.5.5-6.3.4-1.6.5-5.3c0-3.2.2-4.5.4-4.9.5-1 .7-1.8.8-5 .1-2.5.2-3.5.5-4.2s.4-1.7.5-4.2.2-3.5.5-4.2.4-1.6.5-4.2q0-3.3.4-3.8c.5-1 .7-1.8.8-5 .1-2.5.2-3.5.5-4.2s.4-1.7.5-4.1.2-3.4.5-4.1.4-1.6.5-4.2q0-3.3.4-3.8c.5-1 .7-1.8.8-5 .1-2.5.2-3.5.5-4.2s.4-1.7.5-4.2.2-3.5.5-4.2.4-1.6.5-5.3c0-3.2.2-4.5.4-4.9.6-1 .7-1.8.8-6 .1-3.6.2-4.4.5-5.2.4-.8.4-1.6.5-7.4s.2-6.6.5-7.4c.4-.9.4-1.5.4-22.9 0-21.2 0-22-.4-22.9-.3-.7-.4-1.6-.5-4.2-.1-2.5-.2-3.5-.5-4.2s-.4-1.7-.5-4.1c-.1-3.2-.3-3.8-.8-5q-.3-.6-.5-1.7 0-1-.4-2l-.5-2.1-.5-2.1-.5-1.9a9 9 0 0 0-.8-3l-.4-1.3c0-1.4-.7-3-5.6-12.8a54 54 0 0 0-14.8-20.8c-6.2-6.3-6.3-6.4-8.2-7.3q-2-.9-3.1-2.1c-1-1-2-1.6-8.1-4.6-6.7-3.4-8.2-4-9.6-4l-2.3-.8q-2.6-1.5-4.3-1.4l-2.3-.8a9 9 0 0 0-5-1.4c-1.2 0-2.6-.3-3-.5l-2-.5q-1.2-.1-2.1-.5a15 15 0 0 0-4.2-.5c-2.7-.1-3.5-.2-4.5-.6q-1.2-.4-3.4-.6-2.1-.2-3.1-.5c-.8-.4-1.7-.4-8.4-.5-6.9-.1-7.6-.2-8.4-.5-.8-.4-1.4-.4-9.1-.4s-8.3 0-9.1.4a6 6 0 0 1-2.6.4 6 6 0 0 1-2.6-.4c-.8-.4-1.4-.4-5.9-.4s-5 0-5.9.4-1.4.4-10.1.4h-9.2l-.1-.5-.4-1.8c-.2-1-1-2.9-3.8-8.5a37 37 0 0 0-6.2-10.3 45 45 0 0 0-17-13.5c-5.8-2.9-7.2-3.5-8.6-3.5-.3 0-1.4-.4-2.4-.9-1.8-.9-2.2-1-3.9-1.3l-1.9-.5a15 15 0 0 0-4.2-.5c-2.6-.1-3.5-.2-4.2-.5-.8-.4-1.6-.4-7.4-.5-5 0-6.6-.2-7-.4a155 155 0 0 0-21.8-.6l-.6.2v-4.3c0-4.2-.2-5.6-.8-6.7q-.3-.6-.4-2.8-.2-2.3-.5-3.2t-.5-3.1c0-1.3-.3-2.6-.5-3.1l-.5-2.1-.5-2a14 14 0 0 1-.9-3.3l-.5-1.8-.3-1.2c0-1.2-.5-2.6-1.9-5.3l-1.3-3.2c0-1.2-.6-2.8-3-7.5-2-4-2.6-5-3.5-6q-1-1-2.1-3.2-1-2.1-2.2-3.3l-1.7-2.2a69 69 0 0 0-16.4-14.7c-1.1-1-2-1.6-9-5a107 107 0 0 0-9-4.3c-1.1-.3-5.7-.3-42.4-.3-32.5 0-41.4 0-42.1.3m46 30q1 .3 3.2.5t3.2.5c.5.2 1.8.4 3.1.5 1.2 0 2.6.3 3.1.5q.9.4 1.9.4 1 .2 3.6 1.5a13 13 0 0 0 5.3 1.8q.6 0 3.7 1.5c2.3 1.2 3.3 1.8 4.2 2.7l2.1 1.6c.5.2 1.4 1 2 1.5l2.3 1.7c1.4.7 3 2.3 3.8 3.8q.6 1 1.7 2.3c1 1 1.6 2.1 4.2 7.2q3 6.1 3 6.7c0 .8.4 2.5.8 3.3q.3.6.5 1.6 0 1 .4 1.9l.5 2.1.5 2.1c.3.7.4 1.8.5 4.2.1 3.3.3 4 .9 5.2a50 50 0 0 1 0 12c-.8 1.5-.9 2.5-.9 8.9 0 4.6 0 6.5.3 7.2.1.5.9 2.2 1.6 3.7 1.3 2.5 1.5 2.8 3.4 4.8s2.1 2.1 4.8 3.4c2.8 1.5 4.3 2 5.5 2q.6 0 1.3.3c1.2.7 2.6.9 5.5.9s4.4-.2 5.4-.8c.4-.2 1.7-.3 4.8-.4a16 16 0 0 0 5.2-.5 51 51 0 0 1 13.2-.4c11.7 0 12.3 0 13.2.4.7.3 1.6.4 4.2.5q3.4 0 3.8.4c.6.3 2.3.8 3 .8l2.1.7q2.8 1.3 4 1.3.6 0 1.8 1.2l2.1 1.5 1 .4 2.6 5.3 2.6 5.3v2q.2 2 .5 2.9c.3.7.4 1.7.5 5.2.1 4.2.2 4.9.9 6.2.5.9.3 3.1-.3 4.7-.5 1.1-.5 1.5-.6 7.6a24 24 0 0 1-.5 7.3q-.3 1-.5 3.2l-.5 3.2q-.4.9-.4 1.9-.2 1-1 2.6-1.2 2.6-1.3 4.3t-2 3.5a24 24 0 0 1-10.2 4.6c-.8.3-1.8.4-8.4.5-7.3.1-8.1.2-9.2.8-.4.3-4 .3-19.7.4-18.6.1-19.2.1-20.1.5s-1.5.4-17 .5-16.1.1-17 .5-1.5.4-15.8.5c-15 .1-15.4.1-16.6.8-.4.2-3.7.3-17.6.4-16.5.1-17.1.1-18 .5s-1.5.4-27.6.5-26.7.1-27.6.5-1.4.4-17.6.4-16.7 0-17.6-.4-1.5-.4-13.8-.5c-12.2-.1-13-.1-13.8-.5-.8-.3-1.5-.4-6.3-.5a24 24 0 0 1-5.9-.4 9 9 0 0 0-3-.8c-.4 0-2-.7-3.7-1.5-4.3-2.2-5.9-3.8-6.2-6.5q0-1-.4-2l-.5-2a8 8 0 0 0-.8-2.9c-.2-.4-.3-1.4-.4-3.8a12 12 0 0 0-.5-4.1c-.3-.8-.4-1.4-.4-4.8s0-4 .4-4.8.4-1.5.5-8.4c0-5.8.2-7.6.4-8 .5-.8.6-1.7.8-3.9 0-1.2.3-2.6.5-3.1q.4-1 .4-2 .1-1.1 1-2.8t1-2.5.7-1.5c.4-.4 1-1.6 1.6-2.6 1-1.9 1-2 2-2.5q1.1-.6 2.2-1.6a16 16 0 0 1 8-3.6l2-.5a8 8 0 0 0 2.9-.8 9 9 0 0 1 2.8-.4 12 12 0 0 0 3.1-.5c.7-.3 1.7-.4 4.2-.5 2.6-.1 3.5-.2 4.2-.5s1.7-.4 7.4-.5c6.4-.1 7-.2 8.4-.9.5-.3 2.2-.3 17.1-.3 13.3 0 16.8 0 17.6-.3a43 43 0 0 0 10.5-6c2-1.9 2.1-2.1 3.4-4.8l1.7-3.4.3-9.2c.1-7.8.2-8.7.5-9.5.3-.7.4-1.6.5-4.2q0-3.3.4-3.8c.5-.8.6-1.7.8-3.9 0-1.2.3-2.6.5-3.1l.4-2q.1-1.1 1-2.7 1.3-2.6 1.3-4.3 0-.6 3-6.7c2.7-5.2 3.2-6.2 4.2-7.2l1.6-2.1q.5-1 1.7-2.2l1.7-2.3c.4-.9.6-1.1 1.5-1.5q1-.5 3.3-2.7a15 15 0 0 1 5.4-3.8 16 16 0 0 0 4.2-2.6c1.2-1.2 4.8-3.1 5.7-3.1q1.5 0 5.1-1.8l2.5-1.3 2.2-.1q2.1-.2 3.1-.5l2.1-.5 2.1-.5a17 17 0 0 1 5.2-.5 16 16 0 0 0 5.4-.5 9 9 0 0 1 5.4 0m226.4 136c.8.4 1.5.4 7.4.5 5.7.1 6.6.2 7.4.5q1 .3 3.1.5a9 9 0 0 1 2.8.4c.7.4 1.3.6 2.8.8l1.9.5 2 .5q1.3.1 2.2.5t2 .4l1.7.5c.8.3 2.4.8 3.2.8.3 0 3.7 1.6 7.8 3.6a38 38 0 0 1 10.3 6.2 49 49 0 0 1 13.9 17.5c1.7 3.5 3.1 6.5 3.1 6.8 0 .8.5 2.4.8 3.2q.3.6.5 1.7 0 1 .4 2l.5 2 .5 2c.2.5.4 1.9.5 3.2.2 2.3.3 3.1.8 4 .2.4.3 1.7.4 4.8.1 3.7.2 4.4.5 5.2.4.9.4 1.5.4 22.8s0 22-.4 22.8-.4 1.5-.5 9.5c0 6.7-.2 8.7-.4 9-.6 1.2-.7 2-.8 9.3-.1 6.8-.2 7.6-.5 8.4s-.4 1.6-.5 6.3-.2 5.5-.5 6.3c-.4.8-.4 1.6-.5 8.4 0 5.8-.2 7.6-.4 8-.6 1-.7 1.9-.8 8.2-.1 5.8-.2 6.6-.5 7.4-.4.8-.4 1.6-.5 7.4s-.2 6.6-.5 7.4c-.4.8-.4 1.6-.5 8.4 0 5.8-.2 7.6-.4 8-.6 1.1-.7 1.9-.8 9.3a29 29 0 0 1-.5 8.5c-.4.8-.4 1.6-.5 10.5s-.1 9.7-.5 10.5a57 57 0 0 0-.5 13.8c0 10.5-.2 13-.4 13.4-.8 1.4-.8 1.4-.8 28.7s0 27.3.8 28.7c.2.4.3 2.4.4 10.2.1 9 .1 9.8.5 10.6.3.8.4 1.6.5 7.4s.1 6.6.5 7.4c.3.8.4 1.6.5 7.3.1 6.2.2 7 .8 8.1.2.4.3 1.7.4 4.9.1 3.7.2 4.5.5 5.3s.4 1.7.5 4.2.2 3.5.5 4.2.4 1.7.5 5.2c.1 4.1.2 5 .8 6 .2.3.3 1.5.4 2.8q.2 2.3.5 3.2c.3.7.4 1.7.5 4.1s.2 3.4.5 4.1.4 1.7.5 4.2c.1 3.2.3 4 .8 5 .2.3.3 1.5.4 2.8q.2 2.3.5 3.2.4 1 .4 2.3l.1 1.3H767l-2.3-.5-3.1-.5q-2.2-.1-3.4-.6c-1-.4-1.7-.5-4.4-.6-2.5-.1-3.4-.2-4.1-.5-.8-.4-1.6-.4-7.4-.5s-6.6-.2-7.4-.5c-.8-.4-1.4-.4-7-.4s-6.2 0-7 .4c-.8.3-1.6.4-7.4.5s-6.6.1-7.4.5c-.8.3-1.6.4-5.3.5-4.2.1-5 .2-6.1.8-.3.2-1.5.3-2.7.4q-2.1.2-3.1.5t-3.1.5q-2.1.1-3.1.5l-2.1.5-2.1.5c-.5.2-1.9.4-3.1.5-2.5.2-2.8.3-5 1.4l-2.3.8q-1.1 0-3.3.8l-1.9.4c-.7.1-2 .6-3 1.1q-1.6.8-2.4.9l-1.7.3c-.5.1-6.5 3-13.3 6.4a66 66 0 0 0-16.6 9.4 13 13 0 0 0-3 2 14 14 0 0 1-3.2 2.1c-1.9 1-2.3 1.3-4.4 3.3a20 20 0 0 1-3.2 2.7c-.5.2-1.4 1-2 1.5l-2.2 1.6q-1.1.6-3.4 2.8a509 509 0 0 0-32.6 32.6 17 17 0 0 0-2.7 3.3q-.5 1-1.7 2.3l-1.6 2.1q-.5.9-1.6 2.1l-1.6 2.1c-.2.5-1 1.4-1.5 2q-1 1.1-2.1 3.2-1 2.2-2.2 3.3c-1 1-1.5 1.9-2.7 4.3a18 18 0 0 1-2.6 4.2c-1 1-1.6 2.2-5.1 9.2-3.9 7.7-4.6 9.4-4.6 10.7 0 .3-.8 2.1-1.8 4.2-1.9 3.6-2.4 5-2.4 6.3 0 .3-.4 1.4-.9 2.4-.9 1.8-1 2.2-1.3 3.9l-.5 1.9-.5 2q-.1 1.3-.5 2.2t-.4 2l-.5 1.8c-.4.8-.6 1.4-.8 2.9l-.5 1.9-.5 2q-.1 1.3-.5 2.2-.3 1-.5 3.1c0 1.2-.2 2.4-.4 2.7-.5.9-.6 1.7-.8 3.9q-.2 2.1-.5 3.1c-.4.9-.4 1.7-.4 18.6a97 97 0 0 0 .9 22.8c.1 3.2.3 4 .8 5 .2.3.3 1.5.4 2.7q.2 2.1.5 3.1t.5 3.1c.2 2.5.3 2.8 1.3 5q.9 1.6 1 2.7 0 1 .4 2l.5 2 .5 2 .5 2a10 10 0 0 0 1.3 4q.8 1.7.9 2.4 0 1.7 1.3 4.1.6 1.4.7 2c0 1.4 1 3.4 7.8 17a95 95 0 0 0 10.4 18.9q1 2 2.2 3.3 1.2 1.1 2.2 3.3t2.2 3.3q1.1 1.2 1.6 2.1c.2.5 1 1.4 1.5 2q1 1 1.5 2l1 1.5.6.6-1.3.3q-1.3.2-2 .6c-.5.3-1.4.3-7 .4-5.7.1-6.5.1-7.3.5-.8.3-1.6.4-7.4.5s-6.6.1-7.4.5c-.8.3-1.6.4-6.3.5-5.2.1-6 .2-7.1.8-.4.2-2 .3-7 .4-5.8.1-6.6.1-7.4.5-.8.3-1.6.4-5.3.5s-4.5.2-5.3.5-1.6.4-5.2.5c-4.2.1-5 .2-6 .8-.4.2-1.9.3-5.9.4-4.7.1-5.5.2-6.3.5s-1.6.4-5.3.5-4.5.2-5.3.5-1.6.4-6.3.5c-5.2.1-6 .2-7.1.8-.4.2-1.7.3-4.8.4-3.6.1-4.4.2-5.2.5s-1.6.4-6.4.5-5.6.2-6.4.5-1.6.4-7.3.5c-6.2.1-7 .2-8.1.8-.4.2-2 .3-7 .4-5.8.1-6.6.1-7.4.5-.8.3-1.6.4-8.5.5s-7.7.1-8.5.5c-.9.4-1.6.4-14.8.5a63 63 0 0 0-14.8.5c-.9.4-1.4.4-36.7.4s-35.8 0-36.7-.4-1.5-.4-11.7-.5a46 46 0 0 1-11.7-.5c-.8-.3-1.6-.4-6.3-.5a20 20 0 0 1-6.3-.5c-.8-.3-1.6-.4-5.2-.5q-4.4 0-4.8-.4c-1-.5-1.8-.7-5-.8a14 14 0 0 1-4.2-.5 12 12 0 0 0-3.1-.5q-2.2-.1-3.1-.5-1-.3-3.2-.5-2.1 0-2.8-.4c-.9-.5-1.7-.6-3.9-.8-1.2 0-2.6-.3-3-.5l-2.2-.5q-1.2-.1-2.1-.5t-1.9-.4l-1.7-.5a9 9 0 0 0-3-.8q-1-.1-2-.5l-2-.5q-1-.1-2-.5t-2-.4-3.7-1.5a13 13 0 0 0-5.3-1.8q-.6 0-5.7-2.5a23 23 0 0 1-6.2-3.7l-2.3-1.7q-1.2-.6-3.4-2.8a18 18 0 0 0-3.2-2.6q-.9-.3-1.3-1.4-.6-1-1.7-2.2l-1.7-2.3-1.7-2.3c-1-1-1.5-2-3.7-6.2a32 32 0 0 1-2.5-5.7q0-1.7-1.3-4.1c-.4-.8-.7-1.8-.7-2.1q0-1.6-1.3-4.3-.8-1.6-1-2.6 0-1-.4-1.9l-.5-2a8 8 0 0 0-.8-2.9 9 9 0 0 1-.4-2.8q-.2-2.1-.5-3.1t-.5-3.1a12 12 0 0 0-.5-3.1c-.3-.7-.4-1.7-.5-4.2s-.2-3.5-.5-4.2a17 17 0 0 1-.5-5.3c-.1-4.2-.2-5.1-.8-6.1-.2-.4-.3-2-.4-7-.1-5.9-.1-6.6-.5-7.4s-.4-1.4-.4-29.1 0-28.2.4-29.1.4-1.5.5-18l.1-17.1.5-1.2.5-1.2.1-12.8a58 58 0 0 1 .5-13.7c.4-.8.4-1.5.5-9.5s.1-8.7.5-9.5.4-1.6.5-13.7a58 58 0 0 1 .5-13.7c.4-.9.4-1.6.5-24.4 0-19.3.1-23.6.4-24 .7-1.2.7-1.5.8-22 .1-19.7.1-20.3.5-21.2s.4-1.5.5-21.2.1-20.3.5-21.2.4-1.4.4-33.6c0-32.1 0-32.7-.4-33.6s-.4-1.5-.5-16.9-.1-16-.5-16.9c-.3-.8-.4-1.6-.5-7.4-.1-6.3-.2-7.1-.8-8.2a27 27 0 0 1-.4-5.9c-.1-4.7-.2-5.5-.5-6.3s-.4-1.6-.5-5.3-.2-4.5-.5-5.3-.4-1.6-.5-5.2c-.1-3.5-.2-4.5-.5-5.2s-.4-1.7-.5-4.2c-.1-3.2-.3-4-.8-5-.2-.4-.3-1.7-.4-4.9-.1-3.7-.2-4.5-.5-5.3s-.4-1.7-.5-4.2-.2-3.5-.5-4.2-.4-1.7-.5-5.2c-.1-4.2-.2-5-.8-6-.2-.4-.3-1.7-.4-4.9-.1-3.7-.2-4.5-.5-5.3s-.4-1.6-.5-7.3-.1-6.5-.5-7.3c-.3-.8-.4-1.6-.5-7.4-.1-6.3-.2-7.1-.8-8.2-.2-.4-.3-3.5-.4-16.6-.1-15.5-.1-16.1-.5-17s-.4-1.4-.4-8.9 0-8 .4-8.9c.3-.8.4-1.5.5-6.3 0-4 .2-5.5.4-5.9.5-1 .7-1.8.8-5 .1-2.5.2-3.5.5-4.2q.3-1 .5-3.1.1-2.2.5-3.1.3-1 .5-3.2 0-2.4.4-2.9.4-.7.6-1.9l.4-1.9q.8-2.2.8-3.3l.8-2.3q1.4-2.6 1.4-4.2c0-.3 1.4-3.3 3.1-6.8a32 32 0 0 1 5.7-9.3c.6-1.2 4.4-5.1 5.7-5.7.5-.3 1.5-1 2.2-1.7 1-1 2-1.5 6.4-3.8q5.2-2.6 6-2.6 1.6 0 4.2-1.3 1.6-.8 2.6-1 1 0 1.9-.4l2.1-.5 2.1-.5c.5-.2 1.9-.4 3.1-.5s2.6-.3 3.1-.5l2-.5 2.3-.6c1-.4 1.8-.5 4.5-.6 2.5-.1 3.5-.2 4.2-.5s1.7-.4 4.1-.5 3.4-.2 4.1-.5a17 17 0 0 1 5.3-.5c4.2-.1 5.1-.2 6.1-.8.4-.2 2-.3 7-.4 5.9-.1 6.6-.1 7.4-.5s1.5-.4 9.2-.4l8.2-.1v9c0 9.1 0 10.1.8 11.4.2.4.3 1.8.4 5.9a21 21 0 0 0 1 8.3l.5 2 .5 2a9 9 0 0 0 .8 3l.4 1.4q0 1.1.8 3.3l.4 1.9c.2 1 1 2.7 3.2 7.3l3 6 4.2 4.2a40 40 0 0 0 7.4 6.4c1 .9 2.2 1.6 7.1 4a39 39 0 0 0 12.6 4.7q1.2.1 2.1.5c.7.3 1.8.4 4.2.5 2.6.1 3.5.2 4.2.5s1.6.4 6.3.5c4.1 0 5.5.2 5.9.4 1.4.8 1.7.8 23.5.8s22 0 23.5-.8a63 63 0 0 1 10.2-.4c9-.1 9.8-.1 10.6-.5s1.5-.4 9.5-.5 8.7-.1 9.5-.5 1.6-.4 10.5-.5c9.5-.1 10.2-.2 11.3-.8.4-.2 2.9-.3 12.3-.4 11.2-.1 11.8-.1 12.7-.5s1.5-.4 23.3-.5 22.4-.1 23.3-.5 1.5-.4 18-.5 17.1-.1 18-.5 1.5-.4 27.6-.5c27-.1 27.2-.1 28.4-.8.4-.2 2-.3 7-.4 5.7-.1 6.6-.1 7.4-.5q1-.3 3.1-.5 2.1-.1 3.1-.5l3.1-.5c2.3-.2 3-.3 4-.9q.7-.3 1.3-.3c1.4 0 2.9-.6 10.6-4.5l7.9-4 3.1-3q3.1-3 3.7-4.2c.3-.5 1-1.5 1.7-2.2 1-1 1.5-2 3.1-5.1 2-3.9 2.5-5.3 2.5-6.6 0-.3.3-1.3.7-2 1-2 1.3-3.2 1.3-5.2q0-1.6.3-2.2c.6-1.1.7-1.8.9-4.1q.1-2.2.5-3.1c.3-.7.4-1.7.5-5.3.1-3.7.2-4.5.5-5.3.4-.8.4-1.5.5-8.7v-7.7h19c18.5.1 19.1.1 20 .5M740 661.5c.8.3 1.6.4 5.3.5s4.6.2 5.3.5q1 .3 3.1.5a9 9 0 0 1 2.8.4c.7.4 1.3.6 2.8.8l1.9.5 2 .5q1.3.1 2.2.5t2 .4l1.7.5c.8.4 2.4.8 3.2.8l2 .7q2.4 1.3 4 1.3.8 0 3.4 1.3 3.7 2 5.2 1.9c.3 0 4 1.7 9 4.2 7.3 3.7 8.5 4.3 9.5 5.3q1.1 1 3.2 2.1a13 13 0 0 1 3.3 2.2 13 13 0 0 0 3.1 2.1q1.9 1 3 2l2.2 1.6q1.2.6 3.4 2.8a188 188 0 0 1 21.2 21.2l1.7 2.3q.6 1.1 1.6 2.2t2 3q.9 2 2.1 3.1a17 17 0 0 1 2.7 4.3 16 16 0 0 0 2.6 4.2q1 1 2.6 4.1l1.5 3.6c0 1.2.6 2.8 3 7.4q2.4 4.9 2.4 5.5 0 1.6 1.3 4.3.8 1.6 1 2.6 0 1 .4 1.9l.5 2.1.5 2.1.5 2c.2 1.7.4 2.2 1.3 3.9.7 1.5.8 1.7 1 3.8q0 2.2.4 3.1c.2.5.4 1.8.5 3.1.2 2.2.3 3 .8 4q.3.4.4 3.7c.1 2.6.2 3.5.5 4.2.4.9.4 1.5.4 14.2a62 62 0 0 1-.9 17.4c0 1.3-.2 2.5-.4 2.8-.5.9-.6 1.7-.8 3.9q-.1 2.1-.5 3.1-.3 1-.5 3.1c-.2 2.1-.3 2.6-.5 3.1l-.4 2q-.1 1.1-1 2.7a11 11 0 0 0-1.3 4.2l-.8 2.2q-1.5 2.6-1.4 4.3l-.7 2q-1.2 2.5-1.3 4.2c0 .4-1.8 4.1-5.7 12a63 63 0 0 1-6.9 12.7c-1 1-1.5 1.9-2.7 4.3a16 16 0 0 1-2.7 4.3l-1.6 2.1c-.2.5-1 1.4-1.5 2l-1.6 2.2q-.5 1-1.7 2.3l-1.6 2.1c-.2.5-1.4 1.9-2.6 3.1a197 197 0 0 1-22.5 22.5 13 13 0 0 1-4.3 3.2q-2 1-3.3 2.2-1.2 1.1-2.1 1.6c-.5.2-1.4 1-2 1.5-.8.8-1.9 1.4-4.2 2.6a15 15 0 0 0-4.3 2.7c-1 1-2 1.5-6.2 3.7a32 32 0 0 1-5.7 2.5c-1.3 0-2.7.5-6.3 2.4-2 1-4 1.8-4.2 1.8q-1.6 0-4.2 1.3-1.6.9-2.7 1-1 0-2 .4l-2.1.5-2 .5c-1.6.6-2 .7-3.3.9l-1.8.5q-.6.3-2.3.3a12 12 0 0 0-4.4.8l-1.9.4-1.9.6c-.5.2-1.4.3-3.9.4-2.6.1-3.5.2-4.2.5-.9.4-1.5.4-14.2.4a62 62 0 0 1-20-1.3c-.9-.5-1.7-.6-4-.8-1.3 0-2.7-.3-3.2-.5l-2-.5q-1-.1-2-.5t-2-.4l-1.8-.5a9 9 0 0 0-3-.8q-1-.1-2-.5t-1.9-.4q-1-.2-2.6-1-2.6-1.2-4.3-1.3-.6 0-6.6-3a76 76 0 0 0-8.2-3.8l-6.7-3.6a27 27 0 0 1-7.2-4.2q-1.3-1.2-3.3-2.2-2.1-1-3.2-2.1l-2-1.5a18 18 0 0 1-3.2-2.7 72 72 0 0 1-26.8-27.8q-1.1-1.2-1.6-2.1l-1.6-2.1a13 13 0 0 1-2.2-3.3q-1-2.1-2.1-3.2c-1-1-1.8-2.6-7.9-14.7-4-8-6.8-14-6.8-14.2q0-1.5-1.9-5.2-1.2-2.7-1.3-3.3 0-1.6-1.3-4.3-.9-1.6-1-2.7 0-1-.4-2l-.5-2-.5-2c-.2-.5-.4-1.9-.5-3.1-.2-2.2-.3-3-.8-4-.2-.2-.3-1.4-.4-2.7q-.2-2.3-.5-3.2c-.3-.7-.4-1.7-.5-4.2-.1-2.6-.2-3.5-.5-4.2-.4-.9-.4-1.5-.4-12.2s0-11.3.4-12.2c.3-.7.4-1.6.5-4.2.1-2.5.2-3.5.5-4.2q.3-1 .5-3.1a9 9 0 0 1 .4-2.8 8 8 0 0 0 .8-2.9q.1-1 .5-2l.4-2q.1-1.1 1-2.7a11 11 0 0 0 1.3-4.2q0-.6.7-2 1.3-2.4 1.3-4c0-.5 1.8-4.2 5.7-12.2a61 61 0 0 1 9.1-15.9q1-2.1 2.1-3.2l1.5-2q.5-.9 1.6-2.1l1.7-2.3a16 16 0 0 1 2.7-3.3c1.2-1.2 2.3-2.6 2.6-3.1s1.7-2.2 3.7-4.2q3.1-3.2 3.7-4.2c.6-1.3 6.8-7.5 8.1-8.1a27 27 0 0 0 4.3-3.8c2-2 3.7-3.4 4.2-3.7s1.9-1.4 3.1-2.6a16 16 0 0 1 3.3-2.7q1-.5 2.3-1.7t2.1-1.6c.5-.2 1.4-1 2-1.5q1-1 3.2-2.1 2-1 3.3-2.2a13 13 0 0 1 3-2.1 13 13 0 0 0 3-2 33 33 0 0 1 7.6-4.3l7-3.2c1.2 0 2.7-.6 6.2-2.4q3.7-1.7 4.3-1.8 1.7 0 4.1-1.3l2-.7c.8 0 2.4-.4 3.2-.8q.6-.3 1.7-.5 1 0 2-.4l2.1-.5 2.1-.5 1.9-.5c1.5-.2 2.1-.4 2.8-.8q.6-.3 2.9-.4t3.2-.5c.7-.3 1.7-.4 4.7-.5 3.6-.1 4.6-.3 5.4-.8q.3-.2 9.5-.1c8.5 0 9.2 0 10 .4"/><path d="m553.4 408.5-1.2.4-24.8.3c-23.8.1-24.5.1-25.4.5s-1.5.4-11.7.5c-10.7.1-11.3.2-12.5.8-.4.2-2.2.3-8 .4-6.9.1-7.6.1-8.4.5s-1.6.4-9.5.5-8.7.1-9.5.5-1.5.4-11.6.5c-10.6.1-11.2.2-12.4.8-.4.2-3.9.3-18.7.4-17.6.1-18.2.1-19.1.5s-1.5.4-56.2.5c-53.6.1-55.3.1-56.2.5q-1 .3-3.2.5a8 8 0 0 0-2.9.4c-.3 0-3.3 1.5-6.5 3.1l-5.9 3-2 2c-2 1.9-2.2 2.1-3.5 4.8-.8 1.5-1.6 3.2-1.7 3.8-.4 1.4-.4 6.9 0 8.2a17 17 0 0 0 5.1 7.6l3.1 3 4 2c4.1 2.1 4.5 2.2 6.3 2.5q1 .1 2 .5c.8.4 1.6.4 11 .4a40 40 0 0 0 11-.4c.8-.3 1.6-.4 7.4-.5 6.3-.1 7.1-.2 8.2-.8.4-.2 2.2-.3 8-.4 6.9-.1 7.6-.1 8.4-.5a29 29 0 0 1 8.5-.5c7-.1 7.7-.1 8.5-.5.8-.3 1.6-.4 8.4-.5 7.3-.1 8.1-.2 9.2-.8a44 44 0 0 1 8.1-.4c7-.1 7.7-.1 8.5-.5.8-.3 1.6-.4 8.4-.5s7.6-.1 8.4-.5 1.6-.4 9.5-.5c8.5-.1 9.2-.2 10.3-.8.4-.2 2-.3 7-.4 5.8-.1 6.6-.1 7.4-.5.8-.3 1.6-.4 8.4-.5s7.6-.1 8.4-.5c.8-.3 1.6-.4 8.4-.5 7.3-.1 8.1-.2 9.2-.8a44 44 0 0 1 8.1-.4c7-.1 7.7-.1 8.5-.5s1.6-.4 10.5-.5 9.7-.1 10.5-.5 1.5-.4 24.4-.5a483 483 0 0 0 24.1-.3l1.3-.6c.5-.3 2.6-.3 21.4-.3a256 256 0 0 0 24.1-.3c.9.3 2.5.3 7.9.3 6.1-.1 6.8-.1 7.6-.5.9-.4 1.5-.4 12.7-.5a58 58 0 0 0 14.6-1c1.7-.3 2.1-.4 5.2-2 2.8-1.3 3.1-1.6 4.9-3.3 1.5-1.5 2-2 2.8-3.8 1.3-2.5 1.6-3.5 1.6-5.8s-.3-3.3-1.4-5.5c-.7-1.4-1.2-2.1-3-3.9l-2.1-2.1-3.7-1.9c-2-1-4-2-4.5-2.1l-3-.4q-2.2-.1-3.1-.5c-.8-.3-1.7-.4-7.4-.5s-6.6-.2-7.4-.5c-.9-.4-1.6-.4-27.4-.4-21 0-26.7 0-27.4.2m-67.8 133.8q-.9.2-1.3.5c-.4.1-3.5.2-11.7.2-11.6 0-12.5 0-13.8.8-.4.2-2.4.3-10.1.4-9 .1-9.7.1-10.5.5s-1.5.4-12.7.5-11.8.1-12.7.5-1.5.4-13.8.5c-12.9.1-13.4.1-14.6.8-.4.2-3.2.3-14.4.4-13.3.1-14 .1-14.8.5s-1.5.4-16.9.5-16 .1-16.9.5-1.5.4-26.5.5c-18.1 0-25.8.2-26.2.3l-1.3.6q-.6.3-2.3.3c-2.1 0-3.3.3-5.2 1.3l-2 .7q-1.6 0-4.3 1.4c-1.6.8-2 1.2-5.8 5a45 45 0 0 0-4.7 5l-.7 2.2-.5 2q-1.2 3-.4 5.7l2.2 4.8c1.9 3.8 1.9 3.8 3.8 5.7 2 2 2 2 6 4a24 24 0 0 0 7.2 2.6c2.3.8 1.9.8 23.2.8 20-.1 20.6-.1 21.5-.5.8-.3 1.5-.4 8.5-.5s7.7-.1 8.5-.5c.8-.3 1.6-.4 6.3-.5 5.2-.1 6-.2 7.1-.8a27 27 0 0 1 5.9-.4c4.7-.1 5.5-.2 6.3-.5s1.6-.4 4.2-.5c2.5-.1 3.5-.2 4.2-.5s1.7-.4 6.3-.5c5.2-.1 6-.2 7.1-.8a27 27 0 0 1 5.9-.4c4.7-.1 5.5-.2 6.3-.5a20 20 0 0 1 6.3-.5c4.7-.1 5.5-.2 6.3-.5s1.6-.4 7.4-.5 6.6-.1 7.4-.5c.8-.3 1.6-.4 8.4-.5 7.3-.1 8.1-.2 9.2-.8a44 44 0 0 1 8.1-.4c7-.1 7.7-.1 8.5-.5s1.6-.4 9.5-.5 8.7-.1 9.5-.5 1.5-.4 14.8-.5c14-.1 14.3-.1 15.8-.9.5-.3 2-.3 14.6-.3 13.3 0 14 0 14.8.4 1.4.7 2.6.8 9.1.8 6-.1 6.2-.1 7.4-.6s1.3-.5 9.8-.6a38 38 0 0 0 15.5-2c2.5-.4 3.4-.8 5.1-2.4l2.3-1.7c1.6-.9 2.6-2.1 4.1-5.1 1.7-3.3 1.9-4.1 1.9-6.8a10 10 0 0 0-1.4-5.7 11 11 0 0 0-3-3.7 15 15 0 0 0-5.8-4c-3.7-1.9-5.1-2.4-6.4-2.4q-.6 0-1.2-.3c-1.3-.7-2-.8-7.3-.9-4.7-.1-5.5-.2-6.3-.5-.9-.4-1.7-.4-30.4-.4-23 0-29.7 0-30.4.2m-26.8 137.2-1.2.4-13.1.3c-12.2.1-12.8.1-13.7.5s-1.5.4-15.9.5c-15 .1-15.5.1-16.7.8-.4.2-3 .3-13.4.4-12.3.1-13 .1-13.8.5s-1.5.4-15.8.5-15 .1-15.8.5-1.5.4-24.4.5-23.5.1-24.4.5-1.5.4-11.6.5c-10.7.1-11.1.1-12.6.9q-.6.3-2.3.3t-2.8.3l-5.7 2.6-4.7 2.3-2.2 2.2a13 13 0 0 0-3.5 4.9c-1.6 3-2 4.3-2 5.7s.5 2.7 2.4 6.6c1.8 3.7 1.9 3.7 4 5.9l2.1 2.1 3.8 2c4.3 2.1 5.1 2.4 7.5 2.4q1.6 0 2.3.3c1.5.8 2.4.9 9.7.9s8.3-.1 9.6-.8c.4-.2 2.1-.3 8.1-.4 7-.1 7.7-.1 8.5-.5.8-.3 1.6-.4 7.3-.5s6.5-.1 7.3-.5c.8-.3 1.6-.4 5.3-.5 4.2-.1 5.1-.2 6.1-.8a27 27 0 0 1 5.9-.4c4.7-.1 5.5-.2 6.3-.5s1.6-.4 5.3-.5a16 16 0 0 0 5.3-.5c.8-.3 1.6-.4 7.3-.5 6.2-.1 7-.2 8.1-.8.4-.2 2-.3 7-.4 5.8-.1 6.6-.1 7.4-.5.8-.3 1.6-.4 8.4-.5s7.6-.1 8.4-.5a29 29 0 0 1 8.5-.5c7.4-.1 8.2-.2 9.3-.8.4-.2 2.2-.3 8-.4 6.9-.1 7.6-.1 8.4-.5s1.6-.4 9.5-.5 8.7-.1 9.5-.5 1.5-.4 11.6-.5l10.7-.1 1.2-.5c1.2-.5 1.2-.5 10.8-.6a42 42 0 0 0 13.6-1c1.3 0 2.6-.3 3.1-.5l2-.5a10 10 0 0 0 4.1-1.4c1.5-.7 2.1-1.2 3.8-2.9a12 12 0 0 0 3-3.8c1.2-2.3 1.5-3.4 1.5-5.7s-.3-3.4-1.5-5.7c-1.3-2.7-2-3.3-6.8-5.7-4-2-4.4-2.1-6.2-2.4l-1.9-.5a37 37 0 0 0-9.5-.5c-8-.1-8.7-.1-9.5-.5s-1.5-.4-10.5-.4a80 80 0 0 0-10.5.2m335 49.8c-.5.1-3.6 1.6-6.8 3.2l-5.9 3-8.4 8.4a102 102 0 0 0-9 9.4q-.6 1-4.9 5.4a31 31 0 0 0-4.9 5.5q-.4 1-3.8 4.4-3.1 3.2-3.7 4.2c-.2.5-1.4 1.9-2.6 3.1a19 19 0 0 0-2.6 3.1c-.2.5-1 1.4-1.5 2l-1.6 2.2q-.6 1.2-2.8 3.4a20 20 0 0 0-2.7 3.2c-.2.5-1 1.4-1.5 2l-1.5 2c-.2.5-1.5 2-2.7 3.2a18 18 0 0 0-2.8 3.4q-.6 1.1-1.6 2.2l-1.5 2q-.5.9-1.6 2.1l-1.6 2.1c-.2.5-1 1.4-1.5 2l-1.5 2q-.5.9-1.6 2.1l-1.7 2.3q-.5 1-1.7 2.3l-1.6 2.1c-.2.5-1 1.4-1.5 2l-1.5 2q-.5.9-1.6 2.1t-2.2 3.3q-1 2.2-2.2 3.3l-1.7 2.2q-.4 1-1 1.6l-.7.6-1-.6a568 568 0 0 1-29.3-29.2 10 10 0 0 0-3.5-3.6q-1-.5-2.3-1.7c-1-.9-1.9-1.5-4-2.5-1.4-.8-3-1.5-3.6-1.6-1.4-.4-8.8-.4-10.2 0-.5.1-2.7 1-4.7 2.1l-3.7 1.8-2.3 2.3a13 13 0 0 0-3.5 4.8c-.8 1.4-1.5 3-1.6 3.6-.4 1.4-.4 9 0 10.4l3.2 6.9 3 5.9 3.2 3.3q3.1 3.1 3.7 4.2a597 597 0 0 0 42.7 41.2l2.2 2.2 4.9 2.4c2.7 1.4 5.4 2.6 5.9 2.7q1 .3 4.2.3c3 0 3.8-.1 5.8-.8l1.9-.4c1.8-.3 4.6-1.8 6-3.1q1-1 2-1.5a11 11 0 0 0 3.7-3.7c.3-.5 1-1.5 1.6-2.1l1.5-2q.5-.9 1.6-2.1t2.2-3.3q1-2.2 2.2-3.3l1.6-2.1c.2-.5 1-1.4 1.5-2q1-1.2 2.1-3.2a13 13 0 0 1 2.2-3.3q1.2-1.2 2.1-3.1t2-3.1l1.8-2.3q.6-1.1 1.6-2.2l1.5-2q.5-.9 1.6-2.1l1.6-2.1c.2-.5 1-1.4 1.5-2l1.6-2.2q.5-1 1.7-2.3a13 13 0 0 0 2.1-3.1 13 13 0 0 1 3.1-4.1q2.1-2.2 2.7-3.3.5-1 1.7-2.3l1.6-2.1q.5-.9 1.6-2.1l1.6-2.1c.2-.5 1.4-1.9 2.6-3.1a16 16 0 0 0 2.7-3.3q.5-1 3.8-4.4 3.1-3.1 3.7-4.2.5-1 4.7-5.2t4.7-5.2c.3-.6 3.8-4.2 12.2-12.7a123 123 0 0 0 15-16.2 13 13 0 0 0 4.2-7.1l.4-1.9c.6-1.8.8-2.8.8-4.6s-.2-2.8-.8-4.6l-.4-1.9a8 8 0 0 0-2.3-4.4q-1-1.1-1.6-2.2c-.7-1.2-2-2.6-3.3-3.2-.5-.2-1.4-1-2-1.5a7 7 0 0 0-4-2.1c-1.3-.2-1.9-.4-3.3-1-1-.4-8.3-.5-9.7-.1"/></g></svg>