<svg xmlns="http://www.w3.org/2000/svg" width="1000" height="1000" viewBox="0 0 1000 1000"><g transform="scale(0.2)"><g transform="translate(0.000000,5000.000000) scale(0.100000,-0.100000)"
fill="#141413" stroke="none">
<path d="M37380 46430 l-55 -29 -208 -1 c-201 0 -209 -1 -257 -25 -48 -24 -56
-25 -254 -25 -196 0 -206 -1 -258 -25 -46 -21 -67 -25 -156 -25 -90 0 -109 -3
-152 -25 -43 -22 -63 -25 -149 -25 -85 0 -107 -4 -153 -25 -46 -21 -67 -25
-158 -25 -94 0 -109 -3 -145 -25 -29 -18 -55 -24 -95 -25 -37 0 -73 -8 -108
-25 -35 -16 -72 -25 -103 -25 -33 0 -66 -8 -99 -25 -43 -22 -62 -25 -155 -25
-93 0 -112 -3 -155 -25 -33 -17 -66 -25 -100 -25 -34 0 -67 -8 -100 -25 -34
-17 -66 -25 -102 -25 -45 0 -70 -9 -161 -55 -87 -44 -117 -55 -156 -55 -31 0
-69 -9 -103 -25 -36 -17 -71 -25 -108 -25 -46 0 -70 -8 -149 -50 -78 -42 -103
-50 -146 -50 -42 0 -71 -9 -154 -50 -80 -39 -113 -50 -151 -50 -43 0 -82 -16
-310 -130 -229 -114 -267 -130 -311 -130 -43 0 -85 -18 -361 -155 -264 -131
-319 -155 -357 -155 -40 0 -51 -5 -91 -44 -30 -29 -98 -72 -201 -125 -139 -72
-163 -81 -210 -81 -72 0 -141 -34 -204 -99 -44 -46 -88 -71 -360 -207 -265
-133 -318 -163 -365 -209 -36 -35 -88 -69 -150 -100 -61 -31 -117 -68 -155
-104 -46 -42 -95 -73 -200 -125 -109 -53 -153 -81 -200 -126 -34 -32 -88 -71
-120 -88 -33 -17 -78 -49 -100 -72 -22 -23 -69 -59 -105 -80 -36 -21 -83 -57
-105 -80 -22 -23 -65 -54 -95 -70 -30 -16 -75 -49 -100 -75 -25 -26 -70 -59
-100 -75 -30 -16 -73 -47 -95 -70 -22 -23 -69 -59 -105 -80 -36 -21 -85 -59
-110 -85 -25 -25 -65 -55 -90 -66 -28 -13 -86 -60 -155 -128 -60 -60 -130
-118 -155 -131 -27 -13 -108 -84 -205 -180 -104 -102 -178 -167 -210 -183 -36
-18 -121 -97 -300 -277 -200 -201 -262 -258 -310 -282 -75 -39 -193 -152 -230
-221 -37 -69 -80 -114 -133 -137 -61 -27 -212 -182 -250 -256 -23 -44 -68 -96
-177 -204 -95 -94 -155 -162 -172 -195 -33 -65 -135 -170 -199 -206 -37 -21
-56 -40 -69 -68 -24 -54 -246 -272 -310 -304 -27 -14 -70 -46 -95 -72 -25 -26
-71 -60 -103 -76 -33 -17 -87 -56 -120 -87 -53 -50 -103 -78 -360 -205 -264
-130 -303 -147 -347 -147 -34 0 -67 -8 -100 -25 -33 -17 -66 -25 -100 -25 -34
0 -67 -8 -100 -25 -45 -23 -61 -25 -174 -25 l-125 0 -107 50 c-84 39 -118 50
-157 50 -44 0 -83 17 -346 147 -252 126 -305 156 -357 205 -34 31 -81 66 -105
79 -67 34 -186 147 -215 204 -33 63 -195 229 -254 260 -53 27 -75 50 -120 125
-22 37 -180 202 -485 505 -361 359 -458 461 -480 505 -22 43 -122 149 -487
515 -364 364 -466 471 -488 515 -34 66 -68 99 -137 134 -40 20 -126 100 -360
335 -212 213 -322 316 -353 331 -25 12 -92 68 -150 125 -69 68 -125 113 -165
133 -42 21 -91 62 -160 132 -64 65 -120 112 -155 130 -30 16 -75 49 -100 75
-25 26 -70 59 -100 75 -30 16 -75 49 -100 75 -25 26 -70 59 -100 75 -30 16
-77 52 -105 80 -37 39 -75 64 -144 97 -67 31 -113 61 -157 103 -54 50 -99 76
-311 181 -210 105 -257 132 -308 180 -52 49 -101 77 -363 208 -268 134 -308
151 -353 151 -43 0 -82 16 -304 125 -209 102 -263 125 -299 125 -32 0 -74 14
-151 50 -83 39 -118 50 -156 50 -40 0 -71 11 -159 55 -89 45 -119 55 -160 55
-40 0 -70 10 -150 50 -84 42 -108 50 -155 50 -40 0 -70 7 -105 25 -34 17 -66
25 -102 25 -39 0 -64 7 -93 25 -29 18 -55 24 -95 25 -37 0 -73 8 -108 25 -46
21 -68 25 -153 25 -86 0 -106 3 -149 25 -34 17 -66 25 -102 25 -35 0 -71 9
-106 25 -46 21 -68 25 -153 25 -91 0 -105 3 -159 30 l-59 30 -206 0 c-200 0
-207 1 -255 25 l-49 25 -796 0 -796 0 -49 -25 c-46 -23 -59 -25 -205 -25 -146
0 -159 -2 -205 -25 -35 -18 -65 -25 -105 -25 -40 0 -70 -7 -105 -25 -46 -23
-59 -25 -205 -25 -146 0 -159 -2 -205 -25 -34 -17 -66 -25 -102 -25 -35 0 -71
-9 -106 -25 -46 -21 -69 -25 -152 -25 l-99 0 -109 -55 c-89 -45 -119 -55 -160
-55 -32 0 -69 -9 -104 -25 -34 -16 -71 -25 -103 -25 -32 0 -69 -9 -103 -25
-34 -16 -72 -25 -103 -25 -39 0 -67 -10 -142 -50 -81 -43 -101 -50 -151 -50
-52 0 -72 -8 -263 -105 -185 -95 -211 -105 -259 -105 -49 0 -79 -13 -354 -150
-275 -138 -304 -150 -353 -150 -50 0 -76 -11 -303 -126 -206 -105 -259 -136
-304 -180 -53 -52 -58 -54 -109 -54 -50 0 -55 -3 -110 -55 -46 -44 -94 -73
-251 -150 -159 -79 -205 -107 -250 -150 -43 -42 -89 -71 -215 -133 -133 -66
-167 -87 -197 -124 -28 -34 -60 -56 -144 -97 -81 -39 -124 -67 -169 -111 -33
-32 -83 -69 -111 -83 -28 -14 -67 -45 -87 -70 -23 -28 -57 -54 -94 -71 -42
-20 -89 -58 -168 -136 -65 -64 -130 -118 -160 -133 -30 -15 -88 -64 -145 -122
-60 -61 -115 -107 -150 -125 -35 -18 -90 -64 -150 -125 -57 -58 -115 -107
-145 -122 -29 -15 -96 -70 -160 -133 -68 -66 -130 -118 -163 -134 -72 -36
-710 -678 -754 -758 -18 -33 -86 -111 -182 -208 -94 -94 -163 -173 -176 -200
-13 -25 -73 -97 -135 -160 -61 -63 -117 -131 -125 -150 -7 -19 -39 -62 -70
-95 -32 -33 -69 -83 -83 -110 -14 -28 -46 -70 -72 -95 -26 -25 -59 -70 -75
-100 -16 -30 -49 -75 -75 -100 -26 -25 -59 -70 -75 -100 -16 -30 -52 -77 -80
-105 -38 -36 -68 -81 -110 -165 -40 -80 -73 -129 -105 -160 -31 -30 -64 -80
-100 -150 -36 -71 -69 -120 -100 -150 -39 -37 -69 -89 -172 -295 -103 -206
-134 -260 -178 -306 -48 -50 -90 -129 -409 -767 -325 -649 -356 -716 -356
-762 0 -43 -14 -78 -105 -260 -91 -183 -105 -218 -105 -261 0 -39 -10 -70 -50
-149 -40 -80 -50 -110 -50 -150 0 -42 -12 -76 -75 -207 -62 -128 -75 -165 -75
-205 0 -34 -9 -66 -30 -108 -22 -43 -30 -74 -30 -110 0 -41 -10 -70 -50 -150
l-50 -100 0 -107 0 -108 -50 -94 c-41 -77 -50 -103 -50 -145 0 -33 -9 -70 -25
-104 -15 -33 -25 -72 -25 -100 0 -29 -10 -68 -25 -100 -21 -46 -25 -68 -25
-155 0 -88 -4 -110 -25 -155 -16 -35 -25 -72 -25 -105 0 -38 -8 -64 -30 -104
-23 -41 -30 -65 -30 -108 0 -40 -7 -70 -25 -105 -23 -46 -25 -59 -25 -205 0
-146 -2 -159 -25 -205 -22 -43 -25 -63 -25 -149 0 -85 -4 -107 -25 -153 -24
-51 -25 -61 -25 -255 0 -181 -2 -206 -21 -250 -22 -53 -55 -93 -76 -93 -11 0
-13 -215 -13 -1230 0 -1015 2 -1230 13 -1230 19 0 51 -37 76 -87 19 -39 21
-58 21 -248 0 -200 1 -207 25 -255 23 -46 25 -59 25 -205 0 -146 2 -159 25
-205 22 -43 25 -62 25 -152 0 -89 4 -110 25 -156 21 -46 25 -68 25 -153 0 -91
3 -105 30 -159 22 -43 30 -74 30 -110 0 -34 8 -67 25 -100 22 -43 25 -62 25
-155 l0 -105 50 -100 50 -100 0 -100 c0 -88 3 -107 25 -150 17 -33 25 -66 25
-100 0 -41 10 -70 50 -150 42 -84 50 -109 50 -155 0 -47 8 -70 55 -160 45 -86
55 -115 55 -154 0 -38 12 -74 50 -156 39 -83 50 -118 50 -156 0 -41 12 -73 75
-198 64 -128 75 -157 75 -200 0 -44 11 -73 75 -201 64 -128 75 -157 75 -201 0
-45 15 -80 130 -312 114 -231 130 -269 130 -312 0 -46 29 -109 326 -705 292
-585 332 -661 379 -710 41 -43 76 -101 160 -265 84 -164 119 -222 160 -265 35
-36 70 -89 100 -150 31 -64 65 -113 101 -150 36 -38 69 -86 103 -155 33 -68
64 -114 96 -145 26 -25 59 -70 75 -100 16 -30 49 -75 75 -100 30 -29 66 -83
103 -155 37 -70 77 -131 113 -170 36 -39 74 -96 107 -160 33 -66 66 -115 97
-145 26 -25 59 -70 75 -100 16 -30 51 -77 80 -105 28 -27 60 -70 71 -95 13
-28 61 -86 128 -155 64 -64 119 -131 134 -160 14 -27 46 -70 72 -95 26 -25 58
-67 72 -95 16 -33 80 -105 183 -210 102 -104 167 -178 183 -210 17 -33 75 -99
172 -195 109 -108 154 -160 177 -204 23 -46 77 -107 235 -265 152 -153 212
-220 233 -261 22 -43 86 -112 284 -308 200 -198 263 -266 286 -310 21 -43 78
-106 230 -257 141 -140 209 -215 227 -250 16 -32 79 -105 178 -205 92 -94 161
-173 175 -200 13 -27 84 -108 180 -205 102 -104 167 -178 183 -210 15 -30 65
-89 122 -145 57 -56 110 -120 130 -155 23 -40 83 -109 180 -205 102 -101 155
-162 175 -200 18 -35 64 -90 125 -150 65 -64 106 -114 127 -154 20 -39 65 -94
135 -165 58 -58 116 -127 129 -153 13 -25 48 -73 77 -105 30 -32 66 -80 80
-108 15 -30 66 -90 127 -150 64 -64 108 -116 121 -145 11 -25 46 -72 78 -105
33 -33 70 -82 84 -110 17 -33 76 -100 177 -200 100 -99 160 -167 177 -200 14
-27 49 -75 78 -105 29 -31 63 -76 75 -100 13 -27 86 -110 180 -205 96 -97 166
-178 180 -205 13 -27 84 -108 180 -205 112 -114 166 -177 189 -220 26 -49 101
-129 430 -452 335 -330 403 -402 431 -455 29 -54 160 -190 929 -959 696 -696
907 -902 946 -922 36 -18 127 -100 310 -281 190 -187 276 -265 318 -288 42
-23 95 -71 193 -173 108 -115 147 -150 202 -178 47 -25 95 -65 162 -132 60
-61 116 -107 150 -125 35 -18 91 -65 155 -130 88 -90 112 -108 205 -155 70
-36 120 -69 150 -100 25 -26 68 -58 95 -72 33 -16 104 -78 210 -183 125 -124
173 -165 218 -186 37 -17 71 -43 94 -71 22 -27 60 -57 96 -74 43 -22 90 -62
175 -150 87 -89 133 -129 177 -151 41 -21 96 -65 170 -138 94 -93 124 -115
205 -155 81 -41 111 -63 205 -155 61 -59 130 -118 155 -130 25 -12 70 -46 101
-75 35 -34 92 -72 155 -103 65 -33 114 -66 144 -97 25 -26 70 -59 100 -75 35
-18 91 -65 155 -130 64 -65 120 -112 155 -130 30 -15 73 -47 95 -70 22 -23 67
-55 100 -72 32 -17 86 -56 120 -88 33 -32 83 -69 110 -83 28 -14 70 -46 95
-72 25 -26 67 -58 93 -71 27 -14 77 -52 112 -84 42 -39 98 -76 162 -109 64
-32 113 -65 143 -96 25 -26 67 -58 94 -72 28 -14 75 -49 105 -78 31 -29 79
-64 106 -78 28 -14 70 -46 95 -72 25 -26 68 -58 95 -72 28 -14 75 -49 105 -78
31 -29 76 -63 100 -75 24 -12 69 -46 100 -75 33 -31 98 -74 165 -109 95 -50
125 -72 215 -161 89 -88 119 -110 200 -150 82 -41 110 -62 205 -156 70 -69
126 -115 155 -127 25 -11 68 -43 95 -72 28 -28 75 -64 105 -80 30 -16 75 -49
100 -75 25 -26 70 -59 100 -75 30 -16 75 -49 100 -75 25 -26 72 -60 105 -77
43 -22 85 -57 149 -125 64 -68 105 -103 150 -125 33 -17 87 -56 121 -88 33
-32 83 -69 110 -83 30 -15 89 -65 145 -122 55 -56 116 -107 145 -122 27 -14
77 -51 110 -83 33 -32 83 -69 110 -83 28 -14 70 -46 95 -72 25 -26 67 -58 94
-72 28 -14 75 -49 105 -78 31 -29 79 -64 106 -78 28 -14 70 -46 95 -72 31 -33
80 -64 161 -105 89 -45 123 -68 152 -103 30 -37 63 -58 194 -123 124 -61 171
-90 218 -134 50 -48 100 -77 305 -180 206 -102 254 -131 300 -176 53 -51 58
-54 108 -54 46 0 76 -12 253 -100 173 -86 208 -100 250 -100 33 0 66 -8 99
-25 34 -17 66 -25 102 -25 35 0 71 -9 106 -25 46 -21 69 -25 152 -25 83 0 106
-4 152 -25 52 -24 58 -25 295 -25 236 0 242 1 295 25 35 16 71 25 106 25 36 0
68 8 102 25 33 17 66 25 100 25 42 0 76 12 207 75 129 62 165 75 205 75 75 0
315 120 401 199 47 45 98 77 212 134 112 56 162 87 195 122 25 26 67 58 95 72
27 14 77 51 110 83 33 31 76 63 95 70 19 8 64 42 100 76 36 34 88 73 115 87
30 15 88 65 145 122 60 61 115 107 150 125 35 18 90 64 150 125 65 67 114 106
155 127 48 24 101 71 260 233 149 152 214 210 253 230 37 18 103 75 213 183
110 108 177 166 213 184 31 16 70 47 92 74 24 29 61 58 103 79 48 24 93 60
161 130 56 57 115 107 145 122 28 14 75 49 105 78 31 29 76 63 100 75 25 12
70 46 100 75 40 38 98 75 215 135 115 59 176 97 215 135 49 46 124 86 609 328
511 255 559 277 606 277 42 0 72 10 154 50 81 40 113 50 152 50 35 0 67 9 109
30 43 22 74 30 110 30 34 0 67 8 100 25 47 24 58 25 213 25 l164 0 154 -74
c128 -62 166 -85 225 -140 43 -40 83 -88 102 -123 17 -32 52 -78 77 -103 26
-25 60 -71 76 -103 41 -80 251 -294 339 -347 36 -21 83 -57 105 -80 22 -23 67
-55 100 -72 32 -17 86 -56 120 -88 53 -51 99 -77 403 -229 305 -152 349 -171
393 -171 42 0 75 -13 211 -80 141 -70 168 -80 215 -80 37 0 69 -8 103 -25 33
-17 66 -25 100 -25 34 0 67 -8 100 -25 46 -23 59 -25 200 -25 141 0 154 -2
200 -25 49 -25 53 -25 294 -25 239 0 245 1 298 25 45 21 67 25 155 25 87 0
109 4 155 25 46 21 67 25 156 25 90 0 109 3 152 25 33 17 66 25 100 25 41 0
70 10 150 50 80 40 109 50 150 50 46 0 86 17 403 176 306 152 359 182 407 229
30 29 80 65 109 80 30 15 80 51 110 80 31 29 76 63 101 75 66 33 503 469 537
535 14 28 49 75 78 106 35 36 71 92 105 159 34 68 70 123 106 160 45 47 76
102 204 356 133 267 150 307 150 351 0 39 10 71 50 152 50 102 50 103 50 202
0 86 3 106 25 149 22 43 25 62 25 156 0 101 2 111 30 161 23 41 30 65 30 108
0 40 7 70 25 105 23 45 25 60 25 180 0 120 -2 135 -25 180 -22 43 -25 62 -25
155 0 93 -3 112 -25 155 -22 43 -25 62 -25 155 l0 105 -50 100 c-40 80 -50
110 -50 149 0 45 -21 92 -209 468 -180 360 -216 424 -256 463 -26 25 -60 70
-75 100 -43 84 -472 507 -556 548 -38 19 -74 47 -98 77 -25 29 -61 58 -104 79
-37 19 -87 55 -112 81 -38 39 -94 71 -344 196 -259 130 -305 149 -346 149 -37
0 -73 12 -155 50 -84 39 -118 50 -159 50 -38 0 -63 8 -101 30 -40 24 -62 30
-108 30 -41 0 -72 7 -107 25 -33 17 -66 25 -100 25 -34 0 -67 8 -100 25 l-49
25 -596 0 -596 0 -49 -25 c-43 -22 -62 -25 -155 -25 -93 0 -112 -3 -155 -25
-34 -17 -66 -25 -102 -25 -35 0 -71 -9 -106 -25 -35 -16 -72 -25 -103 -25 -42
0 -78 -14 -259 -105 -181 -91 -217 -105 -259 -105 -31 0 -68 -9 -103 -25 -47
-22 -67 -25 -166 -25 -100 0 -118 3 -162 25 -34 17 -66 25 -102 25 -35 0 -71
9 -106 25 -34 16 -72 25 -101 25 -39 0 -77 14 -204 75 -126 60 -166 75 -203
75 -38 0 -77 15 -209 80 -139 69 -169 80 -214 80 -47 0 -87 18 -461 205 -370
185 -415 205 -460 205 -72 0 -329 128 -409 205 -31 29 -78 64 -106 78 -27 14
-70 46 -95 72 -31 32 -81 65 -160 105 -160 82 -217 145 -323 360 l-77 155 0
112 0 111 79 158 c61 122 90 169 126 204 26 25 59 70 75 100 23 45 192 219
908 937 514 515 901 895 929 912 26 16 57 45 67 63 30 52 57 78 111 105 34 17
100 76 202 179 112 113 168 161 210 183 32 16 78 50 103 76 25 26 70 59 100
75 35 18 91 65 155 129 l100 101 255 127 c210 105 265 136 311 180 52 49 59
53 105 53 46 0 53 3 99 50 45 46 53 50 96 50 35 0 73 12 153 50 83 39 118 50
157 50 40 0 70 10 159 55 90 45 119 55 160 55 34 0 67 8 100 25 43 22 62 25
155 25 93 0 112 3 155 25 l49 25 411 0 c391 0 413 1 450 20 22 11 53 20 70 20
17 0 48 -9 70 -20 34 -17 59 -20 195 -20 146 0 159 -2 205 -25 49 -25 52 -25
307 -25 254 0 259 -1 311 -25 50 -23 65 -25 205 -25 141 0 156 -2 205 -25 46
-21 68 -25 153 -25 86 0 106 -3 149 -25 34 -17 66 -25 102 -25 35 0 71 -9 106
-25 50 -23 65 -25 205 -25 141 0 156 -2 205 -25 35 -16 72 -25 105 -25 38 0
64 -8 104 -30 41 -23 65 -30 108 -30 40 0 70 -7 105 -25 33 -17 66 -25 98 -25
40 0 77 -13 198 -71 l149 -70 228 -227 229 -227 205 -410 c177 -353 213 -418
258 -466 29 -30 64 -77 78 -105 15 -28 66 -89 122 -144 53 -52 110 -120 127
-150 42 -75 83 -117 148 -150 30 -16 78 -52 105 -80 28 -29 73 -63 100 -75 34
-16 82 -56 150 -125 l100 -102 458 -229 c411 -205 463 -229 507 -229 38 0 73
-11 156 -50 84 -39 118 -50 157 -50 37 0 64 -8 104 -30 49 -28 59 -30 158 -30
93 0 112 -3 155 -25 l49 -25 391 0 391 0 49 25 c43 22 62 25 150 25 88 0 107
3 150 25 35 18 65 25 105 25 40 0 70 7 105 25 33 17 66 25 100 25 41 0 70 10
150 50 81 41 109 50 152 50 47 0 83 16 412 181 296 148 370 189 411 228 28 27
73 61 100 76 28 16 97 74 155 131 58 56 125 112 150 124 61 30 215 183 247
245 15 29 71 97 133 160 105 108 109 113 182 265 63 131 81 161 120 192 39 32
60 67 152 248 94 187 106 217 106 263 0 45 10 73 75 202 l75 149 0 101 c0 85
4 108 25 153 16 35 25 72 25 103 0 33 8 66 25 99 23 46 25 59 25 205 0 146 2
159 25 205 23 46 25 59 25 195 0 136 -2 149 -25 195 -22 43 -25 62 -25 150 0
81 -4 108 -20 140 -24 48 -26 98 -3 145 16 34 16 37 -5 80 -15 30 -22 64 -22
101 0 39 -7 69 -25 104 -17 33 -25 66 -25 99 0 38 -11 73 -50 156 -38 82 -50
118 -50 155 0 38 -11 71 -50 151 -40 83 -50 112 -50 154 0 43 -9 69 -51 151
-32 61 -72 120 -105 154 -40 41 -71 92 -127 205 -73 145 -79 153 -177 250 -60
60 -108 115 -117 138 -12 28 -28 44 -62 62 -29 15 -116 94 -241 220 l-195 197
-116 58 c-89 45 -124 68 -152 103 -32 40 -75 64 -396 226 -325 164 -365 181
-411 181 -41 0 -70 10 -150 50 l-100 50 -105 0 c-93 0 -112 3 -155 25 -33 17
-66 25 -100 25 -36 0 -67 8 -110 30 l-59 30 -386 0 -386 0 -49 -25 c-43 -22
-62 -25 -154 -25 l-105 0 -160 -80 c-134 -67 -168 -80 -209 -80 -38 0 -71 -11
-151 -50 -81 -40 -113 -50 -153 -50 -42 0 -73 -12 -201 -75 -128 -63 -160 -75
-202 -75 -48 0 -54 -3 -100 -51 -39 -39 -84 -68 -205 -129 -109 -55 -167 -90
-195 -120 -22 -23 -69 -59 -105 -80 -38 -22 -105 -79 -160 -135 -57 -58 -115
-107 -145 -122 -70 -35 -417 -379 -452 -448 -15 -29 -71 -96 -134 -160 -68
-69 -115 -127 -128 -155 -25 -56 -247 -278 -311 -310 -24 -12 -69 -47 -100
-76 -47 -45 -101 -76 -317 -184 -240 -120 -264 -130 -315 -130 -41 0 -67 -7
-99 -25 -32 -18 -59 -25 -97 -25 -36 0 -68 -8 -102 -25 -48 -24 -55 -25 -255
-25 -200 0 -207 -1 -255 -25 l-49 -25 -381 0 -381 0 -49 25 -49 25 -411 0
-411 0 -49 25 -49 25 -410 0 -409 0 -54 25 -53 25 -493 0 -493 0 -49 -25 c-48
-25 -54 -25 -280 -25 -224 0 -232 1 -278 24 -54 28 -79 52 -116 117 -26 46
-26 46 -26 271 0 220 1 227 25 280 23 49 25 64 25 206 0 143 2 156 25 202 24
48 25 56 25 254 0 196 1 206 25 258 24 52 25 57 25 309 0 255 0 257 25 300 24
43 25 49 25 252 0 202 1 209 25 257 23 46 25 59 25 202 0 142 2 157 25 206 16
35 25 72 25 103 0 33 8 66 25 99 22 43 25 62 25 155 l0 105 55 110 55 110 0
102 0 101 256 511 c227 453 262 517 309 566 29 30 63 75 75 100 33 66 559 594
620 621 25 11 70 45 101 75 50 49 98 76 464 259 379 191 412 205 462 205 37 0
69 8 103 25 33 17 66 25 100 25 36 0 67 8 110 30 42 21 74 30 109 30 31 0 68
9 103 25 35 16 71 25 106 25 36 0 68 8 102 25 43 22 63 25 149 25 85 0 107 4
153 25 46 21 68 25 158 25 94 1 109 3 145 25 38 24 48 25 198 25 148 0 161 1
207 25 46 23 59 25 205 25 146 0 159 2 205 25 33 17 66 25 100 25 34 0 67 8
100 25 43 22 62 25 155 25 97 0 110 2 165 30 39 20 74 30 104 30 26 0 66 10
98 25 45 21 67 25 155 25 87 0 109 4 155 25 36 17 71 25 107 25 46 0 69 8 148
50 76 41 103 50 144 50 33 0 66 8 99 25 35 18 65 25 105 25 49 0 73 9 205 75
130 65 157 75 202 75 44 0 71 9 161 55 88 45 117 55 158 55 30 0 65 8 89 20
50 25 100 25 150 0 24 -12 59 -20 90 -20 42 0 76 -12 208 -75 141 -68 164 -83
230 -148 41 -40 85 -94 99 -122 37 -73 468 -506 543 -545 30 -16 78 -52 105
-80 28 -28 75 -64 105 -80 30 -16 75 -49 100 -75 39 -40 102 -75 453 -251
l408 -204 100 0 99 0 162 -80 c141 -70 168 -80 215 -80 37 0 69 -8 103 -25 33
-17 66 -25 100 -25 34 0 67 -8 100 -25 43 -22 62 -25 150 -25 88 0 107 -3 150
-25 l49 -25 500 0 499 0 54 25 c45 21 67 25 155 25 87 0 109 4 155 25 35 16
71 25 106 25 36 0 68 8 102 25 33 17 66 25 99 25 39 0 71 10 152 50 81 39 113
50 152 50 44 0 91 21 450 201 350 175 409 208 457 254 30 29 80 65 109 80 30
15 80 51 110 80 31 29 76 63 101 75 27 14 105 83 199 177 85 85 172 163 193
174 23 12 45 34 57 57 11 20 61 78 111 127 50 50 107 117 127 150 20 33 57 83
84 110 29 31 66 89 99 155 36 73 68 122 106 160 44 46 74 97 179 302 115 229
125 252 125 303 0 40 7 70 25 105 17 33 25 66 25 99 0 41 10 69 55 156 47 90
55 113 55 160 0 40 7 70 25 105 17 33 25 66 25 99 0 31 9 68 25 103 21 46 25
67 25 158 0 94 3 109 25 145 l24 40 1 452 0 451 -25 54 c-23 49 -25 64 -25
205 0 140 -2 155 -25 205 -16 35 -25 71 -25 106 0 36 -8 68 -25 102 -17 33
-25 66 -25 100 0 41 -10 70 -50 150 -40 80 -50 110 -50 150 0 45 -21 93 -229
508 -198 394 -236 463 -276 502 -26 25 -59 70 -75 100 -16 30 -49 75 -75 100
-26 25 -62 75 -80 111 -38 74 -72 107 -154 149 -40 20 -98 71 -206 180 -105
106 -166 160 -205 180 -30 16 -75 49 -100 75 -25 26 -67 58 -94 72 -28 14 -75
49 -105 78 -33 31 -98 74 -159 106 -94 49 -115 66 -225 179 -109 111 -127 136
-169 222 l-48 97 0 176 0 175 75 150 c66 132 75 156 75 205 0 40 7 70 25 105
17 33 25 66 25 100 0 34 8 67 25 100 17 33 25 66 25 100 0 34 8 67 25 100 17
33 25 66 25 100 0 34 8 67 25 100 22 43 25 62 25 152 0 89 4 110 25 156 21 46
25 68 25 153 0 86 3 106 25 149 22 43 25 62 25 156 0 101 2 111 30 161 l30 53
0 260 c0 258 0 261 25 310 l25 49 0 391 0 391 -25 49 c-25 49 -25 52 -25 305
0 253 0 256 -25 305 -22 43 -25 62 -25 155 0 93 -3 112 -25 155 -17 34 -25 66
-25 102 0 35 -9 71 -25 106 -16 35 -25 72 -25 103 0 33 -8 66 -25 99 -17 33
-25 66 -25 100 0 36 -8 67 -30 110 -21 42 -30 74 -30 109 0 39 -10 71 -50 152
-42 85 -50 112 -50 157 0 47 -7 69 -50 149 -41 76 -50 103 -50 143 0 40 -13
76 -75 206 -63 132 -75 165 -75 208 0 49 -3 54 -51 101 -67 66 -109 148 -109
215 0 44 -13 76 -96 243 -78 155 -108 204 -153 252 -47 50 -75 96 -158 265
-85 173 -109 213 -153 255 -41 40 -66 79 -122 194 -54 111 -84 159 -129 207
-32 34 -69 84 -83 111 -13 26 -45 68 -71 93 -26 25 -60 72 -77 105 -21 40 -65
96 -138 170 -59 61 -116 126 -126 146 -11 21 -217 237 -459 482 -370 373 -450
449 -500 475 -41 21 -90 61 -155 127 -55 56 -116 107 -145 122 -27 14 -77 51
-110 83 -33 32 -82 69 -110 83 -30 15 -88 65 -145 122 -83 84 -108 103 -200
150 -70 36 -120 69 -150 100 -31 33 -80 64 -161 105 -90 46 -123 68 -153 105
-33 40 -64 59 -245 147 -171 85 -216 112 -266 159 -50 47 -99 76 -302 178
-218 109 -248 121 -295 121 -47 0 -79 13 -315 130 -224 111 -269 130 -309 130
-39 0 -75 14 -199 75 -130 64 -160 75 -204 75 -42 0 -71 10 -161 55 -89 45
-119 55 -160 55 -40 0 -70 10 -150 50 -84 42 -108 50 -155 50 -40 0 -70 7
-105 25 -34 17 -66 25 -102 25 -39 0 -64 7 -93 25 -29 18 -55 24 -95 25 -37 0
-73 8 -108 25 -35 16 -72 25 -103 25 -33 0 -66 8 -99 25 -46 23 -59 25 -202
25 -142 0 -157 2 -206 25 -35 16 -72 25 -103 25 -33 0 -66 8 -99 25 -46 23
-59 25 -205 25 -153 0 -157 0 -215 30 l-59 30 -306 0 -306 0 -49 25 -49 25
-463 0 -463 -1 -55 -29z m-22820 -2285 c43 -22 62 -25 155 -25 93 0 112 -3
155 -25 43 -22 62 -25 150 -25 88 0 107 -3 150 -25 43 -22 62 -25 155 -25 93
0 112 -3 155 -25 33 -17 66 -25 98 -25 31 0 71 -9 106 -25 36 -16 75 -25 109
-25 37 -1 63 -8 92 -25 29 -18 54 -25 92 -25 42 0 74 -10 159 -50 82 -39 118
-50 156 -50 39 0 70 -11 158 -55 89 -45 119 -55 160 -55 44 0 80 -15 301 -125
219 -109 257 -125 300 -125 42 0 79 -15 257 -102 173 -85 217 -111 267 -158
52 -50 100 -77 355 -205 248 -123 304 -155 351 -200 44 -42 97 -74 259 -155
163 -82 215 -112 260 -156 36 -35 92 -72 156 -104 60 -31 119 -70 149 -99 28
-27 73 -61 100 -76 28 -16 75 -52 105 -80 34 -33 90 -70 150 -100 61 -30 115
-66 151 -100 30 -29 82 -66 115 -83 40 -21 90 -62 154 -127 60 -61 115 -107
150 -125 30 -16 78 -52 105 -80 28 -28 75 -64 105 -80 35 -18 90 -64 150 -125
60 -61 115 -107 150 -125 30 -16 78 -52 105 -80 28 -29 73 -63 100 -75 34 -16
82 -56 150 -125 64 -65 120 -112 155 -130 40 -21 108 -82 255 -230 155 -156
213 -208 256 -229 77 -38 486 -448 529 -531 22 -42 102 -128 335 -360 225
-224 313 -318 332 -355 37 -73 665 -703 748 -750 33 -19 80 -55 105 -80 34
-35 83 -66 195 -121 112 -56 163 -88 205 -128 76 -73 240 -156 307 -156 30 0
68 -10 101 -25 54 -25 56 -25 347 -25 l293 0 107 50 c83 39 118 50 156 50 43
0 81 16 301 126 205 103 262 135 307 179 31 29 76 63 101 75 24 12 69 46 100
75 30 29 78 64 105 78 28 14 73 49 100 77 28 28 75 64 105 80 41 21 113 87
280 255 164 164 237 231 270 246 33 15 126 101 360 333 228 227 329 321 365
339 38 19 165 141 510 487 352 353 471 466 505 481 33 14 115 89 305 278 210
209 272 265 320 289 33 17 80 51 105 77 25 26 70 60 102 76 33 17 72 47 94 74
24 30 61 59 103 80 36 18 86 54 111 80 25 26 67 58 94 72 28 14 75 49 105 78
35 33 91 70 150 100 61 30 115 66 151 101 38 36 88 70 151 100 65 31 111 62
149 100 50 49 105 79 565 310 459 230 516 261 565 310 53 52 58 54 109 54 48
0 80 13 363 155 288 144 315 155 366 155 49 0 70 8 198 75 128 67 148 75 198
75 50 0 74 9 216 80 136 68 167 80 210 80 40 0 70 10 150 50 80 40 110 50 150
50 40 0 70 10 150 50 80 40 110 50 150 50 40 0 70 10 150 50 84 42 108 50 155
50 40 0 70 7 105 25 33 17 66 25 100 25 34 0 67 8 100 25 35 18 65 25 105 25
43 0 67 7 108 30 50 28 61 30 154 30 87 0 109 4 155 25 51 24 60 25 261 25
202 0 209 1 257 25 l49 25 521 0 521 0 49 -25 c48 -24 55 -25 255 -25 200 0
207 -1 255 -25 46 -23 59 -25 205 -25 146 0 159 -2 205 -25 34 -17 66 -25 102
-25 35 0 71 -9 106 -25 35 -16 72 -25 103 -25 33 0 66 -8 99 -25 34 -17 66
-25 102 -25 35 0 71 -9 106 -25 35 -16 72 -25 105 -25 38 0 64 -8 104 -30 39
-22 66 -30 102 -30 30 0 70 -9 105 -25 36 -16 75 -25 106 -25 40 0 70 -10 150
-50 85 -42 108 -50 156 -50 50 0 70 -7 151 -50 78 -42 102 -50 147 -50 47 0
77 -12 312 -130 232 -116 264 -130 311 -130 47 0 84 -16 405 -177 298 -149
362 -185 408 -229 40 -37 95 -71 199 -124 104 -52 160 -86 200 -124 34 -32 99
-75 166 -110 72 -38 129 -77 165 -111 30 -30 75 -63 100 -73 25 -11 68 -43 95
-72 28 -28 75 -64 105 -80 30 -16 78 -52 105 -80 28 -28 75 -64 105 -80 35
-18 90 -64 150 -125 57 -58 115 -106 145 -122 72 -36 1007 -968 1036 -1033 12
-28 61 -87 128 -155 64 -64 119 -131 134 -160 14 -27 46 -70 72 -95 26 -25 58
-67 72 -95 14 -27 52 -78 85 -112 49 -52 72 -90 133 -217 63 -131 81 -159 121
-192 41 -34 61 -67 179 -303 114 -227 141 -273 185 -316 62 -61 100 -139 100
-207 0 -45 4 -53 50 -102 47 -49 50 -56 50 -105 0 -43 9 -68 55 -156 44 -86
55 -115 55 -154 0 -39 14 -77 75 -204 l75 -157 0 -100 0 -100 50 -99 50 -100
0 -101 c0 -88 3 -107 25 -150 18 -35 25 -65 25 -105 0 -40 7 -70 25 -105 l25
-49 0 -356 0 -356 30 -59 30 -59 0 -266 c0 -264 0 -266 -25 -315 -22 -43 -25
-62 -25 -155 0 -93 -3 -112 -25 -155 -22 -43 -25 -62 -25 -153 l0 -104 -50
-102 c-39 -81 -50 -113 -50 -152 0 -42 -12 -74 -80 -210 l-81 -160 -172 -170
c-194 -193 -245 -229 -325 -229 -43 0 -70 -9 -152 -50 l-100 -50 -105 0 -105
0 -110 -55 c-89 -45 -119 -55 -160 -55 -45 0 -94 -22 -497 -222 -399 -198
-455 -229 -510 -280 -33 -31 -83 -68 -110 -82 -26 -13 -70 -47 -98 -76 -27
-28 -70 -60 -95 -71 -64 -28 -322 -285 -360 -359 -18 -35 -64 -90 -125 -150
-84 -83 -103 -108 -150 -200 -36 -70 -69 -120 -100 -150 -40 -38 -74 -99 -226
-402 -161 -323 -179 -363 -179 -409 0 -41 -10 -70 -55 -160 -45 -89 -55 -119
-55 -160 0 -33 -8 -66 -25 -99 -17 -33 -25 -66 -25 -99 0 -31 -9 -68 -25 -103
-16 -35 -25 -71 -25 -106 0 -36 -8 -68 -25 -102 -17 -33 -25 -66 -25 -100 0
-44 -17 -83 -151 -352 -127 -255 -159 -312 -204 -359 -29 -30 -66 -82 -83
-115 -40 -77 -245 -282 -314 -312 -31 -13 -84 -57 -156 -128 l-109 -107 -564
-283 c-518 -260 -568 -283 -616 -284 -41 0 -72 -10 -154 -50 -84 -41 -112 -50
-156 -50 -37 0 -69 -8 -103 -25 -33 -17 -66 -25 -99 -25 -41 0 -70 -10 -150
-50 -81 -40 -109 -50 -151 -50 -34 0 -67 -8 -100 -25 -46 -23 -59 -25 -205
-25 l-155 0 -110 -55 -110 -55 -149 0 c-138 0 -153 -2 -203 -25 -34 -16 -71
-25 -103 -25 -32 0 -69 -9 -103 -25 -46 -21 -69 -25 -152 -25 -83 0 -106 -4
-152 -25 -35 -16 -71 -25 -104 -25 -37 0 -65 -7 -95 -25 -31 -17 -59 -25 -95
-25 -40 0 -74 -11 -158 -50 -83 -39 -118 -50 -157 -50 -33 0 -66 -8 -99 -25
-33 -17 -66 -25 -99 -25 -46 0 -105 -28 -668 -309 l-618 -309 -95 -97 c-60
-61 -115 -107 -150 -125 -70 -36 -440 -406 -460 -460 -7 -20 -59 -82 -121
-145 l-107 -110 -226 -451 c-208 -415 -226 -455 -226 -503 0 -43 -9 -71 -55
-162 -44 -88 -55 -119 -55 -159 0 -38 -11 -71 -50 -151 -41 -84 -50 -112 -50
-156 0 -37 -8 -69 -25 -103 -17 -34 -25 -66 -25 -102 0 -41 -7 -65 -30 -103
-23 -38 -30 -62 -30 -103 0 -36 -8 -68 -25 -102 -22 -43 -25 -62 -25 -155 0
-93 -3 -112 -25 -155 -22 -43 -25 -62 -25 -155 0 -93 -3 -112 -25 -155 -22
-43 -25 -62 -25 -150 0 -88 -3 -107 -25 -150 -23 -46 -25 -59 -25 -200 0 -141
-2 -154 -25 -200 -23 -46 -25 -59 -25 -205 0 -146 -2 -159 -25 -205 -23 -46
-25 -59 -25 -205 0 -146 -2 -159 -25 -205 -22 -43 -25 -62 -25 -150 0 -92 -3
-106 -30 -160 -30 -58 -30 -62 -30 -215 0 -146 -2 -159 -25 -205 -17 -33 -25
-66 -25 -99 0 -31 -9 -68 -25 -103 -16 -35 -25 -71 -25 -106 0 -36 -8 -68 -25
-102 -22 -43 -25 -62 -25 -150 l0 -101 -50 -100 c-40 -80 -50 -109 -50 -149 0
-40 -10 -70 -50 -150 -42 -83 -50 -109 -50 -155 0 -49 -9 -71 -80 -211 -71
-138 -80 -162 -80 -210 0 -51 -12 -80 -176 -407 -149 -296 -185 -360 -229
-407 -38 -39 -73 -96 -126 -200 -51 -102 -88 -161 -124 -200 -31 -33 -75 -99
-110 -165 -37 -71 -76 -129 -111 -165 -29 -30 -62 -75 -73 -100 -11 -25 -43
-67 -71 -95 -29 -27 -64 -75 -80 -105 -23 -44 -129 -155 -512 -536 -334 -333
-494 -485 -518 -494 -22 -8 -99 -76 -205 -180 -106 -104 -183 -172 -205 -180
-23 -9 -111 -89 -250 -226 -139 -137 -231 -220 -260 -234 -61 -30 -116 -85
-147 -144 -14 -28 -49 -75 -79 -106 -45 -47 -77 -103 -204 -356 -132 -265
-150 -307 -150 -350 0 -31 -9 -69 -25 -102 -23 -49 -25 -66 -25 -192 0 -126 2
-143 25 -192 16 -35 25 -71 25 -106 0 -36 8 -68 25 -102 17 -33 25 -66 25 -98
0 -40 13 -77 75 -204 63 -133 81 -161 120 -194 29 -23 58 -61 77 -98 40 -79
175 -214 254 -254 33 -17 79 -51 104 -77 30 -31 79 -64 143 -96 64 -32 120
-70 161 -108 57 -53 123 -88 878 -464 768 -383 819 -410 854 -453 30 -36 63
-58 153 -104 104 -53 126 -68 211 -155 60 -61 115 -107 150 -125 65 -34 176
-144 215 -215 16 -27 75 -98 132 -156 l103 -106 0 -55 c0 -47 7 -69 50 -149
41 -78 50 -103 50 -147 0 -36 8 -68 25 -102 23 -45 25 -61 25 -174 0 -111 -3
-130 -25 -178 -16 -34 -25 -71 -25 -104 0 -44 -13 -79 -99 -255 l-100 -204
-101 -100 c-65 -64 -112 -120 -130 -155 -41 -79 -352 -390 -429 -430 -36 -18
-89 -62 -151 -125 -60 -61 -115 -107 -150 -125 -30 -16 -77 -51 -105 -80 -27
-28 -70 -60 -95 -71 -25 -11 -72 -46 -105 -79 -42 -41 -88 -72 -155 -105 -63
-31 -113 -65 -150 -100 -45 -44 -92 -72 -259 -155 -163 -81 -215 -111 -260
-154 -44 -42 -98 -74 -251 -151 -158 -79 -206 -109 -255 -155 -50 -47 -95 -74
-267 -158 -181 -89 -211 -107 -244 -148 -33 -40 -65 -60 -248 -151 -168 -84
-222 -116 -267 -158 -35 -33 -90 -70 -150 -100 -61 -30 -113 -66 -149 -100
-42 -40 -92 -71 -210 -130 -117 -59 -168 -91 -210 -131 -33 -32 -94 -73 -155
-105 -56 -29 -124 -75 -155 -104 -32 -29 -95 -71 -150 -99 -57 -30 -117 -70
-151 -102 -49 -46 -121 -85 -567 -308 -465 -233 -516 -256 -562 -256 -40 0
-70 -10 -150 -50 -85 -42 -108 -50 -156 -50 -50 0 -70 -7 -160 -55 l-103 -55
-103 0 c-89 0 -110 -4 -156 -25 -47 -22 -68 -25 -165 -25 -98 0 -119 3 -165
25 -35 16 -72 25 -103 25 -33 0 -66 8 -99 25 -43 22 -62 25 -154 25 l-104 0
-161 80 c-137 68 -170 80 -212 80 -41 0 -73 12 -199 75 -133 67 -156 75 -206
75 -50 0 -70 7 -158 54 -61 33 -119 73 -146 101 -36 37 -89 68 -255 152 -170
85 -221 115 -265 158 -36 35 -89 70 -155 103 -70 35 -115 66 -150 102 -27 28
-75 64 -105 80 -30 16 -73 47 -95 70 -22 23 -70 57 -106 75 -42 22 -79 50
-103 80 -22 27 -61 57 -94 74 -32 16 -77 50 -102 76 -25 26 -70 59 -100 75
-35 18 -94 67 -161 133 -58 58 -126 115 -150 127 -26 13 -135 110 -259 230
-130 125 -233 216 -260 230 -29 14 -124 100 -263 239 -173 171 -225 228 -249
276 -23 46 -64 92 -171 195 -77 74 -156 143 -176 154 -53 27 -90 64 -118 121
-20 38 -192 215 -740 760 -612 607 -719 718 -745 769 -25 50 -136 166 -744
773 -441 441 -722 729 -734 753 -13 25 -34 47 -58 59 -46 24 -84 64 -110 117
-33 64 -70 103 -131 134 -44 23 -144 116 -466 435 -255 254 -426 415 -452 428
-23 12 -116 95 -207 184 -119 117 -180 170 -223 192 -42 22 -97 68 -203 176
-101 102 -162 155 -200 175 -41 21 -117 91 -305 280 -188 189 -264 258 -305
280 -30 16 -77 52 -105 80 -27 28 -72 63 -100 77 -64 32 -83 49 -106 95 -12
23 -34 45 -57 57 -20 11 -59 43 -87 71 -27 28 -75 64 -105 80 -30 16 -75 49
-100 75 -25 26 -70 59 -100 75 -41 21 -109 81 -260 233 -140 140 -221 212
-255 230 -28 14 -68 44 -90 67 -22 23 -67 57 -100 77 -33 20 -82 57 -110 83
-27 27 -75 60 -105 75 -36 18 -94 65 -165 135 -60 59 -130 118 -155 130 -24
12 -69 46 -100 75 -30 29 -77 64 -105 78 -30 15 -89 65 -145 122 -60 61 -115
107 -150 125 -35 18 -91 65 -155 130 -64 65 -120 112 -155 130 -35 18 -91 65
-155 130 -64 65 -120 112 -155 130 -35 18 -90 64 -150 125 -56 57 -115 107
-145 122 -27 14 -75 49 -105 77 -30 29 -80 66 -110 83 -30 18 -101 77 -156
131 -66 66 -121 110 -160 130 -40 21 -90 62 -154 127 -56 57 -115 107 -145
122 -29 15 -97 71 -160 133 -64 63 -131 118 -160 133 -30 15 -88 64 -145 122
-60 61 -115 107 -150 125 -35 18 -91 65 -155 130 -60 61 -120 112 -150 127
-29 15 -97 71 -160 133 -64 63 -131 119 -160 133 -36 18 -120 96 -295 272
-202 203 -256 252 -310 280 -68 35 -180 147 -214 212 -9 18 -33 41 -54 52 -43
22 -73 53 -96 98 -9 18 -33 41 -54 52 -46 24 -74 53 -102 111 -15 31 -134 158
-385 410 -267 268 -370 378 -388 415 -16 30 -65 89 -127 150 -64 64 -108 116
-121 145 -13 28 -61 86 -128 155 -63 64 -119 131 -134 160 -15 30 -66 90 -127
150 -65 64 -112 120 -130 155 -18 35 -64 90 -125 150 -65 64 -106 114 -127
154 -17 33 -54 85 -83 115 -29 31 -63 76 -75 101 -12 24 -46 69 -75 100 -33
34 -70 91 -100 150 -31 63 -67 114 -105 155 -39 41 -74 92 -108 160 -33 67
-66 115 -97 145 -35 34 -65 82 -122 195 -57 113 -88 163 -128 205 -41 42 -72
92 -133 215 -61 122 -92 171 -127 205 -41 40 -89 129 -411 772 -333 666 -364
732 -364 778 0 43 -14 78 -100 254 -87 177 -100 210 -100 255 0 44 -11 73 -75
201 -64 127 -75 157 -75 200 0 41 -10 71 -55 160 -44 88 -55 119 -55 159 0 38
-11 73 -50 156 -38 82 -50 118 -50 155 0 30 -9 68 -25 102 -15 33 -25 71 -25
101 0 31 -9 65 -25 97 -17 33 -25 66 -25 100 0 34 -8 67 -25 100 -17 34 -25
66 -25 102 0 35 -9 71 -25 106 -16 35 -25 72 -25 103 0 33 -8 66 -25 99 -17
33 -25 66 -25 100 0 36 -8 67 -30 110 -27 54 -30 68 -30 159 0 85 -4 107 -25
153 -21 46 -25 67 -25 156 0 90 -3 109 -25 152 -23 46 -25 59 -25 205 0 146
-2 159 -25 205 -25 49 -25 52 -25 305 0 253 0 256 -25 305 l-25 49 0 531 0
531 25 49 25 49 0 411 0 411 25 49 c23 46 25 59 25 205 0 137 2 161 20 195
l20 40 -20 40 c-26 51 -25 80 5 140 22 43 25 63 25 149 0 85 4 107 25 153 23
49 25 64 25 206 0 143 2 156 25 202 22 43 25 63 25 147 0 83 4 106 25 151 21
46 25 68 25 155 0 88 4 110 25 155 21 46 25 68 25 153 0 86 3 106 25 149 17
33 25 66 25 100 0 36 8 67 30 110 21 42 30 74 30 109 0 31 9 68 25 103 16 35
25 71 25 106 0 36 8 68 25 102 22 43 25 62 25 150 0 88 3 107 25 150 17 33 25
66 25 100 0 41 10 70 50 150 40 80 50 109 50 150 0 34 8 67 25 100 17 34 25
66 25 102 0 35 9 71 25 106 16 35 25 72 25 103 0 33 8 66 25 99 17 33 25 66
25 100 0 43 12 74 80 210 71 142 80 166 80 216 0 50 8 70 75 198 65 123 75
150 75 193 0 40 11 74 48 154 27 57 66 131 87 164 21 33 71 127 111 210 59
123 81 159 124 200 46 44 70 87 207 360 132 266 162 318 208 365 40 42 71 91
128 205 57 113 87 161 122 195 33 31 64 80 105 161 46 90 68 123 104 153 28
22 58 61 75 94 16 32 50 77 76 102 32 31 65 80 105 160 40 80 73 129 105 160
26 25 58 68 72 95 15 29 70 96 134 160 67 69 115 127 128 155 13 29 57 81 121
145 64 63 112 120 130 155 21 41 91 117 280 305 190 189 258 263 280 305 33
65 57 89 125 123 36 19 133 109 355 332 233 234 318 313 360 335 35 18 90 64
150 125 60 61 115 107 150 125 30 16 78 51 105 80 28 28 70 60 95 71 25 11 70
44 100 73 30 30 78 65 105 79 28 14 70 46 95 72 29 30 83 66 155 103 70 37
131 77 170 113 38 36 94 73 155 104 63 31 113 65 150 101 48 46 97 74 365 208
260 130 317 162 355 201 64 67 241 155 309 155 45 0 92 21 461 205 370 185
415 205 460 205 43 0 73 11 200 75 125 63 158 75 198 75 38 0 74 11 156 50 83
39 118 50 157 50 35 0 67 9 109 30 43 22 74 30 110 30 41 0 70 10 150 50 79
40 110 50 149 50 31 0 68 9 103 25 46 21 68 25 158 25 94 1 109 3 145 25 37
23 49 25 175 25 123 1 139 3 180 25 l45 24 793 1 793 0 49 -25z m31309 -11945
c81 -40 113 -50 152 -50 31 0 65 -8 92 -22 24 -12 73 -24 112 -28 64 -6 96
-20 375 -159 l305 -152 218 -217 c179 -178 224 -229 252 -282 18 -36 56 -87
85 -115 43 -42 67 -83 150 -253 84 -171 100 -211 100 -251 0 -37 11 -71 50
-150 40 -81 50 -113 50 -152 0 -33 8 -66 25 -99 18 -35 25 -65 25 -105 0 -43
7 -67 30 -108 40 -71 42 -156 5 -235 -16 -35 -25 -72 -25 -103 0 -33 -8 -66
-25 -99 -17 -34 -25 -66 -25 -102 0 -35 -9 -71 -25 -106 -16 -34 -25 -72 -25
-102 0 -43 -21 -91 -185 -417 l-186 -368 -317 -318 -317 -319 -267 -134 c-236
-118 -274 -134 -317 -134 -39 0 -71 -11 -152 -50 l-102 -50 -108 0 c-93 0
-114 -3 -161 -25 -50 -23 -63 -25 -216 -25 -154 0 -165 1 -212 25 -43 22 -62
25 -155 25 -93 0 -112 3 -155 25 -35 18 -66 25 -104 25 -50 0 -76 11 -313 129
-213 107 -266 137 -303 176 -25 26 -74 62 -110 80 -80 41 -283 242 -323 320
-14 28 -46 70 -72 95 -40 38 -71 94 -206 365 -145 292 -159 324 -159 373 0 36
-8 68 -25 102 -17 33 -25 66 -25 99 0 31 -9 68 -25 103 -21 46 -25 68 -25 158
-1 94 -3 109 -25 145 -35 57 -35 161 0 237 21 46 25 67 25 156 0 90 3 109 25
152 22 44 25 62 25 157 l0 107 181 362 181 361 271 271 272 270 362 181 c326
163 368 181 413 181 34 0 67 8 100 25 44 22 62 25 167 25 105 1 123 4 163 25
42 23 55 24 211 25 l166 0 102 -50z m-1951 -11335 c35 -16 72 -25 103 -25 31
0 66 -8 92 -22 24 -12 73 -24 112 -28 64 -6 95 -19 371 -157 l301 -151 227
-227 227 -228 130 -258 c113 -227 129 -264 129 -308 0 -31 9 -68 25 -103 24
-52 25 -57 25 -321 0 -266 0 -268 -25 -317 -17 -34 -25 -66 -25 -102 0 -35 -9
-71 -25 -106 -16 -34 -25 -72 -25 -102 0 -42 -18 -85 -125 -306 -114 -234
-131 -264 -188 -323 -35 -36 -69 -82 -77 -101 -19 -51 -253 -286 -310 -311
-25 -11 -72 -46 -105 -79 -52 -52 -86 -72 -267 -160 -178 -86 -213 -100 -257
-100 -42 0 -67 -9 -144 -50 l-94 -50 -230 0 c-225 0 -232 1 -285 25 -46 21
-67 25 -156 25 -90 0 -109 3 -152 25 -35 18 -65 25 -106 25 -54 0 -74 8 -313
131 l-256 131 -113 111 c-71 70 -123 131 -139 162 -14 28 -52 78 -84 112 -78
81 -159 248 -159 326 0 43 -10 70 -75 194 l-75 143 0 105 c0 93 -3 112 -25
155 -25 48 -25 54 -25 280 0 226 0 232 25 280 17 33 25 66 25 100 0 34 8 67
25 100 18 35 25 65 25 106 0 53 9 75 125 308 l126 251 227 228 c169 170 241
236 282 257 30 15 75 49 100 75 62 65 243 155 310 155 30 0 68 9 102 25 35 17
71 25 108 25 40 1 66 7 95 25 36 23 51 25 152 25 97 0 118 3 165 25 38 18 70
25 113 25 43 0 75 -7 113 -25z m-7778 -9470 c33 -17 66 -25 99 -25 39 0 74
-11 157 -50 85 -40 117 -50 158 -50 49 0 55 -3 101 -50 46 -47 52 -50 100 -50
69 0 143 -37 218 -109 34 -32 85 -70 112 -84 63 -32 274 -244 305 -307 12 -25
46 -70 75 -100 43 -44 73 -95 159 -267 92 -184 106 -218 106 -261 0 -32 9 -69
25 -104 22 -46 25 -67 25 -166 l0 -112 -50 -100 c-41 -82 -50 -109 -50 -152 0
-35 -9 -71 -25 -106 -16 -35 -25 -72 -25 -103 0 -44 -20 -90 -180 -412 l-180
-362 -227 -227 -228 -227 -252 -125 c-223 -111 -258 -126 -303 -126 -36 0 -67
-8 -110 -30 -42 -21 -74 -30 -109 -30 -31 0 -68 -9 -103 -25 -51 -24 -60 -25
-266 -25 -200 0 -215 1 -255 22 -25 13 -70 25 -112 29 -63 5 -93 18 -320 130
-213 105 -259 131 -310 180 -33 31 -82 68 -110 82 -62 31 -173 145 -208 212
-14 28 -46 70 -72 95 -32 31 -65 80 -105 160 -42 82 -73 129 -109 165 -48 47
-51 52 -51 101 0 43 -9 72 -50 155 l-50 102 0 104 c0 91 -3 110 -25 153 -24
47 -25 58 -25 212 0 153 2 166 25 216 16 35 25 72 25 103 0 33 8 66 25 99 17
34 25 66 25 103 0 44 9 72 50 156 42 85 50 112 50 157 0 53 2 58 54 112 29 31
64 77 76 102 12 25 48 72 81 105 32 33 67 80 78 105 25 57 150 180 216 213 28
14 73 49 100 77 28 28 71 60 96 71 25 11 72 47 105 80 56 57 60 59 110 59 41
0 74 10 159 50 82 38 118 50 155 50 30 0 68 9 102 25 53 25 53 25 371 25 l318
0 49 -25z"/>
<path d="M19190 35060 c-22 -12 -55 -19 -88 -20 -73 0 -227 -78 -297 -150 -27
-28 -70 -60 -95 -71 -91 -41 -108 -66 -326 -501 -191 -383 -204 -411 -204
-463 0 -49 -8 -71 -75 -198 -65 -124 -75 -151 -75 -194 0 -40 -11 -74 -50
-158 -39 -84 -50 -118 -50 -158 0 -38 -8 -64 -30 -104 -23 -41 -30 -65 -30
-108 0 -46 -8 -71 -50 -155 -40 -79 -50 -110 -50 -149 0 -31 -9 -68 -25 -103
-16 -35 -25 -71 -25 -104 0 -37 -7 -65 -25 -95 -17 -31 -25 -59 -25 -95 0 -41
-11 -74 -50 -159 -39 -82 -50 -118 -50 -156 0 -39 -11 -69 -55 -156 -46 -91
-55 -116 -55 -161 0 -36 -8 -68 -25 -102 -17 -33 -25 -66 -25 -100 0 -34 -8
-67 -25 -100 -18 -35 -25 -65 -25 -105 0 -47 -8 -71 -50 -155 -40 -80 -50
-109 -50 -150 0 -34 -8 -67 -25 -100 -16 -33 -25 -66 -25 -98 0 -38 -11 -71
-50 -151 -40 -82 -50 -112 -50 -154 0 -34 -9 -70 -25 -105 -15 -32 -25 -72
-25 -98 0 -34 -13 -71 -55 -154 -47 -93 -55 -118 -55 -165 0 -46 -8 -71 -50
-155 -40 -80 -50 -110 -50 -150 0 -40 -10 -70 -50 -150 -40 -80 -50 -109 -50
-150 0 -34 -8 -67 -25 -100 -18 -35 -25 -66 -25 -104 0 -49 -9 -71 -80 -209
-72 -140 -80 -160 -80 -211 0 -48 -8 -72 -50 -156 -40 -80 -50 -110 -50 -150
0 -44 -15 -80 -125 -300 -110 -220 -125 -256 -125 -300 0 -70 -98 -265 -165
-330 -31 -30 -64 -78 -97 -145 -47 -94 -60 -110 -222 -273 -117 -119 -187
-182 -221 -199 -27 -14 -76 -50 -107 -79 -55 -53 -58 -54 -115 -54 -50 0 -71
-7 -152 -50 l-94 -50 -104 0 c-91 0 -110 -3 -153 -25 -33 -17 -66 -25 -100
-25 -34 0 -67 -8 -100 -25 l-49 -25 -463 0 -463 0 -53 -25 c-53 -25 -58 -25
-308 -25 l-254 0 -53 -30 -54 -30 -309 0 c-308 0 -309 0 -362 -25 -52 -24 -62
-25 -258 -25 -198 0 -206 -1 -254 -25 l-49 -25 -920 0 -919 0 -54 -25 -53 -25
-411 0 -412 0 -43 -25 c-32 -18 -59 -25 -97 -25 -36 0 -68 -8 -102 -25 -33
-17 -66 -25 -100 -25 -42 0 -74 -12 -196 -71 -116 -56 -160 -84 -214 -133 -37
-35 -81 -68 -97 -75 -21 -9 -40 -35 -76 -104 -39 -76 -47 -101 -47 -145 0 -37
-8 -68 -25 -102 -14 -27 -25 -63 -25 -80 0 -17 11 -53 25 -80 17 -33 25 -66
25 -100 0 -65 42 -149 105 -210 26 -25 55 -61 66 -82 16 -32 41 -48 203 -132
165 -86 190 -96 238 -96 35 0 71 -8 106 -25 35 -16 72 -25 103 -25 33 0 66 -8
99 -25 43 -22 62 -25 152 -25 95 0 107 -2 158 -30 l55 -29 648 -1 648 0 49 25
49 25 563 0 563 0 53 25 c50 23 65 25 205 25 141 0 156 2 205 25 69 32 169 34
233 6 42 -19 43 -19 80 0 35 17 62 19 319 19 280 0 281 0 330 -25 l49 -25 616
0 616 0 49 -25 49 -25 851 0 851 0 49 25 c34 17 66 25 102 25 35 0 71 9 106
25 35 16 72 25 103 25 68 0 226 79 289 145 25 26 72 60 105 77 76 38 98 59
142 133 20 33 59 85 88 115 41 44 76 106 178 310 116 233 127 260 127 310 0
41 6 65 25 95 18 30 24 54 25 98 0 49 8 72 50 157 41 82 50 109 50 152 0 35 9
71 25 106 16 35 25 72 25 103 0 40 11 71 55 159 45 90 55 119 55 160 0 34 8
67 25 100 17 33 25 66 25 99 0 39 11 74 50 157 38 82 50 118 50 155 0 39 10
67 50 142 42 79 50 102 50 148 0 36 8 71 25 107 16 35 25 72 25 104 0 40 10
70 55 159 45 89 55 119 55 160 0 33 8 66 25 99 17 33 25 66 25 99 0 31 9 68
25 103 17 36 25 71 25 108 0 46 8 70 50 149 41 77 50 103 50 145 0 33 9 70 25
104 16 35 25 72 25 103 0 39 10 70 50 149 41 82 50 109 50 152 0 35 9 71 25
106 16 35 25 72 25 103 0 40 11 71 55 159 45 89 55 119 55 160 0 40 10 70 50
150 40 80 50 109 50 150 0 34 8 67 25 100 17 33 25 66 25 100 0 41 10 70 50
150 41 82 50 109 50 153 0 45 4 57 28 80 25 24 36 27 93 27 84 0 109 -22 109
-93 0 -31 9 -65 25 -97 17 -34 25 -66 25 -102 0 -35 9 -71 25 -106 16 -35 25
-72 25 -103 0 -33 8 -66 25 -99 22 -43 25 -62 25 -155 0 -99 2 -109 30 -158
28 -50 30 -60 30 -161 0 -94 3 -113 25 -156 17 -33 25 -66 25 -100 0 -34 8
-67 25 -100 17 -33 25 -66 25 -99 0 -31 9 -68 25 -103 16 -35 25 -71 25 -106
0 -36 8 -68 25 -102 23 -46 25 -59 25 -207 1 -150 2 -160 25 -198 18 -29 25
-54 25 -93 0 -36 8 -68 25 -102 22 -43 25 -62 25 -155 l0 -105 50 -100 50
-100 0 -155 0 -156 55 -104 55 -105 0 -104 c0 -90 3 -111 25 -158 16 -35 25
-71 25 -106 0 -36 8 -68 25 -102 22 -43 25 -62 25 -150 0 -88 3 -107 25 -150
17 -33 25 -66 25 -100 0 -34 8 -67 25 -100 22 -43 25 -62 25 -152 0 -89 4
-110 25 -156 16 -35 25 -72 25 -103 0 -33 8 -66 25 -99 22 -43 25 -62 25 -150
0 -92 3 -106 30 -160 27 -54 30 -68 30 -159 0 -85 4 -107 25 -153 16 -35 25
-71 25 -106 0 -36 8 -68 25 -102 17 -33 25 -66 25 -99 0 -31 9 -68 25 -103 23
-49 25 -64 25 -205 0 -140 2 -155 25 -205 21 -46 25 -68 25 -158 1 -94 3 -109
25 -145 22 -36 25 -51 25 -146 l0 -106 50 -102 50 -102 0 -155 c0 -145 2 -158
25 -204 17 -33 25 -66 25 -100 0 -36 8 -67 30 -110 27 -54 30 -68 30 -159 0
-85 4 -107 25 -153 16 -35 25 -71 25 -106 0 -36 8 -68 25 -102 22 -43 25 -63
25 -149 0 -85 4 -107 25 -153 21 -46 25 -68 25 -158 1 -94 3 -109 25 -145 22
-36 25 -51 25 -145 0 -91 4 -112 25 -158 21 -46 25 -68 25 -153 0 -86 3 -106
25 -149 18 -35 25 -65 25 -105 0 -40 7 -70 25 -105 17 -33 25 -66 25 -100 0
-36 8 -67 30 -110 27 -54 30 -68 30 -160 0 -88 3 -107 25 -150 17 -33 25 -66
25 -99 0 -31 9 -68 25 -103 23 -49 25 -64 25 -205 0 -140 2 -155 25 -205 16
-35 25 -71 25 -106 0 -36 8 -68 25 -102 17 -33 25 -66 25 -100 0 -34 8 -67 25
-100 22 -43 25 -62 25 -150 0 -88 3 -107 25 -150 17 -34 25 -66 25 -102 0 -35
9 -71 25 -106 16 -35 25 -72 25 -103 0 -33 8 -66 25 -99 17 -33 25 -66 25
-100 0 -36 8 -67 30 -110 22 -43 30 -74 30 -110 0 -34 8 -67 25 -100 17 -34
25 -66 25 -101 0 -47 15 -81 150 -354 l151 -301 137 -136 137 -137 304 -150
303 -151 183 0 182 0 149 71 c131 63 159 81 237 153 65 60 97 98 122 146 18
36 54 85 80 110 36 34 65 81 121 194 65 129 74 155 74 202 0 38 7 69 25 104
17 34 25 66 25 102 0 39 7 64 25 93 18 30 24 54 25 96 0 50 9 75 75 208 63
127 75 160 75 202 0 42 12 74 80 209 71 142 80 166 80 215 0 40 7 70 25 105
16 32 25 66 25 96 0 39 14 75 75 199 64 130 75 160 75 204 0 35 8 67 25 101
17 33 25 66 25 100 0 34 8 67 25 100 17 33 25 66 25 100 0 41 10 70 55 160 47
93 55 118 55 165 0 46 8 71 50 155 40 80 50 109 50 150 0 34 8 67 25 100 16
33 25 66 25 98 0 38 11 71 50 151 41 84 50 112 50 156 0 47 8 70 55 160 46 87
55 113 55 155 0 34 8 67 25 100 17 33 25 66 25 99 0 39 10 71 50 152 41 83 50
112 50 155 0 37 7 64 25 95 17 31 25 59 25 95 0 41 11 74 50 159 39 83 50 118
50 156 0 39 10 70 50 149 40 80 50 109 50 150 0 36 8 67 30 110 21 42 30 74
30 109 0 39 11 74 50 157 39 84 50 118 50 158 0 42 9 68 50 145 42 79 50 102
50 148 0 44 9 70 50 153 42 83 50 109 50 155 0 49 9 71 80 211 71 138 80 162
80 210 0 74 42 157 106 209 38 31 56 58 95 143 39 83 62 118 116 174 64 66 81
77 285 179 191 95 224 109 268 109 34 0 67 8 100 25 l49 25 361 0 361 0 49 25
49 25 305 0 c303 0 304 0 358 25 l53 25 618 0 618 0 49 25 c46 23 59 25 200
25 141 0 154 2 200 25 43 22 62 25 150 25 88 0 107 3 150 25 35 18 65 25 105
25 49 0 72 9 203 74 110 55 158 86 192 121 25 26 66 58 92 71 43 22 53 33 93
114 36 71 45 100 45 140 0 34 8 67 25 100 21 41 25 64 25 134 l0 84 -79 158
c-61 122 -90 169 -126 204 -26 25 -54 62 -62 83 -11 27 -27 44 -57 58 -22 12
-63 42 -91 69 -28 26 -93 70 -149 99 -83 43 -107 51 -153 51 -44 0 -70 9 -153
50 -80 40 -109 50 -150 50 -34 0 -67 8 -100 25 -43 22 -62 25 -150 25 -92 0
-106 3 -160 30 l-59 30 -311 0 -311 0 -49 25 c-49 25 -50 25 -335 25 -285 0
-286 0 -335 -25 l-49 -25 -666 0 -666 0 -49 -25 c-43 -22 -62 -25 -155 -25
-93 0 -112 -3 -155 -25 -43 -22 -62 -25 -152 -25 -89 0 -110 -4 -156 -25 -35
-16 -72 -25 -103 -25 -33 0 -66 -8 -99 -25 -33 -17 -66 -25 -100 -25 -45 0
-83 -16 -369 -160 l-318 -159 -130 -138 c-74 -78 -141 -160 -156 -188 -14 -27
-46 -70 -72 -95 -66 -64 -145 -222 -145 -291 0 -43 -14 -78 -105 -262 -89
-180 -105 -219 -105 -260 0 -31 -9 -65 -25 -97 -18 -35 -25 -65 -25 -105 0
-47 -8 -71 -50 -155 -40 -80 -50 -110 -50 -150 0 -40 -10 -70 -50 -150 -40
-80 -50 -110 -50 -150 0 -40 -10 -70 -50 -150 -41 -82 -50 -109 -50 -152 0
-35 -9 -71 -25 -106 -16 -35 -25 -72 -25 -103 0 -35 -9 -67 -30 -109 -22 -43
-30 -74 -30 -110 0 -41 -10 -70 -50 -150 -40 -81 -50 -109 -50 -151 0 -41 -10
-70 -50 -150 -40 -80 -50 -109 -50 -150 0 -33 -8 -66 -25 -99 -17 -34 -25 -66
-25 -103 0 -44 -9 -72 -50 -156 -40 -81 -50 -113 -50 -152 0 -35 -9 -67 -30
-109 -22 -43 -30 -74 -30 -110 0 -34 -8 -67 -25 -100 -17 -33 -25 -66 -25 -99
0 -39 -11 -74 -50 -157 -38 -81 -50 -118 -50 -154 0 -33 -8 -62 -25 -91 -17
-31 -25 -59 -25 -95 0 -41 -11 -74 -50 -159 -39 -83 -50 -118 -50 -156 0 -33
-8 -66 -25 -99 -17 -34 -25 -66 -25 -102 0 -43 -5 -57 -27 -80 -24 -25 -33
-28 -93 -28 -59 0 -69 3 -92 28 -43 45 -68 106 -68 164 0 35 -9 71 -25 106
-16 35 -25 72 -25 103 0 33 -8 66 -25 99 -22 43 -25 62 -25 155 0 99 -2 109
-30 158 -22 40 -30 66 -30 104 0 33 -9 70 -25 105 -16 35 -25 71 -25 106 0 36
-8 68 -25 102 -17 33 -25 66 -25 99 0 31 -9 68 -25 103 -15 33 -25 71 -25 101
0 31 -9 65 -25 97 -22 43 -25 62 -25 150 0 88 -3 107 -25 150 -18 35 -25 65
-25 105 0 40 -7 70 -25 105 -18 35 -25 65 -25 105 0 40 -7 70 -25 105 -22 43
-25 62 -25 150 0 92 -3 106 -30 160 -22 43 -30 74 -30 110 0 34 -8 67 -25 100
-17 33 -25 66 -25 100 0 34 -8 67 -25 100 -17 33 -25 66 -25 99 0 31 -9 68
-25 103 -16 35 -25 71 -25 106 0 36 -8 68 -25 102 -17 33 -25 66 -25 100 0 34
-8 67 -25 100 -17 33 -25 66 -25 100 0 34 -8 67 -25 100 -22 43 -25 62 -25
152 0 89 -4 110 -25 156 -16 35 -25 72 -25 103 0 33 -8 66 -25 99 -17 33 -25
66 -25 100 0 36 -8 67 -30 110 -27 54 -30 68 -30 159 0 85 -4 107 -25 153 -16
35 -25 71 -25 106 0 36 -8 68 -25 102 -22 43 -25 63 -25 149 0 85 -4 107 -25
153 -17 35 -25 71 -25 108 -1 40 -7 66 -25 95 -18 29 -25 54 -25 93 0 36 -8
68 -25 102 -22 43 -25 62 -25 155 0 93 -3 112 -25 155 -17 34 -25 66 -25 102
0 35 -9 71 -25 106 -16 35 -25 72 -25 103 0 36 -8 63 -30 102 -28 50 -30 60
-30 159 0 92 -3 113 -25 160 -16 35 -25 71 -25 106 0 36 -8 68 -25 102 -22 43
-25 63 -25 149 0 85 -4 107 -25 153 -16 35 -25 71 -25 106 0 36 -8 68 -25 102
-17 33 -25 66 -25 100 0 34 -8 67 -25 100 -17 33 -25 66 -25 100 0 34 -8 67
-25 100 -22 43 -25 62 -25 150 0 88 -3 107 -25 150 -22 43 -25 62 -25 155 0
93 -3 112 -25 155 -17 33 -25 66 -25 100 0 36 -8 67 -30 110 -21 42 -30 74
-30 109 0 31 -9 68 -25 103 -21 45 -25 67 -25 155 0 102 0 102 -50 204 l-50
102 0 106 c-1 95 -3 110 -25 146 -22 36 -25 51 -25 143 0 90 -3 109 -25 152
-18 35 -25 65 -25 105 0 40 -7 70 -25 105 -17 33 -25 66 -25 100 0 34 -8 67
-25 100 -18 35 -25 65 -25 105 0 43 -7 67 -30 108 -22 40 -30 66 -30 104 0 33
-9 70 -25 105 -21 45 -25 67 -25 155 0 87 -4 109 -25 155 -16 35 -25 71 -25
106 0 36 -8 68 -25 102 -17 34 -25 66 -25 102 0 38 -7 65 -25 97 -22 38 -25
55 -25 145 0 87 -4 109 -25 154 -16 35 -25 72 -25 103 0 33 -8 66 -25 99 -18
35 -25 66 -25 104 0 47 -10 73 -80 215 -66 134 -80 170 -80 209 0 44 -4 52
-46 92 -30 29 -63 80 -96 145 -44 86 -65 115 -158 210 -59 61 -115 125 -124
142 -9 18 -33 41 -54 52 -20 11 -59 43 -87 71 -70 73 -223 150 -297 150 -35 0
-71 9 -106 25 -49 23 -67 25 -182 25 -112 0 -130 2 -153 20 -30 24 -24 24 -67
0z"/>
</g></g></svg>