<svg xmlns="http://www.w3.org/2000/svg" width="1000" height="1000" viewBox="0 0 1000 1000"><g fill="#141413"><path d="m747.6 71.4-1.1.6h-4.2c-4 0-4.1 0-5.1.5s-1.1.5-5 .5c-4 0-4.2 0-5.2.5s-1.4.5-3.2.5-2.1 0-3 .5-1.3.5-3 .5-2.1 0-3 .5c-1 .4-1.4.5-3.2.5s-2.2 0-2.9.5q-.8.6-1.9.5t-2.2.5-2 .5-2 .5c-.9.4-1.2.5-3.1.5s-2.2 0-3.1.5q-1 .5-2 .5t-2 .5-2 .5c-1 0-1.4.2-3.3 1.1-1.7.9-2.3 1.1-3 1.1a5 5 0 0 0-2.1.5 5 5 0 0 1-2.2.5c-1 0-1.4.2-3 1-1.5.8-2 1-2.9 1s-1.4.2-3 1-2.3 1-3.1 1-1.6.3-6.2 2.6-5.3 2.6-6.2 2.6-1.7.4-7.2 3.1c-5.3 2.6-6.4 3.1-7.2 3.1s-1 .1-1.8.9q-1 .9-4 2.5c-2.8 1.4-3.3 1.6-4.2 1.6q-2.2 0-4.1 2c-.9.9-1.8 1.4-7.2 4.1a30 30 0 0 0-7.3 4.2q-1.1 1-3 2t-3.1 2c-1 1-1.9 1.5-4 2.6-2.2 1-3 1.6-4 2.5l-2.4 1.8-2 1.4c-.4.5-1.4 1.2-2.1 1.6s-1.7 1.1-2.1 1.6l-1.9 1.4q-1 .6-2 1.5t-2 1.5l-1.9 1.4-2.1 1.6-2.2 1.7q-.9.9-1.8 1.3t-3.1 2.6a20 20 0 0 1-3.1 2.6 28 28 0 0 0-4.1 3.6 27 27 0 0 1-4.2 3.7c-.7.3-2.4 1.9-6 5.5a34 34 0 0 1-6.2 5.6c-1.5.8-3.9 3-4.6 4.5a6 6 0 0 1-2.7 2.7c-1.2.5-4.2 3.6-5 5.1-.4.9-1.3 2-3.5 4.1a23 23 0 0 0-3.4 3.9 13 13 0 0 1-4 4.1 3 3 0 0 0-1.4 1.4c-.5 1-5 5.4-6.2 6l-1.9 1.5-2 1.5-2.5 1.8c-1 1-2 1.5-7.2 4-5.2 2.7-6 3-6.9 3q-1 0-2 .5t-2 .5-2 .5c-.9.5-1.2.5-3.5.5h-2.5l-2.1-1c-1.7-.8-2.4-1-3.2-1s-1.6-.3-6.9-3c-5-2.5-6-3-7.1-4q-1.2-1.2-2.1-1.6c-1.4-.7-3.7-3-4.3-4.1a23 23 0 0 0-5.1-5.2 136 136 0 0 0-12.1-12.6 85 85 0 0 1-9.6-10.1c-.4-.9-2.4-3-9.7-10.3a90 90 0 0 1-9.8-10.3q-.9-1.8-2.7-2.7c-.8-.4-2.6-2-7.2-6.7a63 63 0 0 0-10.1-9.1 15 15 0 0 0-3.3-2.7q-1.2-.6-3.2-2.6a15 15 0 0 0-3.1-2.6q-1-.6-2-1.5l-2-1.5q-1-.6-2-1.5l-2-1.5q-1-.6-2.1-1.6a9 9 0 0 0-2.9-2q-1.9-.8-3.1-2c-1.1-1-2-1.5-6.2-3.6a24 24 0 0 1-6.2-3.6c-1-1-2-1.6-7.3-4.2-5.3-2.7-6.1-3-7-3s-1.7-.3-6.1-2.5c-4.2-2-5.3-2.5-6-2.5a8 8 0 0 1-3-1c-1.7-.8-2.4-1-3.1-1s-1.4-.2-3.2-1.1-2.4-1.1-3.2-1.1-1.4-.2-3-1-2.2-1-3.1-1q-1.1 0-2.1-.5t-2-.5-1.9-.5-1.9-.5-2.2-.5c-.9-.4-1.3-.5-3-.5s-2.1 0-3-.5q-1-.5-2-.5-1.1 0-2.2-.5c-.9-.4-1.3-.5-3-.5-1.8 0-2.1 0-3.2-.6L281 77h-4c-4 0-4.1 0-5.1-.5l-1-.5H239l-.9.5c-1 .5-1.2.5-4.1.5-3 0-3.2 0-4.1.5q-1 .6-2.1.5t-2.1.5c-1 .5-1.2.5-4.1.5-3 0-3.2 0-4.1.5q-1 .5-2 .5-1.1 0-2.2.5c-.9.4-1.3.5-3 .5h-2l-2.2 1.1c-1.7.9-2.3 1.1-3.2 1.1q-1 0-2 .5a5 5 0 0 1-2.1.5 5 5 0 0 0-2 .5 5 5 0 0 1-2.1.5c-.8 0-1.4.2-2.9 1-1.6.9-2 1-3 1s-1.4.2-5.2 2.1c-3.7 1.9-4.3 2.1-5.2 2.1s-1.6.3-7.1 3-6 3-7 3-1.6.2-6.1 2.5a25 25 0 0 0-6.1 3.6c-1 1-1.2 1.1-2.2 1.1s-1 0-2.2 1.1a17 17 0 0 1-5 3 19 19 0 0 0-5 3 19 19 0 0 1-4.3 2.7 13 13 0 0 0-4 2.4c-.5.7-1.1 1.2-2.8 2q-2.2 1-3.4 2.2l-2.2 1.7q-1 .5-1.8 1.4-.7.8-1.8 1.4t-3.4 2.7a18 18 0 0 1-3.2 2.7 15 15 0 0 0-2.9 2.4 15 15 0 0 1-3 2.5q-1.1.7-3 2.5a15 15 0 0 1-2.9 2.4c-.6.3-2 1.4-3.2 2.7a150 150 0 0 0-22 22 26 26 0 0 0-3.5 4c-.3.5-1.5 2-2.7 3.2a19 19 0 0 0-2.5 3q-.3.7-1.4 1.9l-1.7 2.2q-.5 1-1.4 1.9-.9 1-1.5 2t-1.5 2-1.5 2-1.6 2.1a11 11 0 0 0-2.2 3.3q-1.2 2.3-2.1 3.2t-2 3q-1 2.1-2 3c-.8.7-1.4 1.8-3.4 5.9a25 25 0 0 1-3.6 6.1 90 90 0 0 0-8.2 15.4 76 76 0 0 0-7.1 15.2c0 .9-.3 1.6-2.1 5.2-1.8 3.7-2.1 4.4-2.1 5.2s-.2 1.4-1 3-1 2.2-1 3-.2 1.5-1.5 4.1c-1.2 2.6-1.5 3.3-1.5 4.1q0 1-.6 2.2t-.6 2.2c0 .8-.2 1.4-1 3l-1 2v4.3l-1 1.9c-.8 1.5-1 2-1 2.9a5 5 0 0 1-.5 2q-.5 1.2-.5 2 0 1-.5 2c-.4 1-.5 1.4-.5 3.2 0 1.7 0 2.2-.5 3q-.5 1.2-.5 2.2t-.6 2c-.5.9-.6 1.3-.6 2.2q0 1.1-.5 2.1c-.5 1-.5 1.2-.5 4.1 0 3 0 3.2-.5 4.1s-.5 1.3-.5 3 0 2.1-.5 3c-.5 1-.5 1.3-.5 5.1s0 4.2-.4 5q-.8 1.8-1.5 1.9c-.3 0-.3 4.3-.3 24.6S0 384 .3 384q.6.1 1.5 1.7c.4.8.4 1.2.4 5 0 4 0 4.1.5 5.1s.5 1.2.5 4.1c0 3 0 3.2.5 4.1s.5 1.2.5 3 0 2.2.5 3.2.5 1.3.5 3c0 1.8 0 2.1.6 3.2q.6 1.3.6 2.2t.5 2c.4.9.5 1.2.5 3.1v2.1l1 2 1 2v2c0 1.8 0 2.1.5 3q.5 1 .5 2c0 .8.2 1.4 1 3s1 2.2 1 3.1c0 1 .2 1.4 1.1 3.2.9 1.7 1.1 2.3 1.1 3q-.1 1 1 3.2c.8 1.7 1 2.4 1 3.1s.2 1.5 1.5 4 1.5 3.1 1.5 4 .2 1.4 1.5 4 1.5 3.1 1.5 4c0 1 .3 1.6 2.6 6.3s2.6 5.3 2.6 6.2.6 2.2 6.5 14.1a84 84 0 0 0 7.6 14.2c.8.9 1.5 2 3.2 5.3s2.4 4.4 3.2 5.3a12 12 0 0 1 2 3q1 2 2 3 1 1.1 2 3.1t2 2.9q.9 1 1.5 2t1.5 2q1 1 2 3.1a17 17 0 0 0 2.3 3.4q1.1 1.3 2.2 3.2a11 11 0 0 0 1.9 2.9q.9 1 1.5 2t1.6 2.1q1 1 1.4 1.9.5 1 2.6 3.1t2.7 3.2q.5 1 1.4 1.9 1 .9 1.4 1.9.6 1 3.7 4.2 3 3.2 3.7 4.2.5 1 3.4 3.9a24 24 0 0 1 3.5 4 29 29 0 0 0 4.7 5.4c3 3 4.3 4.4 4.7 5.2.4.9 1.7 2.2 5.7 6.2s5.2 5.3 5.7 6.2a27 27 0 0 0 4.6 5.1q4.1 4 4.5 5a25 25 0 0 0 3.6 4.1q2.9 3 3.5 4a28 28 0 0 0 3.6 4.1q3 3.2 3.7 4.2a15 15 0 0 0 2.4 2.9 18 18 0 0 1 2.6 3.1 25 25 0 0 0 3.6 4.1q3 2.9 3.5 4 .7 1.1 2.5 3 2 2 2.5 3 .6 1.3 2.7 3.4c1.2 1.1 2.4 2.5 2.6 3s1 1.5 1.6 2.1q1 1.2 1.6 2.2t2.5 3 2.4 2.9c.2.5 1 1.4 1.6 2.1l1.7 2.2q.5 1 3.5 4t3.5 4c.3.5 1 1.5 1.6 2.1l1.5 2c.3.5 1.7 2.2 3.6 4.1q3 3.2 3.6 4.1a28 28 0 0 0 3.6 4.1q3.2 3.3 3.8 4.4c.5 1 2 2.6 8.6 9 6.7 6.6 8 8 8.6 9.1s3.2 3.8 18.6 19.2a325 325 0 0 0 25.1 24c3.8 3.8 5.5 5.4 6.4 5.8q1 .6 3.8 3.5c2.2 2.3 3 3 4 3.6q1.4.7 3.3 2.6a15 15 0 0 0 3 2.5q1.1.6 3.1 2.6c1.8 1.8 2.2 2.2 4.1 3.1q2.1 1 3 2 1 1 1.9 1.4 1 .6 4.2 3.7a17 17 0 0 0 4.4 3.7q1.1.6 1.8 1.4a6 6 0 0 0 2 1.5q1 .6 3.5 3 2.4 2.5 3.5 3 1.3.6 3.4 2.8c1.9 1.9 2.5 2.3 4.1 3.1s2.2 1.3 4.1 3.1c1.2 1.2 2.6 2.4 3.1 2.6s1.4 1 2 1.5q1.2 1 3.1 2t2.9 2 2 1.5 3.1 2.6 3.1 2.6c.6.3 1.5 1 1.9 1.4l2 1.4 2.4 1.8 2.2 1.7q1 .5 1.9 1.4.9 1 1.9 1.4 1 .5 2.2 1.7t3.2 2.2 2.9 1.9 1.9 1.4c.5.3 1.5 1 2 1.6l2.2 1.6q1 .5 1.9 1.4 1 1 1.9 1.4 1 .6 2.1 1.6l2 1.5c.5.2 1.4 1 2 1.5q1.2 1 3.3 2.2c1.9 1 2.5 1.4 4.3 3.2s2.4 2.2 4 3 2.2 1.2 4.1 3.1a14 14 0 0 0 3.1 2.6q1 .4 1.9 1.4 1 1 2.1 1.6 1 .6 2 1.5t2 1.5 2 1.5q.9.9 2.1 1.5t3 2.5c1.3 1.4 2 2.1 3 2.5l2.4 1.8 2.2 1.7a15 15 0 0 1 2.9 2.4q1.8 1.8 2.9 2.4t2.2 1.7l2.2 1.7q1 .5 1.9 1.4.9 1 1.9 1.4c.5.3 1.5 1 2 1.6l2.2 1.6q1 .5 1.9 1.4.9 1 3.2 2.1c1.8.9 2.5 1.4 3 2 .7.8 1.3 1.2 4 2.5 2.4 1.2 3.4 1.8 4.3 2.7 1 1 2 1.5 6.1 3.6 4.1 2 5 2.6 6 3.5 1 1 1.2 1.1 2.2 1.1.9 0 1.5.2 5 2 3.5 1.7 4.2 2 5 2q1 0 2 .5t2 .5 2.2.5c.9.4 1.3.5 3 .5s2.1 0 3 .5c1 .5 1.2.5 6 .5s4.8 0 5.8-.5q1.1-.5 2.2-.5 1 0 2-.5t2-.5c.8 0 1.5-.2 4.1-1.5 2.6-1.2 3.3-1.5 4.1-1.5a20 20 0 0 0 8-4c1-.9 2-1.5 4.3-2.7 2.2-1 3.2-1.7 3.9-2.4q.9-1 1.9-1.4 1-.5 2.2-1.7l1.9-1.4q.8-.4 2-1.5l2.3-1.8q1-.6 2.9-2.4 1.9-1.9 3-2.5t3-2.5q2-2 3.1-2.5c1-.5 2-1.5 5.2-4.7 3-3 4.3-4.2 5-4.6q1.1-.5 4.3-3.7 3.3-3.1 4.3-3.6 1-.7 1.8-1.5.8-1 2-1.6a12 12 0 0 0 3.3-2.6 15 15 0 0 1 2.9-2.4q1-.6 2.1-1.6l2-1.5c.5-.2 1.4-1 2-1.5q1-1 4.3-2.7t4.3-2.7c1-1 2.5-1.7 12.2-6.6a49 49 0 0 1 15.2-6.5c1.6-.8 2.2-1 3-1q1 0 2.2-.6t2.2-.6 2-.5c1-.5 1.2-.5 4.3-.5h3.2l3.1 1.5a15 15 0 0 1 4.5 2.8q1.5 1.3 2 2.4.7 1.2 1.6 2.1l1.5 2a30 30 0 0 0 6.8 7l2.1 1.6 2 1.4 2.4 1.8c1 1 2 1.5 8 4.6 6.2 3 7 3.4 8 3.4.8 0 1.4.3 4.1 1.6 2.9 1.4 3.4 1.6 4.3 1.6q1.1 0 2.1.5t2 .5 2 .5c1 .5 1.2.5 4 .5s3 0 4 .5 1 .5 5.9.5c4.8 0 4.9 0 6-.5.8-.4 1.3-.5 3-.5 1.8 0 2.2 0 3.1-.5 1-.4 1.4-.5 3.2-.5s2.1 0 3-.5q1-.5 2-.5c.8 0 1.4-.2 3-1s2.2-1 3-1c1 0 1.7-.3 8-3.5a34 34 0 0 0 10.4-6.2q1.1-.6 2.2-1.6 1-1 2-1.5a84 84 0 0 0 12.3-12.8q1-1.1 2.1-3.2a13 13 0 0 1 2.1-3.2c1-1 1.5-2 4.1-7.1 2.7-5.4 3-6.2 3-7s.2-1.5 1-3c1-2.1 1-2.1 1-4.1 0-1.7 0-2.1.5-3s.5-1.2.5-3.1 0-2.2.6-3.2.6-1.3.6-2.2q0-1.1.5-2.1c.5-.9.5-1.2.5-3.6s0-2.7-.5-3.6-.5-1.2-.5-3.1 0-2.2-.5-3.1-.5-1.2-.5-3.1v-2.1l-1-2c-.8-1.6-1-2.2-1-3 0-.9-.4-1.8-4.2-9.3a43 43 0 0 0-6.6-11.3 69 69 0 0 0-15.2-14l-2.2-1.7c-.8-.8-1.9-1.4-6.9-4-5.2-2.5-6-2.9-6.9-2.9q-.9.1-3.1-1c-1.7-.8-2.4-1-3.2-1q-1 0-2-.6c-.8-.5-1.2-.6-2.2-.6q-1.1 0-2.1-.5t-2-.5-2-.5l-1-.5h-23.9l-.9.5c-.9.4-1.2.5-3.1.5s-2.2 0-3.1.5q-1 .5-2 .5-1.1 0-2.2.5-1 .5-2 .5c-.9 0-1.6.3-5.2 2.1s-4.3 2.1-5.2 2.1q-1 0-2 .5c-1 .4-1.4.5-3.4.5s-2.3 0-3.2-.5q-1-.5-2-.5-1.1 0-2.2-.5a5 5 0 0 0-2-.5c-.8 0-1.5-.3-4-1.5-2.6-1.2-3.4-1.5-4.1-1.5-.8 0-1.6-.3-4.2-1.6-2.8-1.4-3.4-1.6-4.3-1.6-1 0-1.7-.4-9.2-4.1s-8.3-4.1-9.2-4.1c-1.4 0-6.6-2.6-8.2-4.1q-1-1-2.1-1.6-1-.5-1.9-1.4t-3.2-2.1c-3.2-1.6-4.3-2.9-6.5-7.2l-1.5-3.1v-4.5l1.6-3.1a14 14 0 0 1 2.5-4.1q.9-1 1.5-2c.5-.9 3.8-4.4 18.2-18.7a636 636 0 0 1 19.9-19.5q.7-1.4 2.2-2.1 1-.6 4-3.6c2.3-2.3 3.4-3.2 4.2-3.7l2.1-1.5q1-.9 2-1.5 1.1-.6 3.1-2.6l2-2 5.1-2.5a28 28 0 0 0 6.2-3.6c1-1 1.2-1.1 2.1-1.1s1 0 2-1 1-1 2-1q.8.1 3-1c1.6-.8 2.3-1 3.1-1s1.4-.2 3.2-1.1 2.4-1.1 3.2-1.1q1 0 2-.5c.9-.4 1.2-.5 3.1-.5s2.2 0 3.1-.5l1-.5h8.2c7.8 0 8.3 0 9-.4l1.4-.4 1.4.4c.7.3 1.2.4 3.9.4 3 0 3.2 0 4.1.5 1 .5 1 .5 6.1.5s5.2 0 6.3.5 1.3.5 4 .5c2.9 0 3.2 0 4.2.5s1.3.5 3 .5 2.1 0 3 .5q1 .5 2 .5 1.1 0 2.2.5c1 .5 1.3.5 4 .5 2.9 0 3.2 0 4.2.5q1 .5 2 .5t2.1.6c.9.5 1.3.6 2.2.6q1.1 0 2.1.5t2 .5c.8 0 1.5.3 4 1.4l2.9 1.4 4.6 4.6 4.5 4.5 4.1 8.2a46 46 0 0 0 9.2 14.3c1 1 2.2 2.4 2.5 3a7 7 0 0 0 3 3c.6.3 1.6 1 2.1 1.6l2 1.5q1 .4 3 2.5l2 2 9.2 4.6a40 40 0 0 0 10.1 4.6c.8 0 1.5.2 3.1 1s2.4 1 3.2 1a4 4 0 0 1 2 .6c1 .6 1.2.6 3.2.6 1.9 0 2.2 0 3.1.5l1 .5h15.6l1-.5c.9-.4 1.2-.5 3-.5s2.1 0 3-.5q1-.5 2.1-.5t2.1-.5 2-.5c.8 0 1.4-.2 3-1s2.2-1 3-1c1 0 1.7-.3 8.3-3.6a42 42 0 0 0 13.3-8.7c1.2-1.1 2.5-2.3 3-2.5 1.2-.6 4.3-3.7 5-4.9.2-.6 1.4-2 2.6-3.2 2.1-2.2 2.2-2.3 3.6-5.3 1.3-2.6 1.7-3.2 2.4-3.8.8-.7 1.2-1.4 3-5 2-3.7 2.2-4.3 2.2-5.3s.2-1.4 1.5-4l1.5-3v-2c0-1.7 0-2.2.5-3q.5-1.2.5-2.1t.5-2c.5-1 .5-1.2.5-4.1 0-3 0-3.2.5-4.1.5-1 .5-1.2.5-3.9s0-3-.5-3.9-.5-1.2-.5-3c0-1.6 0-2.2-.4-2.8q-.8-1.5 0-2.9c.3-.7.3-.7-.2-1.6q-.4-1-.4-2 0-1.1-.5-2.1t-.5-2c0-.7-.2-1.4-1-3.1q-1.1-2.2-1-3.1c0-.8-.2-1.4-1-3s-1-2.3-1-3.1-.2-1.4-1-3q-1.1-2-2.1-3.1a16 16 0 0 1-2.6-4.1c-1.4-2.9-1.5-3-3.5-5a14 14 0 0 1-2.3-2.8q-.4-.7-1.3-1.2t-4.8-4.4l-3.9-4-2.3-1.1a9 9 0 0 1-3-2c-.7-.9-1.6-1.3-8-4.6s-7.3-3.6-8.2-3.6-1.4-.2-3-1l-2-1h-2.1c-1.9 0-2.2 0-3.1-.5q-1-.5-2-.5t-2.2-.6l-1.2-.6h-15.4l-1 .5c-.9.4-1.2.5-3 .5h-2.2l-3.2 1.6c-2.7 1.3-3.3 1.6-4.2 1.6-.7 0-1.4.2-3 1s-2.2 1-3 1c-.9 0-1.5.2-4 1.5-2.6 1.3-3.3 1.5-4.1 1.5-1 0-1 0-2 1-.8.8-1.7 1.4-4.1 2.6a15 15 0 0 0-3.9 2.4c-.4.5-1.4 1.2-2.1 1.6s-2.1 1.6-3.2 2.7a15 15 0 0 1-2.9 2.4 56 56 0 0 0-11.7 12.2 16 16 0 0 0-2.6 3.1 29 29 0 0 1-6.2 6.2c-.5.2-1.4 1-2 1.5-1 1-2 1.5-6.3 3.7-4.8 2.4-5.3 2.6-6.3 2.6q-1.2 0-2 .5-1 .5-2 .5t-2 .5c-1 .5-1.1.5-5.1.5s-4.1 0-5.1.5l-1 .5H755l-1-.5-1-.5h-16.4l-1-.5-1-.5h-16.4l-1-.5-1.1-.5h-19.7l-1 .5c-1 .5-1 .5-5.6.5s-4.6 0-5.6-.5q-1.3-.5-2.3-2.3c-.5-1-.5-1-.5-5.4s0-4.6.5-5.6.5-1.3.5-4.2c0-2.8 0-3 .5-4s.5-1.1.5-5c0-4 0-4.2.5-5.2s.5-1.2.5-6.2 0-5.2.5-6c.5-.9.5-1 .5-5s0-4.2.5-5.2.5-1.2.5-4c0-2.9 0-3.2.5-4.2q.5-1 .5-2t.5-2c.4-.9.5-1.2.5-3.1V527l1.1-2.2 1.1-2.2v-4l5.1-10.3a58 58 0 0 1 7.7-13.3 109 109 0 0 1 14.4-14c1-.9 2-1.4 9.3-5.1 7.6-3.8 8.2-4.1 9.2-4.1q1.1 0 2.1-.5t2-.5 2.2-.6 2.2-.6 2-.5 2.2-.5 2-.5c.9-.4 1.3-.5 3-.5s2.1 0 3-.5c1-.4 1.4-.5 3.2-.5s2.2 0 2.9-.5c.8-.5 1-.5 4-.5s3.2 0 4.1-.5c1-.5 1.2-.5 4.1-.5 3 0 3.2 0 4.1-.5q1-.5 2-.5t2-.5c.9-.4 1.2-.5 3.1-.5s2.2 0 3.3-.6q1.2-.6 2-.6 1 0 2-.5c1-.4 1.4-.5 3.1-.5s2.2 0 3.1-.5a5 5 0 0 1 2.2-.5c.9 0 1.4-.2 3-1 1.5-.8 2-1 2.8-1q1 0 2-.5t2.1-.5c1 0 1.5-.2 4.1-1.5s3.1-1.5 4-1.5c1 0 1.5-.2 3.3-1.1s2.3-1.1 3.1-1.1q1 0 1.8-.4 1.5-.8 3 0 .8.3 1.8.4c.8 0 1.5.2 4.2 1.5s3.2 1.7 4.6 3q1.4 1.4 2 2.4a78 78 0 0 0 26 20.6l8.2 4.1h4l3.2 1.6c2.9 1.4 3.4 1.6 4.3 1.6q1.1 0 2.1.5t2 .5 2 .5c.9.4 1.2.5 3 .5s2.1 0 3 .5l1 .5h20l1-.5c1-.4 1.4-.5 3.1-.5s2.2 0 3.1-.5q1.1-.5 2.2-.5 1 0 2-.5t2-.5c.8 0 1.4-.2 3-1s2.3-1 3-1c1 0 1.9-.4 9-4a42 42 0 0 0 11.4-6.7q1.1-.6 2.2-1.6 1-1 2-1.5t4-3.5c1.7-1.7 3.4-3.3 3.8-3.5q.8-.4 1.2-1.2c.2-.4 1.2-1.5 2.2-2.5s2.1-2.3 2.5-3l1.7-2.2q1-1 2-3.1t2.1-3.2c.9-1 1.5-2 3.6-6 2.3-4.6 2.5-5 2.5-6.1q0-1.1.5-2.1t.5-2c0-.8.2-1.4 1.1-3.1s1.1-2.3 1.1-3.2q0-1.1.5-2.1t.5-2 .5-2c.4-1 .5-1.4.5-3.2s0-2.2.5-2.9l.5-.8v-18l-.5-1.1c-.5-1-.5-1.3-.5-4.1s0-3.1-.5-4.1q-.5-1.1-.5-2.2 0-1-.5-2t-.5-2c0-.8-.2-1.4-1-3s-1-2.2-1-3c0-.9-.4-1.9-4.6-10.2a50 50 0 0 0-8.5-14l-1.6-2.2a6 6 0 0 0-3-3 18 18 0 0 1-4.2-3.6 22 22 0 0 0-4.1-3.6q-1-.6-2-1.5l-1.9-1.4c-.5-.3-1.5-1-2-1.6q-1.2-1-3.3-2.1c-1.8-1-2.3-1.3-4.5-3.6a13 13 0 0 1-3.3-4.4l-1-2v-7l1.5-3c1.3-2.6 1.5-3.1 1.5-4.1q0-1.1.5-2.1t.5-2 .5-2 .5-2 .5-2 .5-2 .5-2c.4-.9.5-1.2.5-3s0-2.2.5-3.2.5-1.3.5-3 0-2.1.5-3 .5-1.2.5-3.1 0-2.2.6-3.2l.6-1.1v-5.2c0-5.2 0-5.2.5-6.2l.5-1V244l-.5-1c-.5-1-.5-1-.5-6.1s0-5.1-.5-6.1-.5-1.2-.5-3.1 0-2.2-.5-3.1q-.5-1-.5-2 0-1.1-.5-2.2-.5-1-.5-2t-.5-2-.5-2-.6-2.2-.6-2.2c0-.8-.2-1.4-1-3s-1-2.3-1-3.2-.1-1.3-1-3c-.8-1.5-1-2-1-2.8s-.3-1.5-1.5-4.1c-1.3-2.7-1.5-3.3-1.5-4.2s0-1-1-2q-2.1-2.2-2.2-4.3c0-.9-.3-1.5-2-4.9-1.5-3-2-4-3-5s-1.5-2-3.1-5.3a16 16 0 0 0-3.1-5.1c-.8-.8-1.3-1.6-2.4-3.9a15 15 0 0 0-2.6-4.1c-.7-.7-1.4-1.7-1.7-2.2q-.5-1-1.4-1.9l-1.5-2.1q-.6-1.2-2.8-3.4l-2.5-3-9.2-9.6a75 75 0 0 0-13.1-12 16 16 0 0 0-2.9-2.4q-1-.5-2.2-1.7l-2.2-1.7-2.9-2.4a12 12 0 0 0-4-3q-2.1-1-3-2t-3.2-2.1c-1.8-1-2.5-1.4-3-2.1-.7-.8-1.4-1.2-5-3a20 20 0 0 1-5.3-3.1c-1-1-2-1.5-6-3.6-4.4-2.2-5-2.4-6-2.4s-1.5-.3-6.2-2.6c-4.5-2.2-5.4-2.6-6.2-2.6s-1.5-.3-4-1.5c-2.6-1.3-3.2-1.5-4-1.5-1 0-1.5-.2-3.3-1.1s-2.4-1.1-3.2-1.1-1.4-.2-3-1-2.2-1-3.1-1q-1.1 0-2.1-.5t-2-.5-1.9-.5-1.9-.5-2.2-.5-2-.5-2-.5c-1-.5-1.2-.5-4-.5-2.9 0-3.2 0-4.2-.5q-1-.5-2-.5t-2-.5c-1-.5-1.2-.5-4.1-.5-3 0-3.1 0-4.3-.6l-1.2-.6h-12.2l-1-.5-1-.5h-18.5zm-456.4 45.7c.9.4 1.2.5 3.1.5s2.2 0 3.1.5 1.2.5 3 .5 2.1 0 3 .5 1.2.5 3.1.5 2.2 0 3.1.5q1 .5 2 .5t2 .5 2.3.5 1.8.5 1.8.5c.9 0 1.5.2 3.2 1s2.4 1 3.1 1 1.4.2 3.2 1.1 2.4 1.1 3.2 1.1 1.6.3 6 2.5 5.2 2.5 6 2.5c.9 0 1.6.3 5.2 2 3.4 1.7 4.3 2.3 5.3 3.2s2 1.5 7.1 4.1 6 3.1 7 4 2 1.5 5.2 3.1a20 20 0 0 1 5.2 3.1 13 13 0 0 0 3.1 2.1q2 1 3 2l2 1.5q1 .6 2.1 1.6t3 2 3 2c.6.6 1.7 1.3 2.3 1.7q1.2.6 3.1 2.5t3 2.5c.6.3 1.6 1 2.1 1.6q1 1 2.1 1.6t3 2.5 3 2.5c.6.3 1.6 1 2.1 1.6l2 1.5q1 .4 3 2.5 2 2 3.1 2.6c.8.4 2.2 1.6 5.1 4.6a26 26 0 0 0 5.1 4.6c1.6.7 9.7 9 10.6 10.6.4.8 2 2.6 6.7 7.2a52 52 0 0 1 6.6 7.1 147 147 0 0 0 17.1 16.6c.7.7 1.7 1.3 3.9 2.4a16 16 0 0 1 4.1 2.6 13 13 0 0 0 6.1 3.1q1 0 2 .5c1.1.5 1.2.5 7 .5h5.9l2.1-1c1.7-.8 2.4-1 3.1-1 .9 0 1.6-.3 6-2.5a25 25 0 0 0 6.2-3.6q1-1 2-1.5c.5-.2 1.4-1 2-1.5l2.1-1.6a7 7 0 0 0 2-1.5q1-1 2.1-1.6c.8-.4 2.3-1.7 5.6-5.1a34 34 0 0 1 5.4-5c.7-.2 2.5-2 7.2-6.6 4.6-4.5 6.6-6.4 7.3-6.8s3.3-2.8 10.2-9.7c7-7 9.4-9.3 10.1-9.6s2.3-1.8 6.1-5.6a36 36 0 0 1 8.5-7.3q1-.9 2-1.5l2-1.5q.6-1 2-1.6t2.2-1.6 1.9-1.4c.5-.3 1.5-1 2-1.6q1.3-1 3-2 2-1 3.1-2t3-2 3-2c1-1 2.1-1.6 11.3-6.2a53 53 0 0 0 11.3-6.2c1-1 1.2-1.1 2.2-1.1s1.6-.3 7.2-3.1c5.8-2.9 6.3-3.1 7.4-3.1 1 0 1.4-.2 4-1.5 2.5-1.3 2.9-1.5 3.9-1.5s1.5-.2 4.3-1.6 3.3-1.6 4.2-1.6c.8 0 1.4-.2 3-1s2.2-1 3-1 1.4-.2 3-1 2.2-1 3-1 1.4-.2 3-1 2.2-1 3.1-1q1.1 0 2.1-.5t2-.5 2-.5 2.1-.5c.9 0 1.3-.1 2.2-.6s1.2-.6 3-.6 2.2 0 3.1-.5c1-.5 1.2-.5 5.3-.5s4.1 0 5.1-.5l1-.5h20.8l1 .5c1 .5 1.1.5 5.1.5s4.1 0 5.1.5 1.2.5 4.1.5c3 0 3.2 0 4.1.5q1 .5 2 .5 1.1 0 2.2.5 1 .5 2 .5t2 .5 2 .5 2.2.5 2 .5 2.1.6q1.1.6 2 .6 1.1 0 2.2.5t2.1.5c.8 0 1.4.2 3 1s2.2 1 3.1 1c1 0 1.4.1 3 1s2 1 3 1 1.5.2 6.2 2.6c4.7 2.3 5.3 2.6 6.2 2.6s1.7.3 8.1 3.5c6 3 7.3 3.7 8.2 4.6q1 1 4 2.5 2.9 1.4 4 2.5 1.2 1 3.3 2.2 2.2 1.1 3.3 2.2 1 1 2 1.5t1.9 1.4q1 1 2.1 1.6c.6.3 1.6 1 2.1 1.6q1 1 2.1 1.6t3 2.5q1.8 1.9 2.9 2.4a281 281 0 0 1 26 27q.5 1 1.4 1.9 1 .9 1.4 1.9c.3.5 1 1.6 1.7 2.2 1 1 1.5 1.8 2.7 4.4s1.6 3.2 2.4 3.8c.8.7 1.2 1.4 3.6 6 2.3 4.6 2.8 5.5 3.7 6.4q1.9 2 2 4.1c0 1 0 1.1 1 2 1 1 1 1.2 1 2.2 0 .8.2 1.3 1.1 3.1.9 1.7 1.1 2.3 1.1 3 0 .9.3 1.6 1.5 4.2l1.5 3.1v4l1 2 1 2v2c0 1.8 0 2.1.5 3q.6 1 .5 2.1t.5 2.1l.5 1v14.2l.6 1.2.6 1.2v5.3c0 5.3 0 5.3-.5 6.3s-.5 1.2-.5 3.1 0 2.2-.5 3.1-.5 1.2-.5 3v2.1l-1 2c-.8 1.7-1 2.3-1 3.1s-.2 1.5-1.6 4.2l-1.6 3.2-3.5 3.4c-3.8 3.9-4.9 4.6-6.5 4.6-.8 0-1.4.2-3 1l-2 1h-4.2l-2.2 1.1c-1.8.9-2.4 1.1-3.2 1.1s-1.9.4-10 4.4a48 48 0 0 0-14.3 8.8q-1 1-1.9 1.4a34 34 0 0 0-7.2 7.2q-.6 1.1-2.5 3a12 12 0 0 0-3 4q-1 2.1-2 3c-.8.8-1.5 2-4.5 8-3.2 6.5-3.6 7.3-3.6 8.2s-.2 1.4-1.1 3.2-1.1 2.4-1.1 3.2q0 1-.5 2t-.5 2-.5 2-.5 2.2-.5 2-.5 2c0 .9-.3 1.7-3 7a30 30 0 0 1-4.1 7.2c-.6.6-1.3 1.7-1.7 2.3-.8 1.6-4.9 5.7-6.2 6.3q-1 .3-3.2 2.5l-2 2.3-11.3 5.6a52 52 0 0 1-15.4 6.7c-1.7.8-2.3 1-3.1 1q-1.1 0-2.1.5t-2 .5c-.8 0-1.4.2-3 1s-2.2 1-3 1q-1 0-2 .5c-1 .5-1.2.5-4.1.5h-3.1l-2.2 1.1-2.2 1.1h-3c-2.7 0-3 0-4 .5a5 5 0 0 1-2.1.5 5 5 0 0 0-2 .5c-1 .4-1.4.5-3.1.5s-2.1 0-3 .5q-1.1.5-2.1.5t-2 .5q-.7.5-1.8.5c-.8 0-1.5.2-3.2 1-1.6.8-2.3 1-3.1 1q-1 0-2 .5t-2 .5c-.9 0-2 .6-13.3 6.2l-12.4 6.2-1.9 1.9a59 59 0 0 0-14.6 14.6l-2.2 2.2-4.5 9c-4.1 8.3-4.5 9.1-4.5 10s-.2 1.5-1.1 3.3-1.1 2.4-1.1 3.2-.2 1.4-1 3-1 2.3-1 3.1q0 1.1-.5 2.1t-.5 2c0 .9-.1 1.3-.6 2.1q-.7 1-.6 2 0 1.1-.5 2.1c-.4.9-.5 1.2-.5 3.1s0 2.2-.5 3.1-.5 1.2-.5 3.1 0 2.2-.5 3.1-.5 1.2-.5 3 0 2.1-.5 3c-.5 1-.5 1.2-.5 4s0 3-.5 4-.5 1.2-.5 4.1c0 3 0 3.2-.5 4.1-.5 1-.5 1.2-.5 4.1 0 3 0 3.2-.5 4.1s-.5 1.2-.5 3 0 2.1-.6 3.2-.6 1.2-.6 4.3 0 3.2-.5 4.1q-.5 1-.5 2t-.5 2-.5 2.2-.5 2c-.4.9-.5 1.2-.5 3v2l-1 2c-.8 1.6-1 2.2-1 3s-.2 1.4-1 3-1 2.2-1 3.1c0 1-.2 1.4-1.6 4.2s-1.6 3.3-1.6 4.2-.2 1.6-3.5 8.2c-3 5.9-3.7 7.2-4.6 8.1q-1.1 1.1-2.5 4-1.5 2.9-2.5 4t-2.2 3.3q-1.1 2.2-2.2 3.3-1 1-1.5 2l-1.4 1.9a100 100 0 0 1-11.8 12.8 130 130 0 0 1-14.5 13.5q-3.3 3.1-4.1 3.6t-5 4.5a40 40 0 0 1-5.2 4.7 7 7 0 0 0-3 2.9c-.2.5-1 1.5-1.5 2.1-1 1-1.6 2-4.1 7.1-2.6 5.3-3 6.2-3 7a5 5 0 0 1-.5 2c-.5 1-.5 1.4-.5 3.9s0 2.9.5 3.8q.5 1.1.5 2.2 0 1 .5 2t.5 2c0 .8.3 1.5 1.5 4 1.3 2.7 1.6 3.3 2.4 4q1 .6 1.5 1.9c.8 1.6 3.5 4.3 5.1 5q1.2.6 2.1 1.6t2.9 2 3.2 2c1.1 1.1 2.4 1.8 17.5 9.4 15.4 7.6 16.4 8.2 17.1 9 .6.7 1.3 1.2 3 2.1a11 11 0 0 1 4.3 3.1q1.9 1.9 3 2.5a14 14 0 0 1 4.3 4.3c.3.5 1.5 2 2.6 3.1l2.1 2.1v1.1c0 1 .1 1.4 1 3s1 2 1 3q0 1 .5 2c.5.9.5 1.2.5 3.5s0 2.6-.5 3.5a5 5 0 0 0-.5 2.1c0 .9-.3 1.6-2 5.1l-2 4.1-2 2a15 15 0 0 0-2.6 3.1c-.8 1.6-7 7.8-8.6 8.6q-1.1.6-3 2.5a15 15 0 0 1-3 2.5q-1 .6-2.1 1.6-1 1-1.9 1.4l-2.1 1.6q-1.2 1.1-3.1 2.1t-3 2a19 19 0 0 1-5.2 3.1 20 20 0 0 0-5.2 3c-.9 1-2 1.6-5 3.1a19 19 0 0 0-5.1 3.1c-1 1-1.9 1.5-5.3 3.2-3.7 1.7-4.3 2.1-5 3-.6.7-1.2 1.1-4.9 3a22 22 0 0 0-5.3 3.1q-1.1 1-3 2t-3 2c-.8.8-1.8 1.4-4.2 2.6a17 17 0 0 0-4.2 2.6q-1.2 1.1-3.1 2.1c-1.1.6-2.5 1.5-3.1 2.1s-1.9 1.4-3 2q-1.8 1-3 2c-1 1-2.4 1.7-11.4 6.2a44 44 0 0 1-14.2 6.1c-1.7.8-2.2 1-3.1 1-1 0-1.4.1-3.2 1.1l-2 1.1h-2.1c-1.8 0-2.2 0-3.2.5s-1.3.5-3.3.5-2.3 0-3.3-.5q-1-.5-2-.5t-2-.5c-.9-.4-1.2-.5-3-.5h-2.2l-3.2-1.6c-2.7-1.4-3.4-1.6-4.2-1.6s-1.5-.2-4-1.5c-2.7-1.3-3.1-1.5-4.1-1.5s-1.4-.1-3.2-1q-2-1.1-2.9-2.1a20 20 0 0 0-5.1-3 20 20 0 0 1-5.3-3.2q-1.1-1-3.1-2-2-1.1-3-2.1a8 8 0 0 0-2.1-1.6l-1.9-1.4-2.1-1.5q-1.4-.6-2-1.6a7 7 0 0 0-2-1.5q-1-.6-2-1.5l-2-1.5q-1.1-.6-3.2-2.7a19 19 0 0 0-3-2.5c-.5-.3-2.7-2.2-5.2-4.6a48 48 0 0 0-5.2-4.6 40 40 0 0 1-5.3-4.8 28 28 0 0 1-5-5.5c-.4-1-1.2-1.8-3.4-3.9l-3.5-3a224 224 0 0 0-17.2-17.6 153 153 0 0 1-14.8-15.5c-.5-1-2.8-3.3-15-15.4a374 374 0 0 1-15.8-16.3q-1.3-.8-2.2-2.3-.9-1.8-2.6-2.7c-.9-.5-2.9-2.3-9.3-8.7a124 124 0 0 0-13.2-12.2 24 24 0 0 0-4.4-3.9q-1.1-.4-4.1-3.5-2.9-3-4-3.5c-.8-.4-2.3-1.8-6.1-5.6a41 41 0 0 0-8.2-7.2l-2-1.5c-1.3-.7-1.7-1-2.1-2q-.4-.6-1.2-1l-1.7-1.5a8 8 0 0 0-2.1-1.6q-1-.6-2-1.5l-2-1.5a27 27 0 0 1-5.2-4.7 35 35 0 0 0-6.9-5.9q-.8-.8-2-1.5-1.2-.8-2.2-1.7l-2.1-1.5a16 16 0 0 1-3.3-2.7 19 19 0 0 0-3.1-2.6l-2-1.5q-1-1-2.1-1.6a15 15 0 0 1-2.9-2.4 15 15 0 0 0-3-2.5q-1.1-.6-3.1-2.6a15 15 0 0 0-3.1-2.6q-1.1-.6-3.1-2.6a15 15 0 0 0-3.1-2.6q-1.1-.6-3-2.5a15 15 0 0 0-2.9-2.4c-.5-.3-1.5-1-2.1-1.6s-1.6-1.3-2.2-1.6-2-1.6-3.1-2.7a15 15 0 0 0-3.2-2.6q-1.2-.6-3.1-2.5a15 15 0 0 0-2.9-2.4c-.6-.3-2-1.5-3.2-2.7a19 19 0 0 0-3.2-2.7 15 15 0 0 1-2.9-2.4 15 15 0 0 0-3-2.5q-1.1-.6-3.1-2.6a16 16 0 0 0-3-2.5c-.6-.3-2-1.5-3.2-2.7a18 18 0 0 0-3.2-2.7q-.9-.3-5.9-5.4c-4-4-5.1-5-6.2-5.6-1.4-.7-3.6-3-4.3-4.2q-.3-.7-1-1-1.4-.7-2-2-.3-.7-1-1-1.4-.7-2.1-2.3-.3-.8-7.7-8.2a72 72 0 0 1-10.3-11.3 14 14 0 0 1-2.4-2.9q-.5-1-2.6-3.1a20 20 0 0 1-2.7-3.2q-.6-1-2.5-3a15 15 0 0 1-2.6-3.1q-.7-1.1-2.5-3a14 14 0 0 1-2.5-3l-1.7-2.4q-1-1-1.5-2l-1.5-2q-1-1.1-2-3a13 13 0 0 0-2.1-3.1q-1.2-1.1-2.2-3.2-1-2-1.9-2.9c-.7-.7-1.3-1.6-2.4-3.9A16 16 0 0 0 97 531c-.8-.8-1.4-1.8-2.7-4.3a79 79 0 0 1-18-35.1c0-.9-.3-1.6-2-5-1.7-3.6-2-4.3-2-5.2s-.2-1.4-1.5-4c-1.3-2.5-1.5-3.1-1.5-4s-.2-1.4-1.1-3.2-1.1-2.4-1.1-3.2c0-.7-.2-1.4-1-3.1q-1.1-2.2-1-3.1a5 5 0 0 0-.5-2q-.5-1.1-.5-2 0-1-.5-2t-.5-2-.5-2-.5-2-.5-2.2-.5-2-.5-2-.5-2-.6-2.2c-.5-1-.6-1.4-.6-3.2 0-1.7 0-2.1-.5-3-.4-1-.5-1.4-.5-3.2s0-2.1-.5-3c-.5-1-.5-1.2-.5-4.1 0-3 0-3.2-.5-4.1-.5-1-.5-1-.5-6.1s0-5.1-.5-6.1l-.5-1v-21.2l.5-1 .5-1V365l.5-1c.5-1 .5-1.2.5-4.1 0-2.7 0-3.2.4-3.9l.4-.8-.4-.8c-.5-1-.5-1.6.1-2.8.4-.9.5-1.3.5-3s0-2.1.5-3c.5-1 .5-1.3.5-4.2 0-2.8 0-3 .5-4s.5-1.3.5-3 0-2 .5-3 .5-1.3.5-3c0-1.8 0-2.3.5-3.2s.5-1.3.5-3 0-2.1.5-3q.5-1 .5-2t.6-2.2.6-2.2.5-2 .5-2.2.5-2c.4-.9.5-1.2.5-3s0-2.1.5-3q.5-1 .5-2c0-.8.2-1.4 1-3s1-2.2 1-3q0-1 .5-2t.5-2 .5-2.2.5-2 .5-2 .5-2c0-.9.2-1.5 1.6-4.2s1.6-3.3 1.6-4.3.2-1.4 1.5-4c1.3-2.4 1.5-3 1.5-3.8s.2-1.5 1-3.1c.5-1.2 1.3-2.6 1.7-3.3l2.2-4.2c1.2-2.5 1.6-3.2 2.5-4 1-.9 1.4-1.7 4.1-7.2A29 29 0 0 1 94 235a16 16 0 0 0 2.6-4.1c1.1-2.3 1.7-3.2 2.4-3.9q1-.9 2.1-3.2c1-1.8 1.4-2.5 2-3q1-.8 1.6-2 .6-1 1.5-2 .9-.8 2.1-3.2t2.1-3.2q1-1 1.4-1.9c.3-.6 1.4-2 2.7-3.2q2.1-2.2 2.6-3.1.4-1 2.4-2.9 2-2 2.6-3.1c.4-.8 1.8-2.3 5.6-6.1s5.2-5.3 5.6-6.1a5 5 0 0 1 2.5-2.5 59 59 0 0 0 7.1-6.6 53 53 0 0 1 7.2-6.7q1.1-.7 3-2.5t3-2.5c.6-.3 1.6-1 2.1-1.6l1.9-1.4q1-.4 2-1.5l2.1-1.6q1-.5 1.9-1.4 1-1 3.1-2a17 17 0 0 0 3.4-2.3q1.3-1.1 3.1-2.1 2-1 3-2c1-1 2-1.5 7.3-4.2 5.2-2.6 6.3-3.2 7.1-4 1.3-1.3 4.8-3.1 6.2-3.1.9 0 1.8-.4 9.2-4.1s8.3-4.1 9.2-4.1 1.5-.2 4-1.5 3.2-1.5 4-1.5 1.4-.2 3-1 2.4-1 3.2-1q1 0 2.2-.6t2.2-.6c.8 0 1.4-.2 3-1s2.2-1 3-1q1 0 2-.5c1-.4 1.4-.5 3.2-.5s2.2 0 2.9-.5 1-.5 3.5-.5 2.8 0 3.6-.5l.9-.5h31.7zM917.4 356c1.6.8 2.2 1 3 1q1 0 1.9.4t2.2.6c1.3.1 2 .4 7.5 3.2l6.1 3 4.4 4.4c3.5 3.5 4.4 4.5 5 5.6a10 10 0 0 0 1.7 2.3c.9.8 1.3 1.7 3 5 1.7 3.5 2 4.3 2 5s.2 1.5 1 3c.8 1.7 1 2.3 1 3.1q0 1 .5 2t.5 2.1c0 .9.1 1.3.6 2.2a5 5 0 0 1 .1 4.7q-.5 1-.5 2t-.5 2-.5 2-.5 2.2a5 5 0 0 0-.5 2c0 .9-.4 1.8-3.7 8.3l-3.7 7.4-6.4 6.4-6.3 6.3-5.3 2.7c-4.8 2.4-5.5 2.7-6.4 2.7-.8 0-1.4.2-3 1l-2 1h-2.2c-1.9 0-2.3 0-3.2.5s-1.3.5-4.4.5c-3 0-3.3 0-4.2-.5s-1.2-.5-3.1-.5-2.2 0-3.1-.5q-1-.5-2-.5c-1 0-1.6-.2-6.3-2.6a23 23 0 0 1-6.1-3.5l-2.2-1.6c-1.6-.8-5.7-4.8-6.5-6.4q-.5-1-1.4-1.9c-.8-.8-1.4-1.9-4.1-7.3-3-5.8-3.2-6.5-3.2-7.5q0-1-.5-2t-.5-2-.5-2c-.4-1-.5-1.4-.5-3.2s0-2.2-.5-2.9c-.7-1.1-.7-3.2 0-4.7.4-1 .5-1.4.5-3.2s0-2.1.5-3 .5-1.2.5-3.1v-2.2l3.6-7.2 3.6-7.2 5.5-5.5 5.4-5.4 7.2-3.6c6.6-3.2 7.4-3.6 8.3-3.6q1 0 2-.5c.9-.4 1.2-.5 3.3-.5s2.5 0 3.3-.5 1.1-.5 4.2-.5h3.3zm-39 226.7q1 .5 2 .5a4 4 0 0 1 1.9.4q.8.4 2.2.6c1.3.1 1.9.4 7.4 3.1l6 3 4.6 4.6 4.5 4.6 2.6 5.1c2.3 4.6 2.6 5.3 2.6 6.2q0 1 .5 2c.5 1 .5 1.2.5 6.5s0 5.3-.5 6.3q-.5 1-.5 2 0 1.1-.5 2.2a5 5 0 0 0-.5 2c0 .8-.4 1.7-2.5 6.1-2.3 4.7-2.6 5.3-3.8 6.5q-1.1 1.2-1.5 2c-.4 1-5 5.7-6.2 6.2l-2.1 1.6c-1 1-1.7 1.4-5.3 3.2-3.6 1.7-4.3 2-5.2 2-.8 0-1.3.2-2.9 1l-1.8 1h-4.6c-4.5 0-4.7 0-5.7-.5s-1.4-.5-3.2-.5-2.1 0-3-.5q-1-.5-2.1-.5c-1.1 0-1.5-.2-6.3-2.6l-5.1-2.6-2.3-2.3a18 18 0 0 1-2.7-3.2l-1.7-2.2a13 13 0 0 1-3.2-6.6c0-.8-.2-1.4-1.5-3.8l-1.5-2.9v-2.1c0-1.9 0-2.2-.5-3.1-.5-1-.5-1-.5-5.6s0-4.6.5-5.6q.5-1 .5-2t.5-2q.6-1 .5-2.1c0-1 .2-1.5 2.5-6.2l2.5-5 4.6-4.6a35 35 0 0 1 7.6-6.6c1.2-1.3 4.9-3.1 6.2-3.1a5 5 0 0 0 2-.5q1.1-.5 2.2-.5t1.9-.5c.7-.5 1-.5 3-.5s2.4 0 3.3-.5q1-.6 2.3-.5t2.3.5M722.8 772.1q1 .5 2 .5c.8 0 1.5.2 3.1 1s2.4 1 3.2 1c1 0 1 0 2 1s1 1 2 1q2.1 0 4.4 2.2c.6.6 1.7 1.4 2.2 1.7 1.3.6 5.5 4.8 6.1 6.1.2.5 1 1.4 1.5 2 .9.9 1.5 1.9 3.2 5.3 1.8 3.7 2.1 4.4 2.1 5.3q0 1 .5 2c.4 1 .5 1.4.5 3.4v2.2l-1 2c-.8 1.6-1 2.2-1 3q0 1.1-.5 2.2-.5 1-.5 2c0 .9-.4 1.8-3.6 8.3l-3.6 7.2-4.5 4.5-4.6 4.6-5 2.5c-4.5 2.2-5.2 2.5-6.1 2.5q-1 0-2.2.6t-2.2.6-2 .5c-1 .5-1.2.5-5.4.5-4 0-4.3 0-5-.4q-1-.4-2.3-.6c-1.3-.1-1.9-.4-6.4-2.6a23 23 0 0 1-6.2-3.6l-2.2-1.7a14 14 0 0 1-4.2-4.2q-.5-1-1.4-1.9t-2.1-3.2-2.2-3.3c-1-1-1-1-1-2s-.2-1.5-1-3.1l-1-2V817c0-1.9 0-2.2-.5-3.1-.5-1-.5-1.2-.5-4.2 0-3.1 0-3.4.5-4.4q.5-1 .5-2t.5-2 .5-2c0-1 .2-1.5 1-3.2s1-2.2 1-3.1c0-1 0-1.2 1-2.3q1.2-1 1.6-2t1.6-2.1q1.2-1.2 1.6-2.1c.5-1.1 3-3.6 4.3-4.3a7 7 0 0 0 2-1.5l2-1.4 2-1.6c1.1-1.2 1.2-1.2 2.2-1.2.8 0 1.5-.2 3.2-1q2.2-1.1 3.1-1a5 5 0 0 0 2-.5c1.1-.5 1.1-.5 7.5-.5h6.3z"/><path d="M383.8 298.8q-.7.4-1.8.4c-1.4 0-4.5 1.6-5.9 3q-1 1-1.9 1.4c-1.8.8-2.2 1.3-6.5 10-3.8 7.7-4.1 8.3-4.1 9.3s-.2 1.4-1.5 4c-1.3 2.4-1.5 3-1.5 3.8s-.2 1.5-1 3.2-1 2.4-1 3.2q0 1-.6 2c-.5.9-.6 1.3-.6 2.2s-.2 1.4-1 3.1c-.8 1.6-1 2.2-1 3q0 1-.5 2-.5 1.1-.5 2.1t-.5 2q-.5.8-.5 1.8c0 .8-.2 1.5-1 3.2q-1.1 2.2-1 3.1c0 .8-.2 1.4-1.1 3.1-1 1.9-1.1 2.4-1.1 3.3q0 1-.5 2t-.5 2-.5 2q-.6 1-.5 2.1c0 1-.2 1.4-1 3.1-.8 1.6-1 2.2-1 3q0 1-.5 2t-.5 2c0 .7-.2 1.4-1 3s-1 2.2-1 3q0 1.1-.5 2.2-.5 1-.5 2c0 .6-.3 1.3-1.1 3-1 1.9-1.1 2.4-1.1 3.3 0 1-.2 1.4-1 3.1-.8 1.6-1 2.2-1 3s-.2 1.4-1 3-1 2.2-1 3q0 1-.5 2t-.5 2c0 1-.2 1.5-1.6 4.3s-1.6 3.2-1.6 4.2-.2 1.4-1 3.1c-.8 1.6-1 2.2-1 3 0 .9-.3 1.6-2.5 6s-2.5 5.1-2.5 6c0 1.4-2 5.3-3.3 6.6q-1 1-2 2.9c-.9 1.9-1.1 2.2-4.4 5.5a26 26 0 0 1-4.4 4c-.5.2-1.5 1-2.1 1.5-1.1 1-1.2 1.1-2.3 1.1s-1.5.1-3 1l-2 1h-2c-1.9 0-2.2 0-3.1.5q-1 .5-2 .5t-2 .5l-1 .5h-18.5l-1 .5c-1.1.5-1.2.5-6.2.5h-5.1l-1 .6-1.1.6H251c-6.2 0-6.2 0-7.3.5s-1.2.5-5.1.5c-4 0-4.1 0-5.1.5l-1 .5h-36.8l-1 .5-1.1.5h-16.5l-.8.5q-1 .6-2 .5t-2 .5q-1 .5-2 .5c-.8 0-1.5.2-4 1.4a16 16 0 0 0-4.2 2.7q-1.2 1.1-2 1.5-.4.2-1.5 2c-.7 1.6-.9 2-.9 3q0 1-.5 2c-.3.5-.5 1.3-.5 1.6q0 .6.5 1.6t.5 2c0 1.3.8 3 2.1 4.2l1.3 1.6c.3.7.8 1 4 2.7 3.4 1.7 3.9 1.9 4.8 1.9q1.1 0 2.2.5 1 .5 2 .5t2 .5c.9.4 1.2.5 3 .5 2 0 2.2 0 3.2.6l1.1.6h26l.9-.5 1-.5h22.5l1-.5c1-.5 1.4-.5 4.2-.5s3 0 4-.5c1.4-.6 3.4-.7 4.7-.1.9.4.9.4 1.6 0s1.3-.4 6.4-.4c5.6 0 5.6 0 6.6.5l1 .5H288l1 .5 1 .5h34l1-.5q1-.5 2-.5 1.1 0 2.2-.5 1-.5 2-.5c1.4 0 4.5-1.6 5.8-2.9q.9-.9 2.1-1.5c1.5-.8 2-1.2 2.8-2.7q.7-1.2 1.8-2.3a28 28 0 0 0 3.6-6.2c2.3-4.7 2.5-5.2 2.5-6.2q0-1.1.5-1.9t.5-2c0-1 .2-1.4 1-3.1.8-1.6 1-2.2 1-3q0-1.1.5-2.2.5-1 .5-2c0-.8.2-1.4 1.1-3.2s1.1-2.4 1.1-3.2q0-1 .5-2t.5-2c0-.8.2-1.5 1-3.1s1-2.4 1-3.1.2-1.4 1-2.9 1-2 1-3q0-1 .5-2 .5-1.2.5-2.1c0-.8.2-1.4 1.1-3.2s1.1-2.4 1.1-3.2q0-1 .5-2t.5-2 .5-2a5 5 0 0 0 .5-2.2c0-1 .2-1.4 1-3 .8-1.5 1-2 1-2.9q0-1 .5-2 .5-1.2.5-2.1c0-.8.2-1.4 1-3s1-2.2 1-3q0-1.1.5-2.2.5-1 .5-2c0-.8.2-1.4 1.1-3.2s1.1-2.4 1.1-3.2.2-1.4 1-3 1-2.2 1-3q0-1 .5-2t.5-2c0-.8.2-1.4 1-3s1-2.2 1-3c0-1 0-1.2.6-1.7s.7-.5 1.8-.5q2.4-.2 2.2 1.9 0 1 .5 1.9.5 1 .5 2 0 1.1.5 2.2.5 1 .5 2t.5 2c.4.9.5 1.2.5 3.1s0 2.2.6 3.2.6 1.2.6 3.2c0 1.9 0 2.2.5 3.1q.5 1 .5 2t.5 2 .5 2 .5 2 .5 2.2.5 2c.5 1 .5 1.2.5 4.1 0 3 0 3.2.5 4q.6.7.5 1.9 0 1 .5 2c.4.9.5 1.2.5 3.1v2.1l1 2 1 2v6.2l1.1 2.1 1.1 2.1v2c0 1.9 0 2.3.5 3.2q.5 1.1.5 2.2 0 1 .5 2c.4.9.5 1.2.5 3s0 2.1.5 3q.5 1 .5 2t.5 2c.4.9.5 1.2.5 3s0 2.2.5 3.2q.5 1 .5 2t.5 2c.4.9.5 1.2.5 3s0 2.1.6 3.2c.5 1 .6 1.4.6 3.2 0 1.7 0 2.1.5 3q.5 1.1.5 2.2 0 1 .5 2t.5 2 .5 2c.5 1 .5 1.3.5 4.1s0 3.1.5 4.1.5 1.4.5 3.2 0 2.2.5 2.9.5 1 .5 3v2l1 2 1 2.1v3.1c0 3 0 3.2.5 4.1q.5 1 .5 2t.6 2.2c.5 1 .6 1.4.6 3.2 0 1.7 0 2.1.5 3q.5 1.1.5 2.2 0 1 .5 2c.4.9.5 1.3.5 3s0 2.1.5 3c.4 1 .5 1.4.5 3.2s0 2.2.5 2.9.5 1 .5 2.9 0 2.2.5 3.2.5 1.3.5 3 0 2.1.5 3q.6 1 .5 2.1t.5 2.1q.5 1 .5 2t.6 2.2c.5 1 .6 1.4.6 3.2s0 2.1.5 3q.5 1 .5 2t.5 2c.5 1 .5 1.3.5 4.1s0 3.1.5 4.1q.5 1.1.5 2.2 0 1 .5 2t.5 2 .5 2c.4.9.5 1.2.5 3s0 2.1.5 3q.5 1 .5 2 0 1.1.5 2.2.5 1 .5 2t.5 2 .5 2 .6 2.2.6 2.2.5 2 .5 2c0 1 .3 1.6 3 7.1l3 6 2.8 2.7 2.7 2.8 6 3 6.1 3h7.3l3-1.4c2.6-1.3 3.2-1.6 4.8-3 1.3-1.3 1.9-2 2.4-3q.6-1.2 1.6-2.2c.7-.7 1.3-1.6 2.4-3.9 1.3-2.6 1.5-3 1.5-4q0-1.1.5-2.1t.5-2 .5-1.9q.5-.7.5-2c0-1.3.2-1.4 1.5-4s1.5-3.3 1.5-4.1c0-.9.2-1.5 1.6-4.2s1.6-3.3 1.6-4.3q0-1.1.5-2.1t.5-2c0-.7.3-1.4 1.5-3.9 1.3-2.6 1.5-3.2 1.5-4q0-1.1.5-2.1t.5-2 .5-2 .5-2c0-.8.2-1.4 1.1-3.2s1.1-2.4 1.1-3.3c0-1 .2-1.4 1-3.1.8-1.6 1-2.2 1-3q0-1 .5-2t.5-2c0-.7.2-1.4 1-3s1-2.2 1-3.1c0-1 .2-1.4 1.1-3.2 1-1.7 1.1-2.3 1.1-3.1q0-1 .5-2t.5-2c0-.8.2-1.4 1-3s1-2.3 1-3.1q0-1 .5-2 .5-.7.5-1.8c0-.8.2-1.5 1-3.2s1-2.4 1-3.1.2-1.4 1-3 1-2.2 1-3q0-1 .6-2.2t.6-2.2c0-.8.2-1.5 1-3.1s1-2.4 1-3.2.2-1.3 1-2.9 1-2 1-3c0-.8.2-1.3 1-3s1-2.2 1-3.1c0-1 .2-1.4 1.6-4.2s1.6-3.3 1.6-4.2c0-1.5.8-3.2 2.1-4.2.8-.6 1.1-1.2 2-2.9.7-1.6 1.2-2.3 2.2-3.4 1.3-1.4 1.7-1.6 5.7-3.6 3.9-2 4.5-2.2 5.4-2.2q1 0 2-.5l1-.5h14.4l1-.5 1-.5h6c6.1 0 6.2 0 7.2-.5l1.1-.5h24.7l1-.5c1-.5 1.2-.5 4-.5s3 0 4-.5 1.2-.5 3-.5 2.1 0 3-.5q1-.5 2.1-.5c1 0 1.4-.2 4-1.5 2.3-1 3.2-1.7 3.9-2.4q.9-1 1.8-1.4c.9-.5 1.1-.7 1.9-2.3.7-1.4.9-2 .9-2.8q0-1 .5-2c.4-.8.5-1.3.5-2.7v-1.7l-1.6-3.1a15 15 0 0 0-2.5-4.1l-1.2-1.7a2 2 0 0 0-1.2-1.1l-1.8-1.4c-.6-.5-1.9-1.4-3-2-1.6-.8-2.1-1-3-1-1 0-1.4-.2-3.1-1-1.6-.8-2.2-1-3-1q-1 0-2-.5c-.9-.4-1.2-.5-3-.5s-2.1 0-3.2-.6l-1.2-.6H586l-1-.5c-1-.5-1-.5-6.7-.5s-5.7 0-6.7.5l-1 .5H544l-1 .5c-.9.4-1.2.5-3.1.5s-2.2 0-3.1.5-1.2.5-3 .5-2.2 0-3.2.5q-1 .5-2 .5t-2 .5-2 .5c-.9 0-1.7.3-7.4 3.2L511 461l-2.6 2.7a28 28 0 0 0-3.2 3.8q-.5 1-1.4 1.9a12 12 0 0 0-2.9 5.8c0 .9-.3 1.6-2.1 5.3s-2.1 4.3-2.1 5.2q0 1-.5 1.9-.6 1-.5 2.1c0 1-.2 1.4-1 3.1-.8 1.6-1 2.2-1 3s-.2 1.4-1 3-1 2.2-1 3-.2 1.4-1 3-1 2.2-1 3q0 1.1-.5 2.2-.5 1-.5 2t-.6 2.2-.6 2.2c0 .8-.2 1.4-1 3s-1 2.2-1 3-.2 1.4-1 3-1 2.2-1 3q0 1-.5 2t-.5 2c0 1-.2 1.5-1 3.2-.8 1.6-1 2.2-1 3q0 1-.6 2.2t-.6 2.2-.5 2-.5 2c0 .8-.2 1.5-1 3.1q-1.1 2.2-1 3.1 0 1-.5 1.8t-.5 2c0 .7-.2 1.4-1 3.1s-1 2.4-1 3.1q0 1-.5 2t-.5 2q0 1.2-.5 1.6c-.5.5-.7.6-1.9.6s-1.4 0-1.8-.6a5 5 0 0 1-1.4-3.2q0-1.1-.5-2.2-.5-1-.5-2t-.5-2c-.4-.9-.5-1.2-.5-3.1s0-2.2-.6-3.2q-.6-1-.6-2t-.5-2.1-.5-2.2q0-1-.5-2t-.5-2-.5-2-.5-2-.5-2c-.4-.9-.5-1.2-.5-3s0-2.1-.5-3q-.5-1-.5-2.1t-.5-2.1-.5-2.1-.5-2.1c-.4-.9-.5-1.2-.5-3s0-2.1-.6-3.2q-.6-1.2-.6-2.2t-.5-2-.5-2-.5-2-.5-2-.5-2-.5-2.2-.5-2-.5-2-.5-2-.5-2-.5-2c-.4-.9-.5-1.2-.5-3s0-2.2-.5-3.2q-.5-1-.5-2t-.5-2-.5-2-.6-2.2c-.5-1-.6-1.4-.6-3.2 0-1.7 0-2.1-.5-3q-.5-1.1-.5-2.2 0-1-.5-2c-.4-.9-.5-1.3-.5-3s0-2.1-.5-3q-.5-1.1-.5-2.2t-.5-1.9q-.5-.7-.5-1.9 0-1-.5-2c-.4-.9-.5-1.2-.5-3.1s0-2.2-.5-3.1q-.5-1-.5-2 0-1.1-.5-2.2-.5-1-.5-2t-.6-2c-.6-1-.6-1.3-.6-3.2s0-2.3-.5-3.2q-.5-1.1-.5-2.2 0-1-.5-2c-.4-.9-.5-1.3-.5-3s0-2.1-.5-3q-.5-1.1-.5-2.2 0-1-.5-2t-.5-2-.5-2-.5-2-.5-2c-.4-.9-.5-1.2-.5-3s0-2.1-.5-3-.5-1.2-.5-3.1 0-2.2-.5-3.1q-.5-1-.5-2t-.6-2.2-.6-2.2-.5-2c-.4-1-.5-1.4-.5-3.1 0-2 0-2-1-4.1l-1-2v-2.2c0-1.9 0-2.2-.5-2.9s-.5-1-.5-2.9 0-2.1-.5-3q-.5-1-.5-2.1t-.5-2.1-.5-2-.5-2-.5-2.1c0-.9-.1-1.3-.6-2.2q-.6-1-.6-2t-.5-2.1c-.4-1-.5-1.4-.5-3.1s0-2.2-.5-3.1q-.5-1.1-.5-2.2 0-1-.5-2t-.5-2-.5-2c-.4-.7-.5-1-.5-2.9 0-1.7 0-2.2-.5-3q-.5-1.2-.5-2.1t-.5-2-.5-2c0-1-.2-1.5-1.6-4.4-1.3-2.7-1.6-3.4-1.6-4.2s0-1-1-1.8q-.8-1-1.8-2.9c-1-1.7-1.3-2.3-3.2-4.2l-2.5-2.8q-.3-.7-1-1l-1.8-1.5a11 11 0 0 0-6-3q-1 0-2-.5c-1-.5-1.4-.5-3.7-.5-2.2 0-2.6 0-3-.4-.7-.5-.5-.5-1.4 0"/></g></svg>