<svg xmlns="http://www.w3.org/2000/svg" width="1000" height="1000" viewBox="0 0 1000 1000"><g transform="scale(0.2)"><g transform="translate(0.000000,5000.000000) scale(0.100000,-0.100000)"
fill="#141413" stroke="none">
<path d="M21674 49990 c-38 -4 -88 -17 -110 -27 -21 -11 -66 -23 -100 -26 -33
-2 -76 -13 -95 -23 -25 -14 -65 -20 -154 -24 -93 -5 -129 -11 -160 -27 -23
-12 -68 -22 -106 -25 -44 -4 -83 -14 -115 -31 -31 -16 -72 -27 -110 -30 -33
-3 -78 -14 -100 -25 -21 -10 -66 -22 -99 -24 -45 -4 -84 -18 -153 -52 -65 -33
-104 -46 -134 -46 -24 -1 -68 -10 -98 -21 -30 -11 -85 -24 -122 -29 -36 -5
-81 -16 -99 -26 -18 -9 -66 -20 -107 -25 -60 -7 -91 -17 -165 -57 -76 -41
-103 -50 -158 -54 -39 -3 -83 -14 -105 -26 -22 -11 -64 -23 -94 -25 -42 -4
-93 -23 -211 -79 -123 -59 -168 -76 -216 -80 -51 -5 -92 -22 -250 -100 -157
-78 -201 -96 -249 -100 -54 -5 -179 -65 -1324 -638 -1172 -586 -1269 -636
-1320 -685 -45 -44 -94 -73 -265 -159 -174 -87 -219 -115 -260 -157 -35 -35
-82 -67 -155 -104 -70 -36 -120 -69 -150 -100 -25 -26 -74 -62 -110 -80 -36
-18 -87 -56 -115 -85 -27 -28 -70 -60 -95 -71 -25 -11 -72 -46 -105 -78 -33
-33 -80 -69 -105 -81 -25 -12 -94 -71 -155 -130 -60 -59 -130 -118 -155 -130
-27 -14 -133 -109 -268 -239 -140 -136 -240 -225 -270 -240 -34 -17 -263 -240
-844 -820 -694 -693 -802 -804 -832 -861 -24 -45 -66 -96 -136 -165 -65 -64
-112 -120 -130 -155 -18 -35 -64 -90 -125 -150 -61 -60 -107 -115 -125 -150
-16 -30 -52 -77 -80 -105 -38 -36 -68 -81 -110 -165 -40 -80 -73 -129 -105
-160 -26 -25 -58 -67 -72 -94 -14 -28 -49 -75 -78 -105 -36 -39 -75 -101 -129
-206 -57 -110 -92 -165 -131 -205 -49 -51 -100 -149 -660 -1270 -556 -1112
-608 -1219 -613 -1275 -4 -52 -25 -100 -154 -361 -134 -269 -150 -308 -155
-365 -4 -48 -17 -86 -51 -154 -32 -65 -46 -105 -50 -150 -4 -45 -17 -84 -55
-160 -37 -75 -51 -114 -55 -160 -3 -42 -18 -88 -49 -155 -31 -66 -46 -113 -50
-155 -4 -43 -18 -85 -50 -149 -32 -63 -47 -108 -53 -155 -4 -36 -17 -92 -29
-123 -11 -32 -21 -76 -21 -98 0 -24 -11 -62 -26 -92 -16 -31 -28 -76 -31 -112
-3 -34 -15 -79 -25 -100 -11 -22 -23 -67 -25 -100 -3 -34 -15 -79 -26 -101
-16 -31 -22 -67 -27 -160 -4 -92 -10 -128 -25 -155 -14 -27 -20 -63 -25 -155
-4 -92 -10 -128 -25 -155 -15 -27 -20 -60 -23 -145 -3 -96 -7 -116 -30 -160
-22 -43 -27 -67 -33 -170 -5 -84 -13 -136 -27 -175 -16 -42 -21 -78 -22 -153
0 -81 -4 -105 -22 -140 -17 -33 -23 -66 -28 -157 -4 -86 -10 -124 -25 -150
-14 -27 -20 -63 -25 -155 -4 -91 -10 -128 -25 -155 -14 -26 -20 -64 -25 -150
-5 -96 -9 -122 -30 -160 -22 -41 -25 -60 -31 -215 -5 -138 -10 -180 -27 -225
-18 -47 -21 -77 -22 -203 0 -134 -2 -152 -23 -190 l-22 -42 0 -1360 c0 -1342
0 -1360 20 -1395 18 -32 20 -59 25 -310 5 -251 7 -278 25 -310 17 -30 21 -59
25 -210 5 -150 8 -180 25 -210 17 -30 21 -60 25 -205 5 -144 8 -175 25 -205
15 -27 21 -62 25 -155 6 -104 10 -127 33 -172 16 -32 27 -68 27 -93 0 -22 10
-66 21 -98 12 -31 25 -87 29 -123 5 -37 17 -84 28 -105 11 -22 22 -66 24 -99
4 -45 18 -84 50 -150 35 -69 47 -105 51 -155 4 -55 17 -89 80 -215 60 -122 75
-161 80 -210 4 -55 33 -117 300 -650 270 -540 300 -594 347 -640 44 -42 66
-81 150 -253 85 -174 107 -211 158 -265 56 -58 79 -99 380 -707 295 -595 321
-650 325 -707 4 -49 15 -81 50 -145 35 -67 45 -96 49 -148 5 -56 16 -87 80
-215 65 -130 76 -159 80 -217 5 -57 15 -84 75 -201 60 -114 71 -143 75 -198 5
-54 17 -87 80 -214 61 -121 76 -161 81 -210 4 -54 36 -122 301 -655 281 -563
300 -598 356 -655 49 -50 71 -85 128 -205 57 -118 79 -154 122 -195 28 -27 63
-72 77 -100 37 -75 786 -825 863 -865 35 -18 91 -65 155 -130 59 -60 120 -112
150 -127 29 -15 114 -88 212 -182 90 -86 183 -167 207 -181 25 -14 120 -98
213 -187 92 -88 186 -169 208 -181 22 -11 63 -44 90 -72 28 -28 77 -65 110
-82 61 -30 195 -151 195 -175 0 -7 -37 -86 -81 -175 -67 -135 -82 -173 -86
-223 -5 -53 -24 -97 -155 -360 -136 -272 -151 -306 -155 -365 -5 -57 -18 -90
-106 -265 -84 -168 -100 -209 -105 -260 -3 -44 -17 -84 -50 -150 -35 -70 -46
-104 -50 -155 -4 -52 -15 -85 -55 -165 -37 -75 -51 -114 -55 -160 -2 -33 -14
-78 -24 -99 -11 -22 -23 -67 -26 -100 -3 -45 -17 -85 -50 -151 -35 -70 -46
-104 -50 -155 -4 -52 -15 -85 -55 -165 -37 -75 -51 -114 -55 -160 -4 -55 -49
-147 -515 -1080 -467 -934 -510 -1025 -514 -1080 -5 -52 -23 -94 -130 -310
-92 -185 -126 -262 -130 -300 -5 -41 -13 -58 -49 -96 -44 -48 -64 -98 -64
-162 0 -27 -26 -89 -96 -229 -81 -162 -97 -202 -102 -253 -4 -51 -21 -91 -105
-260 -84 -168 -100 -209 -105 -260 -4 -54 -31 -113 -260 -570 -236 -473 -255
-515 -260 -575 -5 -61 -39 -132 -675 -1404 -617 -1235 -670 -1344 -674 -1400
-5 -55 -34 -118 -311 -671 -286 -573 -305 -614 -310 -675 -4 -58 -16 -87 -104
-261 -87 -171 -100 -204 -105 -260 -5 -57 -20 -93 -131 -314 -108 -217 -125
-257 -129 -310 -4 -52 -21 -91 -130 -309 -115 -227 -126 -255 -130 -315 -4
-54 -14 -81 -50 -150 -37 -68 -46 -96 -51 -150 -3 -39 -13 -82 -26 -106 -18
-35 -21 -57 -21 -165 0 -108 3 -130 21 -165 13 -24 23 -67 26 -106 5 -57 17
-89 88 -235 l83 -169 131 -134 c129 -131 133 -134 261 -198 103 -52 141 -66
190 -71 33 -2 78 -14 100 -26 37 -20 55 -21 270 -21 211 0 233 2 265 20 27 15
61 21 155 25 93 5 129 11 160 27 23 11 68 22 105 25 51 4 85 15 155 50 66 33
106 47 151 50 33 3 78 15 100 26 21 10 68 22 104 24 52 4 85 15 165 55 76 38
115 51 160 55 49 5 88 19 200 75 116 58 151 71 205 76 50 4 87 17 165 55 75
37 115 51 160 55 51 4 91 20 250 99 158 79 200 96 250 101 48 4 90 20 212 80
125 61 163 75 215 80 56 4 96 21 363 155 261 130 308 150 360 154 51 5 92 22
260 105 177 89 208 101 265 105 60 5 91 18 410 180 317 161 350 176 410 181
58 5 94 20 320 131 211 104 265 126 311 130 40 3 82 17 145 49 69 34 103 45
154 49 36 3 81 13 99 23 44 22 53 12 62 -74 6 -53 19 -91 57 -167 40 -80 50
-112 54 -166 5 -58 14 -83 73 -195 57 -109 69 -139 76 -199 7 -60 20 -95 82
-220 60 -121 75 -160 79 -209 4 -45 18 -85 50 -150 35 -70 46 -104 50 -155 4
-52 15 -85 55 -165 38 -76 51 -115 55 -160 4 -45 18 -85 50 -150 35 -70 46
-104 50 -155 3 -36 14 -83 25 -105 11 -22 23 -67 25 -100 4 -46 18 -85 55
-160 38 -76 51 -115 55 -161 3 -33 15 -78 26 -100 10 -21 22 -68 24 -104 3
-36 14 -83 25 -105 11 -22 23 -67 26 -101 2 -33 14 -78 25 -100 10 -21 22 -66
25 -100 2 -33 14 -78 25 -100 10 -21 22 -68 24 -104 3 -36 14 -83 25 -105 11
-22 23 -67 25 -100 4 -46 18 -85 55 -160 40 -80 51 -113 55 -165 3 -36 14 -83
25 -105 11 -22 23 -65 26 -96 4 -41 24 -95 80 -211 59 -124 75 -167 79 -216 5
-53 22 -94 117 -284 92 -184 121 -233 166 -278 41 -42 70 -89 125 -200 l72
-145 141 -143 c78 -79 154 -150 169 -158 23 -12 128 -14 648 -14 435 0 628 3
643 11 12 6 87 75 165 153 l144 141 149 305 c136 276 155 311 208 365 76 77
122 168 129 254 5 58 22 98 209 475 181 362 206 418 210 471 5 52 26 100 156
360 131 263 150 307 154 360 5 53 23 97 155 360 135 272 150 307 155 365 5 57
17 88 105 260 88 173 101 202 105 260 5 55 17 87 76 205 59 119 70 150 75 205
4 58 16 87 104 261 87 171 100 204 105 260 5 53 18 88 76 204 55 111 70 151
75 199 4 47 21 92 80 213 60 125 75 165 79 216 5 51 19 88 81 212 60 121 75
161 80 210 3 44 17 84 50 150 35 70 46 104 50 155 4 51 15 85 50 155 35 70 46
104 50 155 2 36 14 83 24 104 11 22 23 67 26 100 4 46 17 85 55 161 37 75 51
114 55 160 2 33 14 78 25 100 11 22 22 69 25 105 2 36 14 83 25 105 11 22 22
69 25 105 2 36 13 82 24 104 11 21 22 64 25 95 4 39 20 86 55 156 36 74 51
118 58 170 4 39 18 95 29 125 11 30 20 72 21 93 0 24 16 70 46 129 35 70 47
107 51 153 3 37 14 78 30 108 16 31 27 71 30 110 3 46 16 87 49 158 31 65 47
115 51 155 4 42 19 86 51 149 35 70 46 104 50 155 4 56 16 87 79 214 62 125
75 159 82 220 7 60 19 90 76 199 59 112 68 137 72 195 5 61 15 85 105 262 86
168 100 203 104 255 4 51 20 92 105 265 82 167 101 216 106 265 5 49 24 95
105 260 87 174 100 208 105 265 5 54 17 88 76 205 56 112 70 151 75 200 4 45
17 84 55 160 37 75 51 114 55 160 3 42 18 88 49 155 31 66 46 113 50 155 3 33
15 78 25 99 11 22 23 67 26 100 3 42 19 88 50 155 31 68 46 113 50 156 4 45
17 85 55 160 37 75 51 114 55 160 2 33 14 78 24 99 11 22 23 67 26 100 3 42
19 88 49 155 30 63 46 113 50 150 4 54 29 131 42 131 3 0 123 -234 266 -520
214 -428 268 -528 303 -562 27 -28 42 -51 42 -68 0 -57 23 -105 76 -161 50
-51 85 -118 364 -675 282 -564 314 -622 364 -673 45 -46 72 -91 156 -261 82
-165 112 -216 155 -260 43 -45 76 -103 184 -315 76 -149 146 -275 165 -295 25
-26 36 -48 41 -84 5 -34 72 -180 234 -505 205 -409 229 -462 233 -517 4 -44
19 -91 51 -160 26 -58 48 -120 51 -149 3 -29 23 -90 49 -145 31 -66 46 -113
49 -155 4 -46 18 -86 55 -160 40 -80 51 -113 55 -165 3 -36 14 -83 25 -105 11
-22 23 -65 26 -95 3 -35 22 -90 50 -150 31 -67 46 -113 49 -156 3 -34 16 -81
30 -110 15 -28 28 -75 31 -109 4 -42 19 -89 50 -155 31 -67 46 -113 49 -156 3
-33 15 -78 26 -100 10 -21 22 -66 25 -100 2 -33 14 -78 25 -100 10 -21 22 -69
24 -105 4 -44 14 -83 31 -115 16 -31 27 -72 30 -109 4 -46 16 -83 49 -150 33
-66 47 -106 50 -151 3 -33 15 -78 26 -100 10 -21 22 -66 25 -99 4 -42 19 -89
50 -155 31 -67 46 -113 49 -156 3 -34 16 -81 30 -110 15 -29 27 -74 31 -110 3
-44 18 -90 50 -160 27 -59 48 -120 51 -150 3 -36 27 -98 79 -206 59 -124 75
-167 80 -216 5 -56 29 -110 252 -554 227 -451 248 -498 255 -560 7 -61 30
-112 263 -580 229 -462 255 -519 260 -573 4 -46 17 -85 54 -160 38 -76 51
-115 56 -161 3 -44 18 -90 50 -160 27 -60 48 -120 51 -151 3 -28 14 -70 25
-92 17 -32 21 -60 21 -138 1 -75 6 -111 22 -153 18 -48 22 -84 27 -275 l6
-220 114 -225 c122 -244 152 -284 241 -330 30 -16 75 -50 100 -75 59 -63 267
-164 350 -172 32 -3 76 -16 105 -31 46 -25 59 -27 170 -27 103 0 126 3 160 21
22 12 67 24 100 26 49 5 93 21 230 87 l170 82 143 142 144 142 103 205 c86
171 112 213 155 255 44 43 66 80 151 255 87 178 107 213 159 265 54 56 75 93
290 525 206 415 237 471 285 520 45 46 73 95 180 309 109 218 135 264 185 315
47 50 74 95 154 256 79 158 107 205 151 250 43 45 72 92 155 260 82 163 113
216 155 261 42 44 74 98 155 260 85 170 112 214 161 265 46 48 73 92 129 205
57 117 82 155 130 204 45 46 70 84 105 159 33 69 63 116 100 155 33 36 70 91
100 151 35 70 65 114 116 166 38 40 69 76 69 80 0 5 4 15 9 22 6 11 29 3 102
-33 70 -36 108 -49 154 -52 44 -4 84 -17 151 -50 68 -34 106 -46 155 -50 50
-5 86 -17 164 -56 75 -37 114 -51 160 -55 44 -3 84 -17 149 -49 62 -31 108
-47 155 -53 36 -5 91 -18 121 -29 30 -11 74 -20 98 -21 23 0 61 -9 84 -21 23
-12 69 -24 102 -26 37 -4 81 -16 111 -31 42 -22 68 -27 170 -32 90 -4 129 -10
155 -24 19 -10 64 -21 100 -24 37 -3 82 -14 105 -25 31 -16 67 -22 155 -27 86
-4 124 -10 150 -25 27 -14 63 -20 155 -25 93 -4 128 -10 155 -25 30 -17 61
-20 205 -25 155 -5 174 -7 215 -29 38 -21 64 -26 165 -31 91 -4 128 -11 155
-25 29 -16 64 -21 205 -26 138 -5 180 -10 225 -27 41 -16 78 -21 147 -22 75 0
98 -4 128 -21 23 -14 60 -23 103 -27 37 -2 85 -14 107 -25 22 -11 69 -22 105
-25 52 -4 85 -15 165 -55 73 -36 114 -51 158 -55 52 -4 105 -28 397 -173 340
-169 388 -189 448 -189 18 0 52 -10 75 -22 39 -21 54 -23 222 -23 164 0 184 2
220 21 22 12 67 24 100 26 49 5 93 21 230 87 161 77 175 86 253 164 79 78 88
91 174 262 76 150 91 189 96 240 2 33 14 78 26 100 19 36 21 59 24 251 3 196
2 215 -19 270 -12 32 -25 89 -29 125 -5 37 -17 84 -28 105 -11 22 -22 68 -24
104 -3 36 -14 83 -25 105 -11 22 -23 67 -25 100 -4 45 -18 84 -50 150 -35 70
-46 104 -50 155 -3 36 -14 83 -25 105 -11 22 -23 67 -26 101 -3 35 -15 81 -29
110 -15 28 -28 75 -31 109 -4 42 -19 89 -50 155 -31 67 -46 113 -49 155 -5 49
-20 89 -80 210 -61 122 -76 161 -80 211 -3 33 -15 78 -26 100 -10 21 -22 69
-24 106 -5 58 -14 83 -73 195 -57 109 -69 139 -76 199 -7 68 -28 113 -379 815
-336 672 -377 749 -425 799 -42 44 -76 100 -168 280 -104 204 -115 231 -120
290 -4 61 -19 94 -234 525 -213 426 -231 465 -236 525 -4 58 -17 87 -105 260
-89 175 -100 202 -105 260 -4 59 -16 89 -129 315 -108 215 -126 258 -130 310
-5 53 -27 102 -180 410 -154 308 -176 357 -180 410 -5 52 -22 94 -118 285 -91
182 -122 236 -165 281 -49 51 -114 178 -775 1500 -673 1346 -725 1448 -775
1499 -46 46 -74 95 -179 306 -102 205 -137 265 -189 326 -36 42 -86 119 -115
174 -32 63 -68 115 -97 144 -35 34 -66 83 -122 195 -56 113 -88 164 -128 205
-43 45 -77 102 -185 315 -106 208 -143 271 -185 315 -66 70 -78 92 -66 122 5
13 100 113 211 223 153 152 208 214 231 257 22 44 77 105 240 265 159 156 218
222 239 263 21 41 94 121 285 315 180 182 264 275 282 310 18 35 102 128 288
315 175 176 270 280 285 310 12 25 71 95 130 155 62 63 118 131 133 160 15 30
66 90 127 150 61 60 112 120 127 150 14 28 49 75 78 105 29 31 63 76 75 100
13 25 48 74 80 110 39 45 80 110 130 210 54 106 89 161 131 206 43 46 74 96
130 210 57 116 86 162 130 209 51 54 80 106 269 485 197 394 213 430 218 490
5 58 16 87 105 260 88 173 100 202 105 260 4 55 16 87 80 215 60 122 75 161
80 210 2 33 14 78 25 100 11 22 22 69 25 105 4 51 15 85 50 155 32 66 46 105
50 150 2 33 14 78 24 99 11 22 23 67 25 100 4 35 16 82 30 109 14 28 28 79 32
121 5 39 16 87 25 105 10 18 21 63 26 99 5 37 18 92 29 122 11 30 20 74 21 98
0 23 9 61 21 84 12 23 24 69 26 102 3 34 14 78 25 99 10 21 23 71 27 111 5 39
17 87 27 106 13 25 19 67 24 150 4 94 10 123 29 160 15 28 26 68 29 110 3 37
14 82 25 105 16 31 22 67 27 155 4 84 10 124 24 149 10 19 21 62 23 95 3 34
15 79 26 101 16 31 22 67 27 160 4 89 10 129 24 154 10 19 21 62 23 95 4 37
16 81 31 111 22 42 27 68 32 170 4 92 10 128 25 155 14 27 20 63 25 155 4 91
10 128 25 155 14 26 20 64 25 150 4 86 10 124 25 150 14 27 20 63 25 155 4 93
10 128 25 155 17 30 20 61 25 205 5 157 7 174 30 215 22 41 25 59 30 215 5
140 9 177 25 210 18 36 21 70 26 310 5 245 8 275 28 328 l21 57 -2 928 c-3
906 -3 928 -23 962 -18 31 -21 59 -25 260 -4 201 -7 229 -25 260 -17 30 -21
60 -25 205 -5 146 -8 176 -26 210 -13 23 -23 67 -26 105 -3 36 -14 81 -24 100
-14 26 -20 65 -24 155 -5 102 -10 128 -32 170 -15 30 -27 74 -31 111 -2 33
-14 78 -25 100 -10 21 -22 68 -24 104 -4 51 -15 85 -50 155 -33 66 -47 106
-50 151 -3 33 -15 78 -26 100 -10 21 -22 66 -25 100 -3 35 -15 81 -29 110 -15
28 -27 74 -31 110 -2 33 -14 78 -25 100 -10 21 -22 68 -24 104 -3 36 -14 83
-25 105 -11 22 -23 69 -25 105 -3 36 -14 83 -25 105 -11 22 -23 65 -26 96 -3
31 -14 72 -24 90 -13 26 -19 65 -23 159 -5 99 -11 133 -27 165 -11 22 -23 67
-26 101 -3 35 -15 79 -28 105 -20 36 -25 65 -29 164 -5 92 -11 128 -26 155
-16 29 -20 62 -24 205 -5 146 -8 176 -26 210 -12 22 -24 67 -27 101 -2 33 -14
78 -25 100 -10 21 -22 68 -24 104 -3 36 -14 83 -25 105 -11 22 -23 67 -26 101
-3 35 -15 81 -29 110 -15 28 -27 74 -30 109 -5 52 -22 94 -123 295 -105 209
-119 243 -126 306 -7 64 -20 95 -125 300 -91 179 -128 241 -169 284 -43 46
-80 111 -229 410 -157 312 -185 362 -233 411 -49 50 -77 101 -284 520 -215
432 -234 468 -289 524 -54 55 -73 89 -231 410 -154 312 -179 357 -230 410 -50
53 -78 102 -239 424 -156 313 -189 372 -235 420 -43 45 -74 98 -159 266 -87
175 -113 218 -156 260 -36 35 -67 81 -102 149 -31 63 -69 120 -103 155 -29 31
-64 79 -78 106 -15 30 -66 90 -127 150 -66 65 -111 119 -130 156 -29 57 -92
122 -129 134 -12 3 -29 21 -38 38 -9 17 -142 162 -297 320 -220 226 -293 295
-336 317 -35 18 -91 65 -155 130 -61 62 -119 111 -150 127 -27 14 -77 51 -110
84 -34 32 -84 69 -115 83 -31 14 -77 48 -105 76 -27 29 -70 62 -95 75 -25 13
-67 47 -95 75 -27 28 -77 65 -110 82 -33 17 -85 54 -116 83 -35 33 -91 71
-150 100 -59 30 -115 67 -150 100 -41 40 -95 73 -209 130 -116 58 -167 90
-210 131 -53 50 -167 109 -1556 803 -1406 703 -1502 753 -1549 801 -43 44 -89
71 -330 192 -254 127 -286 141 -345 146 -59 4 -93 19 -365 155 -261 130 -307
150 -360 155 -49 4 -88 19 -210 80 -122 60 -161 75 -210 80 -33 2 -78 14 -100
25 -22 11 -69 22 -105 25 -54 4 -81 13 -159 54 -77 42 -104 51 -160 56 -36 2
-84 14 -106 25 -22 11 -69 22 -105 25 -37 3 -82 14 -105 25 -31 16 -67 22
-155 27 -84 4 -124 10 -149 24 -19 10 -62 21 -95 23 -34 3 -79 15 -101 26 -35
18 -66 22 -240 28 -267 10 -5970 8 -6061 -1z m3519 -1922 l42 -23 1210 -5
1210 -6 55 -22 c43 -17 76 -21 153 -22 79 0 106 -4 139 -21 23 -12 69 -24 102
-26 34 -3 79 -15 101 -26 22 -11 68 -22 104 -25 59 -5 99 -23 550 -249 433
-217 492 -250 541 -298 45 -44 92 -72 260 -155 169 -84 215 -111 260 -156 51
-50 143 -97 1350 -700 1242 -620 1297 -648 1355 -704 51 -50 89 -73 260 -156
166 -82 210 -107 260 -155 40 -38 92 -73 155 -104 61 -30 115 -66 150 -99 33
-32 94 -74 155 -105 57 -30 122 -73 150 -101 28 -26 73 -60 100 -76 28 -15
125 -100 218 -189 92 -88 187 -170 210 -182 27 -13 149 -127 325 -302 214
-214 288 -293 308 -333 17 -35 62 -88 129 -155 71 -69 113 -120 134 -160 16
-32 53 -80 81 -108 28 -27 64 -75 80 -105 16 -30 52 -77 80 -105 28 -27 63
-72 77 -100 14 -27 49 -75 77 -105 40 -42 71 -93 128 -210 64 -130 85 -164
132 -210 48 -46 69 -79 127 -200 55 -114 81 -157 124 -200 45 -46 73 -95 183
-315 111 -222 138 -267 181 -310 45 -44 71 -89 206 -360 135 -273 159 -316
205 -360 45 -44 71 -88 207 -360 134 -268 162 -317 209 -365 46 -47 73 -95
188 -325 116 -232 142 -277 186 -320 45 -44 73 -94 239 -425 175 -349 188
-380 193 -441 4 -44 14 -83 31 -115 16 -31 27 -72 30 -109 4 -46 16 -83 49
-150 33 -66 47 -106 50 -151 3 -33 15 -79 27 -102 12 -23 21 -61 21 -84 1 -24
10 -68 21 -98 11 -30 24 -85 29 -122 5 -36 16 -81 26 -99 9 -18 20 -66 25
-105 4 -42 18 -93 32 -121 14 -27 26 -74 30 -109 2 -33 14 -78 25 -100 10 -21
22 -66 25 -100 2 -33 14 -78 25 -100 10 -21 22 -66 25 -100 2 -33 13 -76 22
-94 10 -19 21 -67 26 -106 4 -40 17 -90 27 -111 11 -21 22 -65 25 -99 3 -35
15 -81 30 -110 15 -31 26 -73 29 -114 3 -38 14 -83 27 -107 11 -23 21 -60 21
-83 0 -22 10 -66 21 -98 12 -31 25 -88 30 -125 6 -52 19 -88 52 -150 35 -66
45 -95 49 -147 3 -41 15 -84 30 -115 15 -29 27 -75 31 -111 2 -33 14 -78 25
-100 10 -21 22 -68 24 -104 3 -36 14 -83 25 -105 11 -22 23 -67 26 -101 2 -33
14 -78 25 -100 10 -21 22 -66 25 -100 2 -33 14 -78 25 -100 10 -21 22 -68 24
-104 3 -36 14 -81 24 -100 14 -26 20 -65 24 -155 5 -101 10 -127 30 -165 20
-37 26 -65 30 -160 5 -91 11 -124 28 -157 22 -41 22 -50 22 -453 0 -407 0
-411 -22 -453 -21 -39 -23 -58 -28 -267 -4 -198 -7 -229 -24 -260 -15 -27 -21
-63 -26 -155 -4 -92 -10 -128 -25 -155 -14 -27 -20 -63 -25 -155 -4 -92 -10
-128 -25 -155 -14 -27 -20 -63 -25 -155 -4 -99 -9 -128 -29 -164 -13 -26 -25
-70 -28 -105 -3 -34 -15 -79 -27 -101 -18 -34 -21 -64 -26 -210 -4 -140 -8
-176 -24 -204 -10 -19 -21 -62 -23 -95 -3 -34 -15 -79 -26 -101 -16 -32 -22
-66 -27 -165 -4 -97 -10 -133 -25 -160 -14 -26 -20 -64 -25 -150 -4 -95 -10
-123 -30 -160 -20 -38 -25 -64 -30 -165 -4 -92 -10 -128 -25 -155 -14 -27 -20
-63 -25 -155 -4 -91 -10 -128 -25 -155 -14 -26 -20 -64 -25 -150 -4 -86 -10
-124 -25 -150 -14 -27 -20 -63 -25 -155 -4 -89 -10 -129 -24 -154 -10 -19 -21
-62 -23 -95 -4 -37 -16 -81 -31 -111 -22 -43 -26 -66 -29 -160 -4 -107 -5
-113 -51 -209 -45 -96 -46 -104 -52 -215 -4 -85 -10 -125 -24 -150 -10 -19
-21 -62 -23 -95 -3 -34 -15 -79 -26 -101 -11 -22 -22 -69 -25 -105 -4 -52 -15
-85 -55 -165 -37 -75 -51 -114 -55 -160 -2 -33 -14 -77 -24 -99 -11 -21 -22
-64 -25 -95 -3 -43 -21 -91 -75 -203 -56 -119 -71 -160 -75 -210 -5 -54 -20
-91 -106 -263 -83 -167 -100 -209 -105 -260 -4 -53 -28 -106 -194 -440 -174
-349 -194 -385 -248 -440 -49 -50 -70 -84 -130 -209 -58 -123 -81 -161 -129
-211 -42 -43 -75 -93 -114 -171 -38 -74 -70 -123 -102 -154 -26 -25 -59 -70
-75 -100 -16 -30 -49 -75 -75 -100 -26 -25 -59 -70 -75 -100 -18 -35 -65 -91
-130 -155 -65 -64 -112 -120 -130 -155 -23 -43 -127 -153 -490 -515 -362 -361
-468 -472 -490 -515 -22 -43 -110 -137 -390 -415 -287 -286 -367 -372 -390
-416 -38 -74 -366 -402 -437 -437 -33 -16 -118 -93 -263 -237 -149 -148 -230
-221 -265 -238 -30 -16 -88 -64 -145 -122 -60 -61 -115 -107 -150 -125 -30
-16 -77 -52 -105 -80 -29 -30 -73 -62 -105 -76 -32 -15 -80 -50 -115 -83 -33
-33 -82 -70 -110 -84 -27 -14 -70 -46 -95 -72 -30 -31 -79 -64 -145 -97 -66
-34 -119 -69 -160 -108 -55 -53 -110 -82 -700 -377 -601 -300 -644 -320 -705
-325 -57 -5 -89 -17 -265 -105 -169 -84 -209 -101 -260 -105 -49 -5 -88 -19
-200 -75 -117 -59 -151 -71 -205 -76 -55 -5 -88 -17 -215 -80 -125 -63 -160
-76 -210 -80 -46 -4 -83 -16 -150 -49 -66 -33 -106 -47 -151 -50 -33 -3 -78
-15 -100 -26 -23 -11 -68 -21 -110 -24 -61 -4 -83 -12 -160 -54 l-89 -49 -120
-6 c-93 -4 -129 -10 -160 -26 -23 -11 -68 -22 -105 -25 -36 -3 -81 -14 -100
-24 -26 -14 -65 -20 -150 -24 -86 -5 -124 -11 -150 -25 -27 -15 -64 -21 -155
-25 -92 -5 -128 -11 -155 -26 -31 -17 -62 -20 -260 -24 -217 -5 -227 -6 -270
-30 -44 -25 -50 -25 -315 -30 -246 -5 -273 -7 -305 -25 -31 -18 -59 -21 -260
-25 -209 -5 -228 -7 -267 -28 -38 -20 -57 -22 -185 -22 -121 -1 -151 -4 -198
-22 -45 -17 -87 -22 -225 -27 -142 -5 -176 -10 -205 -26 -30 -17 -62 -20 -205
-25 -156 -5 -174 -8 -215 -30 -43 -24 -55 -25 -270 -30 -209 -5 -228 -7 -267
-28 l-42 -22 -616 0 -616 0 -42 22 c-39 21 -58 23 -267 28 -200 4 -229 7 -260
25 -30 16 -61 20 -205 25 -141 5 -180 10 -227 28 -32 12 -76 22 -98 22 -25 0
-61 11 -93 27 -45 23 -68 27 -172 33 -91 4 -128 10 -155 24 -26 15 -64 21
-155 26 -87 4 -129 11 -154 24 -19 10 -62 21 -95 23 -34 3 -79 15 -100 25 -22
11 -67 23 -100 25 -34 3 -79 15 -101 26 -31 16 -67 22 -155 27 -84 4 -124 10
-149 24 -19 10 -62 21 -95 23 -36 4 -82 16 -111 31 -31 15 -74 27 -115 30 -36
2 -83 14 -104 24 -22 11 -67 23 -100 26 -45 3 -85 17 -151 50 -65 32 -105 46
-150 50 -52 4 -95 22 -310 129 -223 111 -257 126 -315 130 -60 6 -99 23 -495
221 -380 190 -436 221 -485 268 -47 45 -101 76 -365 210 -263 132 -318 164
-365 209 -37 36 -88 70 -158 105 -71 35 -124 70 -167 110 -50 47 -95 75 -207
129 -115 55 -153 79 -193 121 -37 38 -81 67 -165 110 -80 40 -129 73 -160 105
-34 35 -83 66 -200 125 -123 62 -165 89 -205 130 -41 43 -77 65 -205 127 -126
60 -165 84 -215 132 -41 40 -92 74 -155 106 -60 30 -116 67 -151 100 -36 35
-92 71 -159 105 -67 34 -123 70 -159 105 -36 34 -92 71 -156 103 -70 35 -115
66 -150 102 -27 28 -72 63 -100 77 -27 14 -75 49 -106 78 -30 29 -77 64 -105
78 -29 15 -90 67 -149 127 -67 68 -119 111 -158 131 -47 24 -133 105 -446 417
-326 324 -394 397 -419 447 -17 33 -49 78 -72 100 -23 22 -55 65 -72 95 -17
30 -54 80 -83 110 -36 39 -73 98 -124 200 -56 110 -87 160 -131 205 -78 82
-174 281 -182 376 -5 54 -16 84 -76 199 -60 117 -70 144 -75 200 -3 52 -14 84
-54 165 -38 76 -51 115 -55 160 -4 45 -18 85 -50 150 -33 66 -47 106 -50 151
-3 33 -15 78 -26 100 -10 21 -22 68 -24 104 -3 41 -15 84 -30 115 -14 29 -28
76 -31 110 -4 42 -19 88 -50 155 -32 69 -46 112 -50 156 -3 33 -14 78 -25 100
-10 21 -22 66 -24 99 -4 46 -18 85 -55 160 -38 75 -52 115 -56 160 -4 47 -20
92 -74 205 -53 110 -71 160 -76 205 -5 52 -40 127 -276 600 -244 489 -274 545
-321 590 -44 43 -71 91 -206 360 -137 274 -162 317 -213 370 -49 50 -72 89
-143 236 -68 141 -86 187 -90 235 -5 49 -22 92 -100 249 -84 167 -96 198 -100
255 -4 52 -15 85 -55 165 -38 76 -51 115 -55 161 -3 33 -15 78 -26 100 -10 21
-22 66 -25 100 -2 33 -13 76 -23 95 -14 25 -20 65 -24 154 -5 96 -11 128 -28
162 -12 24 -22 61 -22 85 -1 24 -10 68 -22 98 -17 45 -22 87 -27 225 -6 156
-9 174 -31 215 -23 41 -25 58 -30 215 -5 150 -8 175 -28 212 l-22 42 0 823 c0
823 0 823 22 868 19 39 22 69 27 215 5 144 9 175 26 205 16 30 20 61 25 210 5
149 8 180 25 210 17 30 20 61 25 205 5 156 7 174 29 215 21 37 26 64 31 160 4
86 10 124 25 150 14 26 21 65 26 155 4 84 13 137 27 175 18 46 21 78 22 198 0
127 2 147 22 185 17 34 23 66 28 162 4 94 10 128 25 155 18 31 21 60 25 260 4
199 7 229 25 260 15 27 20 59 23 145 3 96 7 116 30 160 22 43 27 67 33 170 5
84 13 136 27 175 16 41 21 78 22 148 0 74 4 101 21 134 12 23 24 69 26 102 3
34 15 79 26 101 16 31 22 67 27 160 4 89 10 129 24 154 10 19 21 62 23 95 4
36 16 82 31 110 14 29 26 75 29 110 4 49 19 90 75 206 55 113 71 158 75 205 4
43 18 85 51 150 33 66 46 105 49 150 4 49 19 86 80 208 63 125 75 159 82 220
8 69 31 117 506 1067 452 905 502 1000 550 1050 39 40 75 97 135 215 61 117
97 175 135 215 29 30 64 78 78 105 14 28 46 70 72 95 32 31 64 79 102 155 49
98 67 122 163 220 63 64 118 131 133 160 17 33 76 100 177 200 101 100 160
167 177 200 18 36 115 141 357 383 265 267 342 339 388 363 44 22 108 79 263
234 149 149 219 212 257 231 34 17 89 63 156 130 69 70 122 114 160 133 38 20
91 63 157 131 64 65 116 108 145 121 29 13 86 61 160 133 65 65 134 124 160
136 25 12 92 68 150 125 92 89 118 109 210 155 93 46 118 65 215 160 95 94
123 115 210 158 70 35 115 66 150 102 28 28 73 63 100 77 28 14 75 49 105 78
38 36 89 68 160 103 78 37 118 63 155 102 40 41 81 67 200 127 114 57 163 88
205 128 49 48 111 82 595 323 486 242 546 270 600 274 50 5 88 20 210 80 128
64 159 76 215 80 51 4 85 15 155 50 66 33 106 47 150 50 45 4 85 18 150 50 66
33 106 47 151 50 35 4 81 16 110 31 31 15 73 26 114 29 38 3 83 14 107 27 23
11 60 21 83 21 22 0 66 10 98 21 31 12 87 25 123 29 37 5 84 17 105 28 22 11
66 22 100 25 33 2 76 13 95 23 25 14 65 20 154 24 104 5 127 9 170 32 32 17
72 28 111 31 33 3 76 13 95 23 25 14 65 20 154 24 92 5 128 11 155 25 27 15
63 21 155 25 96 5 128 11 162 28 23 12 59 22 80 22 21 1 63 10 93 22 45 17 87
22 225 27 143 5 176 10 205 26 27 15 62 21 155 25 101 5 127 10 165 31 42 22
58 24 235 29 171 5 194 7 230 27 l40 22 1038 1 1038 0 42 -22z m-9153 -29648
c60 -30 101 -44 144 -48 48 -4 90 -21 235 -93 142 -71 186 -98 226 -139 46
-48 112 -82 830 -441 704 -353 785 -395 835 -444 54 -51 104 -75 155 -75 12 0
39 -19 60 -41 53 -56 169 -110 249 -116 54 -5 96 -23 361 -155 272 -136 306
-150 365 -155 50 -5 86 -16 155 -51 66 -32 105 -46 150 -50 33 -2 77 -13 98
-24 21 -10 71 -23 111 -27 39 -5 87 -16 106 -26 18 -9 61 -20 94 -22 35 -4 82
-16 110 -30 26 -14 78 -28 115 -33 36 -5 91 -18 121 -29 41 -15 79 -20 148
-21 76 0 101 -4 135 -22 34 -17 66 -23 162 -28 92 -4 128 -10 155 -25 27 -14
63 -20 155 -25 91 -4 128 -10 155 -25 26 -14 64 -20 150 -25 95 -4 123 -10
160 -30 38 -20 64 -25 165 -30 93 -4 128 -10 155 -25 30 -17 61 -20 205 -25
144 -4 175 -8 205 -25 27 -15 59 -20 145 -23 110 -3 165 -15 165 -35 0 -6 -30
-67 -66 -136 -57 -108 -67 -135 -72 -191 -4 -56 -16 -87 -80 -215 -64 -128
-75 -159 -80 -215 -3 -37 -14 -82 -25 -105 -16 -31 -22 -67 -27 -155 -4 -84
-10 -124 -24 -149 -10 -19 -21 -62 -23 -95 -3 -34 -15 -79 -26 -101 -11 -22
-22 -69 -25 -105 -2 -36 -14 -83 -24 -104 -11 -22 -23 -67 -25 -100 -4 -37
-16 -81 -31 -111 -22 -42 -27 -68 -32 -170 -4 -89 -10 -129 -24 -154 -10 -19
-21 -62 -23 -95 -3 -34 -15 -79 -26 -101 -11 -22 -22 -69 -25 -105 -2 -36 -14
-83 -24 -104 -11 -22 -23 -67 -26 -100 -4 -46 -17 -85 -54 -160 -36 -71 -52
-117 -58 -165 -5 -36 -18 -91 -29 -121 -11 -30 -20 -74 -21 -98 0 -30 -13 -69
-46 -134 -34 -69 -48 -108 -52 -153 -4 -45 -17 -84 -55 -160 -37 -75 -51 -114
-55 -160 -3 -42 -18 -88 -49 -155 -31 -66 -46 -113 -50 -155 -5 -50 -22 -93
-106 -260 -84 -168 -100 -209 -105 -260 -4 -48 -18 -87 -75 -200 -57 -114 -70
-150 -74 -200 -4 -51 -19 -90 -105 -263 -85 -172 -101 -211 -105 -265 -4 -46
-17 -85 -51 -152 -32 -64 -46 -106 -50 -149 -4 -47 -21 -92 -79 -214 -52 -108
-76 -170 -79 -206 -3 -30 -24 -91 -51 -150 -32 -70 -47 -116 -50 -160 -3 -33
-15 -79 -26 -101 -11 -22 -22 -69 -25 -105 -3 -41 -14 -83 -29 -114 -15 -29
-27 -75 -30 -110 -4 -47 -16 -80 -50 -145 -37 -68 -46 -96 -51 -150 -4 -52
-14 -85 -50 -156 -35 -70 -46 -104 -50 -155 -3 -41 -14 -83 -29 -114 -15 -29
-27 -75 -31 -110 -3 -45 -17 -85 -50 -151 -32 -66 -46 -105 -50 -150 -2 -33
-14 -78 -25 -100 -11 -22 -22 -69 -25 -105 -4 -52 -15 -85 -55 -165 -37 -75
-51 -114 -55 -160 -3 -44 -17 -84 -50 -150 -32 -65 -46 -105 -50 -150 -3 -44
-17 -84 -50 -150 -35 -70 -46 -104 -50 -155 -4 -52 -15 -85 -55 -165 -37 -75
-51 -114 -55 -160 -4 -50 -20 -91 -100 -250 -84 -168 -95 -198 -99 -255 -5
-58 -16 -85 -105 -260 -88 -173 -101 -202 -105 -260 -5 -55 -17 -88 -81 -215
-61 -123 -75 -160 -79 -210 -4 -51 -20 -89 -100 -250 -81 -164 -95 -199 -100
-255 -6 -61 -29 -111 -340 -734 -293 -585 -335 -675 -340 -725 -2 -31 -9 -68
-15 -83 -10 -26 -12 -23 -57 70 -35 71 -49 113 -53 158 -3 33 -15 78 -26 100
-10 21 -22 68 -24 104 -4 52 -15 85 -57 167 -36 73 -51 114 -51 143 0 22 -10
66 -21 98 -12 31 -25 87 -29 123 -5 37 -17 84 -28 105 -11 22 -22 66 -25 100
-2 33 -14 78 -25 100 -10 21 -22 66 -25 100 -3 35 -15 81 -29 110 -15 29 -27
74 -31 110 -3 44 -18 90 -50 160 -31 67 -47 118 -50 155 -3 31 -14 74 -25 95
-10 22 -22 66 -25 99 -4 42 -19 89 -50 155 -31 67 -46 113 -49 155 -4 46 -18
85 -55 160 -38 76 -51 115 -55 161 -3 33 -15 78 -26 100 -10 21 -22 66 -25 99
-4 42 -19 89 -50 155 -31 67 -46 113 -49 155 -4 46 -18 85 -55 160 -38 75 -52
115 -56 160 -4 52 -27 104 -172 396 l-166 337 -192 184 c-184 177 -197 186
-306 242 -96 49 -125 59 -180 64 -53 4 -84 14 -156 51 l-90 46 -230 0 c-211 0
-233 -2 -265 -20 -27 -15 -61 -21 -155 -25 -96 -5 -128 -11 -162 -28 -24 -12
-61 -22 -85 -22 -24 -1 -68 -10 -98 -21 -30 -11 -85 -24 -121 -29 -47 -6 -93
-22 -155 -53 -65 -32 -105 -46 -149 -49 -46 -4 -85 -18 -160 -55 -79 -40 -114
-51 -165 -56 -58 -4 -91 -18 -315 -130 -216 -108 -258 -125 -310 -130 -54 -4
-101 -25 -410 -179 -321 -161 -355 -176 -415 -180 -59 -5 -91 -19 -360 -155
-265 -134 -303 -150 -360 -156 -52 -4 -92 -19 -219 -81 -121 -58 -169 -76
-212 -80 -43 -3 -87 -20 -195 -74 -115 -57 -150 -70 -204 -75 -50 -4 -87 -17
-165 -55 -75 -37 -115 -51 -161 -55 -33 -2 -78 -14 -100 -25 -21 -10 -66 -22
-100 -25 -33 -2 -78 -14 -100 -25 -32 -16 -164 -36 -164 -25 0 2 9 22 21 45
12 23 24 69 26 102 5 52 20 91 106 261 88 176 100 207 105 265 5 62 27 108
439 932 403 804 435 872 440 930 5 58 30 111 286 623 249 499 280 566 285 619
4 50 24 99 129 313 103 208 125 263 130 310 4 48 27 103 130 313 106 216 126
264 130 315 5 50 22 93 106 260 84 169 100 208 104 260 4 50 21 93 105 265 76
157 101 218 105 260 5 39 26 96 75 200 55 114 71 158 75 205 5 51 23 96 130
310 108 217 126 258 130 310 4 53 27 105 210 474 183 369 206 420 210 475 5
56 43 136 466 981 421 843 460 925 464 980 5 51 21 91 105 261 86 173 100 209
105 265 5 53 18 88 76 204 56 112 70 151 75 200 4 49 19 88 80 210 61 122 75
160 79 210 4 51 20 90 105 260 87 174 100 208 105 265 4 50 16 86 50 154 32
63 46 105 49 145 4 42 20 87 66 182 l61 126 91 -42 c50 -23 129 -61 176 -85z
m18201 -62 c53 -107 84 -157 124 -198 42 -44 75 -99 160 -265 85 -168 118
-221 161 -267 46 -48 73 -93 154 -260 86 -176 107 -210 155 -258 51 -50 70
-83 206 -360 135 -275 155 -311 208 -365 56 -57 78 -98 420 -785 332 -669 364
-729 412 -775 47 -46 77 -102 358 -664 230 -462 317 -626 349 -662 23 -26 42
-55 42 -65 0 -46 25 -100 66 -144 24 -26 44 -56 44 -66 0 -43 23 -95 60 -141
22 -26 40 -57 40 -68 0 -45 24 -99 59 -139 29 -31 40 -53 44 -88 5 -34 91
-216 310 -655 283 -566 305 -613 310 -673 5 -58 20 -94 156 -365 133 -266 150
-307 154 -360 4 -55 31 -113 330 -710 300 -600 329 -654 377 -700 47 -45 71
-88 252 -455 194 -393 202 -407 269 -476 66 -69 69 -74 69 -120 0 -73 17 -121
59 -168 28 -30 40 -53 44 -87 4 -29 49 -132 130 -295 108 -216 126 -257 130
-310 l5 -60 -62 4 c-33 3 -79 14 -101 25 -22 11 -69 22 -105 25 -36 2 -82 13
-103 24 -21 10 -71 23 -111 27 -39 5 -87 17 -106 27 -25 13 -67 19 -150 24
-85 4 -124 10 -150 24 -19 10 -64 21 -100 24 -36 2 -83 14 -104 24 -22 11 -67
23 -100 25 -34 3 -79 15 -101 26 -31 16 -67 22 -160 27 -101 4 -127 9 -165 30
-38 20 -64 25 -165 30 -89 4 -129 10 -154 24 -19 10 -62 21 -95 23 -34 3 -79
15 -100 25 -22 11 -67 23 -100 25 -34 3 -79 15 -101 26 -22 11 -69 22 -105 25
-36 2 -83 14 -104 24 -22 11 -67 23 -100 25 -36 4 -82 16 -110 31 -29 14 -75
26 -110 29 -34 3 -79 15 -101 26 -31 16 -67 22 -160 27 -117 5 -122 7 -205 49
-67 34 -99 45 -150 49 -36 2 -83 14 -104 24 -22 11 -67 23 -100 25 -34 3 -79
15 -100 25 -22 11 -67 23 -100 26 -46 4 -85 17 -161 55 -80 40 -113 51 -165
55 -55 4 -86 15 -205 75 -112 56 -151 70 -200 75 -37 3 -79 15 -110 31 l-50
26 -270 0 -270 0 -275 -138 c-274 -138 -275 -139 -363 -225 -55 -54 -99 -108
-117 -142 -16 -30 -49 -75 -75 -100 -31 -30 -63 -78 -97 -145 -35 -71 -67
-118 -109 -160 -44 -45 -70 -84 -105 -159 -34 -73 -61 -116 -104 -160 -46 -48
-72 -90 -125 -200 -53 -111 -78 -152 -125 -200 -48 -51 -75 -96 -163 -271 -84
-168 -115 -219 -152 -255 -38 -37 -70 -92 -177 -304 -108 -214 -140 -269 -187
-320 -41 -44 -77 -101 -130 -206 -51 -99 -92 -166 -131 -210 -40 -46 -80 -110
-133 -215 -59 -118 -86 -161 -127 -200 -37 -35 -67 -81 -105 -155 -35 -70 -69
-120 -100 -150 -37 -36 -68 -88 -151 -255 -86 -172 -116 -221 -162 -270 -32
-33 -59 -61 -62 -62 -3 -2 -35 54 -71 125 -57 108 -67 137 -72 192 -5 59 -20
95 -156 370 -127 258 -151 314 -155 362 -4 49 -31 110 -209 465 -187 375 -204
414 -209 473 -5 58 -20 92 -131 315 -107 216 -125 258 -130 311 -2 33 -14 78
-25 100 -10 21 -22 69 -24 106 -5 58 -14 83 -73 195 -58 109 -69 139 -76 200
-4 41 -18 92 -32 120 -14 27 -26 74 -29 108 -4 45 -18 84 -50 150 -35 70 -46
104 -50 155 -3 36 -14 83 -25 105 -11 22 -23 67 -26 101 -2 33 -14 78 -25 100
-10 21 -22 68 -24 104 -3 36 -14 83 -25 105 -11 22 -23 67 -26 101 -3 35 -15
81 -29 110 -15 28 -27 74 -30 109 -4 45 -18 84 -50 150 -33 66 -47 106 -50
151 -3 33 -15 79 -27 102 -12 23 -21 61 -21 84 -1 24 -10 68 -21 98 -11 30
-24 85 -29 121 -5 37 -19 89 -33 115 -14 28 -27 75 -30 109 -4 42 -19 89 -50
155 -31 67 -46 113 -49 155 -4 45 -18 85 -50 150 -33 66 -47 106 -50 150 -4
46 -18 85 -55 160 -40 80 -51 113 -55 165 -5 57 -17 87 -99 250 -81 161 -94
194 -100 251 -5 62 -25 105 -278 611 -245 490 -277 549 -322 594 -42 40 -70
87 -159 264 -90 178 -117 224 -159 265 -45 44 -71 89 -205 360 -135 272 -161
316 -206 360 -44 43 -70 88 -189 326 -124 248 -139 282 -143 340 -5 60 -31
114 -436 924 -399 796 -435 864 -482 910 -32 31 -67 80 -91 127 -21 43 -39 80
-39 83 0 2 15 12 33 22 26 15 65 19 202 23 146 5 176 8 210 26 22 12 67 24
101 27 33 2 76 13 95 23 25 14 65 20 154 24 92 5 128 11 155 25 27 15 63 21
155 25 93 5 129 11 160 27 22 11 67 23 101 26 33 2 76 13 95 23 25 13 67 20
154 24 101 5 127 10 165 31 41 22 60 24 215 29 144 5 175 8 205 25 27 15 62
21 155 25 92 5 128 11 155 26 29 16 62 20 205 24 144 5 175 8 205 25 27 15 62
21 155 25 93 5 129 11 160 27 22 11 67 23 101 26 35 3 79 15 105 28 36 20 65
25 164 29 96 5 128 11 162 28 23 12 60 22 83 22 22 0 66 10 98 21 31 12 87 25
123 29 37 5 84 17 105 28 22 11 66 22 100 25 33 2 78 14 100 25 21 10 66 22
100 25 35 3 81 15 110 29 29 15 75 27 112 31 50 4 91 19 210 75 111 54 161 72
203 75 39 4 82 18 145 50 68 34 104 46 154 50 55 4 89 17 215 80 113 56 164
76 205 80 35 3 90 22 150 50 67 31 113 46 156 49 54 5 99 25 371 160 274 137
317 156 372 161 54 4 93 20 279 113 178 89 228 119 277 165 49 46 98 75 265
159 146 73 218 114 250 145 25 24 54 45 65 48 11 3 21 5 22 6 2 0 35 -63 74
-141z"/>
<path d="M23705 44072 c-11 -2 -101 -44 -201 -92 l-181 -89 -127 -132 c-74
-77 -137 -152 -152 -181 -14 -27 -49 -76 -79 -108 -54 -59 -75 -105 -75 -168
0 -22 -58 -148 -181 -393 -165 -332 -181 -367 -188 -433 -7 -60 -19 -90 -76
-199 -59 -112 -68 -137 -73 -195 -4 -54 -14 -86 -55 -167 -37 -75 -51 -114
-55 -160 -4 -48 -18 -87 -75 -200 -59 -119 -70 -150 -75 -205 -2 -36 -14 -83
-24 -104 -11 -22 -23 -67 -26 -100 -4 -46 -17 -85 -54 -160 -38 -76 -51 -114
-57 -170 -5 -39 -16 -87 -26 -106 -9 -18 -20 -61 -23 -94 -3 -45 -17 -84 -50
-151 -32 -66 -46 -105 -50 -150 -3 -35 -15 -81 -30 -109 -14 -28 -27 -76 -30
-110 -3 -42 -19 -89 -50 -155 -31 -68 -46 -113 -50 -156 -2 -33 -14 -78 -24
-99 -11 -22 -23 -67 -25 -100 -3 -34 -15 -79 -26 -101 -11 -22 -22 -68 -24
-105 -4 -54 -14 -81 -55 -159 -42 -78 -51 -106 -56 -160 -4 -52 -14 -85 -50
-156 -32 -65 -46 -105 -50 -150 -3 -42 -18 -89 -49 -155 -28 -60 -47 -115 -50
-150 -4 -37 -22 -89 -55 -159 -37 -77 -51 -119 -55 -165 -5 -52 -21 -91 -105
-260 -81 -162 -101 -210 -106 -260 l-7 -61 -66 -7 c-36 -3 -84 -15 -107 -27
-23 -12 -61 -21 -84 -21 -24 -1 -68 -10 -98 -22 -39 -14 -91 -22 -175 -27 -95
-5 -128 -11 -160 -28 -22 -12 -65 -24 -96 -26 -31 -3 -72 -13 -90 -23 -25 -14
-66 -20 -154 -24 -102 -5 -128 -10 -170 -32 -30 -15 -74 -27 -111 -31 -33 -2
-76 -13 -94 -22 -19 -10 -67 -21 -106 -26 -40 -4 -90 -17 -111 -27 -21 -11
-65 -22 -99 -25 -33 -2 -78 -14 -100 -25 -21 -10 -67 -22 -102 -25 -46 -4 -90
-17 -160 -50 -72 -34 -113 -47 -159 -50 -39 -3 -79 -14 -110 -30 -27 -15 -72
-27 -104 -30 -31 -3 -74 -14 -95 -25 -23 -11 -68 -21 -109 -24 -59 -4 -84 -12
-155 -50 -67 -36 -98 -47 -148 -51 -49 -4 -89 -17 -170 -55 -76 -36 -124 -52
-163 -55 -31 -3 -74 -14 -95 -25 -22 -11 -68 -22 -104 -24 -51 -4 -85 -15
-155 -50 -66 -33 -106 -47 -151 -50 -33 -3 -78 -15 -100 -26 -21 -10 -66 -22
-100 -25 -35 -3 -81 -15 -110 -29 -27 -14 -74 -28 -105 -31 -31 -3 -72 -13
-90 -23 -25 -14 -66 -20 -154 -24 -93 -5 -129 -11 -160 -27 -23 -11 -68 -22
-105 -25 -42 -3 -82 -14 -110 -29 -37 -19 -66 -25 -160 -29 -88 -5 -124 -11
-155 -27 -23 -11 -68 -22 -105 -25 -36 -3 -81 -14 -100 -24 -26 -14 -65 -20
-155 -24 -92 -5 -128 -11 -155 -25 -26 -15 -64 -21 -150 -25 -87 -5 -124 -11
-150 -26 -32 -17 -62 -19 -310 -24 -272 -5 -275 -5 -325 -31 -31 -16 -73 -28
-111 -32 -51 -4 -91 -19 -230 -88 l-169 -83 -134 -130 c-131 -129 -134 -133
-198 -261 -52 -103 -66 -141 -71 -190 -2 -33 -14 -78 -26 -100 -19 -36 -21
-56 -21 -220 l0 -180 134 -269 c74 -148 147 -284 164 -303 17 -19 55 -47 86
-63 37 -19 90 -63 156 -130 64 -65 120 -112 155 -130 30 -15 73 -47 95 -70 22
-23 71 -60 109 -82 44 -26 102 -76 165 -140 70 -73 113 -108 161 -133 36 -18
83 -52 105 -75 25 -26 79 -62 145 -95 74 -38 120 -68 155 -105 40 -41 83 -68
215 -135 126 -64 176 -94 210 -130 34 -35 83 -66 200 -125 123 -62 165 -89
205 -130 45 -47 87 -70 414 -231 329 -162 369 -185 425 -238 54 -52 97 -77
371 -214 259 -130 317 -163 355 -202 29 -30 81 -65 145 -98 60 -30 122 -72
155 -103 30 -28 78 -64 105 -79 28 -16 75 -52 106 -81 30 -28 77 -63 105 -77
27 -14 72 -49 99 -77 28 -28 75 -64 105 -80 42 -22 129 -102 373 -345 308
-309 317 -319 317 -357 0 -21 -10 -58 -22 -81 -17 -33 -23 -67 -29 -162 -4
-84 -13 -137 -27 -175 -18 -47 -21 -78 -22 -203 0 -132 -2 -152 -22 -190 -17
-33 -23 -66 -28 -157 -4 -86 -10 -124 -25 -150 -14 -27 -20 -63 -25 -155 -4
-90 -10 -129 -24 -155 -10 -19 -21 -64 -24 -100 -3 -37 -14 -82 -25 -105 -17
-32 -22 -63 -25 -150 -3 -96 -7 -116 -30 -160 -23 -43 -27 -66 -32 -170 -4
-90 -10 -129 -24 -155 -10 -19 -21 -64 -24 -100 -2 -36 -14 -83 -24 -104 -11
-22 -23 -67 -25 -100 -3 -34 -15 -79 -25 -100 -11 -22 -23 -67 -25 -100 -3
-34 -15 -79 -26 -101 -16 -31 -22 -67 -27 -160 -4 -99 -9 -128 -29 -164 -13
-26 -25 -70 -28 -105 -3 -34 -15 -79 -26 -101 -11 -22 -22 -69 -25 -105 -2
-36 -14 -83 -24 -104 -11 -22 -23 -67 -25 -100 -3 -34 -15 -79 -26 -101 -11
-22 -22 -69 -25 -105 -2 -36 -14 -83 -24 -104 -11 -22 -23 -67 -25 -100 -3
-34 -15 -79 -25 -100 -11 -22 -22 -67 -25 -100 -3 -38 -14 -79 -30 -110 -17
-32 -27 -71 -31 -115 -2 -36 -14 -84 -24 -105 -11 -22 -23 -67 -25 -100 -3
-34 -15 -79 -25 -100 -11 -22 -23 -67 -25 -100 -3 -34 -15 -79 -26 -101 -16
-31 -22 -67 -27 -160 -4 -89 -10 -129 -24 -154 -10 -19 -21 -62 -23 -95 -4
-36 -16 -82 -31 -111 -15 -31 -27 -74 -30 -115 -2 -36 -13 -82 -24 -104 -11
-21 -23 -68 -28 -105 -5 -36 -18 -91 -29 -121 -15 -41 -20 -79 -21 -148 0 -76
-4 -101 -22 -135 -17 -34 -23 -66 -28 -162 -4 -94 -10 -128 -25 -155 -18 -32
-20 -54 -20 -265 l0 -230 111 -225 c109 -219 113 -227 191 -303 70 -69 98 -87
254 -168 154 -80 182 -92 239 -96 38 -3 82 -15 105 -27 36 -19 56 -21 220 -21
164 0 184 2 220 21 24 13 67 23 105 26 61 5 98 22 599 273 473 236 541 273
590 320 45 43 98 74 266 159 175 87 218 113 260 156 34 35 81 67 145 100 61
31 111 65 140 95 31 32 80 65 160 105 84 43 128 72 165 110 35 37 81 67 155
105 70 36 120 69 150 100 25 26 70 59 100 75 30 16 75 49 100 75 31 32 80 64
154 102 77 39 128 72 170 113 34 32 81 68 106 80 25 12 70 46 101 75 30 29 77
64 105 78 27 14 72 49 99 77 38 39 77 65 160 105 83 40 122 65 160 104 28 29
70 61 95 72 25 11 74 49 110 84 56 55 86 74 220 138 122 59 165 84 200 121 29
30 81 66 145 99 60 32 123 74 160 108 38 36 96 74 160 107 66 33 115 66 145
97 34 36 83 66 205 127 123 61 173 92 215 133 35 34 91 72 155 105 62 32 121
71 156 105 42 40 93 72 206 129 138 69 154 74 184 66 19 -6 53 -10 76 -10 34
0 99 -28 345 -151 264 -131 311 -151 363 -155 49 -5 88 -20 211 -81 126 -62
161 -76 215 -80 58 -5 100 -24 462 -205 280 -140 412 -200 445 -205 37 -5 57
-15 93 -49 49 -44 98 -64 163 -64 29 0 83 -22 210 -85 135 -68 183 -97 226
-140 50 -48 115 -83 729 -390 622 -311 679 -341 735 -394 57 -54 119 -87 909
-481 787 -392 852 -423 915 -430 55 -6 91 -19 202 -76 l135 -69 280 0 c266 0
282 1 320 21 24 13 67 23 105 26 54 4 85 15 180 63 96 48 129 71 198 139 49
47 95 102 109 131 14 28 51 77 83 111 60 63 80 106 80 177 0 25 16 68 48 130
l47 92 0 180 c0 161 -2 184 -20 215 -16 28 -21 61 -25 160 -6 124 -7 126 -52
215 -36 71 -46 104 -50 155 -3 36 -14 81 -24 100 -14 26 -20 65 -24 155 -5 93
-11 129 -27 160 -11 22 -23 67 -26 101 -2 33 -13 76 -23 95 -14 25 -20 65 -24
154 -5 93 -11 129 -27 160 -12 23 -22 68 -25 106 -4 45 -14 83 -31 115 -22 42
-26 64 -29 159 -3 85 -8 118 -23 145 -15 27 -21 63 -25 155 -5 92 -11 128 -25
155 -15 26 -21 64 -25 150 -5 88 -11 124 -27 155 -11 23 -22 68 -25 105 -3 36
-14 81 -24 100 -14 26 -20 65 -24 155 -5 102 -10 128 -32 170 -15 30 -27 74
-31 111 -2 33 -14 78 -25 100 -10 21 -22 68 -24 104 -3 36 -14 83 -25 105 -11
22 -23 67 -26 101 -2 33 -13 76 -23 95 -14 25 -20 65 -25 149 -5 113 -6 116
-56 215 -40 80 -51 113 -55 165 -4 51 -15 85 -50 155 -36 71 -46 104 -50 156
-5 54 -14 82 -51 150 -36 68 -46 96 -50 149 -4 56 -15 86 -79 215 -63 126 -76
160 -81 215 -5 57 -18 89 -105 260 -85 166 -100 204 -105 255 -3 45 -16 84
-49 150 -33 66 -47 106 -50 150 -4 45 -18 85 -50 150 -35 70 -46 104 -50 155
-3 36 -14 83 -25 105 -11 22 -23 69 -25 106 -5 54 -14 82 -56 160 -39 74 -51
107 -55 155 -3 33 -14 79 -26 102 -12 23 -21 57 -21 77 0 20 -5 57 -11 82
l-12 45 274 275 c197 197 288 282 324 300 29 14 96 70 160 133 63 62 131 118
160 133 30 15 90 66 150 127 72 72 115 108 155 126 39 18 87 56 165 133 61 60
129 119 152 130 23 12 71 47 105 80 35 32 86 70 113 84 29 15 89 65 145 122
60 61 115 107 150 125 39 20 100 74 205 180 112 113 165 159 210 182 46 24
103 75 260 233 122 123 219 213 250 230 28 16 124 100 215 188 103 99 184 168
215 184 35 18 127 103 317 291 187 187 282 273 315 290 30 15 98 73 179 154
l131 129 87 178 c75 151 88 186 93 241 3 37 15 82 27 105 20 37 21 55 21 260
l0 220 -113 230 c-108 221 -116 233 -190 308 -72 74 -89 85 -257 169 -150 76
-189 91 -240 96 -33 2 -78 14 -100 25 -31 16 -67 22 -160 27 -101 4 -127 9
-165 29 -38 21 -65 26 -165 31 -91 4 -128 11 -155 25 -29 16 -63 20 -205 25
-145 4 -175 8 -205 25 -31 18 -59 20 -250 25 -191 4 -219 7 -250 25 -33 19
-58 20 -520 25 -462 5 -487 6 -520 25 -32 19 -59 20 -360 25 -300 5 -328 7
-360 25 -30 17 -60 20 -205 25 -157 5 -173 7 -215 30 -43 24 -53 25 -270 30
-200 4 -229 7 -260 25 -30 17 -60 20 -205 25 -145 4 -175 8 -205 25 -30 17
-60 20 -205 25 -145 4 -175 8 -205 25 -30 17 -60 20 -210 25 -150 4 -180 8
-210 25 -30 17 -60 20 -205 25 -157 5 -174 7 -215 30 -41 23 -58 25 -216 30
-202 6 -208 9 -258 109 -28 54 -55 87 -132 157 -89 82 -100 97 -151 198 -39
78 -72 128 -113 170 -32 34 -69 84 -83 111 -14 28 -46 70 -72 95 -31 30 -63
78 -97 145 -33 67 -67 118 -103 155 -46 46 -74 95 -184 315 -111 224 -137 267
-181 310 -46 45 -74 96 -286 520 -209 418 -241 476 -289 525 -45 46 -73 95
-180 309 -110 221 -135 263 -186 316 -48 50 -72 89 -132 215 -62 128 -84 164
-127 205 -37 36 -67 80 -105 155 -38 74 -69 120 -105 155 -39 38 -64 76 -101
155 -38 80 -64 119 -108 165 -33 33 -68 78 -79 100 -11 22 -41 60 -67 85 -26
25 -62 74 -80 110 -26 52 -63 95 -184 212 -112 110 -158 162 -180 205 -22 44
-74 102 -218 244 l-188 186 -170 83 c-156 77 -175 84 -240 86 -128 6 -550 10
-570 6z m550 -2682 c29 -30 63 -75 75 -100 12 -25 48 -72 80 -106 41 -42 74
-93 113 -170 38 -75 70 -123 102 -154 37 -36 67 -86 147 -245 81 -162 110
-210 153 -255 46 -46 74 -95 179 -306 103 -207 137 -265 190 -328 53 -62 89
-123 190 -324 101 -201 133 -255 171 -292 39 -37 70 -91 177 -305 110 -220
139 -269 187 -320 44 -47 73 -93 131 -210 55 -112 87 -164 125 -205 29 -30 66
-80 83 -110 17 -30 54 -77 82 -105 38 -37 64 -77 101 -155 36 -76 64 -120 103
-160 30 -30 65 -78 79 -105 14 -28 50 -74 81 -103 31 -30 68 -76 82 -103 14
-28 49 -76 77 -107 38 -41 73 -98 124 -202 77 -157 116 -205 193 -239 29 -13
81 -57 145 -121 93 -95 109 -106 230 -167 104 -52 141 -66 190 -71 33 -2 78
-14 100 -26 38 -20 58 -21 420 -26 357 -5 382 -6 415 -25 34 -19 58 -20 620
-25 l585 -5 45 -25 45 -25 530 -5 c519 -5 531 -6 587 -28 53 -20 74 -22 252
-22 184 0 197 -1 233 -22 34 -21 55 -23 213 -28 151 -4 180 -8 210 -25 31 -18
59 -20 260 -25 194 -4 230 -8 259 -24 19 -10 61 -21 93 -24 l60 -5 -74 -74
c-41 -42 -97 -87 -128 -103 -40 -21 -109 -83 -255 -230 -145 -146 -217 -211
-262 -236 -34 -19 -112 -83 -175 -143 -62 -59 -129 -116 -148 -126 -19 -9 -84
-66 -145 -125 -74 -72 -130 -118 -170 -138 -45 -23 -96 -67 -205 -177 -101
-102 -162 -155 -200 -175 -40 -21 -110 -84 -260 -235 -144 -145 -220 -214
-255 -232 -36 -18 -137 -111 -365 -338 -228 -226 -329 -320 -365 -338 -30 -16
-89 -65 -150 -127 -75 -76 -115 -108 -160 -129 -43 -20 -82 -51 -138 -109 -74
-77 -83 -91 -188 -306 -91 -186 -111 -237 -116 -284 -3 -34 -15 -77 -31 -107
-33 -63 -37 -160 -8 -215 10 -19 22 -67 27 -106 4 -40 17 -90 27 -111 11 -21
22 -65 24 -98 4 -46 18 -85 55 -160 40 -80 51 -113 55 -165 4 -51 15 -85 50
-155 33 -66 47 -106 50 -150 4 -45 18 -85 50 -150 36 -71 46 -104 50 -157 5
-60 15 -85 103 -255 85 -165 98 -197 105 -259 8 -62 22 -98 108 -270 87 -174
100 -207 105 -264 4 -55 16 -88 80 -215 57 -114 76 -163 80 -205 4 -35 21 -89
50 -150 31 -66 46 -113 49 -155 5 -49 20 -88 75 -200 60 -120 71 -150 75 -207
5 -55 14 -83 55 -160 41 -76 51 -105 55 -158 3 -36 14 -83 25 -105 11 -22 23
-67 26 -101 2 -33 13 -76 23 -95 14 -25 20 -65 24 -154 5 -93 11 -129 27 -160
11 -22 23 -67 26 -101 3 -35 15 -79 28 -105 20 -36 25 -65 29 -164 5 -92 11
-128 25 -155 15 -27 21 -63 25 -155 5 -92 11 -128 26 -155 16 -29 20 -62 24
-205 5 -144 9 -175 25 -205 15 -27 21 -63 26 -150 4 -88 11 -127 28 -167 13
-28 21 -58 19 -66 -2 -11 -470 218 -1733 850 -1652 826 -1733 865 -1795 870
-60 5 -94 20 -412 180 -312 157 -354 175 -410 180 -56 5 -97 23 -363 156 -261
130 -307 150 -360 155 -33 2 -78 14 -100 26 -38 20 -53 21 -375 21 -322 0
-337 -1 -375 -21 -24 -13 -67 -23 -105 -26 -57 -5 -87 -16 -239 -93 -133 -66
-187 -99 -230 -140 -31 -29 -78 -64 -106 -78 -27 -14 -70 -46 -95 -72 -25 -25
-72 -61 -105 -80 -33 -18 -80 -55 -105 -80 -25 -26 -70 -59 -100 -75 -30 -16
-75 -49 -100 -75 -25 -26 -70 -59 -100 -75 -30 -16 -75 -49 -100 -75 -31 -32
-80 -65 -160 -105 -84 -43 -128 -72 -165 -110 -35 -37 -81 -67 -155 -105 -70
-36 -120 -69 -150 -100 -34 -36 -83 -66 -204 -127 -126 -63 -173 -92 -220
-138 -44 -42 -86 -70 -151 -99 -67 -31 -105 -57 -150 -101 -49 -48 -88 -73
-220 -138 -123 -62 -170 -91 -205 -127 -30 -31 -78 -64 -143 -96 -65 -33 -120
-70 -162 -109 -45 -42 -93 -73 -167 -109 -76 -36 -116 -63 -153 -101 -27 -28
-75 -64 -105 -80 -30 -16 -77 -52 -105 -80 -35 -36 -80 -67 -150 -102 -67 -33
-118 -67 -155 -104 -40 -39 -83 -66 -160 -103 -83 -38 -117 -61 -160 -106 -40
-42 -81 -70 -155 -107 -55 -27 -112 -62 -127 -76 l-28 -26 0 48 c0 28 8 63 21
88 11 22 23 66 26 97 3 32 15 77 30 105 17 32 27 71 31 115 3 38 13 83 25 106
16 31 22 67 27 160 4 89 10 129 24 154 10 19 21 62 23 95 3 34 14 78 25 99 10
21 23 71 27 111 5 39 16 87 26 106 9 18 20 61 22 94 4 35 16 82 30 110 14 26
28 78 33 115 5 36 18 91 29 121 15 41 20 79 21 148 0 74 4 101 21 134 12 23
24 69 26 102 3 34 15 79 26 101 11 22 22 69 25 105 2 36 14 83 24 104 11 22
22 67 25 100 3 38 14 79 30 110 17 32 27 71 31 115 3 38 13 83 25 106 16 31
22 67 27 160 4 89 10 129 24 154 10 19 21 62 23 95 3 34 15 79 25 100 11 22
23 67 25 100 3 34 15 79 26 101 16 31 22 67 27 160 4 91 10 128 25 155 14 26
20 64 25 150 4 94 10 123 29 160 15 28 26 68 29 110 3 37 14 82 25 105 16 31
22 67 27 155 4 86 10 124 25 150 14 27 20 63 25 155 4 94 10 128 25 155 18 32
20 54 20 265 0 215 -1 233 -21 270 -13 24 -23 67 -26 105 -3 36 -14 83 -25
105 -11 22 -23 69 -25 105 -7 86 -58 187 -128 255 -28 28 -63 73 -77 100 -33
66 -68 102 -128 132 -29 15 -95 70 -160 133 -64 63 -131 118 -160 133 -36 18
-124 99 -305 279 -198 197 -270 263 -320 291 -42 23 -99 71 -160 132 -59 60
-116 107 -150 125 -36 18 -92 66 -160 135 -65 66 -124 116 -155 132 -27 14
-72 46 -100 72 -27 27 -72 60 -100 76 -27 15 -75 52 -106 80 -36 35 -92 71
-160 105 -69 34 -122 70 -159 104 -33 32 -94 74 -155 105 -58 31 -121 73 -150
101 -29 28 -92 70 -150 101 -61 31 -122 73 -155 105 -42 39 -94 72 -215 132
-126 63 -170 91 -210 131 -38 40 -83 68 -200 127 -113 57 -163 88 -205 129
-42 41 -91 71 -215 133 -118 59 -171 92 -203 125 l-43 44 50 6 c27 3 71 17 98
30 27 14 74 26 109 30 33 2 78 14 100 25 21 10 68 22 104 24 51 4 85 15 155
50 66 33 106 47 151 50 33 3 78 15 100 26 21 10 66 22 100 25 33 2 78 14 100
25 21 10 68 22 104 24 41 3 84 15 115 30 29 15 75 27 111 31 33 2 78 14 100
25 21 10 68 22 104 24 51 4 85 15 155 50 67 33 106 47 151 50 33 3 76 14 95
24 25 14 65 20 154 24 104 5 127 9 170 32 32 17 72 28 111 31 33 3 78 14 100
25 21 10 66 22 100 25 33 2 76 13 95 23 25 14 65 20 154 24 92 5 128 11 155
25 27 15 63 21 155 25 92 5 128 11 155 25 27 15 63 21 155 25 92 5 128 11 155
26 29 16 62 20 205 24 156 5 174 8 215 30 38 21 64 25 160 30 87 5 124 11 150
26 30 16 62 20 210 24 150 5 180 8 210 25 32 18 60 20 305 25 l270 5 125 61
c101 50 136 72 180 119 30 31 80 69 110 85 65 33 99 68 133 135 14 28 49 73
77 100 38 37 68 82 113 170 l61 120 3 110 4 110 75 156 c63 130 76 166 81 220
4 51 15 81 50 148 37 68 46 96 51 150 2 36 14 84 25 106 11 22 22 69 25 105 4
52 15 85 55 165 37 75 51 114 55 160 2 33 14 78 24 99 11 22 23 67 25 100 3
34 15 79 25 100 11 22 23 67 25 100 3 34 15 79 26 101 11 22 22 69 25 105 2
36 14 83 24 104 11 22 23 67 26 100 4 46 17 85 55 161 40 80 51 113 55 165 2
36 14 83 24 104 11 22 23 67 26 100 3 45 17 85 50 151 32 65 46 105 50 150 4
45 17 84 55 160 40 80 51 113 55 165 4 51 15 85 50 155 32 65 46 105 50 150 3
42 18 89 49 155 28 60 47 115 50 150 4 37 22 89 55 159 37 77 51 119 55 165 4
45 17 84 51 151 33 67 45 104 49 150 4 50 17 84 79 207 53 104 77 162 81 199
l6 52 20 -39 c10 -21 43 -64 72 -94z"/>
</g></g></svg>