<svg xmlns="http://www.w3.org/2000/svg" width="1000" height="1000" viewBox="0 0 1000 1000"><g fill="#141413"><path d="M433.5.2a6 6 0 0 0-2.2.5q-.8.5-2 .6t-2 .4q-.4.4-3 .5c-1.9.1-2.6.2-3.2.5q-.9.5-2.1.5a6 6 0 0 0-2.3.7 6 6 0 0 1-2.2.6q-1.2 0-2 .5t-2 .4q-1.2.1-3 1-2 1-2.7 1l-2 .4-2.4.6q-1.4.2-2 .5t-2.2.5c-1.2.2-1.8.4-3.3 1.2s-2 1-3.1 1a6 6 0 0 0-2.1.6l-1.9.5c-.8 0-1.9.4-4.2 1.5a13 13 0 0 1-4.3 1.6c-1 .1-1.9.5-5 2-3.2 1.6-4 2-5 2-1.1.1-3.6 1.3-26.5 12.8-23.4 11.7-25.4 12.7-26.4 13.7a20 20 0 0 1-5.3 3.2 18 18 0 0 0-5.2 3.1q-1 1-3.1 2.1-2.1 1-3 2-1 .9-2.2 1.6a10 10 0 0 0-2.3 1.7q-1 1-1.9 1.4-.9.5-2.1 1.6l-2.1 1.6c-.5.2-1.9 1.4-3.1 2.6a19 19 0 0 1-3.1 2.6c-.5.3-2.7 2.2-5.4 4.8a180 180 0 0 0-44.2 44.8q-.7 1.1-2.5 3a15 15 0 0 0-2.5 3q-.6 1-1.6 2.1a11 11 0 0 0-2.2 3.3q-1.2 2.3-2.1 3.2t-1.4 1.9c-.3.5-1 1.5-1.6 2q-1 1.2-2.6 4.2a17 17 0 0 1-2.6 4.1c-1 1-2 3-13.2 25.4-11.1 22.2-12.2 24.4-12.3 25.5 0 1-.5 2-3 7.2-2.7 5.4-3 6.2-3.1 7.3s-.4 1.7-1 3.1q-1 1.8-1 3c-.1.9-.4 1.7-1.2 3.2q-1 2-1 3.2a9 9 0 0 1-1 3.1q-1 2-1 3.1-.1 1.2-1 3-1 1.7-1.1 3c0 .8-.3 2-.6 2.5l-.4 2q0 .8-.5 1.8-.5 1.1-.6 2.3l-.5 2q-.5.8-.5 2-.2 1.2-.6 2c-.3.6-.4 1.3-.5 3.2q0 2.5-.5 3.1t-.5 3.1-.5 3.1-.5 2.9c0 2-.1 2.3-.6 3.2s-.5 1.3-.6 3.4q-.2 2.4-.6 3.5a8 8 0 0 0-.4 3c0 1.7 0 2.2-.4 2.9s-.5 1.3-.6 3.1q0 2.4-.5 3t-.5 3.1-.5 3.1-.5 3c-.1 2-.2 2.4-.6 3.2s-.5 1.2-.6 4.3c-.1 2.8-.2 3.6-.6 4.5-.3 1-.4 1.5-.4 4 0 2.7 0 3.1-.5 3.9l-.4.8v27.2c0 26.8 0 27.2.4 27.9s.4 1.2.5 6.2.1 5.6.5 6.2c.3.6.4 1.2.5 4.2s.2 3.6.5 4.2.4 1.2.5 4.1.2 3.5.5 4.1.4 1.2.5 3.1.2 2.5.7 3.4q.5 1.1.5 1.9l.4 2c.3.6.5 1.7.6 2.4q.2 1.3.6 2.1t.4 2 1 3c.7 1.4 1 2.1 1 3.1.1 1.1.4 1.8 1.7 4.3 1.2 2.4 1.5 3.2 1.6 4.2 0 1.1.6 2.3 6 13a66 66 0 0 0 6.9 12.8c.9.8 1.3 1.6 3 5 1.7 3.5 2.1 4.3 3.2 5.4 1 1.1 1.5 2 7.6 14.1a67 67 0 0 1 7.5 17c.7 1.4.9 2 1 3 0 1.1.3 1.7 1.5 4.3 1.3 2.6 1.6 3.2 1.6 4.3.1 1.2.3 1.7 1.5 4s1.5 3 1.5 4a12 12 0 0 0 1.6 4.3c1.3 2.4 1.6 3.2 1.7 4.2s.7 2.4 6 13.1c5.6 11.3 6 12 7.1 13.1s1.4 1.7 2.6 4.1c1.1 2.4 1.5 3 2.4 3.9q1 1 1.5 2a188 188 0 0 0 23.4 22.4 32 32 0 0 1 4.2 3.7c1.8 1.7 3.7 3.3 4.2 3.6s2.4 2 4.2 3.7a41 41 0 0 0 6 5.1q1 1 2.2 1.6c1.2.6 3.9 3 3.9 3.5 0 .2-.7 1.8-1.6 3.5-1.4 2.7-1.7 3.5-1.7 4.5-.1 1-.5 2-3.1 7.2-2.8 5.4-3 6.1-3.1 7.3-.1 1.1-.4 1.8-2.2 5.3-1.6 3.4-2 4.2-2 5.2q-.1 1.2-1 3c-.8 1.4-1 2-1 3.1-.1 1-.4 1.7-1.2 3.3s-1 2.3-1 3.2l-.5 2q-.4.8-.6 2 0 1.2-1 3c-.7 1.4-.9 2-1 3.1 0 1-.3 1.7-1 3.3-.8 1.5-1 2.3-1.2 3.2 0 1.1-1 3-10.3 21.6S239 713.4 239 714.5c-.1 1-.5 1.9-2.6 6.2a27 27 0 0 0-2.6 6q0 1-1 2-1.3 1.3-1.3 3.2c0 .5-.5 1.7-2 4.5-1.5 3.3-1.9 4-2 5.1 0 1-.4 1.8-2 5.2s-2 4.2-2.2 5.2c0 1-.6 2.3-5.2 11.4a46 46 0 0 0-5.2 11.5c0 1.2-.7 2.6-13.5 28-12.3 24.8-13.4 27-13.4 28a63 63 0 0 1-6.3 13.5 58 58 0 0 0-6.2 13.5c0 1.2-.3 1.7-2 5.2-1.8 3.4-2 4.1-2.1 5.2s-.4 1.9-2.7 6.3c-2.1 4.3-2.5 5.1-2.5 6.2-.1 1-.5 1.8-2.6 6.2-2.3 4.5-2.6 5-2.6 6.3-.1 1-.3 1.6-1 3-.8 1.3-1 1.9-1 3a6 6 0 0 1-.6 2.1c-.3.7-.4 1.1-.4 3.3s0 2.6.4 3.3q.5.8.5 2.1c.1 1.2.4 1.8 1.8 4.7l1.7 3.4 2.6 2.7c2.6 2.6 2.6 2.7 5.2 4 2 1 2.8 1.3 3.8 1.4q1.2 0 2 .5c.7.4 1.1.4 5.4.4 4.2 0 4.7 0 5.3-.4.5-.3 1.2-.4 3.1-.5s2.6-.2 3.2-.5l2.1-.5c1-.1 1.7-.3 3.1-1q1.8-1 3-1 1.2-.1 2-.6l2.1-.4c1-.1 1.7-.3 3.3-1.1s2.3-1 3.2-1.1 1.8-.4 4-1.5 3-1.5 4.1-1.6c1 0 1.7-.3 3.3-1q2-1 3.2-1.2c1 0 1.8-.4 5-2 3.2-1.5 4-1.9 5-2 1 0 1.8-.4 4.2-1.6a12 12 0 0 1 4.3-1.6c1.2 0 2-.4 7.3-3 5.2-2.7 6.2-3 7.2-3.1s1.8-.5 5.2-2.1c3.5-1.8 4.2-2 5.3-2.1 1.2-.1 1.8-.4 8.2-3.6s7-3.6 8.2-3.7c1.2 0 1.9-.4 6.4-2.6 4.2-2 5.3-2.5 6.2-2.6q1.1 0 3-1c1.3-.6 2-.9 3-1q1.2 0 2-.4c.9-.4 1-.2 1.2 1.5a9 9 0 0 0 1.2 3.3c.8 1.6 1 2.3 1 3.3.1 1.2.3 1.7 1.5 4a10 10 0 0 1 1.5 4 12 12 0 0 0 1.7 4.3c1.2 2.4 1.5 3.2 1.5 4.2q.1 1.2 1 3c.7 1.4 1 2 1 3.1.1 1 .3 1.7 1.1 3.3q1 2 1.1 3.2t1 3c.7 1.4 1 2 1 3.1.1.7.3 1.7.5 2.1q.5.8.5 2c.1 1 .4 1.7 1.1 3.2s1 2.3 1.1 3.2q.2 1.2.6 2c.2.4.4 1.4.4 2.1.1.7.3 1.7.5 2.1q.4.8.6 2 0 1.2.5 2l.5 2q0 1.2.5 2c.2.4.4 1.4.4 2.1.1.7.3 1.7.5 2.1q.5.8.5 2c.1 1 .4 1.7 1.1 3.2s1 2.3 1.1 3.3c.1.7.3 1.7.5 2.1q.4.8.6 2-.1.9 1.6 4.1c1.1 2.5 1.5 3.4 1.5 4.4.1 1 .5 1.8 2.4 5.6s2.4 4.7 3.3 5.6 1.4 1.8 2.5 4l1.4 2.9 2.9 2.9c1.5 1.5 3 3 3.3 3.1.5.3 2.6.3 13 .3 8.7 0 12.6 0 12.9-.2l3.3-3 2.8-2.9 3-6.1c2.7-5.5 3.1-6.2 4.2-7.3a9 9 0 0 0 2.6-5c0-1.2.4-2 4.1-9.6 3.7-7.2 4.2-8.3 4.2-9.4.1-1 .6-2 3.2-7.2s3-6.1 3-7.2c.1-1 .5-2 3.1-7.2 2.7-5.4 3-6.1 3.1-7.3.1-1.1.4-1.8 2.1-5.2s2-4 2.1-5.2c.1-1.1.4-1.7 1.6-4.1 1.1-2.4 1.4-3 1.5-4.1 0-1.2.3-1.7 2-5.2 1.8-3.4 2-4.1 2.1-5.2.1-1 .4-1.8 1.6-4.1 1-2.2 1.4-3 1.5-4 0-1 .4-1.8 1.6-4.2a12 12 0 0 0 1.5-4.4c.1-1 .4-1.7 1.7-4.2a12 12 0 0 0 1.6-4.2q0-1.2 1-3c.7-1.4.9-2 1-3.1 0-1 .3-1.7 1-3.1s.9-2 1-3.1c0-.7.2-1.7.4-2l.6-2c0-1 .3-1.8 1-3.3q1-2 1.2-3.2 0-1.2.5-2l.5-2.1c0-.7.2-1.7.5-2.1l.5-2.1q0-1.2.4-2 .5-1 .5-2 .1-1.1 1.1-3.1t1.2-3.4.6-2.5l.4-1.9q0-.7 1-2.5.9-2 1-3.1t.5-2.2a6 6 0 0 0 .6-2.2q.1-1.2 1-3.1t1-3.1 1-3c.8-1.4 1-2 1-3.1.1-1.1.4-1.7 1.6-4.3a12 12 0 0 0 1.7-4.4 10 10 0 0 1 1.5-4c1.2-2.2 1.4-2.7 1.4-3.9.1-1.2.3-1.7 2.1-5.2 1.8-3.4 2-4 2.1-5.1s.4-1.8 2.1-5.3c1.7-3.3 2-4.3 2.1-5.3s.5-1.9 2.1-5.2c1.8-3.5 2-4.2 2.1-5.3s.4-1.8 1.6-4.1c1-2.2 1.4-3 1.5-4q0-1.2 1-3.2t1.2-3.2a9 9 0 0 1 1-3.1q.9-2 1-3.1t.4-2q.5-.8.6-2t1-3q.9-2 1-3.2t1-3.2 1.2-3.2q0-1.2.4-2t.6-2q0-1.1 1-3a10 10 0 0 0 1-3c0-1.2.5-2.7.8-2.7l5.3 10.4a69 69 0 0 0 6.9 12.6q0 1.6 1.5 3.2c1 1 1.7 2.4 7.3 13.5a68 68 0 0 0 7.3 13.5c.9.9 1.4 1.8 3.1 5.2 1.6 3.3 2.2 4.3 3.1 5.2s1.5 2 3.7 6.3c1.5 3 2.9 5.5 3.3 5.9q.7.7.8 1.7c.1.7 1.4 3.6 4.7 10 4 8.3 4.6 9.3 4.6 10.4q.1 1.2 1 3.2l1 3q.2 1 1 2.9a9 9 0 0 1 1 3.1c.1 1 .4 1.7 1.1 3.2s1 2.3 1.1 3.3c.1.7.3 1.7.5 2.1l.6 1.9q0 1.1 1 3a9 9 0 0 1 1 3.1q.1 1.2.5 2.2t.7 2.2q0 1.2 1 3.1a9 9 0 0 1 1 3.1q0 1.2.5 2l.5 2q0 1.2.5 2c.2.4.4 1.4.4 2.1q.1 1.4.7 2.3.4 1 .6 2.2c0 1 .3 1.7 1 3q.9 1.8 1 3t.5 2l.5 2q0 1.2 1 3.1a9 9 0 0 1 1 3.1q.1 1.2.5 2.2t.7 2.2q0 1.2 1 3.2t1 3 1.6 4.1c1.1 2.5 1.5 3.4 1.6 4.4 0 1 .5 2.2 5 11 4.5 9 5 10 5.1 11.2a45 45 0 0 0 5.3 11.6 52 52 0 0 1 6.2 14.7q1 2 1.2 3.2 0 1.2 1 3.2t1 3 .5 1.9c.3.6.4 1.2.4 2.7a8 8 0 0 0 .4 3.1c.4 1 .5 1.7.6 5.5l.1 4.4 2.3 4.5c2.4 4.9 3 5.7 4.8 6.6q1 .6 2 1.5c1.2 1.3 5.3 3.3 7 3.4l2.1.7c1 .5 1.2.5 3.4.5 2 0 2.5 0 3.2-.4q.8-.5 2-.5c1-.1 1.9-.5 4.6-1.8l3.4-1.6 2.9-2.9 2.8-2.8 2.1-4.1c1.7-3.4 2.2-4.3 3.1-5.1.9-.9 1.3-1.6 3-5.1 1.8-3.6 2.2-4.3 3.2-5.3 1-1.1 1.5-1.9 5.8-10.5 4.1-8.3 4.7-9.4 5.7-10.4s1.5-1.9 3.6-6.2c2.2-4.3 2.7-5.3 3.7-6.3s1.5-1.9 3-5.1c1.7-3.2 2.2-4.1 3.1-5s1.4-1.8 3.1-5.2c1.6-3.3 2.3-4.3 3.1-5.2s1.5-2 3.1-5.2a19 19 0 0 1 3.2-5.3c1-1 1.5-1.9 2.6-4.1a13 13 0 0 1 2.6-4.1 10 10 0 0 0 2.1-3.2q1-2 2-3 1-1.2 2-3.1t2.3-3.3l1.4-1.6.2-.5q0-.3 2 .7t3.1 1q1.2.1 3 1c1.4.7 2.1 1 3.1 1 1 .1 1.7.4 3.3 1.2q2 1 3.2 1 1.2.1 3 1 1.7 1 3 1.1l2.5.6 2 .4 1.6.4q1 .5 2 .5 1.3.2 2.3.7c.8.4 1.4.5 3.4.6q2.5 0 3.1.5l2 .5 2.1.5c.6.3 1.3.4 3.1.5q2.4 0 3 .5t3.1.5c1.9 0 2.6.2 3.1.5s1.2.4 4.1.5c3.1.1 3.5.1 4.3.6s1.3.5 3.3.6q2.5 0 3.1.5c.6.3 1.3.4 4.1.5s3.6.2 4.5.6q1 .4 3 .4c1.4 0 1.9 0 2.5.4q.8.4 2 .6 1.4 0 2.2.5l2.1.5c1 0 1.7.3 3.3 1q2 1 3.2 1.2c1 0 2 .5 7.9 3.4 6.8 3.4 7.8 3.8 9 3.8l1.5.4c.7.5 1 .5 4.4.5 3.3 0 3.7 0 4.4-.4q.8-.5 2-.5c1-.1 1.9-.5 4.6-1.8 3.2-1.5 3.5-1.7 5-3.3 1.6-1.5 1.8-1.8 3.5-5.2 1.6-3 1.9-3.8 2-4.8q0-1.2.5-2c.4-.7.4-1.2.5-5 0-4 0-4.3-.4-5.4q-.5-1.2-.6-2.5t-.6-2.1-.4-2.1l-.5-2.1q-.5-.8-.5-2-.1-1.2-1-3c-.7-1.4-1-2-1-3.1l-.5-2.1q-.4-.8-.6-2t-.5-2.2-.7-2.2q0-1.2-1-3.1a9 9 0 0 1-1-3.1 12 12 0 0 0-1.5-4.2c-1.3-2.4-1.6-3.2-1.6-4.2q-.1-1.2-.6-2l-.4-2.1c-.1-1.2-.3-1.7-1.5-4a10 10 0 0 1-1.5-4c-.2-1.3-.6-2.2-7.6-16.2a98 98 0 0 0-8.5-16c-.8-.9-1.5-2-3.4-5.6-2-4-2.3-4.6-2.4-5.8 0-1.2-.3-1.9-4.6-10.5s-4.7-9.3-4.8-10.5-.3-1.7-2-5.2c-1.8-3.5-2-4-2.2-5.2 0-1.2-.3-1.8-2.5-6.3-2.2-4.3-2.6-5.2-2.6-6.2-.1-1-.6-2-3.6-8.2-3.1-6.2-3.6-7.1-3.6-8.2-.1-1-.5-1.9-2.4-5.7a23 23 0 0 0-3.3-5.6c-1-1-2.3-3.6-15.5-30-13.5-27-14.5-29-15.5-30s-1.5-1.9-3.6-6.1a30 30 0 0 0-3.8-6.5c-.7-.9-1.7-2.4-2.3-3.5a12 12 0 0 0-1.9-2.9c-.7-.7-1.3-1.7-2.4-3.9a15 15 0 0 0-2.6-4.1c-.9-.9-1.5-2-3.7-6.3a28 28 0 0 0-3.7-6.3c-1.3-1.4-1.6-1.8-1.3-2.4 0-.3 2-2.3 4.2-4.5 3-3 4.2-4.3 4.6-5.1.5-1 1.6-2.1 4.8-5.3s4.4-4.5 4.8-5.3 1.9-2.4 5.7-6.3q5.3-5.3 5.6-6.2c.4-.7 2-2.6 5.8-6.3q5.3-5.3 5.7-6.2c.2-.5 1.4-1.9 2.6-3.1s2.4-2.6 2.7-3.2q.6-1 2.5-3 2-2 2.5-3t1.6-2.1l1.5-2 1.6-2.2q1.1-1.3 2.6-4.2 1.4-3 2.6-4.1c.9-1 1.5-2 2.6-4.2s1.7-3.3 2.6-4.2 1.6-2.1 5.4-9.7c4-7.9 4.3-8.6 4.4-9.8 0-1.2.3-1.7 2-5.2 1.8-3.5 2-4 2.2-5.2 0-1.1.3-1.7 1.6-4.3 1.2-2.4 1.5-3.2 1.6-4.2q0-1.2.5-2l.5-2.1c0-1 .3-1.7 1-3.1q.9-1.8 1-3t.4-2q.5-.8.5-2l.6-2.2q.5-.9.7-2.4.1-1.4.5-2l.5-2 .6-2.5.4-2 .4-1.6q.5-1 .5-2l.5-2q.4-1 .6-2.3l.5-2.1q.4-.6.5-3c0-1.9.2-2.5.6-3.2q.4-1 .6-2.2 0-1.2.5-2.1c.3-.6.4-1.3.5-3.1q0-2.4.5-3 .3-.7.4-1.9t.6-2c.3-.6.4-1.3.5-3.2q0-2.6.5-3 .3-.9.4-2t.7-2.2c.4-.8.5-1.4.6-3.4q0-2.5.5-3.1t.5-3.1.5-3.1q.4-.6.5-3t.5-3 .5-3.1c0-1.9.2-2.6.5-3.1s.4-1.2.5-4.1c.1-3.1.1-3.5.6-4.3s.5-1.2.6-4.3c.1-2.8.2-3.5.5-4.2.4-.7.4-1.4.5-6.2s.2-5.5.6-6.6l.4-1.1v-18.6c-.1-18-.1-18.5-.5-19.2s-.4-1.2-.5-5.2-.1-4.6-.5-5.2c-.3-.6-.4-1.2-.5-4.1-.1-3-.2-3.5-.5-4.2q-.5-.8-.5-2.1l-.5-2q-.4-.6-.5-3.1c-.1-2-.2-2.6-.6-3.4q-.5-1-.7-2.2 0-1.2-.5-2l-.4-2.1c-.1-1-.3-1.7-1-3.1q-1-1.8-1-3-.1-1.2-.6-2l-.5-2q-.1-1.2-.5-2.2t-.7-2.2q0-1.2-.5-2l-.4-2.1-.5-2.1c-.3-.4-.5-1.4-.5-2.1l-.5-2.1q-.4-.8-.6-2c0-.5-.2-1.4-.4-1.7q-.4-.6-.5-3.2c-.1-2-.2-2.7-.5-3.3q-.4-.8-.6-2t-.5-2.1c-.4-.7-.5-1.3-.6-3.3q-.1-2.5-.5-3.1c-.3-.6-.4-1.2-.5-4.1-.1-3-.2-3.5-.5-4.2q-.4-.8-.6-2 0-1.2-.5-2l-.4-2.1-.5-2.1q-.5-.8-.6-2t-.5-2.2-.6-2.2c-.1-1-.5-1.9-2.5-5.9-2.1-4.2-2.4-4.9-2.5-6.1-.2-1.3-.4-2-2.5-6a25 25 0 0 0-3.4-5.7c-.9-1-1.6-2.2-4.6-8.2a34 34 0 0 0-4.6-8.2c-1-1-1.6-2-5.7-10.4a43 43 0 0 0-5.8-10.5 31 31 0 0 1-4.6-8.2c-3.1-6.2-3.6-7.1-4.6-8.2s-1.6-2-4.8-8.5a37 37 0 0 0-4.7-8.4 21 21 0 0 1-3.2-5.3 18 18 0 0 0-3.1-5.2q-1-1-2-3t-2.1-3l-1.6-2.2q-.6-1-2.5-3a15 15 0 0 1-2.6-3.1c-.6-1.2-1.8-2.5-2.6-2.7q-.4-.1-.7-.8l-6-6.4a43 43 0 0 0-6.7-6.3q-1.1-.6-3.1-2.6a16 16 0 0 0-3-2.5q-1-.5-2.2-1.7t-2.3-1.7-2.1-1.5l-1.9-1.5-1.9-1.5q-1-1-2.2-1.6t-2.3-1.7a13 13 0 0 0-3-2q-1.9-1-3-2a16 16 0 0 0-4.2-2.6 16 16 0 0 1-4.2-2.6c-1-1-3.3-2.2-31.1-16-28.1-14.1-30-15.1-31-16.1-.9-.9-1.8-1.4-6.6-3.8-5-2.6-5.7-2.9-6.9-3-1.2 0-1.9-.3-7.3-3a25 25 0 0 0-7.2-3.2c-1 0-1.8-.3-4.2-1.6a12 12 0 0 0-4.2-1.6q-1.2 0-2-.5l-2.1-.5c-1 0-1.6-.2-3.2-1a7 7 0 0 0-3.2-1.2c-.7 0-1.7-.2-2.1-.5l-2.1-.5-2.1-.5c-.6-.3-1.3-.4-3.1-.5q-2.4 0-3-.5t-1.9-.4q-1.2-.1-2-.6c-.7-.3-1.3-.4-4.8-.5-5.3-.2-119.4-.2-121.2 0M504 38.6l.8.5 24.2.1 24.2.1 1.1.5a8 8 0 0 0 3 .4c1.6 0 2.2 0 2.8.4q1 .5 2 .5 1.4.1 2.1.6l2 .5c1.3 0 2 .4 11 5A51 51 0 0 1 588 53c.9.9 1.8 1.4 5.2 3.1s4.3 2.2 5.2 3.1c1 1 2.9 2 27 14 24.8 12.4 26 13 27.1 14.1 1 1 1.8 1.5 5.2 3.1 3.3 1.7 4.2 2.2 5.2 3.1q1.2 1.2 3.1 2.1t3 2a14 14 0 0 0 3.1 2c1.1.7 2.4 1.5 3 2.1l2 1.5c.6.3 2.5 2 4.4 3.8l4.2 3.6a93 93 0 0 1 12.6 12.7q.6 1.1 2.6 3.1 2.1 2 2.7 3.2t1.6 2.2c.6.5 1.3 1.5 1.6 2.1q.6 1 1.6 2.1 1 1 1.5 2c.3.5 1 1.5 1.6 2.1a15 15 0 0 1 2.5 4.2c1.3 2.6 1.7 3.3 2.7 4.2s1.4 1.6 2.5 4a13 13 0 0 0 2.5 4c.9 1 1.5 1.9 3.7 6.3s2.7 5.3 3.6 6.2a27 27 0 0 1 4.1 7.2c2.7 5.5 3.2 6.3 4.1 7.2s1.4 1.8 4.1 7.2a29 29 0 0 0 4.2 7.3c1 1 1.5 1.9 3.8 6.5s2.8 5.5 3.7 6.4a35 35 0 0 1 4.8 8.5c3.5 7 3.7 7.6 3.8 8.8q.1 1.4.7 2.3.4 1 .6 2.2c0 1 .3 1.7 1 3q.9 1.8 1 3t.5 2l.4 1.7.4 2 .6 2.4q.2 1.4.5 2 .3.8.5 2.1.2 1.5.7 2.4l.6 2.2q0 1.2.5 2l.5 2q0 1.2.5 2l.5 2q0 1.2.4 1.9.3.8.5 2.1t.6 2.2l.5 2q0 1.2.6 2.2t.5 2.3q.2 1.3.6 2.1t.4 1.7l.4 2q.5 1.1.6 2.5c.1 1 .4 1.7 1 3 .8 1.3 1 1.9 1 2.9q.1 1.3.6 2.3t.7 2.2q0 1.2.5 2c.2.4.4 1.4.4 2.1.1.7.3 1.7.5 2.1q.4.8.6 2 0 1.2.5 2l.5 2q0 1.2.5 2c.2.4.4 1.4.4 2.1l.5 2q.4.6.5 3.1c.1 2 .2 2.5.6 3.3s.5 1.3.6 3.2c.1 1.8.2 2.5.6 3.1.4.9.4 1 .4 9.1s0 8.2-.4 9-.5 1.2-.6 5.4c0 4-.1 4.6-.5 5.2q-.4.6-.5 3.1t-.5 3.1-.5 3.1q0 2.5-.5 3.1t-.5 3.1c0 2-.2 2.6-.6 3.3q-.4 1-.5 2-.1 1.4-.6 2.1c-.3.7-.4 1.3-.5 4.2 0 2.8-.2 3.5-.5 4q-.4.9-.4 2-.1 1.2-.6 2c-.3.6-.4 1.3-.5 3.3s-.2 2.7-.5 3.2q-.4.6-.5 3c0 1.9-.2 2.5-.6 3.2s-.5 1.3-.6 3.3q0 2.5-.5 3.1t-.5 3.1-.5 3.1q-.4.6-.5 3t-.5 3-.5 3.1q0 2.6-.5 3-.4.9-.4 2-.2 1.2-.7 2.2c-.4.9-.5 1.3-.5 3.2-.1 2.1-.1 2.3-1 4.2s-1 2-1.1 4.3q0 2.4-.5 3t-.4 1.9q-.1 1.2-.6 2l-.5 2.1c0 1-.3 1.7-1 3.3q-1 2-1.2 3.2 0 1.2-.4 2t-.5 1.9a16 16 0 0 1-1.5 4 12 12 0 0 0-1.5 4.2c-.1 1.1-.4 1.9-2.2 5.3-1.6 3.3-2 4.2-2 5.2a36 36 0 0 1-4 8.8c-3.4 7-3.8 7.7-4.9 8.8-1 1-1.4 1.7-2.6 4.2a13 13 0 0 1-2.6 4.2q-1.1 1.3-2.3 3.4-1 2.2-2 3.1-.9 1-1.5 2t-1.5 2-1.5 2q-.6 1.1-2.6 3.1a97 97 0 0 1-12.4 13.4 95 95 0 0 0-9.8 10.3c-.4.9-2.2 2.7-7.8 8.3a63 63 0 0 0-7.8 8.3c-.8 1.5-7.3 8-8.7 8.8q-1 .4-5.3 4.7-4.4 4.3-5.3 4.8-1 .5-2.9 2.4a15 15 0 0 1-3 2.5q-1 .6-2.1 1.6-1 1-2.1 1.5-1 .5-2.3 1.7l-2.2 1.7q-1 .5-1.9 1.4a11 11 0 0 1-2.9 2q-2 .9-3.2 2.1c-1.1 1-2.2 1.6-14 7.5-12 6-12.9 6.4-14.1 6.5s-1.8.4-5.3 2.1c-3.4 1.7-4.2 2-5.2 2.1s-1.8.4-4 1.5-3 1.5-4.1 1.6c-1.1 0-1.8.3-4.3 1.6a13 13 0 0 1-4.2 1.6c-1 0-1.7.3-3 1q-1.8.9-3 1t-2 .5l-2.2.4c-1.2.1-1.7.3-3.2 1.1l-1.8 1-2.4.1c-1.9.1-2.6.2-3.2.5l-2.1.5-2 .5q-.6.4-3 .5t-3 .5-3.1.5-3.1.5c-.6.4-1.2.4-5.2.5-4.3.1-4.5.1-5.4.6s-1 .5-6.3.6c-5 .1-5.5.1-6.1.5s-1.2.4-5.2.5c-4.2.1-4.6.1-5.3.6s-1.2.4-3.7.4-3 0-4 .4-1.7.5-4.5.6-3.5.2-4.1.5-1.2.4-4.1.5c-3.1.1-3.5.2-4.3.6-.9.5-1.1.5-5.4.6-4.2.1-4.6.1-5.3.6l-.9.4h-24.6l-.9-.4c-.7-.5-1.1-.5-5.3-.6-4 0-4.6-.1-5.2-.5-.6-.3-1.2-.4-4.1-.5s-3.6-.2-4.5-.6l-2-.4q-.8 0-1.9-.5c-.9-.5-1.3-.6-3.4-.7q-2.5 0-3.1-.5t-3.1-.5-3-.5q-.8-.4-2-.4l-2-.5q-.8-.5-2-.5-1.2-.1-2-.6c-.6-.3-1.3-.4-3.1-.5q-2.4 0-3-.5t-1.9-.4q-1.2-.2-2.2-.7t-2.3-.6a5 5 0 0 1-2-.4q-1-.5-2-.6-1.3 0-3.1-1t-3-1c-1 0-1.9-.4-6.2-2.5-4.5-2.3-5.1-2.6-6.3-2.6-1.2-.2-2-.5-9.9-4.5a45 45 0 0 1-9.7-5.3c-1-1-2-1.5-7.3-4.2a31 31 0 0 1-7.3-4.2q-1-1-3.2-2.1-2-1-3.3-2.2c-1-1-1.9-1.5-4.1-2.6-2.3-1-3.1-1.6-3.9-2.4q-.9-1-3.3-2.2t-3.2-2.1c-.7-.7-1.7-1.3-4-2.5a14 14 0 0 1-4.1-2.6c-.8-.9-1.5-1.3-4.1-2.5a14 14 0 0 1-4.3-2.7q-1.2-1.2-3.1-2.1t-3-2-3.2-2.1-3.2-2.1-3.1-2q-2-1.1-3-2.1l-2-1.5c-.5-.3-1.5-1-2.1-1.6s-1.6-1.3-2.1-1.6q-1-.6-3-2.5a14 14 0 0 0-3.2-2.6c-.9-.5-2.6-2.1-8.9-8.4a59 59 0 0 1-11.2-12.8c-.4-.6-1.1-1.6-1.7-2.2q-1-1.1-2.5-4a15 15 0 0 0-2.6-4.1 17 17 0 0 1-3.6-7.5c-.1-1.1-.4-1.7-1.6-4s-1.4-2.9-1.5-4c0-1-.2-1.7-1-3.3q-1-2-1.1-3.2t-1-3-1-3-.6-2l-.4-2.1q-.2-1.3-.6-2.3-.5-1-.7-2.2 0-1.2-1-3.1t-1-3.1-.5-2q-.3-.8-.4-2c-.1-1-.4-1.7-1.1-3.2q-1-2-1.2-3.2c0-1-.4-1.8-1.4-4.1a13 13 0 0 1-1.6-4.1c0-1-.8-2.5-5.5-12a55 55 0 0 0-6.4-11.8c-.9-.9-1.4-1.8-4.1-7.2a28 28 0 0 0-4.3-7.4 15 15 0 0 1-2.8-4.7 14 14 0 0 1-1.8-4.7c-.1-1-.5-1.9-2-5-1.7-3.3-2-4-2-5.1-.1-1-.3-1.7-1.1-3.3q-1-2-1.1-3.2t-.6-2l-.5-2q0-1.1-.4-2-.4-.4-.5-3c-.1-2-.2-2.6-.6-3.2l-.4-1.7-.4-2c-.4-.9-.5-1.7-.6-4.5-.1-3.1-.2-3.5-.6-4.3-.5-.8-.5-1.2-.6-4.3s-.2-3.5-.6-4.2l-.4-.9v-16.4c0-16.5 0-16.5.4-17.4s.5-1.4.6-4.3.2-3.5.5-4.1.4-1.2.5-4.2.2-3.6.5-4.2.4-1.2.5-4.1c.1-3.1.1-3.5.6-4.3s.5-1.3.6-3.2q0-2.4.5-3t.5-3.1q.2-2.4.6-3.5c.3-1 .4-1.6.4-4 0-2.5 0-2.9.4-3.7.4-.6.5-1.3.6-3.2s.2-2.6.5-3.1c.4-.6.4-1.2.5-5.2s.1-4.6.5-5.2q.4-.5.5-2.9c0-2 .1-2.3.6-3.2s.5-1.3.6-3.4q.2-2.4.6-3.5.4-1 .4-3-.1-1.9.4-2.6.5-1 .5-2 .2-1.4.6-2.1c.3-.6.4-1.3.5-3.2q0-2.6.5-3 .3-.8.4-2t.7-2.2.5-2.2c.1-1 .4-1.8 1.5-4.1s1.5-3.2 1.5-4.1q.1-1.2 1-3t1-3c.1-1 .4-1.7 1.6-4.2s1.5-3.1 1.7-4.4.6-2.3 10.1-21.3a155 155 0 0 1 13.7-25.3 19 19 0 0 1 2.7-4.3l1.6-2.1q.5-1 1.4-1.9 1-.9 2-3.1c1-2 1.4-2.4 3.3-4.4a19 19 0 0 0 2.7-3.2q.5-1 3.5-4t3.5-4c.4-.7 2.3-2.8 7.2-7.7 5.3-5.3 6.8-6.7 7.7-7.2s2.2-1.6 5.3-4.7c3-3 4.4-4.2 5.1-4.6q1-.6 3.2-2.6 2-2.1 3.2-2.7 1.1-.6 3.1-2.6t2.9-2.4q1-.5 3.2-2.7c1.3-1.3 2.7-2.5 3.2-2.7s1.8-1.4 3-2.5c1.8-1.8 2.4-2.2 4.2-3.1a13 13 0 0 0 4.3-3.2c1.9-1.9 2.5-2.3 4.2-3.2q2-1 3-2t2-1.5 2.1-1.6 3.2-2a9 9 0 0 0 3.1-2.1c.8-.8 1.6-1.3 4-2.5a16 16 0 0 0 4.1-2.6c1-1 2.2-1.6 11.9-6.5a54 54 0 0 1 12-5.4c1-.1 1.8-.4 4.2-1.6 2.6-1.3 3.2-1.6 4.3-1.6 1-.1 1.7-.3 3.1-1q1.8-1 3-1 1.2-.1 3-1t3-1q1.2-.2 2.2-.7t2.3-.5 2.1-.6 1.7-.4l2-.4 2.4-.6q1.4-.1 2.1-.6l2-.5q1.1 0 2-.4.4-.4 3-.5c2-.1 2.5-.2 3.4-.6q1-.6 2.2-.7t2-.4q.4-.4 3-.5 2.5-.1 3.1-.5t3.1-.5c2-.1 2.6-.2 3.2-.6l1.6-.4 1.9-.4c.9-.4 1.7-.5 4.5-.6 2.9 0 3.5-.2 4.1-.5s1.2-.4 3.1-.5 2.5-.2 3.3-.6c.8-.5 1.2-.5 4.7-.6 3.4-.1 3.9-.1 4.6-.5l.8-.5H503zm-183.1 593a8 8 0 0 0 2.9 1c1 0 1.8.4 4.7 1.8 2.8 1.4 3.7 2 4.5 2.8 1 1 2.2 1.6 16.6 8.8 14 7 15.7 8 16.7 8.9q1.5 1.5 3.1 1.5.5.1 1.2.8a9 9 0 0 0 5 2.3c1 .1 1.9.5 7.2 3.1 5.4 2.8 6.1 3 7.3 3.1 1 .1 1.7.4 3.1 1q1.8 1 3 1l2 .5q.8.4 2.2.6t2.1.5l1.9.4 2.2.6q1 .5 2.3.7l2.4.6q1 .4 3 .4c1.5 0 2 0 2.7.4.6.4 1.3.5 3.2.6q2.5 0 3.1.5t3.1.5 3.1.5q.6.4 3 .5c1.9 0 2.5.2 3.2.6s1.3.5 3.3.6 2.6.2 3.1.5 1.2.4 4.1.5 3.5.2 4.1.5 1.2.4 2.9.5q3.3 0 3.3.7l-1.3 2.7c-1.2 2.1-1.4 2.7-1.5 3.8 0 1.1-.3 1.7-1.6 4.3-1.2 2.6-1.5 3.2-1.6 4.3l-.5 2.1c-.3.6-.4 1.3-.5 3.1q0 2.4-.5 3t-.4 1.9q-.2 1.2-.6 2l-.5 2.1a5 5 0 0 1-.4 2q-.5 1-.5 2-.2 1.3-.7 2.3c-.4.8-.5 1.4-.6 3.4q0 2.5-.5 3-.3.8-.4 2t-.6 2l-.5 2.1a5 5 0 0 1-.4 2q-.5 1-.6 2c0 1-.3 1.8-1 3.3q-1 2-1.2 3.3l-.6 2.4-.4 2q0 .8-1 2.6-.9 2-1 3.1t-1 3.2q-1 2-1.2 3.2a9 9 0 0 1-1 3.1q-.9 2-1 3.1c0 1-.4 1.9-2 5.2s-2 4.2-2.2 5.2c0 1-.3 1.7-1.5 4s-1.4 3-1.4 4c-.1 1-.4 1.8-2.1 5.3-1.7 3.4-2 4.2-2.1 5.3q-.1 1.2-1 3t-1 3c-.1 1-.5 1.8-1.6 4.3a15 15 0 0 0-1.6 4q-.1 1.2-1 3-1 2.1-1 3.3l-.6 2-.5 2.1q0 1.3-.5 2.3t-.6 2.2a7 7 0 0 1-1 2.9c-.8 1.3-1 1.9-1 3-.1 1-.3 1.7-1 3.1-.8 1.4-1 2-1 3.1q-.2 1.3-.6 2.3-.5 1-.7 2.2 0 1.2-1 3t-1 3-.5 2l-.5 2.1c0 1-.3 1.7-1 3.3q-1 2-1.2 3.2 0 1.2-1 3t-1 3-1 3c-.7 1.4-.9 2-1 3.1 0 1-.3 1.7-1 3.3q-1 2-1.2 3.2c0 1-.4 1.8-2 5-1.6 3.4-1.9 4-2 5.1 0 1.2-.3 1.7-2 5.2-1.8 3.5-2 4-2.1 5.2-.1 1.1-.4 1.8-1.7 4.3s-1.5 3.2-1.5 4.2c-.1 1-.4 1.8-2 5s-2 4-2 5.1c-.2 1.2-.6 2.2-6.8 14.7a86 86 0 0 0-6.8 14.5q0 1-.3 1.6c-.2.6-.3.5-1.2-1.4q-1-2-1-3.1-.1-1.2-.6-2l-.4-2.1c-.1-1-.3-1.7-1.2-3.3q-1-2.1-1-2.9l-.4-2-.6-2.4q-.2-1.4-.6-2.1l-.5-2q0-1.2-.5-2l-.5-2q-.1-1.2-.5-2.2l-.7-2.2q0-1.2-1-3.2a10 10 0 0 1-1-3.1q0-1-.5-2l-.5-1.9q0-1.2-1-3.1a9 9 0 0 1-1-3.1c0-1-.3-1.7-1-3.2a8 8 0 0 1-1.1-3.2q-.2-1.2-.6-2l-.5-2q0-1.2-1-3.1a9 9 0 0 1-1-3.1c0-1-.3-1.7-1-3.2q-1-2-1.2-3.2c0-1-.5-2-3.4-8l-3.3-6.7-3.9-3.6c-3.6-3.6-3.9-3.8-6-4.9a9 9 0 0 0-3.7-1.3 7 7 0 0 1-3.1-1l-1.8-.9h-4.6c-4.2 0-4.7 0-5.3.4-.5.3-1.2.4-3.1.5s-2.6.2-3.2.6l-1.7.4-2 .4-2.4.6q-1.4.1-3.1 1t-3 1c-1 .1-1.7.4-3.2 1.1s-2.3 1-3.3 1.2c-1.2 0-1.8.3-6.3 2.6a22 22 0 0 1-6.2 2.6c-1 0-2 .5-8.2 3.5-6.4 3.3-7.1 3.6-8.3 3.6-1.2.1-1.8.4-7.2 3.1-5.3 2.7-6 3-7.2 3.2-1 0-1.8.3-4.4 1.6a14 14 0 0 1-4.2 1.6c-.9 0-1.8.4-4 1.5s-3 1.4-4 1.5c-1 0-1.7.3-3.3 1q-2 1-3.2 1.2-1.2 0-2 .5l-2 .5q-1.2 0-2 .5c-.7.3-3.3.7-3.3.5l.4-1q.5-.8.5-2c.1-1 .4-1.8 2.2-5.2 1.7-3.5 2-4.1 2-5.3.2-1.2.6-2.2 8.8-18.6 8.1-16.1 8.7-17.5 8.8-18.6s.6-2.3 5.8-12.5a61 61 0 0 0 5.7-12.4c0-1 .4-2 2.5-6.2s2.5-5.3 2.6-6.2.6-2.1 2.6-6.3c2.2-4.3 2.6-5.3 2.6-6.3.1-1 .5-1.9 2.2-5.2 1.6-3.4 2-4.2 2-5.2.1-1 .5-1.9 2.1-5.3 1.6-3.1 2-4.4 2.1-5.2q.2-1.1 1.5-4c1.1-2.3 1.5-3.2 1.5-4.1.1-1 .5-2 2.6-6.2 2.2-4.3 2.6-5.2 2.6-6.2.1-1 .6-2.1 4.2-9.5a36 36 0 0 0 4.2-9.5c.1-1.1.9-2.7 9.4-19.6s9.2-18.5 9.2-19.6c.1-1 .5-1.8 2.1-5.2 1.8-3.5 2-4.2 2.1-5.3s.4-1.8 1.6-4.1c1-2.2 1.4-3 1.5-4 0-1 .3-1.8 1.6-4.2 1.2-2.4 1.5-3.2 1.5-4.2.1-1 .4-1.8 2.1-5.2s2-4.2 2.1-5.3.4-1.7 1-3q1-1.9 1-3c.1-.8.4-1.7 1.3-3.6l1.3-2.5 1.8.8zm364 1.2c1 2.2 1.7 3.2 2.5 4 .8.9 1.5 2 3.2 5.3 1.7 3.4 2.4 4.4 3.2 5.3 1 1 1.5 1.9 3.1 5.2 1.7 3.6 2.1 4.2 3.1 5.2s1.4 1.7 4.1 7.2 3.1 6.2 4.2 7.3 1.5 2 8.4 15.7a82 82 0 0 0 8.2 15.5c1 1 1.6 2 7.2 13.3a124 124 0 0 0 7.8 14.5q0 1.5 1.3 2.9.8.9.9 1.3 0 1.5 1.2 2.8l.8 1.4q0 1.5 1.2 2.8.8.8.9 1.7c0 .7 1.8 4.4 6.2 13.1a60 60 0 0 1 6.2 13.5c0 1.2.4 1.9 3 7.3 2.7 5.3 3 6.1 3.2 7.2 0 1.1.6 2.3 6.6 14.2 6 12 6.5 13 7.5 14s1.4 1.8 5 9.1c4 7.9 4 8.1 5.4 9.5 1.3 1.4 1.4 1.5 1.4 2.4q0 2 1.2 3.4.8.8.9 1.7.1 1 2.6 6c2.1 4.2 2.5 5 2.6 6.1v1.2h-1.2l-2-.6-2.1-.5q-1.2 0-2-.4-1-.4-2.3-.6l-2.1-.5q-.6-.4-3-.5t-3-.5l-2-.5a5 5 0 0 1-2-.4q-1-.5-2-.5-1.4-.1-2.1-.6c-.6-.3-1.3-.4-3.2-.5s-2.5-.2-3.3-.6-1.3-.5-3.3-.6q-2.5 0-3-.5-.8-.4-2-.4l-2-.5q-.8-.5-2-.5-1.2-.1-2-.6l-2.1-.5a5 5 0 0 1-2-.4q-1-.5-2-.5-1.3-.2-2.3-.7t-2.2-.5-2-.6c-.6-.3-1.3-.4-3.2-.5-2.3-.1-2.4-.1-4.1-1a7 7 0 0 0-3-1 5 5 0 0 1-2-.4q-1-.5-2-.5-1.4-.2-2-.5l-2-.6c-1 0-1.8-.3-3.3-1-1.6-.9-2.3-1-3.3-1.2-1.1 0-1.7-.3-4.1-1.5-2.2-1-3-1.4-4-1.5q-1.2 0-2.2-.6l-1-.5h-10.8l-5.5 2.8c-5.5 2.7-5.5 2.7-7.3 4.5a14 14 0 0 0-2.3 2.8q-.6 1-1.5 2a11 11 0 0 0-2 2.9q-.9 2-2.1 3.2t-2.1 3.2-2.1 3.2c-1 1-1.4 1.8-2.5 4-1 2.2-1.6 3-2.5 4-1 1-1.5 1.9-3.3 5.4a19 19 0 0 1-3 5.1c-.8.7-1.4 1.8-3.5 6a27 27 0 0 1-3.8 6.5q-1 1.1-2.6 4.1a21 21 0 0 1-2.6 4.2q-1.1 1.3-2.7 4.3a13 13 0 0 1-2.5 4 11 11 0 0 0-2.1 3.1q-1 2.1-2 3c-.7.7-1.4 1.8-3 5.1a21 21 0 0 1-3.3 5.4l-1.2 1.2q-.2-.1-1.4-2.5c-1.2-2.1-1.4-2.7-1.5-3.8 0-1.2-.4-1.9-3-7.4a27 27 0 0 1-3.2-7.2c0-1-.6-2.2-4.2-9.3-3.7-7.5-4-8.3-4.1-9.5s-.4-1.8-2.7-6.3a22 22 0 0 1-2.6-6.2q0-1.2-.5-2l-.4-2.1c-.1-1.2-.3-1.7-1.5-4-1.2-2.1-1.4-2.7-1.5-4l-.7-2.3q-.4-1-.5-2.2t-1-3c-.7-1.4-1-2-1-3.1l-.5-2.1q-.5-.8-.6-2t-.5-2l-.4-2.1-.5-2.1q-.5-.8-.6-2t-.5-2.2-.6-2.2-1-3-1-3-.6-2l-.4-1.7-.4-2-.6-2.4q-.2-1.4-.7-2.3l-.6-2.2q0-1.2-1-3.1a9 9 0 0 1-1-3.1q0-1.2-1-3t-1-3c0-1-.3-1.7-1-3.2-.8-1.6-1-2.3-1.1-3.3-.1-1.1-.4-1.7-2-5s-1.9-3.9-2-5a49 49 0 0 0-5.6-12.2c-4.9-9.8-5.5-11-6.4-12-.9-.7-1.4-1.7-3.2-5.2a19 19 0 0 0-3.2-5.3c-.9-.9-1.4-1.8-4-7.2a27 27 0 0 0-4.2-7.2 24 24 0 0 1-3.8-6.5c-2.5-5-2.8-5.7-2.8-6.8-.1-1.2-.7-2.3-8.8-18.5a113 113 0 0 0-12.2-22.4l.7-.4c.5-.3 1.3-.4 4-.5 3-.1 3.5-.2 4.2-.5q.8-.4 2-.6 1.2 0 2-.4.5-.4 3-.5t3.1-.5 3.1-.5c1.9-.1 2.6-.2 3.2-.5q.8-.4 2-.6 1.2 0 2-.4.5-.4 3-.5c2-.1 2.5-.2 3.3-.6.8-.5 1.2-.5 4.3-.6 2.9-.1 3.5-.2 4.1-.5s1.2-.4 3.1-.5q2.5-.1 3.1-.5c.6-.3 1.2-.4 4.1-.5s3.5-.2 4.1-.5 1.2-.4 3.1-.5 2.6-.2 3.2-.5q.8-.4 2-.6t2.1-.5c.7-.4 1.3-.5 3.3-.6s2.6-.2 3.2-.6l1.7-.4 2-.4 2.4-.6q1.4-.1 2.1-.6l2-.5q1.2 0 2-.5l2-.5q1.2-.1 2.2-.5t2.3-.7c1 0 1.8-.3 4.2-1.5a12 12 0 0 1 4-1.5q1.1 0 3-1c1.3-.6 2-.9 3-1 1.1 0 1.8-.3 4.3-1.6 2.3-1 3.3-1.5 4.1-1.6q1.1 0 3-1a9 9 0 0 1 3.1-1c1.1 0 2-.4 7.4-3.1s6.4-3.2 7.5-3.3 1.8-.4 5.6-2.2c3.5-1.8 4.5-2.4 5.5-3.3 1-1 2-1.5 5.3-3.2a24 24 0 0 0 6.3-3.9h.4z"/><path d="m474.1 118.6-4 1.8-3.6 1.8-2.6 2.6q-2.4 2.5-3 3.6c-.3.6-1 1.6-1.6 2.2q-1.5 1.6-1.5 3.4 0 .6-3.6 7.8a34 34 0 0 0-3.8 8.7 10 10 0 0 1-1.5 4c-1.2 2.2-1.4 2.7-1.5 3.9 0 1-.2 1.7-1 3.3s-1 2.3-1.2 3.2c0 1-.3 1.7-1.5 4-1.1 2.4-1.4 3-1.5 4.1a5 5 0 0 1-.4 2l-.6 2c0 1-.3 1.8-1 3.3a10 10 0 0 0-1.2 3.4q-.1 1.3-.5 2.1l-.5 1.9q0 1.2-1 3t-1 3-.6 2.2l-.6 2.2a9 9 0 0 1-1 3q-.9 2-1 3.2t-.4 2q-.5.8-.5 2-.1 1.2-.6 2l-.4 2.1a8 8 0 0 1-1.1 3.2 7 7 0 0 0-1.2 3.2c0 1-.2 1.7-1 3.1q-.9 1.8-1 3a9 9 0 0 1-1 3.1q-.8 1.9-1 3 0 1-1 3.2-1 2.1-1.1 3.3c-.1 1-.5 1.8-2.1 5.2a18 18 0 0 0-2.2 5.2l-.1 1.2-1.3.1q-1.2.2-2.2.6l-1.6.4-2 .4q-1 .5-3.5.6c-1.9 0-2.6.2-3.2.5q-.8.5-2 .6c-.5 0-1.4.2-1.7.4q-.6.4-3.1.5c-2 .1-2.6.2-3.4.6q-1 .5-2.2.7l-1.9.4q-.7.3-2.1.5t-2.2.6l-2 .5q-1.2 0-2 .5l-2 .5a9 9 0 0 0-3.3 1q-2 .9-3.1 1a6 6 0 0 0-2.2.6q-1 .4-2.1.6-1 0-2 .5l-2.1.4a7 7 0 0 0-3.1 1c-1.3.8-2 1-3 1-1 .1-1.7.4-3.4 1.2q-2.1 1-3.2 1l-2 .6q-.8.3-2 .4c-1 .1-1.7.3-3.1 1q-1.8 1-3 1-1.2.2-2 .6l-2 .5q-1.2.1-2.2.5l-2.1.7c-.6 0-1.5.2-1.8.4q-.6.4-3.1.5c-1.9.1-2.6.2-3.2.5l-2.1.5q-1.2.2-2.2.6c-.7.4-1.3.5-3.2.6-1.8.1-2.5.2-3.1.5l-2.1.5-2 .5q-.6.4-3.1.5t-3.1.5-3 .5-3 .5c-.6.4-1.2.4-6.2.5-5.4.1-5.5.1-6.5.6q-1 .5-2.2.7c-1 0-1.8.3-4.6 1.7l-3.4 1.7-2.7 2.6a14 14 0 0 0-4 5.2c-1 2-1.3 2.8-1.4 3.8q0 1.2-.5 2c-.4.7-.4 1.1-.4 4.4v3.6l2.7 5.4c1.5 3 3 5.7 3.3 6l1.7 1.3q1.1.6 3.1 2.6t3.1 2.6 1.9 1.4c.4.5 1.4 1.2 2.2 1.6l3.3 2.8q1.9 2.1 3.2 2.7c.7.4 1.7 1 2.1 1.5q.9.8 2.9 1.9a11 11 0 0 1 3.1 2.1 15 15 0 0 0 4.3 2.7c2.5 1.3 3.5 1.9 4.2 2.6s1.7 1.3 4 2.5a13 13 0 0 1 4.1 2.6c.9 1 1.7 1.4 8.3 4.6 6.6 3.3 7.4 3.7 8.5 4.8s2 1.5 7.4 4.3a30 30 0 0 1 7.1 4q1 1 2.9 2 2 1 3.1 2l2.1 1.6q1 .6 2.1 1.6l2.1 1.6a7 7 0 0 1 2 1.5q1 1 2.1 1.6c.8.4 2.6 2 7.5 6.9 6.1 6.2 6.3 6.4 6.3 7.1q0 .8-.4 1.7c-.4.6-.5 1.3-.6 3.2a12 12 0 0 1-.6 3.5c-.3 1-.4 1.6-.4 4 0 2.7 0 3.1-.4 3.9-.4.6-.5 1.3-.6 3.1q0 2.4-.5 3t-.5 3.1-.5 3.1l-.5 2-.5 2.1c-.3.6-.4 1.3-.5 3 0 2-.1 2.3-.6 3.2s-.5 1.3-.6 3.4q0 2.5-.5 3.1l-.5 2a5 5 0 0 1-.4 2q-.5 1-.5 2-.2 1.4-.5 2-.5 1-.5 2-.1 1.4-.6 2.1c-.3.6-.4 1.3-.5 3.2s-.2 2.6-.6 3.3q-.4 1-.5 2-.1 1.3-.6 2.1l-.5 2.1a5 5 0 0 1-.4 2q-.5 1-.5 2-.1 1.4-.6 2.1l-.5 2.1a5 5 0 0 1-.4 2q-.5 1-.5 2-.2 1.4-.5 2-.5 1-.5 2a6 6 0 0 1-.6 2.3 6 6 0 0 0-.7 2.3l-.4 2q-.5 1-.5 2-.2 1.4-.5 2-.5 1-.5 2-.2 1.3-.6 2.1c-.3.6-.4 1.3-.5 3.2q0 2.6-.5 3-.3.9-.4 2t-.7 2.2q-.5 1-.6 2.3t-.4 2q-.5.9-.6 2.2l-.6 2.4q-.4 1-.4 3c0 1.5 0 2-.4 2.7-.4.6-.5 1.3-.6 3.2s-.2 2.6-.5 3.1c-.4.6-.4 1-.4 5.3v4.6l2.2 4.5c2.2 4.4 2.3 4.5 3.8 6a16 16 0 0 0 5.1 3.4c3.1 1.6 3.7 1.9 4.8 2q1.3 0 2.1.5c.7.4 1.1.4 4.4.4s3.7 0 4.4-.4l2.1-.5c1.2-.1 2-.5 12-5.5a61 61 0 0 0 11.8-6.4c.9-.9 2-1.5 5.3-3.2 3.5-1.7 4.4-2.2 5.2-3.1a11 11 0 0 1 2.9-2 11 11 0 0 0 2.8-1.9q.8-.9 3.2-2.1t3.3-2.2a11 11 0 0 1 3.1-2.1q2.1-1 3-2 1-.9 2-1.5t2-1.5q.9-1 3-2 2.3-1.1 3.5-2.3l2.1-1.6c.5-.2 1.4-1 2-1.5l2.1-1.6a7 7 0 0 0 2-1.5c.8-.8 1.5-1.3 3.2-2.1s2.4-1.3 3.2-2q1-1.1 1.9-1.5 1-.5 2.2-1.7c1.1-1.1 1.7-1.5 4.4-2.8a13 13 0 0 0 4-2.4q1-1 2.9-2a17 17 0 0 0 3.2-2.1q1.3-1.1 3.2-2.2a11 11 0 0 0 2.9-1.9c.7-.7 1.7-1.3 4.1-2.5 2.5-1.3 3.5-1.9 4.3-2.7q1.1-1 3.1-2.1a14 14 0 0 0 3.1-2.1 21 21 0 0 1 4.1-2.6c2.8-1.4 3.1-1.5 3.7-1.3l1.5.2c.7 0 2 .6 7 3 5.2 2.6 6.2 3 7.2 3.1s1.8.4 4.2 1.6 3.2 1.6 4.3 1.6c1.2.1 2 .5 9.3 4.1 5.6 2.8 8.2 4 8.9 4.1q.9 0 1.8 1 1.4 1.3 3.3 1.3c.6 0 1.6.4 4.2 1.7 2.7 1.4 3.6 2 4.5 2.8 1 1 2.3 1.7 14.6 7.8a80 80 0 0 1 14.7 7.9c1.1 1 2.4 1.7 18.2 9.6s17 8.5 18.3 8.6c1 .1 1.8.4 4 1.5l2.7 1.4h5.6c5.3 0 5.6 0 6.4-.4l2.1-.5c1-.1 1.7-.3 3.6-1.3s2.6-1.4 4-2.8q1.6-1.6 2.1-2.6t1.7-2.2c1.2-1.3 1.6-2.1 1.6-3.6a7 7 0 0 1 1-2.6l.9-1.8v-3.6c0-3.2 0-3.7-.4-4.3-.3-.6-.4-1.2-.5-3.2-.1-2.5-.1-2.5-1-4.3-.8-1.4-1-2-1-3.1l-.5-2q-.4-.6-.5-3.1c-.1-1.9-.2-2.6-.5-3.2q-.4-.8-.6-2 0-1.1-.4-2-.4-.4-.5-3c-.1-1.9-.2-2.6-.5-3.2q-.5-.9-.5-2.1a6 6 0 0 0-.7-2.3c-.4-.9-.5-1.3-.5-3.2-.1-1.7-.2-2.4-.5-2.9q-.4-.6-.5-3.1t-.5-3.1-.5-3a8 8 0 0 0-.5-3.1l-.5-2.1-.5-2q-.4-.6-.5-3.1c-.1-2-.2-2.6-.6-3.4q-.5-1-.7-2.2 0-1.2-.5-2l-.4-2.1-.5-2.1q-.4-.8-.6-2 0-1.2-.4-2-.4-.5-.5-2.9a7 7 0 0 0-1.1-4.3c-.8-1.6-1-2.3-1.1-3.3s-.3-1.7-1-3.1c-.8-1.4-1-2-1-3.1a7 7 0 0 0-1-3c-.8-1.4-1-2-1-3-.1-1.1-.4-1.7-1.6-4.3s-1.6-3.2-1.7-4.3-.3-1.8-2-5.2c-1.8-3.3-2-4-2.2-5.1q0-1.2-1-3t-1-3-1-3c-.6-1.4-.9-2-1-3.1l-.4-2.1c-.3-.4-.5-1.4-.5-2.1a7 7 0 0 0-1.2-3.2c-.7-1.5-1-2.2-1-3.1q-.1-1.2-.6-2l-.4-1.6-.2-1.6-.3-1 5.5-5.4c4-4 5.8-5.7 6.5-6 .6-.3 2-1.4 3.2-2.7 1.3-1.2 2.6-2.4 3.2-2.7q1-.6 3-2.5 2-2 3.1-2.5 1-.5 3.3-2.7c1.2-1.2 2.6-2.4 3-2.6l2.1-1.6 2.3-1.7q1-.6 2.9-2.4 1.9-1.9 3-2.5 1-.5 4.1-3.6c2.2-2.3 3.3-3.2 4.2-3.6 1-.5 2-1.5 5.2-4.7 2.4-2.5 4.4-4.3 5-4.6s2.5-2 4.3-3.8q3.2-3 4.3-3.6c.7-.4 2.5-2.1 6.3-5.9q5.5-5.4 6.3-5.8 1-.5 3.6-3l2.6-2.6 1.8-3.6c1.5-3 1.7-3.7 1.8-4.8q.1-1.2.6-2.1c.4-.7.4-1.1.4-5.2v-4.4l-2.3-4.6c-2.1-4.4-2.3-4.7-3.8-6.2-1.4-1.4-1.7-1.7-5.1-3.3-3-1.6-3.8-1.9-4.8-2q-1.2 0-2-.5c-.6-.3-1.3-.4-3.2-.5s-2.5-.2-3.3-.6-1.3-.5-3.3-.6q-2.5 0-3.1-.5c-.6-.3-1.3-.4-4.1-.5-2.9 0-3.5-.2-4.1-.5-.6-.4-1.2-.4-5-.5s-4.4-.1-5-.5c-.7-.4-1.2-.4-10.4-.5s-9.7-.1-10.4-.5c-.6-.4-1.2-.4-7.2-.5s-6.6-.1-7.2-.5c-.6-.3-1.2-.4-4.1-.5-3.1-.1-3.5-.1-4.3-.6-.9-.5-1-.5-5.4-.6-4 0-4.6-.1-5.2-.5-.6-.3-1.2-.4-4.1-.5s-3.5-.2-4.1-.5-1.2-.4-4.1-.5-3.5-.2-4.1-.5-1.2-.4-4.2-.5-3.6-.2-4.2-.5-1.2-.4-4.1-.5c-3.1-.1-3.5-.1-4.3-.6s-1.2-.5-4.3-.6c-4-.1-4.2-.2-5.2-2.2-.5-1-1-1.7-2.6-3.1a10 10 0 0 1-3-4q-1.1-2.1-2.3-3.4l-1.7-2.2q-.5-1-1.4-1.9a11 11 0 0 1-2-2.9 12 12 0 0 0-2-3.1c-1-1-1.5-1.9-3.7-6.3a22 22 0 0 0-3.6-6.2c-1-.9-1.5-2-5.7-10.4a49 49 0 0 0-5.8-10.5c-.9-1-1.5-1.9-3.6-6.2a23 23 0 0 0-3.7-6.3c-1-1-1.5-1.8-2.7-4.3a12 12 0 0 0-2.5-4.1 11 11 0 0 1-2.1-3.1q-1.1-2.2-2.1-3.1a9 9 0 0 1-2-3.1 11 11 0 0 0-2.2-3.3l-1.6-2-1.3-1.7-1.6-2.2a17 17 0 0 0-3.7-4.2 19 19 0 0 1-3.6-4.1c-.4-1-1.5-2-4.3-5l-3.8-3.6-3.4-1.7c-3.1-1.5-3.5-1.7-4.8-1.7-2.6-.1-11-.2-11.4-.1m11 53.6q1 1 1.5 2t1.6 2.1q1.2 1.3 2.3 3.4 1 2.2 2 3.1c.7.7 1.3 1.7 3 4.9s2.1 4.2 3 5.1c1 1 1.5 1.9 3.6 6.1 2 4.2 2.7 5.3 3.8 6.6a30 30 0 0 1 3.8 6.5c2 4 2.6 5 3.4 5.8s1.4 1.8 3.5 6.1c2.2 4.4 2.8 5.4 3.8 6.4s1.4 1.9 2.6 4.2q1.5 3.1 2.5 4.1 1 1.1 1.7 2.2.6 1 1.6 2.1 1 .9 2 3.1a11 11 0 0 0 2 3.2c.7.6 1.4 1.6 1.7 2.1l1.6 2 1.6 2.1q.6 1 1.6 2.2 1 1.1 2.4 4c1.6 3.1 2.4 4.1 3.9 4.8q1 .4 2.9 2.4c1.9 1.9 2.2 2.1 4.6 3.3 2 1 2.8 1.4 3.8 1.5q1.2 0 2 .5c.8.4 1.2.4 8.4.5 7.1.1 7.6.1 8.3.5s1.2.4 12.4.5l11.7.1.9.5.9.5 10.6.1c10.4.1 10.6.1 11.7.6s1.5.4 5 .4c3.8 0 4 0 4.7.4s1.1.5 4.3.6c3 0 3.6.2 4.2.5.6.4 1.2.4 5.2.5 3.9 0 4.6.2 5.2.5l1.8.5h1.2l-1.4 1.5q-1.5 1.5-2.6 2.1c-.8.4-2.2 1.7-5.1 4.6-2.9 3-4.3 4.2-5.2 4.7-.7.4-2.3 1.7-3.5 2.9l-3 2.5-2.9 2.5a16 16 0 0 1-3.4 2.8q-1.2.4-4.1 3.5-2.9 3-4 3.5c-.8.4-2.2 1.7-5.2 4.7a34 34 0 0 1-5.1 4.6 59 59 0 0 0-7.3 6.8 61 61 0 0 1-7.3 6.8q-1 .6-3 2.5a11 11 0 0 1-3.2 2.6q-1.2.5-2.8 2.2a19 19 0 0 0-3.7 6 20 20 0 0 0-2.3 5.8q-.1 1-.7 2.1a5 5 0 0 0-.1 4.3q.3.8.5 2.1c.1.8.4 1.8.6 2.2q.4.8.4 2c.1 1 .4 1.7 1.1 3.2s1 2.3 1.1 3.3.3 1.7 1 3.1q1 1.8 1 3 .1 1.2 1 3c.8 1.4 1 2 1 3.1.1 1.2.3 1.7 2.1 5.1 1.7 3.3 2 4 2.1 5.2s.4 2 2.2 5.4c1.7 3.5 2 4.2 2 5.3.1 1.1.4 1.8 1.7 4.3 1.1 2.3 1.5 3.3 1.6 4.1q0 1.1 1 3a9 9 0 0 1 1 3.1c0 1 .3 1.8 1.4 4 1.2 2.4 1.5 3 1.5 4.1a7 7 0 0 0 1.1 3.2c.9 1.6 1 2.1 1.1 3.2.1.7.3 1.7.5 2.1q.5.8.6 2t.4 2q.4.4.5 3c.1 1.9.2 2.6.5 3.2q.5.8.6 2t.5 2.1c.4.7.5 1.3.6 3.3q.1 2.5.5 3.1t.5 3.1.5 3.1c.3.6.4 1.2.5 4.1s.2 3.5.5 4.1q.4.6.5 3a9 9 0 0 0 .6 3.3l.4 1.4c0 .2-9.4-4.4-34.7-17-33-16.6-34.7-17.3-35.9-17.4s-1.9-.4-8.2-3.6-7.1-3.5-8.2-3.6c-1.2-.1-2-.5-7.3-3.2a25 25 0 0 0-9.2-3.6c-.8-.4-1-.4-7.5-.4s-6.7 0-7.5.4l-2.1.5c-1.1.1-1.7.4-4.8 1.9a18 18 0 0 0-4.6 2.8q-1 1-2.1 1.6-1 .5-1.9 1.4t-2.1 1.6-2.1 1.6q-1 .9-2 1.5t-2 1.5-2 1.5-2 1.5q-.8.9-3.2 2.1t-3.3 2.2a11 11 0 0 1-3.1 2.1q-2.1 1-3 2c-.7.7-1.7 1.3-4 2.5a16 16 0 0 0-4.5 2.8q-1.2 1.1-3 2a10 10 0 0 0-3 2c-1 1-1.8 1.5-4.4 2.8a15 15 0 0 0-4.1 2.5q-1 1-2.9 2-2 .9-3.2 2.1T423 478a10 10 0 0 0-3.1 2c-.5.6-1.5 1.3-2.1 1.6q-1 .6-2.1 1.6-1 1-3 2t-3.1 2.1a11 11 0 0 1-3.2 2 9 9 0 0 0-3.2 2.2 10 10 0 0 1-3.1 2.1l-2.5 1.6-.6.5v-1q0-.8.4-1.7.4-1 .5-2t.6-2a6 6 0 0 0 .7-2.4q0-1.2.5-2.1c.3-.6.4-1.3.5-3.2q0-2.6.5-3 .4-.9.4-2l.5-2q.4-.8.6-2.2t.5-2.1l.4-1.9.6-2.2q.5-1 .7-2.3l.6-2.4q.4-1 .4-3-.1-1.9.4-2.6.5-1 .5-2 .1-1.4.6-2.1l.5-2.1c0-.7.2-1.7.4-2q.5-1 .5-2 .1-1.3.6-2.3a6 6 0 0 0 .7-2.3q0-1.2.5-2.1c.3-.6.4-1.3.5-3.2q0-2.6.5-3 .4-.9.4-2l.5-2q.5-.8.5-2 .1-1.2.6-2c.3-.6.4-1.3.5-3.2q0-2.5.5-3.1t.5-3c0-1.9.2-2.5.6-3.2q.5-1 .6-2.2t.5-2.1c.3-.6.4-1.3.5-3.1q0-2.4.5-3t.5-3.1c0-1.9.2-2.6.5-3.1.4-.6.4-1 .4-5.3s0-4.7-.4-5.4l-.5-2.1-.5-2.1c-.3-.4-.5-1.4-.5-2.1a9 9 0 0 0-2.6-5.1q-1-1-1.5-2-1-1.8-2.6-2.6-1-.6-3.2-2.7a19 19 0 0 0-3.2-2.7q-.9-.4-6.1-5.5a46 46 0 0 0-6.4-5.9q-1.3-.7-3.2-2.6a15 15 0 0 0-3-2.5q-1-.6-3.2-2.7a17 17 0 0 0-3.1-2.6l-2-1.5q-1-.9-2-1.5l-2.1-1.6q-1.1-1-3.2-2.1-2.1-1-3.2-2a14 14 0 0 0-3.1-2.2q-2-1-3-2t-3-2a14 14 0 0 1-3.1-2.1 16 16 0 0 0-4.3-2.7 15 15 0 0 1-4.2-2.6c-.8-.8-1.7-1.3-4-2.5a16 16 0 0 1-4.1-2.6 16 16 0 0 0-4.3-2.7 15 15 0 0 1-4-2.5l-1-.8 1-.2q1 0 2-.6l2.2-.6q1.2 0 2-.5l2.1-.4c1-.1 1.7-.3 3.1-1q1.8-1 3-1 1.2-.2 2-.6l2-.5q1.2 0 2-.5l2.1-.4q1.3-.2 2.3-.6 1-.5 2.2-.7 1.2 0 2-.5l2.1-.4c1-.1 1.7-.3 3.1-1q1.8-1 3-1l2-.5q.4-.4 3-.5c2-.1 2.5-.2 3.4-.6q1-.6 2.2-.7t2-.5l2-.5q1.2 0 2-.4.4-.4 3-.5 2.5-.1 3.1-.5t3.1-.5 3.1-.5 3.1-.5 3.1-.5c.6-.3 1.2-.4 4.1-.5 3.1-.1 3.5-.2 4.3-.6s1.3-.5 3.2-.6q2.4-.1 3-.5c.6-.3 1.2-.4 4.2-.5s3.6-.2 4.2-.5c.6-.4 1.2-.4 6.1-.5l5.4-.1 2.5-1.2c2-1 2.7-1.5 3.6-2.4q1.1-1 2.2-1.7 1.8-.9 2.7-2.7a7 7 0 0 1 1.5-2q1-.9 2.3-3.4l1.2-2.4v-2.2l.1-2.2 1.5-3.1a12 12 0 0 0 1.6-4.4c.1-1 .3-1.6 1-3 .8-1.3 1-1.9 1-3 .1-.7.3-1.7.6-2.1l.5-2.1c0-1 .3-1.7 1-3.3q1-2 1.2-3.2 0-1.2.4-2t.5-2l.5-2q.5-.8.5-2 .2-1.2.6-2l.5-2.1c0-.7.2-1.7.4-2l.6-2c0-1 .3-1.8 1-3.3.9-1.6 1-2.3 1.2-3.3 0-.7.2-1.7.4-2l.6-2q0-1.3 1-3.1t1-3c0-.9.3-1.7 1-3.2.9-1.6 1-2.3 1.2-3.3 0-1 .3-1.7 1-3.1q.9-1.8 1-3a9 9 0 0 1 1-3.1q.8-1.9 1-3 0-1 1-3.2 1-2.1 1.1-3.3t1-3c.7-1.3 1-2 1-3 .1-1 .4-1.7 1.6-4.1q1.6-3 1.6-4l.2-1 .4.7z"/></g></svg>