<svg xmlns="http://www.w3.org/2000/svg" width="1000" height="1000" viewBox="0 0 1000 1000"><g transform="scale(0.2)"><g transform="translate(0.000000,5000.000000) scale(0.100000,-0.100000)"
fill="#141413" stroke="none">
<path d="M24492 41860 c-63 -30 -65 -30 -240 -30 -174 -1 -178 -1 -247 -30
-49 -21 -86 -30 -125 -30 -40 0 -72 -8 -118 -30 -48 -23 -78 -30 -122 -30 -50
0 -73 -8 -179 -60 -108 -53 -129 -60 -181 -60 -54 0 -72 -6 -184 -65 -111 -58
-131 -65 -182 -65 -49 0 -76 -9 -186 -60 -112 -52 -137 -60 -188 -60 -55 0
-74 -8 -300 -120 -226 -113 -244 -120 -300 -120 -55 0 -74 -7 -300 -120 -225
-112 -244 -120 -299 -120 -54 0 -74 -7 -240 -90 -167 -83 -187 -90 -241 -90
-55 0 -73 -7 -292 -117 -220 -110 -237 -117 -309 -123 -73 -6 -88 -12 -380
-158 -286 -143 -307 -152 -361 -152 -53 0 -75 -9 -358 -150 -294 -147 -302
-150 -365 -150 -64 0 -68 -2 -484 -210 -407 -204 -421 -210 -480 -210 -58 0
-73 -7 -421 -180 -345 -172 -363 -180 -420 -180 -56 0 -74 -7 -370 -155 -295
-147 -313 -155 -369 -155 -56 0 -74 -7 -293 -117 -219 -110 -237 -117 -308
-123 -70 -6 -90 -14 -312 -123 -215 -106 -242 -117 -291 -117 -49 0 -75 -10
-236 -90 -167 -83 -187 -90 -240 -90 -54 0 -74 -7 -240 -90 -172 -85 -185 -90
-246 -90 -64 0 -71 -3 -374 -155 -287 -144 -313 -155 -364 -155 -51 0 -76 -10
-297 -120 -232 -116 -243 -120 -304 -120 -61 0 -74 -5 -245 -90 -166 -82 -187
-90 -240 -90 -51 0 -73 -7 -180 -60 -107 -52 -129 -60 -180 -60 -51 0 -74 -8
-180 -60 -103 -50 -131 -60 -175 -60 -45 0 -73 -10 -175 -60 -106 -52 -130
-60 -179 -60 -53 0 -77 -10 -305 -120 -230 -111 -253 -120 -307 -120 -53 0
-74 -8 -239 -90 -168 -83 -186 -90 -242 -90 -56 0 -71 -6 -237 -92 -166 -86
-182 -92 -254 -98 -66 -5 -93 -14 -193 -63 -101 -49 -124 -57 -174 -57 -51 0
-74 -8 -180 -60 -107 -53 -129 -60 -181 -60 -53 0 -73 -7 -232 -87 -159 -80
-179 -87 -249 -93 -71 -6 -88 -13 -308 -123 -218 -109 -237 -117 -291 -117
-55 0 -75 -8 -300 -120 -227 -113 -244 -120 -301 -120 -58 0 -72 -6 -547 -245
-479 -241 -488 -245 -549 -245 -59 0 -73 -6 -303 -120 -232 -116 -243 -120
-305 -120 -61 0 -72 -4 -305 -120 -219 -109 -245 -120 -295 -120 -52 0 -85
-15 -539 -240 -467 -232 -486 -240 -543 -240 -58 0 -78 -9 -922 -431 -859
-429 -863 -430 -935 -500 -67 -63 -92 -78 -301 -179 -204 -99 -234 -117 -294
-174 -50 -48 -94 -78 -181 -121 -90 -45 -130 -72 -185 -125 -38 -37 -95 -80
-125 -95 -82 -40 -596 -553 -641 -639 -18 -34 -62 -92 -99 -131 -37 -39 -81
-98 -99 -132 l-31 -62 0 -802 0 -801 40 -77 c36 -68 68 -105 317 -353 l278
-276 115 -57 c84 -42 132 -74 180 -119 79 -74 107 -89 1667 -869 1076 -539
1094 -547 1152 -547 56 0 74 -7 296 -117 223 -110 240 -117 313 -123 73 -6 89
-12 310 -123 220 -110 237 -117 294 -117 57 0 71 -6 347 -147 281 -143 288
-146 366 -153 77 -6 89 -11 313 -123 219 -110 237 -117 293 -117 56 0 74 -8
429 -185 356 -177 373 -185 430 -185 54 0 74 -7 241 -90 166 -83 186 -90 240
-90 55 0 74 -8 299 -120 235 -117 243 -120 307 -120 64 0 73 -3 252 -96 102
-53 194 -104 203 -115 16 -19 15 -23 -13 -82 l-29 -62 0 -297 0 -296 -30 -64
-30 -63 0 -302 0 -301 -30 -64 -30 -63 0 -362 0 -361 -30 -64 -30 -63 0 -482
0 -481 -30 -64 -30 -63 0 -782 0 -781 -30 -64 -30 -63 0 -362 0 -361 -30 -64
-30 -63 0 -237 0 -236 -30 -64 -30 -63 0 -670 0 -670 30 -63 30 -64 0 -296 0
-297 30 -63 c30 -64 30 -64 30 -245 0 -181 0 -182 30 -245 23 -49 30 -78 30
-124 0 -58 6 -72 187 -431 168 -332 194 -379 249 -437 33 -36 75 -92 93 -126
26 -48 98 -126 374 -401 l342 -341 115 -57 c87 -44 131 -72 181 -120 63 -61
92 -76 867 -464 785 -392 804 -401 861 -401 56 0 75 -8 295 -117 216 -107 242
-117 309 -123 64 -6 90 -16 245 -93 159 -80 179 -87 232 -87 52 0 74 -7 181
-60 106 -52 129 -60 179 -60 52 0 76 -9 296 -117 222 -108 244 -117 314 -123
64 -5 91 -15 189 -63 99 -50 122 -57 172 -57 51 0 71 -7 183 -65 113 -58 131
-65 184 -65 52 0 75 -7 178 -57 101 -48 130 -58 194 -63 65 -6 91 -14 189 -63
99 -50 122 -57 172 -57 43 0 73 -7 121 -30 47 -22 77 -30 120 -30 49 0 73 -8
179 -60 106 -52 129 -60 179 -60 44 0 74 -7 122 -30 49 -23 77 -30 125 -30 47
0 76 -7 125 -30 45 -21 78 -30 115 -30 36 0 70 -9 115 -30 47 -22 77 -30 120
-30 42 0 72 -8 120 -30 47 -22 77 -30 120 -30 42 0 72 -8 120 -30 47 -23 77
-30 121 -30 43 0 71 -7 110 -27 35 -18 76 -29 127 -33 45 -5 99 -18 135 -33
53 -24 73 -27 177 -27 108 0 121 -2 180 -30 59 -28 71 -30 180 -30 108 0 120
-2 180 -30 63 -30 64 -30 240 -30 175 0 177 0 240 -30 63 -30 64 -30 245 -30
181 0 181 0 245 -30 63 -30 64 -30 240 -30 175 0 177 0 240 -30 47 -23 77 -30
121 -30 47 0 71 -7 124 -35 65 -35 68 -35 189 -35 115 0 126 -2 186 -30 63
-30 64 -30 240 -30 175 0 177 0 240 -30 63 -30 64 -30 240 -30 175 0 177 0
240 -30 l63 -30 302 0 301 0 64 -30 63 -30 482 0 481 0 64 -30 63 -30 1020 0
1020 0 63 30 64 30 416 0 417 0 60 28 60 27 435 5 435 5 52 28 52 27 238 0
238 0 63 30 64 30 241 0 242 0 63 30 c60 28 71 30 182 30 116 0 120 1 184 35
65 34 69 35 184 35 109 0 121 2 180 30 60 28 71 30 185 30 115 0 126 2 185 30
48 22 78 30 120 30 43 0 73 8 120 30 60 28 72 30 180 30 109 0 121 2 180 30
48 22 78 30 120 30 43 0 73 8 120 30 60 28 72 30 180 30 109 0 121 2 180 30
49 23 78 30 125 30 48 0 76 7 125 30 48 22 78 30 120 30 43 0 73 8 120 30 48
22 78 30 120 30 43 0 73 8 120 30 48 22 78 30 120 30 43 0 73 8 120 30 45 21
79 30 115 30 37 0 70 9 115 30 47 22 79 30 120 30 39 0 76 9 117 27 36 15 90
28 135 33 64 6 92 15 187 63 98 50 120 57 170 57 44 0 74 7 121 30 48 23 78
30 122 30 50 0 73 8 179 60 106 52 130 60 179 60 49 0 76 9 186 60 109 51 137
60 185 60 41 0 72 8 119 30 48 23 78 30 121 30 52 0 72 7 183 65 114 59 132
65 185 65 53 0 74 7 174 57 97 48 125 58 189 63 67 6 93 16 254 93 162 79 185
87 237 87 54 0 74 8 299 120 221 110 245 120 297 120 52 0 77 11 372 157 288
143 322 162 381 219 56 53 93 76 260 159 497 247 662 338 725 396 41 39 95 74
175 114 85 43 131 73 180 120 36 34 92 76 126 94 86 45 599 559 639 641 15 30
55 84 90 120 34 36 75 90 90 120 15 30 56 84 90 120 59 62 77 94 311 560 240
480 248 497 254 570 5 45 18 99 33 135 18 41 27 78 27 117 0 41 8 73 30 120
23 47 30 77 30 121 0 45 7 70 30 114 29 53 30 61 30 179 0 115 2 126 30 186
l30 63 0 237 0 236 30 64 30 63 0 610 0 610 -30 63 -30 64 0 356 0 357 -30 63
-30 64 0 302 0 303 -30 56 -30 57 0 542 0 543 -30 63 -30 64 0 301 c0 301 0
302 -25 355 -23 49 -25 67 -25 180 0 120 -2 130 -30 190 -30 63 -30 65 -30
240 0 176 0 177 -30 240 -23 50 -30 78 -30 127 0 49 7 77 30 127 30 63 30 64
30 239 0 170 1 179 27 235 18 40 29 84 33 134 7 91 15 106 100 195 37 39 75
85 84 102 9 18 31 40 49 49 17 9 64 47 102 84 50 49 96 81 162 114 81 40 100
46 157 46 62 0 73 4 306 120 227 113 244 120 300 120 58 0 73 7 428 185 358
180 369 185 429 185 61 0 71 4 533 235 259 129 473 235 475 235 3 0 5 -8 5
-17 0 -10 14 -47 30 -81 22 -48 30 -78 30 -120 0 -43 8 -73 30 -120 28 -60 30
-71 30 -185 0 -115 2 -126 30 -185 22 -48 30 -78 30 -120 0 -43 8 -73 30 -120
30 -63 30 -65 30 -240 0 -176 0 -177 30 -240 l30 -64 0 -241 0 -242 30 -63 30
-64 0 -476 0 -477 27 -60 c26 -57 28 -69 31 -247 l3 -187 -41 -80 -40 -81
-152 -76 c-123 -62 -165 -88 -218 -139 -36 -34 -92 -76 -126 -94 -85 -45 -479
-440 -519 -521 -15 -30 -60 -89 -99 -130 -67 -71 -78 -90 -193 -330 -113 -234
-123 -260 -123 -312 0 -42 -8 -72 -30 -120 -22 -47 -30 -77 -30 -120 0 -42 -8
-72 -30 -120 l-30 -63 0 -295 0 -295 30 -63 c28 -60 30 -71 30 -181 l0 -118
57 -114 c49 -99 57 -124 63 -192 6 -74 13 -90 126 -320 l119 -242 131 -135
c119 -122 137 -145 183 -237 63 -128 67 -177 21 -275 -22 -47 -30 -77 -30
-120 0 -49 -8 -73 -60 -179 -52 -106 -60 -129 -60 -179 0 -44 -7 -74 -30 -122
-28 -59 -30 -70 -30 -185 0 -114 -2 -125 -30 -185 -21 -45 -30 -78 -30 -115 0
-38 -9 -70 -35 -124 -34 -71 -35 -77 -35 -190 0 -109 -2 -121 -30 -181 -28
-59 -30 -71 -30 -180 0 -108 -2 -120 -30 -180 -28 -59 -30 -70 -30 -185 0
-114 -2 -125 -30 -185 -30 -63 -30 -64 -30 -240 0 -175 0 -177 -30 -240 -28
-59 -30 -71 -30 -180 0 -108 -2 -120 -30 -180 l-30 -63 0 -242 0 -241 -30 -64
c-28 -59 -30 -71 -30 -181 0 -109 -2 -121 -27 -170 -28 -52 -28 -53 -33 -307
-6 -249 -6 -256 -33 -315 -26 -60 -27 -62 -27 -297 l0 -236 -30 -64 c-30 -63
-30 -64 -30 -241 l0 -177 -30 -57 -30 -56 0 -303 0 -302 -30 -64 -30 -63 0
-1213 0 -1213 98 -192 c94 -186 100 -195 197 -295 96 -100 105 -106 238 -173
l138 -69 422 0 422 0 63 30 c60 28 72 30 180 30 109 0 121 2 180 30 48 22 78
30 120 30 43 0 73 8 120 30 l64 30 483 0 483 0 64 -30 c63 -30 64 -30 245 -30
181 0 181 0 245 -30 l63 -30 535 0 535 0 63 30 c48 22 78 30 120 30 43 0 73 8
120 30 48 22 78 30 121 30 44 0 73 8 130 35 57 28 85 35 131 35 55 0 75 8 312
126 l253 126 218 216 c197 196 222 225 258 296 31 62 39 90 39 131 0 38 8 71
30 117 30 63 30 63 30 248 0 185 0 185 -30 248 -22 48 -30 78 -30 120 0 43 -8
73 -30 120 -23 50 -30 78 -30 127 0 56 -6 74 -60 184 -52 106 -60 130 -60 179
0 43 -8 73 -30 120 -23 48 -30 78 -30 121 0 45 -7 71 -30 114 -24 46 -30 69
-30 120 0 58 -6 76 -60 186 l-60 122 0 117 c0 109 -2 121 -30 180 -23 49 -30
78 -30 125 0 48 -7 76 -30 125 -22 48 -30 78 -30 120 0 43 -8 73 -30 120 -22
48 -30 78 -30 120 0 43 -8 73 -30 120 -22 48 -30 78 -30 120 0 43 -8 73 -30
120 -28 60 -30 72 -30 180 0 109 -2 121 -30 180 -22 48 -30 78 -30 120 0 43
-8 73 -30 120 -28 60 -30 72 -30 180 0 109 -2 121 -30 180 -28 60 -30 71 -30
187 0 122 0 124 -35 189 l-35 66 0 178 c0 176 0 177 -30 240 -30 63 -30 65
-30 240 0 176 0 177 -30 240 l-30 64 0 241 0 242 -30 63 c-28 60 -30 72 -30
180 0 109 -2 121 -30 180 -28 60 -30 72 -30 180 0 109 -2 121 -30 180 -28 60
-30 71 -30 185 0 115 -2 126 -30 185 -23 48 -30 78 -30 121 0 45 -7 71 -30
114 -24 45 -30 69 -30 116 0 54 -7 74 -90 240 -82 166 -90 187 -90 240 0 51
-8 73 -65 189 -58 116 -65 137 -65 189 0 43 -7 74 -29 119 -21 46 -30 80 -32
131 -3 64 -1 73 24 102 15 18 113 204 217 412 182 364 190 382 190 438 0 45 7
75 30 123 l30 63 0 415 0 415 -30 63 c-22 47 -30 79 -30 120 0 39 -9 76 -27
117 -15 37 -28 89 -32 135 -7 73 -13 87 -226 505 l-218 430 -118 120 c-91 93
-126 136 -153 190 -47 93 -192 238 -286 285 -37 18 -93 60 -130 95 -53 51 -94
77 -215 138 l-150 75 -38 78 -39 79 31 65 31 65 0 357 0 356 -35 66 -35 66 0
238 0 237 -30 63 -30 64 0 301 0 302 -30 63 -30 64 0 241 0 242 -30 63 c-28
60 -30 72 -30 180 0 109 -2 121 -30 180 -28 60 -30 72 -30 180 0 109 -2 121
-30 180 -28 60 -30 71 -30 185 0 115 -2 126 -30 185 -23 48 -30 78 -30 121 0
50 -8 74 -54 169 l-54 110 21 20 c12 11 91 54 174 96 143 71 157 76 217 76 63
0 71 3 366 150 287 143 303 150 361 150 57 0 71 6 294 120 228 117 235 120
299 120 65 0 67 1 486 210 403 201 423 210 479 210 57 0 80 11 970 455 884
441 914 455 969 455 82 0 184 50 271 134 56 54 93 77 251 156 l185 93 216 216
216 216 67 132 66 133 0 803 0 804 -61 124 c-58 119 -66 129 -189 254 -90 92
-137 149 -160 193 -38 72 -78 111 -153 148 -34 17 -98 71 -182 154 -88 87
-148 136 -185 155 -30 15 -84 56 -120 90 -49 47 -94 77 -180 120 -87 43 -131
73 -180 120 -49 47 -94 77 -180 120 -87 43 -132 74 -186 124 -70 66 -79 71
-1955 1009 -1833 916 -1887 942 -1942 942 -52 0 -75 9 -297 120 -233 116 -244
120 -305 120 -62 0 -73 4 -305 120 -226 112 -245 120 -300 120 -52 0 -71 7
-176 62 -105 55 -127 63 -194 68 -67 6 -93 16 -255 93 -161 78 -185 87 -237
87 -49 0 -73 8 -179 60 -107 53 -129 60 -181 60 -51 0 -75 8 -186 60 -109 51
-137 60 -185 60 -48 0 -73 8 -178 60 -106 52 -129 60 -179 60 -50 0 -71 7
-173 60 -104 54 -123 60 -176 60 -53 0 -74 7 -182 60 -110 54 -128 60 -185 60
-57 0 -75 6 -185 60 -106 52 -129 60 -180 60 -51 0 -73 8 -180 60 -106 52
-129 60 -180 60 -51 0 -73 8 -180 60 -106 52 -129 60 -179 60 -44 0 -74 7
-122 30 -46 22 -78 30 -119 30 -49 0 -71 8 -182 65 -114 58 -133 65 -186 65
-52 0 -74 7 -176 57 -100 49 -127 58 -193 63 -53 5 -94 15 -132 33 -40 19 -71
27 -112 27 -52 0 -74 8 -239 90 -166 82 -186 90 -239 90 -52 0 -74 7 -181 60
-107 53 -129 60 -180 60 -52 0 -74 7 -181 60 -106 53 -128 60 -179 60 -54 0
-75 8 -299 120 -226 112 -245 120 -300 120 -52 0 -74 7 -181 60 -110 54 -128
60 -185 60 -61 0 -73 5 -304 120 -226 112 -245 120 -300 120 -55 0 -74 7 -251
95 -176 87 -195 95 -249 95 -52 0 -74 7 -181 60 -107 53 -129 60 -180 60 -53
0 -74 8 -240 90 -170 85 -185 90 -244 90 -61 0 -71 4 -360 150 -282 143 -300
150 -355 150 -54 0 -74 7 -241 90 -166 82 -186 90 -239 90 -52 0 -74 7 -181
60 -107 53 -129 60 -180 60 -53 0 -74 8 -240 90 -166 83 -186 90 -240 90 -57
0 -76 8 -609 275 l-551 275 -67 0 -66 0 -418 210 c-405 204 -419 210 -477 210
-57 0 -74 7 -301 120 -235 117 -243 120 -307 120 -63 0 -72 3 -250 95 -171 88
-188 95 -243 95 -54 0 -74 7 -241 90 -165 82 -186 90 -238 90 -52 0 -76 9
-237 87 -161 77 -187 87 -254 93 -64 5 -92 15 -189 63 -99 50 -121 57 -172 57
-51 0 -73 8 -180 60 -106 52 -129 60 -179 60 -50 0 -71 7 -173 60 -107 55
-122 60 -181 60 -51 0 -78 6 -128 30 -45 21 -78 30 -115 30 -36 0 -70 9 -115
30 -59 28 -70 30 -185 30 -114 0 -125 2 -185 30 -63 30 -64 30 -240 30 -175 0
-177 0 -240 30 l-63 30 -420 0 -420 0 -63 -30z m723 -1950 c47 -20 87 -30 122
-30 36 0 70 -9 115 -30 47 -22 77 -30 120 -30 42 0 72 -8 120 -30 47 -22 77
-30 120 -30 42 0 72 -8 120 -30 47 -23 77 -30 121 -30 50 0 72 -7 170 -57 95
-48 123 -57 187 -63 45 -5 99 -18 135 -33 41 -18 78 -27 117 -27 49 0 74 -8
179 -60 107 -53 129 -60 180 -60 53 0 74 -8 240 -90 165 -82 186 -90 239 -90
52 0 71 -7 184 -65 117 -60 130 -65 190 -65 62 0 74 -5 247 -90 166 -83 186
-90 240 -90 53 0 73 -7 240 -90 166 -82 186 -90 239 -90 52 0 74 -7 181 -60
106 -52 129 -60 180 -60 51 0 73 -8 180 -60 107 -53 129 -60 180 -60 53 0 74
-8 240 -90 166 -82 186 -90 240 -90 54 0 74 -8 293 -117 224 -111 239 -117
313 -123 77 -6 83 -9 434 -188 346 -176 359 -182 417 -182 55 0 74 -7 237 -87
162 -79 183 -87 253 -93 73 -6 89 -12 310 -123 216 -108 238 -117 290 -117 52
0 73 -8 234 -90 168 -85 181 -90 241 -90 61 0 71 -4 426 -180 349 -173 366
-180 424 -180 57 0 71 -6 304 -125 237 -122 246 -125 308 -125 62 0 73 -4 305
-120 226 -112 245 -120 300 -120 52 0 74 -7 181 -60 106 -52 129 -60 179 -60
53 0 75 -8 235 -87 156 -76 185 -87 248 -93 64 -6 91 -16 245 -93 160 -80 179
-87 233 -87 52 0 73 -7 172 -57 96 -48 123 -57 187 -63 67 -6 94 -16 255 -93
161 -78 185 -87 237 -87 49 0 73 -8 179 -60 107 -53 129 -60 181 -60 56 0 72
-6 244 -95 171 -88 188 -95 243 -95 51 0 74 -8 177 -57 101 -48 130 -58 194
-63 69 -6 90 -14 248 -93 159 -80 179 -87 233 -87 53 0 73 -8 240 -90 166 -82
186 -90 239 -90 52 0 74 -7 181 -60 107 -53 129 -60 180 -60 53 0 74 -8 240
-90 166 -83 186 -90 240 -90 53 0 73 -7 240 -90 165 -82 186 -90 239 -90 51 0
74 -8 175 -57 101 -49 126 -57 193 -63 73 -5 87 -11 255 -98 166 -85 183 -92
237 -92 52 0 74 -7 181 -60 106 -52 129 -60 179 -60 53 0 75 -8 235 -87 162
-79 183 -87 253 -93 67 -6 92 -14 191 -63 99 -50 121 -57 172 -57 53 0 74 -8
240 -90 163 -81 186 -90 237 -90 51 0 73 -8 228 -87 160 -81 176 -87 250 -93
77 -6 87 -10 372 -153 277 -139 296 -147 352 -147 56 0 77 -10 651 -296 573
-286 596 -299 664 -363 64 -60 95 -78 360 -210 259 -129 297 -152 355 -207 49
-45 96 -77 180 -119 87 -43 131 -73 180 -120 36 -34 90 -75 120 -90 37 -18 97
-69 185 -155 89 -87 148 -136 185 -155 71 -35 96 -59 126 -117 21 -41 24 -61
24 -150 l0 -103 -82 -82 c-77 -76 -95 -87 -258 -168 -151 -76 -184 -97 -245
-155 -88 -85 -118 -100 -194 -100 -59 0 -73 -7 -541 -240 l-480 -240 -66 0
c-66 0 -70 -2 -375 -155 -293 -148 -311 -155 -367 -155 -56 0 -75 -8 -363
-150 -292 -144 -306 -150 -366 -150 -59 0 -71 -5 -356 -150 -281 -143 -297
-150 -354 -150 -56 0 -76 -8 -427 -180 -458 -224 -407 -217 -662 -93 -161 77
-187 87 -254 93 -68 6 -91 14 -248 93 -153 77 -180 87 -227 87 -38 0 -71 8
-117 30 -47 22 -77 30 -120 30 -49 0 -73 8 -179 60 -106 52 -129 60 -180 60
-51 0 -73 8 -180 60 -106 52 -129 60 -179 60 -44 0 -74 7 -122 30 -47 22 -77
30 -120 30 -42 0 -72 8 -120 30 -47 22 -77 30 -120 30 -49 0 -73 8 -179 60
-110 54 -128 60 -184 60 -49 0 -77 7 -127 30 -47 22 -77 30 -120 30 -42 0 -72
8 -120 30 -47 22 -77 30 -120 30 -42 0 -72 8 -120 30 -59 28 -70 30 -185 30
-114 0 -125 2 -185 30 -47 22 -77 30 -120 30 -42 0 -72 8 -120 30 -47 22 -77
30 -120 30 -47 0 -70 7 -124 35 -53 28 -77 35 -124 35 -44 0 -74 7 -122 30
-59 28 -71 30 -180 30 -108 0 -120 2 -180 30 -49 23 -77 30 -125 30 -47 0 -76
7 -125 30 -47 22 -77 30 -120 30 -42 0 -72 8 -120 30 -59 28 -71 30 -180 30
-108 0 -120 2 -180 30 -47 22 -77 30 -120 30 -42 0 -72 8 -120 30 -47 22 -77
30 -120 30 -42 0 -72 8 -120 30 -49 23 -77 30 -125 30 -47 0 -76 7 -125 30
-47 22 -77 30 -120 30 -42 0 -72 8 -120 30 -47 22 -77 30 -120 30 -42 0 -72 8
-120 30 -47 23 -77 30 -121 30 -45 0 -70 7 -114 30 -43 23 -69 30 -114 30 -43
0 -73 7 -121 30 -49 23 -77 30 -125 30 -47 0 -76 7 -125 30 -47 22 -77 30
-120 30 -42 0 -72 8 -120 30 -59 28 -71 30 -180 30 -108 0 -120 2 -180 30 -47
22 -77 30 -120 30 -42 0 -72 8 -120 30 -47 22 -77 30 -120 30 -42 0 -72 8
-120 30 -49 23 -77 30 -125 30 -47 0 -76 7 -125 30 -45 21 -78 30 -115 30 -36
0 -70 9 -115 30 -59 28 -70 30 -185 30 -114 0 -125 2 -185 30 -47 22 -77 30
-120 30 -42 0 -72 8 -120 30 -47 22 -77 30 -120 30 -44 0 -72 8 -129 35 -71
34 -77 35 -190 35 -109 0 -121 2 -181 30 -47 22 -77 30 -120 30 -42 0 -72 8
-120 30 -47 22 -77 30 -120 30 -42 0 -72 8 -120 30 -47 22 -77 30 -120 30 -42
0 -72 8 -120 30 -47 22 -77 30 -120 30 -42 0 -72 8 -120 30 -49 23 -77 30
-125 30 -47 0 -76 7 -125 30 -59 28 -71 30 -180 30 -108 0 -120 2 -180 30 -47
22 -77 30 -120 30 -49 0 -73 8 -179 60 -106 52 -129 60 -179 60 -44 0 -74 7
-122 30 -48 23 -77 30 -122 30 -49 0 -68 5 -110 32 -41 25 -66 33 -126 38 -50
4 -93 15 -130 33 -40 19 -71 27 -112 27 -42 0 -73 8 -120 30 -49 23 -77 30
-125 30 -47 0 -76 7 -125 30 -47 23 -77 30 -121 30 -43 0 -71 7 -110 27 -35
18 -76 29 -127 33 -45 5 -99 18 -135 33 -41 18 -78 27 -117 27 -41 0 -73 8
-120 30 -47 22 -77 30 -120 30 -42 0 -72 8 -120 30 -47 22 -77 30 -120 30 -42
0 -72 8 -120 30 -47 22 -77 30 -120 30 -42 0 -72 8 -120 30 -47 22 -77 30
-120 30 -42 0 -72 8 -120 30 -59 28 -71 30 -180 30 -108 0 -120 2 -180 30 -47
22 -77 30 -120 30 -42 0 -72 8 -120 30 -59 28 -71 30 -180 30 -108 0 -120 2
-180 30 -59 28 -71 30 -180 30 -108 0 -120 2 -180 30 l-63 30 -242 0 -241 0
-64 30 -63 30 -305 0 -305 0 -63 -30 c-48 -23 -78 -30 -122 -30 -47 0 -72 -7
-136 -39 -110 -55 -257 -204 -308 -311 l-36 -74 0 -187 0 -187 40 -79 c32 -65
57 -97 137 -174 l98 -94 425 -214 c423 -213 425 -214 505 -221 75 -6 91 -12
253 -93 159 -79 179 -87 232 -87 44 0 74 -7 122 -30 47 -22 77 -30 120 -30 42
0 72 -8 120 -30 46 -22 77 -30 118 -30 48 0 71 -8 178 -62 108 -54 131 -62
200 -68 53 -5 94 -15 132 -33 40 -19 71 -27 112 -27 42 0 73 -8 120 -30 47
-22 77 -30 120 -30 42 0 72 -8 120 -30 47 -22 77 -30 120 -30 49 0 73 -8 179
-60 105 -52 129 -60 178 -60 40 0 77 -9 126 -30 50 -21 87 -30 127 -30 49 0
74 -8 179 -60 106 -52 129 -60 179 -60 44 0 74 -7 122 -30 47 -22 78 -30 119
-30 49 0 71 -8 172 -60 l117 -60 119 0 120 0 129 -60 c109 -51 137 -60 184
-60 42 0 73 -8 120 -30 47 -22 77 -30 120 -30 42 0 72 -8 120 -30 47 -22 77
-30 120 -30 42 0 72 -8 120 -30 47 -22 77 -30 120 -30 42 0 72 -8 120 -30 59
-28 70 -30 185 -30 114 0 125 -2 185 -30 47 -22 77 -30 120 -30 42 0 72 -8
120 -30 47 -22 77 -30 120 -30 42 0 72 -8 120 -30 47 -23 77 -30 121 -30 47 0
71 -7 124 -35 53 -28 77 -35 124 -35 43 0 73 -7 121 -30 49 -23 77 -30 125
-30 47 0 76 -7 125 -30 47 -22 77 -30 120 -30 42 0 72 -8 120 -30 47 -22 77
-30 120 -30 42 0 72 -8 120 -30 47 -22 77 -30 120 -30 42 0 72 -8 120 -30 59
-28 71 -30 180 -30 108 0 120 -2 180 -30 49 -23 77 -30 125 -30 47 0 76 -7
125 -30 47 -22 77 -30 120 -30 42 0 72 -8 120 -30 59 -28 71 -30 180 -30 l117
0 122 -60 c107 -53 129 -60 181 -60 46 0 70 -6 115 -30 53 -29 61 -30 179 -30
115 0 126 -2 186 -30 47 -22 77 -30 120 -30 42 0 72 -8 120 -30 59 -28 71 -30
180 -30 108 0 120 -2 180 -30 59 -28 71 -30 180 -30 108 0 120 -2 180 -30 59
-28 70 -30 185 -30 114 0 125 -2 185 -30 47 -22 77 -30 120 -30 42 0 72 -8
120 -30 47 -22 77 -30 120 -30 42 0 72 -8 120 -30 47 -22 77 -30 120 -30 42 0
72 -8 120 -30 47 -22 77 -30 120 -30 42 0 72 -8 120 -30 47 -22 78 -30 119
-30 40 0 74 -8 115 -27 39 -18 81 -28 124 -31 48 -3 83 -13 134 -38 54 -27 81
-34 126 -34 44 0 74 -7 122 -30 47 -22 77 -30 120 -30 42 0 72 -8 120 -30 47
-22 77 -30 120 -30 42 0 72 -8 120 -30 47 -22 77 -30 120 -30 42 0 72 -8 120
-30 49 -23 77 -30 125 -30 47 0 76 -7 125 -30 59 -28 71 -30 180 -30 108 0
120 -2 180 -30 47 -22 77 -30 120 -30 42 0 72 -8 120 -30 47 -22 77 -30 120
-30 42 0 72 -8 120 -30 47 -22 77 -30 120 -30 49 0 73 -8 179 -60 106 -52 129
-60 179 -60 44 0 74 -7 122 -30 48 -23 78 -30 123 -30 33 -1 70 -6 82 -13 21
-12 12 -18 -122 -85 -132 -66 -151 -72 -206 -72 -60 0 -72 -5 -481 -210 -415
-208 -420 -210 -483 -210 -63 0 -71 -3 -374 -155 -284 -142 -315 -155 -364
-155 -48 0 -78 -12 -298 -120 -231 -114 -247 -120 -306 -120 -60 0 -73 -5
-363 -150 -286 -143 -303 -150 -360 -150 -56 0 -72 -7 -296 -120 -228 -116
-239 -120 -300 -120 -61 0 -72 -4 -364 -150 -288 -144 -303 -150 -361 -150
-58 0 -71 -6 -357 -152 -285 -145 -300 -151 -372 -158 -73 -6 -89 -13 -614
-273 -506 -251 -542 -267 -594 -267 -50 0 -85 -15 -539 -240 -466 -231 -487
-240 -543 -240 -56 0 -76 -9 -548 -245 -478 -239 -491 -245 -550 -245 -59 0
-73 -6 -482 -210 -406 -203 -422 -210 -480 -210 -58 0 -74 -7 -600 -270 -538
-269 -541 -270 -604 -270 -63 0 -70 -3 -369 -155 -293 -149 -307 -155 -365
-155 -56 0 -73 -7 -241 -90 -172 -85 -185 -90 -245 -90 -61 0 -74 -5 -245 -90
-167 -83 -186 -90 -241 -90 -53 0 -72 -6 -174 -60 -105 -55 -120 -60 -178 -60
-49 0 -77 -7 -126 -30 -48 -22 -78 -30 -120 -30 -43 0 -73 -8 -120 -30 -48
-22 -78 -30 -120 -30 -43 0 -73 -8 -120 -30 -48 -22 -78 -30 -120 -30 -43 0
-73 -8 -120 -30 -48 -22 -78 -30 -120 -30 -43 0 -73 -8 -120 -30 l-64 -30
-608 0 -608 0 -64 30 c-59 28 -71 30 -180 30 -108 0 -120 2 -180 30 -59 28
-71 30 -179 30 l-116 0 -129 60 c-105 49 -139 60 -181 60 -43 0 -72 10 -174
60 -107 53 -129 60 -180 60 -53 0 -74 8 -240 90 -165 82 -186 90 -238 90 -52
0 -76 9 -237 87 -161 77 -187 87 -254 93 -71 6 -90 14 -371 153 -265 132 -301
147 -347 147 -44 0 -75 12 -233 90 -171 85 -185 90 -244 90 -58 0 -76 6 -186
60 -108 53 -129 60 -181 60 -56 0 -76 8 -307 120 -225 110 -251 120 -302 120
-52 0 -74 9 -302 125 -232 118 -249 125 -305 125 -54 0 -75 8 -238 87 -161 78
-186 87 -254 93 -72 6 -87 12 -426 183 -330 166 -355 177 -407 177 -52 0 -80
12 -364 150 -287 140 -311 150 -365 150 -53 0 -75 9 -298 120 -227 113 -245
120 -301 120 -56 0 -74 8 -429 185 -356 178 -373 185 -430 185 -57 0 -74 7
-360 150 -294 146 -303 150 -365 150 -62 0 -70 3 -358 150 -291 148 -296 150
-361 150 -64 0 -72 3 -306 120 -228 113 -245 120 -302 120 -57 0 -72 6 -307
125 -237 120 -250 125 -309 125 -58 0 -73 6 -302 120 -226 112 -245 120 -300
120 -54 0 -74 7 -241 90 -165 82 -186 90 -238 90 -52 0 -76 9 -237 87 -150 72
-189 87 -239 90 -51 4 -86 18 -237 94 -169 85 -181 89 -243 89 -62 0 -72 4
-305 120 -226 112 -245 120 -300 120 -52 0 -74 7 -181 60 -106 52 -129 60
-180 60 -51 0 -73 8 -180 60 -106 52 -129 60 -180 60 -51 0 -73 8 -190 65
-116 57 -138 65 -190 65 -51 0 -73 8 -180 60 -107 53 -129 60 -180 60 -53 0
-74 8 -240 90 -171 85 -184 90 -245 90 -61 0 -72 4 -304 120 -223 111 -246
120 -298 120 -52 0 -73 8 -234 90 -164 83 -182 90 -236 90 -55 0 -77 8 -308
120 -229 111 -253 120 -306 120 -52 0 -74 8 -239 90 -163 81 -186 90 -237 90
-51 0 -73 8 -244 95 -175 88 -192 95 -247 95 -56 0 -74 7 -242 90 -166 83
-186 90 -240 90 -54 0 -76 8 -247 90 -168 81 -193 90 -244 90 -52 0 -74 8
-239 90 -166 83 -186 90 -240 90 -53 0 -73 7 -240 90 -166 83 -186 90 -240 90
-55 0 -74 8 -299 120 -231 115 -244 120 -304 120 -59 0 -72 5 -311 125 -233
116 -254 125 -308 125 -53 0 -74 8 -280 111 -194 97 -230 119 -287 174 -36 34
-92 76 -125 93 -39 20 -89 60 -142 114 -66 67 -91 102 -131 183 l-50 100 53
105 c50 99 62 113 197 247 137 135 148 144 258 198 88 44 130 72 181 122 66
63 83 72 1195 628 1127 564 1129 565 1191 565 60 0 72 5 373 155 282 141 315
155 363 155 47 0 80 13 301 120 230 111 253 120 307 120 54 0 74 8 299 120
227 113 244 120 301 120 56 0 72 6 236 90 166 85 178 90 239 90 62 0 70 3 424
180 346 173 363 180 420 180 57 0 74 7 430 185 355 177 373 185 430 185 56 0
73 7 352 147 281 141 296 147 368 153 71 6 90 13 312 123 215 106 242 117 291
117 49 0 75 10 236 90 166 82 187 90 239 90 54 0 76 9 303 120 231 113 247
120 306 120 57 0 74 6 242 90 167 83 187 90 241 90 55 0 71 6 237 92 166 86
183 93 253 99 68 5 92 14 254 92 161 78 185 87 237 87 52 0 73 8 238 90 167
83 187 90 241 90 55 0 74 7 299 120 227 113 244 120 300 120 59 0 74 7 533
237 469 235 474 237 551 243 76 6 85 10 376 158 287 146 301 152 359 152 56 0
73 7 234 87 159 80 179 87 249 93 73 6 89 12 372 153 273 135 300 147 351 147
50 0 75 10 288 117 221 111 237 117 310 123 75 6 85 11 502 218 394 196 430
212 479 212 49 0 81 13 358 150 291 144 307 150 366 150 57 0 74 6 242 90 168
83 186 90 242 90 57 0 72 6 294 119 222 112 238 119 304 123 64 3 84 11 246
91 161 79 181 87 235 87 53 0 73 8 239 90 167 83 187 90 240 90 55 0 74 8 250
95 176 87 196 95 250 95 51 0 73 7 180 60 107 53 129 60 181 60 53 0 73 8 239
90 166 82 187 90 240 90 51 0 73 7 180 60 109 54 129 60 184 60 48 0 76 7 125
30 48 23 78 30 122 30 50 0 73 8 179 60 106 52 130 60 179 60 43 0 73 8 120
30 62 29 69 30 205 30 136 0 144 1 202 29 l60 29 305 1 306 1 69 -30z m-14325
-15330 c65 -6 91 -14 189 -63 99 -50 122 -57 172 -57 43 0 73 -7 121 -30 47
-22 77 -30 120 -30 49 0 73 -8 179 -60 106 -52 129 -60 179 -60 51 0 76 -9
246 -90 163 -78 195 -90 241 -90 46 0 75 -11 234 -90 166 -83 186 -90 240 -90
55 0 74 -8 353 -147 282 -140 299 -147 363 -150 67 -3 79 -9 668 -305 l600
-301 80 -7 c79 -6 85 -9 371 -153 270 -136 296 -147 346 -147 51 0 79 -12 354
-147 285 -140 302 -147 374 -153 74 -5 83 -10 494 -218 410 -207 421 -212 481
-212 58 0 73 -6 364 -150 289 -143 307 -150 364 -150 57 0 72 -6 354 -150 289
-147 296 -150 359 -150 60 0 73 -5 245 -90 166 -83 186 -90 240 -90 53 0 73
-7 240 -90 165 -82 186 -90 238 -90 52 0 76 -9 237 -87 156 -75 187 -87 244
-91 58 -4 86 -15 253 -98 174 -87 192 -94 247 -94 56 0 74 -7 300 -120 233
-116 244 -120 305 -120 61 0 74 -5 246 -90 166 -83 186 -90 240 -90 55 0 72
-6 233 -90 163 -84 179 -90 235 -90 55 0 74 -7 235 -87 162 -80 182 -87 253
-93 68 -6 93 -14 192 -63 99 -50 121 -57 172 -57 51 0 73 -8 180 -60 106 -52
129 -60 179 -60 44 0 74 -7 122 -30 59 -28 71 -30 179 -30 106 0 122 -3 175
-27 39 -18 81 -28 124 -31 48 -3 83 -13 134 -38 l69 -34 177 0 c177 0 179 0
242 -30 l63 -30 235 0 236 0 69 -30 70 -29 295 -1 295 0 63 30 64 30 236 0
237 0 63 30 c60 28 72 30 181 30 113 0 119 1 190 35 54 26 86 35 124 35 37 0
70 9 115 30 50 23 78 30 127 30 56 0 74 6 184 60 107 53 129 60 181 60 53 0
73 8 239 90 165 82 187 90 239 90 53 0 76 9 303 120 228 111 251 120 304 120
54 0 74 8 296 120 225 113 241 120 297 120 55 0 74 7 234 87 162 81 178 87
253 93 79 7 84 9 440 188 340 171 364 181 425 185 62 3 90 16 720 329 620 308
658 326 720 330 61 4 96 20 544 241 450 223 482 237 534 237 52 0 79 12 425
185 363 182 371 185 433 185 64 0 64 0 721 330 653 328 658 330 719 330 61 0
73 5 364 150 284 142 304 150 359 150 54 0 74 8 250 95 174 86 197 95 249 95
39 0 73 8 109 24 59 28 63 26 102 -51 19 -38 21 -59 21 -220 0 -177 0 -178 30
-241 30 -63 30 -65 30 -240 0 -176 0 -177 30 -240 30 -64 30 -64 30 -245 0
-181 0 -182 30 -245 l30 -64 0 -296 0 -297 30 -63 30 -64 0 -361 0 -362 30
-63 30 -64 0 -1318 0 -1318 -27 -58 c-25 -52 -29 -74 -33 -194 -5 -120 -9
-141 -33 -190 -20 -41 -27 -70 -27 -114 0 -57 -7 -73 -176 -405 -154 -302
-184 -354 -234 -406 -32 -34 -71 -88 -88 -120 -25 -48 -84 -114 -304 -332
l-273 -272 -229 -111 c-208 -101 -234 -116 -296 -176 -67 -65 -80 -72 -1067
-566 -988 -496 -999 -501 -1073 -508 -69 -6 -93 -16 -314 -123 -220 -108 -244
-117 -296 -117 -50 0 -73 -8 -179 -60 -107 -53 -129 -60 -181 -60 -52 0 -73
-7 -189 -65 -110 -55 -137 -65 -182 -65 -43 0 -75 -11 -181 -60 -110 -51 -138
-60 -186 -60 -43 0 -73 -8 -120 -30 -48 -22 -78 -30 -120 -30 -43 0 -73 -8
-120 -30 -48 -22 -78 -30 -120 -30 -43 0 -73 -8 -120 -30 -60 -28 -72 -30
-180 -30 -109 0 -121 -2 -180 -30 -49 -23 -78 -30 -125 -30 -48 0 -76 -7 -125
-30 -48 -22 -78 -30 -120 -30 -43 0 -73 -8 -120 -30 -60 -28 -72 -30 -180 -30
-109 0 -121 -2 -180 -30 -48 -22 -78 -30 -120 -30 -43 0 -73 -8 -120 -30 -60
-28 -71 -30 -181 -30 -112 0 -121 -2 -174 -30 -54 -28 -63 -30 -174 -30 -110
0 -122 -2 -181 -30 -48 -22 -78 -30 -120 -30 -43 0 -73 -8 -120 -30 -60 -28
-71 -30 -185 -30 -115 0 -126 -2 -185 -30 -60 -28 -72 -30 -180 -30 -109 0
-121 -2 -180 -30 -60 -28 -71 -30 -185 -30 -115 0 -126 -2 -185 -30 -63 -30
-65 -30 -240 -30 -176 0 -177 0 -240 -30 -63 -30 -65 -30 -240 -30 -176 0
-177 0 -240 -30 l-64 -30 -301 0 -302 0 -63 -30 -64 -30 -296 0 -297 -1 -70
-29 -69 -30 -1142 0 -1142 0 -58 28 -59 27 -555 5 -555 5 -55 27 -55 28 -242
0 -241 0 -64 30 c-63 30 -64 30 -240 30 -175 0 -177 0 -240 30 l-63 30 -242 0
-241 0 -64 30 c-59 28 -71 30 -180 30 -108 0 -120 2 -180 30 -63 30 -64 30
-240 30 -175 0 -177 0 -240 30 -63 30 -64 30 -245 30 -181 0 -181 0 -245 30
-59 28 -71 30 -179 30 -105 0 -122 3 -175 27 -36 16 -86 29 -129 33 -44 4 -90
16 -125 33 -49 24 -66 27 -167 27 -103 0 -116 2 -175 30 -49 23 -77 30 -125
30 -47 0 -76 7 -125 30 -47 22 -77 30 -120 30 -42 0 -72 8 -120 30 -47 22 -77
30 -120 30 -42 0 -72 8 -120 30 -49 23 -77 30 -125 30 -55 0 -75 6 -184 60
-106 52 -129 60 -179 60 -44 0 -74 7 -122 30 -47 22 -77 30 -120 30 -42 0 -72
8 -120 30 -47 22 -77 30 -120 30 -42 0 -72 8 -120 30 -47 22 -77 30 -120 30
-42 0 -72 8 -120 30 -46 22 -78 30 -119 30 -49 0 -71 8 -182 65 -114 59 -133
65 -186 65 -53 0 -74 7 -182 60 -110 54 -128 60 -185 60 -57 0 -75 6 -185 60
-107 53 -129 60 -180 60 -55 0 -74 8 -299 120 -233 116 -244 120 -306 120
l-64 0 -1073 536 c-1031 515 -1074 538 -1132 595 -33 32 -88 73 -121 91 -46
25 -99 72 -211 188 -84 86 -160 175 -173 200 -13 25 -51 74 -85 110 -35 36
-77 94 -95 130 -18 35 -58 91 -90 125 -46 48 -74 93 -139 222 -73 147 -81 168
-81 220 0 44 -7 74 -30 121 -28 60 -30 72 -30 180 0 109 -2 121 -30 180 l-30
64 0 239 0 239 30 57 30 56 0 543 0 542 30 64 30 63 0 362 0 361 30 64 c30 63
30 63 30 248 0 185 0 185 -30 248 l-30 64 0 961 0 962 -30 63 -30 64 0 478 0
478 30 64 c28 59 30 71 30 180 0 108 2 120 30 180 30 63 30 64 30 240 0 175 0
177 30 240 22 47 30 77 30 120 l0 57 117 -57 c100 -47 129 -57 193 -62z
m32892 -4020 c41 -20 79 -30 108 -30 45 0 47 -1 182 -137 l137 -138 80 -156
81 -156 0 -187 0 -186 -46 -93 c-36 -73 -63 -109 -127 -174 -79 -81 -83 -83
-129 -83 -39 0 -70 -12 -170 -64 l-123 -63 -60 28 c-44 21 -75 29 -117 29 -50
0 -71 7 -165 56 -86 45 -125 74 -191 138 -79 76 -88 90 -168 248 l-84 168 0
175 0 175 54 108 c49 96 65 117 158 208 82 80 112 103 148 114 25 7 61 21 80
31 29 15 58 18 162 19 120 0 129 -1 190 -30z m278 -3270 c5 -10 10 -45 10 -77
0 -44 7 -74 30 -121 23 -49 30 -78 30 -125 0 -48 7 -76 30 -125 28 -60 30 -71
30 -181 0 -112 2 -121 30 -174 28 -54 30 -63 30 -174 0 -110 2 -122 30 -181
22 -48 30 -78 30 -120 0 -43 8 -73 30 -120 28 -60 30 -71 30 -185 0 -115 2
-126 30 -185 28 -60 30 -72 30 -180 0 -109 2 -121 30 -180 28 -60 30 -72 30
-180 0 -109 2 -121 30 -180 28 -60 30 -72 30 -180 0 -109 2 -121 30 -180 28
-60 30 -71 30 -185 0 -115 2 -126 30 -185 28 -60 30 -72 30 -180 0 -109 2
-121 30 -180 28 -60 30 -72 30 -180 0 -109 2 -121 30 -180 28 -59 30 -72 30
-180 0 -104 3 -123 27 -177 23 -52 27 -78 32 -195 6 -129 7 -137 39 -191 26
-46 32 -67 32 -115 0 -45 7 -74 30 -122 28 -60 30 -72 30 -180 0 -109 2 -121
30 -180 22 -48 30 -78 30 -120 0 -43 8 -73 30 -120 28 -60 30 -71 30 -185 0
-115 2 -126 30 -185 22 -48 30 -78 30 -120 0 -43 8 -73 30 -120 22 -48 30 -78
30 -120 0 -43 8 -73 30 -120 22 -48 30 -78 30 -120 0 -43 8 -73 30 -120 28
-60 30 -71 30 -185 0 -115 2 -126 30 -185 32 -68 39 -140 19 -185 -6 -14 -39
-37 -85 -60 -60 -30 -86 -37 -132 -37 -45 0 -73 -8 -131 -35 l-73 -35 -228 0
-228 0 -73 35 c-71 34 -77 35 -190 35 -109 0 -121 2 -181 30 l-63 30 -567 0
-568 0 0 354 0 354 30 64 30 63 0 422 0 421 30 64 30 63 0 238 0 238 28 52
c27 52 27 53 32 307 6 249 6 256 33 315 26 60 27 62 27 297 l0 236 30 64 c30
63 30 64 30 240 0 175 0 177 30 240 28 59 30 70 30 185 0 121 1 124 35 189 34
64 35 69 35 179 0 105 2 118 30 177 28 59 30 70 30 185 0 114 2 125 30 185 23
47 30 77 30 121 0 43 7 71 27 110 18 35 29 76 33 127 5 45 18 99 33 135 24 53
27 73 27 177 0 108 2 121 30 180 28 59 30 71 30 180 0 108 2 120 30 180 28 59
30 71 30 180 0 108 2 120 30 180 30 63 30 63 30 248 0 102 4 190 8 196 15 22
52 34 109 34 43 0 73 7 118 29 64 30 85 28 105 -9z"/>
</g></g></svg>