<svg xmlns="http://www.w3.org/2000/svg" width="1000" height="1000" viewBox="0 0 1000 1000"><path fill="#141413" d="M489.8 162.8c-1.2.6-1.3.6-4.8.6-3.4 0-3.5 0-4.9.6q-1.4.6-2.5.6a5 5 0 0 0-2.4.6 5 5 0 0 1-2.4.6c-1 0-1.5.2-3.6 1.2s-2.6 1.2-3.6 1.2-1.4.1-3.7 1.3c-2.2 1.2-2.6 1.3-3.6 1.3s-1.5.2-3.7 1.2-2.8 1.2-3.8 1.2c-1.1 0-1.5.2-6 2.4-4.5 2.3-4.9 2.4-6 2.4s-1.5.1-6 2.4-4.9 2.4-6 2.4-1.5.1-4.8 1.8-3.7 1.8-4.8 1.8-1.5.1-5.8 2.3c-4.4 2.2-4.8 2.4-6.2 2.5s-1.8.2-7.6 3.2c-5.7 2.8-6.2 3-7.2 3-1.1 0-1.5.2-7.2 3-5.9 3-6 3-7.3 3s-1.4 0-9.7 4.2c-8.1 4-8.4 4.2-9.6 4.2s-1.4.1-8.4 3.6c-6.9 3.4-7.3 3.6-8.4 3.6s-1.5.1-7.4 3.1-6.3 3.1-7.4 3.1-1.5.1-5.8 2.3c-4.4 2.2-4.8 2.4-6.2 2.5s-1.8.3-6.2 2.5c-4.3 2-4.9 2.3-5.9 2.3s-1.5.2-4.7 1.8-3.7 1.8-4.8 1.8-1.5.1-4.8 1.8c-3.4 1.7-3.7 1.8-4.9 1.8s-1.4 0-7.5 3.1c-5.7 2.9-6.2 3.1-7.3 3.1s-1.5.2-5.9 2.4c-4.6 2.3-4.9 2.4-6 2.4-1.3 0-1.6.1-5 1.8-3.3 1.6-3.7 1.8-4.8 1.8s-1.4.1-3.6 1.2c-2.1 1-2.6 1.2-3.6 1.2s-1.5.2-3.6 1.2c-2 1-2.6 1.2-3.5 1.2s-1.4.2-3.5 1.2-2.6 1.2-3.6 1.2-1.5.2-6 2.4c-4.7 2.2-5.1 2.4-6.2 2.4-1 0-1.5.2-4.8 1.8s-3.7 1.8-4.8 1.8-1.4.1-4.8 1.8c-3.3 1.8-3.6 1.9-5 2s-1.9.3-3.9 1.3-2.5 1.1-3.5 1.1-1.5.2-3.6 1.2-2.6 1.2-3.6 1.2-1.5.1-4.6 1.7c-3.2 1.6-3.6 1.8-5 1.9s-1.8.3-6.2 2.5c-4.3 2.1-4.7 2.3-5.8 2.3s-1.5.2-6 2.4c-4.5 2.3-4.9 2.4-6 2.4-1.2 0-1.5.1-11 4.9s-9.7 4.9-11 4.9c-1.1 0-1.4.1-6 2.4s-4.9 2.4-6.1 2.4-1.4 0-6.1 2.4c-4.4 2.2-4.9 2.4-5.9 2.4s-1.7.3-10.8 4.8c-9.3 4.6-9.7 4.8-10.8 4.8s-1.6.2-18.5 8.6c-17.2 8.6-17.2 8.6-18.7 10a19 19 0 0 1-6 3.6 19 19 0 0 0-5.9 3.5c-1 1-1.9 1.5-3.6 2.4s-2.6 1.4-3.7 2.5q-1.4 1.3-2.5 1.9a93 93 0 0 0-16.8 18l-.6 1.3v32l.8 1.6a32 32 0 0 0 6.3 7l5.6 5.6 2.3 1c1.7.8 2.6 1.5 3.6 2.4 1.6 1.5 2.1 1.8 33.3 17.4 21.6 10.7 22 10.9 23 10.9 1.2 0 1.6.1 6 2.3s4.8 2.4 6.3 2.5c1.4.1 1.7.2 6.2 2.5s4.7 2.3 5.8 2.3c1.2 0 1.5.1 7 3 5.6 2.8 5.7 2.9 7.3 3s1.8.2 6.3 2.5c4.3 2.2 4.7 2.3 5.8 2.3s1.5.2 8.6 3.7 7.5 3.7 8.6 3.7 1.5.1 4.8 1.8 3.7 1.8 4.8 1.8 1.5.2 6 2.4c4.7 2.3 4.9 2.4 6.1 2.4 1.3 0 1.5 0 5 2 2.1 1 4 2 4.1 2.2.4.4.3.5-.2 1.7l-.6 1.2v12l-.6 1.2-.6 1.3v12l-.6 1.3-.6 1.3v14.5l-.6 1.2-.6 1.3v19.3l-.6 1.2-.6 1.3v31.3l-.6 1.2-.6 1.3v14.5l-.6 1.2-.6 1.3v9.5l-.6 1.2-.6 1.3v26.8l.6 1.3.6 1.2v12l.6 1.3c.6 1.2.6 1.2.6 4.9 0 3.6 0 3.6.6 4.9a5 5 0 0 1 .6 2.4c0 1.2.1 1.5 3.7 8.7 3.4 6.6 4 7.5 5 8.7l1.9 2.5c.5 1 2 2.5 7.5 8l6.8 6.9 2.3 1.1c1.7.9 2.6 1.4 3.6 2.4 1.3 1.2 1.9 1.5 17.4 9.3 15.7 7.8 16 8 17.2 8s1.5.2 5.9 2.3c4.3 2.2 4.8 2.4 6.2 2.5 1.2.1 1.8.3 4.9 1.9s3.5 1.7 4.6 1.7 1.5.1 3.6 1.2 2.6 1.2 3.6 1.2 1.5.2 6 2.3c4.4 2.2 4.8 2.4 6.2 2.5 1.3.1 1.8.3 3.8 1.3s2.4 1.1 3.4 1.1 1.4.1 3.7 1.3c2.2 1.2 2.6 1.3 3.7 1.3 1 0 1.5.1 3.5 1.1s2.6 1.2 3.9 1.3 1.8.3 3.8 1.3 2.4 1.1 3.4 1.1a5 5 0 0 1 2.4.6 5 5 0 0 0 2.4.6c1 0 1.5.2 3.6 1.2s2.6 1.2 3.6 1.2a5 5 0 0 1 2.4.6 5 5 0 0 0 2.5.6q1.3 0 2.5.6 1.4.6 2.3.6 1 0 2.3.6a5 5 0 0 0 2.4.6q1.2 0 2.4.6a5 5 0 0 0 2.4.6q1.2 0 2.4.6 1.3.7 2.5.6t2.2.5 2.5.7q1.5.2 2.7.7c1 .4 1.5.5 3.5.5 2.2 0 2.5 0 3.6.6s1.5.6 3.6.6c2.2 0 2.4 0 3.6.6s1.3.6 4.8.6 3.6 0 4.8.6c1.3.6 1.3.6 5 .6 3.6 0 3.6 0 4.8.6 1.3.6 1.3.6 4.8.6s3.6 0 4.8.6q1.3.7 2.5.6c.9 0 1.4.1 2.4.7 1.3.7 1.4.7 3.8.7 2.3 0 2.5 0 3.7.6s1.3.6 4.8.6 3.6 0 4.8.6c1.3.6 1.3.6 4.8.6s3.6 0 4.8.6l1.3.6h12l1.3.6 1.3.6h19.3l1.2.6 1.3.6h40.8l1.3-.6 1.2-.6h16.7l1.2-.6 1.2-.5 8.7-.1 8.7-.1 1-.6 1-.5h9.6l1.3-.6 1.2-.6h9.7l1.3-.6c1.2-.6 1.4-.6 3.6-.6s2.4 0 3.7-.7 1.4-.7 3.7-.7c2.1 0 2.4 0 3.6-.6s1.4-.6 3.7-.6 2.5 0 3.7-.6c1-.4 1.5-.6 2.4-.6a5 5 0 0 0 2.4-.6c1.2-.6 1.4-.6 3.6-.6 2.1 0 2.4 0 3.6-.6 1-.4 1.5-.6 2.4-.6a5 5 0 0 0 2.4-.6c1.2-.6 1.4-.6 3.6-.6 2.1 0 2.4 0 3.6-.6 1-.5 1.5-.6 2.5-.6a5 5 0 0 0 2.5-.6c1-.4 1.5-.6 2.4-.6a5 5 0 0 0 2.4-.6c1-.4 1.5-.6 2.4-.6a5 5 0 0 0 2.4-.6c1-.4 1.5-.6 2.4-.6a5 5 0 0 0 2.4-.6q1.2-.6 2.3-.6t2.3-.6 2.4-.6q1 0 2.3-.5t2.7-.7c1.3-.1 1.8-.3 3.7-1.3s2.4-1.1 3.4-1.1 1.5-.1 2.5-.6a5 5 0 0 1 2.4-.6c1 0 1.5-.2 3.6-1.2s2.6-1.2 3.6-1.2 1.5-.2 3.7-1.2 2.7-1.2 3.7-1.2q1 0 2.4-.6a5 5 0 0 1 2.4-.6c1 0 1.4-.1 3.6-1.3s2.7-1.3 3.7-1.3c1.1 0 1.5-.1 3.5-1.1s2.5-1.2 3.8-1.3 1.9-.3 5-1.9c3.3-1.5 3.8-1.7 4.8-1.7 1.1 0 1.5-.2 6-2.4s4.9-2.4 6-2.4 1.5-.2 7.4-3.1c5.7-2.9 6.4-3.3 7.6-4.4 1.1-1 1.9-1.5 5.2-3.2a88 88 0 0 0 18-10.2 16 16 0 0 0 3.6-2.4q1.3-1.2 2.5-1.9a93 93 0 0 0 24.4-31.2c4.8-9.6 5-10 5.1-11.4q.2-1.5.7-2.7t.5-2.3.6-2.4q.7-1.3.6-2.5t.6-2.2c.6-1.1.6-1.3.6-3.6s0-2.5.6-3.7l.6-1.3V645l.6-1.2.6-1.3v-24.4l-.6-1.3-.6-1.2v-14.3l-.6-1.3-.6-1.2v-12.1l-.6-1.2-.6-1.1v-21.7l-.6-1.3-.6-1.2v-6c0-6 0-6.1-.5-7.2-.5-1-.5-1.3-.5-3.6 0-2.4 0-2.6-.6-3.8s-.6-1.3-.6-4.8 0-3.5-.6-4.8c-.5-1-.6-1.5-.6-2.5s.1-1.5.6-2.5c.6-1.3.6-1.3.6-4.8 0-3.4 0-3.6.5-4.7a8 8 0 0 0 .7-2.7c.1-1.8.3-2.1 2-3.9l1.7-2q.4-.6 1-1l2-1.7q1.5-1.4 3.2-2.3c1.7-.8 2-.9 3.2-.9s1.4 0 6.1-2.4c4.5-2.3 4.9-2.4 6-2.4 1.2 0 1.5-.1 8.6-3.7s7.3-3.7 8.5-3.7 1.5 0 10.7-4.7l9.5-4.7.1.3.6 1.7c.4 1 .6 1.5.6 2.4q0 1 .6 2.4c.6 1.2.6 1.4.6 3.7s0 2.5.6 3.7c.4 1 .6 1.5.6 2.4q0 1 .6 2.4c.6 1.2.6 1.3.6 4.8s0 3.5.6 4.8l.6 1.2v9.7l.6 1.3.6 1.2v19.1l.5 1.2c.6 1.1.6 1.4.7 5v3.7l-.8 1.6-.8 1.6-3 1.5a15 15 0 0 0-4.4 2.8q-1.2 1.2-2.5 1.9a63 63 0 0 0-16.2 19.6c-2.3 4.7-2.5 5.2-2.5 6.2q0 1.2-.6 2.4a5 5 0 0 0-.6 2.4q0 1.2-.6 2.4l-.6 1.3v11.8l.6 1.3c.6 1.2.6 1.4.6 3.6v2.3l1.1 2.3c1 2 1.2 2.5 1.3 3.9s.3 1.8 2.5 6.4l2.4 4.8 2.6 2.7c2.4 2.4 2.8 2.9 3.7 4.7 1.2 2.6 1.3 3.6.4 5.5a5 5 0 0 0-.6 2.4c0 1-.2 1.5-1.2 3.6s-1.2 2.6-1.2 3.6a5 5 0 0 1-.6 2.4c-.6 1.2-.6 1.4-.6 3.7s0 2.5-.6 3.7q-.6 1.4-.6 2.3 0 1-.7 2.5c-.7 1.4-.7 1.6-.7 3.8s0 2.4-.6 3.6-.6 1.5-.6 3.6c0 2.2 0 2.4-.6 3.6s-.6 1.4-.6 3.7 0 2.5-.6 3.7-.6 1.3-.6 4.8 0 3.6-.6 4.8-.6 1.5-.6 3.6c0 2.2 0 2.4-.6 3.6l-.6 1.3v9.7l-.6 1.2c-.6 1.2-.6 1.5-.6 3.7 0 2.1 0 2.4-.5 3.4s-.6 1-.7 6.1-.1 5.1-.7 6.3-.5 1.2-.5 6v4.7l-.6 1.2c-.6 1.3-.6 1.3-.6 4.9v3.5l-.6 1.1-.6 1.2v12l-.6 1.3-.6 1.3v48.5l2 3.9c1.8 3.7 2 3.9 3.9 5.9 2 2 2.1 2 4.8 3.4l2.7 1.4h16.9l1.3-.6c1.2-.6 1.4-.6 3.6-.6 2.1 0 2.4 0 3.6-.6 1-.4 1.5-.6 2.4-.6a5 5 0 0 0 2.4-.6l1.2-.6h19.4l1.2.6c1.3.6 1.3.6 5 .6 3.6 0 3.6 0 4.8.6l1.3.6h21.4l1.3-.6c1-.4 1.5-.6 2.4-.6a5 5 0 0 0 2.4-.6c1-.4 1.5-.6 2.4-.6s1.4-.2 2.6-.7q1.5-.8 2.6-.7c1.1 0 1.5-.2 6.2-2.5l5.1-2.5 4.4-4.4c3.9-3.9 4.4-4.5 5.1-5.9.6-1.2.8-1.8.8-2.6q0-1 .6-2.3c.6-1.3.6-1.3.6-5s0-3.7-.6-5c-.4-1-.6-1.5-.6-2.4a5 5 0 0 0-.6-2.4c-.5-1-.6-1.5-.6-2.5 0-1.1-.1-1.5-1.2-3.7-1-2.1-1.2-2.6-1.2-3.6a5 5 0 0 0-.6-2.4 5 5 0 0 1-.6-2.4q0-1.1-.6-2.3c-.6-1.2-.6-1.3-.6-2.4s-.1-1.5-1.2-3.7l-1.2-2.4v-2.4c0-2.1 0-2.4-.6-3.6-.5-1-.6-1.5-.6-2.5a5 5 0 0 0-.6-2.5c-.4-1-.6-1.5-.6-2.4a5 5 0 0 0-.6-2.4c-.4-1-.6-1.5-.6-2.4a5 5 0 0 0-.6-2.4c-.4-1-.6-1.5-.6-2.4a5 5 0 0 0-.6-2.4c-.6-1.2-.6-1.4-.6-3.6 0-2.1 0-2.4-.6-3.6-.4-1-.6-1.5-.6-2.4a5 5 0 0 0-.6-2.4c-.6-1.2-.6-1.4-.6-3.6 0-2.1 0-2.4-.6-3.6s-.6-1.4-.6-3.7 0-2.5-.7-3.8l-.7-1.3V716c0-3.5 0-3.5-.6-4.8s-.6-1.3-.6-4.8 0-3.5-.6-4.8l-.6-1.2v-9.7l-.6-1.3c-.6-1.2-.6-1.4-.6-3.6 0-2.1 0-2.4-.6-3.6s-.6-1.4-.6-3.6c0-2.1 0-2.4-.6-3.6s-.6-1.4-.6-3.7 0-2.5-.6-3.7a5 5 0 0 1-.6-2.4q0-1.2-.6-2.3c-.5-.9-.6-1.3-.6-2.3s-.1-1.5-1.8-4.8-1.8-3.7-1.8-4.8-.2-1.4-1.3-3.8c-1.2-2.3-1.3-2.7-1.3-3.7q0-1.2-.6-2.4c-.4-1-.6-1.6-.6-2.6 0-1.3 0-1.5.5-2a131 131 0 0 0 8.1-17q0-1.3.6-2.5l.6-1.3v-16.6l-.6-1.3q-.6-1.2-.6-2.4 0-1-.5-2.3l-.7-2.7c-.1-1.5-.2-1.7-4.5-10.1l-4.4-8.6-2.3-2.4a15 15 0 0 1-3-3.8c-1-1.9-4-4.8-5.8-5.7-.7-.4-1.9-1.2-2.6-1.9a15 15 0 0 0-4.3-2.8l-3-1.5-.8-1.5-.7-1.6.6-1.3.6-1.3v-14.3l-.7-1.3-.7-1.3v-9.5l-.6-1.3-.6-1.2v-12.1l-.6-1.3-.6-1.2v-9.7l-.6-1.3c-.6-1.2-.6-1.4-.6-3.6 0-2.1 0-2.4-.6-3.6s-.6-1.4-.6-3.6c0-2.1 0-2.4-.6-3.6s-.6-1.4-.6-3.7 0-2.5-.6-3.7a5 5 0 0 1-.6-2.4c0-1-.2-1.5-1-3.4l-1.2-2.2.5-.4 3.4-1.9c2.9-1.4 3.2-1.5 4.4-1.5s1.4 0 7.3-3c5.7-2.9 6-3 7.2-3s1.4-.1 5.9-2.4 4.7-2.4 6-2.4 1.3 0 9.7-4.2c8-4 8.5-4.2 9.6-4.2s1.6-.2 19.4-9.1 18.3-9.1 19.4-9.1q2.6 0 5.4-2.7a18 18 0 0 1 5-3.1l3.7-1.9 4.3-4.3 4.3-4.3 1.4-2.6 1.3-2.7v-32.1l-1.2-2.5a14 14 0 0 0-3.8-5.1 19 19 0 0 1-3.2-3.9 6 6 0 0 0-3-3q-1.1-.4-3.7-3-2.7-2.5-3.7-3.1c-.6-.3-1.7-1.1-2.4-1.8a13 13 0 0 0-3.6-2.4 16 16 0 0 1-3.6-2.4 13 13 0 0 0-3.6-2.4c-1.7-.9-2.6-1.5-3.7-2.5-1.4-1.3-1.6-1.4-39.1-20.2-36.7-18.3-37.8-18.8-38.9-18.8-1 0-1.5-.2-5.9-2.4-4.7-2.3-4.9-2.4-6.1-2.4s-1.5 0-6.1-2.4c-4.5-2.2-4.9-2.4-6-2.4s-1.4-.1-3.5-1.2-2.6-1.3-3.9-1.4-1.9-.3-5.1-1.9-3.7-1.7-4.7-1.7-1.5-.2-3.6-1.2c-2.2-1-2.6-1.2-3.6-1.2s-1.5-.2-3.8-1.2c-2.1-1-2.7-1.2-3.7-1.2s-1.4-.2-3.5-1.2-2.6-1.2-3.6-1.2-1.4-.1-3.5-1.2c-2-1-2.4-1.2-3.5-1.2-1 0-1.5-.1-3.6-1.2-2.2-1-2.6-1.2-3.7-1.2s-1.5-.1-3.7-1.2c-2.1-1-2.6-1.2-3.6-1.2s-1.5-.2-3.6-1.2-2.6-1.2-3.6-1.2-1.5-.2-3.6-1.2-2.6-1.2-3.6-1.2a5 5 0 0 1-2.4-.6 5 5 0 0 0-2.4-.6c-1 0-1.4-.2-3.7-1.3-2.2-1.2-2.6-1.3-3.7-1.3-1 0-1.5-.1-3.5-1.1s-2.5-1.2-3.9-1.3q-1.4-.1-2.6-.7-1.1-.5-2.2-.5c-1 0-1.5-.2-4.8-1.8s-3.7-1.8-4.8-1.8-1.5-.1-3.6-1.2c-2.2-1-2.6-1.2-3.6-1.2s-1.5-.1-3.6-1.2c-2.2-1-2.6-1.2-3.6-1.2-1.1 0-1.5-.2-6-2.4s-4.9-2.4-6-2.4-1.5-.1-3.6-1.2c-2.2-1-2.6-1.2-3.7-1.2s-1.5-.1-6.1-2.4-4.9-2.4-6-2.4-1.5-.1-5-1.9-4-1.9-5-1.9-1.5-.1-3.6-1.2c-2.2-1-2.6-1.2-3.6-1.2s-1.5-.2-4.8-1.8c-3.4-1.7-3.7-1.8-4.9-1.8s-1.4 0-7.2-3c-5.6-2.9-6-3-7.1-3s-1.5-.1-4.8-1.8-3.7-1.8-4.8-1.8-1.5-.1-3.6-1.2c-2.2-1-2.6-1.2-3.6-1.2s-1.5-.2-4.8-1.8-3.7-1.8-4.8-1.8c-1.2 0-1.5-.2-12.2-5.5l-11-5.5H614l-8.3-4.2c-8.1-4-8.4-4.2-9.6-4.2s-1.5-.1-6-2.4c-4.7-2.3-4.9-2.4-6.1-2.4-1.3 0-1.5 0-5-1.9s-3.8-1.9-4.9-1.9c-1 0-1.5-.1-4.8-1.8s-3.7-1.8-4.8-1.8-1.5-.2-4.7-1.7c-3.2-1.6-3.8-1.8-5.1-1.9a9 9 0 0 1-3.8-1.3c-2-1-2.4-1.1-3.4-1.1s-1.5-.2-3.6-1.2-2.6-1.2-3.6-1.2-1.4-.1-3.5-1.2-2.4-1.2-3.6-1.2a5 5 0 0 1-2.5-.6q-1.4-.6-2.3-.6-1 0-2.3-.6c-1.2-.6-1.4-.6-3.7-.6s-2.5 0-3.7-.6-1.3-.6-4.8-.6-3.6 0-4.8-.6l-1.3-.6H491zm14.5 39q1.4.6 2.4.6t2.3.6a5 5 0 0 0 2.4.6q1.2 0 2.4.6a5 5 0 0 0 2.4.6q1.2 0 2.4.6 1.3.7 2.5.6c1 0 1.4.1 3.4 1.1 1.9 1 2.4 1.2 3.7 1.3q1.5.2 2.7.7t2.3.5c1 0 1.5.2 3.6 1.2 2.2 1 2.6 1.2 3.6 1.2s1.5.2 4.8 1.8 3.7 1.8 4.8 1.8 1.4.1 3.7 1.3 2.6 1.3 3.8 1.3 1.5.1 5 1.8c3.2 1.7 3.6 1.8 4.7 1.8 1 0 1.5.1 4.8 1.8s3.7 1.8 4.8 1.8 1.5.1 3.6 1.2 2.6 1.2 3.6 1.2 1.5.2 3.6 1.2c2.2 1 2.6 1.2 3.6 1.2s1.5.2 4.8 1.8 3.7 1.8 4.8 1.8 1.5.2 5.9 2.3c4.5 2.3 4.8 2.4 6.2 2.5 1.6.1 1.7.2 8.7 3.8s7.2 3.6 8.4 3.6c1 0 1.4.1 4.7 1.7 3.2 1.6 3.7 1.8 5 1.9 1.5.1 1.8.2 6.3 2.5 4.3 2.1 4.7 2.3 5.8 2.3s1.4.2 4.6 1.8c3.4 1.7 3.7 1.8 4.9 1.8s1.4 0 8.5 3.6c7 3.5 7.3 3.6 8.5 3.6 1.1 0 1.4.1 6 2.5 4.8 2.4 5 2.5 6.2 2.5s1.5 0 6.1 2.4c4.5 2.2 4.9 2.4 6 2.4s1.5.1 3.6 1.2 2.6 1.2 3.6 1.2 1.5.2 4.7 1.7c3.1 1.6 3.7 1.8 5 1.9s1.8.3 4.9 1.9 3.5 1.7 4.6 1.7 1.5.1 3.5 1.1c1.9 1 2.4 1.2 3.7 1.3s1.9.3 5.1 1.9 3.7 1.7 4.7 1.7 1.5.2 3.6 1.2c2.2 1 2.6 1.2 3.6 1.2 1.2 0 1.5.1 5 1.9 3.3 1.8 3.7 1.9 4.8 1.9s1.5.2 3.5 1.1 2.6 1.2 3.9 1.3c1.4.1 1.8.3 5 1.9 3.1 1.6 3.5 1.7 4.6 1.7s1.5.2 4.8 1.8 3.7 1.8 4.8 1.8 1.5.1 3.6 1.2c2.2 1 2.6 1.2 3.6 1.2s1.5.2 4.8 1.8 3.7 1.8 4.8 1.8 1.5.1 4.8 1.8 3.7 1.8 4.8 1.8 1.5.2 3.5 1.1a9 9 0 0 0 3.9 1.3c1.4.1 1.7.2 5 2 3.4 1.7 3.7 1.8 4.8 1.8s1.5.1 3.6 1.2 2.6 1.2 3.6 1.2 1.5.2 4.7 1.7c3.2 1.6 3.7 1.8 5 1.9 1.4.1 1.9.3 3.9 1.3s2.4 1.1 3.4 1.1 1.5.2 4.8 1.8 3.7 1.8 4.8 1.8 1.4.2 4.5 1.7c3.2 1.7 3.5 1.8 5 1.9 1.6.1 1.8.2 7.5 3 5.5 2.8 5.9 3 7 3s1.5.2 13 6a57 57 0 0 1 13.3 7.2c1.3 1.2 1.9 1.5 7.2 4.2 5.2 2.6 6 3 7.1 4.1q1.4 1.4 3.6 2.4a16 16 0 0 1 3.6 2.4c.7.7 1.8 1.5 2.4 1.8q1.1.6 3.7 3.1 2.7 2.5 3.7 3.1 2 .9 2.5 2.3c.4.9.5 1.3.5 3v2.1l-1.6 1.6a15 15 0 0 1-5.2 3.4c-3 1.5-3.7 2-4.9 3.1-1.8 1.7-2.4 2-3.9 2-1.2 0-1.4.1-10.8 4.8l-9.6 4.8h-1.3c-1.3 0-1.4 0-7.5 3.1-5.9 3-6.2 3.1-7.4 3.1-1 0-1.5.2-7.2 3-5.9 2.9-6.1 3-7.3 3s-1.5.1-7.2 3c-5.6 2.9-5.9 3-7 3-1.2 0-1.6.2-8.6 3.6-9.1 4.5-8.1 4.3-13.2 1.9-3.2-1.6-3.8-1.8-5.1-1.9-1.4-.1-1.8-.3-5-1.9-3-1.5-3.6-1.7-4.5-1.7a5 5 0 0 1-2.3-.6 5 5 0 0 0-2.4-.6c-1 0-1.5-.2-3.6-1.2s-2.6-1.2-3.6-1.2-1.5-.2-3.6-1.2-2.6-1.2-3.6-1.2a5 5 0 0 1-2.4-.6 5 5 0 0 0-2.4-.6q-1.2 0-2.4-.6a5 5 0 0 0-2.4-.6c-1 0-1.5-.2-3.6-1.2-2.2-1-2.6-1.2-3.7-1.2-1 0-1.5-.1-2.5-.6a5 5 0 0 0-2.4-.6q-1.2 0-2.4-.6a5 5 0 0 0-2.4-.6q-1.2 0-2.4-.6c-1.2-.6-1.4-.6-3.7-.6s-2.5 0-3.7-.6a5 5 0 0 0-2.4-.6q-1.2 0-2.4-.6a5 5 0 0 0-2.4-.6c-1 0-1.4-.1-2.5-.7q-1.3-.8-2.5-.7a5 5 0 0 1-2.4-.6c-1.2-.6-1.5-.6-3.6-.6-2.2 0-2.4 0-3.6-.6a5 5 0 0 0-2.5-.6q-1.3 0-2.5-.6a5 5 0 0 0-2.4-.6q-1.2 0-2.4-.6c-1.2-.6-1.5-.6-3.6-.6-2.2 0-2.4 0-3.6-.6a5 5 0 0 0-2.4-.6q-1.2 0-2.4-.6a5 5 0 0 0-2.4-.6q-1.2 0-2.4-.6a5 5 0 0 0-2.5-.6q-1.3 0-2.5-.6a5 5 0 0 0-2.4-.6q-1.2 0-2.4-.6a5 5 0 0 0-2.4-.6q-1.2 0-2.4-.6-1.3-.7-2.5-.6t-2.2-.6-2.3-.6a5 5 0 0 1-2.4-.6 5 5 0 0 0-2.5-.6q-1.3 0-2.5-.6a5 5 0 0 0-2.4-.6q-1.2 0-2.4-.6c-1.2-.6-1.5-.6-3.6-.6-2.2 0-2.4 0-3.6-.6a5 5 0 0 0-2.4-.6q-1.2 0-2.4-.6a5 5 0 0 0-2.4-.6q-1.2 0-2.4-.6a5 5 0 0 0-2.5-.6q-1.3 0-2.5-.6-1.4-.6-2.3-.6-1 0-2.3-.6c-1.2-.6-1.4-.6-3.7-.6s-2.5 0-3.7-.6a5 5 0 0 0-2.4-.6q-1.2 0-2.4-.6a5 5 0 0 0-2.4-.6c-1 0-1.5-.2-2.6-.7-1.4-.7-1.6-.7-3.8-.7s-2.4 0-3.6-.6a5 5 0 0 0-2.4-.6q-1.2 0-2.4-.6a5 5 0 0 0-2.4-.6q-1.2 0-2.4-.6a5 5 0 0 0-2.4-.6q-1.2 0-2.4-.6a5 5 0 0 0-2.4-.6q-1.2 0-2.4-.6a5 5 0 0 0-2.5-.6q-1.3 0-2.5-.6c-1.2-.6-1.5-.6-3.6-.6-2.2 0-2.4 0-3.6-.6a5 5 0 0 0-2.4-.6c-1 0-1.5-.2-3.6-1.2s-2.6-1.2-3.6-1.2a5 5 0 0 1-2.4-.6 5 5 0 0 0-2.5-.6c-1 0-1.3-.1-2.2-.6-.8-.5-1.3-.7-2.5-.8q-1.5 0-2.6-.7-1.1-.5-2.2-.5t-2.4-.6a5 5 0 0 0-2.5-.6q-1.3 0-2.5-.6-1.3-.7-2.5-.6t-2.2-.5-2.5-.7-2.7-.7-2.3-.5-2.4-.6a5 5 0 0 0-2.4-.6q-1.2 0-2.4-.6a5 5 0 0 0-2.4-.6q-1.2 0-2.4-.6a5 5 0 0 0-2.4-.6q-1.2 0-2.4-.6a5 5 0 0 0-2.4-.6q-1.2 0-2.4-.6c-1.2-.6-1.5-.6-3.6-.6-2.2 0-2.4 0-3.6-.6a5 5 0 0 0-2.4-.6q-1.2 0-2.4-.6c-1.2-.6-1.5-.6-3.6-.6-2.2 0-2.4 0-3.6-.6s-1.5-.6-3.6-.6c-2.2 0-2.4 0-3.6-.6l-1.3-.6h-9.7l-1.2-.6-1.3-.6h-12.2l-1.3.6a5 5 0 0 1-2.4.6c-1 0-1.4.1-2.7.8-2.2 1-5.2 4-6.2 6.2l-.7 1.5v7.5l.8 1.5c.6 1.3 1.1 2 2.7 3.5l2 1.9 8.5 4.3c8.5 4.2 8.5 4.3 10.1 4.4s1.8.2 5 1.9c3.2 1.5 3.6 1.7 4.7 1.7a5 5 0 0 1 2.4.6 5 5 0 0 0 2.4.6q1.2 0 2.4.6a5 5 0 0 0 2.4.6c1 0 1.4.2 3.6 1.2 2.1 1.1 2.6 1.3 4 1.4q1.4.1 2.6.7 1.1.5 2.2.5t2.4.6a5 5 0 0 0 2.4.6q1.2 0 2.4.6a5 5 0 0 0 2.4.6c1 0 1.5.2 3.6 1.2s2.6 1.2 3.6 1.2q1.1 0 2.5.6t2.5.6c1 0 1.5.2 3.6 1.2s2.6 1.2 3.6 1.2a5 5 0 0 1 2.4.6q1.4.6 2.4.6c1 0 1.4.2 3.5 1.2l2.3 1.2h4.8l2.6 1.2c2.1 1 2.7 1.2 3.6 1.2q1.2 0 2.4.6a5 5 0 0 0 2.4.6q1.2 0 2.4.6a5 5 0 0 0 2.4.6q1.2 0 2.4.6a5 5 0 0 0 2.4.6q1.2 0 2.4.6c1.2.6 1.4.6 3.7.6s2.5 0 3.7.6a5 5 0 0 0 2.4.6q1.2 0 2.4.6a5 5 0 0 0 2.4.6q1.2 0 2.4.6 1.3.7 2.5.6c.9 0 1.4.1 2.4.7 1.1.6 1.6.7 2.5.7a5 5 0 0 1 2.4.6 5 5 0 0 0 2.5.6q1.3 0 2.5.6a5 5 0 0 0 2.4.6q1.2 0 2.4.6a5 5 0 0 0 2.4.6q1.2 0 2.4.6a5 5 0 0 0 2.4.6q1.2 0 2.4.6c1.2.6 1.5.6 3.6.6 2.2 0 2.4 0 3.6.6a5 5 0 0 0 2.5.6q1.3 0 2.5.6a5 5 0 0 0 2.4.6q1.2 0 2.4.6c1.2.6 1.5.6 3.6.6h2.4l2.4 1.2c2.2 1 2.6 1.2 3.6 1.2s1.4.1 2.3.6c1.1.6 1.3.6 3.6.6s2.5 0 3.7.6a5 5 0 0 0 2.4.6q1.2 0 2.4.6c1.2.6 1.5.6 3.6.6 2.2 0 2.4 0 3.6.6s1.5.6 3.6.6c2.2 0 2.4 0 3.6.6s1.4.6 3.7.6 2.5 0 3.7.6a5 5 0 0 0 2.4.6q1.2 0 2.4.6a5 5 0 0 0 2.4.6q1.2 0 2.4.6a5 5 0 0 0 2.4.6q1.2 0 2.4.6a5 5 0 0 0 2.4.6q1.2 0 2.4.6 1.4.6 2.4.6 1.1 0 2.3.5a7 7 0 0 0 2.5.7q1.4 0 2.7.7 1.3.8 2.5.7a5 5 0 0 1 2.4.6 5 5 0 0 0 2.4.6q1.2 0 2.4.6a5 5 0 0 0 2.4.6q1.2 0 2.4.6a5 5 0 0 0 2.4.6q1.2 0 2.4.6a5 5 0 0 0 2.5.6q1.3 0 2.5.6c1.2.6 1.5.6 3.6.6 2.2 0 2.4 0 3.6.6a5 5 0 0 0 2.4.6q1.2 0 2.4.6a5 5 0 0 0 2.4.6q1.2 0 2.4.6a5 5 0 0 0 2.4.6c1 0 1.5.2 3.6 1.2s2.6 1.2 3.6 1.2a5 5 0 0 1 2.4.6 5 5 0 0 0 2.5.6q1.2 0 1.6.3c.5.2.3.3-2.4 1.7s-3 1.4-4.1 1.4c-1.2 0-1.5.1-9.6 4.2-8.3 4.2-8.4 4.2-9.7 4.2s-1.4 0-7.5 3.1c-5.7 2.8-6.3 3.1-7.3 3.1s-1.5.2-6 2.4c-4.5 2.3-4.9 2.4-6 2.4-1.2 0-1.5.1-7.3 3s-6 3-7.2 3c-1.1 0-1.4.1-6 2.4s-4.7 2.4-6 2.4c-1.1 0-1.4 0-7.2 3-5.8 2.9-6 3-7.2 3s-1.4.1-7.2 3c-5.7 3-6 3-7.4 3.2-1.5.1-1.8.3-12.3 5.5-10.1 5-10.8 5.3-11.9 5.3s-1.7.3-10.7 4.8c-9.4 4.6-9.8 4.8-10.9 4.8s-1.5.2-11 4.9-9.8 4.9-11 4.9-1.4.1-9.6 4.2c-8.1 4-8.4 4.2-9.6 4.2s-1.5.1-12 5.4c-10.8 5.4-10.8 5.4-12 5.4-1.3 0-1.5 0-7.5 3.1-5.8 3-6.1 3.1-7.3 3.1-1 0-1.4.1-4.8 1.8s-3.7 1.8-4.9 1.8-1.5.1-4.9 1.8c-3.3 1.7-3.7 1.8-4.8 1.8s-1.4.1-3.5 1.2c-2 1.1-2.4 1.2-3.5 1.2a5 5 0 0 0-2.6.6c-1 .4-1.5.6-2.4.6a5 5 0 0 0-2.4.6c-1 .4-1.5.6-2.4.6a5 5 0 0 0-2.4.6c-1 .4-1.5.6-2.4.6a5 5 0 0 0-2.4.6c-1 .4-1.5.6-2.4.6a5 5 0 0 0-2.4.6l-1.2.6h-24.4l-1.2-.6c-1.2-.6-1.5-.6-3.6-.6-2.2 0-2.4 0-3.6-.6s-1.5-.6-3.6-.6h-2.3l-2.6-1.2c-2.1-1-2.8-1.2-3.6-1.2s-1.5-.2-3.5-1.2c-2.2-1-2.6-1.2-3.6-1.2s-1.5-.2-4.8-1.8-3.7-1.8-4.8-1.8-1.5-.2-4.7-1.7c-3.2-1.6-3.8-1.8-5.1-1.9-1.4-.1-1.8-.3-7.4-3-5.3-2.7-6-3-7-3-.8 0-1.5-.2-4.6-1.8-3.4-1.7-3.7-1.8-4.9-1.8s-1.5-.1-3.7-1.2-2.6-1.2-3.6-1.2c-1.2 0-1.6-.2-6.2-2.4s-5-2.4-6-2.4-1.5-.2-6-2.5c-4.7-2.4-5-2.5-6.2-2.5-1 0-1.5-.2-4.7-1.7-3.2-1.6-3.7-1.8-5.1-1.9s-1.7-.2-8.5-3.7c-6.6-3.3-7.1-3.5-8.2-3.5s-1.6-.2-7.2-3c-5.8-2.8-6.3-3-7.3-3-1.1 0-1.5-.2-6-2.4-4.5-2.3-4.9-2.4-6-2.4s-1.5-.2-8.6-3.7c-7.1-3.6-7.5-3.7-8.6-3.7s-1.5-.1-7.2-3c-5.9-3-6-3-7.3-3s-1.4 0-7.2-3-5.9-3-7.2-3-1.4 0-6.1-2.4c-4.6-2.3-4.9-2.4-6-2.4-1.2 0-1.5-.1-6.2-2.5s-5-2.5-6.2-2.5c-1.1 0-1.4-.1-6-2.4s-4.9-2.4-6-2.4-1.5-.1-4.8-1.8-3.7-1.8-4.8-1.8-1.5-.2-4.7-1.7c-3-1.5-3.8-1.8-4.8-1.8-1-.1-1.7-.4-4.7-2-3.4-1.6-3.7-1.7-4.9-1.7s-1.4 0-6.1-2.4c-4.5-2.2-4.9-2.4-6-2.4s-1.5-.1-3.6-1.2-2.6-1.2-3.6-1.2-1.5-.2-3.6-1.2-2.6-1.2-3.6-1.2-1.5-.2-3.8-1.3-2.8-1.3-3.8-1.3-1.5-.2-3.6-1.2c-2.2-1-2.6-1.2-3.6-1.2s-1.5-.2-4.8-1.8c-3.4-1.7-3.7-1.8-5-1.8-1.1 0-1.4 0-6-2.4-4.5-2.2-5-2.4-6-2.4s-1.4-.2-4.6-1.8c-3.3-1.7-3.7-1.8-4.8-1.8s-1.5-.2-6.1-2.4-5-2.4-6.1-2.4-1.5-.2-4.8-1.8-3.7-1.8-4.8-1.8-1.4-.2-4.8-1.9c-3.5-1.8-3.9-1.9-5-1.9s-1.5-.1-4.8-1.8-3.7-1.8-4.8-1.8-1.5-.2-5-1.8c-3.3-1.6-3.8-1.8-4.8-1.8s-1.5-.2-4.8-1.8-3.7-1.8-4.8-1.8-1.5-.1-4.8-1.8-3.7-1.8-4.8-1.8-1.5-.2-6-2.4c-4.6-2.3-4.9-2.4-6-2.4-1.3 0-1.5-.1-6.3-2.5-4.7-2.3-5-2.5-6.2-2.5-1 0-1.4-.2-5.6-2.2-3.8-2-4.6-2.4-5.7-3.5q-1.2-1.2-2.5-1.9-1.2-.6-2.8-2.2c-1.4-1.4-1.9-2-2.7-3.7l-1-2 1.1-2.1c1-2 1.2-2.3 4-5 2.7-2.6 2.9-2.8 5.1-3.9 1.8-.9 2.6-1.4 3.6-2.4 1.3-1.3 1.7-1.5 24-12.6 22.5-11.3 22.5-11.3 23.7-11.3s1.5-.1 7.5-3.1c5.6-2.8 6.3-3.1 7.3-3.1s1.6-.3 6-2.4c4.6-2.2 5-2.4 6.1-2.4s1.5-.2 6-2.4c4.5-2.3 4.9-2.4 6-2.4s1.5-.1 4.7-1.8c3.4-1.7 3.6-1.8 4.8-1.8 1.3 0 1.4 0 8.5-3.6 7-3.5 7.3-3.6 8.4-3.6s1.5-.1 8.6-3.7c7.1-3.5 7.5-3.7 8.6-3.7s1.5-.1 7-3c5.7-2.8 6-2.9 7.4-3s1.8-.3 6.2-2.5c4.3-2 4.9-2.3 5.9-2.3s1.5-.2 4.7-1.8 3.7-1.8 4.8-1.8 1.5-.2 6-2.4c4.6-2.3 5-2.4 6.1-2.4 1.2 0 1.5-.1 4.9-1.8 3.3-1.7 3.7-1.8 4.8-1.8s1.4-.1 4.7-1.8c3.4-1.8 3.7-1.9 5.1-2s1.8-.3 5-1.9 3.8-1.7 4.8-1.7 1.5-.2 4.8-1.8 3.7-1.8 4.8-1.8 1.5-.1 6-2.4 4.9-2.4 6-2.4c1.2 0 1.5-.1 10.6-4.7 9.4-4.7 9.5-4.8 11-4.9 1.6-.1 1.8-.2 7.6-3.2 5.7-2.9 6-3 7.2-3 1 0 1.4-.1 4.6-1.7s3.6-1.8 5-1.9c1.5-.1 1.8-.2 7.5-3 5.4-2.8 6-3 7-3s1.5-.2 5.7-2.3c4.5-2.3 4.8-2.4 6.2-2.5s1.7-.2 10-4.4c8-3.9 8.7-4.2 9.7-4.2s1.6-.3 7.1-3c5.8-2.9 6.2-3 7.3-3 1.2 0 1.5-.1 4.9-1.8 3.3-1.7 3.7-1.8 4.8-1.8 1.2 0 1.5-.1 5.9-2.4s4.8-2.4 6-2.4c1.4-.1 1.8-.3 5-1.9s3.6-1.7 4.7-1.7c1 0 1.5-.2 4.8-1.8s3.7-1.8 4.8-1.8 1.5-.2 5-1.9 3.9-1.9 5-1.9c1 0 1.4-.1 3.6-1.2 2.1-1 2.6-1.2 3.6-1.2s1.5-.2 4.8-1.8 3.7-1.8 4.8-1.8 1.4-.1 3.6-1.2 2.6-1.2 3.7-1.2a5 5 0 0 0 2.5-.6 5 5 0 0 1 2.4-.6c1 0 1.5-.2 3.6-1.2s2.6-1.2 3.6-1.2a5 5 0 0 0 2.4-.6c1.2-.6 1.3-.6 4-.6s3 0 4.1-.6l1.2-.6h12.2zM217.8 508.4c1.3.1 1.8.3 3.8 1.3s2.4 1.1 3.4 1.1a5 5 0 0 1 2.4.6 5 5 0 0 0 2.4.6c1 0 1.5.2 3.6 1.2s2.6 1.2 3.6 1.2 1.5.2 5 1.8c3.2 1.6 3.8 1.8 4.7 1.8s1.5.2 4.7 1.8 3.7 1.8 4.8 1.8 1.5.2 7 3c5.7 2.7 6 2.9 7.3 3 1.4 0 1.6.1 13.4 6l12 6 1.6.2c1.6.1 1.7.2 7.4 3 5.4 2.8 6 3 7 3s1.5.2 7 3c5.7 2.7 6 2.9 7.5 3s1.7.2 9.9 4.4c8.2 4.1 8.4 4.2 9.6 4.2s1.5.1 7.3 3 6.1 3 7.3 3c1.1 0 1.4.1 7 3 5.8 3 6 3 7.2 3s1.5.1 5 1.8c3.2 1.7 3.6 1.8 4.7 1.8 1 0 1.5.1 4.8 1.8s3.7 1.8 4.8 1.8 1.5.2 4.7 1.7c3.1 1.5 3.8 1.8 4.9 1.9s1.7.3 5 2c3.5 1.7 3.9 1.8 5 1.8s1.5.1 6 2.4c4.7 2.3 4.9 2.4 6.1 2.4s1.5.1 5 1.8c3.2 1.7 3.6 1.8 4.7 1.8s1.5.1 4.7 1.8 3.6 1.8 4.7 1.8c1 0 1.5.1 4.7 1.7s3.6 1.8 5 1.9 1.9.3 3.9 1.3 2.4 1.1 3.4 1.1 1.5.2 3.6 1.2 2.6 1.2 3.6 1.2a5 5 0 0 1 2.4.6c1.2.6 1.5.6 3.6.6s2.5 0 3.5.5a7 7 0 0 0 2.5.7q1.4 0 2.7.7l1.4.7h3.5c3.5 0 3.6 0 4.8.6l1.3.6h9.4l1.4.6 1.4.6h11.8l1.3-.6 1.2-.6h9.5l1.3-.6c1.2-.6 1.4-.6 3.6-.6s2.4 0 3.8-.7q1.4-.7 2.5-.7 1 0 2.3-.6c1-.5 1.5-.6 2.5-.6 1.1 0 1.5-.1 3.7-1.2 2.1-1 2.6-1.2 3.6-1.2s1.5-.2 4.8-1.8 3.7-1.8 4.8-1.8 1.5-.2 6-2.4 5-2.4 6.1-2.4 1.5-.2 6-2.4c4.4-2.3 4.7-2.4 5.9-2.4 1 0 1.4-.1 4.6-1.7 3.3-1.7 3.6-1.8 5.1-1.9 1.6-.1 1.7-.2 8.8-3.8 6.8-3.4 7.3-3.6 8.5-3.7 1.2 0 1.8-.3 14.4-6.5 12.4-6.2 13.2-6.6 14.4-6.6 1.2-.1 2-.4 10.9-4.9s9.6-4.7 10.7-4.7 1.5-.2 8.5-3.7c7.2-3.6 7.4-3.7 8.6-3.7 1.3 0 1.3 0 14.4-6.6s13.2-6.6 14.4-6.6 1.5-.1 7.3-3c5.7-2.8 6-3 7.2-3 1 0 1.5-.2 5-1.9s4-1.9 5-1.9q1 0 2.1-.5c1.2-.5 1.3-.5 2 1 .5.8.5 1.2.5 4.4 0 3.6 0 3.6.6 4.9.6 1.2.6 1.3.6 4.8s0 3.5.6 4.8.6 1.2.6 4.9c0 3.6 0 3.6.6 4.9l.6 1.2v11.9l.6 1.3.6 1.2v14.5l.6 1.3.6 1.2v52.8l-.5 1.1c-.5 1-.6 1.5-.7 3.9s-.2 2.8-.7 3.8q-.5 1-.5 2.3c0 1.1-.1 1.4-3.5 8a34 34 0 0 1-4.7 8.2l-1.8 2.4c-.5 1-1.6 2.3-6 6.6l-5.5 5.5-4.6 2.2c-4.1 2-4.7 2.3-5.9 3.5s-1.6 1.5-21.3 11.3c-19.8 10-20 10-21.5 10.2-1.4.1-1.9.3-6.3 2.5-4.4 2.1-4.9 2.3-5.9 2.3s-1.5.2-3.6 1.2-2.6 1.2-3.6 1.2-1.5.1-3.8 1.3-2.7 1.3-3.6 1.3-1.5.2-3.6 1.2c-2.2 1-2.8 1.2-3.8 1.2a5 5 0 0 0-2.4.6c-1 .4-1.5.6-2.4.6a5 5 0 0 0-2.4.6c-1 .4-1.5.6-2.4.6a5 5 0 0 0-2.4.6c-1.2.6-1.4.6-3.6.6-2.1 0-2.4 0-3.6.6-1 .5-1.5.6-2.5.6a5 5 0 0 0-2.5.6c-1 .4-1.5.6-2.4.6a5 5 0 0 0-2.4.6c-1.2.6-1.4.6-3.6.6-2.1 0-2.4 0-3.6.6-1 .4-1.5.6-2.4.6a5 5 0 0 0-2.4.6c-1.2.6-1.4.6-3.6.6s-2.4 0-3.5.6c-1 .6-1.2.6-3.4.6s-2.5 0-3.7.6c-1 .4-1.5.6-2.4.6a5 5 0 0 0-2.4.6c-1.2.6-1.4.6-3.7.6s-2.5 0-3.7.6-1.4.6-3.6.6c-2.1 0-2.4 0-3.6.6s-1.4.6-3.7.6-2.5 0-3.7.6-1.3.6-4.8.6-3.5 0-4.8.6-1.3.6-4.8.6-3.5 0-4.8.6l-1.2.6H520l-1.3.6-1.2.6h-11.9l-1.4.6-1.4.6h-45.7l-1.1-.6-1.2-.5-11.1-.1-11.1-.1-1.1-.5-1.1-.6h-9.7l-1.2-.6c-1.3-.6-1.3-.6-4.8-.6s-3.6 0-4.8-.6l-1.3-.6H399l-1.2-.6c-1.2-.6-1.5-.6-3.6-.6-2.2 0-2.4 0-3.6-.6s-1.3-.6-4.8-.6-3.6 0-4.8-.6c-1.3-.6-1.3-.6-5-.6-3.6 0-3.6 0-4.8-.6s-1.5-.6-3.6-.6-2.5 0-3.5-.5q-1.1-.6-2.6-.7-1.4 0-2.5-.7c-1-.4-1.3-.5-3.3-.5-2.1 0-2.4 0-3.5-.6a5 5 0 0 0-2.5-.6q-1.3 0-2.5-.6a5 5 0 0 0-2.4-.6q-1.2 0-2.4-.6a5 5 0 0 0-2.4-.6q-1.2 0-2.4-.6a5 5 0 0 0-2.5-.6c-1.1 0-1.5-.1-3.7-1.2-2.1-1-2.6-1.2-3.6-1.2a5 5 0 0 1-2.4-.6 5 5 0 0 0-2.4-.6q-1.2 0-2.4-.6a5 5 0 0 0-2.4-.6q-1.2 0-2.4-.6a5 5 0 0 0-2.4-.6q-1.2 0-2.4-.6a5 5 0 0 0-2.4-.6c-1 0-1.4-.2-3.7-1.3-2.2-1.2-2.6-1.3-3.7-1.3-1 0-1.5-.1-3.6-1.2-2.2-1-2.6-1.2-3.7-1.2s-1.5-.1-3.7-1.2-2.6-1.2-3.6-1.2c-1.1 0-1.5-.2-6-2.4-4.7-2.3-4.9-2.4-6.1-2.4h-1.3l-21.5-10.7c-20.6-10.3-21.4-10.8-22.6-12-.7-.6-1.8-1.4-2.4-1.7-1-.5-2-1.5-4.2-3.8a32 32 0 0 1-3.5-4q-.6-1-1.7-2.2c-.7-.7-1.5-1.9-1.9-2.6l-1.8-2.5c-1-1-1.5-1.9-2.8-4.4-1.4-3-1.6-3.4-1.6-4.4s-.1-1.5-.6-2.5c-.6-1.2-.6-1.4-.6-3.6 0-2.1 0-2.4-.6-3.6l-.6-1.2v-9.6l.6-1.1.6-1.2v-21.7l.6-1.2.6-1.3v-14.5l.6-1.2c.6-1.3.6-1.3.6-5s0-3.7-.6-5l-.6-1.2v-38.5l-.6-1.3-.6-1.2v-19.2l.6-1.2c.6-1.2.6-1.5.6-3.6 0-2.2 0-2.4.6-3.6s.6-1.3.6-4.8 0-3.6.6-4.8a5 5 0 0 0 .6-2.4V506l2.3 1.2c2 .9 2.6 1.1 3.9 1.2m657.8 80.4q1.3.6 2.2.6c.9 0 1 0 3.6 2.7l2.8 2.8 1.6 3.1 1.6 3.1v7.5l-1 1.9a10 10 0 0 1-2.5 3.4c-1.5 1.7-1.6 1.7-2.5 1.7s-1.4.2-3.4 1.3l-2.5 1.2-1.2-.5a5 5 0 0 0-2.3-.6c-1 0-1.5-.1-3.3-1.1s-2.5-1.5-3.9-2.8a14 14 0 0 1-3.3-5l-1.7-3.3v-7l1-2.2c1-1.9 1.4-2.3 3.2-4.1 1.7-1.6 2.3-2 3-2.3l1.6-.6c.6-.3 1.2-.4 3.2-.4 2.4 0 2.6 0 3.8.6m5.6 65.4.2 1.5c0 1 .1 1.5.6 2.5s.6 1.5.6 2.5.1 1.5.6 2.5c.6 1.2.6 1.4.6 3.6s0 2.4.6 3.5c.6 1 .6 1.2.6 3.4s0 2.5.6 3.7c.4 1 .6 1.5.6 2.4q0 1 .6 2.4c.6 1.2.6 1.4.6 3.7s0 2.5.6 3.7.6 1.4.6 3.6c0 2.1 0 2.4.6 3.6s.6 1.4.6 3.6c0 2.1 0 2.4.6 3.6s.6 1.4.6 3.6c0 2.1 0 2.4.6 3.6s.6 1.4.6 3.7 0 2.5.6 3.7.6 1.4.6 3.6c0 2.1 0 2.4.6 3.6s.6 1.4.6 3.6c0 2.1 0 2.4.6 3.6.6 1.1.6 1.4.6 3.6 0 2 0 2.4.5 3.5.5 1 .6 1.6.7 3.9.1 2.6.1 2.7.8 3.8.5 1 .6 1.4.6 2.3 0 1 .1 1.5.6 2.5.6 1.2.6 1.4.6 3.6 0 2.1 0 2.4.6 3.6.4 1 .6 1.5.6 2.4q0 1 .6 2.4c.6 1.2.6 1.4.6 3.7s0 2.5.6 3.7c.4 1 .6 1.5.6 2.4q0 1 .6 2.4c.4 1 .6 1.5.6 2.4q0 1 .6 2.4c.4 1 .6 1.5.6 2.4q0 1 .6 2.4c.6 1.2.6 1.4.6 3.7s0 2.5.6 3.7q1 2.1.4 3.7-.2.4-1.7 1.2a5 5 0 0 1-2.7.7 6 6 0 0 0-2.6.7l-1.4.7h-9.2l-1.4-.7c-1.4-.7-1.6-.7-3.8-.7s-2.4 0-3.6-.6l-1.3-.6h-22.7V784l.6-1.2.6-1.3v-16.9l.6-1.2.6-1.3v-9.5l.6-1c.5-1.1.5-1.1.6-6.2s.1-5.1.7-6.3.5-1.2.5-6v-4.7l.6-1.2c.6-1.3.6-1.3.6-4.8s0-3.6.6-4.8.6-1.4.6-3.7c0-2.5 0-2.5.7-3.8s.7-1.4.7-3.6c0-2.1 0-2.4.6-3.5s.6-1.4.6-3.7 0-2.5.6-3.7q.7-1.3.6-2.5t.5-2.2.7-2.5q.2-1.5.7-2.7c.4-1 .5-1.5.5-3.5 0-2.2 0-2.5.6-3.6s.6-1.5.6-3.6c0-2.2 0-2.4.6-3.6s.6-1.5.6-3.6c0-2.2 0-2.4.6-3.6s.6-1.3.6-5c0-2 0-3.8.2-4q.4-.6 2.1-.6 1.2 0 2.4-.6c1.3-.6 1.7-.5 2.1.2"/></svg>