<svg xmlns="http://www.w3.org/2000/svg" width="1000" height="1000" viewBox="0 0 1000 1000"><path fill="#141413" d="M438.9 57.7c-1 .5-1.1.5-6 .5-4.8 0-4.9 0-6 .5s-1.1.5-6 .5c-4.8 0-4.9 0-6 .5s-1.2.5-5 .5-3.9 0-5 .5c-1 .5-1.2.5-4 .5-2.6 0-3 0-4 .5-.8.4-1.3.5-2.8.5-1.6 0-2 0-3 .5-.8.4-1.3.5-3 .5s-2 0-3 .5c-.8.4-1.3.5-3 .5s-2 0-3 .5c-.8.4-1.3.5-3 .5s-2 0-3 .5q-1 .5-2 .5-.8 0-2 .5-1 .5-2 .5-.8 0-2 .5-1 .5-2 .5-.8 0-2 .5-1 .5-2 .5-.8 0-2 .5-1 .5-2 .5c-.7 0-1.4.2-3 1q-2 1-2.8 1t-3 1c-1.5.8-2.2 1-3 1s-1.5.3-4.9 2-4.2 2-5 2c-.9 0-1.6.3-5 2a21 21 0 0 0-5.2 3.1q-1 1-4 2.5-3 1.4-4 2.5l-2 1.5c-.5.2-1.4 1-2 1.5l-2.1 1.6a123 123 0 0 0-14.3 14.8c-.5.5-1.4 1.8-1.9 2.9s-1.4 2.3-2 3c-1 1-1.5 2-3.6 6.3-2.1 4.4-2.5 5.2-2.5 6 0 .9-.2 1.5-1.5 4-1.3 2.4-1.5 3-1.5 3.8a5 5 0 0 1-.5 2q-.5 1.2-.5 2 0 1-.5 2-.5 1.2-.5 2 0 1-.5 2c-.4 1-.5 1.4-.5 3s0 2.2-.5 3c-.5 1.1-.5 1.3-.5 5s0 4-.5 5c-.5 1.1-.5 1.2-.5 7 0 6 0 6-.5 7l-.5 1.1v17.8l.5 1 .5 1.1v13.8l-.5 1c-.4 1-.5 1.4-.5 3.2v2l-2.2 4.5-2.8 5q-.6.7-1.6 1.3c-.6.3-1.6 1-2.1 1.5-1.4 1.3-4 2.6-5.3 2.6a5 5 0 0 0-2 .5q-1.1.5-2 .5-1 0-2 .5l-1.1.5h-31.6l-1-.5c-1.1-.5-1.2-.5-7-.5-6 0-6 0-7-.5-1.1-.5-1.2-.5-6-.5-4.9 0-5 0-6-.5-1.1-.5-1.2-.5-7-.5-6 0-6 0-7-.5l-1.1-.5h-33.8l-1 .5c-1 .5-1.3.5-5 .5s-4 0-5 .5-1.3.5-4 .5c-2.5 0-2.8 0-3.8.5s-1.4.5-3 .5-2.1 0-3 .5q-1.2.5-2 .5-1 0-2 .5c-1 .4-1.4.5-3 .5s-2.1 0-3 .5q-1.2.5-2 .5-1 0-2 .5-1.2.5-2 .5-1 0-2 .5c-1 .4-1.4.5-3 .5s-2.1 0-3 .5q-1.2.5-2 .5-1 0-2 .5-1.2.5-2 .5c-.8 0-1.5.2-3 1q-2.1 1-3 1-.7 0-2.8 1c-1.6.8-2.3 1-3 1-.9 0-1.8.4-8 3.5-6 3-7.3 3.7-8.2 4.6a13 13 0 0 1-3 2 13 13 0 0 0-3 2l-2 1.5a32 32 0 0 0-4 3.5 28 28 0 0 1-4 3.5c-1.2.6-4.1 3.5-4.7 4.7-.3.6-1.4 2-2.6 3.1a18 18 0 0 0-2.5 3c-.2.5-1 1.4-1.5 2q-1 1-1.5 2c-.2.5-1 1.4-1.5 2-.8.8-1.5 2-3 5-1.5 2.9-2.2 4-3 5s-1.4 2-3 5.3c-1.8 3.4-2.1 4.3-2.1 5.1s-.3 1.4-1.5 3.8c-1.3 2.5-1.5 3.1-1.5 4s-.2 1.4-1.5 4c-1.2 2.5-1.5 3.2-1.5 4q0 .9-.5 2-.5 1-.5 2t-.5 2-.5 2q0 .9-.5 2-.5 1-.5 2t-.5 2-.5 2q0 .9-.5 2-.5 1-.5 2t-.5 2-.5 2q0 .9-.5 2c-.4.9-.5 1.3-.5 3 0 1.5-.1 2.1-.4 2.8l-.4 1.8q0 .8-.5 2c-.4.9-.5 1.3-.5 3s0 2-.5 3-.5 1.3-.5 4 0 3-.5 4-.5 1.3-.5 3 0 2-.5 2.8c-.4.9-.4 1-.5 12.1L5.1 394l-.9 1.8c-.7 1.4-1 1.8-1.8 2.3q-.9.6-1.6.7l-.8.2v59.9h.8l1.6.8c.8.5 1.1.9 1.9 2.4.7 1.4.9 2 .9 2.8q0 1 .5 2c.4 1 .5 1.4.5 2.9s.1 2 .5 3q.5 1.2.5 2t1 2.8a9 9 0 0 1 1 3.1c.1 1.1.6 2.2 3.6 8.2s3.6 7 4.5 8a13 13 0 0 1 2 3 13 13 0 0 0 2 3 20 20 0 0 1 4.4 9.8q.5 1.1.5 1.9t.5 2c.5 1.1.5 1.4.5 5s0 3.9.5 5l.5 1.2V609l.5 1.2.5 1.2V651l.5 1 .5 1.1v29.2l-.5 1-.5 1.1v26.1l-.5 1-.5 1.1v19.7l-.5 1-.5 1.1v15.9l-.5 1-.5 1.1v17.9l-.5 1-.5 1.1V806l.5 1c.5 1 .5 1.3.5 5s0 4 .5 5 .5 1.3.5 4c0 2.5 0 2.8.5 3.8s.5 1.3.5 4 0 3 .5 4q.5 1.2.5 2 0 1 .5 2 .5 1.2.5 2 0 1 .5 2 .5 1.2.5 2 0 1 .5 2 .5 1.2.5 2c0 .8.2 1.5 1 3 .8 1.6 1 2.3 1 3s.3 1.5 1.5 4 1.5 3.2 1.5 4 .4 1.7 3.1 7.1c2.6 5.1 3.3 6.4 4.2 7.3a16 16 0 0 1 2.5 4q1.4 3 2.5 4 1 1 1.4 1.8t1.4 1.8l1.5 2c.2.5 1.4 1.8 2.5 3l2.5 3a117 117 0 0 0 16.9 15.9c.6.3 1.9 1.4 3 2.5l3 2.5q1 .6 2 1.5a15 15 0 0 0 2.9 1.9l3 2c1 .9 2.7 1.9 12.2 6.6a53 53 0 0 0 15 6.5c1.6.8 2.2 1 3 1s1.4.2 3 1c1.5.8 2.2 1 3 1q.9 0 2 .5 1 .5 2 .5t2 .5c.9.4 1.3.5 3 .5s2 0 3 .5q1 .5 2 .5t2 .5c1 .5 1.3.5 4 .5 2.5 0 3 0 3.8.4s1.3.4 6.8.4c5.9 0 5.9 0 7 .5l1 .5h30.1l1.1-.5 1.1-.5h21.9l1-.5 1.1-.5h47.4l1.2-.5 1.2-.5h119l1 .5 1.1.5h47.7l1 .5 1.1.5h37.9l1 .5 1.1.5H509l1-.5 1.1-.5 10.1-.1c10-.2 10.1-.2 11.1-.6l1-.5h29.6l1.2-.5 1.2-.5H587l1-.5 1.1-.5h25.6l1.2-.5 1.2-.5h104.8l1 .5 1.1.5h20.1l1 .5 1.1.5H764l1 .5 1.1.5H792l1 .5 1.1.5h29.8l1-.5 1.1-.5h17.7l1-.5c1-.5 1.3-.5 5-.5s4 0 5-.5 1.3-.5 4-.5 3 0 4-.5 1.3-.5 4-.5 3 0 4-.5 1.4-.5 3-.5 2.1 0 3-.5c1-.4 1.4-.5 3-.5 1.5 0 2 0 2.8-.5 1-.4 1.4-.5 3-.5s2.1 0 3-.5q1.1-.5 2-.5 1 0 2-.5c1-.4 1.4-.5 3-.5s2.1 0 3-.5q1.1-.5 2-.5 1 0 2-.5 1.1-.5 2-.5c.8 0 1.5-.2 3-1 1.6-.8 2.3-1 3-1s1.4-.2 3-1 2.3-1 3-1c1 0 1.9-.4 9.2-4.1a48 48 0 0 0 13.2-8.2 86 86 0 0 0 15-15.3c1.8-1.8 2.3-2.4 3.1-4q1-1.9 2-3c.8-.9 1.5-2 3-5 1.4-2.8 2.2-4.1 2.9-4.9 1.4-1.5 3.8-6.3 4-8 .1-1 .5-2 1.6-4.2 1-2.3 1.4-3.1 1.4-3.8q0-.8 1-2.9c.8-1.6 1-2.2 1-3s.2-1.4 1-3c.8-1.5 1-2.2 1-3q0-.8.5-2a5 5 0 0 0 .5-2c0-.7.2-1.4 1-3 1-2 1-2 1-3.9 0-1.5.1-2 .5-3q.5-1.2.5-2t.5-2 .5-2.2.5-2c.4-1 .5-1.4.5-3s0-2.2.5-3c.4-1 .5-1.4.5-3s0-2.2.5-3c.4-1 .5-1.4.5-3 0-1.5 0-2 .5-2.9s.5-1.3.5-3 0-2 .5-3 .5-1.3.5-4 0-3 .5-4 .5-1.3.5-4 0-3 .5-4 .5-1.3.5-4 0-3 .5-4 .5-1.2.5-5 0-4 .5-5 .5-1.1.5-5.9c0-4.7 0-4.8.5-5.9.5-1 .5-1.1.5-6s0-4.9.5-6l.5-1.1v-6.7l-.2-6.7.5-1.2.5-1.2v-43.9l-.5-1-.5-1.1v-21.6l-.5-1.2-.5-1.2V644l-.5-1c-.5-1.1-.5-1.1-.5-6.9 0-5.7 0-5.8-.5-7s-.5-1.3-.5-7 0-5.8-.5-7l-.5-1.2v-15.7l-.5-1-.5-1.1v-17.6l-.5-1.2-.5-1.2v-15.7l-.5-1c-.5-1-.5-1.2-.5-6 0-4.9 0-5-.5-6s-.5-1.2-.5-5.9c0-4.6 0-4.8-.5-6s-.5-1.4-.5-6 0-4.8-.5-6l-.5-1.2v-21.2l.5-1q.5-1.2.5-2 0-1 .5-2c.4-1 .5-1.4.5-3s0-2.1.5-3.1q.5-1.2.5-2 0-1 .5-2c.4-.9.5-1.3.5-3s0-2 .5-3q.5-1 .5-2t.5-2c.4-.9.5-1.3.5-3s0-2 .5-3 .5-1.3.5-4 0-3 .5-4 .5-1.3.5-3 0-2 .5-3 .5-1.3.5-4 0-3 .5-4 .5-1.1.5-6c0-4.8 0-5 .5-6l.5-1v-49.7l.5-1 .4-1v-13.7l-.2-13.7.6-1.2q1-2.3 0-4.5l-.5-1.1v-19.6l-.5-1.2c-.4-1-.5-1.5-.5-3 0-1.6 0-2-.5-3q-.5-1-.5-2t-.5-2-.5-2q0-.9-.5-2-.5-1-.5-2t-.5-2-.5-2c0-.7-.2-1.4-1-3q-1-2-1-2.8c0-.8-.7-2.3-4.5-10a55 55 0 0 0-7.6-13.1c-.8-1.6-1.3-2.3-3-4l-2.5-3a56 56 0 0 0-14.7-13.2l-1.9-1.4-2-1.5q-1-1-4-2.5-3-1.4-4-2.5a43 43 0 0 0-9-5c-7.1-3.6-8-4-9.2-4.1s-2-.4-5.3-2-4.1-2-5-2c-.7 0-1.3-.2-2.9-1q-2-1-2.8-1-1 0-2-.5t-2-.5q-.9 0-2-.5-1-.5-2-.5t-2-.5-2-.5q-.9 0-2-.5-1-.5-2-.5t-2-.5-2-.5q-.9 0-2-.5c-.9-.4-1.3-.5-3-.5s-2 0-3-.5-1.3-.5-3-.5-2 0-3-.5-1.3-.5-4-.5-3 0-4-.5l-1.1-.5h-10.7l-10.7.2-1.1-.5c-.9-.4-1.3-.5-3-.5-1.8 0-2.3 0-3.3.5l-1.2.5h-96.7l-1.3-.5-2.3-.6c-.8 0-1.8-.4-4.8-1.9a15 15 0 0 1-5.1-3.3 16 16 0 0 1-3.4-5.3c-1.6-3.2-1.9-4-1.9-4.8a5 5 0 0 0-.5-2c-.4-1-.5-1.4-.5-3s0-2.1-.5-3c-.5-1-.5-1.2-.5-5.8s0-4.7.5-5.8l.5-1v-18.1l-.5-1.2c-.5-1.2-.5-1.4-.5-6 0-4.8 0-4.9-.5-6s-.5-1.2-.5-4c0-2.6 0-3-.5-4s-.5-1.2-.5-3.8 0-3-.5-4l-.5-2q0-.8-.5-2l-.5-2q0-.8-.5-2l-.5-2q0-.8-.5-2l-.5-2q0-.8-.5-2t-.5-2c0-.7-.4-1.6-1.5-4s-1.5-3.1-1.5-4-.3-1.5-2.5-6a30 30 0 0 0-3.5-6c-.5-.6-1.4-1.9-2-3a15 15 0 0 0-3.1-4.1l-2.5-3a32 32 0 0 0-8.6-8.1l-2-1.5q-.9-.5-1.9-1.4c-.5-.5-1.6-1.2-2.2-1.6l-1.9-1.4a32 32 0 0 0-8-4.5c-6.6-3.3-7.5-3.7-8.4-3.7-.8 0-1.5-.3-4-1.5-2.3-1.1-3.2-1.5-3.9-1.5q-.8 0-1.9-.5t-2-.5q-.8 0-2-.5-1-.5-2-.5-.8 0-2-.5-1-.5-2-.5-.8 0-2-.5-1-.5-2-.5l-1.8-.4c-.8-.3-1.5-.4-3-.4-1.6 0-2 0-3-.5s-1.3-.5-2.9-.5-2-.1-3-.5-1.6-.5-3-.5-2-.1-3-.5-1.5-.5-4-.5-3 0-4-.5-1.5-.5-4-.5c-2.6 0-2.9 0-3.9-.5s-1-.5-7-.5-5.9 0-7-.5l-1-.5h-17.7l-1.2-.5-1.2-.5h-21.6l-1-.5-1.1-.5H439.9zm104.7 39.4 1 .5h13.9l1 .5c1.1.5 1.2.5 6 .5s4.8 0 5.9.5c1 .5 1.2.5 5 .5s4 0 5 .5 1.3.5 4 .5 3 0 4 .5 1.3.5 4 .5 3 0 4 .5 1.3.5 3 .5 2 0 3 .5 1.3.5 3 .5 2 0 3 .5 1.3.5 2.8.5q1.8 0 2.8.4l2 .4a5 5 0 0 1 2 .5q1 .5 2 .5.8 0 2 .5 1 .5 2 .5.8 0 2 .5a5 5 0 0 0 2 .5q.9-.1 2.8 1 2 .9 3.2 1c1.1.1 2 .5 7 3a31 31 0 0 1 6.7 3.9q1.3 1 3.1 2c1.8 1 2.1 1.2 6.2 5.3a36 36 0 0 1 6.4 7.3 34 34 0 0 1 3.9 6.9c2.5 5 2.9 6 2.9 6.7s.2 1.4 1 3c1 2 1 2 1 3.9 0 1.7 0 2.1.5 3 .4 1 .5 1.4.5 3s0 2.1.5 3c.5 1 .5 1.3.5 5s0 4 .5 5l.5 1.1v17.8l-.5 1c-.5 1.1-.5 1.2-.5 7 0 6 0 6-.5 7s-.5 1.4-.5 4c0 2.8 0 3-.5 4q-.5 1.2-.5 2.1c0 .9-.3 1.5-1.8 4.7-1.9 3.6-1.9 3.6-4.2 6l-2.3 2.3-4 2c-3.3 1.7-4 2-4.9 2a5 5 0 0 0-2 .5l-1.1.5h-35.6l-1-.5-1.1-.5h-71.6l-1 .5-1.1.5h-25.9l-1 .5-1.1.5h-47.6l-1-.5-1.2-.5-55.4.1-55.4.2-1.3-.6c-1.3-.5-1.5-.5-5.1-.5s-3.8 0-4.9-.5a5 5 0 0 0-2-.5c-.8 0-1.5-.3-3.8-1.4-2.8-1.4-3-1.5-5.4-3.9a14 14 0 0 1-3.8-5.2c-1.2-2.2-1.4-2.9-1.4-3.7a5 5 0 0 0-.5-2c-.5-1-.5-1.3-.5-4s0-3-.5-4c-.5-1.1-.5-1.1-.5-7s0-5.9.5-7c.4-.9.5-1.3.5-3s0-2 .5-3q.5-1 .5-2t.5-2 .5-2 .5-2 .5-2 .5-2 .5-2 .5-2a5 5 0 0 0 .5-2q0-1 .5-2 .5-.8.5-1.8c0-.7.2-1.4 1-3 .8-1.5 1-2.2 1-3q0-.9.5-2a37 37 0 0 1 4.8-11.7 48 48 0 0 1 15.1-20l2-1.6c.6-.6 2-1.5 3-2a15 15 0 0 0 3-2q2-1.8 4-1.9c.6 0 1.6-.4 4.7-2 3.2-1.5 4-1.9 5.1-2q1.3-.1 3.2-1 2-1.1 2.8-1 1 0 2-.4t1.9-.4 2-.5 2-.5 2-.5q1-.5 2-.5.8 0 2-.5c.8-.4 1.3-.5 2.8-.5 1.6 0 2 0 3-.5.8-.4 1.3-.5 3-.5s2 0 3-.5c.8-.4 1.3-.5 3-.5s2 0 3-.5c.8-.4 1.3-.5 3-.5s2 0 3-.5c.8-.4 1.3-.5 3-.5s2 0 3-.5 1.2-.5 4-.5c2.6 0 3 0 4-.5s1.2-.5 5-.5 3.9 0 5-.5c1-.5 1.2-.5 4.8-.5 3.7 0 3.9 0 5-.5 1-.5 1.2-.5 5-.5s3.9 0 5-.5l1-.5h13.9l1-.5 1.1-.5h15.7l1-.5 1.1-.5h21.7l1-.5 1.1-.5h22zm48.6 160.2 1 .5H637l1 .5 1.1.5h52.1l1.1-.5 1.1-.5h29.5l1-.5 1.1-.5h75.6l1 .5 1.1.5h17.7l1 .5c1.1.5 1.2.5 7 .5 6 0 6 0 7 .5 1.1.5 1.2.5 6 .5 4.9 0 5 0 6 .5s1.4.5 4 .5c2.8 0 3 0 4 .5s1.4.5 3 .5 2.2.1 2.9.4q.7.4 2.8.4c1.6 0 2.1.1 3.1.5s1.5.5 3 .5 2 0 2.9.5 1.3.5 3 .5c2 0 2 0 4 1 1.5.8 2.2 1 3 1q.8 0 2 .5 1 .5 2 .5l1.8.4q1 .4 2.2.6c1 .1 1.8.5 4 1.5 2.1 1 3 1.4 4 1.5 1.1.1 2 .5 6 2.5a24 24 0 0 1 5.7 3.4 18 18 0 0 0 4 2.4c2.2 1 3 1.5 4 2.5l2.1 1.6q1 .6 4 3.5a32 32 0 0 0 4 3.5c1.2.6 3.2 2.6 3.9 3.9.3.5 1.5 2 2.6 3.1s2.3 2.5 2.5 3q.5.9 1.6 2.1t2.1 3.1q1 2 2 3.1c1 1 1.6 2 4.4 7.8 2.7 5.5 3.2 6.7 3.3 7.8q.1 1.2 1 3c.8 1.5 1 2.2 1 3s.2 1.3 1 3c.8 1.5 1 2.2 1 3q0 .9.5 2 .5 1 .5 2t.5 2 .5 2q0 .9.5 2c.4.8.5 1.3.5 2.8s.1 2 .5 3 .5 1.6.5 3 .1 2 .5 3c.5 1.1.5 1.4.5 5s0 3.9.5 5 .5 1.3.5 7 0 5.9.5 7l.5 1v35.2l-.5 1c-.5 1.1-.5 1.2-.5 6 0 4.9 0 5-.5 6s-.5 1.4-.5 4c0 2.8 0 3-.5 4s-.5 1.4-.5 3c0 1.5-.1 2-.5 3q-.5 1.1-.5 2t-.5 2l-.6 2.2q0 1.1-.9 2.8a10 10 0 0 0-1 3.1c-.1 1.1-.5 2-2.5 6a25 25 0 0 1-3.4 5.8l-1.7 2.1a71 71 0 0 1-11.8 11.4 16 16 0 0 1-4 2.5q-3 1.4-4.1 2.6c-1 1-2.3 1.6-8.8 5-6.9 3.4-7.8 3.8-8.6 3.8-1 0-1.8.4-7 3-5.3 2.5-6.2 2.9-7.3 3s-1.9.4-5.2 2-4 2-4.8 2-1.5.3-4 1.5c-2.4 1.2-3.2 1.5-3.9 1.5s-1.5.3-3.8 1.4a13 13 0 0 1-4.1 1.6c-1 .1-1.9.4-4 1.5-2.2 1-3 1.4-4 1.5s-1.9.4-4 1.5c-2.2 1-3 1.4-4 1.5s-1.8.4-3.2 1q-2 1.1-2.8 1c-.8 0-1.4.2-3 1s-2.3 1-3 1-1.4.2-3 1-2.3 1-3 1-1.4.2-3 1q-2.1 1-3 1-.7 0-2.7 1t-3.1 1q-1.3.1-3 1-1.8.9-3 1-1.4.1-3 1-1.9.9-3 1-1.4.1-3.2 1-2 1.1-2.8 1a5 5 0 0 0-2 .5q-1.1.5-2 .5c-.8 0-1.5.2-3 1-1.7.8-2.3 1-3 1-.9 0-1.5.2-3 .9q-2 1-2.8.9-1 0-2 .5t-2 .5q-.7 0-2.8 1c-1.6.8-2.3 1-3 1a5 5 0 0 0-2 .5q-1.1.5-2 .5c-.8 0-1.5.2-3 1-1.6.8-2.3 1-3 1a5 5 0 0 0-2 .5q-1.1.5-2 .5c-.8 0-1.5.2-3 1-1.6.8-2.3 1-3 1a5 5 0 0 0-2 .5q-1.1.5-2 .5c-.8 0-1.5.2-3 1-1.6.8-2.3 1-3 1a5 5 0 0 0-2 .5q-1.1.5-2 .5-1 0-2 .5-1.1.5-2 .5c-.8 0-1.4.2-3 1-1.4.8-2 1-2.8 1a5 5 0 0 0-2 .5q-1.2.5-2 .5-1 0-2 .5-1.2.5-2 .5-1 0-2 .5-1.2.5-2 .5-1 0-2 .5-1.2.5-2 .5c-.8 0-1.5.2-3 1-1.6.8-2.3 1-3 1a5 5 0 0 0-2 .5q-1.2.5-2 .5-1 0-2 .5-1.2.5-2 .5-1 0-2 .5-1.2.5-2 .5-1 0-2 .5-1.2.5-2 .5-1 0-2 .5t-2 .5q-.7 0-1.8.5t-2 .5-2 .5-2 .5-2 .5-2 .5-2 .5c-1 .4-1.4.5-3 .5s-2.1 0-3 .5q-1.1.5-2 .5-1 0-2 .5-1.1.5-2 .5-1 0-2 .5-1.1.5-2 .5-1 0-2 .5-1.1.5-2 .5-1 0-2 .5c-1 .4-1.4.5-3 .5s-2.1 0-3 .5q-1.1.5-2 .5-1 0-2 .5c-1 .4-1.4.5-3 .5-1.5 0-2 0-2.8.5-1 .4-1.4.5-3 .5s-2.1 0-3 .5c-1 .4-1.4.5-3 .5s-2.1 0-3 .5c-1 .4-1.4.5-3 .5s-2.1 0-3 .5c-1.1.5-1.1.5-7 .5s-5.9 0-7-.5a5 5 0 0 0-2-.5c-1.5 0-2.7-.7-5.1-3.2a14 14 0 0 1-3.7-5.2l-1.4-2.8v-2c0-1.7 0-2.1-.5-3-.5-1-.5-1.3-.5-4s0-3-.5-4-.5-1.4-.5-3 0-2.1-.5-3q-.5-1.2-.5-2c0-.8-.2-1.5-1-3-.8-1.6-1-2.3-1-3s-.2-1.4-1-3c-.8-1.5-1-2-1-2.8 0-1.5-2.6-6.8-4-8.3l-1.5-2c-.3-.6-2.4-2.8-5-5.6l-4.6-4.5-4.3-2.2c-3.6-1.8-4.6-2.2-5.3-2.2q-.8 0-2.9-1c-1.5-.8-2.2-1-3-1q-.8 0-2-.5-1-.5-2-.5-.8 0-2-.5-1-.5-2-.5-.8 0-2-.5c-.9-.4-1.3-.5-3-.5s-2 0-3-.5-1.3-.5-4-.5-3 0-4-.5-1.2-.5-5-.5-3.9 0-5-.5-1.2-.6-4.9-.5c-3.6.2-3.7.1-4.7-.3l-1-.5H481l-1.2.5c-1.2.5-1.2.5-8 .5h-6.9l-1 .5c-1 .5-1.3.5-4 .5s-3 0-4 .5-1.4.5-3 .5-2.1 0-3 .5c-1 .4-1.4.5-2.9.5s-2 .1-3 .5l-2 .5q-.8 0-2 .5l-2 .5q-.8 0-2 .5t-2 .5c-.7 0-1.9.5-6 2.5s-5.2 2.7-6.1 3.6l-2 1.5a33 33 0 0 0-8.1 8.6c-.9.9-1.5 2-3.6 6.3a21 21 0 0 0-2.5 6q0 .8-1 2.9c-.8 1.5-1 2.2-1 3q0 .8-.5 2-.5 1-.5 2 0 .8-.5 2-.5 1-.5 2 0 .8-.5 2-.5 1-.5 2l-.4 1.8c-.4.7-.5 1.4-.6 3.1l-.1 2.3-2.2 4.5-2.9 5.2a18 18 0 0 1-4.4 2.6l-3.8 1.9h-4.8c-4.6 0-4.7 0-5.8-.5-.9-.4-1.3-.5-3-.5s-2 0-3-.5-1.3-.5-3-.5-2 0-3-.5q-1-.5-1.9-.5t-2-.5c-1-.4-1.6-.5-3-.5s-2-.1-3-.5q-1.2-.5-2-.5l-2-.5q-1.2-.5-2-.5l-2-.5q-1.2-.5-2-.5l-2-.5q-1.2-.5-2-.5c-.4 0-1.3-.2-1.9-.5q-1-.5-2-.5t-2-.5-2-.5q-.9 0-2-.5a5 5 0 0 0-2-.5c-.7 0-1.4-.2-3-1-1.5-.8-2.2-1-3-1q-.9 0-2-.5-1-.5-2-.5t-2-.5-1.9-.5-2-.5-2-.5-2-.5l-2.2-.6q-1 0-3-1t-2.8-.9q-.8 0-2-.5t-2-.5l-2-.5q-1.2-.5-2-.5l-2-.5q-1.2-.5-2.1-.5c-.7 0-1.4-.2-3-1-1.5-.8-2.2-1-3-1q-.9 0-2-.5-1-.5-2-.5t-2-.5a5 5 0 0 0-2-.5c-.7 0-1.4-.2-3-1-1.5-.8-2.2-1-3-1q-.9 0-2-.5a5 5 0 0 0-2-.5c-.7 0-1.4-.2-3-1-1.5-.8-2.2-1-3-1q-.9 0-2-.5-1-.5-2-.5t-2-.5a5 5 0 0 0-2-.5c-.7 0-1.4-.2-3-1-1.5-.8-2.2-1-3-1q-.9 0-2-.5-1-.5-1.9-.5t-2.9-1-2.9-1-1.9-.4-2-.4c-.7 0-1.4-.2-3-1-1.5-.8-2.2-1-3-1q-.8 0-2-.5a5 5 0 0 0-2-.5c-.7 0-1.4-.2-3-1q-2-1-2.8-1-1 0-2-.5l-2.3-.6q-1.1 0-2.8-.9a9 9 0 0 0-3-1q-1.4-.1-3.2-1-2-1-2.8-1t-2-.5-2-.5-2.9-1c-1.5-.8-2.2-1-3-1q-.8 0-2-.5a5 5 0 0 0-2-.5c-.7 0-1.4-.2-3-1s-2.2-1-3-1c-1 0-1.5-.2-3.2-1-1.6-.8-2.2-1-3-1s-1.4-.2-3-1-2.2-1-3-1-1.4-.2-3-1-2.2-1-3-1-1.4-.2-3-1-2.2-1-3-1-1.5-.3-4-1.5c-2.5-1.3-3.2-1.5-4-1.5-.9 0-1.4-.2-3.9-1.5-2.4-1.3-3-1.5-3.9-1.5s-1.4-.2-3.8-1.4-3.1-1.5-4.3-1.6-1.9-.4-6-2.5c-4.1-2-4.9-2.3-5.7-2.3-1 0-2.5-.7-17.9-8.4a130 130 0 0 1-20.9-11.5c-1.8-.9-2-1.1-6.1-5.1a40 40 0 0 1-6.4-7.4 12 12 0 0 1-2.9-5.7q0-.7-1.2-3.4c-1.5-3-1.8-4-1.8-4.9q0-.7-.5-1.9l-.5-2q0-.8-.5-2c-.4-1-.5-1.6-.5-3s-.1-2-.5-3-.5-1.5-.5-4c0-2.6 0-3-.5-4s-.5-1.2-.5-4c0-2.6 0-3-.5-4l-.5-1v-15.6l-.5-1.2-.5-1.2v-15.2l.5-1 .5-1.1v-14l.5-1c.5-1.1.5-1.3.5-5 0-3.6 0-3.8.5-4.9.4-.9.5-1.3.5-3s0-2 .5-3 .5-1.3.5-3 0-2 .5-3q.5-1 .5-2 0-.8.5-2 .5-1 .5-2 0-.8.5-2 .5-1 .5-2 0-.8.5-2a5 5 0 0 0 .5-2q-.1-.9 1-2.8a50 50 0 0 1 6.4-15 61 61 0 0 1 10.8-17.8 107 107 0 0 1 14.1-13.8q1-.9 2.1-1.5t2.2-1.6c1-1 2.4-1.7 11.8-6.4a49 49 0 0 1 11.6-5.3c.8 0 1.5-.2 4-1.5 2.5-1.2 3.2-1.5 4-1.5a5 5 0 0 0 2-.5q1-.5 2-.5.8 0 1.8-.5 1.1-.5 2-.5 1 0 2-.5c1-.4 1.4-.5 3-.5s2.1 0 3-.5c1-.4 1.4-.5 3-.5s2.1 0 3-.5c1-.5 1.3-.5 4-.5s3 0 4-.5 1.3-.5 5-.5 4 0 5-.5l1.1-.5H186l1-.5 1.1-.5h77.6l1 .5 1.1.5h61.5l1 .5 1.1.5h39.8l1-.5 1.1-.5H399l1-.5 1.1-.5H415l1-.5 1.1-.5H431l1-.5 1.1-.5H447l1-.5 1.1-.5h19.7l1-.5 1.1-.5h21.9l1-.5c1-.5 1.2-.5 9-.6s8-.1 9.1-.6c1.3-.5 1.4-.5 8-.5 6.8 0 6.8 0 8-.5l1.2-.5h22.4l1.2-.5 1.2-.5h37.2zm342.7 272.6c2.4 1.2 3 1.6 4.2 2.8a15 15 0 0 1 3.3 5.1 18 18 0 0 1 2.5 7.1c.4 1.1.5 1.6.5 4 0 2.5 0 3 .5 4 .5 1.1.5 1.4.5 5 0 3.7 0 3.9.5 5 .5 1 .5 1.1.5 6 0 4.8 0 4.9.5 6s.5 1 .5 6.8 0 5.8.5 7 .5 1.3.5 7 0 5.8.5 7l.5 1.2v17.7l.5 1 .5 1.1v33.2l-.5 1-.5 1.1v14l-.5 1-.5 1.1v13.7l-.5 1c-.5 1.1-.5 1.2-.5 7 0 6 0 6-.5 7-.5 1.1-.5 1.3-.5 5 0 3.6 0 3.9-.5 5s-.5 1.4-.5 6 0 4.8-.5 6-.5 1.4-.5 6c0 4.7 0 4.8-.5 5.9-.5 1-.5 1.2-.5 5s0 4-.5 5-.5 1.3-.5 3.9 0 3-.5 4-.5 1.5-.5 4 0 3-.5 4-.5 1.6-.5 3-.1 2-.5 3-.5 1.6-.5 3-.1 2-.5 3-.5 1.5-.5 3 0 2-.5 2.9q-.5 1-.5 2t-.5 2c-.4.9-.5 1.3-.5 3 0 1.8 0 2.3-.5 3.2q-.5 1-.5 2t-.5 2a5 5 0 0 0-.5 2c0 .7-.2 1.4-1 3-.8 1.5-1 2.2-1 3q0 .9-.5 2a5 5 0 0 0-.5 2c0 .8-.3 1.5-1.5 4s-1.5 3.2-1.5 4-.3 1.5-1.5 4c-1.2 2.4-1.5 3.2-1.5 4s-.4 1.7-3 6.7c-2.6 5.3-2.9 6-3 7.2s-.4 2-3.9 8.8a43 43 0 0 1-7.9 12.8q-.9 1-1.5 2l-1.5 2q-.9 1-1.5 2c-.8 1.4-4.4 5-5.8 5.9q-1.2.7-2.3 1.7t-2 1.5c-.5.2-1.4 1-2 1.5q-1 1.1-4 2.5-2.9 1.4-4 2.4-1.8 1.8-3.7 1.8c-.8 0-1.5.3-4.8 2-3.4 1.7-4 2-4.9 2-.8 0-1.4.2-3 1s-2.3 1-3 1a5 5 0 0 0-2 .5q-1.2.5-2 .5-1 0-2 .5-1.2.5-2 .5-1 0-2 .5-1.2.5-2 .5-1 0-2 .5c-1 .4-1.4.5-3 .5s-2.1 0-3 .5c-1 .4-1.4.5-3 .5s-2.1 0-3 .5c-1 .4-1.4.5-3 .5s-2.1 0-3 .5c-1 .5-1.3.5-5 .5-3.6 0-3.8 0-4.8.5s-1.3.5-5 .5-4 0-5 .5l-1.1.5h-15.9l-1 .5c-1 .5-1.3.5-5 .5s-4 0-5 .5-1.2.5-6 .5-4.8 0-5.8.5-1.2.5-6 .5c-4.9 0-5 0-6 .5s-1.2.5-6 .5c-4.9 0-5 0-6 .5-1.1.5-1.1.5-7 .5-5.7 0-5.8 0-6.8.5-1.1.5-1.1.5-7 .5s-6 0-7 .5l-1.1.5h-19.9l-1 .5-1.1.5h-63.5l-1 .5-1.1.5h-23.9l-1 .5-1.1.5h-27.7l-1 .5-1.1.5h-61.6l-1.1-.5-1.1-.5-11.6.1-11.6.2-1.3-.6-1.3-.5h-21.6l-1-.5-1.1-.5h-27.7l-1.2-.5-1.2-.5h-17.6l-1-.5-1.1-.5h-6.9c-6.8 0-6.8 0-8-.5s-1.3-.5-7-.5-5.8 0-7-.5-1.3-.5-7-.5-5.8 0-6.9-.5l-1-.5h-18.1l-1-.5-1.1-.5H272l-1-.5-1.1-.5H252l-1-.5-1.1-.5h-13.7l-1-.5c-1.1-.5-1.2-.5-6-.5s-5 0-6-.5-1.1-.4-5.7-.3h-4.7l-1.3-.5c-1.2-.5-1.6-.5-4.1-.5s-3 0-4-.5-1.5-.5-4-.5-3 0-4-.5-1.5-.5-3-.5-2 0-2.9-.5-1.3-.5-3-.5-2 0-3-.5-1.3-.5-3-.5-2 0-3-.5q-1-.5-2-.5-.8 0-2-.5-1-.5-2-.5-.8 0-2-.5a5 5 0 0 0-2-.5q-.9.1-2.8-1-2-.9-3.2-1c-1-.1-1.9-.5-4.1-1.6q-2.9-1.5-3.7-1.4c-1.1 0-2-.4-8.6-3.6a30 30 0 0 1-7.3-4.2q-1.3-1.1-3-2.1-2-1-3-2-1.2-1-2.1-1.5c-.5-.2-1.8-1.4-3-2.5a18 18 0 0 0-3-2.5c-1.2-.6-5.2-4.6-5.9-5.9q-.6-1-3.6-4.1a17 17 0 0 1-4-5c-.6-1.1-1.4-2.4-2-3q-1-1.1-2.5-4-1.4-3-2.5-4c-.9-1-1.5-2-3.5-6-2-4.2-2.4-5-2.4-5.8 0-.9-.3-1.6-2.5-6-2.1-4.2-2.5-5.2-2.5-6q.1-.7-1-2.7-.9-1.9-1-3c0-.5-.3-1.6-.5-2.2q-.5-1.2-.5-2t-.5-2l-.5-2q0-.8-.5-2l-.5-2q0-.8-.5-2t-.5-2-.5-2-.5-2-.5-2-.5-2-.5-2c-.4-.8-.5-1.3-.5-3s0-2-.5-3c-.4-.8-.5-1.3-.5-3s0-2-.5-3c-.4-.8-.5-1.3-.5-2.8s-.1-2-.5-3-.5-1.5-.5-4 0-3-.5-4c-.5-1.1-.5-1.4-.5-5s0-3.9-.5-5-.5-1.4-.5-6c0-4.8 0-4.9-.5-6l-.5-1v-19.6l-.5-1.2-.5-1.2v-39.4l-.5-1.2-.5-1.2V631l.5-1 .5-1.1v-73.5l.4-.9c.4-.7.5-1.4.6-3.1l.1-2.3 1.4-2.7c1.2-2.4 1.6-3 2.8-4.2 1.3-1.3 1.7-1.6 5.2-3.3l3.7-1.9h2.8c2.6-.1 2.8-.1 4 .4q1.3.5 2.1.5t1.9.5a5 5 0 0 0 2 .5c.7 0 1.4.2 3 1s2.2 1 3 1 1.4.2 3 1 2.2 1 3 1 1.5.3 3.8 1.4c2.3 1.2 3.2 1.5 4.1 1.6q1.3.1 3 1 1.8.9 3 1 1.3.1 3 1 1.9.9 3 1c1 .1 2 .5 4 1.5 2.2 1 3 1.4 4 1.5q1.4.1 3.2 1 2 1 2.8 1t2.9 1c1.5.8 2.2 1 3 1q.9 0 2 .5a5 5 0 0 0 2 .5c.7 0 1.4.2 3 1 1.5.8 2.2 1 3 1l1.8.4 2.2.6q1.4.1 3.3 1 2 1.1 2.9 1c.9-.1 1.4.2 3 1 1.5.8 2.2 1 3 1q.9 0 2 .5 1 .5 2 .5t2 .5 2 .5 2 .5 2 .5 2 .5 1.9.5c.4 0 1.3.2 1.9.5a5 5 0 0 0 2 .5c.7 0 1.4.2 3 1 1.5.8 2.2 1 3 1q.8 0 2 .5 1 .5 2 .5.8 0 2 .5 1 .5 2 .5.8 0 2 .5 1 .5 2 .5.8 0 2 .5 1 .5 2 .5.8 0 2 .5c.9.4 1.3.5 3 .5 1.5 0 2.1.1 2.8.4q.9.4 1.8.4t2.1.5 2 .5l2 .5q1.2.5 2 .5l2 .5q1.2.5 2 .5t1.9.5 2 .5 2 .5c.9.4 1.3.5 3 .5s2 0 3 .5q1 .5 2 .5t2 .5 2 .5q.9 0 2 .5c.9.4 1.3.5 3 .5s2 0 3 .5q1 .5 1.9.5t2 .5 2 .5l2 .5q1.2.5 2 .5l2 .5q1.2.5 2 .5l2 .5c1 .4 1.6.5 3 .5s2 .1 3 .5q1.1.5 2 .5t2 .5l2 .5q1 0 2 .5 1.1.5 2 .5 1 0 2 .5c1 .4 1.4.5 3 .5s2.2 0 3 .5q1.1.5 2 .5 1 0 2 .5 1.1.5 2 .5 1 0 2 .5 1.1.5 2 .5 1 0 2 .5c1 .4 1.4.5 3 .5s2.2 0 3 .5q1.1.5 2 .5 1 0 2 .5 1.1.5 2 .5 1 0 2 .5 1.1.5 2 .5 1 0 2 .5 1.1.5 2 .5c.4 0 1.3.2 1.9.5q1 .5 2 .5t2 .5c.9.4 1.3.5 3 .5s2 0 3 .5q1 .5 2 .5t2 .5 2 .5q.9 0 1.8.4a4 4 0 0 0 1.9.4q1 0 2 .5t2 .5 2 .5 2 .5l2 .5q1.2.5 2 .5l2 .5q1.1.5 2 .5t2 .5l2.3.6q1 0 2.8.9c1.4.7 2 1.2 4 3l2.2 2.3 2 4 2 4v2.9c0 2.7 0 3 .5 4s.5 1.3.5 5 0 4 .5 5 .5 1.3.5 4 0 3 .5 4 .5 1.3.5 4c0 2.5 0 2.8.5 3.8q.5 1.2.5 2 0 1 .5 2c.4 1 .5 1.4.5 3s0 2.1.5 3q.5 1.2.5 2c0 .8.2 1.5 1 3 .8 1.6 1 2.3 1 3 0 .9.4 1.8 3 7l3 6.1 3.7 3.7 3.6 3.6 6 3c5.2 2.7 6.2 3.1 7.3 3.2a9 9 0 0 1 3.1 1c1.9 1 2 1 3.8 1 1.5 0 2 .1 3 .5q1.2.5 2 .5l2 .5c1 .4 1.5.5 3 .5s2 0 2.9.5 1.3.5 3 .5 2 0 3 .5 1.2.5 5 .5 4 0 5 .5 1.2.5 4.9.5c3.6 0 3.9 0 5 .5l1.2.5h39.8l1-.5c1-.5 1-.5 6-.5 4.8 0 4.9 0 6-.5s1.2-.5 5-.5 3.9 0 5-.5c.8-.4 1.3-.5 3-.5s2 0 3-.5c.8-.4 1.3-.5 3-.5s2 0 3-.5c.8-.4 1.3-.5 3-.5s2 0 3-.5q1-.5 2-.5c.7 0 1.4-.3 3.8-1.5q2.8-1.5 3.5-1.5t1.4-.7c.4-.4 2-1.3 3.6-2.1a14 14 0 0 0 6.5-5.5c.3-.5 1-1.5 1.6-2l1.5-2q.5-1 1.4-2c1.4-1.4 3.2-5.2 3.2-6.5 0-.8.2-1.5 1.5-4 1.2-2.5 1.5-3.2 1.5-4q0-.8.5-2 .5-1 .5-2 0-.8.5-2 .5-1 .5-2 0-.8.5-2 .5-1 .5-2 0-.8.5-2c.4-.9.5-1.3.5-3s0-2 .5-3c.4-.8.5-1.2.5-2.8s0-2 .5-3 .5-1.3.5-3 0-2 .5-3 .5-1.3.5-4 0-3 .5-4 .5-1.3.5-3c0-1.8 0-2 .9-3.9q.9-2 .9-2.8c0-1.5 1-3 3.5-5.4l2.2-2.3 4.8-2.3 4.7-2.4h2c1.6-.1 2.4-.2 3.3-.6a7 7 0 0 1 3-.5c1.6 0 2 0 3-.5.8-.4 1.3-.5 3-.5s2 0 3-.5q1-.5 2-.5.8 0 2-.5c.8-.4 1.3-.5 3-.5s2 0 3-.5q1-.5 2-.5.8 0 2-.5c.5-.3 1.4-.5 1.8-.5q.8 0 2-.5c1-.4 1.6-.5 3-.5s2-.1 3-.5l2-.5q.8 0 2-.5l2-.5q.8 0 2-.5c1-.4 1.5-.5 3-.5 1.6 0 2 0 3-.5q1-.5 2-.5t2-.5 2-.5q.9 0 2-.5 1-.5 2-.5t2-.5 2-.5q.9 0 2-.5 1-.5 2-.5t2-.5 2-.5q.9 0 2-.5c.5-.3 1.4-.5 1.8-.5q.8 0 2-.5l2-.5q.8 0 2-.5l2-.5q.8 0 2-.5l2-.5q.8 0 2-.5l2-.5q.8 0 2-.5t2-.5 2-.5 2-.5 1.9-.4l1.9-.4q.9 0 2-.5 1-.5 2-.5t2-.5 2-.5q.9 0 2-.5 1-.5 2-.5t2-.5c.5-.3 1.4-.5 1.8-.5q.8 0 3-1c1.5-.8 2.2-1 3-1a5 5 0 0 0 2-.5q1-.5 2-.5.8 0 2-.5 1-.5 2-.5.8 0 2-.5 1-.5 2-.5.8 0 2-.5 1-.5 2-.5.8 0 2-.5 1-.5 2-.5.8 0 2-.5 1-.5 2-.5.8 0 2-.5 1-.5 2-.5c.7 0 1.4-.2 3-1 1.5-.8 2.2-1 3-1a5 5 0 0 0 2-.5c.5-.3 1.4-.5 1.8-.5q.8 0 2-.5 1-.5 2-.5.8 0 2-.5 1-.5 2-.5.8 0 2-.5 1-.5 2-.5c.7 0 1.4-.2 3-1 1.5-.8 2.2-1 3-1a5 5 0 0 0 2-.5q1-.5 2-.5c.7 0 1.4-.2 3-1 1.5-.8 2.2-1 3-1a5 5 0 0 0 2-.5q1-.5 2-.5c.7 0 1.4-.2 3-1 1.5-.8 2.2-1 3-1a5 5 0 0 0 2-.5 5 5 0 0 1 2-.5c.7 0 1.3-.2 2.8-1 1.6-.8 2.1-1 2.9-1s1.4-.2 3-1 2.3-1 3-1a5 5 0 0 0 2-.5q1.1-.5 2-.5c.8 0 1.5-.2 3-1 1.6-.8 2.3-1 3-1s1.4-.2 3-1 2.3-1 3-1 1.4-.2 3-1 2.3-1 3-1 1.4-.2 3-1 2.3-1 3-1c.9 0 1.5-.2 3.2-1 1.6-.8 2.3-1 3-1s1.5-.2 3-1q2.1-1 3-1 .7 0 2.7-1t3.1-1c1-.1 1.9-.4 4-1.5 2.2-1 3-1.4 4-1.5q1.3-.1 3-1 1.9-.9 3-1 1.4-.1 3.2-1 2-1.1 2.8-1c.8 0 1.4-.2 3-1s2.3-1 3-1 1.4-.2 3-1 2.3-1 3-1a5 5 0 0 0 2-.5l1.4-.5 1.5-.5c1.2-.5 1.3-.5 6-.5l4.9.1zm-425 2.4c1.1.5 1.2.5 6 .5 4.9 0 5 0 6 .5s1.4.5 4 .5 2.9 0 3.9.5 1.3.5 3 .5c1.9 0 2 0 3.8 1a9 9 0 0 0 3.2 1c1 .1 2 .4 5 2l3.7 1.8 3.3 3.3 3.3 3.4 1.9 3.7a18 18 0 0 1 2.5 7.1q.5 1.2.5 2t.5 2c.4 1 .5 1.5.5 3 0 1.6 0 2 .5 3s.5 1.2.5 4c0 2.6 0 3 .5 4l.5 1v45.2l-.5 1c-.5 1.1-.5 1.2-.5 6 0 4.9 0 5-.5 6s-.5 1.4-.5 4c0 2.5 0 3-.5 4q-.5 1.2-.5 2l-.5 2q-.5 1.2-.5 2t-.5 2l-.6 2.3c-.1 1.6-3.2 7.6-4.7 9.3l-1.7 2.2c-.7 1.3-3 3.7-4.3 4.3q-1 .5-2 1.4-1.8 1.8-3.5 1.8-.8 0-3 1c-1.5.8-2.2 1-3 1a5 5 0 0 0-2 .5q-1 .5-2 .5-.8 0-2 .5c-1 .5-1.2.5-4.8.5-3.7 0-3.9 0-5 .5l-1 .5h-37.8l-1-.5c-1.1-.5-1.3-.5-5-.5s-4 0-5-.5-1.4-.5-4-.5c-2.8 0-3 0-4-.5a5 5 0 0 0-2.1-.5c-.9 0-1.6-.3-5.7-2.4l-4.8-2.4-3.5-3.5-3.5-3.6-1.7-3.7c-1.4-3-1.8-3.9-1.8-4.6q0-1-.5-1.9-.5-1-.5-2a5 5 0 0 0-.5-2c-.4-.8-.5-1.3-.5-3s0-2-.5-3-.5-1.1-.5-6c0-4.8 0-4.9-.5-6l-.5-1v-61.6l.5-1c.4-1 .5-1.4.5-3s0-2.2.5-3a5 5 0 0 0 .5-2c0-.8.2-1.5 1-3 .8-1.7 1-2.3 1-3 0-1.4 1.3-4 2.7-5.5q1-1.1 1.6-2.2c.3-.6 1.2-1.7 2.1-2.5 1.4-1.3 1.9-1.6 8-4.7l6.6-3.3h2c1.6-.1 2.4-.2 3.3-.6a7 7 0 0 1 3-.5c1.5 0 2-.1 3-.5 1.2-.5 1.3-.5 6.5-.5 4.9 0 5.4 0 6.2-.4.9-.4 1.4-.4 12.9-.4h12z"/></svg>