<svg xmlns="http://www.w3.org/2000/svg" width="1000" height="1000" viewBox="0 0 1000 1000"><g transform="scale(0.2)"><g transform="translate(0.000000,5000.000000) scale(0.100000,-0.100000)"
fill="#141413" stroke="none">
<path d="M21945 47114 c-49 -23 -57 -24 -297 -24 -241 0 -247 0 -300 -25 -52
-24 -58 -25 -300 -25 -241 0 -247 0 -300 -25 -51 -24 -61 -25 -250 -25 -188 0
-198 -1 -250 -25 -49 -23 -64 -25 -200 -25 -135 0 -150 -2 -200 -25 -44 -21
-68 -25 -145 -25 -76 0 -100 -4 -145 -25 -45 -21 -68 -25 -150 -25 -81 0 -104
-4 -150 -25 -45 -21 -68 -25 -150 -25 -81 0 -104 -4 -150 -25 -45 -21 -68 -25
-150 -25 -81 0 -104 -4 -150 -25 -32 -15 -71 -25 -100 -25 -28 0 -67 -10 -100
-25 -32 -15 -71 -25 -100 -25 -28 0 -67 -10 -100 -25 -32 -15 -71 -25 -100
-25 -28 0 -67 -10 -100 -25 -32 -15 -71 -25 -100 -25 -28 0 -67 -10 -100 -25
-32 -15 -71 -25 -100 -25 -36 0 -71 -12 -149 -50 -74 -36 -114 -50 -145 -50
-31 0 -71 -14 -145 -50 -79 -39 -113 -50 -150 -50 -41 0 -79 -15 -249 -100
-173 -86 -209 -100 -251 -100 -42 0 -77 -14 -252 -101 -160 -80 -214 -112
-258 -154 -41 -39 -94 -72 -200 -125 -105 -53 -159 -86 -199 -125 -31 -29 -76
-63 -100 -75 -25 -12 -70 -46 -101 -75 -30 -29 -77 -64 -105 -78 -64 -33 -598
-569 -639 -642 -16 -27 -50 -72 -75 -100 -26 -27 -69 -92 -95 -144 -28 -54
-71 -118 -102 -151 -45 -49 -75 -102 -178 -314 -107 -219 -125 -263 -125 -304
0 -40 -12 -72 -75 -194 -63 -122 -75 -154 -75 -194 0 -31 -9 -69 -25 -102 -15
-33 -25 -72 -25 -100 0 -29 -10 -68 -25 -100 -15 -33 -25 -72 -25 -100 0 -29
-10 -68 -25 -100 -21 -46 -25 -69 -25 -150 0 -82 -4 -105 -25 -150 -24 -52
-25 -62 -25 -250 0 -189 -1 -199 -25 -250 -25 -54 -25 -56 -25 -350 0 -295 0
-297 -25 -350 l-25 -54 0 -443 0 -443 25 -54 25 -53 0 -345 0 -345 -25 -53
c-22 -47 -25 -68 -25 -157 l0 -103 -109 -220 c-60 -121 -123 -235 -140 -254
-16 -19 -54 -47 -83 -63 -29 -15 -76 -50 -105 -77 -69 -64 -200 -128 -264
-128 -29 0 -67 -9 -101 -25 -32 -15 -71 -25 -100 -25 -28 0 -67 -10 -100 -25
l-53 -25 -790 0 -790 0 -53 25 c-54 25 -56 25 -350 25 -295 0 -297 0 -350 25
-53 25 -59 25 -300 25 -242 0 -248 1 -300 25 -54 25 -56 25 -350 25 -295 0
-297 0 -350 25 l-54 25 -843 0 -843 0 -54 -25 c-51 -24 -61 -25 -250 -25 -188
0 -198 -1 -250 -25 -49 -23 -65 -25 -195 -25 -129 0 -145 -2 -195 -25 -45 -21
-68 -25 -150 -25 -81 0 -104 -4 -150 -25 -32 -15 -71 -25 -100 -25 -28 0 -67
-10 -100 -25 -45 -21 -68 -25 -150 -25 -81 0 -104 -4 -150 -25 -32 -15 -71
-25 -100 -25 -28 0 -67 -10 -100 -25 -32 -15 -71 -25 -100 -25 -28 0 -67 -10
-100 -25 -45 -21 -68 -25 -150 -25 -81 0 -104 -4 -150 -25 -32 -15 -71 -25
-100 -25 -28 0 -67 -10 -100 -25 -32 -15 -71 -25 -100 -25 -36 0 -71 -12 -149
-50 -74 -36 -114 -50 -145 -50 -31 0 -71 -14 -145 -50 -80 -39 -113 -50 -151
-50 -42 0 -90 -21 -401 -176 -300 -150 -360 -184 -408 -229 -35 -33 -91 -71
-150 -100 -59 -30 -115 -67 -149 -100 -31 -29 -76 -63 -100 -75 -27 -13 -109
-85 -200 -175 -94 -93 -173 -161 -200 -175 -61 -30 -205 -173 -237 -235 -14
-28 -70 -96 -128 -155 -57 -58 -113 -125 -125 -150 -12 -24 -46 -69 -75 -100
-29 -30 -63 -75 -75 -100 -12 -24 -46 -69 -75 -100 -41 -42 -74 -98 -149 -247
-74 -147 -110 -207 -150 -250 -43 -47 -73 -99 -155 -267 -84 -173 -101 -217
-101 -256 0 -38 -13 -72 -75 -192 -64 -124 -75 -153 -75 -196 0 -42 -12 -74
-75 -201 -61 -124 -75 -161 -75 -199 0 -29 -10 -68 -25 -100 -15 -33 -25 -72
-25 -100 0 -29 -10 -68 -25 -100 -15 -33 -25 -72 -25 -100 0 -29 -10 -68 -25
-100 -15 -33 -25 -72 -25 -100 0 -29 -10 -68 -25 -100 -15 -33 -25 -72 -25
-100 0 -29 -10 -68 -25 -100 -15 -33 -25 -72 -25 -100 0 -29 -10 -68 -25 -100
-15 -33 -25 -72 -25 -100 0 -29 -10 -68 -25 -100 -21 -46 -25 -69 -25 -150 0
-75 -5 -107 -20 -141 -11 -24 -20 -64 -20 -90 0 -28 -10 -67 -25 -99 -21 -46
-25 -69 -25 -150 0 -82 -4 -105 -25 -150 -23 -50 -25 -65 -25 -200 0 -136 -2
-151 -25 -200 -21 -46 -25 -69 -25 -150 0 -80 -4 -105 -23 -142 -22 -45 -22
-51 -27 -606 l-5 -561 -43 -87 c-37 -73 -51 -92 -90 -117 -26 -16 -64 -32 -84
-36 l-38 -6 0 -1497 0 -1497 38 -6 c20 -4 58 -20 84 -36 39 -25 53 -44 92
-121 36 -71 46 -103 46 -140 0 -30 9 -68 25 -102 21 -44 25 -68 25 -143 0 -73
5 -102 25 -150 13 -33 25 -79 25 -102 0 -28 14 -71 46 -137 33 -67 49 -114 53
-158 6 -55 30 -108 180 -408 147 -293 181 -353 226 -401 33 -35 71 -91 100
-150 30 -59 67 -115 101 -150 74 -79 194 -319 194 -389 0 -30 9 -68 25 -102
14 -29 25 -71 25 -93 0 -22 11 -67 25 -100 23 -56 25 -71 25 -250 0 -179 2
-194 25 -250 l25 -60 0 -2030 0 -2030 25 -60 25 -60 0 -992 0 -991 25 -54 25
-53 0 -730 0 -730 -25 -53 -25 -54 0 -651 0 -652 -25 -53 -25 -54 0 -491 0
-492 -25 -53 -25 -54 0 -396 0 -397 -25 -53 -25 -54 0 -446 0 -447 -25 -53
-25 -54 0 -838 0 -838 25 -54 c24 -51 25 -61 25 -250 0 -188 1 -198 25 -250
23 -49 25 -65 25 -195 0 -129 2 -145 25 -195 23 -49 25 -64 25 -200 0 -135 2
-150 25 -200 15 -32 25 -71 25 -100 0 -28 10 -67 25 -100 15 -32 25 -71 25
-100 0 -28 10 -67 25 -100 15 -32 25 -71 25 -100 0 -28 10 -67 25 -100 15 -32
25 -71 25 -100 0 -36 12 -71 50 -149 39 -79 50 -113 50 -150 0 -40 13 -75 75
-200 61 -124 75 -160 75 -198 0 -42 20 -88 157 -357 128 -255 165 -319 209
-365 38 -40 72 -95 124 -200 53 -105 86 -159 125 -199 29 -31 60 -71 70 -90
10 -19 41 -60 70 -90 29 -31 63 -76 75 -100 12 -25 68 -92 125 -150 56 -58
112 -125 125 -150 32 -65 567 -602 634 -637 28 -14 75 -49 105 -77 31 -29 79
-65 106 -81 28 -15 95 -72 150 -125 55 -53 123 -110 150 -125 28 -16 73 -50
100 -75 28 -26 92 -69 144 -95 51 -27 119 -71 150 -100 48 -44 138 -93 609
-328 494 -248 557 -277 601 -277 37 0 70 -11 150 -50 79 -39 113 -50 150 -50
37 0 71 -11 150 -50 78 -38 113 -50 149 -50 29 0 68 -10 100 -25 33 -15 72
-25 100 -25 29 0 68 -10 100 -25 46 -21 69 -25 150 -25 82 0 105 -4 150 -25
33 -15 72 -25 100 -25 29 0 68 -10 100 -25 50 -23 66 -25 200 -25 125 0 154
-3 191 -20 40 -18 66 -20 340 -20 294 0 296 0 349 -25 l54 -25 753 0 753 0 54
25 53 25 547 0 546 0 54 25 53 25 1185 0 1185 0 60 25 60 25 2975 0 2975 0 53
-25 54 -25 1191 0 1192 0 53 -25 54 -25 946 0 947 0 53 -25 54 -25 688 0 688
0 53 24 54 25 505 7 c501 7 505 7 555 31 l50 23 740 0 740 0 60 25 60 25 542
0 541 0 54 25 53 25 640 0 640 0 60 25 60 25 2620 0 2620 0 53 -25 54 -25 501
0 502 0 53 -25 54 -25 441 0 442 0 53 -25 54 -25 646 0 647 0 53 -25 54 -25
743 0 743 0 54 25 53 25 442 0 441 0 54 25 c51 24 61 25 250 25 188 0 198 1
250 25 49 23 64 25 200 25 135 0 150 2 200 25 49 23 64 25 200 25 135 0 150 2
200 25 45 21 68 25 150 25 81 0 104 4 150 25 44 21 68 25 145 25 76 0 100 4
145 25 45 21 68 25 150 25 81 0 104 4 150 25 32 15 71 25 100 25 28 0 67 10
100 25 45 21 68 25 150 25 81 0 104 4 150 25 32 15 71 25 100 25 28 0 67 10
100 25 32 15 71 25 100 25 36 0 71 12 149 50 79 39 113 50 150 50 37 0 71 11
150 50 80 39 113 50 151 50 44 0 91 21 456 207 342 173 416 215 462 258 31 29
76 63 100 75 25 12 70 46 101 75 30 29 77 64 105 78 63 33 490 471 524 537 12
25 69 92 125 150 87 88 110 120 150 199 30 60 67 115 100 150 41 44 74 98 150
250 71 143 109 207 145 245 70 75 191 318 201 405 5 50 22 93 78 208 54 111
71 154 71 187 0 31 14 71 50 145 39 79 50 113 50 150 0 37 11 71 50 150 38 78
50 113 50 149 0 29 10 68 25 100 16 34 25 72 25 101 0 37 11 71 50 150 49 100
50 104 50 194 0 75 5 103 25 152 14 33 25 78 25 100 0 22 12 67 25 100 15 36
25 80 25 110 0 32 9 69 25 103 21 46 25 69 25 150 0 82 4 105 25 150 21 46 25
69 25 150 0 82 4 105 25 150 21 45 25 69 25 145 0 77 4 101 25 145 21 46 25
69 25 150 0 82 4 105 25 150 23 50 25 65 25 200 0 136 2 151 25 200 23 50 25
65 25 200 0 136 2 151 25 200 23 50 25 65 25 200 0 136 2 151 25 200 24 52 25
62 25 250 0 189 1 199 25 250 24 53 25 59 25 295 0 237 1 243 25 295 25 53 25
59 25 300 0 245 0 247 26 302 l26 55 -6 335 -6 335 25 60 25 60 0 1097 0 1096
-25 54 -25 53 0 540 0 540 -25 60 -25 60 0 492 0 491 -25 54 c-25 53 -25 55
-25 343 0 285 0 291 -25 350 -24 59 -25 65 -25 350 0 285 0 291 -25 350 l-25
60 0 392 0 391 -25 54 -25 53 0 440 0 440 -25 60 -25 60 0 392 0 391 -25 54
c-24 52 -25 58 -25 300 0 241 0 247 -25 300 -24 52 -25 58 -25 293 0 232 -1
242 -25 300 -24 58 -25 68 -25 300 0 232 -1 242 -25 300 l-25 60 0 530 0 530
25 53 c15 33 25 72 25 100 0 29 10 68 25 100 21 46 25 69 25 148 0 78 4 105
25 156 14 34 25 80 25 102 0 23 11 65 25 94 21 46 25 69 25 150 0 82 4 105 25
150 15 33 25 72 25 100 0 29 10 68 25 100 21 46 25 69 25 150 0 82 4 105 25
150 23 50 25 65 25 200 0 136 2 151 25 200 21 46 25 69 25 150 0 82 4 105 25
150 23 50 25 65 25 200 0 136 2 151 25 200 25 53 25 59 25 300 0 242 1 248 25
300 l25 54 0 1241 0 1242 24 51 23 50 -5 686 -5 685 27 58 c35 77 35 153 1
227 l-25 53 0 490 0 490 -25 60 c-20 49 -25 77 -25 152 0 76 -4 100 -25 145
-15 32 -25 71 -25 100 0 28 -10 67 -25 100 -15 32 -25 71 -25 100 0 28 -10 67
-25 100 -15 32 -25 71 -25 100 0 28 -10 67 -25 100 -15 32 -25 71 -25 100 0
36 -12 71 -50 149 -37 75 -50 114 -50 146 0 37 -34 113 -226 496 -192 383
-235 461 -279 508 -29 32 -72 97 -100 150 -39 77 -66 113 -150 199 -56 58
-112 125 -125 150 -31 64 -369 403 -434 437 -28 14 -75 49 -105 78 -31 29 -76
63 -100 75 -25 12 -67 44 -95 70 -28 26 -71 58 -96 70 -24 12 -69 46 -100 75
-40 39 -94 72 -199 125 -106 53 -159 86 -200 125 -48 45 -111 81 -451 251
-357 179 -401 198 -460 204 -55 6 -96 22 -264 103 -166 81 -207 97 -247 97
-37 0 -69 11 -147 50 -74 37 -111 50 -143 50 -26 0 -67 11 -97 25 -33 15 -72
25 -100 25 -29 0 -68 10 -100 25 -33 15 -72 25 -100 25 -29 0 -68 10 -100 25
-33 15 -72 25 -100 25 -29 0 -68 10 -100 25 -33 15 -72 25 -100 25 -29 0 -68
10 -100 25 -33 15 -72 25 -100 25 -29 0 -68 10 -100 25 -46 21 -69 25 -150 25
-82 0 -105 4 -150 25 -46 21 -69 25 -150 25 -82 0 -105 4 -150 25 -50 23 -65
25 -200 25 -138 0 -151 2 -202 26 l-55 26 -536 -5 -536 -6 -53 25 c-44 20 -67
24 -153 24 -86 0 -112 -4 -162 -25 l-60 -25 -2418 0 -2419 0 -61 24 c-34 13
-86 26 -116 29 -43 3 -93 24 -240 97 -169 85 -192 99 -257 164 -65 65 -79 88
-168 264 -82 164 -96 200 -96 241 0 31 -9 69 -25 103 -21 45 -25 68 -25 150 0
81 -4 104 -25 150 -24 52 -25 59 -25 288 0 229 1 236 25 288 l25 54 0 451 0
452 -25 60 c-24 58 -25 68 -25 302 0 236 -1 242 -25 295 -23 49 -25 64 -25
200 0 135 -2 150 -25 200 -23 48 -25 65 -25 193 0 126 -3 146 -25 200 -13 33
-25 78 -25 100 0 22 -11 67 -25 100 -13 33 -25 78 -25 100 0 22 -11 67 -25
100 -13 33 -25 78 -25 100 0 22 -11 67 -25 100 -13 33 -25 78 -25 100 0 22
-11 67 -25 100 -13 33 -25 79 -25 102 0 32 -18 79 -75 194 -62 126 -75 159
-75 200 0 43 -16 81 -126 302 -96 192 -138 264 -173 302 -26 28 -71 95 -101
150 -43 81 -72 120 -155 205 -56 58 -112 125 -125 150 -30 62 -261 294 -324
327 -28 14 -75 49 -105 78 -31 29 -76 63 -100 75 -25 12 -67 44 -95 70 -28 26
-79 62 -113 79 -33 18 -75 51 -93 72 -27 34 -85 66 -401 224 -328 164 -374
185 -418 185 -41 0 -74 13 -200 75 -116 57 -162 75 -194 75 -24 0 -65 11 -95
25 -33 15 -72 25 -100 25 -29 0 -68 10 -100 25 -33 15 -72 25 -100 25 -29 0
-68 10 -100 25 -33 15 -72 25 -100 25 -29 0 -68 10 -100 25 -32 15 -72 25 -98
25 -24 0 -66 9 -94 20 -38 15 -74 20 -148 20 -82 0 -105 4 -150 25 -45 21 -69
25 -145 25 -75 0 -103 5 -152 25 -48 20 -78 25 -150 25 -72 0 -102 5 -150 25
-54 22 -74 25 -200 25 -126 0 -146 3 -200 25 -54 22 -74 25 -200 25 -128 0
-145 2 -193 25 -54 25 -56 25 -350 25 -295 0 -297 0 -350 25 l-54 25 -441 0
-442 0 -60 25 -60 25 -540 0 -540 0 -53 25 -54 25 -2566 -1 -2567 -1 -50 -24z
m5233 -1969 l54 -25 346 0 347 0 53 -25 c53 -24 59 -25 295 -25 237 0 243 -1
295 -25 52 -24 62 -25 250 -25 189 0 199 -1 250 -25 50 -23 65 -25 200 -25
136 0 151 -2 200 -25 50 -23 65 -25 200 -25 136 0 151 -2 200 -25 46 -21 69
-25 150 -25 82 0 105 -4 150 -25 46 -21 69 -25 150 -25 82 0 105 -4 150 -25
45 -21 69 -25 143 -25 65 0 103 -5 141 -20 29 -11 73 -20 98 -20 27 0 67 -10
98 -25 33 -15 72 -25 100 -25 29 0 68 -10 100 -25 33 -15 72 -25 100 -25 29 0
68 -10 100 -25 34 -16 72 -25 101 -25 36 0 70 -11 142 -47 68 -33 112 -48 159
-54 56 -6 102 -26 347 -148 230 -115 292 -150 340 -194 34 -32 97 -74 153
-102 90 -46 107 -60 311 -263 149 -146 226 -230 244 -265 16 -29 50 -75 76
-104 38 -40 79 -114 194 -343 123 -246 145 -298 145 -337 0 -34 12 -69 50
-145 50 -99 50 -100 50 -198 0 -83 4 -106 25 -152 21 -45 25 -68 25 -150 0
-81 4 -104 25 -150 24 -51 25 -61 25 -250 0 -188 1 -198 25 -250 l25 -53 0
-445 0 -445 -25 -53 c-25 -54 -25 -56 -25 -350 0 -295 0 -297 -25 -350 -23
-50 -25 -65 -25 -200 0 -136 -2 -151 -25 -200 -16 -35 -25 -72 -25 -103 0 -43
-13 -75 -92 -232 -92 -181 -93 -183 -208 -300 l-115 -119 -198 -99 c-169 -85
-205 -99 -246 -99 -31 0 -69 -9 -103 -25 l-53 -25 -890 0 -890 0 -53 25 -54
25 -1788 0 -1788 0 -54 -25 -53 -25 -647 0 -646 0 -54 -25 -53 -25 -1190 0
-1190 0 -54 25 -55 26 -2770 -7 -2771 -7 -66 27 c-63 25 -73 26 -255 26 -180
0 -191 1 -242 25 -34 16 -72 25 -102 25 -39 0 -74 13 -191 71 -141 70 -146 73
-267 192 -121 120 -125 124 -193 260 -57 114 -69 147 -69 187 0 30 -9 68 -25
102 -23 49 -25 64 -25 200 0 135 -2 150 -25 200 -25 53 -25 55 -25 348 0 293
0 295 25 348 21 46 25 69 25 150 0 82 4 105 25 150 15 33 25 72 25 100 0 29
10 68 25 100 15 33 25 72 25 100 0 29 10 68 25 100 15 33 25 72 25 100 0 29
10 68 25 100 15 33 25 72 25 100 0 29 10 68 25 100 16 34 25 72 25 101 0 31 9
65 25 97 16 31 25 66 25 95 0 35 12 71 50 148 38 78 50 113 50 149 0 29 10 68
25 100 16 34 25 72 25 103 0 43 24 95 216 480 187 375 222 439 268 488 30 31
64 76 76 101 28 56 347 381 410 418 25 14 70 49 101 77 31 29 99 73 150 100
52 26 117 70 146 97 63 59 143 98 200 98 33 0 84 21 236 96 160 80 205 98 258
103 46 6 90 21 158 54 73 36 106 47 142 47 27 0 71 9 99 20 28 11 70 20 94 20
26 0 66 10 98 25 32 15 71 25 100 25 28 0 67 10 100 25 32 15 71 25 100 25 28
0 67 10 100 25 44 21 68 25 145 25 76 0 100 4 145 25 45 21 68 25 150 25 81 0
104 4 150 25 45 21 68 25 150 25 81 0 104 4 150 25 45 21 68 25 150 25 81 0
104 4 150 25 45 21 68 25 150 25 81 0 104 4 150 25 49 23 64 25 200 25 135 0
150 2 200 25 51 24 61 25 250 25 188 0 198 1 250 25 51 24 62 25 245 25 182 0
193 1 245 25 51 24 61 25 250 25 188 0 198 1 250 25 l53 25 347 0 346 0 54 25
53 25 392 0 391 0 54 25 53 25 542 0 541 0 54 25 53 25 550 0 550 0 53 -25z
m2430 -8010 l54 -25 1091 0 1092 0 53 -25 54 -25 1303 0 1303 0 54 25 53 25
737 0 736 0 54 25 53 25 1890 0 1890 0 53 -25 54 -25 441 0 442 0 53 -25 c54
-25 56 -25 350 -25 295 0 297 0 350 -25 53 -25 59 -25 300 -25 242 0 248 -1
300 -25 50 -23 65 -25 200 -25 136 0 151 -2 200 -25 46 -21 69 -25 150 -25 75
0 107 -5 141 -20 33 -15 65 -20 140 -20 79 0 107 -5 156 -25 48 -20 77 -25
150 -25 75 0 99 -4 143 -25 46 -21 69 -25 151 -25 97 0 99 0 200 -50 78 -38
113 -50 149 -50 29 0 68 -10 100 -25 33 -15 72 -25 100 -25 27 0 67 -10 92
-22 25 -11 74 -24 108 -28 50 -6 94 -23 200 -75 108 -54 151 -70 202 -76 55
-6 99 -24 296 -123 187 -93 244 -126 291 -170 44 -41 93 -70 196 -120 111 -52
150 -76 200 -124 34 -33 82 -70 107 -82 27 -13 107 -84 200 -175 92 -90 173
-162 200 -175 61 -31 161 -130 195 -193 15 -28 74 -99 130 -157 56 -58 113
-125 125 -150 12 -25 48 -72 80 -105 38 -41 74 -93 105 -155 30 -60 69 -118
104 -156 49 -53 76 -101 215 -387 134 -277 160 -337 166 -390 5 -44 20 -90 53
-156 36 -73 47 -106 47 -142 0 -37 11 -71 50 -150 39 -79 50 -113 50 -150 0
-29 9 -67 25 -101 15 -32 25 -71 25 -100 0 -28 10 -67 25 -100 15 -32 25 -71
25 -100 0 -28 10 -67 25 -100 21 -44 25 -68 25 -143 0 -73 5 -102 25 -150 20
-48 25 -78 25 -150 0 -72 5 -102 25 -150 23 -56 25 -71 25 -250 0 -179 2 -194
25 -250 24 -59 25 -65 25 -352 0 -289 0 -291 25 -345 l25 -53 0 -880 0 -880
-25 -53 c-25 -53 -25 -59 -25 -300 0 -242 -1 -248 -25 -300 -23 -50 -25 -65
-25 -200 0 -136 -2 -151 -25 -200 -21 -45 -25 -69 -25 -145 0 -75 -5 -103 -25
-152 -14 -33 -25 -77 -25 -98 0 -21 -11 -66 -24 -100 -13 -34 -26 -85 -29
-114 -2 -34 -19 -82 -47 -140 -30 -62 -45 -107 -51 -153 -6 -55 -24 -99 -123
-296 -96 -192 -126 -243 -173 -295 -32 -34 -69 -81 -83 -105 -14 -23 -116
-136 -226 -251 -146 -151 -216 -216 -255 -237 -30 -16 -79 -53 -110 -82 -40
-38 -95 -72 -200 -124 -106 -53 -160 -87 -205 -129 -52 -48 -114 -83 -441
-248 -342 -173 -386 -193 -430 -193 -44 0 -86 -18 -349 -147 -262 -128 -307
-147 -364 -153 -55 -5 -94 -21 -258 -103 -165 -83 -201 -97 -242 -97 -41 0
-75 -13 -201 -75 -118 -58 -161 -75 -194 -75 -34 0 -77 -16 -188 -71 -114 -56
-158 -73 -208 -79 -50 -5 -94 -21 -201 -75 -106 -53 -150 -69 -200 -75 -49 -5
-93 -22 -200 -75 -106 -53 -150 -69 -200 -75 -45 -5 -90 -20 -157 -53 -73 -36
-106 -47 -142 -47 -37 0 -71 -11 -150 -50 -79 -39 -113 -50 -150 -50 -37 0
-71 -11 -150 -50 -79 -39 -113 -50 -150 -50 -37 0 -71 -11 -150 -50 -74 -36
-114 -50 -145 -50 -30 0 -70 -14 -138 -46 -67 -32 -115 -49 -158 -54 -43 -5
-91 -20 -151 -50 -59 -29 -107 -45 -150 -50 -42 -5 -90 -20 -150 -50 -60 -29
-107 -45 -150 -50 -44 -5 -90 -20 -156 -53 -72 -36 -106 -47 -142 -47 -29 0
-67 -9 -101 -25 -32 -15 -71 -25 -100 -25 -36 0 -71 -12 -149 -50 -82 -40
-112 -50 -153 -50 -40 0 -72 -10 -146 -45 -70 -33 -107 -45 -142 -45 -28 0
-67 -10 -100 -25 -29 -14 -71 -25 -95 -25 -30 0 -71 -14 -144 -50 -79 -39
-113 -50 -150 -50 -29 0 -67 -9 -101 -25 -32 -15 -71 -25 -100 -25 -36 0 -71
-12 -149 -50 -79 -39 -113 -50 -150 -50 -29 0 -67 -9 -101 -25 -32 -15 -71
-25 -100 -25 -36 0 -71 -12 -149 -50 -79 -39 -113 -50 -150 -50 -29 0 -67 -9
-101 -25 -32 -15 -71 -25 -100 -25 -36 0 -71 -12 -149 -50 -79 -39 -113 -50
-150 -50 -29 0 -67 -9 -101 -25 -32 -15 -71 -25 -100 -25 -28 0 -67 -10 -100
-25 -33 -15 -71 -25 -101 -25 -38 0 -67 -10 -143 -50 -76 -40 -105 -50 -143
-50 -31 0 -69 -9 -103 -25 -32 -15 -71 -25 -100 -25 -28 0 -67 -10 -100 -25
-32 -15 -71 -25 -100 -25 -28 0 -67 -10 -100 -25 -32 -15 -71 -25 -100 -25
-28 0 -67 -10 -100 -25 -32 -15 -71 -25 -100 -25 -36 0 -71 -12 -149 -50 -79
-39 -113 -50 -150 -50 -29 0 -67 -9 -101 -25 -32 -15 -71 -25 -100 -25 -28 0
-67 -10 -100 -25 -32 -15 -71 -25 -100 -25 -28 0 -67 -10 -100 -25 -32 -15
-71 -25 -100 -25 -28 0 -67 -10 -100 -25 -32 -15 -71 -25 -100 -25 -28 0 -67
-10 -100 -25 -29 -14 -71 -25 -95 -25 -23 0 -65 -11 -95 -25 -32 -15 -71 -25
-100 -25 -28 0 -67 -10 -100 -25 -32 -15 -71 -25 -100 -25 -28 0 -67 -10 -100
-25 -32 -15 -71 -25 -100 -25 -28 0 -67 -10 -100 -25 -45 -21 -68 -25 -150
-25 -81 0 -104 -4 -150 -25 -32 -15 -71 -25 -100 -25 -28 0 -67 -10 -100 -25
-32 -15 -71 -25 -100 -25 -28 0 -67 -10 -100 -25 -32 -15 -71 -25 -100 -25
-28 0 -67 -10 -100 -25 -32 -15 -71 -25 -100 -25 -28 0 -67 -10 -100 -25 -45
-21 -68 -25 -150 -25 -81 0 -104 -4 -150 -25 -32 -15 -71 -25 -100 -25 -28 0
-67 -10 -100 -25 -44 -21 -68 -25 -145 -25 -76 0 -100 -4 -145 -25 -45 -21
-68 -25 -150 -25 -81 0 -104 -4 -150 -25 -45 -21 -68 -25 -150 -25 -81 0 -104
-4 -150 -25 -45 -21 -68 -25 -150 -25 -81 0 -104 -4 -150 -25 -53 -25 -55 -25
-348 -25 -293 0 -295 0 -348 25 -34 16 -72 25 -101 25 -76 0 -134 36 -258 162
-107 109 -113 118 -182 257 l-71 143 0 98 c0 83 -4 106 -25 152 -23 49 -25 64
-25 200 0 135 -2 150 -25 200 -21 45 -25 68 -25 150 0 81 -4 104 -25 150 -15
32 -25 71 -25 100 0 36 -12 71 -50 149 -39 81 -50 113 -50 151 0 40 -10 68
-50 145 -41 77 -50 105 -50 145 0 71 -129 339 -198 412 -27 28 -61 74 -77 101
-17 30 -119 142 -254 278 l-226 229 -217 109 c-177 89 -226 109 -261 109 -32
0 -71 13 -146 50 -78 38 -113 50 -149 50 -29 0 -68 10 -100 25 -33 15 -72 25
-100 25 -29 0 -68 10 -100 25 -33 15 -72 25 -100 25 -29 0 -68 10 -100 25 -46
21 -69 25 -150 25 -82 0 -105 4 -150 25 -50 23 -65 25 -200 25 -136 0 -151 2
-200 25 -52 24 -62 25 -249 25 -190 0 -197 1 -255 26 -58 27 -60 27 -243 22
-178 -6 -185 -5 -235 18 l-52 24 -901 0 -902 0 -60 -25 c-60 -24 -61 -25 -402
-25 l-341 0 -54 -25 c-49 -23 -64 -25 -200 -25 -135 0 -150 -2 -200 -25 -45
-21 -68 -25 -150 -25 -81 0 -104 -4 -150 -25 -44 -21 -68 -25 -143 -25 -73 0
-102 -5 -150 -25 -33 -13 -78 -25 -100 -25 -22 0 -67 -11 -100 -25 -33 -13
-78 -25 -100 -25 -22 0 -67 -11 -100 -25 -33 -13 -79 -25 -103 -25 -34 0 -92
-25 -295 -126 -206 -103 -262 -136 -307 -179 -31 -29 -76 -62 -100 -75 -62
-31 -295 -262 -327 -324 -14 -28 -49 -75 -78 -105 -43 -46 -74 -101 -178 -314
-102 -208 -127 -267 -127 -301 0 -31 -14 -71 -50 -145 -38 -78 -50 -113 -50
-149 0 -29 -10 -68 -25 -100 -15 -33 -25 -72 -25 -100 0 -29 -10 -68 -25 -100
-15 -33 -25 -72 -25 -100 0 -29 -10 -68 -25 -100 -15 -33 -25 -72 -25 -100 0
-27 -10 -66 -22 -92 -17 -35 -23 -71 -27 -156 l-6 -112 -112 -225 c-61 -123
-126 -241 -143 -261 -24 -27 -84 -62 -222 -131 l-189 -95 -237 0 c-231 0 -238
1 -290 25 -46 21 -69 25 -150 25 -82 0 -105 4 -150 25 -46 21 -69 25 -150 25
-82 0 -105 4 -150 25 -30 14 -73 25 -95 25 -23 0 -69 12 -102 25 -48 20 -78
25 -150 25 -72 0 -102 5 -150 25 -33 14 -78 25 -100 25 -22 0 -67 12 -100 25
-33 14 -78 25 -100 25 -22 0 -67 12 -100 25 -33 14 -78 25 -100 25 -22 0 -67
12 -100 25 -33 14 -78 25 -100 25 -22 0 -64 11 -93 25 -33 15 -72 25 -100 25
-29 0 -68 10 -100 25 -33 15 -72 25 -100 25 -29 0 -68 10 -100 25 -34 16 -72
25 -101 25 -37 0 -71 11 -150 50 -78 38 -113 50 -149 50 -29 0 -68 10 -100 25
-33 15 -72 25 -100 25 -29 0 -68 10 -100 25 -30 14 -73 25 -95 25 -23 0 -69
12 -102 25 -33 14 -77 25 -98 25 -21 0 -66 11 -100 24 -34 13 -85 26 -114 29
-35 3 -84 19 -149 51 -66 32 -109 46 -137 46 -23 0 -69 12 -102 25 -33 14 -78
25 -100 25 -22 0 -67 12 -100 25 -33 14 -78 25 -100 25 -22 0 -67 12 -100 25
-34 14 -80 25 -106 25 -35 0 -71 12 -148 50 -78 38 -113 50 -149 50 -29 0 -68
10 -100 25 -33 15 -72 25 -100 25 -29 0 -68 10 -100 25 -34 16 -72 25 -101 25
-37 0 -71 11 -150 50 -78 38 -113 50 -149 50 -29 0 -68 10 -100 25 -34 16 -72
25 -101 25 -37 0 -71 11 -150 50 -78 38 -113 50 -149 50 -29 0 -68 10 -100 25
-33 15 -72 25 -100 25 -29 0 -68 10 -100 25 -34 16 -72 25 -101 25 -37 0 -71
11 -150 50 -78 38 -113 50 -149 50 -29 0 -68 10 -100 25 -31 14 -72 25 -96 25
-31 0 -71 14 -145 50 -76 37 -114 50 -146 50 -24 0 -67 9 -95 20 -28 11 -72
20 -99 20 -37 0 -71 11 -150 50 -78 38 -113 50 -149 50 -29 0 -68 10 -100 25
-34 16 -72 25 -101 25 -37 0 -71 11 -150 50 -71 35 -115 50 -142 50 -23 0 -68
11 -102 24 -34 13 -85 26 -114 29 -34 2 -82 19 -140 47 -60 30 -108 45 -151
50 -43 5 -91 22 -158 54 -66 32 -109 46 -137 46 -23 0 -69 12 -102 25 -33 14
-78 25 -101 25 -29 0 -71 15 -143 50 -78 38 -113 50 -149 50 -29 0 -68 10
-100 25 -34 16 -72 25 -101 25 -37 0 -71 11 -150 50 -83 41 -112 50 -155 50
-43 0 -72 9 -155 50 -79 39 -113 50 -150 50 -37 0 -71 11 -150 50 -79 39 -113
50 -150 50 -37 0 -71 11 -150 50 -79 39 -113 50 -150 50 -37 0 -71 11 -150 50
-80 39 -113 50 -151 50 -39 0 -74 13 -199 75 -128 63 -160 75 -202 75 -42 0
-71 11 -194 75 -122 63 -152 75 -194 75 -40 0 -73 12 -192 72 -120 60 -155 73
-212 78 -60 6 -96 21 -303 124 -205 101 -242 116 -285 116 -45 0 -122 36 -892
422 -748 375 -848 428 -897 474 -34 32 -91 69 -150 99 -91 45 -104 56 -307
257 -142 142 -220 227 -239 262 -15 28 -51 77 -80 108 -68 71 -144 222 -144
283 0 31 -16 76 -60 168 -73 153 -90 198 -90 246 0 20 -11 63 -25 96 -13 33
-25 78 -25 100 0 22 -11 67 -25 100 -20 48 -25 78 -25 150 0 72 -5 102 -25
150 -22 54 -25 74 -25 202 0 129 -2 146 -25 195 -23 49 -25 64 -25 200 0 135
-2 150 -25 200 l-25 53 0 390 0 390 -25 60 -25 60 0 380 0 380 25 53 25 54 0
346 0 347 25 53 c24 52 25 63 25 245 0 183 1 194 25 245 21 46 25 69 25 150 0
82 4 105 25 150 21 46 25 69 25 150 0 82 4 105 25 150 15 33 25 72 25 100 0
29 10 68 25 100 15 33 25 72 25 100 0 29 10 68 25 100 15 33 25 72 25 100 0
29 10 68 25 100 16 34 25 72 25 101 0 36 11 70 47 142 35 71 48 110 53 161 6
62 28 108 268 593 233 468 267 532 315 583 30 31 65 77 77 102 12 24 46 69 75
100 29 30 63 75 75 99 33 66 523 567 597 610 32 19 81 56 109 82 28 26 75 59
105 74 30 15 79 51 110 81 50 46 119 84 588 318 479 240 537 266 581 266 41 0
74 12 201 75 125 62 160 75 199 75 30 0 68 9 102 25 29 14 71 25 95 25 23 0
65 11 95 25 32 15 71 25 100 25 28 0 67 10 100 25 45 21 68 25 150 25 81 0
104 4 150 25 45 21 68 25 150 25 81 0 104 4 150 25 49 23 64 25 200 25 135 0
150 2 200 25 51 24 61 25 250 25 188 0 198 1 250 25 l53 25 342 0 341 0 54 25
53 25 1940 0 1940 0 53 -25 54 -25 1536 0 1537 0 53 -25 54 -25 993 0 993 0
54 25 53 25 642 0 641 0 54 25 53 25 347 0 346 0 54 25 53 25 347 0 346 0 54
25 53 25 347 0 346 0 54 25 53 25 492 0 491 0 54 25 53 25 546 0 547 0 53 24
c53 24 60 24 449 31 386 6 396 7 457 31 61 24 66 24 400 24 337 0 338 0 398
25 l60 25 560 0 560 0 60 25 60 25 930 0 930 0 53 -25z m17138 -13629 c120
-59 149 -79 210 -140 65 -65 79 -88 164 -257 73 -147 94 -197 97 -240 3 -30
16 -82 29 -116 21 -54 24 -77 24 -200 0 -124 3 -144 25 -198 23 -57 25 -71 25
-252 0 -182 1 -193 25 -245 24 -52 25 -58 25 -300 0 -241 0 -247 25 -300 25
-53 25 -55 25 -343 0 -285 0 -291 25 -350 24 -59 25 -65 25 -350 0 -285 0
-291 25 -350 l25 -60 0 -442 0 -441 25 -54 25 -53 0 -830 0 -830 -25 -53 -25
-54 0 -346 0 -347 -25 -53 -25 -54 0 -341 0 -342 -25 -53 c-25 -54 -25 -56
-25 -350 0 -295 0 -297 -25 -350 -24 -52 -25 -63 -25 -245 0 -181 -2 -195 -25
-252 -24 -58 -25 -68 -25 -300 0 -232 -1 -242 -25 -300 -24 -58 -25 -68 -25
-300 0 -235 -1 -241 -25 -293 -24 -52 -25 -62 -25 -250 0 -189 -1 -199 -25
-250 -23 -49 -25 -66 -25 -195 0 -128 -3 -148 -25 -202 -22 -54 -25 -74 -25
-200 0 -126 -3 -146 -25 -200 -20 -48 -25 -78 -25 -150 0 -72 -5 -102 -25
-150 -20 -48 -25 -78 -25 -150 0 -72 -5 -102 -25 -150 -20 -48 -25 -77 -25
-150 0 -75 -4 -99 -25 -143 -15 -33 -25 -72 -25 -100 0 -29 -10 -68 -25 -100
-21 -46 -25 -68 -25 -155 0 -88 -4 -110 -25 -155 -15 -33 -25 -72 -25 -100 0
-29 -10 -68 -25 -100 -16 -34 -25 -72 -25 -101 0 -37 -11 -71 -50 -150 -38
-78 -50 -113 -50 -149 0 -29 -10 -68 -25 -100 -16 -34 -25 -72 -25 -102 0 -39
-13 -74 -75 -199 -62 -126 -75 -160 -75 -200 0 -40 -13 -75 -75 -200 -61 -123
-75 -161 -75 -198 0 -40 -21 -87 -147 -337 -135 -267 -148 -297 -154 -360 -6
-64 -20 -97 -192 -441 -156 -313 -194 -382 -239 -431 -30 -33 -67 -81 -83
-109 -16 -27 -50 -72 -75 -100 -26 -27 -59 -72 -75 -100 -16 -27 -50 -72 -75
-100 -26 -27 -59 -72 -75 -100 -38 -68 -221 -253 -292 -295 -32 -18 -83 -57
-113 -86 -31 -28 -76 -62 -100 -74 -25 -12 -70 -46 -101 -75 -41 -39 -94 -73
-200 -125 -100 -50 -160 -87 -196 -122 -64 -60 -123 -87 -186 -88 -42 0 -76
-14 -242 -100 -170 -87 -201 -100 -244 -100 -39 0 -71 -10 -152 -50 -79 -39
-113 -50 -150 -50 -29 0 -67 -9 -101 -25 -32 -15 -71 -25 -100 -25 -28 0 -67
-10 -100 -25 -32 -15 -71 -25 -100 -25 -28 0 -67 -10 -100 -25 -32 -15 -71
-25 -100 -25 -28 0 -67 -10 -100 -25 -45 -21 -68 -25 -150 -25 -81 0 -104 -4
-150 -25 -45 -21 -68 -25 -150 -25 -81 0 -104 -4 -150 -25 -45 -21 -68 -25
-150 -25 -81 0 -104 -4 -150 -25 -51 -24 -62 -25 -245 -25 -182 0 -193 -1
-245 -25 -51 -24 -61 -25 -250 -25 -188 0 -198 -1 -250 -25 l-53 -25 -397 0
-396 0 -54 -25 c-51 -24 -61 -25 -250 -25 -188 0 -198 -1 -250 -25 -52 -24
-58 -25 -295 -25 -236 0 -242 -1 -295 -25 -52 -24 -58 -25 -300 -25 -241 0
-247 0 -300 -25 -52 -24 -58 -25 -300 -25 -241 0 -247 0 -300 -25 -53 -25 -55
-25 -345 -25 -289 0 -291 0 -345 -25 -53 -25 -55 -25 -350 -25 -294 0 -296 0
-350 -25 l-53 -25 -497 0 -496 0 -54 -25 -53 -25 -1587 0 -1586 0 -54 -25 -53
-25 -597 0 -596 0 -54 -25 -53 -25 -692 0 -691 0 -54 -25 -53 -25 -1540 0
-1540 0 -55 26 -55 25 -580 -7 -580 -7 -66 27 -66 26 -539 0 -539 0 -53 25
-54 25 -691 0 -692 0 -60 25 -60 25 -440 0 -440 0 -53 25 -54 25 -341 0 c-341
0 -342 1 -402 25 -59 25 -65 25 -350 25 -285 0 -291 1 -350 25 -59 25 -65 25
-350 25 -288 0 -290 0 -343 25 l-54 25 -451 0 -452 0 -53 25 -54 25 -1936 0
-1937 0 -53 25 -54 25 -446 0 -447 0 -53 25 -54 25 -341 0 -342 0 -53 25 c-53
25 -59 25 -300 25 -238 0 -249 1 -298 24 -49 23 -54 23 -285 18 l-234 -5 -66
27 c-60 24 -78 26 -205 26 -125 0 -145 3 -199 25 -54 22 -74 25 -200 25 -126
0 -146 3 -200 25 -48 20 -77 25 -150 25 -75 0 -99 4 -143 25 -46 21 -69 25
-150 25 -82 0 -105 4 -150 25 -46 21 -69 25 -150 25 -82 0 -105 4 -150 25 -33
15 -72 25 -100 25 -29 0 -68 10 -100 25 -33 15 -72 25 -100 25 -29 0 -68 10
-100 25 -34 16 -72 25 -101 25 -36 0 -70 11 -142 47 -67 33 -112 48 -158 53
-50 6 -94 23 -208 79 -102 50 -155 71 -182 71 -58 0 -100 18 -429 181 -263
131 -310 157 -365 208 -40 38 -95 75 -156 106 -59 29 -116 67 -150 100 -31 29
-76 63 -101 75 -25 12 -92 69 -150 125 -58 57 -125 113 -150 125 -62 31 -261
228 -295 293 -17 32 -87 112 -180 207 -136 139 -156 165 -200 250 -28 55 -70
119 -101 152 -36 40 -74 101 -124 200 -53 103 -87 159 -126 199 -43 46 -75
101 -174 298 -104 211 -120 249 -120 291 0 43 -16 82 -125 300 -105 210 -125
259 -125 297 0 33 -12 69 -46 138 -32 65 -48 110 -51 147 -3 29 -16 81 -29
115 -13 34 -24 79 -24 100 0 21 -11 65 -25 98 -13 33 -25 78 -25 100 0 22 -11
67 -25 100 -13 33 -25 78 -25 100 0 22 -11 67 -25 100 -13 33 -25 79 -25 102
0 22 -11 65 -25 95 -15 32 -25 71 -25 100 0 28 -10 67 -25 100 -15 32 -25 71
-25 100 0 28 -10 67 -25 100 -21 45 -25 68 -25 150 0 81 -4 104 -25 150 -21
45 -25 68 -25 150 0 81 -4 104 -25 150 -21 44 -25 68 -25 143 0 73 -5 102 -25
150 -22 54 -25 74 -25 200 0 126 -3 146 -25 200 -23 56 -25 71 -25 250 0 179
-2 194 -25 250 -24 58 -25 68 -25 302 0 236 -1 242 -25 295 l-25 53 0 490 0
490 -25 60 -25 60 0 985 0 985 -25 60 -25 60 0 980 0 980 25 53 25 54 0 1836
0 1837 22 45 c17 35 23 71 27 156 l6 112 69 138 c59 120 79 149 140 210 65 65
88 79 259 165 l188 94 139 3 c129 3 142 2 202 -22 36 -14 82 -26 104 -26 21 0
63 -11 92 -25 34 -16 72 -25 101 -25 37 0 71 -11 150 -50 79 -39 113 -50 150
-50 37 0 71 -11 150 -50 80 -39 113 -50 150 -50 40 0 74 -13 192 -72 113 -56
157 -73 206 -78 43 -5 90 -21 150 -50 60 -30 108 -45 150 -50 43 -5 91 -21
150 -50 61 -30 108 -45 151 -50 50 -6 94 -23 200 -75 107 -53 151 -70 200 -75
43 -5 91 -21 158 -54 68 -32 108 -46 138 -46 31 0 71 -14 145 -50 78 -38 113
-50 149 -50 29 0 68 -10 100 -25 34 -16 72 -25 101 -25 37 0 71 -11 150 -50
78 -38 113 -50 149 -50 27 0 66 -10 92 -22 25 -12 74 -24 110 -28 48 -5 93
-19 164 -53 74 -35 110 -47 146 -47 36 0 70 -12 149 -50 78 -38 113 -50 149
-50 29 0 68 -10 100 -25 33 -15 72 -25 100 -25 29 0 68 -10 100 -25 33 -15 72
-25 100 -25 29 0 68 -10 100 -25 33 -15 72 -25 100 -25 29 0 68 -10 100 -25
30 -14 72 -25 95 -25 24 0 66 -11 95 -25 34 -16 72 -25 101 -25 37 0 71 -11
150 -50 78 -38 113 -50 149 -50 29 0 68 -10 100 -25 33 -15 72 -25 100 -25 29
0 68 -10 100 -25 33 -15 72 -25 100 -25 29 0 68 -10 100 -25 33 -15 72 -25
100 -25 29 0 68 -10 100 -25 33 -15 72 -25 100 -25 29 0 68 -10 100 -25 46
-21 69 -25 150 -25 75 0 107 -5 141 -20 24 -11 64 -20 90 -20 26 0 72 -11 106
-25 33 -14 78 -25 100 -25 22 0 67 -12 100 -25 33 -14 78 -25 100 -25 22 0 67
-12 100 -25 33 -14 78 -25 100 -25 22 0 64 -11 93 -25 33 -15 72 -25 100 -25
29 0 68 -10 100 -25 46 -21 69 -25 150 -25 82 0 105 -4 150 -25 33 -15 72 -25
100 -25 29 0 68 -10 100 -25 33 -15 72 -25 100 -25 29 0 68 -10 100 -25 46
-21 69 -25 150 -25 82 0 105 -4 150 -25 30 -14 73 -25 95 -25 23 0 69 -12 102
-25 33 -14 78 -25 100 -25 22 0 67 -12 100 -25 33 -14 78 -25 100 -25 22 0 67
-12 100 -25 33 -14 78 -25 100 -25 22 0 67 -12 100 -25 48 -20 78 -25 150 -25
72 0 102 -5 150 -25 33 -14 77 -25 98 -25 20 0 65 -11 99 -25 34 -14 82 -25
107 -25 28 0 67 -10 99 -25 33 -15 72 -25 100 -25 29 0 68 -10 100 -25 46 -21
69 -25 150 -25 82 0 105 -4 150 -25 33 -15 72 -25 100 -25 29 0 68 -10 100
-25 33 -15 72 -25 100 -25 29 0 68 -10 100 -25 33 -15 72 -25 100 -25 29 0 68
-10 100 -25 46 -21 69 -25 150 -25 82 0 105 -4 150 -25 33 -15 72 -25 100 -25
29 0 68 -10 100 -25 33 -15 72 -25 100 -25 29 0 68 -10 100 -25 33 -15 72 -25
100 -25 29 0 68 -10 100 -25 30 -14 72 -25 95 -25 24 0 66 -11 95 -25 33 -15
72 -25 100 -25 29 0 68 -10 100 -25 46 -21 69 -25 150 -25 82 0 105 -4 150
-25 33 -15 72 -25 100 -25 29 0 68 -10 100 -25 33 -15 72 -25 100 -25 26 0 67
-10 92 -21 29 -14 62 -21 93 -20 33 1 65 -6 104 -23 30 -15 74 -26 97 -26 22
0 68 -12 101 -25 33 -14 78 -25 100 -25 22 0 67 -12 100 -25 33 -14 78 -25
100 -25 22 0 67 -12 100 -25 33 -14 77 -25 98 -25 21 0 66 -11 100 -24 34 -13
86 -26 115 -29 35 -3 81 -18 140 -47 73 -36 106 -62 200 -154 l114 -111 99
-198 99 -198 0 -148 c0 -138 2 -153 25 -203 24 -51 25 -61 25 -250 0 -188 1
-198 25 -250 23 -49 25 -64 25 -200 0 -135 2 -150 25 -200 23 -49 25 -65 25
-195 0 -129 2 -145 25 -195 15 -32 25 -71 25 -100 0 -28 10 -67 25 -100 21
-45 25 -68 25 -150 0 -81 4 -104 25 -150 15 -32 25 -71 25 -100 0 -36 12 -71
50 -149 39 -80 50 -113 50 -151 0 -42 19 -86 151 -351 l151 -302 181 -183 182
-184 300 -151 c259 -130 309 -152 363 -158 44 -4 91 -20 158 -53 92 -44 99
-46 187 -46 75 0 103 -5 152 -25 33 -14 78 -25 100 -25 22 0 67 -12 100 -25
48 -20 77 -25 150 -25 75 0 99 -4 143 -25 46 -21 69 -25 150 -25 82 0 105 -4
150 -25 52 -24 62 -25 250 -25 189 0 199 -1 250 -25 52 -24 63 -25 245 -25
181 0 195 -2 252 -25 l60 -25 995 0 995 0 49 25 c49 25 53 25 297 25 242 0
248 0 301 25 51 24 61 25 250 25 188 0 198 1 250 25 45 21 68 25 150 25 81 0
104 4 150 25 45 21 68 25 150 25 81 0 104 4 150 25 45 21 68 25 150 25 81 0
104 4 150 25 33 15 71 25 101 25 39 0 71 13 192 75 90 47 156 75 176 75 22 0
43 11 70 35 21 19 103 67 181 106 125 62 153 80 221 147 43 43 90 99 104 126
14 28 49 75 78 105 29 31 63 76 75 100 12 25 44 67 70 95 68 73 160 259 160
325 0 41 12 74 75 200 61 124 75 161 75 199 0 29 10 68 25 100 15 33 25 72 25
100 0 29 10 68 25 100 15 33 25 72 25 100 0 29 10 68 25 100 15 33 25 72 25
100 0 29 10 68 25 100 21 46 25 69 25 151 0 84 3 104 25 147 21 42 25 63 25
144 0 80 4 103 25 148 21 46 25 69 25 150 0 82 4 105 25 150 23 50 25 65 25
200 0 136 2 151 25 200 21 46 25 69 25 150 0 93 2 101 45 196 30 67 45 113 45
141 0 75 47 149 173 272 l113 111 238 118 237 119 102 3 c79 3 116 9 164 28
49 19 80 24 151 24 75 0 99 4 144 25 45 21 68 25 150 25 81 0 104 4 150 25 32
15 71 25 100 25 28 0 67 10 100 25 45 21 68 25 150 25 81 0 104 4 150 25 32
15 71 25 100 25 28 0 67 10 100 25 29 14 71 25 93 25 22 0 67 11 100 25 48 20
78 25 150 25 72 0 102 5 150 25 33 13 78 25 100 25 22 0 67 11 100 25 33 13
78 25 100 25 22 0 67 11 100 25 49 20 77 25 152 25 76 0 100 4 145 25 32 15
71 25 100 25 28 0 67 10 100 25 32 15 71 25 100 25 28 0 67 10 100 25 32 15
71 25 100 25 28 0 67 10 100 25 32 15 71 25 100 25 28 0 67 10 100 25 32 15
71 25 100 25 28 0 67 10 100 25 32 15 71 25 100 25 28 0 67 10 100 25 29 14
71 25 93 25 22 0 67 11 100 25 33 13 78 25 100 25 22 0 67 11 100 25 33 13 78
25 100 25 22 0 67 11 100 25 33 13 78 25 100 25 22 0 67 11 100 25 33 13 78
25 100 25 22 0 67 11 100 25 33 13 79 25 102 25 22 0 65 11 95 25 32 15 71 25
100 25 26 0 70 9 98 20 28 11 70 20 94 20 26 0 66 10 98 25 32 15 71 25 100
25 28 0 67 10 100 25 32 15 71 25 100 25 28 0 67 10 100 25 32 15 71 25 100
25 28 0 67 10 100 25 29 14 71 25 95 25 30 0 71 14 144 50 79 39 113 50 150
50 29 0 67 9 101 25 32 15 71 25 100 25 28 0 67 10 100 25 32 15 71 25 100 25
28 0 67 10 100 25 32 15 71 25 100 25 28 0 67 10 100 25 32 15 71 25 100 25
28 0 67 10 100 25 32 15 71 25 100 25 28 0 67 10 100 25 32 15 71 25 100 25
28 0 67 10 100 25 32 15 71 25 100 25 36 0 71 12 149 50 79 39 113 50 150 50
29 0 67 9 101 25 29 14 71 25 95 25 23 0 65 11 95 25 32 15 71 25 100 25 28 0
67 10 100 25 32 15 71 25 100 25 28 0 67 10 100 25 32 15 71 25 100 25 36 0
71 12 149 50 79 39 113 50 150 50 29 0 67 9 101 25 32 15 71 25 100 25 36 0
71 12 149 50 79 39 113 50 150 50 29 0 67 9 101 25 32 15 71 25 100 25 36 0
71 12 149 50 79 39 113 50 150 50 29 0 67 9 101 25 33 16 71 25 101 25 39 0
68 10 144 50 76 40 105 50 143 50 38 0 71 11 151 50 79 39 113 50 150 50 29 0
67 9 101 25 32 15 71 25 100 25 36 0 71 12 149 50 79 39 113 50 150 50 37 0
71 11 150 50 79 39 113 50 150 50 37 0 71 11 150 50 79 39 113 50 150 50 37 0
71 11 150 50 82 40 112 50 153 50 41 0 73 10 156 50 80 38 116 50 152 50 36 0
71 12 149 50 74 36 114 50 145 50 30 0 70 14 138 46 67 33 115 49 158 54 49 5
93 22 200 75 106 52 150 69 200 75 43 5 90 20 151 50 60 29 107 45 150 50 44
5 90 20 156 53 73 36 106 47 142 47 37 0 71 11 150 50 79 39 113 50 150 50 37
0 71 11 150 50 79 39 113 50 150 50 29 0 67 9 101 25 29 14 60 25 68 25 8 0
42 11 75 25 59 25 64 25 301 23 l242 -3 138 -69z m-21248 -121 c53 -25 59 -25
300 -25 242 0 248 -1 300 -25 50 -23 66 -25 195 -25 130 0 146 -2 195 -25 46
-21 69 -25 151 -25 96 0 99 -1 192 -47 70 -34 111 -48 159 -53 54 -6 96 -22
250 -97 l185 -91 166 -168 166 -169 93 -186 c73 -147 94 -197 97 -240 3 -30
16 -82 29 -116 13 -34 24 -79 24 -100 0 -21 11 -65 25 -98 20 -49 25 -77 25
-152 0 -76 4 -100 25 -145 23 -49 25 -64 25 -200 0 -135 2 -150 25 -200 l25
-53 0 -1130 0 -1130 -25 -53 c-25 -53 -25 -59 -25 -300 0 -242 -1 -248 -25
-300 -23 -49 -25 -66 -25 -195 0 -128 -3 -148 -25 -202 -14 -33 -25 -78 -25
-100 0 -22 -12 -67 -25 -100 -14 -33 -25 -77 -25 -98 0 -21 -11 -66 -24 -100
-13 -34 -26 -87 -29 -117 -7 -81 -160 -381 -238 -465 -31 -33 -68 -83 -84
-112 -34 -64 -153 -182 -215 -213 -25 -12 -69 -45 -97 -72 -62 -58 -122 -87
-180 -88 -30 0 -72 -15 -144 -50 -79 -39 -113 -50 -150 -50 -29 0 -67 -9 -101
-25 -32 -15 -71 -25 -100 -25 -28 0 -67 -10 -100 -25 -51 -24 -62 -25 -245
-25 -182 0 -193 -1 -245 -25 l-53 -25 -945 0 -945 0 -53 25 c-52 24 -62 25
-250 25 -189 0 -199 1 -250 25 -50 23 -65 25 -200 25 -136 0 -151 2 -200 25
-34 16 -72 25 -103 25 -42 0 -80 16 -286 119 l-238 119 -175 179 -175 178 -87
185 c-70 147 -88 195 -88 230 0 28 -10 64 -25 94 -16 32 -25 66 -25 97 0 29
-9 67 -25 101 -21 45 -25 68 -25 150 0 81 -4 104 -25 150 -24 52 -25 58 -25
300 0 241 0 247 -25 300 l-25 53 0 1540 0 1540 25 53 c21 46 25 69 25 150 0
82 4 105 25 150 16 34 25 72 25 101 0 37 11 71 50 150 39 79 50 113 50 150 0
66 64 195 133 269 30 31 67 81 82 110 16 30 62 85 105 125 71 68 93 81 402
237 l326 165 104 3 c80 3 117 9 165 28 49 19 80 24 150 24 71 0 100 5 148 25
59 24 66 25 326 25 244 0 271 2 310 20 42 19 68 20 644 20 l600 0 53 -25z"/>
</g></g></svg>