<svg xmlns="http://www.w3.org/2000/svg" width="1000" height="1000" viewBox="0 0 1000 1000"><g transform="scale(0.2)"><g transform="translate(0.000000,5000.000000) scale(0.100000,-0.100000)"
fill="#141413" stroke="none">
<path d="M26375 44073 c-11 -2 -38 -12 -60 -21 -34 -14 -89 -18 -355 -22 -254
-4 -320 -8 -340 -20 -19 -11 -73 -16 -215 -21 -165 -5 -196 -9 -238 -27 -43
-19 -66 -22 -201 -22 -110 0 -166 -4 -206 -16 -31 -9 -118 -20 -200 -24 -111
-5 -155 -12 -190 -27 -29 -13 -76 -22 -136 -25 -49 -3 -101 -11 -115 -19 -15
-9 -77 -15 -174 -19 -97 -4 -159 -11 -175 -20 -14 -7 -70 -17 -125 -21 -62 -5
-117 -15 -145 -27 -30 -12 -78 -21 -140 -24 -53 -3 -107 -11 -120 -18 -14 -8
-72 -17 -130 -21 -68 -5 -121 -14 -150 -27 -28 -12 -79 -21 -135 -25 -49 -3
-106 -12 -125 -20 -19 -8 -59 -18 -89 -21 -30 -4 -64 -12 -75 -18 -12 -7 -66
-15 -121 -19 -62 -4 -117 -15 -145 -27 -25 -10 -69 -22 -99 -26 -30 -4 -64
-12 -75 -18 -12 -7 -68 -15 -126 -19 -72 -5 -120 -13 -150 -27 -25 -11 -67
-23 -93 -27 -26 -3 -62 -12 -80 -19 -18 -8 -55 -16 -84 -20 -28 -4 -67 -13
-85 -20 -18 -7 -57 -16 -85 -20 -29 -4 -72 -15 -95 -25 -24 -10 -66 -21 -95
-25 -28 -3 -67 -13 -85 -20 -18 -7 -57 -16 -87 -20 -29 -4 -72 -15 -95 -26
-22 -10 -63 -21 -89 -25 -26 -3 -62 -12 -80 -19 -18 -8 -55 -16 -84 -20 -28
-4 -67 -13 -85 -20 -18 -7 -58 -17 -88 -20 -30 -4 -91 -24 -135 -45 -45 -21
-101 -41 -125 -45 -25 -4 -63 -13 -85 -21 -22 -7 -65 -17 -96 -20 -37 -4 -83
-20 -131 -44 -41 -21 -97 -41 -126 -45 -28 -4 -89 -23 -134 -43 -46 -19 -111
-42 -146 -49 -35 -8 -96 -29 -135 -47 -40 -19 -99 -37 -131 -41 -32 -3 -91
-21 -130 -40 -40 -18 -97 -36 -127 -40 -35 -5 -99 -29 -184 -71 -76 -37 -150
-66 -180 -70 -55 -8 -172 -58 -350 -150 -85 -45 -136 -65 -175 -70 -54 -6
-223 -78 -323 -137 -26 -15 -50 -28 -52 -28 -2 0 -84 -40 -182 -88 -98 -49
-266 -132 -373 -186 -107 -53 -208 -103 -225 -112 -16 -9 -115 -59 -220 -110
-104 -52 -203 -101 -220 -110 -16 -9 -66 -35 -109 -56 -44 -22 -102 -61 -130
-87 -35 -32 -102 -73 -209 -127 -110 -54 -177 -96 -219 -132 -33 -30 -97 -71
-142 -93 -44 -22 -101 -59 -126 -83 -25 -24 -60 -52 -79 -61 -19 -10 -58 -39
-86 -66 -33 -31 -85 -64 -141 -90 -58 -28 -108 -60 -144 -94 -30 -29 -71 -60
-90 -70 -19 -10 -78 -59 -130 -110 -52 -51 -111 -100 -130 -110 -19 -10 -75
-57 -125 -105 -49 -48 -112 -99 -140 -115 -72 -40 -970 -936 -1015 -1013 -19
-31 -75 -100 -125 -152 -51 -52 -100 -111 -110 -130 -10 -19 -39 -58 -65 -86
-26 -28 -58 -70 -70 -95 -12 -24 -44 -67 -70 -95 -26 -27 -55 -66 -65 -85 -10
-19 -39 -57 -64 -85 -25 -28 -66 -89 -90 -135 -25 -46 -65 -107 -90 -135 -36
-39 -99 -157 -286 -530 -358 -717 -393 -791 -401 -854 -4 -33 -22 -84 -45
-129 -23 -46 -41 -95 -45 -130 -3 -31 -13 -71 -20 -89 -7 -18 -17 -56 -20 -84
-4 -29 -25 -90 -47 -136 -35 -75 -40 -96 -46 -191 -4 -58 -14 -117 -21 -131
-9 -16 -15 -69 -18 -155 -3 -104 -8 -141 -25 -185 -21 -53 -22 -68 -22 -430 0
-368 0 -376 23 -423 15 -33 22 -68 22 -106 0 -31 7 -81 16 -111 8 -30 20 -83
25 -118 5 -34 19 -83 29 -108 39 -90 71 -83 -367 -86 -319 -2 -392 -6 -413
-18 -17 -10 -71 -16 -175 -21 -118 -5 -160 -10 -195 -26 -28 -13 -77 -22 -131
-25 -47 -3 -97 -11 -110 -19 -13 -7 -72 -16 -130 -20 -59 -4 -117 -13 -130
-20 -13 -7 -71 -16 -129 -20 -68 -5 -121 -14 -150 -27 -25 -10 -67 -22 -95
-27 -27 -4 -59 -12 -70 -18 -11 -6 -67 -14 -125 -18 -68 -5 -121 -14 -150 -27
-25 -10 -68 -22 -97 -26 -28 -3 -67 -13 -85 -20 -18 -7 -56 -16 -85 -20 -28
-4 -67 -13 -85 -20 -18 -7 -57 -16 -85 -20 -29 -4 -72 -15 -95 -25 -24 -10
-68 -21 -98 -25 -30 -4 -91 -24 -136 -45 -44 -21 -102 -41 -128 -45 -26 -4
-61 -13 -79 -20 -18 -8 -59 -16 -92 -20 -40 -4 -85 -19 -135 -45 -41 -21 -98
-41 -127 -45 -47 -6 -181 -54 -207 -75 -6 -4 -36 -11 -65 -15 -30 -4 -87 -22
-126 -40 -39 -18 -96 -36 -126 -40 -35 -5 -99 -29 -185 -70 -71 -35 -149 -67
-173 -71 -56 -9 -139 -44 -255 -105 -69 -37 -113 -54 -163 -62 -53 -8 -105
-28 -233 -93 -114 -57 -181 -84 -217 -89 -58 -7 -168 -50 -231 -90 -23 -14
-44 -26 -46 -26 -4 0 -222 -108 -526 -259 -80 -40 -291 -145 -469 -234 -251
-126 -336 -173 -380 -212 -38 -34 -110 -77 -224 -134 -121 -60 -184 -98 -228
-138 -41 -36 -98 -72 -174 -108 -74 -36 -131 -71 -167 -104 -30 -27 -88 -66
-128 -87 -41 -20 -97 -58 -125 -84 -27 -26 -70 -58 -94 -70 -25 -12 -67 -44
-95 -70 -28 -26 -66 -55 -85 -65 -19 -9 -55 -36 -80 -60 -25 -23 -71 -58 -101
-77 -30 -20 -68 -50 -85 -68 -16 -17 -52 -43 -80 -57 -27 -14 -90 -65 -140
-113 -49 -48 -105 -95 -124 -105 -19 -10 -120 -99 -225 -199 -105 -100 -211
-194 -236 -208 -61 -36 -292 -272 -320 -328 -15 -30 -97 -119 -240 -260 -142
-141 -225 -231 -240 -260 -12 -25 -66 -90 -120 -146 -54 -55 -101 -111 -105
-125 -4 -13 -29 -47 -55 -75 -26 -28 -58 -70 -70 -95 -13 -24 -46 -69 -74
-100 -28 -31 -67 -87 -86 -125 -19 -38 -56 -92 -82 -120 -25 -28 -65 -89 -88
-135 -23 -46 -64 -107 -90 -135 -41 -43 -95 -145 -344 -643 -247 -497 -296
-601 -301 -649 -4 -33 -18 -76 -33 -102 -48 -84 -62 -118 -68 -177 -5 -36 -20
-82 -41 -121 l-33 -64 0 -1989 c0 -1510 3 -1996 12 -2012 6 -12 15 -68 19
-124 4 -55 13 -112 20 -125 7 -12 16 -70 20 -128 5 -68 14 -121 27 -150 10
-25 22 -67 27 -95 4 -27 12 -59 18 -70 6 -11 14 -67 18 -125 5 -68 14 -121 27
-150 10 -25 22 -68 26 -97 3 -28 13 -67 20 -85 7 -18 16 -56 20 -85 4 -28 13
-67 20 -85 7 -18 16 -57 20 -85 4 -29 15 -72 25 -95 10 -24 21 -65 25 -91 4
-26 13 -62 20 -80 8 -18 16 -56 20 -84 4 -29 15 -72 25 -95 10 -24 21 -66 25
-95 3 -28 13 -67 20 -85 7 -18 16 -56 20 -85 4 -28 13 -67 20 -85 7 -18 17
-58 20 -89 5 -35 22 -85 45 -131 21 -42 41 -97 45 -127 4 -29 24 -92 45 -140
22 -47 42 -111 45 -142 5 -35 21 -84 45 -130 22 -44 41 -97 45 -129 5 -37 32
-106 83 -215 42 -88 80 -165 84 -170 31 -40 87 -178 93 -228 11 -85 234 -532
305 -609 31 -34 72 -99 110 -174 35 -70 81 -144 111 -178 28 -31 58 -72 66
-89 9 -18 56 -72 104 -122 47 -49 101 -112 118 -140 39 -63 635 -657 682 -680
19 -10 78 -59 130 -110 52 -51 111 -100 130 -110 19 -10 53 -34 76 -55 22 -20
62 -50 90 -65 27 -16 72 -50 100 -76 28 -26 84 -64 125 -84 41 -21 98 -59 127
-86 30 -27 99 -72 160 -103 59 -30 137 -70 175 -89 37 -19 89 -55 116 -80 70
-65 665 -361 766 -381 48 -9 120 -38 234 -94 118 -58 179 -83 219 -88 37 -4
96 -26 175 -65 80 -39 139 -60 176 -65 34 -4 86 -22 131 -45 49 -25 96 -41
135 -45 32 -4 91 -22 130 -40 38 -17 90 -35 115 -39 25 -3 68 -15 95 -26 28
-10 77 -23 110 -28 79 -13 178 -38 240 -62 28 -10 77 -23 110 -28 70 -12 170
-35 236 -56 26 -8 69 -18 95 -22 27 -3 69 -15 94 -26 29 -12 82 -21 150 -26
58 -4 116 -13 129 -21 14 -7 66 -15 115 -18 58 -3 107 -12 136 -24 29 -13 82
-22 150 -27 58 -4 116 -13 129 -20 13 -7 71 -16 130 -20 59 -4 117 -14 131
-21 18 -10 79 -16 210 -20 154 -4 192 -9 225 -24 35 -17 72 -20 275 -25 183
-5 241 -9 260 -21 22 -13 183 -15 1290 -15 1107 0 1268 2 1290 15 20 12 81 16
305 21 249 5 284 7 320 24 33 16 70 21 225 25 134 4 192 10 210 20 17 10 73
16 175 21 119 5 159 10 195 26 37 16 74 21 180 25 91 3 143 9 160 18 17 10 73
16 170 20 93 4 154 11 170 20 14 8 72 17 130 21 68 5 121 14 150 27 25 10 68
22 95 27 28 4 59 12 70 18 11 6 67 14 125 18 68 5 121 14 150 27 25 10 69 22
99 26 30 4 64 12 75 18 12 7 68 15 126 19 58 4 121 14 140 22 19 8 59 17 87
21 29 4 72 15 95 25 24 10 65 21 91 25 26 4 62 13 80 20 18 8 56 16 84 20 29
4 72 15 95 25 24 10 68 21 98 25 30 4 86 22 125 40 38 18 94 36 122 40 29 4
72 15 95 25 24 10 66 21 93 25 28 4 86 25 131 45 44 21 104 41 134 45 30 4 86
22 125 40 40 18 97 36 127 40 37 5 98 28 188 72 72 35 141 64 151 64 25 0 24
-26 -1 -84 -10 -25 -24 -74 -29 -108 -5 -35 -17 -88 -25 -118 -9 -30 -16 -80
-16 -111 0 -38 -7 -73 -22 -106 -22 -46 -23 -58 -23 -343 0 -285 1 -297 23
-343 15 -33 22 -68 22 -106 0 -31 7 -81 16 -111 8 -30 20 -84 25 -119 6 -35
19 -82 29 -105 10 -23 21 -63 25 -89 3 -26 12 -62 19 -80 8 -18 17 -57 20 -87
4 -30 24 -91 45 -136 21 -44 41 -105 45 -135 5 -34 28 -97 65 -174 32 -66 61
-142 65 -170 9 -59 62 -177 191 -430 104 -203 120 -231 171 -285 17 -19 69
-109 115 -200 56 -113 97 -180 129 -215 25 -27 59 -72 75 -100 16 -27 48 -70
71 -95 24 -26 60 -80 80 -121 27 -54 60 -98 124 -164 48 -49 98 -110 110 -135
13 -25 64 -88 115 -140 51 -52 100 -111 110 -130 10 -19 77 -96 150 -170 73
-74 143 -155 155 -178 30 -60 547 -578 598 -599 23 -9 106 -83 222 -198 102
-100 201 -190 220 -200 19 -10 76 -57 125 -105 50 -48 110 -97 135 -110 25
-12 68 -44 96 -70 27 -26 66 -55 85 -65 19 -10 58 -40 86 -67 29 -27 72 -58
95 -68 24 -10 59 -35 78 -55 19 -20 58 -50 85 -67 28 -17 68 -48 90 -69 22
-20 60 -49 85 -64 25 -15 66 -47 91 -71 26 -23 84 -61 130 -84 46 -24 107 -64
135 -90 28 -27 89 -67 135 -90 46 -24 107 -64 136 -90 34 -31 106 -75 215
-130 107 -54 180 -99 214 -129 43 -39 208 -125 955 -499 752 -375 913 -453
959 -458 40 -5 101 -29 223 -90 123 -60 184 -85 225 -90 36 -4 94 -26 166 -60
61 -30 136 -58 166 -64 30 -6 114 -37 185 -70 72 -32 152 -61 179 -65 27 -4
88 -25 136 -46 48 -20 109 -41 135 -45 26 -3 85 -24 129 -45 45 -21 106 -41
136 -45 30 -3 70 -13 88 -20 18 -7 57 -16 85 -20 29 -4 88 -24 132 -45 44 -21
105 -41 135 -45 30 -3 70 -13 88 -20 18 -7 57 -17 85 -20 29 -4 71 -15 94 -25
22 -10 63 -21 90 -24 26 -4 63 -14 81 -21 18 -7 57 -16 85 -20 29 -3 68 -11
87 -19 19 -7 55 -16 80 -20 25 -3 64 -15 87 -26 23 -10 68 -22 100 -25 32 -4
73 -13 91 -20 18 -7 57 -17 85 -20 29 -4 72 -16 97 -26 28 -12 83 -23 145 -27
55 -4 109 -12 121 -19 11 -6 45 -14 75 -18 30 -3 70 -13 89 -21 19 -8 76 -17
125 -20 60 -3 105 -11 135 -25 30 -14 78 -22 150 -27 58 -4 116 -13 130 -21
13 -7 67 -15 120 -18 64 -3 110 -11 140 -25 35 -15 77 -21 190 -26 95 -4 154
-12 170 -21 17 -9 75 -16 175 -20 103 -4 158 -10 175 -20 19 -11 70 -15 200
-18 155 -3 180 -6 220 -25 41 -19 67 -22 280 -28 175 -4 249 -10 290 -23 50
-15 152 -16 1125 -14 930 3 1073 5 1095 18 20 12 81 16 300 21 244 5 280 7
315 24 34 17 70 21 230 25 139 4 197 9 215 20 17 10 73 16 170 21 112 5 155
11 190 26 29 13 77 22 136 25 49 3 101 11 115 18 13 8 72 17 130 21 59 4 117
13 130 20 13 7 71 16 129 20 68 5 121 14 150 27 25 10 69 22 99 26 30 4 64 12
75 18 12 7 68 15 126 19 72 5 120 13 150 27 25 11 67 23 93 27 26 3 62 12 80
19 18 8 55 16 84 20 28 4 67 13 85 20 18 7 55 17 83 21 27 4 88 24 135 45 47
21 109 41 139 44 29 4 72 15 95 26 22 10 63 21 89 25 26 3 62 12 80 19 18 8
57 17 87 20 30 4 91 24 136 45 44 21 105 41 135 45 29 4 90 24 135 45 44 21
103 42 130 45 27 4 101 32 164 61 72 33 136 55 170 60 41 4 98 28 220 89 115
58 181 85 217 90 28 4 69 14 90 22 21 9 353 173 738 366 610 304 706 356 750
398 35 35 86 66 175 109 89 44 138 75 175 110 29 29 84 66 134 91 46 23 104
61 130 84 25 24 61 51 80 61 19 10 58 39 85 65 28 26 89 67 136 90 66 33 106
63 175 130 50 48 110 100 135 115 25 16 88 67 140 115 52 48 122 105 155 128
74 50 702 680 741 742 15 25 86 107 158 183 72 76 142 157 156 181 14 24 44
64 67 89 23 25 61 83 84 129 23 46 63 106 89 134 26 27 55 66 65 85 10 19 41
59 69 90 36 40 75 105 135 225 59 118 99 185 132 220 70 75 414 766 425 851 5
44 26 98 90 224 65 129 85 179 90 225 5 40 24 93 60 168 29 60 56 131 59 158
4 27 25 87 46 132 23 50 41 106 45 142 4 32 15 78 25 101 10 22 21 63 24 90 4
26 14 63 21 81 7 18 16 57 20 85 4 29 12 66 20 84 7 18 16 54 19 80 4 26 15
67 25 89 11 23 22 66 26 95 4 30 13 70 21 89 8 19 18 78 21 130 3 62 12 111
24 140 13 29 22 82 27 150 4 58 13 116 21 130 9 16 16 77 20 170 4 98 10 153
20 170 10 18 16 76 20 210 4 154 9 192 25 225 17 35 19 71 24 315 5 219 9 280
21 300 13 21 16 119 20 655 5 596 6 632 24 670 17 35 20 71 25 275 4 170 10
242 20 259 7 13 16 71 20 130 4 58 14 117 21 131 9 17 15 71 18 160 4 107 9
143 25 180 17 38 21 74 27 235 3 105 10 197 14 206 4 10 25 20 52 24 25 3 61
14 82 23 31 14 86 18 352 22 254 4 320 8 340 20 19 11 72 16 215 20 135 4 197
10 215 20 14 7 72 17 130 21 68 5 121 14 150 27 29 12 78 21 136 24 49 3 100
11 113 17 12 7 50 17 84 22 34 5 85 18 112 29 30 11 87 20 140 23 50 3 106 12
125 20 19 8 60 18 90 21 30 4 91 24 136 45 44 21 103 42 130 45 27 4 85 25
130 45 44 21 104 41 134 45 30 4 86 22 125 40 39 18 96 36 126 40 39 5 112 35
264 108 116 56 224 110 240 120 17 9 109 55 205 102 96 47 198 98 225 113 28
15 133 68 235 118 226 110 272 136 331 192 25 23 81 59 124 79 45 21 100 57
129 83 28 26 69 58 91 71 22 14 59 42 83 64 23 21 65 53 92 70 27 17 112 90
187 162 76 71 158 142 183 156 61 36 372 352 399 405 12 24 59 79 104 123 48
45 96 102 112 132 15 29 50 77 77 105 28 30 64 86 85 130 21 44 59 102 87 133
68 75 242 418 252 500 5 35 28 97 65 174 39 81 60 137 65 175 3 31 12 70 20
88 7 18 16 54 20 80 4 26 13 62 20 80 12 27 14 614 14 3527 l0 3495 -180 360
c-142 284 -190 371 -229 413 -26 29 -58 73 -71 97 -12 25 -44 67 -70 95 -26
28 -55 66 -65 85 -9 19 -36 55 -59 80 -24 25 -63 78 -88 116 -62 95 -952 983
-1018 1015 -25 12 -88 64 -140 115 -52 51 -111 100 -130 110 -19 10 -58 39
-86 65 -27 26 -66 55 -85 65 -19 10 -58 40 -86 67 -29 27 -70 56 -90 65 -21 8
-61 37 -89 63 -27 26 -66 55 -85 65 -19 9 -52 34 -74 55 -43 42 -181 130 -202
130 -7 0 -40 24 -72 54 -34 31 -96 73 -143 96 -45 23 -106 64 -134 90 -34 32
-93 69 -174 110 -77 38 -142 79 -175 109 -36 32 -108 75 -226 135 -116 59
-190 103 -224 134 -40 37 -135 89 -436 239 -430 215 -439 219 -506 229 -32 4
-147 55 -348 155 -232 115 -312 150 -355 155 -36 4 -95 26 -174 65 -79 39
-137 60 -174 65 -37 4 -96 26 -175 65 -79 38 -139 60 -175 65 -30 4 -91 24
-136 45 -45 21 -106 41 -136 45 -32 4 -86 23 -129 45 -46 23 -96 41 -130 45
-31 3 -71 13 -89 20 -18 7 -56 17 -84 20 -29 4 -88 24 -132 45 -45 21 -106 41
-136 45 -30 3 -69 12 -87 20 -18 7 -54 16 -80 20 -26 4 -67 15 -91 25 -23 10
-66 21 -95 25 -28 4 -67 13 -85 20 -18 7 -57 16 -85 20 -29 4 -67 13 -85 20
-18 7 -57 17 -85 20 -29 4 -72 16 -97 26 -29 13 -82 22 -150 27 -58 4 -114 12
-126 19 -11 6 -45 14 -75 18 -30 4 -74 16 -99 26 -28 12 -83 23 -145 27 -55 4
-111 13 -124 20 -13 7 -71 16 -130 20 -58 4 -117 14 -131 21 -17 10 -71 15
-164 18 -114 4 -148 8 -185 25 -41 18 -72 21 -281 26 -183 5 -240 9 -260 21
-37 22 -1392 23 -1430 1 -14 -9 -70 -18 -130 -22 -68 -5 -121 -14 -150 -27
-29 -12 -78 -21 -138 -24 -93 -6 -94 -6 -266 -91 -146 -72 -180 -93 -218 -136
l-45 -50 -6 62 c-3 34 -13 79 -21 99 -14 32 -16 104 -16 497 0 416 2 465 18
503 16 40 17 101 17 783 0 632 -2 744 -15 765 -10 17 -16 71 -21 170 -5 113
-11 155 -26 190 -11 25 -23 68 -28 95 -4 28 -11 58 -17 68 -5 10 -14 46 -19
80 -5 34 -16 80 -24 102 -7 22 -16 64 -20 94 -3 29 -14 72 -25 95 -10 22 -22
61 -25 86 -4 25 -13 61 -20 80 -8 19 -16 60 -20 91 -4 40 -24 92 -64 175 -38
77 -61 138 -65 173 -10 79 -272 604 -337 675 -29 32 -72 102 -114 186 -45 88
-84 152 -115 185 -26 27 -55 65 -65 84 -10 19 -39 58 -65 85 -26 28 -57 71
-70 95 -12 24 -41 65 -64 90 -24 25 -59 71 -78 101 -45 69 -929 951 -978 975
-19 10 -55 36 -80 60 -25 23 -68 54 -95 70 -28 16 -73 50 -101 76 -28 26 -68
56 -90 67 -21 11 -52 34 -69 51 -16 18 -52 46 -80 63 -27 17 -66 46 -85 64
-49 45 -139 100 -239 146 -54 25 -106 59 -141 91 -47 44 -128 88 -525 287
-760 379 -883 438 -937 445 -30 4 -117 39 -216 85 -96 45 -188 81 -216 86 -27
3 -86 24 -130 45 -45 21 -106 41 -135 45 -30 4 -91 24 -135 45 -45 21 -106 41
-136 45 -30 3 -69 12 -87 20 -18 7 -54 16 -80 20 -26 4 -67 15 -91 25 -23 10
-66 21 -95 25 -28 4 -67 13 -85 20 -18 7 -57 17 -85 20 -29 4 -71 15 -95 25
-23 10 -66 21 -95 25 -28 4 -67 13 -85 20 -18 7 -57 16 -85 20 -29 4 -66 12
-84 20 -18 7 -54 16 -80 20 -26 4 -68 16 -93 26 -29 13 -82 22 -150 27 -58 4
-116 13 -130 21 -13 7 -67 15 -120 18 -62 3 -110 12 -140 24 -28 12 -83 22
-145 27 -55 4 -111 13 -124 20 -13 7 -71 16 -130 20 -58 4 -117 14 -131 21
-16 9 -69 15 -155 18 -106 3 -138 7 -175 25 -39 18 -69 22 -240 27 -147 4
-201 9 -220 20 -20 12 -86 16 -345 20 -294 5 -323 7 -360 25 -39 20 -62 20
-950 21 -500 1 -919 0 -930 -3z m2103 -1980 c30 -13 82 -18 262 -22 191 -5
231 -9 265 -25 31 -14 74 -20 190 -25 93 -4 159 -12 173 -20 13 -7 70 -16 125
-20 56 -4 113 -13 126 -21 14 -7 66 -15 115 -17 55 -3 111 -12 141 -23 28 -11
78 -24 112 -29 34 -5 72 -15 84 -22 12 -6 61 -13 108 -16 49 -3 107 -13 136
-24 28 -10 78 -23 112 -28 34 -5 70 -14 81 -20 10 -5 43 -13 73 -17 30 -3 69
-13 87 -20 18 -7 56 -17 84 -20 29 -4 88 -24 132 -45 45 -20 104 -41 131 -45
28 -4 69 -15 93 -25 23 -10 66 -21 95 -25 33 -4 95 -27 172 -65 80 -39 138
-61 175 -65 37 -5 94 -26 174 -65 80 -39 136 -60 175 -65 46 -6 155 -56 624
-291 464 -232 577 -292 621 -332 29 -27 91 -67 137 -90 46 -24 106 -64 136
-92 33 -31 85 -65 136 -89 46 -22 98 -55 117 -75 19 -20 55 -48 80 -62 25 -15
65 -45 90 -69 25 -23 64 -53 87 -66 23 -13 89 -67 147 -121 58 -53 123 -105
143 -116 53 -28 553 -534 588 -595 15 -28 45 -68 65 -90 20 -23 52 -63 70 -91
18 -27 48 -66 66 -85 17 -19 60 -91 95 -160 39 -78 79 -143 109 -175 55 -60
96 -141 105 -211 4 -32 29 -98 64 -171 35 -72 61 -139 65 -170 3 -29 13 -67
20 -85 7 -18 16 -57 20 -85 4 -29 15 -72 25 -95 10 -24 21 -65 26 -93 4 -27
12 -59 18 -70 6 -11 14 -87 18 -170 4 -105 11 -161 23 -187 21 -48 21 -148 0
-196 -12 -26 -18 -77 -22 -172 -3 -104 -9 -144 -24 -180 -13 -29 -22 -76 -25
-135 -4 -74 -10 -103 -38 -165 -18 -41 -36 -95 -39 -120 -4 -25 -16 -67 -26
-95 -11 -27 -24 -78 -29 -111 -6 -42 -27 -96 -65 -169 -39 -76 -57 -123 -61
-163 -9 -74 -83 -222 -141 -282 -31 -32 -75 -107 -155 -265 -65 -128 -127
-237 -149 -261 -20 -22 -50 -62 -65 -90 -16 -27 -49 -71 -75 -99 -26 -27 -65
-86 -88 -130 -29 -55 -72 -112 -137 -182 -52 -56 -102 -117 -111 -135 -9 -18
-56 -73 -104 -123 -48 -49 -97 -108 -108 -130 -26 -50 -634 -657 -682 -680
-19 -10 -98 -79 -175 -155 -77 -76 -155 -146 -174 -155 -19 -9 -55 -36 -80
-60 -25 -23 -66 -53 -91 -65 -25 -12 -88 -64 -140 -115 -72 -70 -115 -103
-178 -135 -46 -24 -107 -64 -135 -90 -29 -25 -70 -57 -92 -70 -22 -14 -61 -44
-86 -67 -25 -23 -80 -58 -123 -78 -48 -22 -98 -54 -131 -86 -37 -35 -90 -69
-175 -110 -82 -40 -138 -75 -173 -108 -38 -35 -100 -73 -227 -136 -121 -61
-190 -102 -225 -135 -27 -25 -68 -56 -90 -67 -22 -11 -128 -63 -235 -116 -107
-53 -208 -104 -225 -113 -16 -9 -115 -59 -220 -110 -104 -52 -203 -101 -220
-110 -179 -97 -366 -182 -416 -188 -41 -5 -102 -29 -225 -90 -121 -59 -185
-85 -224 -90 -40 -5 -103 -30 -225 -90 -110 -54 -188 -87 -220 -91 -27 -4 -82
-21 -120 -39 -39 -18 -97 -36 -130 -40 -50 -6 -151 -46 -190 -76 -5 -4 -39
-10 -75 -14 -45 -4 -89 -18 -145 -45 -44 -22 -102 -42 -129 -46 -26 -4 -89
-24 -140 -45 -96 -40 -182 -65 -281 -81 -33 -5 -82 -18 -110 -28 -27 -11 -72
-22 -100 -26 -27 -4 -86 -24 -131 -44 -45 -21 -102 -41 -128 -45 -26 -4 -61
-13 -79 -20 -18 -8 -55 -16 -84 -20 -28 -4 -67 -13 -85 -20 -18 -7 -57 -16
-85 -20 -29 -4 -72 -15 -95 -25 -24 -10 -67 -21 -97 -25 -30 -4 -64 -12 -75
-18 -12 -7 -68 -15 -126 -19 -68 -5 -121 -14 -150 -27 -25 -10 -67 -22 -93
-26 -26 -4 -62 -13 -80 -20 -18 -8 -56 -17 -86 -20 -30 -4 -64 -12 -75 -18
-12 -7 -68 -15 -126 -19 -68 -5 -121 -14 -150 -27 -29 -12 -78 -21 -136 -24
-49 -3 -101 -11 -115 -18 -13 -8 -71 -17 -129 -21 -68 -5 -121 -14 -150 -27
-29 -12 -78 -21 -136 -24 -49 -3 -101 -11 -115 -19 -15 -9 -77 -15 -174 -19
-102 -4 -158 -11 -175 -21 -18 -10 -78 -15 -215 -20 -158 -5 -197 -9 -230 -25
-35 -17 -72 -20 -315 -25 -229 -4 -281 -8 -312 -22 -34 -15 -96 -17 -668 -17
-569 0 -634 2 -668 17 -30 13 -82 18 -262 22 -193 5 -231 9 -265 25 -33 16
-72 20 -235 25 -143 5 -202 10 -220 21 -17 10 -67 15 -160 18 -105 4 -144 9
-180 24 -29 13 -81 22 -150 27 -58 4 -116 13 -128 20 -13 7 -70 16 -125 20
-56 4 -111 12 -123 19 -11 6 -45 14 -75 18 -30 4 -73 15 -97 25 -23 10 -66 21
-95 25 -28 4 -68 13 -87 21 -19 8 -73 17 -120 20 -48 2 -107 13 -135 24 -27
10 -78 23 -112 28 -34 5 -70 14 -81 20 -10 5 -43 13 -73 17 -30 3 -68 12 -86
20 -18 7 -53 16 -79 20 -26 4 -84 24 -128 45 -45 21 -106 41 -135 45 -30 4
-91 24 -135 45 -45 21 -110 42 -147 47 -38 6 -84 21 -105 34 -54 34 -89 46
-161 57 -45 7 -104 31 -220 90 -124 63 -171 82 -218 87 -52 6 -127 41 -540
247 -406 204 -489 249 -537 293 -39 35 -94 70 -175 109 -75 36 -135 73 -163
100 -25 23 -65 55 -90 70 -25 15 -66 47 -91 70 -25 24 -66 53 -90 65 -24 13
-65 42 -90 65 -25 24 -61 51 -80 60 -19 10 -60 42 -91 72 -32 29 -72 60 -90
68 -46 19 -821 792 -849 847 -12 23 -43 64 -69 92 -26 28 -66 88 -89 134 -23
45 -64 108 -93 139 -40 45 -75 105 -159 278 -70 144 -109 237 -114 270 -4 28
-21 82 -39 121 -18 38 -36 93 -40 122 -4 29 -15 71 -25 94 -11 27 -20 79 -23
138 -3 53 -13 111 -22 132 -23 55 -24 481 0 536 9 20 18 75 21 122 2 48 13
107 24 135 10 28 23 78 28 112 5 34 14 71 20 81 6 11 14 46 17 78 4 33 15 78
25 101 10 22 21 63 24 90 4 29 37 110 85 208 53 106 81 177 85 210 9 76 90
240 149 305 36 39 74 103 130 215 54 107 95 175 127 212 27 29 67 90 90 135
23 46 63 106 89 134 26 28 58 70 70 95 12 24 44 67 70 95 26 27 55 66 65 85 9
19 77 95 150 169 73 74 142 153 153 175 26 50 544 566 592 590 19 10 98 79
175 155 77 76 156 146 175 155 19 10 76 57 125 105 50 48 112 99 140 115 27
16 70 47 95 70 25 24 60 50 79 60 19 10 58 39 85 65 28 26 68 55 89 64 21 8
63 40 95 69 36 35 85 67 134 90 46 21 99 55 130 85 29 27 86 66 127 87 40 22
97 60 126 86 36 34 104 74 225 134 124 62 187 100 224 134 43 41 165 105 791
418 621 311 749 371 797 377 44 6 107 32 265 110 152 75 223 105 263 110 36 5
99 29 185 70 92 45 147 66 188 71 41 5 90 23 172 64 74 38 132 61 167 65 29 4
89 24 134 45 44 21 103 41 131 45 47 6 181 55 207 75 6 4 36 11 65 15 30 4 87
22 126 40 39 18 96 36 126 40 30 4 90 24 134 45 46 22 104 41 136 45 34 4 84
22 130 45 41 21 97 41 126 45 28 3 67 13 85 20 18 7 57 16 85 20 29 4 72 15
95 25 24 10 68 21 98 25 30 4 91 24 136 45 44 21 102 41 128 45 26 4 61 13 79
20 18 8 57 16 88 20 31 3 71 12 90 20 19 7 56 17 82 21 27 3 68 14 90 24 23
10 66 21 96 25 30 4 63 12 73 17 11 6 47 15 81 20 34 5 85 18 112 28 28 11 87
22 135 24 47 3 101 12 120 20 19 8 59 18 89 21 30 4 63 12 73 17 11 6 47 15
81 20 34 5 85 18 112 29 30 11 86 20 141 23 49 2 101 10 115 17 13 8 71 17
129 21 72 5 120 13 150 27 31 14 74 22 136 25 49 2 101 10 115 17 13 8 70 17
126 21 55 4 112 13 125 21 16 9 84 15 213 19 167 5 196 8 240 28 47 21 61 22
265 20 183 -3 220 -1 250 14 32 15 113 16 858 17 750 0 826 -1 860 -17z m9500
-7857 c61 -60 92 -100 118 -152 19 -39 57 -98 84 -130 27 -33 68 -95 92 -139
53 -99 146 -196 203 -213 22 -6 67 -19 100 -27 33 -9 76 -20 95 -25 19 -5 187
-10 373 -10 294 0 342 -2 375 -17 29 -13 76 -17 212 -20 150 -4 181 -7 220
-25 31 -14 77 -22 150 -27 58 -4 116 -14 130 -21 17 -10 71 -15 164 -18 110
-4 150 -9 185 -24 29 -12 83 -22 146 -27 55 -4 109 -12 121 -19 11 -6 45 -14
75 -18 30 -3 70 -13 89 -21 19 -8 76 -17 125 -20 57 -3 105 -12 131 -23 23
-11 66 -22 95 -26 30 -4 69 -13 87 -20 18 -7 57 -17 85 -20 29 -4 71 -15 95
-25 23 -10 65 -21 94 -25 29 -4 84 -22 122 -40 39 -18 94 -35 121 -39 28 -4
69 -15 91 -25 23 -11 66 -22 95 -26 30 -4 69 -13 87 -20 18 -7 56 -17 84 -20
29 -4 88 -24 132 -45 45 -21 106 -41 136 -45 30 -4 91 -24 135 -45 44 -21 105
-41 135 -45 35 -5 97 -28 174 -65 79 -39 138 -60 175 -65 38 -5 89 -24 161
-61 74 -38 128 -58 180 -67 63 -12 122 -38 362 -159 235 -119 297 -147 345
-152 47 -6 115 -36 368 -162 186 -93 324 -168 345 -188 51 -48 125 -92 315
-185 122 -60 184 -97 221 -131 28 -26 89 -66 135 -89 46 -23 107 -64 135 -90
28 -27 89 -67 135 -90 46 -23 107 -64 135 -90 27 -26 66 -55 85 -65 19 -10 57
-39 85 -65 28 -26 70 -58 95 -70 25 -12 103 -81 179 -155 74 -73 151 -140 170
-150 48 -23 386 -360 412 -410 11 -22 60 -80 108 -130 47 -49 98 -111 113
-136 14 -25 46 -68 70 -95 24 -27 52 -64 62 -83 10 -19 39 -58 65 -85 26 -28
55 -66 65 -85 10 -19 39 -58 65 -85 39 -42 85 -125 247 -452 149 -299 202
-414 207 -452 3 -28 13 -66 20 -84 7 -18 16 -57 20 -85 4 -29 16 -74 26 -99
18 -41 20 -69 20 -269 0 -200 -2 -228 -20 -269 -10 -25 -22 -70 -26 -99 -11
-80 -300 -654 -364 -723 -26 -28 -57 -68 -68 -90 -27 -52 -532 -552 -602 -596
-30 -20 -66 -48 -80 -63 -14 -15 -43 -36 -64 -47 -22 -11 -62 -42 -90 -68 -28
-26 -89 -67 -135 -90 -46 -23 -107 -64 -135 -90 -36 -34 -94 -69 -191 -118
-77 -37 -222 -110 -323 -160 -100 -51 -186 -92 -190 -92 -4 0 -34 -16 -67 -36
-44 -27 -78 -39 -130 -46 -54 -7 -97 -23 -185 -67 -83 -42 -131 -60 -172 -65
-62 -7 -92 -17 -151 -54 -22 -13 -67 -28 -100 -33 -34 -5 -80 -16 -102 -24
-22 -7 -62 -17 -88 -20 -27 -4 -68 -14 -90 -24 -23 -10 -67 -21 -97 -25 -30
-4 -93 -25 -140 -46 -71 -32 -99 -39 -170 -43 -47 -3 -101 -12 -120 -20 -19
-8 -58 -17 -87 -21 -28 -4 -67 -13 -85 -20 -18 -7 -57 -17 -87 -20 -30 -4 -64
-12 -75 -18 -12 -7 -68 -15 -126 -19 -71 -5 -121 -14 -153 -28 -39 -17 -69
-21 -151 -21 -64 0 -122 -6 -156 -16 -31 -9 -118 -20 -200 -24 -109 -5 -155
-12 -185 -26 -34 -16 -73 -20 -270 -25 -185 -4 -237 -9 -267 -22 -34 -16 -118
-17 -977 -17 l-939 0 -49 22 c-42 18 -73 22 -238 27 -137 5 -197 10 -215 20
-17 10 -73 17 -175 21 -101 4 -158 10 -175 20 -17 9 -68 15 -160 18 -105 4
-144 9 -180 24 -29 13 -81 22 -150 27 -58 4 -116 13 -129 21 -14 7 -66 15
-115 18 l-91 5 -269 134 c-207 103 -281 145 -322 182 -76 70 -1030 547 -1114
557 -42 5 -113 36 -302 130 -195 96 -260 124 -305 130 -55 6 -77 16 -355 155
-20 10 -62 22 -94 25 -41 5 -94 25 -178 65 -80 39 -138 60 -175 65 -34 4 -85
22 -130 45 -46 23 -96 41 -130 45 -32 4 -91 23 -136 45 -44 20 -102 40 -130
44 -27 3 -68 13 -90 20 -22 8 -68 19 -102 24 -33 5 -78 20 -100 33 -53 34 -88
46 -160 57 -34 5 -72 15 -84 22 -13 6 -63 14 -111 17 l-89 5 23 24 c13 14 63
45 112 70 49 25 112 66 140 93 28 26 66 55 85 65 19 10 58 39 85 65 28 26 66
55 85 65 19 10 58 39 85 65 28 26 71 57 95 70 24 12 65 41 90 65 25 23 62 50
81 60 19 10 98 79 175 155 83 82 158 147 185 160 56 27 795 760 842 835 18 28
50 70 73 95 23 25 54 68 70 95 16 28 48 71 71 96 23 25 50 61 59 80 10 19 42
60 72 91 29 32 61 74 69 95 9 21 38 61 64 89 32 33 70 94 110 175 41 80 79
142 110 175 38 40 85 125 236 425 214 424 231 462 240 532 4 31 30 99 65 170
34 70 60 140 64 170 4 28 16 70 26 94 10 24 21 67 25 96 4 28 13 67 20 85 7
18 16 57 20 85 4 29 13 67 20 85 7 18 17 57 20 85 4 29 16 72 26 97 13 29 22
82 27 150 4 58 14 116 21 130 9 16 15 69 18 155 3 108 7 138 25 175 22 44 22
53 22 510 0 455 0 466 -22 520 -17 44 -22 81 -25 185 -3 86 -9 139 -18 155 -7
14 -17 72 -21 130 -5 72 -13 120 -27 150 -13 29 -22 75 -25 130 -3 47 -12 101
-20 120 -8 19 -17 60 -21 92 -3 31 -15 77 -26 103 -11 26 -20 57 -20 71 0 24
0 24 58 -12 31 -20 94 -73 140 -118z m-2214 -1052 c-13 -30 -19 -80 -23 -224
-5 -148 -10 -193 -25 -225 -11 -25 -20 -79 -25 -145 -4 -58 -12 -114 -18 -125
-6 -11 -14 -42 -18 -70 -5 -27 -16 -69 -26 -93 -10 -23 -21 -66 -25 -95 -4
-28 -13 -67 -20 -85 -7 -18 -16 -57 -20 -85 -4 -29 -13 -67 -20 -85 -7 -18
-16 -57 -20 -85 -4 -34 -28 -95 -70 -177 -44 -89 -65 -144 -73 -190 -8 -54
-39 -124 -180 -404 -129 -255 -182 -351 -216 -387 -24 -25 -62 -84 -85 -130
-24 -46 -64 -107 -90 -135 -26 -27 -55 -66 -65 -85 -10 -19 -39 -57 -65 -85
-26 -28 -58 -70 -70 -95 -12 -24 -44 -67 -70 -95 -26 -27 -55 -66 -65 -85 -9
-19 -97 -115 -195 -214 -118 -120 -186 -197 -203 -230 -30 -59 -247 -278 -320
-322 -26 -16 -110 -88 -185 -160 -76 -71 -153 -138 -172 -148 -19 -10 -78 -59
-130 -110 -52 -51 -115 -103 -139 -115 -24 -12 -65 -41 -90 -64 -25 -24 -73
-61 -106 -83 -33 -22 -69 -51 -80 -63 -11 -12 -38 -31 -59 -42 -22 -11 -62
-42 -90 -68 -28 -26 -88 -66 -134 -89 -45 -23 -106 -63 -135 -89 -32 -29 -103
-74 -176 -111 -70 -36 -145 -83 -174 -109 -37 -33 -116 -79 -261 -152 -151
-75 -224 -119 -262 -153 -74 -67 -735 -401 -815 -411 -54 -7 -236 -88 -443
-197 -71 -38 -119 -55 -174 -65 -54 -9 -108 -29 -187 -68 -70 -35 -129 -57
-161 -61 -33 -4 -96 -28 -171 -64 -76 -37 -138 -60 -173 -65 -30 -4 -91 -24
-135 -45 -44 -21 -104 -41 -132 -45 -29 -4 -72 -15 -95 -25 -24 -10 -65 -21
-93 -25 -27 -5 -82 -22 -120 -40 -39 -18 -96 -36 -126 -39 -31 -4 -78 -15
-105 -26 -61 -24 -159 -49 -244 -62 -36 -6 -101 -28 -146 -48 -45 -21 -103
-42 -130 -46 -27 -4 -57 -11 -66 -16 -10 -5 -50 -16 -90 -23 -40 -7 -93 -20
-118 -29 -83 -30 -174 -49 -275 -57 -60 -5 -118 -16 -145 -27 -25 -11 -68 -23
-97 -27 -28 -3 -67 -13 -85 -20 -18 -7 -57 -17 -87 -20 -30 -4 -64 -12 -75
-18 -12 -7 -68 -15 -126 -19 -68 -5 -121 -14 -150 -27 -29 -12 -78 -21 -136
-24 -49 -3 -101 -11 -115 -18 -13 -8 -71 -17 -129 -21 -69 -5 -121 -14 -150
-27 -36 -15 -75 -20 -180 -24 -92 -3 -143 -9 -160 -18 -17 -10 -74 -16 -175
-20 -102 -4 -158 -11 -175 -21 -18 -10 -78 -15 -220 -19 -174 -5 -200 -8 -239
-28 -41 -20 -59 -22 -236 -22 -149 0 -203 -4 -245 -17 -34 -10 -103 -18 -182
-20 l-127 -4 -3 363 c-2 293 -6 368 -17 388 -9 15 -18 70 -22 135 -5 74 -13
125 -27 155 -12 29 -21 78 -24 136 -3 49 -11 101 -18 115 -8 13 -17 71 -21
129 -5 68 -14 121 -27 150 -12 28 -21 79 -25 135 -3 50 -12 106 -20 125 -8 19
-17 58 -21 87 -4 28 -13 67 -20 85 -7 18 -17 58 -20 88 -5 34 -26 94 -56 158
-32 67 -45 104 -37 106 7 2 28 9 47 16 19 7 100 16 180 20 111 6 156 12 190
27 29 13 77 22 136 25 49 3 101 11 115 18 13 8 71 17 129 21 68 5 121 14 150
27 30 12 77 21 140 24 53 3 107 11 120 18 14 8 72 17 130 21 68 5 121 14 150
27 25 10 68 22 95 27 28 4 59 12 70 18 11 6 68 14 126 18 59 4 116 12 128 18
11 7 47 16 78 22 32 5 81 18 108 29 29 11 87 20 140 23 50 3 106 12 125 20 19
8 59 17 87 21 29 4 72 15 95 25 24 10 65 21 91 25 26 4 62 13 80 20 18 8 55
16 84 20 28 4 67 13 85 20 18 7 57 16 85 20 29 4 72 15 95 25 24 10 66 21 95
25 28 3 67 13 85 20 18 7 57 16 85 20 29 4 72 15 95 25 24 10 65 21 91 25 26
4 62 13 80 20 18 8 57 17 87 20 30 4 91 24 136 45 44 21 103 41 132 45 28 3
66 13 84 20 18 7 57 16 85 20 29 4 72 15 95 25 24 10 65 21 92 25 26 4 83 22
126 41 43 18 100 36 126 40 27 4 87 24 134 45 47 21 110 41 141 44 35 5 84 21
130 45 43 22 97 41 129 45 30 4 91 24 136 45 44 21 105 41 135 45 29 4 90 24
135 45 44 21 102 41 128 45 27 4 83 22 126 41 43 18 100 36 126 40 51 7 202
71 319 135 44 24 90 40 125 44 54 7 320 125 413 183 22 14 67 29 100 34 34 5
80 17 102 25 22 9 510 250 1084 537 890 445 1053 529 1100 572 34 30 103 74
175 110 65 33 141 81 170 106 28 25 84 63 125 85 41 21 100 62 131 91 35 32
88 66 143 91 54 26 106 59 139 90 29 27 86 66 127 87 40 22 97 60 125 86 28
25 71 56 96 69 25 12 86 62 135 110 50 47 113 101 140 118 28 17 64 45 80 63
17 17 48 40 69 51 22 11 62 42 90 68 28 26 74 59 102 74 36 19 164 141 444
421 217 217 396 393 398 391 2 -2 -5 -21 -14 -42z m-23372 -827 c3 -46 11 -95
19 -108 7 -13 16 -69 20 -124 5 -62 15 -117 27 -145 12 -30 21 -78 24 -140 3
-53 10 -106 17 -118 7 -13 17 -51 22 -85 5 -34 18 -84 28 -112 11 -29 21 -87
24 -136 3 -47 10 -97 18 -110 7 -13 16 -72 20 -130 4 -59 12 -116 18 -128 7
-11 16 -47 22 -78 5 -32 18 -80 29 -108 11 -29 20 -87 23 -140 3 -49 12 -106
20 -125 8 -19 17 -59 21 -87 4 -29 15 -72 25 -95 10 -24 21 -67 25 -97 4 -30
12 -64 18 -75 7 -12 15 -66 19 -121 4 -55 14 -116 22 -135 8 -19 18 -60 21
-90 4 -30 24 -91 45 -136 21 -44 41 -104 45 -132 4 -29 15 -71 25 -94 10 -24
21 -65 25 -91 4 -26 13 -62 20 -80 8 -18 16 -59 20 -92 5 -43 23 -93 65 -180
32 -66 61 -142 65 -168 10 -68 36 -124 241 -532 141 -279 197 -381 229 -415
24 -25 55 -66 69 -91 14 -25 46 -68 70 -95 24 -27 52 -65 62 -84 10 -19 59
-78 110 -130 50 -52 104 -117 120 -145 36 -62 586 -612 665 -663 30 -20 96
-75 145 -123 50 -47 108 -96 130 -107 22 -11 53 -34 70 -51 16 -18 52 -46 80
-63 27 -18 70 -50 95 -73 25 -23 68 -54 95 -70 28 -15 68 -45 90 -66 22 -21
83 -61 135 -90 52 -28 116 -71 141 -94 28 -26 97 -69 170 -106 81 -40 144 -79
180 -113 45 -41 115 -81 355 -200 240 -119 310 -159 355 -200 70 -65 168 -113
245 -122 49 -6 111 -33 364 -159 353 -177 363 -182 427 -190 28 -4 95 -29 158
-61 68 -33 137 -60 180 -68 39 -8 104 -30 146 -49 41 -20 100 -39 130 -42 31
-4 88 -23 134 -46 44 -21 104 -41 134 -45 30 -4 87 -22 126 -40 39 -18 96 -36
126 -40 29 -3 69 -13 87 -20 18 -7 56 -17 84 -20 29 -4 62 -12 75 -19 22 -11
10 -24 -280 -314 -175 -175 -321 -312 -347 -327 -25 -14 -85 -65 -135 -114
-49 -48 -105 -96 -124 -105 -19 -10 -58 -39 -85 -65 -28 -26 -69 -55 -90 -64
-22 -9 -81 -58 -135 -110 -72 -71 -115 -104 -171 -132 -41 -20 -97 -59 -125
-85 -28 -27 -69 -56 -90 -65 -21 -8 -63 -39 -94 -68 -31 -29 -93 -72 -139 -96
-45 -23 -104 -61 -130 -85 -26 -23 -85 -61 -131 -86 -46 -24 -110 -68 -143
-96 -44 -40 -109 -78 -266 -155 -157 -77 -219 -113 -258 -149 -41 -40 -128
-87 -490 -267 -305 -153 -454 -222 -487 -226 -62 -9 -80 -17 -342 -146 -159
-78 -235 -109 -273 -114 -33 -4 -98 -28 -175 -65 -80 -39 -141 -61 -177 -65
-31 -4 -90 -24 -135 -45 -46 -22 -104 -41 -136 -45 -34 -4 -84 -22 -130 -45
-43 -22 -97 -41 -129 -45 -30 -4 -91 -24 -136 -45 -44 -21 -104 -41 -134 -45
-29 -4 -62 -12 -72 -17 -10 -5 -50 -16 -90 -23 -40 -7 -93 -20 -118 -29 -58
-21 -159 -45 -235 -58 -33 -5 -76 -15 -95 -23 -19 -7 -57 -17 -83 -20 -27 -4
-68 -15 -90 -25 -23 -10 -65 -21 -94 -25 -28 -3 -67 -13 -85 -20 -18 -7 -57
-16 -85 -20 -29 -4 -72 -15 -95 -25 -24 -10 -65 -21 -93 -26 -27 -4 -59 -12
-70 -18 -11 -6 -68 -14 -126 -18 -59 -4 -117 -13 -130 -20 -13 -7 -71 -16
-129 -20 -71 -5 -121 -14 -153 -28 -32 -14 -70 -21 -111 -21 -34 0 -86 -7
-116 -16 -31 -9 -118 -20 -200 -24 -109 -5 -155 -12 -185 -26 -33 -15 -73 -20
-225 -24 -137 -4 -192 -9 -210 -20 -19 -12 -80 -16 -260 -21 -190 -4 -242 -9
-272 -22 -34 -15 -108 -17 -803 -17 -696 0 -769 2 -803 17 -30 13 -82 18 -267
22 -196 5 -236 9 -270 25 -30 14 -75 20 -185 25 -94 4 -154 12 -170 21 -17 9
-75 16 -175 20 -97 4 -159 10 -174 19 -14 8 -66 16 -115 19 -58 3 -107 12
-136 24 -29 13 -82 22 -150 27 -58 4 -114 12 -126 19 -11 6 -45 14 -75 18 -30
4 -73 15 -96 25 -22 10 -63 21 -90 24 -26 4 -63 14 -81 21 -18 7 -57 16 -85
20 -29 4 -66 12 -84 20 -18 7 -54 16 -80 20 -26 4 -67 15 -91 25 -23 10 -66
21 -95 25 -28 4 -67 13 -85 20 -18 7 -57 17 -85 20 -29 4 -71 15 -95 25 -23
10 -65 21 -94 25 -29 4 -84 22 -122 39 -39 18 -91 36 -116 40 -25 3 -108 35
-185 70 -77 35 -162 66 -190 70 -32 5 -109 36 -210 86 -115 56 -176 80 -215
85 -80 10 -932 435 -1001 499 -26 24 -84 62 -130 86 -46 23 -109 65 -139 93
-31 28 -89 68 -130 89 -41 21 -95 58 -121 82 -25 24 -66 53 -90 65 -56 28
-641 608 -671 664 -11 22 -42 62 -68 90 -26 28 -67 89 -90 135 -23 46 -64 107
-90 135 -60 63 -184 313 -195 391 -4 28 -21 82 -39 121 -18 38 -36 93 -40 122
-4 29 -15 71 -25 94 -10 24 -21 66 -25 95 -3 28 -13 68 -21 87 -22 51 -22 750
-1 801 8 19 18 56 22 82 4 26 15 67 25 91 10 23 21 66 25 95 4 28 13 67 20 86
8 19 17 59 21 90 4 34 21 84 44 129 23 46 40 96 45 131 5 43 31 105 110 264
84 170 104 220 110 269 6 56 12 66 60 119 43 46 79 109 180 311 94 189 138
266 174 305 26 28 68 91 93 140 25 48 58 99 73 113 14 14 42 50 62 80 19 30
74 96 122 145 48 50 97 108 108 130 11 22 51 69 87 105 37 36 91 101 120 145
67 102 702 736 780 780 28 16 91 67 140 115 50 48 105 95 124 105 19 9 55 36
80 60 25 23 61 50 80 60 19 10 58 39 85 65 28 26 71 58 96 70 24 12 69 46 100
74 30 29 78 66 105 84 28 17 64 45 80 63 17 17 66 49 109 71 43 22 102 61 130
88 28 26 89 67 135 90 46 23 107 63 135 90 34 32 90 67 169 105 76 37 136 74
171 106 43 40 136 90 482 264 236 119 446 229 466 246 21 16 52 32 70 35 18 3
231 104 473 224 337 168 452 220 492 225 36 5 104 32 210 84 111 54 175 80
213 85 35 5 98 28 175 65 78 37 139 60 175 65 36 5 99 28 185 70 72 35 152 66
179 70 26 4 83 22 126 41 43 18 100 36 126 40 27 4 87 24 134 45 47 21 109 41
138 44 58 7 87 18 146 54 21 13 68 28 105 34 37 5 102 26 147 47 44 21 103 41
132 45 28 3 66 13 84 20 18 7 58 17 89 20 34 4 84 22 130 45 43 22 97 41 128
45 30 4 63 12 73 17 11 6 47 15 81 20 34 5 80 16 102 24 22 8 65 17 96 20 36
4 83 20 130 44 42 21 97 41 126 45 29 4 72 15 95 25 24 10 68 21 98 25 30 4
86 22 125 40 38 18 94 36 122 40 29 4 72 15 95 25 24 10 65 21 91 25 26 4 62
13 80 20 18 8 56 16 84 20 29 4 72 15 95 25 24 10 66 21 95 25 28 3 67 13 85
20 18 7 56 16 85 20 29 4 67 13 85 21 18 8 36 14 39 15 3 0 9 -38 11 -83z
m2243 -1858 c55 -53 116 -104 135 -114 19 -10 58 -39 86 -65 27 -26 66 -55 85
-65 19 -10 57 -39 85 -65 28 -26 70 -58 95 -70 24 -12 65 -42 90 -65 25 -24
61 -51 80 -60 19 -10 59 -41 90 -69 41 -38 99 -73 225 -135 124 -61 183 -96
220 -132 53 -49 137 -94 649 -346 105 -51 206 -103 225 -114 19 -11 58 -31 85
-43 28 -13 124 -61 215 -106 91 -46 181 -91 202 -101 20 -10 62 -22 94 -25 41
-5 94 -25 178 -65 80 -39 138 -60 175 -65 34 -4 85 -22 130 -45 46 -24 95 -40
130 -45 33 -3 89 -22 136 -44 44 -22 104 -42 134 -46 30 -4 87 -22 125 -40 39
-18 94 -35 121 -39 28 -4 68 -15 91 -25 23 -10 70 -23 105 -29 79 -12 180 -37
239 -58 25 -9 78 -22 118 -29 40 -7 82 -19 93 -25 12 -6 69 -14 128 -18 58 -4
115 -12 126 -18 11 -6 43 -14 70 -18 28 -4 70 -16 95 -27 30 -14 78 -22 150
-27 58 -4 116 -13 130 -21 13 -7 67 -15 120 -18 64 -3 110 -11 140 -25 35 -16
77 -21 195 -26 85 -4 159 -12 171 -19 12 -6 47 -15 78 -18 l55 -7 -37 -43
c-40 -44 -86 -150 -97 -219 -4 -22 -16 -65 -28 -95 -21 -53 -22 -69 -22 -425
0 -358 1 -372 22 -425 19 -48 22 -78 25 -225 3 -125 7 -177 18 -195 10 -17 16
-73 21 -175 5 -118 11 -160 26 -195 24 -55 38 -130 23 -130 -6 0 -27 7 -48 16
-20 9 -75 18 -122 21 -48 2 -107 13 -135 24 -27 10 -78 23 -112 28 -34 5 -72
15 -84 22 -12 6 -61 13 -108 16 -49 3 -107 13 -136 24 -27 10 -78 23 -112 28
-34 5 -70 14 -81 20 -10 5 -43 13 -73 17 -30 3 -69 13 -87 20 -18 7 -57 17
-85 20 -29 4 -71 15 -94 25 -22 10 -63 21 -90 24 -26 4 -62 13 -79 20 -17 7
-51 16 -75 20 -24 3 -85 24 -136 45 -50 22 -116 42 -145 46 -29 4 -67 12 -85
20 -18 7 -54 16 -80 20 -27 3 -106 35 -178 70 -87 41 -149 65 -185 70 -39 5
-102 30 -213 85 -116 57 -173 80 -215 85 -86 10 -655 296 -729 365 -39 37 -97
71 -224 134 -118 58 -185 98 -218 128 -26 25 -63 53 -82 62 -19 10 -59 41 -90
70 -32 29 -93 70 -140 93 -73 36 -101 59 -209 168 -69 69 -145 137 -170 151
-60 35 -306 277 -332 328 -11 22 -62 83 -113 135 -51 52 -100 110 -110 129 -9
19 -36 55 -59 80 -24 25 -63 84 -87 130 -24 46 -65 107 -91 136 -60 66 -223
387 -233 460 -4 27 -24 88 -45 135 -22 51 -40 109 -44 145 -4 40 -19 85 -45
135 -21 42 -41 98 -45 127 -3 28 -13 67 -20 85 -7 18 -16 57 -20 85 -4 29 -15
72 -25 95 -10 24 -21 66 -25 95 -3 28 -13 68 -21 87 -8 19 -15 66 -15 103 0
65 -9 115 -26 158 -7 18 -6 19 12 5 10 -8 64 -58 119 -111z m8010 -2477 c-4
-9 -10 -64 -14 -122 -4 -60 -13 -116 -22 -130 -11 -21 -14 -94 -14 -410 0
-373 1 -387 22 -440 19 -48 22 -78 25 -225 3 -125 7 -177 18 -195 10 -17 16
-73 21 -175 4 -98 12 -162 21 -185 9 -19 18 -58 22 -87 4 -28 14 -69 23 -90 9
-21 21 -68 28 -105 l11 -68 -143 0 c-113 0 -152 4 -181 17 -29 13 -77 18 -224
21 l-187 4 -3 291 c-3 270 -5 295 -24 337 -14 30 -23 75 -26 131 -3 47 -11 97
-19 110 -7 13 -16 71 -20 129 -5 68 -14 121 -27 150 -12 29 -21 78 -24 136 -3
49 -11 101 -18 115 -8 13 -17 71 -21 129 -4 58 -14 121 -22 140 -8 19 -18 60
-21 92 -9 69 -146 356 -199 414 l-35 39 530 -3 c498 -2 530 -3 523 -20z m9390
-2441 c22 -6 72 -11 111 -11 43 0 87 -7 110 -16 21 -9 75 -18 119 -21 44 -2
103 -13 130 -24 28 -10 77 -23 110 -28 69 -11 169 -35 235 -56 25 -8 65 -17
90 -20 25 -4 68 -15 95 -26 28 -10 78 -23 112 -28 34 -5 70 -14 80 -19 10 -6
41 -13 68 -17 28 -5 69 -16 93 -26 23 -10 66 -21 95 -25 28 -4 67 -13 85 -20
18 -7 56 -17 84 -20 29 -4 88 -24 132 -45 45 -21 106 -41 136 -45 30 -4 91
-24 135 -45 44 -21 104 -41 134 -45 30 -4 87 -22 126 -40 39 -18 95 -36 125
-40 30 -4 90 -24 134 -45 45 -20 103 -41 131 -45 27 -4 104 -33 170 -65 78
-37 140 -60 175 -65 39 -5 104 -31 223 -90 125 -61 184 -85 225 -90 45 -5 115
-36 337 -146 198 -98 298 -142 340 -150 33 -6 89 -24 125 -41 69 -32 348 -171
415 -206 22 -12 123 -62 224 -111 135 -67 198 -104 238 -140 37 -34 105 -75
226 -136 121 -60 187 -100 222 -133 28 -26 88 -66 134 -89 45 -23 107 -64 136
-91 30 -26 91 -67 137 -90 47 -23 100 -57 119 -77 19 -20 54 -47 79 -62 25
-14 68 -47 96 -73 27 -25 66 -54 85 -64 19 -10 54 -36 79 -60 25 -23 68 -54
95 -70 28 -15 109 -86 180 -156 72 -70 149 -139 173 -152 59 -33 400 -372 418
-416 8 -19 77 -98 153 -176 76 -77 147 -155 156 -174 10 -19 39 -58 65 -85 26
-28 58 -71 70 -95 12 -25 44 -67 70 -95 26 -28 55 -66 65 -85 10 -19 39 -58
65 -85 26 -28 66 -88 89 -134 23 -45 63 -106 89 -135 68 -75 397 -736 407
-817 3 -31 23 -91 44 -136 21 -44 41 -102 45 -128 4 -26 13 -61 20 -79 8 -18
17 -56 20 -86 4 -30 12 -63 17 -73 6 -11 15 -47 20 -81 5 -34 18 -84 28 -112
11 -28 22 -87 24 -135 3 -47 12 -102 21 -122 24 -56 24 -571 0 -626 -12 -26
-18 -77 -22 -172 -3 -100 -9 -145 -23 -177 -10 -24 -21 -67 -25 -96 -3 -28
-23 -90 -44 -137 -21 -47 -41 -108 -45 -135 -4 -26 -22 -80 -40 -119 -18 -39
-36 -93 -40 -121 -8 -53 -26 -96 -141 -325 -128 -257 -141 -279 -187 -329 -25
-26 -64 -86 -87 -132 -23 -46 -63 -107 -90 -135 -26 -27 -55 -66 -65 -85 -10
-19 -34 -52 -55 -75 -20 -22 -50 -62 -65 -90 -16 -27 -70 -92 -120 -144 -51
-52 -100 -111 -110 -130 -24 -48 -361 -387 -410 -412 -22 -11 -101 -80 -175
-153 -74 -73 -150 -141 -169 -150 -19 -10 -58 -39 -85 -65 -28 -26 -71 -57
-95 -70 -24 -12 -65 -41 -90 -64 -25 -23 -68 -56 -96 -74 -27 -17 -65 -46 -83
-65 -18 -18 -72 -54 -119 -78 -48 -24 -112 -67 -142 -95 -41 -36 -103 -73
-226 -134 -122 -61 -184 -97 -220 -131 -42 -40 -151 -98 -660 -352 -523 -261
-618 -305 -668 -311 -32 -3 -75 -15 -95 -25 -21 -10 -95 -47 -167 -83 -93 -47
-146 -67 -187 -72 -38 -5 -94 -26 -175 -65 -78 -39 -137 -61 -173 -65 -30 -4
-91 -24 -136 -45 -44 -21 -102 -41 -128 -45 -43 -7 -176 -57 -201 -76 -5 -4
-32 -11 -60 -15 -27 -4 -65 -13 -85 -20 -19 -7 -60 -16 -90 -20 -31 -3 -90
-23 -136 -44 -44 -21 -103 -42 -130 -46 -26 -4 -64 -13 -84 -20 -19 -7 -59
-16 -89 -20 -29 -3 -72 -14 -95 -25 -22 -10 -61 -22 -86 -25 -25 -4 -61 -13
-80 -20 -19 -8 -59 -16 -87 -20 -29 -3 -72 -14 -95 -24 -24 -10 -65 -21 -91
-25 -26 -4 -63 -14 -82 -22 -19 -8 -63 -14 -97 -14 -35 0 -88 -7 -118 -16 -30
-8 -83 -20 -118 -25 -34 -5 -83 -19 -108 -29 -28 -12 -68 -20 -103 -20 -31 0
-81 -7 -111 -16 -30 -9 -102 -20 -160 -24 -67 -5 -121 -15 -150 -28 -36 -15
-76 -21 -180 -24 -95 -4 -146 -10 -172 -22 -27 -12 -67 -16 -145 -16 -72 0
-127 -6 -163 -16 -41 -13 -116 -19 -290 -24 -212 -5 -240 -8 -283 -28 l-49
-22 -973 0 -973 0 -49 22 c-44 20 -70 22 -283 27 -173 5 -241 10 -259 20 -14
7 -66 16 -115 19 -60 3 -107 12 -136 25 -35 16 -77 21 -195 26 -94 4 -159 12
-174 20 -13 7 -71 16 -130 20 -58 4 -117 13 -131 21 -13 7 -67 15 -120 18 -62
3 -110 12 -140 24 -28 12 -83 22 -145 27 -55 4 -109 12 -121 19 -11 6 -45 14
-75 18 -30 4 -73 15 -97 25 -23 10 -66 21 -95 25 -28 4 -67 13 -85 20 -18 7
-57 16 -85 20 -29 4 -68 13 -87 21 -19 8 -73 17 -120 20 -71 4 -99 11 -170 43
-47 21 -110 42 -140 46 -30 4 -74 15 -98 25 -23 10 -66 21 -95 25 -28 4 -67
13 -85 20 -18 7 -56 17 -84 20 -29 4 -88 24 -132 45 -45 21 -106 41 -136 45
-32 4 -86 23 -129 45 -46 24 -95 40 -130 45 -31 3 -90 21 -132 39 -42 18 -98
37 -125 40 -28 4 -105 35 -179 71 -87 41 -149 65 -185 70 -39 5 -102 30 -213
85 -116 57 -173 80 -215 85 -48 6 -175 66 -807 381 -587 294 -760 384 -795
417 -25 23 -104 73 -175 111 -72 38 -151 87 -177 110 -26 24 -102 71 -170 106
-67 35 -144 82 -170 106 -26 23 -69 54 -95 69 -26 15 -69 47 -94 71 -25 24
-82 63 -127 86 -56 29 -112 71 -186 139 -58 54 -123 106 -143 117 -21 10 -51
33 -68 50 -16 18 -52 46 -80 64 -27 17 -131 110 -230 205 -99 96 -200 185
-225 199 -65 37 -206 179 -242 243 -19 35 -94 120 -203 230 -95 96 -181 190
-190 209 -10 19 -39 58 -65 85 -26 28 -55 66 -65 85 -10 19 -39 58 -66 86 -29
31 -63 83 -85 129 -21 47 -56 101 -88 135 -44 48 -82 115 -229 412 -128 258
-177 368 -182 404 -4 28 -24 86 -44 131 -21 44 -41 103 -45 132 -3 28 -13 66
-20 84 -7 18 -17 57 -20 87 -4 30 -12 64 -18 75 -7 12 -15 68 -19 126 -5 71
-14 121 -28 153 -20 46 -21 65 -21 407 0 334 1 361 20 404 10 25 22 70 26 99
4 28 12 66 20 84 7 18 16 54 20 80 4 26 15 67 25 91 10 23 21 66 25 95 4 28
13 67 20 85 7 18 17 56 20 85 4 30 29 97 60 162 30 61 59 138 65 171 17 93
178 415 239 480 35 37 71 97 130 215 58 116 96 179 130 215 26 28 58 70 70 95
12 24 42 65 65 90 24 25 51 61 60 80 10 19 39 57 65 85 26 28 58 70 70 95 12
25 81 103 155 179 73 74 142 153 153 175 25 48 104 126 152 150 19 10 116 97
215 195 108 107 198 187 224 200 24 12 65 41 90 64 25 24 71 59 101 78 30 19
66 48 80 63 14 15 47 38 74 52 27 14 72 47 100 73 33 31 94 69 175 110 83 41
141 78 176 111 36 34 90 67 181 111 l129 63 225 5 c174 4 231 9 250 20 21 13
127 16 700 20 649 5 677 6 715 25 37 18 66 20 355 25 256 4 320 8 340 20 20
12 76 16 265 20 186 4 246 9 265 20 19 11 74 16 215 21 161 5 197 9 235 26 37
16 73 21 180 25 92 3 143 9 160 18 17 10 74 16 175 21 119 5 159 10 195 26 37
16 74 21 180 25 89 3 143 9 160 18 14 7 73 17 131 21 59 4 117 13 130 20 13 7
69 16 124 20 62 4 117 15 145 27 29 12 78 21 136 24 49 3 101 11 115 18 13 8
71 17 129 21 68 5 121 14 150 27 25 10 69 22 99 26 30 4 64 12 75 18 12 7 68
15 126 19 58 4 121 14 140 22 19 8 59 17 87 21 29 4 72 15 95 25 24 10 65 21
91 25 26 4 62 13 80 20 18 8 56 16 84 20 29 4 72 15 95 25 24 10 66 21 95 25
28 3 67 13 85 20 18 7 58 16 88 20 32 4 89 23 135 46 50 24 101 41 136 45 36
4 84 20 131 44 41 21 97 41 127 45 29 4 94 24 144 46 51 21 113 42 139 45 26
4 100 33 166 65 80 38 137 60 175 64 45 6 119 38 354 155 194 96 315 150 345
155 60 9 149 45 256 103 103 56 171 83 197 78 11 -2 38 -8 60 -14z m16310
-607 c-10 -22 -19 -79 -22 -129 -4 -56 -13 -107 -25 -135 -13 -29 -22 -82 -27
-150 -4 -58 -12 -114 -19 -126 -6 -11 -14 -45 -18 -75 -4 -30 -16 -74 -26 -99
-12 -28 -23 -83 -27 -145 -4 -55 -13 -110 -19 -121 -6 -12 -15 -48 -18 -80 -4
-33 -12 -73 -20 -91 -7 -18 -16 -54 -20 -80 -4 -26 -15 -67 -25 -91 -10 -23
-21 -65 -25 -94 -4 -28 -24 -88 -45 -132 -21 -45 -41 -106 -45 -136 -4 -37
-26 -92 -65 -170 -41 -81 -60 -131 -64 -170 -5 -40 -26 -94 -78 -198 l-71
-144 -192 -191 c-128 -126 -208 -198 -239 -212 -25 -12 -72 -48 -104 -79 -33
-31 -64 -56 -70 -56 -8 0 -11 61 -11 190 0 158 3 197 18 232 15 39 17 88 17
513 l0 470 -78 159 c-72 149 -83 165 -164 247 -87 89 -136 121 -208 133 -22 4
-65 17 -95 28 l-56 21 156 77 c114 57 170 79 213 84 46 6 122 40 399 178 343
170 406 206 464 260 17 16 62 45 100 65 38 19 117 59 176 89 58 30 128 74 155
97 26 24 73 59 103 79 30 19 62 43 70 53 14 17 15 17 18 -7 2 -14 -4 -43 -13
-64z m-2444 -1158 c-47 -50 -74 -91 -115 -177 -31 -64 -57 -133 -61 -162 -4
-28 -16 -70 -26 -94 -10 -24 -21 -67 -25 -96 -4 -28 -13 -68 -21 -87 -8 -19
-18 -82 -22 -140 -4 -59 -14 -116 -21 -130 -11 -18 -15 -73 -18 -200 -3 -152
-6 -182 -25 -230 -22 -54 -22 -64 -22 -520 0 -462 0 -465 23 -509 12 -25 22
-54 23 -65 0 -12 6 -41 12 -66 l12 -45 -80 -39 c-44 -21 -109 -44 -145 -51
-36 -7 -72 -16 -82 -20 -14 -6 -15 -2 -7 32 5 21 9 206 9 410 0 332 2 377 18
415 15 39 17 88 17 513 0 410 -2 475 -16 510 -9 22 -20 63 -24 90 -4 28 -22
83 -41 124 -44 96 -175 233 -283 297 -69 40 -73 44 -50 52 13 5 48 12 76 16
29 4 72 15 95 25 26 11 79 20 134 23 78 5 101 10 175 45 47 22 109 43 139 47
29 4 62 12 72 17 11 6 47 15 81 20 34 5 75 15 90 21 16 6 59 17 95 23 37 7 69
13 71 14 2 0 -24 -28 -58 -63z m-1724 -366 c-72 -77 -202 -335 -213 -420 -3
-30 -13 -71 -21 -90 -8 -19 -18 -78 -21 -130 -3 -63 -12 -110 -25 -140 -15
-35 -21 -77 -26 -190 -5 -99 -11 -153 -21 -170 -13 -21 -15 -117 -15 -635 0
-585 1 -612 20 -650 10 -22 24 -68 30 -101 l11 -62 -106 -4 c-75 -4 -118 -11
-151 -25 -36 -17 -73 -21 -185 -25 -93 -3 -147 -8 -164 -18 -14 -7 -72 -17
-130 -21 -58 -4 -122 -14 -142 -23 -42 -18 -178 -22 -178 -6 0 6 -57 124 -126
263 -100 202 -135 262 -174 302 -36 38 -68 90 -126 209 -53 107 -93 175 -124
210 -26 28 -66 89 -90 134 -24 46 -65 108 -91 136 -27 29 -67 91 -90 137 -33
66 -62 105 -134 179 -51 52 -102 116 -114 141 -12 27 -56 80 -106 129 -47 45
-97 104 -111 130 -17 31 -149 170 -383 404 l-357 356 112 0 c95 0 120 -3 161
-22 46 -22 63 -23 413 -29 304 -5 374 -9 420 -23 47 -14 93 -16 325 -14 218 2
275 6 295 18 21 13 100 16 480 20 427 5 457 7 495 25 35 17 69 21 265 26 179
4 232 9 260 22 23 11 62 16 114 17 l78 0 -55 -60z m-41501 -2809 c120 -60 184
-98 220 -132 42 -39 138 -91 545 -294 375 -186 508 -248 554 -256 33 -6 107
-34 165 -61 220 -106 248 -117 301 -124 31 -4 85 -23 128 -45 46 -24 95 -40
130 -45 31 -3 90 -21 132 -39 42 -18 98 -37 124 -41 27 -4 81 -22 122 -41 41
-19 105 -40 141 -47 37 -7 84 -20 105 -29 21 -9 62 -19 90 -23 29 -4 67 -13
85 -20 18 -7 57 -16 85 -20 29 -4 66 -12 84 -20 18 -7 54 -16 80 -20 26 -4 67
-15 91 -25 23 -10 66 -21 95 -24 28 -4 68 -12 87 -20 19 -7 55 -16 80 -20 25
-3 65 -16 90 -27 30 -14 79 -23 150 -28 103 -8 186 -25 285 -57 28 -9 95 -19
150 -24 55 -4 125 -14 155 -23 30 -9 82 -16 115 -16 43 0 75 -7 106 -22 37
-18 68 -22 194 -28 102 -4 158 -10 175 -20 18 -10 76 -16 210 -20 154 -4 192
-9 225 -24 35 -17 72 -20 275 -25 183 -5 241 -9 260 -21 21 -13 108 -15 583
-18 l558 -3 -48 -53 c-29 -32 -71 -100 -107 -172 l-60 -119 -6 -150 c-4 -105
-10 -158 -20 -175 -12 -19 -15 -62 -15 -185 0 -142 3 -166 22 -215 20 -50 22
-75 25 -270 2 -167 6 -221 18 -240 10 -17 16 -71 21 -175 4 -98 12 -162 21
-185 9 -19 18 -59 22 -87 4 -29 15 -72 25 -95 10 -24 21 -65 25 -91 4 -26 13
-62 20 -80 8 -18 16 -56 20 -84 l7 -53 -65 0 c-45 0 -79 7 -113 22 -45 21 -67
22 -333 28 -220 4 -291 8 -310 19 -17 10 -72 17 -165 21 -91 4 -149 11 -165
20 -17 9 -75 16 -175 20 -96 3 -159 10 -174 19 -13 7 -63 15 -110 18 -49 3
-107 13 -136 24 -27 10 -78 23 -112 28 -34 5 -72 15 -84 22 -13 6 -64 14 -113
16 -55 3 -111 12 -141 23 -27 11 -78 24 -112 29 -34 5 -70 14 -81 20 -10 5
-43 13 -73 17 -30 3 -68 12 -86 20 -18 7 -54 16 -80 20 -26 4 -67 15 -91 25
-23 10 -66 21 -95 25 -28 4 -88 24 -132 45 -44 21 -105 41 -135 45 -30 3 -70
13 -88 20 -18 7 -56 17 -85 20 -28 4 -84 24 -125 45 -45 23 -96 41 -130 45
-42 5 -108 32 -265 110 -159 78 -223 104 -265 110 -43 5 -100 28 -227 92 -93
47 -232 116 -309 154 -93 46 -156 85 -192 117 -33 30 -101 73 -176 112 -68 34
-143 80 -168 103 -25 23 -88 65 -140 93 -52 28 -108 65 -125 83 -16 17 -52 45
-80 62 -27 17 -86 66 -130 109 -44 42 -106 94 -138 114 -85 53 -468 433 -507
502 -18 31 -51 76 -75 102 -23 25 -50 61 -60 80 -10 19 -39 58 -65 85 -26 28
-55 68 -64 89 -8 21 -40 63 -70 95 -40 42 -71 91 -118 187 -153 309 -192 387
-257 515 -48 95 -71 151 -75 189 -6 45 -89 250 -116 286 -4 6 -10 35 -14 64
-4 30 -23 88 -41 129 l-34 73 53 -48 c37 -33 107 -74 222 -132z m14944 132
c-4 -21 -15 -56 -24 -78 -9 -22 -20 -67 -25 -100 -6 -33 -17 -85 -25 -115 -10
-34 -16 -94 -16 -161 0 -103 -1 -109 -39 -190 -22 -47 -43 -108 -46 -139 -5
-33 -21 -79 -40 -115 -47 -86 -83 -178 -90 -233 -4 -26 -24 -83 -45 -127 -23
-48 -42 -102 -45 -135 -4 -30 -13 -71 -20 -90 -7 -20 -16 -58 -21 -85 -4 -28
-16 -70 -26 -95 -12 -27 -23 -84 -28 -145 -5 -55 -15 -125 -24 -155 -12 -39
-16 -97 -16 -208 0 -122 -3 -160 -17 -190 -13 -29 -18 -77 -21 -233 l-4 -196
-71 -35 c-40 -19 -227 -112 -417 -208 -276 -138 -359 -176 -415 -186 -51 -10
-124 -40 -270 -112 -140 -69 -216 -101 -252 -106 -51 -6 -81 -17 -178 -61 -27
-12 -76 -27 -107 -33 -32 -6 -91 -27 -131 -45 -41 -19 -96 -38 -123 -42 -27
-4 -78 -20 -114 -37 -36 -16 -92 -34 -125 -39 -33 -5 -82 -18 -110 -28 -62
-24 -162 -49 -240 -62 -33 -5 -82 -18 -110 -28 -27 -11 -70 -22 -95 -26 -25
-3 -65 -12 -90 -20 -96 -31 -179 -47 -275 -55 -65 -5 -116 -15 -145 -28 -25
-11 -65 -24 -90 -27 -25 -4 -60 -13 -79 -21 -18 -8 -67 -14 -107 -14 -72 0
-74 1 -74 25 0 13 8 44 18 67 15 37 17 78 17 288 0 228 -2 249 -22 300 -14 35
-23 86 -26 141 -3 47 -10 97 -18 110 -7 13 -16 72 -20 130 -4 59 -13 117 -20
130 -7 13 -16 69 -20 124 -5 62 -15 117 -27 145 -12 29 -21 79 -24 140 -3 52
-13 111 -21 130 -8 19 -18 60 -21 90 -5 38 -30 101 -83 210 l-76 155 -124 126
-124 127 48 7 c26 4 57 12 68 18 11 6 67 14 125 18 58 4 121 14 140 22 19 8
59 18 89 21 30 4 64 12 75 18 12 7 68 15 126 19 68 5 121 14 150 27 25 10 67
22 93 26 26 4 62 13 80 20 18 8 56 16 84 20 29 4 72 15 95 25 24 10 66 21 95
25 28 3 67 13 85 20 18 7 56 16 85 20 28 4 67 13 85 20 18 7 57 16 85 20 29 4
72 15 95 25 24 10 65 21 92 25 27 4 90 25 140 46 50 21 111 42 136 45 25 4 77
22 115 39 39 18 98 36 130 40 39 4 86 20 135 45 44 22 98 41 130 45 30 4 91
24 136 45 46 22 106 41 138 45 39 5 91 25 171 65 74 38 132 61 167 65 49 7
285 110 423 186 28 15 75 31 105 34 63 8 177 61 710 330 190 96 348 175 351
175 4 1 3 -16 -1 -36z m-5720 -1706 c0 -2 -27 -56 -60 -122 -41 -82 -61 -136
-66 -174 -4 -31 -14 -74 -23 -96 -14 -35 -16 -104 -16 -560 0 -443 2 -524 15
-545 11 -19 16 -73 21 -215 5 -161 9 -197 26 -235 11 -25 23 -71 27 -102 5
-42 31 -104 100 -245 l93 -188 -46 -14 c-53 -16 -131 -20 -462 -23 l-237 -3
-4 140 c-4 112 -9 149 -25 185 -13 30 -22 76 -25 136 -3 49 -11 101 -18 113
-6 13 -16 53 -21 90 -5 36 -18 89 -28 116 -12 31 -21 85 -24 141 -2 49 -10
101 -17 115 -8 13 -17 69 -21 124 -4 62 -15 117 -27 145 -12 28 -21 79 -25
135 -3 50 -12 106 -20 125 -8 19 -18 60 -21 90 -4 30 -24 91 -45 136 -21 44
-41 102 -45 128 -10 67 -31 111 -75 159 -21 23 -46 58 -56 77 -10 19 -62 81
-117 136 l-100 102 174 4 c152 3 179 7 218 25 41 20 64 22 265 25 171 2 226 6
245 18 17 10 71 16 170 21 99 4 156 11 180 22 30 14 90 23 90 14z m7419 -3268
c47 -79 881 -912 937 -935 22 -9 80 -56 134 -109 52 -51 111 -100 130 -110 19
-9 78 -60 131 -111 56 -55 114 -102 140 -113 24 -11 60 -36 79 -56 19 -20 58
-50 85 -68 28 -17 73 -52 101 -77 28 -25 89 -65 137 -89 47 -24 101 -60 119
-79 18 -18 53 -45 78 -60 25 -14 68 -47 96 -73 28 -26 89 -66 135 -89 46 -24
108 -65 137 -91 38 -35 100 -72 208 -125 111 -54 172 -90 215 -129 47 -42 115
-81 316 -181 194 -96 270 -140 313 -178 48 -42 162 -103 651 -348 509 -255
602 -298 653 -304 46 -6 95 -26 234 -97 219 -111 317 -153 378 -163 26 -4 102
-33 168 -65 82 -40 137 -60 175 -64 34 -4 88 -22 136 -45 45 -22 104 -42 135
-46 35 -5 96 -28 174 -65 81 -39 137 -60 175 -65 31 -3 70 -12 88 -20 18 -7
54 -16 80 -20 26 -4 67 -15 91 -25 23 -10 66 -21 95 -25 28 -3 88 -23 132 -45
45 -21 104 -41 135 -45 30 -3 70 -13 88 -20 18 -7 57 -16 85 -20 29 -4 66 -12
84 -20 18 -7 54 -16 80 -19 26 -4 67 -15 89 -25 23 -11 66 -22 95 -26 30 -4
70 -13 89 -21 19 -8 76 -17 125 -20 53 -3 110 -12 140 -23 28 -11 78 -24 112
-29 34 -5 72 -15 85 -22 13 -8 84 -16 168 -20 84 -4 168 -13 200 -23 30 -9 82
-16 115 -16 43 0 75 -7 106 -22 37 -18 68 -22 194 -28 102 -4 158 -10 175 -20
18 -10 76 -16 210 -20 155 -4 191 -8 225 -25 36 -17 71 -20 365 -25 264 -4
330 -8 350 -20 22 -13 129 -15 805 -15 758 0 781 1 825 20 41 18 73 20 360 25
254 4 320 8 340 20 19 11 72 16 215 20 138 4 197 10 215 20 17 10 74 16 175
21 119 5 159 10 195 26 37 16 74 21 180 25 92 3 143 9 160 18 17 10 74 16 175
21 118 5 160 10 195 26 29 13 76 22 136 25 49 3 101 11 115 18 13 8 72 17 130
21 59 4 116 12 128 18 11 7 47 16 78 22 32 5 81 18 108 29 29 11 87 20 140 23
50 3 106 12 125 20 19 8 59 17 87 21 29 4 72 15 95 25 24 10 66 21 93 26 28 4
59 12 70 18 11 6 67 14 125 18 58 4 121 14 140 22 19 8 59 17 87 21 29 4 72
15 95 25 24 10 68 21 98 25 30 4 91 24 136 45 44 21 102 41 128 45 26 4 61 13
79 20 18 8 55 16 84 20 28 4 67 13 85 20 18 7 57 16 85 20 29 4 72 15 95 25
24 10 68 21 98 25 30 4 91 24 136 45 44 21 102 41 128 45 27 4 83 22 126 40
43 18 100 36 128 40 28 4 66 13 84 20 18 7 58 16 88 20 38 5 93 26 180 70 85
43 142 65 179 70 34 4 104 30 181 65 72 33 150 62 179 66 36 5 116 39 259 110
161 79 221 104 266 109 49 7 151 54 647 302 484 243 597 303 641 343 33 30 99
72 177 110 80 41 142 80 175 110 33 32 97 72 183 115 72 37 153 86 180 110 26
23 66 53 88 66 22 14 63 46 92 72 28 25 87 63 130 84 61 29 99 57 173 129 52
51 109 100 126 108 l30 15 -13 -74 c-7 -41 -17 -82 -22 -92 -5 -10 -13 -43
-17 -73 -4 -30 -15 -73 -25 -97 -10 -23 -21 -65 -25 -94 -4 -29 -22 -84 -40
-122 -18 -39 -35 -93 -39 -121 -5 -31 -39 -114 -91 -220 -59 -122 -85 -187
-90 -225 -9 -77 -255 -573 -317 -639 -24 -25 -74 -104 -111 -176 -38 -71 -88
-151 -112 -176 -23 -26 -61 -84 -84 -130 -23 -46 -61 -104 -85 -129 -24 -25
-55 -65 -68 -89 -14 -24 -66 -88 -116 -141 -50 -54 -100 -115 -112 -136 -13
-22 -62 -79 -109 -129 -48 -49 -95 -106 -105 -125 -24 -48 -540 -566 -590
-592 -22 -11 -83 -62 -135 -113 -52 -51 -115 -103 -140 -115 -25 -13 -85 -62
-135 -110 -49 -48 -105 -95 -123 -105 -19 -9 -59 -40 -91 -69 -33 -30 -90 -68
-134 -89 -45 -22 -101 -59 -137 -92 -33 -30 -66 -55 -75 -55 -8 0 -43 -27 -77
-59 -51 -47 -95 -74 -221 -136 -116 -57 -172 -90 -215 -129 -49 -45 -132 -90
-592 -318 -398 -198 -548 -268 -585 -273 -42 -6 -341 -136 -380 -165 -5 -4
-35 -11 -66 -14 -37 -5 -95 -26 -175 -65 -73 -35 -140 -61 -171 -65 -47 -6
-182 -55 -207 -75 -6 -5 -33 -12 -61 -15 -27 -4 -86 -23 -130 -41 -44 -18
-100 -37 -125 -40 -24 -4 -64 -16 -88 -26 -24 -11 -54 -19 -66 -19 -12 0 -46
-7 -76 -16 -30 -8 -84 -20 -119 -25 -35 -6 -82 -19 -105 -29 -23 -10 -63 -21
-89 -25 -26 -3 -62 -12 -80 -19 -18 -8 -56 -17 -86 -20 -30 -4 -63 -12 -73
-17 -11 -6 -47 -15 -81 -20 -34 -5 -84 -18 -112 -29 -30 -11 -87 -20 -140 -23
-49 -3 -106 -12 -125 -20 -19 -8 -59 -18 -89 -21 -30 -4 -72 -16 -95 -27 -32
-15 -61 -19 -146 -19 -67 0 -126 -6 -160 -16 -30 -9 -100 -19 -156 -24 -55 -4
-112 -14 -125 -21 -15 -8 -79 -16 -169 -20 -111 -5 -155 -11 -185 -25 -35 -17
-74 -20 -315 -25 -229 -4 -281 -8 -312 -22 -34 -16 -106 -17 -843 -17 -736 0
-809 1 -843 17 -30 14 -77 18 -257 20 -192 4 -225 7 -262 24 -24 10 -49 19
-57 19 -42 0 -45 10 -21 64 13 29 26 75 30 102 4 27 15 68 25 90 11 23 22 66
26 95 4 30 13 70 22 89 10 23 16 79 19 170 3 109 8 146 26 190 22 55 22 59 22
735 0 676 0 680 -22 735 -12 30 -25 75 -28 100 -4 25 -23 78 -41 119 -29 64
-53 93 -161 203 -132 134 -173 161 -258 173 -28 4 -68 15 -90 24 -59 24 -187
21 -245 -6 -25 -12 -65 -25 -90 -28 -81 -13 -123 -42 -252 -173 -103 -104
-132 -141 -162 -202 -20 -41 -41 -79 -46 -85 -21 -25 -70 -159 -76 -208 -4
-29 -15 -71 -25 -94 -10 -22 -21 -63 -24 -90 -4 -26 -14 -64 -22 -83 -8 -19
-18 -82 -22 -140 -4 -58 -13 -116 -21 -129 -7 -14 -15 -66 -18 -115 -3 -60
-12 -106 -25 -136 -17 -38 -21 -74 -26 -240 -5 -147 -10 -201 -21 -220 -12
-21 -15 -77 -15 -325 0 -262 2 -305 17 -342 18 -42 17 -43 -2 -43 -12 0 -37 7
-58 16 -20 9 -77 18 -127 21 -53 3 -110 12 -140 23 -27 11 -78 24 -112 29 -34
5 -70 14 -80 19 -10 6 -40 13 -68 17 -27 3 -68 12 -90 20 -22 8 -62 18 -90 23
-27 5 -72 18 -100 27 -27 10 -55 19 -62 21 -8 2 -3 23 17 67 16 35 32 88 36
118 4 30 13 70 21 89 8 19 17 76 20 125 4 60 13 105 26 135 19 41 22 71 27
325 4 224 8 285 20 305 13 21 15 94 15 490 0 454 -1 466 -22 520 -12 30 -24
77 -28 103 -3 26 -12 62 -19 80 -8 18 -17 57 -20 86 -4 30 -23 89 -42 130 -29
63 -53 93 -157 198 -127 130 -179 164 -267 178 -24 4 -65 17 -90 28 -30 14
-67 20 -115 21 -68 0 -75 -2 -230 -79 -152 -76 -165 -85 -263 -180 -115 -111
-165 -193 -178 -294 -4 -30 -22 -87 -40 -125 -18 -39 -35 -93 -39 -121 -4 -27
-16 -70 -27 -95 -14 -30 -22 -78 -27 -150 -4 -58 -14 -116 -21 -130 -10 -17
-15 -71 -18 -164 -4 -116 -8 -148 -26 -185 -20 -45 -21 -60 -24 -533 l-3 -488
-25 0 c-14 0 -98 36 -187 79 -115 56 -178 82 -217 87 -41 5 -109 34 -263 110
-159 78 -221 104 -265 110 -43 5 -99 28 -227 92 -93 47 -255 127 -360 179
-104 51 -206 102 -225 113 -19 12 -77 41 -129 65 -60 29 -113 63 -146 94 -38
36 -97 72 -216 131 -104 53 -180 98 -209 124 -25 23 -104 73 -175 111 -72 37
-151 87 -176 111 -26 23 -87 63 -135 87 -49 25 -102 60 -119 77 -16 18 -55 48
-85 68 -30 19 -76 54 -101 78 -26 23 -68 54 -95 67 -27 14 -62 39 -79 56 -16
18 -52 46 -80 63 -27 17 -90 71 -140 118 -49 48 -110 97 -135 110 -26 13 -104
80 -185 160 -77 76 -158 147 -180 158 -49 25 -386 363 -410 412 -10 19 -77 96
-150 170 -72 74 -144 157 -160 184 -15 28 -45 68 -65 90 -21 23 -45 56 -55 75
-10 19 -39 58 -65 85 -26 28 -58 71 -70 95 -12 25 -44 67 -70 95 -31 33 -70
94 -110 175 -41 81 -79 143 -110 175 -68 72 -304 544 -314 628 -5 42 -29 100
-90 225 -52 105 -86 187 -91 218 -4 28 -11 58 -17 68 -5 10 -14 46 -19 80 -5
34 -16 80 -24 102 -7 22 -16 64 -20 94 -3 29 -14 72 -25 95 -10 22 -22 61 -25
86 -4 25 -12 54 -18 65 -6 11 -14 67 -18 125 -5 69 -14 121 -27 150 -15 36
-21 76 -24 180 -4 95 -10 146 -22 172 -12 29 -16 70 -16 186 0 133 2 153 22
193 19 38 23 65 26 189 l4 145 92 -95 c51 -52 107 -120 125 -151z"/>
</g></g></svg>