<svg xmlns="http://www.w3.org/2000/svg" width="1000" height="1000" viewBox="0 0 1000 1000"><path fill="#141413" d="m527.5 118.5-1.2.5c-.7.2-1.8.3-7.1.4-5 0-6.4.2-6.8.4s-1.5.3-4.3.4c-3.3.1-4 .2-4.8.6s-1.3.4-4 .4q-3.1 0-4.1.3c-.6.2-2.4.4-4 .5a11 11 0 0 0-3.8.5q-.9.5-2.7.5l-2.3.4q-.6.3-3.5.4-3 0-3.5.4l-2.5.4q-1.9.2-2.9.6t-2.8.4l-2.4.4q-.6.3-2.6.4-2.1.2-3 .6-1 .3-2.7.5-1.7 0-2.5.4l-1.8.4-1.5.3c-.2.2-1.3.3-2.4.4a10 10 0 0 0-2.9.6l-2 .5-1.5.3q-.5.3-2.5.4-2.1.2-3 .6l-1.9.5q-.9 0-1.6.4l-1.6.4q-1 0-1.7.4l-1.7.4q-1 .1-2 .5l-1.8.5q-1 0-1.7.4l-1.8.4q-1 .1-1.9.5l-1.8.5q-.9 0-1.6.4l-1.6.4q-1 0-1.7.4l-1.8.4c-.6 0-1.8.5-2.7.9l-2.5.9q-1 0-1.7.4l-2 .4q-1.1 0-2.5.9-1.5.7-2.6.9c-.5 0-1.7.4-2.6.8s-2.3.9-3 1l-2.7 1-2.6.8c-.6 0-1.8.4-2.6.8l-2.5.8q-1.1.1-3.7 1.4a17 17 0 0 1-3.6 1.4 31 31 0 0 0-7 3q-2.4 1.3-3.5 1.4a26 26 0 0 0-7.5 3.3l-3.6 1.8-7.5 3.7-4.5 2.2-4.4 2.2-4.4 2.2-2.2 1.1q-1.5.9-2.6 1.8-1 .9-4.2 2.5t-4.3 2.7c-.7.6-2 1.4-2.9 1.8s-2 1.2-2.5 1.7l-1.6 1.2-1.7 1.3q-1.1 1-2.8 1.8-1.8.9-2.9 1.9t-1.8 1.4c-.4.2-1.6 1.2-2.6 2.2s-2.2 2-2.6 2.2-1.5 1.1-2.5 2.1q-1.7 1.7-2.8 2.3a303 303 0 0 0-25 25.9l-1.3 1.7q-1 1-1.4 2l-1.4 1.8-1.3 1.7-1.3 1.7-1.8 2.7a75 75 0 0 0-7.5 13.3 100 100 0 0 0-11.6 28.5 8 8 0 0 0-.9 3.8l-.4 2.6q-.3.5-.4 3.1c0 2-.1 2.8-.5 3.7s-.4 1.4-.4 8.6c0 7.4 0 7.5.5 8.5q.4 1 .4 2 0 1.2.3 2.3l.5 2.4.6 2.1c.8 1.8 1.4 1.7-7.3 1.7-6.4 0-7.9.2-8.3.4q-.4.3-3.5.4c-2.4.1-3.2.2-3.9.5a8 8 0 0 1-2.6.5l-2.2.4c-.3.2-1.5.3-2.6.4l-2.6.4q-.6.3-2.6.4-2.1.2-3 .6l-1.9.5q-1 0-1.4.4l-2.5.3q-2.1.2-3 .6l-2 .5c-.5 0-1.3.2-1.6.4l-1.7.4q-1 0-1.7.4l-1.7.4q-1 .1-2 .5l-1.9.5c-.6 0-1.8.5-2.7.9q-1.5.7-2.6.9l-1.6.4-1.8.4q-1.2 0-2.7.9c-.8.4-2 .8-2.5.9-1 .1-3.7 1-4.2 1.5l-1.3.3q-1.1.1-2.5.8l-2.5.8q-1.1.1-3.7 1.4c-1.4.7-3 1.3-3.5 1.4q-1.7.3-5 2.1c-1.5.7-2.3 1-3.3 1.2-1.1.2-2.1.6-4.7 1.9a18 18 0 0 1-4.3 1.8c-1.2.1-3.4 1-4.7 1.8l-.9.5-10.5 5.2-9.4 4.7c-5 2.5-6.7 3.4-7.6 4.2q-1 1-4.5 2.7a20 20 0 0 0-4.5 2.7q-1.2 1.2-3.5 2.2t-3.3 2c-.6.6-1.8 1.4-2.6 1.8s-2 1.2-2.5 1.7-1.4 1.2-1.9 1.4q-.9.5-1.9 1.4l-1.7 1.3-1.6 1.2q-1 .9-2 1.5t-1.7 1.4q-.6.6-1.6 1.1c-.5.3-1.8 1.3-2.8 2.3s-2.1 1.9-2.5 2.1-2.4 2-4.5 4c-2 2-4.2 3.9-4.7 4.1-1.2.8-5.8 5.5-6.4 6.6q-.5 1-4.8 5.2a42 42 0 0 0-4.8 5.2 18 18 0 0 1-2.4 3c-1 1-2 2.1-2.1 2.4q-.2.6-1.1 1.5t-1.4 2l-1.5 2c-.5.5-1.3 1.7-1.7 2.4-.4.8-1.1 1.9-1.6 2.4l-1.8 2.7-1.8 2.7c-.8.9-1.9 3-6.9 12.9a80 80 0 0 0-6.7 15 8 8 0 0 0-1.3 3.5q-.2 1.3-.8 2.5l-.7 1.2V509c0 30.2 0 40 .2 40.3s.3 1.3.4 2.4l.4 2.5q.3.6.4 2.6.1 2.1.6 3l.5 1.9q0 1 .4 1.4l.3 2.5q.1 2.1.6 3l.5 2q0 1 .4 1.6L5 574q0 1 .4 1.7l.4 1.7q.1 1 .5 2l.5 1.8q0 .9.4 1.6l.4 1.6q.1 1 .5 2l.5 1.8q0 1 .4 1.7l.4 1.7q0 1 .4 1.7l.4 1.8q0 1.2.9 2.6.7 1.5.9 2.6t.9 2.8l.9 2.8q0 1.2.9 2.6.7 1.5.9 2.6 0 1 1.6 4.3l1.7 3.4c.6.8 1.8 3.6 1.9 4.6.2 1.7 4.7 10.6 6 12.1q1 1.2 2.3 3.5a21 21 0 0 0 2.2 3.6q1 1 1.3 1.8l2.1 2.4a182 182 0 0 0 22.7 21.9l1.8 1.3q1 .6 2 1.5c.6.5 1.7 1.3 2.5 1.7s2 1.2 2.6 1.7 2 1.5 3.2 2l3.5 1.9q1.2.6 2.3 1.6a90 90 0 0 0 20 9.5 17 17 0 0 0 4.4 1.7q1 .1 3.5 1.3 2.3 1.2 3.5 1.3t2.6 1q1.6.6 2.7.8l2.6.8q1.4.6 2.3.8l1.9.5 2.2.6c1.6.2 3.6.7 4.8 1.2l2.2.6a41 41 0 0 1 6.6 1.5q1 .1 1.9.6.9.3 3 .5 2 0 2.6.4l2.3.4a9 9 0 0 1 2.7.4q.9.4 3 .6 2 0 2.6.4l2.6.4q2 .1 2.6.4.4.3 4.2.4c3 0 3.8.2 4.5.5s1.4.4 5.5.5a261 261 0 0 0 31 .7 261 261 0 0 0 31.9-.7c5-.1 5.7-.2 6.4-.5s1.4-.4 4.5-.5a12 12 0 0 0 4.2-.4 12 12 0 0 1 3.5-.4c2.4-.1 3.2-.2 3.9-.5.7-.4 1.5-.5 3.6-.5q2.7-.1 3.2-.4t3.4-.4q2.8 0 3.4-.4l2.6-.4q2.1-.1 3-.6l1.9-.5q1 0 1.4-.4l2.5-.3q2.1-.1 3-.6l2-.5 1.5-.3q.5-.3 2.5-.4t2.8-.5l1.7-.4q1-.1 2-.5l1.8-.5q.9 0 1.6-.4l1.6-.4q1-.1 2-.5l1.9-.5q1.1-.1 2.5-.8l2.4-.8q1-.1 2-.5l1.8-.5q1-.1 2.6-.9l2.7-.9q1.1-.1 2.5-.8l2.5-.8q1.1 0 3.8-1.4l3-1.3q.8 0 0 1.7l-.6 2.1c0 .7-.3 1.8-.5 2.4q-.3 1.1-.3 2.2a5 5 0 0 1-.4 2.1c-.5 1-.5 1.2-.5 6.9s0 6 .5 6.9q.4 1 .4 2 0 1.2.3 2.3l.5 2.4q.2 1.2.6 2l.5 1.9q0 .9.4 1.6l.4 1.7c0 .6.5 1.8.9 2.7l.9 2.7q0 1.2 1.3 3.5l1.3 3.4c.2 1.2 1.2 3.5 3.8 8.6 2 4 2.4 4.6 3.4 5.7l2.3 4q1.7 3.3 2.6 4.3t1.5 2l1.4 1.9 1.6 2.4q.7 1.5 2.5 3.3c1 1 2 2.2 2.2 2.7s1.3 1.8 2.3 2.8 2 2.2 2.2 2.6 1.5 2 3 3.4a113 113 0 0 0 15 15.5q.9.4 4.5 4a50 50 0 0 0 6.9 6.1c1 1 2.2 2 2.7 2.2q1 .5 2 1.4l1.6 1.3 1.7 1.3q1 1 2 1.4l1.5 1.1 1.7 1.3 1.8 1.4 1.7 1.3 1.8 1.4c.5.5 1.7 1.2 2.6 1.7l2.7 1.8 2.7 1.8 2.7 1.8a22 22 0 0 0 4.3 2.6q3.3 1.6 4.3 2.6c.9.8 4.2 2.5 19.1 10a174 174 0 0 0 23.7 11c2.4 1.1 3.6 1.6 4.5 1.7q1 .1 3.3 1.2c1.2.6 2.7 1.2 3.3 1.3s2.3.7 3.7 1.4 3 1.2 3.6 1.3c.5 0 1.7.5 2.7 1l2.7.8c.5 0 1.7.5 2.6 1l2.7.8q1 .1 1.8.4.6.3 1.7.4c.5.1 1.7.5 2.6 1l2.7.8q1 .1 1.8.4.6.4 1.7.4l1.8.5 1.8.5q1 .1 1.7.4t1.7.4 1.7.4l1.6.4q1 .1 1.7.5l2 .5 1.9.4q.6.3 1.7.4l1.9.5q1 .4 2.9.6c1.1 0 2.2.2 2.4.4l1.5.3q1 .1 1.8.4c.4.2 1.5.4 2.5.4q1.8.2 2.7.5.9.4 3 .6 2 0 2.6.4l2.4.4q2 0 2.8.5c.7.3 1.5.4 3.8.5q2.8 0 3.4.4.5.3 3.5.4 3 0 3.5.4c.4.2 1.4.3 4 .4 3.1 0 3.6 0 4.4.5.8.3 1.3.4 5.6.5a184 184 0 0 0 28.3.7 197 197 0 0 0 27.9-.7c4.9-.1 5.6-.2 6.3-.5s1.4-.4 4.6-.5q4 0 4.3-.4.5-.3 3.4-.4c2.2-.1 3.1-.2 3.8-.5q.9-.5 2.7-.5l2.3-.4c.3-.2 1.5-.3 2.6-.4l2.6-.4q.6-.3 2.6-.4 2.1-.1 3-.6l2-.5 1.5-.3q.5-.3 2.5-.4 2.1-.1 3-.6l1.9-.5q.9 0 1.6-.4l1.6-.4q1 0 1.7-.4l1.7-.4c.5 0 1.8-.5 2.7-.9l2.8-.9q1-.1 1.9-.5l1.8-.5q.9 0 1.6-.4l1.7-.4c.6 0 1.8-.5 2.7-.9l2.7-.9c.6 0 1.8-.5 2.7-.9q1.5-.7 2.6-.9c.6 0 2-.6 3.3-1.2q2.2-1 3.4-1.2 1 0 4.4-1.8a18 18 0 0 1 6.1-2.2 1251 1251 0 0 0 29.8-15.3q1-1 3.5-2.2 2.6-1.2 3.5-2.2 1-1 2.7-1.8l2.6-1.7 1.6-1.2 1.7-1.3c.5-.5 1.8-1.3 2.7-1.8a15 15 0 0 0 3.5-2.6c1-1 2.2-2 2.7-2.3l2.8-2.3a221 221 0 0 0 25.5-26.5 10 10 0 0 0 1.7-2.5c.5-1 1.3-2.2 1.8-2.7l1.3-1.7q.4-.8 1.4-1.8t2.7-4.5 2.6-4.4a106 106 0 0 0 10.3-21.5c1.3-2.6 1.7-3.6 1.8-4.5q.2-1.2 1.2-3.4c.6-1.2 1.1-2.6 1.2-3.1s.5-1.8 1-2.7q.6-1.6.8-2.8l.5-2 .5-1.8q.1-1 .4-1.7t.4-1.7l.4-1.6.4-1.6q.1-1 .5-1.8l.5-2 .4-1.7c.2-.4.4-1.6.5-2.6q0-1.9.4-2.8t.6-3q0-2 .4-2.6.3-.5.4-3.4 0-2.9.4-3.4c.2-.4.3-1.5.4-4.2 0-3 .2-3.8.5-4.5s.4-1.4.5-6.3c0-4.4.2-5.6.4-6s.3-2.4.4-13.1c.1-12 .1-12.6.5-13.4.3-.7.4-1.4.5-5.5 0-3.4.2-4.8.4-5.2l.4-2.6c0-1.1.3-2.3.4-2.6q.3-.5.4-3.2c0-2.1.1-2.9.5-3.6.3-.8.4-1.5.5-4.7 0-2.1.2-4 .3-4.1q.1-.3 1-.5l1.7-.5c.6-.2 1.7-.3 7-.4 5 0 6.4-.2 6.8-.4s1.4-.3 4.3-.4q4 0 4.3-.4l2.6-.4q2.1-.1 3-.6a9 9 0 0 1 2.7-.4l2.3-.4 1.7-.4 2.2-.6 2.8-.5c1 0 2.1-.2 2.5-.4l1.8-.4c.6 0 1.8-.5 2.7-.9q1.5-.7 2.6-.9 1-.2 2.6-.9l2.7-.9c.6 0 1.7-.4 2.5-.8l2.5-.8q1 0 5.3-2.1a122 122 0 0 0 8.9-4.5l9.2-4.6a25 25 0 0 0 6.6-3.8c.5-.5 1.6-1.2 2.5-1.6q1.5-.8 2.6-1.7l1.8-1.4 1.7-1.3 1.8-1.4c.5-.3 2.2-1.8 3.7-3.2 1.6-1.4 3.2-2.9 3.7-3.1a60 60 0 0 0 10-10.6q1.7-1.5 2.3-2.6c.3-.6 1-1.6 1.5-2.1a12 12 0 0 0 1.7-2.6q.8-1.6 1.8-2.7c1.3-1.5 4.8-8.4 5-10q.2-1.2 1.3-3.5 1.2-2.4 1.3-3.5.1-1 .4-1.7l.4-1.6.4-1.6c.3-.6.3-12.3.3-70.6v-70l-3.6-7.2a45 45 0 0 0-7.4-12l-1.3-1.8-1.2-1.6-1.7-2.3a291 291 0 0 0-25.8-24.8l-1.7-1.3-1.7-1.3-1.7-1.3-1.8-1.3q-.9-.4-1.8-1.3l-1.7-1.3-1.5-1.1c-.9-.8-3.6-2.6-4-2.6q-.4-.1-1.5-1-1.2-1.1-2.8-2c-1-.5-2.2-1.3-2.7-1.8q-1-1-3.5-2.2-2.3-1.2-3.5-2.2-1-.9-4.5-2.7-3.4-1.7-4.5-2.7c-.8-.7-2.7-1.7-8.7-4.7a40 40 0 0 0-10.1-4.6q-1-.1-7-3.1c-4.6-2.3-6.2-3-7.1-3.1q-1-.1-3.5-1.3a13 13 0 0 0-3.5-1.3q-1-.1-3.5-1.3a14 14 0 0 0-3.5-1.3c-.6-.1-1.8-.5-2.7-1l-2.7-.8q-1-.2-2.6-1a9 9 0 0 0-2.6-.8q-1-.1-1.8-.4l-1.6-.4c-.6-.1-1.8-.5-2.7-1l-2.7-.8-1.7-.4-1.6-.4-1.9-.5-1.9-.5-1.7-.4q-.6-.3-1.7-.4l-1.7-.4q-.6-.4-1.7-.4l-1.9-.5q-.9-.4-3-.6-2 0-2.5-.4l-1.5-.3-2-.5a10 10 0 0 0-2.9-.6c-1.1 0-2.2-.2-2.5-.4l-2.6-.4-2.6-.4q-.4-.3-3.3-.4c-2.3 0-3-.1-3.7-.5-.8-.3-1.4-.4-5.6-.5a310 310 0 0 0-33.8-.4q-.6.3-2.6.4-2.1.2-3 .6a9 9 0 0 1-2.8.4c-1.8.2-1.8.2-5.3 1.9-2.9 1.4-3.6 1.8-4.3 2.7l-1 1v-1.3l-.5-2c-.3-.6-.3-2-.3-9.9 0-8.3 0-9.3.4-10 .3-.8.3-2 .3-15.7a101 101 0 0 0-1.8-24.4l-.3-1.4-.4-1.6-.5-2-.4-1.9-.5-1.9-.5-1.7q-.1-.9-.4-1.6t-.4-1.8q0-1.2-1.3-3.5-1.1-2.4-1.3-3.5a72 72 0 0 0-9-17.2q-1.4-2.7-2.3-3.7l-1.3-1.7-1.3-1.7c-.5-.5-1.1-1.4-1.4-1.9q-.4-.9-1.3-1.8t-1.5-2a367 367 0 0 0-21.2-20.7l-1.9-1.4q-1-.6-2-1.5l-1.8-1.4-1.4-1q-.6-.6-1.6-1.2l-1.7-1.3q-1.6-1.5-4.8-3-1.6-.7-2.8-1.8a58 58 0 0 0-10.5-5.7 145 145 0 0 0-23-10.6c-2-.9-3.8-1.6-4.4-1.7l-2.6-1-2.7-.8c-.6-.1-1.8-.5-2.7-1l-2.7-.8-1.7-.4-1.6-.4-1.9-.5-1.9-.5-1.7-.4q-.6-.3-1.7-.4l-1.9-.5-1.9-.5-1.7-.4q-.6-.3-1.7-.4l-1.6-.4-1.6-.4-1.9-.5q-.9-.5-3-.6l-2.6-.4-2.4-.4q-1.9 0-2.8-.4-1-.4-2.9-.6c-1.1 0-2.2-.2-2.5-.4l-2.6-.4-2.6-.4q-.5-.3-3.1-.4c-2.1 0-2.8-.1-3.5-.5a14 14 0 0 0-4.8-.5c-3 0-4-.2-4.4-.4s-1.7-.3-6.9-.4c-5.9-.1-6.5-.1-7.2-.5s-1.2-.4-19-.4zm42 39.6c.7.3 1.7.4 5.3.5 3.8 0 4.6.2 5.3.5.6.3 1.5.4 3.8.5q3 0 3.5.4l2.5.4c1 0 2.2.2 2.5.4q.6.2 2.3.3l2.8.5 2.2.6q1.2.1 1.7.4.6.2 2.2.3l2.7.5 2.2.6q1.1.1 1.7.4l1.4.3 1.8.4 1.6.4c.6.1 1.8.5 2.7 1l2.6.8 1.9.5 1.9.5q1 .2 3.4 1.3t3.5 1.3 3.5 1.3 3.5 1.3a80 80 0 0 1 12.5 5.8 88 88 0 0 1 17.8 10.3q1.1 1 2.8 1.8c.9.4 2 1.1 2.3 1.5q.7.8 1.6 1.2l1.8 1.4 1.7 1.3 3 2.5 2.8 2.3a130 130 0 0 1 13.1 13.7l1.4 1.8 1.3 1.7 2 3.2q1.1 2.5 2.1 3.5 1.8 2 2.1 4.2.1 1.2 1.3 3.4 1.1 2.4 1.3 3.4 0 1 .4 1.7l.4 1.7q.1 1 .5 2l.5 1.8q0 1 .4 1.4l.3 3.4q.1 3 .5 3.7c.4 1 .4 3 0 4a11 11 0 0 0-.5 3.4c0 2-.1 2.9-.4 3.6a8 8 0 0 0-.5 2.7c-.1 1.5-.2 2-.8 3.3-.4.8-.7 1.9-.8 2.4q-.1.9-.5 1.9l-.6 2.2q-.1 1.3-1.3 3.4a10 10 0 0 0-1.2 3.3c-.2 1.4-1.7 4.4-2.8 5.6q-.8.7-3.1 5.3a39 39 0 0 1-5.8 9c-.5.5-1.3 1.7-1.8 2.6q-.7 1.6-2.7 3.6l-2.2 2.7-2.1 2.5a179 179 0 0 1-29 27.2c-1.4 1.4-2.3 2-3.6 2.7l-2.7 1.8-1.8 1.4-1.7 1.3q-1 .9-2.5 1.6-1.6.6-2.6 1.7-1 1-3.5 2.2-2.4 1.2-3.5 2.2-.9.9-4.5 2.7-3.5 1.7-4.5 2.7c-.5.5-1.4 1.1-1.8 1.3l-4.7 2.4-8.9 4.4-4.4 2.2c-3.6 2-7.3 3.7-8.3 3.8-.8 0-2 .6-4.5 1.8a18 18 0 0 1-4.5 1.8c-.8 0-2 .6-4.5 1.8q-3.4 1.6-4.4 1.8c-.5 0-1.6.4-2.4.8l-2.6.8c-1 .1-3 .9-3.8 1.5l-1.5.3q-1.3 0-2.9.9-1.5.7-2.6.9c-.5 0-1.8.5-2.8.9a24 24 0 0 1-5.6 1.6l-2.2.6-2 .5c-.5 0-1.7.5-2.6.9q-1.6.7-2.6.9l-1.6.4-1.6.4q-1 0-1.7.4l-1.7.4q-1 .1-2 .5l-1.9.5-1.5.3q-.5.3-2.5.4-2.1.1-3 .6l-1.9.5q-.9 0-1.6.4l-1.7.4-1.5.3q-.5.3-2.5.4-2.1.2-3 .6a9 9 0 0 1-2.7.4l-2.3.4q-.6.3-2.6.4-2.1.2-3 .6a9 9 0 0 1-2.7.4l-2.3.4q-.6.3-3.5.4-3 0-3.5.4-.4.3-4.3.4c-3.2.1-4 .2-4.6.5-.7.4-1.4.4-6.3.5-4.6.1-5.6.2-6.2.5s-2 .3-13.4.3-12.7 0-13.4-.3c-.6-.3-1.6-.4-5.2-.5-3.9 0-4.6-.2-5.3-.5s-1.4-.4-4.7-.5c-2.9 0-4-.2-4.4-.4q-.4-.3-3.2-.4a9 9 0 0 1-3.6-.4 10 10 0 0 0-3-.6q-2 0-2.6-.4l-2.5-.4-2.4-.4-1.5-.3-2-.5-1.9-.5-1.7-.4a7 7 0 0 0-2.4-.4q-1.7-.1-2.7-.5l-2.2-.6q-1.1-.1-1.7-.4l-1.4-.3q-1-.1-1.7-.4l-1.6-.4-2.6-1-2.7-.8c-.6-.1-1.8-.5-2.7-1-.9-.3-2.2-.8-3-.9q-1.2-.1-2-.6c-1.1-.7-1.8-1-3.2-1.2-1-.1-2.1-.6-4.4-1.8a13 13 0 0 0-4.4-1.7c-1-.1-2.5-.8-10.8-5-8.1-4-9.8-5-10.7-5.8q-1.2-1-3.5-2.2a14 14 0 0 1-3.3-2l-1.8-1.4-1.8-1.4-1.8-1.3-1.8-1.3q-.9-.8-1.6-1.2t-1.8-1.4l-1.8-1.4a251 251 0 0 1-18.4-18.8c-.5-.5-1.3-1.7-1.8-2.7l-1.8-2.7c-.8-1-1.5-2.1-3.2-5.6a31 31 0 0 1-3-7.8q-.7-1.4-.9-2.5c0-.5-.3-1.4-.5-1.8q-.3-1-.4-2.8a41 41 0 0 1 .5-18.5l.5-2.2q.1-1.2.4-1.7.2-.4.3-1.5l.5-2 .5-1.8q.1-1 1.7-4.2 1.5-3.1 1.7-4.2c.2-1.5 1.8-4.8 3-6.1q1-1 2.6-4.3 1.5-3.1 2.5-4.2c.6-.6 1.4-1.8 1.8-2.7s1.3-2.2 1.8-2.7q1-1 1.4-2l1.4-1.8 1.3-1.7c.2-.4 1.5-2 3-3.4l3-3.5a137 137 0 0 1 15.4-14.9c1.5-1.5 3.1-3 3.5-3.1s1.5-1.1 2.5-2.1q1.7-1.7 2.8-2.3l1.9-1.4q.9-.8 1.6-1.2l1.7-1.3q.9-.9 1.8-1.3.7-.3 1.9-1.4t2.6-1.8q1.6-.6 2.6-1.7c.6-.5 1.8-1.3 2.6-1.7s2-1.2 2.5-1.7q.9-1 4.5-2.7a119 119 0 0 1 20.3-11c12.4-6.3 15-7.5 16-7.6.8-.1 2-.6 5.2-2.2 3-1.5 4.5-2 5.3-2.2q1.1-.1 3.7-1.4 2.7-1.3 3.8-1.4t3.4-1.3 3.3-1.3c.6 0 1.8-.5 2.7-.9q1.5-.7 2.6-.9a16 16 0 0 0 4.2-1.5l1.3-.3q1.1-.1 2.5-.8l2.5-.8c.6 0 1.8-.5 2.7-.9q1.6-.7 2.7-.9a9 9 0 0 0 2.6-.9c.8-.4 2-.8 2.5-.9q1 0 1.7-.4l1.7-.4q1-.1 2-.5l1.9-.5c.6 0 1.8-.5 2.7-.9q1.5-.7 2.6-.9l1.6-.4 1.7-.4q1 0 1.8-.4l1.7-.4q.9-.1 1.8-.5l1.9-.5q1 0 1.4-.3l1.7-.4 2.2-.6 2.7-.5q1.7 0 2.4-.4l1.8-.4q1 0 1.4-.3l1.7-.4 2.2-.6 2.8-.5q1.7 0 2.3-.3t2.6-.4q2.1-.2 3-.6t2.7-.5q1.7 0 2.3-.3.7-.3 2.5-.4l2.5-.4q.5-.3 4.3-.4c3.3-.1 4-.2 4.8-.6 1-.4 1.2-.4 5.3-.4 3.7 0 4.4 0 5-.3s2.3-.3 17.2-.3c15 0 16.5 0 17.2.3m190 157.2q1.8 1.6 2.4 3c.4.8 1.2 2 1.7 2.6l1.8 2.8c1.1 2 3 4 4.1 4.3l2 .5 1.9.5c.4.1 3.7.2 7.5.2 5.8 0 6.8 0 7.5.3.5.3 1.5.4 4.2.4 3 .1 3.6.2 4.4.5q.8.4 3 .6 2 .1 2.6.4.5.3 3.3.4c2.2 0 3 .1 3.7.4q1 .4 2.9.6c1.1 0 2.2.2 2.4.4l1.5.3q1 .1 1.8.4c.4.2 1.5.4 2.5.4q1.8.2 2.6.5l2 .5 1.7.4q.6.4 1.7.4l1.9.5 1.8.5 2.5.8c.8.4 1.9.7 2.4.8l1.8.5 2 .5 1.7.4 1.6.4c.6.1 1.8.5 2.7 1l2.7.8c.6.1 1.8.5 2.7 1l2.7.8q1.1.2 3.5 1.3a13 13 0 0 0 3.5 1.3q1 .2 3.2 1.2 2.2 1.1 3.6 1.4c1.3.2 2.4.7 7.2 3.2 4.7 2.3 6 2.9 7 3s2.2.7 7.3 3.2c3.7 1.9 6.5 3.4 6.9 3.8 1 1 2.5 1.8 6.3 3.7q3.5 1.8 4.4 2.6l2.7 1.8 2.7 1.8 2.7 1.8 2.7 1.8 1.7 1.3 1.7 1.3q1 1 2 1.4c.4.2 2 1.6 3.5 3.1s3 2.8 3.4 3a65 65 0 0 1 10.4 10.8c1 1 2 2.2 2.3 2.7q.5 1 1.4 2l1.2 1.6 1.3 1.7 1.3 1.7 1.3 1.7c.8.8 1.7 2.5 5 9A59 59 0 0 1 960 428l.4 1.7q.1 1 .5 2c.4.8.4 1.4.4 5.4s0 4.6-.4 5.4l-.5 2a84 84 0 0 1-8.7 16.2 133 133 0 0 1-14.9 14.1l-1.8 1.4-2.7 1.8-2.7 1.8q-1 1-3.8 2.4l-6.5 3.2a62 62 0 0 1-11.4 4.8 11 11 0 0 1-3.4 1.3 6 6 0 0 0-3 1q-1 .5-2 .7c-.7.1-1.7.3-2.1.5l-1.8.4q-.9.1-1.8.5l-1.9.5c-.6 0-1.9.5-2.8.9-1.4.6-2 .8-3.4.9q-1.7 0-2.4.4l-1.7.4q-1 0-1.7.4l-1.8.4-1.5.3q-.5.3-2.5.4a10 10 0 0 0-3 .6c-.8.3-1.4.4-3 .4q-2.1 0-3.2.3c-.6.2-2.4.4-4 .5-2.2.1-3.1.2-3.7.5s-1.5.4-5.4.5a126 126 0 0 1-24.9.8H808l-1-.4c-.8-.4-1.4-.5-4.7-.6q-4 0-4.3-.4-.5-.3-3.5-.4-3 0-3.5-.4-.5-.3-3.2-.4a9 9 0 0 1-3.6-.4 10 10 0 0 0-3-.6q-2 0-2.6-.4l-2.3-.4h-1.8l-5.4-2.7a33 33 0 0 1-6.4-3.7 181 181 0 0 0-28.3-13.7 26 26 0 0 0-6.1-2.6c-1.1-.1-1.6-.3-7.1-3.1q-.8-.4-2-.5-1-.1-3.5-1.3-2.4-1.2-3.5-1.3t-2.6-1a9 9 0 0 0-2.6-.8c-.6-.1-1.8-.5-2.7-1l-2.6-.8c-.5 0-1.4-.3-1.8-.4l-2-.5q-1.2-.1-2-.6a7 7 0 0 0-3.2-1.2q-1.2-.1-1.7-.4l-2.2-.4H687l.4-.5q.6-.6 2.3-1.4l2.8-1.9 1.7-1.3 1.7-1.3 1.7-1.3 1.7-1.3q1-.9 1.9-1.4l1.8-1.3q.9-.8 1.6-1.2c.4-.2 2-1.6 3.5-3.1a232 232 0 0 0 22-21.8l1.4-1.9 1.4-2q.8-.7 1.2-1.5.4-.7 1.4-1.8t1.4-2l1.3-1.7q1-1 2.2-3.5t2.2-3.5c.8-.8 1.7-2.5 4.7-8.5 4.3-8.5 4.6-9.3 4.8-10.7q.2-1.1 1.3-3.4c1.1-2.3 1.2-2.8 1.3-3.4 0-.5.3-1.4.5-1.8l.5-2 .4-1.7q.3-.6.4-1.7l.4-1.7q.4-.6.4-1.7l.5-1.9q.4-.9.6-3 .1-2 .4-2.6.3-.5.4-3.1c0-2.2.1-2.8.5-3.5.4-.9.4-1 .4-10.2s0-9.3-.4-10.4c-.4-.9-.5-1.6-.5-3.7q-.1-2.6-.4-3.1l-.4-2.6a9 9 0 0 0-.6-3q-.3-1-.5-2.6 0-1.6-.4-2.4l-.4-1.8q-.1-1.2-.5-2.1l-.4-1.4c0-.5 0-.5 1.2.2zm-44.2 21a13 13 0 0 0-.5 4.5 13 13 0 0 1-.5 4.5q-.3.9-.5 2.9 0 2-.3 2.5t-.4 1.4l-.5 1.9-.5 1.9-.4 1.7q-.3.6-.4 1.7l-.4 1.7q-.3.6-.4 1.7-.2 1-1.4 3.5-1.3 2.6-1.5 3.8c-.1 1-.8 2.5-3.6 8a46 46 0 0 1-6 10.4l-1.8 2.7-1.3 1.7-1.3 1.7q-1 1-1.4 2l-1.4 1.8-1.3 1.7c-.2.4-2 2.3-3.9 4.3a31 31 0 0 0-4 4.6 33 33 0 0 1-6.5 6.4l-3.7 3.2-3.4 3c-.4.2-1.6 1.2-2.6 2.2s-2.3 2-2.8 2.3q-.9.4-1.8 1.3t-2.1 1.6-1.6 1.3l-1.2.8-1.8 1.4c-.5.5-1.7 1.3-2.7 1.8q-1.5.8-2.7 1.8-1 .9-3.5 2.2c-1.4.7-2.9 1.6-3.5 2.2q-1 .8-5.2 3t-5.2 3c-1.5 1.4-14.7 8-16.3 8.3-1.1.1-4.7 1.7-8.9 4q-2 1-3.5 1.2-1.4.3-3.7 1.4-2.2 1-3.2 1.2-1.2.1-3.4 1.3-2.4 1.1-3.5 1.3c-.6 0-1.8.5-2.7.9q-1.5.7-2.6.9-1 .1-2 .5l-1.8.5c-.5 0-1.6.4-2.4.8l-2.5.8c-.6 0-1.6.3-2.1.5-1.2.5-3.2 1-4.9 1.2-.7.1-2 .6-3 1-.8.4-2 .8-2.5.9q-1 0-1.3.3l-1.8.5-2.4.6a21 21 0 0 1-5.5 1.1q-2 .2-2.9.5l-2 .6q-1 0-1.6.4l-1.8.4-1.5.3q-.5.3-2.5.4-2.1.2-3 .6a9 9 0 0 1-2.7.4l-2.3.4q-.6.3-2.6.4a10 10 0 0 0-3 .6 9 9 0 0 1-3.6.4q-2.7.1-3.2.4t-3.5.4q-3 0-3.5.4-.4.3-4.4.4c-3.5.1-4 .2-4.8.6s-1.2.4-4.7.4c-3 0-4 0-4.9.3q-1.1.4-3.6.4l-2.6.1v-7.2a35 35 0 0 0-.8-10.5 10 10 0 0 0-.6-3.1 9 9 0 0 1-.4-2.7l-.4-2.3q-.3-.6-.4-2.6-.1-2.1-.6-3-.3-1-.5-2.7 0-1.7-.4-2.5l-.4-1.7q0-1-.4-1.7l-.4-1.8q-.1-1.1-1.1-3.2-1-2-.7-2l.9-.4 3.6-.4c2.2-.1 3.1-.2 3.8-.5q.9-.5 2.7-.5l2.3-.4q.6-.3 2.6-.4 2.1-.2 3-.6t2.8-.4l2.4-.4 2.6-.4q2.1-.1 3-.6l1.9-.5q1 0 1.4-.4l2.5-.3 2.6-.4 1.5-.4 2.2-.6 2.8-.5q1.7 0 2.5-.4l1.7-.4q1-.1 2-.5l1.8-.5q.9 0 1.6-.4l1.6-.4q1 0 1.7-.4l1.7-.4q1-.1 2-.5l1.8-.5q1 0 1.7-.4l1.7-.4q1-.1 2-.5l1.8-.5q.9 0 1.6-.4l1.7-.4c.6 0 1.8-.5 2.7-.9q1.5-.7 2.7-.9l1.6-.4 1.7-.4q1-.1 2-.5l1.8-.5q1-.1 2.5-.8 1.5-.6 2.5-.8c.6 0 1.8-.5 2.7-.9l2.8-.9q1.2 0 2.6-.9 1.5-.7 2.6-.9c.6 0 1.8-.5 2.7-.9l2.7-.9c.6 0 1.8-.5 2.7-.9q1.5-.7 2.6-.9c.5 0 1.6-.4 2.5-.8q1.5-.6 2.5-.8c1-.1 4-1.4 6.4-2.7q1.4-.8 2.5-.9c1-.1 6.4-2.5 8.3-3.6q.8-.5 2-.7l2-.5a2043 2043 0 0 0 43.7-22.2q1.2-1 3.5-2.2c1.3-.7 2.8-1.6 3.4-2.1.5-.5 1.7-1.3 2.5-1.7s2-1.3 2.6-1.8q1.1-1.1 2.9-1.9 1.6-.7 2.7-1.8c.6-.5 1.8-1.3 2.6-1.7s2-1.2 2.5-1.7 1.4-1.1 1.9-1.4 1.7-1.2 2.7-2.2 2.3-2 2.8-2.4q1-.6 1.6-1.2t1.4-1l1.8-1.4 2-1.5a94 94 0 0 0 8.9-8.4l8-7.8zM247.8 353l.4 2.1q.3.6.4 2.5t.6 2.9q.3 1 .4 2.8c.1 1 .2 2.1.4 2.4l.4 1.7.6 2.2.5 2.7q0 1.7.3 2.2c.2.3.3 1.5.4 2.6l.4 2.6.4 1.5.6 2.2.5 2.8c0 1 .2 2.1.4 2.5l.4 1.7q.1 1 .5 2l.5 1.9q0 1 .3 1.5c.2.2.3 1.3.4 2.4s.3 2.3.5 2.7l.4 1.8c0 .6.5 1.8.9 2.7l.9 2.7c0 .5.3 1.4.5 1.8l.5 1.9q0 .9.4 1.6l.4 1.8q0 1.2 1.3 3.6c.6 1.3 1.2 2.8 1.3 3.4.2 1.3.7 2.4 4.8 10.6a54 54 0 0 0 8.6 13.7c.2.4 1.2 1.6 2.2 2.6s2 2.3 2.4 2.9a154 154 0 0 0 40 32.4c.8.8 2.2 1.6 7 4s6.2 3.2 7.1 4a10 10 0 0 0 5 2.4c.9.1 2.1.7 7.2 3.2 7 3.5 7.3 3.6 8.5 3.8.6 0 2 .6 3.2 1.2q2.2 1 3.6 1.4t3 1c.7.4 2 .7 2.5.8.6 0 1.8.5 2.7 1q1.5.6 2.7.8l2.5.8c.8.4 2 .7 2.5.8q1 .1 1.8.4l1.6.4 1.5.4c.5.2.2.5-5.6 6.3a94 94 0 0 1-9.6 8.8c-1 1-2.1 2-2.5 2.1l-1.7 1.3c-.5.5-1.4 1.1-1.8 1.3s-1.6 1.1-2.7 2.2q-2 1.9-3.4 2.6c-.8.4-2 1.2-2.5 1.7q-1 1-1.8 1.3l-1.9 1.4-2.8 1.9-2.6 1.7c-.5.5-1.7 1.2-2.6 1.7s-2.2 1.4-2.8 2c-1 .7-2.2 1.5-5.4 3a23 23 0 0 0-5.1 3 53 53 0 0 1-9.8 5.4c-6.1 3-9.1 4.4-9.8 4.5-1.2.2-1.6.3-6.8 2.9a25 25 0 0 1-5.5 2.3q-1 0-3.5 1.3-2.4 1.2-3.5 1.3c-.6 0-1.8.5-2.7.9q-1.6.7-2.7.9a9 9 0 0 0-2.6.9q-1.5.7-2.6.9c-.6 0-1.8.5-2.7.9l-2.7.9q-1 0-1.4.3l-1.8.5-2.4.6c-1.2.4-3.2.9-4.7 1.1l-1.9.5-1.7.4q-.9.1-1.8.5l-1.8.5q-1 0-1.7.4l-1.7.4q-1 .1-2 .5l-1.8.5q-1 0-1.4.4l-2.5.3-2.6.4q-.6.3-2.6.4a10 10 0 0 0-3 .6q-1 .4-2.3.4t-2.3.3c-.6.2-2.4.4-4 .5-2.2.1-3.1.2-3.7.5s-1.5.4-4.5.5c-2.7 0-3.8.2-4.2.4s-1.6.3-5.2.4a92 92 0 0 1-21.5.8 92 92 0 0 1-16-.3 18 18 0 0 0-5.4-.5c-4 0-4.7-.2-5.4-.5-.6-.3-1.5-.4-3.7-.5q-2.8 0-3.4-.4-.5-.3-3.5-.4-3 0-3.5-.4l-2.3-.4a9 9 0 0 1-2.7-.4q-.9-.5-3-.6c-1.2 0-2.3-.2-2.5-.4l-1.5-.3-2-.5-1.7-.5q-1-.1-1.7-.4t-1.7-.4l-1.6-.4-1.6-.4-1.9-.5-1.9-.5-1.7-.4q-.6-.4-1.7-.4l-1.9-.5-1.8-.5-2.5-.8q-1.4-.6-2.3-.8c-.5 0-2.2-.7-3.7-1.4s-3.2-1.3-3.8-1.4q-1-.2-4.2-1.7a157 157 0 0 1-29.7-15.3l-2.6-1.8-2.4-1.6-1.8-1.3a156 156 0 0 1-14.8-15l-1.8-2.8-1.8-2.7a25 25 0 0 1-3.9-7.8q-.1-1-.8-2.4l-.8-2.5c0-.5-.3-1.4-.5-1.8l-.5-2q0-1-.4-1.7c-.4-1-.4-15 0-16l.4-1.6.5-1.9.5-1.9.4-1.7q.4-.7.4-1.8.2-1.1 1-2.6.6-1.4.8-2.6c.1-.8.6-2 2.2-5.3 1.7-3.4 2.1-4.4 2.2-5.3.1-1.2.3-1.4 1.2-2.4s1.6-2.2 3.6-6.2a29 29 0 0 1 3.5-6.1l1.9-2.8q.8-1.7 1.4-2.3l1.3-1.6c.3-.6 1.4-2 2.4-2.9 1-1 2-2.2 2.2-2.6s1-1.4 1.7-2.1 1.8-2 2.4-2.9A166 166 0 0 1 99.3 412q1-.6 1.6-1.2t2.2-1.4l2.6-1.8 2.7-1.8 2.7-1.8q1-.9 3.4-2.1 2.3-1.1 3.4-2.1c.8-.8 2.7-1.8 9.6-5.3a154 154 0 0 0 10.7-5.6c.4 0 4.7-2.1 9.5-4.5 6.7-3.4 9-4.4 9.8-4.5q1.1-.1 4.2-1.7 3.3-1.5 4.3-1.7 1.1 0 3.5-1.3 2.4-1.1 3.5-1.3 1.1 0 3.7-1.4l3.6-1.4q1-.1 2.5-.8c.9-.4 2-.7 2.5-.8.6 0 1.8-.5 2.7-.9l2.8-.9a6 6 0 0 0 2.9-1l2-.7c.8-.1 2.1-.6 3-1q1.5-.7 2.7-.9l1.6-.4 1.8-.4a9 9 0 0 0 2.6-.9q1.5-.7 2.6-.9 1 0 1.4-.3l1.7-.4 2-.5q.8-.3 2-.4 1 0 2.5-.9l2.5-.9q1-.1 2-.5l1.9-.5q1.1-.1 2.5-.8l2.4-.8q1-.1 2-.5l1.8-.5q.9 0 1.6-.4l1.6-.4q1-.1 2-.5l1.8-.5q1 0 1.7-.4l1.7-.4q1 0 1.7-.4l.8-.3zm44.9 37.1c1.1 1 2.3 2.1 2.7 2.3l1.7 1.3 1.7 1.3 1.7 1.3q1 1 2 1.4l1.7 1.3q.9.8 1.6 1.2t1.8 1.4c.8.7 2 1.4 4.5 2.7 2.5 1.2 3.7 1.9 4.4 2.6 1 1 2.8 1.9 13 7l6.2 3 4.3 2.2 4 2q.8.4 2 .5 1 .1 3.5 1.3 2.4 1.2 3.5 1.3t2.6 1q1.5.6 2.6.8c.6 0 1.8.5 2.7.9l2.7 1q1.1.1 2.5.7c.8.4 1.9.7 2.4.8q1 .1 1.8.5l2.1.6c1.6.2 3.6.7 4.8 1.1l2.4.6 1.8.5 2.6.4c1.1 0 2.3.2 2.5.3q.5.3 1.4.4 1 .1 1.9.5t3 .6q2 0 2.6.4l2.4.4q2 0 2.8.5c.7.3 1.5.4 3.9.5a16 16 0 0 1 5 .7l1 .2-.7.8c-.8.9-1.7 3-1.9 4.4 0 .4-.3 1.3-.6 1.9-.4 1-.4 1.4-.4 8.5 0 7.2 0 7.4.4 8.5s.5 1.6.5 4.5c.1 2.5.2 3.5.4 3.9q.3.5.4 3.5c.1 2.4.2 3.2.5 3.9.5 1.1.8 2.6.5 2.6l-1-.3a7 7 0 0 0-2.4-.4q-1.7-.1-2.7-.5l-2.2-.6q-1.2-.1-1.7-.4-.6-.2-2.2-.3l-2.7-.5-2.2-.6q-1.1-.1-1.7-.4l-1.4-.3-1.8-.4q-.6-.4-1.7-.4l-1.8-.5-1.8-.5q-1-.1-1.6-.4l-1.5-.4c-.5 0-1.7-.5-2.7-.9l-3-1-1.6-.3-1.6-.4c-.6 0-2.2-.7-3.6-1.4q-2.6-1.2-3.7-1.4-1-.1-4.3-1.7a76 76 0 0 1-18.9-9c-.7-.8-1.9-1.4-4.4-2.7q-3.5-1.7-4.4-2.6-.9-.8-1.6-1.2t-1.8-1.4q-1.2-1-2.8-1.9c-1.5-.7-2-1.1-4.2-3.3l-3.4-3c-1.2-.7-6.1-5.6-6.6-6.6-.3-.4-1.3-1.7-2.3-2.7s-2-2.2-2.2-2.6l-1.2-1.6-1.7-2.6-1.8-2.7a37 37 0 0 1-5.6-11.9q-.7-1.7-.9-2.9 0-1.2-.9-2.7c-.4-.8-.8-2-.9-2.5q0-1-.4-1.7l-.4-1.7q-.1-1-.5-2l-.5-1.8q0-1-.4-1.8-.3-.8-.3-2 0-1.9-.5-3.2-.3-.6.2-.1zm160.2 49.6-.3 2.4q0 2-.4 2.6a38 38 0 0 0-.3 8.2c0 7.5 0 7.7.4 8.8.4 1 .5 1.6.5 4.5.1 2.5.2 3.5.4 3.9q.3.5.4 3.5a16 16 0 0 0 .9 5.4q.1 1 .4 1.8l.6 2.1.2 1.4H453c-2.3 0-3 0-3.7-.3-.5-.3-1.5-.4-4.4-.5H441v-5.9c-.1-5.4-.1-5.9-.5-6.7q-.5-1-.5-2.6l-.4-2.2q-.3-.6-.4-2.6-.1-2.1-.6-3a9 9 0 0 1-.4-2.7l-.4-2.3q-.3-.6-.4-2.6t-.5-2.8l-.4-1.8c-.2-1.4-2.9-7.2-4-8.3l-.7-.8h10.6c10 .1 10.6.1 10.5.5m187.8 48.8 2.2.2 2.2.3a7 7 0 0 0 2.4.4q1.5.1 2.6.5l2.2.6c1.4.2 3.4.7 4.7 1.1l1.8.4q1 .1 1.9.5l2.2.6q1.2.1 1.6.4l1.4.3 1.9.5 1.9.5 1.7.4 1.6.4c.6.1 1.8.5 2.7 1l2.7.8c.6.1 1.8.5 2.7 1q1.5.6 2.7.8l2.5.8q1.4.6 2.5.8a8 8 0 0 1 2.7 1l2.6.8 3.4 1.3q2.4 1.2 3.5 1.3c.8.1 2 .6 4.5 1.8s3.6 1.7 4.5 1.8 2.3.7 6.7 3a41 41 0 0 0 9.3 3.8 400 400 0 0 1 17.5 9.1q1 1 4.6 2.7a20 20 0 0 1 4.4 2.7l2.7 1.8c.9.4 2.1 1.2 2.7 1.8l2.7 1.8q1.6.8 2.4 1.5l1.6 1.3q1 .5 2 1.4l1.6 1.3 1.6 1.2q.9.8 1.9 1.4a27 27 0 0 1 3.6 3.1l3.5 3c1.1.7 8 7.5 8.3 8.4.2.4 1.6 2 3 3.5a30 30 0 0 1 4.5 5.2q1 1 1.4 1.9.5.9 1.4 1.9l1.3 1.7 1.3 1.7c.5.5 1.3 1.7 1.8 2.7q.8 1.5 1.8 2.7a102 102 0 0 1 10.3 23.2l.4 1.7q0 1 .3 1.4l.4 1.7.6 2.2.5 2.7q0 1.6.4 2.4a55 55 0 0 1-.5 16q0 2.8-.4 3.5l-.5 2c0 .5-.5 1.8-.9 2.7l-.9 2.7c0 .5-.4 1.6-.8 2.4l-.8 2.4c-.2 1-.5 2-2.8 6.5a25 25 0 0 1-3.8 6.6c-.5.5-1.2 1.7-1.7 2.6s-1.3 2.2-1.8 2.7l-1.3 1.7-1.1 1.5-1.3 1.8c-.3.6-1.4 1.9-2.4 2.9s-2 2.2-2.2 2.6a67 67 0 0 1-11.7 11.3 28 28 0 0 1-5 4.3l-2 1.4q-.9.4-1.8 1.3L771 695l-1.7 1.3-2.3 1.5c-1 .5-2.3 1.4-2.9 2-.8.6-2 1.4-4.5 2.6q-3.5 1.8-4.4 2.6c-.8.8-3 2-13.2 7a81 81 0 0 1-15.3 6.8l-3.3 1.6q-2.7 1.4-3.7 1.5-1.2 0-3.5 1.3-2.4 1.2-3.5 1.3c-.6 0-1.8.5-2.7.9q-1.5.7-2.6.9c-.8.1-3.5 1.1-4 1.5l-1.2.3q-1 .1-1.7.4l-1.8.4c-.6 0-1.8.5-2.7.9q-1.5.7-2.6.9-1 .1-1.7.4l-1.8.4-1.9.5-1.7.5q-.9.1-1.6.4l-1.7.4q-1 .1-2 .5l-1.8.5q-.9.1-1.6.4t-2 .3l-2.3.3-2.4.5-2.1.6q-1 .4-2 .4-1.2 0-2.3.3c-.6.2-2 .4-3.2.5q-2 .1-3 .6a9 9 0 0 1-3.6.4q-2.8.1-3.4.5-.7.3-3 .3l-3.2.3c-.8.3-2.3.4-5.8.5-4.2.1-4.8.2-5.7.6l-1 .4h-38.9l-1-.4c-.8-.4-1.3-.5-5.6-.6-3.5 0-4.8-.2-5.2-.4l-2.3-.4q-1.8 0-2.7-.5c-.7-.3-1.5-.4-3.9-.5a14 14 0 0 1-3.5-.4l-2.6-.4a7 7 0 0 1-2.6-.4l-2.4-.4q-1.9 0-2.8-.4-1-.4-2.9-.6c-1.1 0-2.2-.2-2.4-.4l-1.5-.3-2-.5-1.9-.5-1.7-.4q-.6-.3-1.7-.4l-1.7-.4a7 7 0 0 0-2.4-.4c-1.4-.1-2-.3-3.4-.9l-2.8-1q-1 0-2-.4l-1.9-.5-1.7-.4-1.6-.4c-.6-.1-1.8-.5-2.7-1l-2.7-.8q-1-.2-2.6-1-1.5-.6-2.6-.8c-.6 0-1.8-.4-2.6-.8s-2-.7-2.5-.8c-.6 0-2.1-.7-3.6-1.4q-2.6-1.2-3.7-1.4-1-.1-4.3-1.7a158 158 0 0 1-46.8-24.2c-1.3-.7-2.8-1.7-3.3-2.1l-2-1.4-1.8-1.4-2.6-1.8q-1.5-.7-3.7-2.7a23 23 0 0 0-4.2-3.4l-1.6-1.3c-.5-.3-2.6-2.2-4.6-4-2-2-4-3.8-4.5-4a20 20 0 0 1-4.8-4.9q-.8-1.2-4.1-4.6a41 41 0 0 1-6.4-7.6l-1.3-1.7q-1-1-1.7-2.6t-1.8-2.7a43 43 0 0 1-4.6-8.2 51 51 0 0 1-4.5-10.7q-.7-1.5-.9-2.7l-.4-1.6-.4-1.8-.3-1.5q-.3-.5-.4-2.5a10 10 0 0 0-.6-3c-.4-1-.4-1.4-.4-8.2s0-7.2.4-8l.5-2 .4-1.7.4-1.6.5-1.9.5-1.9.4-1.7q.3-.5.4-1.7.2-1 1.2-3.2c.6-1.2 1.2-2.8 1.3-3.4.4-1.9 3.6-8.3 4.8-9.6q1-1 2.6-4.3a19 19 0 0 1 2.6-4.3q1-1 1.4-2l1.3-1.7q.8-.9 1.2-1.6l1.3-1.7q1-1 1.4-2c.2-.4 1.6-2 3.1-3.5l3-3.5c.6-1 2.1-2.5 3.1-3 .4-.2 2.3-2 4.3-3.9a35 35 0 0 1 6.3-5.3q1-.9 2-1.5l1.6-1.3q.6-.6 1.5-1l2-1.5q1-1 3.5-2.2a15 15 0 0 0 3.5-2.2q1-1 3.6-2.2l2.6-1.3 4.5-.1a102 102 0 0 1 19-.8c13-.1 13.5-.1 14.3-.5.7-.4 1.3-.4 7.1-.5a26 26 0 0 0 6.8-.4c.4-.2 1.5-.3 5.3-.4 3.7 0 5-.2 5.3-.4.4-.2 1.5-.3 4.3-.4 3.2-.1 4-.2 4.7-.5.7-.4 1.5-.5 3.6-.5q2.7-.1 3.2-.4t3.5-.4c2.4-.1 3.2-.2 3.9-.5.7-.4 1.5-.5 3.6-.5a11 11 0 0 0 3.2-.4l2.6-.4 2.6-.4 2.5-.4a10 10 0 0 0 2.9-.6 9 9 0 0 1 2.7-.4l2.3-.4q.6-.3 2.6-.4 2.1-.1 3-.6l2-.5 1.5-.3q.5-.3 2.5-.4t2.8-.5l1.7-.4q1-.1 2-.5l1.8-.5q.9 0 1.6-.4l1.6-.4q1-.1 2-.5l1.8-.5q1 0 1.7-.4l1.8-.4a7 7 0 0 0 2.7-.9q1.6-.7 2.7-.9 1.2 0 2.6-.9 1.5-.7 2.6-.9c.6 0 1.9-.5 2.9-.9l2.7-.9c.6 0 2-.7 3.4-1.3q2.4-1.2 3.5-1.3c.9-.1 2.3-.7 7-3q6-3 7-3.2 1.8-.3 5-2 3.2-1.8 4-1.6zm326.2 12.1q-.4 1-.4 2.6-.2 1.7-.5 2.7-.4.9-.6 3 0 2-.4 2.5l-.3 1.5-.5 2a10 10 0 0 0-.6 2.9c0 1.1-.2 2.2-.4 2.4l-.3 1.6-.4 1.8-.4 1.6-.5 1.9-.5 1.8c-.1.6-.5 1.8-1 2.7l-.8 2.7q-.1 1-1.3 3.4-1.2 2.3-1.3 3.4 0 1-1.6 4l-1.4 2.8-3.8 3.9a31 31 0 0 1-4.8 4.2q-1 .5-2 1.6l-1.5 1.1q-.2 0-.2-3.8c0-3.2 0-4 .4-4.6.3-.8.3-1.8.3-10.3v-9.4l-1.6-3.2c-1.4-3-1.6-3.3-3.2-5-1.8-1.7-2.8-2.3-4.2-2.6q-.8-.1-1.9-.5l-1.1-.5 3.1-1.5c2.3-1.1 3.4-1.6 4.3-1.7s2.4-.8 8-3.5c6.8-3.4 8-4.2 9.2-5.2q.8-.7 2-1.3l3.5-1.8 3.1-2 2.1-1.5 1.4-1.1q.4-.5.4.1t-.3 1.3M918 523.7a12 12 0 0 0-2.3 3.5 15 15 0 0 0-1.2 3.3c0 .5-.3 1.4-.5 1.8l-.5 2-.4 1.7c-.2.4-.4 1.6-.5 2.8q-.1 2-.4 2.6-.3.4-.4 4c0 3 0 3.6-.5 4.6s-.4 1.3-.4 10.4 0 9.3.5 10.2l.4 1.3.3 1.3.2.9-1.6.8c-.9.4-2.2.9-2.9 1l-1.6.4q-.4.2-.2-.6l.2-8.2c0-6.7 0-7.6.4-8.3.3-.8.3-1.8.3-10.3a47 47 0 0 0-.8-12c0-.6-.4-1.7-.8-2.5a18 18 0 0 0-5.7-6c-1.4-.7-1.4-.8-1-1l1.5-.3q1-.1 2-.5t2.6-.4c1.6-.1 2-.2 3.5-1l2.8-.9q1 0 1.4-.3l1.7-.4 1.8-.4q.6-.3 1.9-.5l1.4-.3zm-34.5 7.3a26 26 0 0 0-5 12.8q-.1 2-.6 2.8a11 11 0 0 0-.5 3.8q0 2.9-.4 3.4c-.3.4-.3 2.3-.3 12.7 0 11.7 0 12.2.4 13l.6 2 .2 1.3h-2.1a9 9 0 0 0-3 .5c-.7.4-1.5.5-3.7.5q-2.8.1-3.3.4l-2.6.4q-2 .2-2.8.5c-.9.3-3.6.4-3.6.1a101 101 0 0 0-8.5-15.5q-1.6-3.1-2.5-4.2c-.5-.5-1.3-1.8-1.8-2.7l-1.8-2.7c-.6-.6-1.4-1.8-1.8-2.7-.7-1.3-1.3-2.1-2.7-3.6-1-1-2-2.3-2.3-2.8q-.5-1-2.1-2.6-1.7-1.5-2.2-2.6-.6-1-7.7-8l-7.1-7.2h2.2c2 0 2.4 0 3.2.4 1 .5 1.3.5 8.3.6 6 .1 7.5.2 8.4.5s1.9.3 6.5.3a20 20 0 0 0 5.9-.4c.4-.3 2-.3 9.6-.4 8.5-.1 9.1-.1 9.9-.5.7-.3 1.4-.4 5.3-.5 3.6-.1 4.6-.2 5.2-.5q.7-.3 2.3-.3h1.5zm-830 56.2q3.5 1.8 4.4 2.6c.9.8 2.8 1.8 11 5.9a83 83 0 0 0 14.3 6.3c4.4 2.2 5 2.4 6 2.5q1 .2 2.6 1 1.5.6 2.6.8c.6 0 1.8.4 2.6.8q1.5.6 2.5.8l2.4.8 2.9 1q1.2.2 2 .6l1.9.4 1.7.4q.6.3 1.7.4l1.6.4 1.6.4 1.9.5 1.9.5 1.7.4 1.6.4q.9.1 1.8.5t3 .6q2.8.3 5.7 1.1l3 .5c1.1.1 2.5.3 3.1.5q1 .3 2.3.3t2.1.4c.8.4 1.4.5 3.9.6q3 0 3.5.4c.4.2 1.5.3 4.2.4 3 0 3.8.2 4.5.5s1.4.4 5.5.5c3.7 0 4.8.2 5.2.4s2.2.3 11.7.4H193l-1 1q-1 1.2-2 3.5l-1.3 2.4-.1 3q0 3.1-.4 3.5c-.2.4-.3 1.2-.3 3.7 0 2.8 0 3.3.4 4.3s.5 1.5.5 5.4c0 3.3.2 4.4.4 4.8q.3.4.4 3.5a16 16 0 0 0 .9 5.4q.1 1 .5 2l.5 1.8q0 .9.4 1.6l.4 1.6.1 1.1h-1.3q-1.3 0-2.2-.4c-1-.5-1.4-.5-6.7-.6-4.4 0-5.8-.2-6.2-.4q-.4-.3-3.3-.4-2.8 0-3.3-.4-.5-.3-3.5-.4-3 0-3.5-.4c-.2-.1-1.2-.3-2.2-.3l-2.7-.5-2.2-.6q-1.2-.1-1.7-.4-.6-.2-2.3-.3l-2.8-.5-2.2-.6q-1.2-.1-1.7-.4l-1.4-.3q-1-.1-1.7-.4l-1.6-.4-1.9-.5-1.9-.5-2.6-1-2.7-.8q-1-.1-1.8-.4-.6-.4-1.7-.4l-2.5-1q-1.5-.6-2.6-.8c-.8-.1-2.1-.7-5.3-2.2s-4.4-2.1-5.3-2.2-2-.6-4.5-1.9l-6.2-3q-2.7-1.4-3.8-2.4a19 19 0 0 0-3.5-2.2c-1.4-.7-2.9-1.6-3.4-2-.5-.5-1.8-1.4-2.8-2-1-.5-2.2-1.2-2.5-1.6q-.6-.6-1.6-1.2l-2.6-2.2q-1.5-1.5-2.8-2.3a78 78 0 0 1-16.8-19 14 14 0 0 1-2.3-3.8l-5.2-10.3a13 13 0 0 1-1.5-3.8c-.1-.9-1.8-5-2.3-5.7l-.3-1.3q-.1-1-.8-2.6l-.7-1.4 1 1a23 23 0 0 0 4.5 2.6m298.9-2.7q-.1.9-.5 1.6l-.5 2-.5 2.3-.3 3.2c0 2 0 2.2-.8 3.8l-.9 2.8q-.2 1.2-.8 2.3c-1 1.7-1.7 3.6-1.8 4.7 0 .5-.5 1.6-.9 2.5q-.7 1.6-.9 2.7-.1 1-.4 1.8l-.4 1.7-.5 1.9q-.5 1-.6 2.9c-.1 1.1-.3 2.5-.5 3.1q-.3 1-.3 4.2c0 2.4 0 3.2-.3 3.8s-.4 1.5-.5 4.6v4l-1.5.6-8.3 4.2a43 43 0 0 1-8.3 3.7c-1 .2-2.5.8-5.4 2.3q-4 2-5 2c-1 .2-1.7.4-3.6 1.3l-2.1.7c-.7 0-1.9.5-2.7.9l-2.4.8q-1 .1-2.3.7t-2.5.8l-2.2.6a28 28 0 0 1-4.8 1.2l-2.2.6-1.9.5q-.9 0-1.8.4-2.8 1-5.5 1.1-2 .1-2.9.6l-1.8.5q-.9.1-1.6.4l-2.1.3c-1.5 0-1.5 0-1.5-.5l.4-1.3c.3-.8.3-1.6.3-5.8 0-4.6 0-5-.4-6q-.4-1.1-.6-2.8 0-1.7-.3-2.2l-.4-2.6-.4-2.6q-.3-.6-.4-2.5t-.6-2.9q-.3-1-.4-2.8c-.1-1-.3-2.2-.5-2.6l-.4-1.8q0-1-1.6-4.2l-1.6-3.1-2.4-2.5-2.5-2.6 1-.1q.8 0 1.3-.4l2.5-.3q2-.2 2.8-.5l1.8-.4 1.5-.3q.5-.3 2.5-.4 2.1-.1 3-.6l1.9-.5q.9 0 1.6-.4l1.6-.4q1-.1 2-.5l1.8-.5q1 0 1.7-.4l1.7-.4q1 0 1.7-.4l1.7-.4q1-.1 2-.5l1.8-.5c.5 0 1.8-.5 2.8-.9l2.7-.9q1-.1 2.3-.8l2.6-.8a8 8 0 0 0 2.7-.9q1.5-.7 2.6-.9c.6 0 1.8-.5 2.7-.9q1.6-.7 2.8-.9 1.1 0 3.4-1.3 2.3-1.1 3.3-1.3c1-.1 5.7-2.2 8.5-3.7l2.1-.7c1.3-.1 3.5-1.2 14.2-6.6l7-3.5zM238 618.7l-1.2 2.4q-1.2 2.4-1.3 3.5l-.5 1.9c-.3.7-.3 2-.3 11.2 0 8.9 0 10.5.3 10.9s.3 1.5.4 4.3c.1 3.2.2 4 .5 4.7q.5 1 .6 2c0 .9.6 2.1 2 5l1.8 3.7-.9.3c-1 .3-2.6.4-9.2.4l-4.8.1v-2.8c-.1-2.2-.2-3-.5-3.7q-.5-.9-.5-2.7l-.4-2.3-.4-1.8-.6-2.3-.5-2.8q0-1.7-.3-2.3l-.4-2.5a10 10 0 0 0-.6-2.9q-.3-1-.5-2.7 0-1.7-.4-2.5l-.4-1.8c0-.6-.5-1.8-.9-2.7q-.7-1.5-.9-2.6a5 5 0 0 0-1.5-3.2l-1.1-1.5-2.3-2.7-2-2 3.4-.1c3-.1 3.6-.2 4.4-.5.8-.4 1.3-.5 5.3-.5 3.4 0 4.5-.2 4.9-.4q.4-.3 3.4-.4t3.6-.5c.6-.2 1.8-.4 1.8-.2M386.4 684a254 254 0 0 0 24 23.1c.4.2 1.6 1.2 2.6 2.2q1.8 1.8 2.8 2.3t1.6 1.1l1.7 1.4q1 .6 2 1.5 1.1.9 2.8 1.8c.9.5 2 1.2 2.3 1.6l1.6 1.2q1 .5 2 1.4l2.6 1.8 2.8 1.8q1 1 4.1 2.5 3.2 1.5 4.3 2.6a30 30 0 0 0 6.3 3.6c4 2 5.4 2.8 6.3 3.6 1 .8 3.2 2 13 7 10.2 5 12 5.9 13 6s2 .5 4.8 2c4.3 2.2 6.3 3 7.5 3.2l3.4 1.3q2.4 1.2 3.5 1.3 1.1 0 2.7.9l2.7 1q1.1 0 3.5 1.2t3.5 1.3l1.7.4 1.6.4 1.9.5 1.9.5c.5 0 1.7.5 2.6 1l2.7.8q1 .1 1.8.4.6.3 1.7.4l1.6.4 1.6.4q1 .1 1.8.5l2 .5 1.7.4q.8.3 2.5.4l2.8.5 2.2.6 1.7.4c.3.2 1.7.3 3.4.4s3.4.3 4 .5q1 .3 2.3.3t2.1.4c.8.4 1.4.5 3.9.6q3 0 3.5.4c.4.2 1.5.3 4.2.4 3.1 0 3.8.2 4.5.5s1.4.4 7.3.5c5.3 0 6.6.2 7 .4s2.6.3 16.1.3c15.2 0 15.6 0 16.5-.4.8-.4 1.5-.4 7.2-.5 5 0 6.4-.2 6.8-.4s1.4-.3 4.3-.4q4 0 4.3-.4.5-.3 3.5-.4c2.4-.1 3.2-.2 3.9-.5.7-.4 1.5-.5 3.6-.5q2.7-.1 3.2-.4t3.5-.4c2.4-.1 3.2-.2 3.9-.5q.9-.5 2.7-.5l2.3-.4c.3-.2 1.5-.3 2.6-.4l2.6-.4 1.5-.4 2.2-.6 2.8-.5q1.7 0 2.5-.4l1.7-.4q1-.1 2-.5l1.8-.5q1 0 1.4-.4l2.5-.3q2-.2 2.8-.5l1.7-.4q1-.1 2-.5l1.9-.5c.6 0 1.8-.5 2.7-.9q1.5-.7 2.6-.9l1.6-.4 1.6-.4q1 0 1.7-.4l1.7-.4q1-.1 2-.5l1.9-.5c.6 0 1.8-.5 2.7-.9q1.5-.7 2.6-.9c.5 0 1.6-.4 2.5-.8l2.6-.8c.5 0 1.3-.2 1.6-.4l1.8-.4q1.1 0 3.6-1.4 2.5-1.2 3.6-1.4t3.6-1.3l3.6-1.3a25 25 0 0 0 5.2-2.2c3.2-1.6 4.4-2 5.3-2.2 1-.1 3-1 13-6a93 93 0 0 0 16.3-9q2.4-1.4 3.5-2.3 1-1 3.6-2.3a23 23 0 0 0 5.4-3.5l1.8-1.4c.6-.5 1.8-1.3 2.6-1.7a12 12 0 0 0 3.5-2.6l2.5-2.2.6-.3-.2 1.5-.5 1.9-.3 1.4-.5 2-.5 1.8-.8 2.5q-.6 1.4-.8 2.4t-1.8 4.4a19 19 0 0 0-1.8 4.5 65 65 0 0 1-8.6 16.3L793 756c-.5.5-1.2 1.7-1.7 2.6q-.9 1.7-1.7 2.6l-1.4 1.8-2.3 2.8c-1 1-2 2.3-2.2 2.7l-2.2 2.6q-1.6 1.7-2.1 2.5a137 137 0 0 1-20 18.6l-2.5 2.1-1.8 1.4-2.7 1.8q-1.5.7-2.7 1.8-1.1 1-1.5 1.1l-1.5 1.2c-1 1-2 1.5-4.5 2.7a18 18 0 0 0-4.3 2.6 68 68 0 0 1-11.8 6.3c-8 4-11 5.4-11.7 5.5a50 50 0 0 0-7.6 3.3l-1.3.3q-1.2 0-3.5 1.3-2.4 1.1-3.4 1.3c-1 .1-3.7 1-4.2 1.5l-1.2.3c-.5 0-1.7.4-2.6.8s-2 .7-2.5.8q-.9.1-1.8.5l-1.3.4-1.5.3-2.4.5q-1.2.2-2 .6l-1.9.5q-.9 0-1.6.4l-1.7.4q-1 0-1.4.3l-1.7.4-2.2.6-2.8.5q-1.7 0-2.5.4l-1.8.4q-1 .1-1.9.5c-.6.3-1.2.4-2.9.4q-2 0-3.2.3c-.6.2-2 .4-3.1.5l-2.5.4q-.6.3-3.4.4c-2.2.1-3.1.2-3.7.5-.7.4-1.5.4-6.3.5-4.6.1-5.6.2-6.2.5s-2.2.3-16.9.3-16.2 0-16.9-.3-1.5-.4-5.1-.4c-3.8-.1-4.5-.2-5.2-.5l-1.2-.4q-1.2.2-.4-1.3.5-1 .6-2t.5-1.8l.5-2 .5-1.7q.3-.7.3-3.4c.1-2.2.2-3 .6-3.8.4-1.1.4-1.2.4-14.7s0-13.6-.4-14.7q-.5-1-.6-2c0-.5-.5-1.6-.8-2.4-.6-1.3-1-1.8-3.2-4-2.7-2.7-3.5-3.3-5.2-3.5l-1.8-.5a8 8 0 0 0-4.9.1l-1.8.6c-1.6.3-2.5.8-5 3.5-2.1 2-2.7 2.8-3.3 4l-.9 1.7c-.4.5-1.4 3.2-1.5 4.2l-.5 1.8-.5 1.8q-.1 1-.4 1.7c-.2.4-.4 1.6-.5 2.8q0 2-.4 2.6l-.4 2.3q0 1.8-.5 2.7c-.3.8-.4 1.5-.5 4.8 0 3-.2 4-.4 4.4a23 23 0 0 0-.3 6.5c0 5.2 0 6.1.3 6.8.4.9.4.9 0 .9l-1.2-.3-2.5-.4-2.8-.5-2.2-.6q-1.2-.1-1.6-.4l-1.4-.3c-.5 0-1.4-.2-1.8-.4l-1.8-.5-3.2-1q-.3 0 .3-1.3l.7-2.3.4-1.8c.2-.4.4-1.5.4-2.5q.1-1.8.6-2.7c.3-.8.4-1.4.5-6.5 0-4.5.2-5.7.4-6.1s.3-1.9.3-9.8c0-9 0-9.3-.4-10.4l-.6-2q0-1-.4-1.7l-.4-1.7c0-.6-.4-1.8-.8-2.6-.6-1.2-1-1.8-3.2-4-2.5-2.5-3.5-3.2-5.3-3.5q-.9 0-1.8-.6-.8-.4-2.3-.4c-1.4 0-1.5 0-4.6 1.6-3 1.5-3.3 1.7-5.3 3.6q-3.3 3.1-3.5 5.9l-.8 2.5q-.6 1.3-.8 2.4l-.5 1.9q-.4.9-.6 3l-.4 2.6q-.3.5-.4 3.3c0 2.3-.1 3-.5 3.7-.4.9-.4 1.2-.5 10.6v9.8h-.5c-.3 0-2-.7-3.8-1.6a18 18 0 0 0-4.3-1.7c-.8-.1-2.2-.7-5.3-2.2s-4.4-2.1-5.3-2.2-2-.6-4.5-1.9l-7.2-3.5a162 162 0 0 1-10-5.5 18 18 0 0 0-4.3-2.6q-3.2-1.6-4.2-2.5c-.5-.4-2-1.4-3.5-2.2a20 20 0 0 1-3.5-2.2c-.5-.5-1.8-1.3-2.7-1.8q-1.7-.9-2.4-1.5l-1.7-1.4q-1-.6-2-1.5t-2-1.4-1.5-1-1.6-1.3l-2.8-2.4c-1-1-2.2-2-2.7-2.2s-2-1.6-3.7-3.2l-3.6-3.2c-1-.5-7.7-7.2-8.2-8.2-.2-.4-1.5-2-3-3.4a33 33 0 0 1-4.5-5.5l-1.1-1.5-1.3-1.7q-1-1-1.4-1.9-.5-.9-1.4-1.9-1-1-2.2-3.5-1.2-2.4-2.2-3.5a61 61 0 0 1-6.3-12.5c0-.9-.6-2-1.8-4.5a23 23 0 0 1-2.5-7.4l-.5-2-.4-1.9-.5-1.9-.5-1.7q0-.8-.4-1.3l-.3-2.5a10 10 0 0 0-.6-3 9 9 0 0 1-.4-3.6q-.1-2.8-.5-3.4c-.2-.6-.3-1.4-.3-3.8 0-2.6 0-3 .4-3.8s.5-1.3.6-3.8v-2.9l1.9 1.9c1 1 2.1 2.4 2.5 3"/></svg>