<svg xmlns="http://www.w3.org/2000/svg" width="1000" height="1000" viewBox="0 0 1000 1000"><g transform="scale(0.2)"><g transform="translate(0.000000,5000.000000) scale(0.100000,-0.100000)"
fill="#141413" stroke="none">
<path d="M14857 47728 l-72 -37 -678 -1 -677 0 -70 -35 -70 -35 -2174 0 -2175
0 -82 -40 -83 -40 -823 0 -823 0 -70 -35 -70 -35 -749 0 -750 0 -82 -40 -83
-40 -453 0 -453 0 -70 -35 -70 -35 -299 0 -300 0 -82 -40 -83 -40 -223 0 -223
0 -70 -35 -70 -35 -375 0 -375 0 -150 -75 c-147 -73 -151 -75 -225 -75 -74 0
-78 -2 -228 -76 -148 -74 -155 -79 -267 -189 -92 -90 -131 -121 -195 -153 -61
-31 -99 -60 -162 -124 -73 -75 -89 -98 -156 -233 -67 -134 -83 -158 -147 -220
-70 -67 -77 -79 -181 -294 -109 -223 -109 -224 -109 -297 0 -72 -2 -78 -75
-224 -73 -147 -75 -151 -75 -225 0 -68 -4 -83 -40 -155 -36 -72 -40 -87 -40
-155 0 -66 -4 -84 -35 -145 l-35 -70 0 -225 0 -226 -30 -59 c-39 -77 -39 -123
0 -200 l30 -59 0 -376 0 -375 35 -70 35 -70 0 -149 0 -150 40 -82 c35 -74 40
-91 40 -156 0 -73 0 -73 110 -293 l110 -220 0 -75 c0 -68 4 -83 39 -153 36
-69 63 -100 278 -314 l238 -236 292 -146 293 -146 73 0 c65 0 82 -5 156 -40
l82 -40 375 0 374 0 70 -35 c60 -30 79 -35 143 -35 62 0 83 -5 145 -35 l72
-34 0 -2018 0 -2019 -35 -73 -35 -73 0 -459 0 -459 35 -70 35 -70 0 -530 0
-530 -35 -70 -35 -70 0 -448 0 -448 -40 -82 -40 -83 37 -74 37 -75 -37 -75
-37 -75 0 -525 0 -525 -35 -70 -35 -70 0 -225 0 -225 -40 -80 -40 -80 0 -300
0 -300 -35 -70 -35 -70 0 -375 0 -375 -40 -80 -40 -80 0 -375 0 -375 -35 -70
-35 -70 0 -756 0 -757 -42 -78 -43 -79 43 -79 c38 -70 42 -86 42 -146 0 -61
-4 -76 -40 -141 -38 -69 -40 -78 -40 -159 0 -80 2 -90 37 -155 l38 -70 -38
-70 -37 -69 0 -1361 0 -1361 40 -78 40 -78 0 -522 0 -521 35 -70 35 -70 0
-450 0 -450 35 -70 c19 -38 35 -77 35 -87 -1 -10 -16 -47 -34 -83 l-33 -64 38
-80 39 -80 0 -373 0 -373 35 -70 35 -70 0 -678 0 -678 40 -83 40 -82 0 -675 0
-674 35 -70 35 -70 0 -1350 0 -1350 40 -80 40 -80 0 -300 0 -300 35 -70 c31
-61 35 -79 35 -145 0 -68 4 -83 39 -153 36 -69 63 -100 278 -314 l238 -236
222 -111 223 -111 825 0 825 0 70 -35 70 -35 673 0 673 0 83 -40 82 -40 675 0
674 0 70 -35 70 -35 535 0 535 0 70 35 70 35 150 0 150 0 70 -35 70 -35 3235
0 3235 0 70 35 70 35 1280 0 1280 0 75 -37 75 -37 75 37 75 37 75 -37 75 -37
77 37 78 38 2019 -3 2019 -3 33 -60 34 -60 0 -678 0 -677 -35 -70 -35 -70 0
-750 0 -750 -40 -80 c-36 -72 -40 -87 -40 -155 0 -66 4 -83 37 -149 l37 -75
-37 -78 -37 -79 0 -300 0 -300 -67 -66 c-43 -42 -94 -79 -138 -101 -62 -32
-105 -71 -387 -354 l-316 -318 -181 -362 -181 -363 0 -75 c0 -68 -4 -83 -40
-155 -36 -72 -40 -87 -40 -155 0 -66 -4 -84 -35 -145 l-35 -70 0 -310 0 -310
35 -70 35 -70 0 -150 0 -150 40 -80 c36 -72 40 -87 40 -155 l0 -75 109 -218
c103 -204 114 -221 181 -287 53 -52 83 -92 115 -155 34 -67 62 -103 132 -172
l88 -86 295 -147 c287 -144 297 -150 375 -225 55 -53 103 -89 152 -114 64 -32
81 -36 148 -36 74 0 78 -2 225 -75 147 -73 151 -75 225 -75 66 0 84 -4 145
-35 l70 -35 530 0 530 0 70 35 c61 31 79 35 145 35 l75 0 223 111 c209 105
227 116 302 189 57 55 103 89 160 118 58 29 99 60 150 112 49 50 93 83 145
110 57 29 97 61 167 132 l91 93 221 442 221 443 0 75 c0 66 4 84 35 145 l35
70 0 530 0 530 -35 70 c-31 61 -35 79 -35 145 l0 75 -229 458 -229 457 -72 70
c-49 48 -83 92 -107 140 -46 91 -55 101 -138 142 -46 24 -97 62 -150 113 -53
51 -104 90 -150 113 -48 24 -92 58 -140 107 -50 51 -92 83 -147 111 -70 35
-85 39 -152 39 -72 0 -78 2 -225 75 l-152 75 -147 0 -148 0 -83 40 c-71 34
-92 40 -150 40 l-67 0 -37 69 -37 68 0 292 0 291 38 73 37 72 5 1579 5 1579
62 34 62 34 70 -36 71 -35 1125 0 1125 0 80 -40 80 -40 375 0 375 0 70 -35
c63 -32 77 -35 155 -35 78 0 92 3 154 35 l69 34 76 -34 75 -35 3601 0 3600 0
80 -40 80 -40 2175 0 2175 0 70 35 c38 19 76 35 85 35 9 0 47 -16 85 -35 99
-50 181 -50 280 0 38 19 77 35 87 35 10 -1 47 -16 83 -34 l64 -33 80 38 80 39
1041 0 1041 0 83 -40 82 -40 600 0 599 0 298 149 297 149 92 94 91 93 146 292
146 293 0 300 0 300 35 70 35 70 0 300 0 300 40 80 40 80 0 450 0 450 35 70
35 70 0 375 0 375 40 80 40 80 0 225 0 225 35 70 35 70 0 528 0 528 40 83 40
82 0 300 0 299 36 72 36 72 -37 76 -37 76 36 72 36 72 0 445 0 445 40 80 40
80 0 448 0 448 40 83 40 82 0 750 0 749 35 70 35 70 0 600 0 600 40 80 40 80
0 1500 0 1500 35 70 35 70 0 528 0 528 40 83 40 82 0 969 0 969 -40 82 -40 83
0 898 0 898 -35 70 -35 70 0 1730 0 1730 -40 80 -40 80 0 525 0 525 -35 70
-35 70 0 374 0 375 -40 82 -40 83 0 298 0 298 -40 80 -40 80 0 295 0 295 -35
70 -35 70 0 299 0 300 -40 82 c-34 71 -40 92 -40 149 0 54 6 78 35 138 l34 72
76 0 c70 0 82 3 149 40 67 37 79 40 149 40 76 0 80 1 227 75 147 73 151 75
225 75 l75 0 368 184 367 184 246 249 246 248 141 282 142 281 0 76 c0 69 4
84 40 156 36 72 40 87 40 155 0 66 4 84 35 145 l35 70 0 150 c0 147 1 152 30
210 l30 59 0 191 0 191 -30 59 -30 59 0 451 0 450 -35 70 -35 70 0 150 0 150
-75 150 c-73 147 -75 151 -75 225 l0 75 -114 228 c-108 215 -118 231 -186 297
-50 49 -83 93 -110 145 -33 64 -63 99 -207 241 -134 133 -183 175 -243 207
-49 27 -100 66 -145 112 -68 70 -79 76 -367 221 l-298 149 -75 0 c-66 0 -84 4
-145 35 -61 31 -79 35 -145 35 -68 0 -83 4 -155 40 l-80 40 -375 0 -375 0 -70
35 -70 35 -225 0 -225 0 -80 40 -80 40 -150 0 -150 0 -80 -40 -80 -40 -218 0
-218 0 -83 40 c-72 35 -92 40 -151 40 -59 0 -79 -5 -151 -40 l-83 -40 -516 0
-516 0 -83 40 -82 40 -144 0 -144 0 -82 -40 -83 -40 -366 0 -366 0 -83 40 -82
40 -4505 0 -4504 0 -80 -40 -80 -40 -2318 0 -2318 0 -80 39 -80 38 -64 -33
c-36 -18 -73 -33 -83 -34 -10 0 -49 16 -87 35 l-70 35 -375 0 -375 0 -70 35
-70 35 -448 0 -448 0 -83 40 -82 40 -1725 0 -1724 0 -75 37 -75 37 -75 -37
-75 -37 -525 0 -525 0 -70 35 -70 35 -828 0 -828 0 -83 40 -82 40 -600 0 -599
0 -73 36 -73 36 -72 -36 -72 -36 -155 0 -155 0 -69 35 -69 34 -1096 3 -1097 3
-72 -37z m6613 -2133 l70 -35 1275 0 1275 0 80 -40 80 -40 75 37 75 37 75 -37
75 -37 80 40 c70 35 88 40 148 40 59 0 79 -5 151 -40 l82 -40 750 0 749 0 72
-36 72 -36 73 36 73 36 380 0 380 0 70 -35 70 -35 1200 0 1200 0 80 -40 80
-40 525 0 525 0 70 -35 c63 -32 77 -35 155 -35 78 0 92 3 155 35 l70 35 375 0
375 0 70 -35 70 -35 235 0 235 0 70 35 70 35 70 -35 70 -35 760 0 760 0 70 35
70 35 305 0 305 0 72 -36 72 -36 73 36 c66 32 82 36 153 36 72 0 88 -4 150
-35 l70 -35 380 0 380 0 70 35 70 35 1049 0 1050 0 82 40 83 40 818 0 818 0
80 -40 80 -40 675 0 675 0 80 40 80 40 1493 0 1493 0 83 -40 82 -40 451 0 451
0 143 -75 c140 -74 144 -75 216 -75 63 0 84 -5 145 -34 69 -33 74 -38 107
-103 23 -46 59 -92 110 -143 l76 -74 0 -79 c0 -72 3 -83 40 -151 l40 -73 0
-152 0 -151 40 -80 40 -80 0 -365 0 -365 -40 -80 c-36 -72 -40 -87 -40 -155 0
-74 -2 -78 -76 -228 -62 -125 -87 -163 -137 -214 l-61 -63 -78 0 c-72 0 -86
-4 -158 -40 l-80 -40 -150 0 -150 0 -70 -35 c-61 -31 -79 -35 -145 -35 -66 0
-84 4 -145 35 -63 32 -77 35 -155 35 -78 0 -92 -3 -155 -35 l-70 -35 -1355 0
-1355 0 -70 35 -70 35 -223 0 -223 0 -83 40 -82 40 -825 0 -824 0 -70 35 -70
35 -1350 0 -1350 0 -80 40 -80 40 -525 0 -525 0 -80 -40 -80 -40 -1350 0
-1350 0 -70 -35 -70 -35 -674 0 -675 0 -82 -40 -83 -40 -373 0 -373 0 -70 -35
-70 -35 -2110 0 -2110 0 -70 35 -70 35 -1435 0 -1435 0 -70 -35 -70 -35 -75
37 -75 37 -75 -37 -75 -37 -3374 0 -3375 0 -82 -40 -83 -40 -828 0 -828 0 -70
-35 -70 -35 -525 0 -525 0 -80 -40 -80 -40 -740 0 -740 0 -80 40 -80 40 -80
-40 -80 -40 -665 0 -665 0 -80 40 -80 40 -605 0 -605 0 -70 35 -70 35 -598 0
-598 0 -80 39 -80 38 -64 -33 c-36 -18 -73 -33 -83 -34 -10 0 -49 16 -87 35
l-70 35 -1500 0 -1500 0 -70 35 -70 35 -750 0 -750 0 -80 40 c-72 36 -87 40
-157 40 l-77 0 -63 62 -63 62 0 154 0 153 -40 73 -40 73 0 527 0 526 35 70 35
70 0 148 0 149 116 228 117 227 70 34 c61 29 82 34 144 34 66 0 82 4 153 40
70 35 88 40 150 40 61 0 80 5 140 35 l70 35 449 0 450 0 82 40 83 40 1948 0
1948 0 70 35 70 35 1580 0 1580 0 70 -35 70 -35 235 0 235 0 70 35 70 35 825
0 825 0 81 41 81 40 642 -2 641 -1 65 36 65 36 2858 0 2857 0 70 -35z m15620
-5110 l70 -35 975 0 975 0 70 -35 70 -35 310 0 310 0 72 36 72 36 73 -36 73
-36 455 0 455 0 72 36 72 36 73 -36 73 -36 230 0 230 0 70 35 70 35 905 0 905
0 72 -36 72 -36 76 37 76 37 74 -37 74 -37 73 36 73 36 155 0 155 0 70 -35 70
-35 225 0 226 0 34 -72 35 -72 0 -598 0 -598 35 -70 35 -70 0 -299 0 -300 40
-82 40 -83 0 -378 0 -378 35 -70 35 -70 0 -600 0 -600 40 -80 40 -80 0 -1350
0 -1350 35 -70 35 -70 0 -1730 0 -1730 -35 -70 -35 -70 0 -975 0 -975 -40 -80
-40 -80 0 -750 0 -750 -35 -70 -35 -70 0 -675 0 -675 -40 -80 -40 -80 0 -1280
0 -1280 -35 -70 -35 -70 0 -748 0 -748 -40 -83 -40 -82 0 -300 0 -299 -35 -70
-35 -70 0 -223 0 -223 -40 -83 -40 -82 0 -675 0 -674 -35 -70 -35 -70 0 -600
0 -600 -40 -80 -40 -80 0 -225 0 -225 -35 -70 -35 -70 0 -752 0 -752 -67 -68
-67 -68 -2177 0 -2176 0 -76 35 -76 35 -1951 0 -1950 0 -70 35 -70 35 -985 0
-985 0 -70 -35 -70 -35 -2330 0 -2330 0 -70 35 -70 35 -450 0 -450 0 -80 40
-80 40 -1350 0 -1350 0 -70 35 -70 35 -303 0 -303 0 -83 40 -82 40 -525 0
-524 0 -70 35 -70 35 -523 0 -523 0 -83 40 -82 40 -900 0 -899 0 -70 35 -70
35 -460 0 -460 0 -70 -35 -70 -35 -1500 0 -1500 0 -80 -40 -80 -40 -525 0
-525 0 -70 -35 -70 -35 -899 0 -900 0 -82 -40 -83 -40 -591 0 -591 0 -83 40
-82 40 -2930 0 -2929 0 -70 35 c-60 30 -79 35 -143 35 -62 0 -83 5 -145 35
l-72 34 0 1201 0 1201 -40 73 -40 73 0 832 0 831 -35 70 -35 70 0 450 0 450
-40 80 -40 80 0 675 0 675 -35 70 -35 70 0 375 0 375 -40 80 -40 80 0 375 0
375 -35 70 -35 70 0 299 0 300 -40 82 -40 83 0 366 0 366 40 83 40 82 0 444 0
444 -40 82 -40 83 0 366 0 366 40 83 40 82 0 219 0 219 -40 82 -40 83 0 141 0
141 40 83 40 82 0 675 0 674 35 70 35 70 0 375 0 375 40 80 40 80 0 300 0 300
35 70 35 70 0 450 0 450 40 80 40 80 0 375 0 375 35 70 35 70 0 678 0 678 40
83 40 82 0 820 0 819 -35 70 c-19 38 -35 76 -35 85 0 9 16 47 35 85 l35 70 0
144 0 145 -40 82 -40 83 0 516 0 516 38 74 37 75 5 1429 5 1429 60 33 60 34
753 0 752 0 70 -35 70 -35 602 0 603 0 73 -40 73 -40 598 0 598 0 86 -40 85
-40 676 0 676 0 70 -35 70 -35 305 0 305 0 70 35 70 35 680 0 680 0 70 -35
c62 -31 78 -35 150 -35 73 0 88 4 152 36 l72 36 76 -37 76 -37 72 36 72 36
530 0 530 0 80 40 80 40 525 0 526 0 73 40 73 40 3602 0 3601 0 70 35 70 35
155 0 155 0 72 -36 72 -36 76 37 76 37 72 -36 c65 -33 79 -36 157 -36 78 0 92
3 155 35 l70 35 150 0 150 0 70 -35 70 -35 3235 0 3235 0 70 35 70 35 450 0
450 0 70 35 c38 19 76 35 85 35 9 0 47 -16 85 -35 60 -30 79 -35 139 -35 61 0
80 5 153 40 l83 41 1685 -7 1685 -7 70 36 c39 20 76 36 83 37 7 0 44 -16 82
-35z m-11038 -34456 c318 -159 306 -147 504 -542 l154 -308 0 -75 c0 -65 4
-83 35 -144 31 -62 35 -78 35 -150 0 -72 -4 -88 -35 -150 -30 -61 -35 -79 -35
-143 0 -65 -4 -82 -39 -153 -36 -73 -56 -96 -262 -300 l-224 -221 -142 -72
c-138 -69 -143 -71 -218 -71 -66 0 -84 4 -145 35 -61 31 -79 35 -145 35 l-75
0 -383 191 c-471 235 -460 226 -578 461 l-79 158 0 225 0 225 35 70 c31 61 35
79 35 145 0 74 1 78 79 233 l79 157 144 141 c179 177 241 214 358 214 75 0 76
0 115 40 33 33 46 40 80 40 25 1 63 13 105 35 l65 34 158 1 157 0 222 -111z"/>
<path d="M16300 35270 l-75 -39 -527 -1 -527 0 -82 -40 -83 -40 -298 0 -298 0
-70 -35 -70 -35 -299 0 -300 0 -82 -40 -83 -40 -223 0 -223 0 -70 -35 -70 -35
-149 0 -150 0 -82 -40 -83 -40 -148 0 -148 0 -70 -35 -70 -35 -149 0 -150 0
-82 -40 c-74 -36 -91 -40 -156 -40 -64 0 -82 -5 -143 -35 -61 -31 -79 -35
-144 -35 -66 0 -83 -4 -157 -40 -74 -36 -91 -40 -156 -40 -64 0 -82 -5 -143
-35 l-70 -35 -153 0 -153 0 -153 -75 c-147 -72 -156 -75 -225 -75 l-72 0 -69
-71 c-52 -53 -92 -82 -157 -115 l-88 -44 -41 -83 c-30 -59 -63 -104 -119 -162
-53 -54 -89 -103 -114 -152 -32 -64 -36 -81 -36 -148 0 -66 -4 -84 -35 -145
l-35 -70 0 -455 0 -455 35 -70 35 -70 0 -980 0 -980 -35 -70 c-31 -62 -35 -78
-35 -150 0 -72 4 -88 35 -150 l35 -70 0 -605 0 -605 -36 -72 -36 -72 37 -76
37 -76 -36 -72 -36 -72 0 -300 0 -300 -40 -80 -40 -80 0 -1575 0 -1575 -35
-70 -35 -70 0 -385 0 -385 35 -70 35 -70 0 -599 0 -600 40 -82 40 -83 0 -223
0 -223 35 -70 35 -70 0 -224 0 -225 40 -82 40 -83 0 -223 0 -223 35 -70 35
-70 0 -149 0 -150 40 -82 40 -83 0 -148 0 -148 35 -70 35 -70 0 -149 0 -150
40 -82 c35 -74 40 -91 40 -156 0 -71 2 -78 74 -221 70 -139 79 -152 168 -238
l93 -92 292 -146 293 -146 444 0 445 0 82 40 83 40 523 0 523 0 70 35 70 35
374 0 375 0 82 40 83 40 373 0 373 0 70 35 70 35 230 0 230 0 80 40 80 40 300
0 300 0 70 35 70 35 225 0 225 0 80 40 80 40 225 0 225 0 70 35 70 35 225 0
225 0 80 40 80 40 375 0 375 0 70 35 70 35 1280 0 1280 0 80 40 80 40 740 0
740 0 80 -40 c72 -36 87 -40 155 -40 66 0 84 -4 145 -35 l70 -35 160 0 160 0
70 35 c61 31 79 35 145 35 68 0 83 4 155 40 71 36 87 40 153 40 l73 0 161 163
161 162 146 292 146 293 0 73 c0 65 5 82 40 156 36 74 40 91 40 157 0 72 2 78
75 224 l75 150 0 225 0 225 35 70 35 70 0 373 0 373 40 83 40 82 0 975 0 974
35 70 35 70 0 310 0 310 -35 70 -35 70 0 450 0 450 -40 80 -40 80 0 225 0 225
-35 70 -35 70 0 225 0 225 -40 80 -40 80 0 300 0 300 -35 70 -35 70 0 374 0
375 -40 82 -40 83 0 298 0 298 -35 70 c-31 61 -35 79 -35 144 0 66 -4 83 -40
157 l-40 83 0 223 0 223 -35 70 -35 70 0 224 0 225 -40 82 -40 83 0 223 0 223
-35 70 c-31 61 -35 79 -35 144 0 66 -4 83 -40 157 l-40 83 0 148 0 148 -35 70
-35 70 0 155 0 155 -40 80 c-36 72 -40 87 -40 155 0 66 -4 84 -35 145 -31 61
-35 79 -35 145 0 68 -4 83 -40 155 -36 72 -40 87 -40 155 l0 75 -256 513 -256
512 -91 93 -92 94 -447 224 -448 224 -150 0 -150 0 -70 35 -70 35 -225 0 -225
0 -80 40 -80 40 -301 0 -302 0 -73 40 -73 40 -2178 0 -2178 -1 -75 -39z m2769
-1840 l82 -40 825 0 824 0 70 -35 70 -35 298 0 298 0 83 -40 c74 -36 91 -40
157 -40 72 0 79 -2 214 -70 l140 -70 35 -70 c31 -61 35 -79 35 -145 0 -68 4
-83 40 -155 36 -72 40 -87 40 -155 0 -66 4 -84 35 -145 31 -61 35 -79 35 -145
0 -68 4 -83 40 -155 l40 -80 0 -150 0 -151 40 -73 40 -73 0 -152 0 -151 35
-70 c31 -61 35 -79 35 -145 0 -68 4 -83 40 -155 l40 -80 0 -300 0 -300 35 -70
35 -70 0 -300 0 -300 40 -80 40 -80 0 -225 0 -225 35 -70 35 -70 0 -300 0
-300 40 -80 40 -80 0 -305 0 -305 35 -70 35 -70 0 -300 0 -300 40 -80 40 -80
0 -225 0 -225 35 -70 35 -70 0 -300 0 -300 40 -80 40 -80 0 -375 0 -375 35
-70 35 -70 0 -450 0 -450 -35 -70 -35 -70 0 -675 0 -675 -40 -80 -40 -80 0
-375 0 -375 -35 -70 -35 -70 0 -152 0 -152 -67 -68 -67 -68 -2253 0 -2253 0
-80 -40 -80 -40 -524 0 -525 0 -73 -40 -73 -40 -228 0 -227 0 -70 -35 -70 -35
-225 0 -225 0 -80 -40 -80 -40 -300 0 -300 0 -70 -35 -70 -35 -374 0 -375 0
-82 -40 -83 -40 -298 0 -298 0 -70 -35 -70 -35 -224 0 -225 0 -82 -40 -83 -40
-223 0 -223 0 -70 -35 -70 -35 -302 0 -302 0 -68 67 -68 67 0 154 0 153 -40
73 -40 73 0 302 0 301 -35 70 -35 70 0 300 0 300 -40 80 -40 80 0 225 0 225
-35 70 -35 70 0 299 0 300 -40 82 -40 83 0 366 0 366 40 83 40 82 0 975 0 974
36 72 36 72 -36 73 c-32 66 -36 82 -36 153 0 73 4 88 36 152 l36 72 -36 73
-36 73 0 155 0 155 36 72 36 72 -37 76 -37 76 36 72 36 72 0 1135 0 1135 -35
70 -35 70 0 675 0 675 -40 80 -40 80 0 525 0 525 -35 70 c-30 61 -35 79 -35
143 l0 73 65 32 c56 27 76 32 140 32 68 0 83 4 155 40 l80 40 150 0 150 0 70
35 70 35 150 0 150 0 80 40 80 40 150 0 150 0 70 35 70 35 225 0 225 0 80 40
80 40 225 0 225 0 70 35 70 35 374 0 375 0 82 40 83 40 598 0 598 0 70 35 70
35 1014 0 1015 0 82 40 83 40 216 0 216 0 83 -40z"/>
<path d="M36330 32565 l-65 -34 -453 -1 -452 0 -80 -40 -80 -40 -225 0 -225 0
-70 -35 -70 -35 -375 0 -375 0 -80 -40 -80 -40 -450 0 -450 0 -70 -35 -70 -35
-375 0 -375 0 -80 -40 c-69 -34 -89 -40 -145 -40 -56 0 -76 6 -145 40 l-80 40
-80 -40 -80 -40 -150 0 -150 0 -70 -35 -70 -35 -380 0 -380 0 -80 -40 -80 -40
-450 0 -450 0 -70 -35 -70 -35 -450 0 -450 0 -80 -40 -80 -40 -150 0 -150 0
-69 -35 c-38 -19 -78 -45 -88 -59 -11 -13 -68 -119 -126 -234 l-107 -210 0
-76 0 -76 115 -230 115 -230 160 -80 c157 -79 161 -80 235 -80 66 0 84 -4 145
-35 l70 -35 835 0 835 0 70 35 70 35 900 0 900 0 80 40 80 40 525 0 525 0 70
35 70 35 375 0 375 0 80 40 80 40 450 0 450 0 70 35 70 35 449 0 450 0 82 40
c71 34 92 40 149 40 57 0 78 -6 149 -40 72 -35 92 -40 151 -40 59 0 79 5 151
40 l83 40 366 0 366 0 83 -40 82 -40 450 0 449 0 70 -35 70 -35 373 0 373 0
83 -40 82 -40 300 0 299 0 80 40 c72 36 87 40 155 40 74 0 78 2 225 75 l150
75 115 230 115 230 0 155 0 155 -35 70 c-31 62 -35 78 -35 147 l0 78 -87 87
c-86 84 -93 89 -310 197 l-223 111 -150 0 -150 0 -70 35 -70 35 -300 0 -300 0
-80 40 -80 40 -375 0 -375 0 -75 37 -75 37 -75 -37 -75 -37 -70 35 -70 35
-687 0 -688 -1 -65 -34z"/>
<path d="M31080 27535 l-65 -34 -377 -1 -377 0 -82 -40 -83 -40 -298 0 -298 0
-70 -35 -70 -35 -299 0 -300 0 -82 -40 -83 -40 -225 0 -226 -1 -150 -77 -150
-77 -116 -229 -116 -230 38 -80 c34 -70 39 -89 39 -151 l0 -70 198 -198 197
-197 73 0 c63 0 82 -5 142 -35 l70 -35 385 0 385 0 70 35 70 35 525 0 525 0
75 37 75 37 75 -37 75 -37 2780 0 2780 0 72 -36 72 -36 76 37 76 37 72 -36 72
-36 148 0 148 0 83 -40 82 -40 225 0 224 0 70 -35 70 -35 148 0 148 0 83 -40
82 -40 150 0 149 0 70 -35 c61 -30 79 -35 143 -35 65 0 82 -4 156 -40 l82 -40
150 0 149 0 70 -35 70 -35 160 0 160 0 70 35 c61 31 79 35 145 35 109 0 199
47 312 162 78 80 86 92 192 305 l111 223 0 80 c0 72 -4 88 -35 150 -31 62 -35
78 -35 147 l0 78 -162 162 c-137 135 -175 167 -235 197 -64 32 -81 36 -148 36
-66 0 -84 4 -145 35 -61 31 -79 35 -145 35 -74 0 -78 2 -225 75 l-150 75 -150
0 -150 0 -80 40 c-72 36 -87 40 -155 40 -66 0 -84 4 -145 35 l-70 35 -150 0
-150 0 -80 40 -80 40 -300 0 -300 0 -70 35 -70 35 -1435 0 -1435 0 -70 -35
-70 -35 -605 0 -605 0 -70 35 -70 35 -755 0 -755 0 -72 -36 -71 -36 -36 36
c-20 20 -41 36 -46 36 -6 -1 -39 -16 -75 -35z"/>
<path d="M30930 22655 l-65 -34 -302 -1 -302 0 -82 -40 -83 -40 -148 0 -148 0
-70 -35 -70 -35 -149 0 -150 0 -82 -40 -83 -40 -148 0 -148 0 -70 -35 c-61
-31 -79 -35 -144 -35 -66 0 -83 -4 -157 -40 -74 -35 -91 -40 -156 -40 l-73 0
-230 -115 -230 -115 -40 -80 c-36 -72 -40 -87 -40 -155 0 -66 -4 -83 -37 -150
l-38 -75 109 -218 c59 -119 115 -225 125 -236 9 -10 82 -52 163 -92 144 -72
149 -74 223 -74 66 0 83 -4 150 -37 l75 -37 75 37 75 37 225 0 225 0 80 40 80
40 300 0 300 0 70 35 70 35 450 0 450 0 80 40 80 40 515 0 515 0 80 -40 80
-40 375 0 375 0 70 -35 70 -35 450 0 450 0 80 -40 80 -40 530 0 530 0 70 -35
70 -35 373 0 373 0 83 -40 82 -40 969 0 969 0 82 40 c73 35 92 40 154 40 l70
0 167 168 c130 131 173 180 197 229 l31 62 0 231 0 230 -74 148 c-69 137 -80
153 -163 234 -80 78 -101 93 -230 157 l-143 71 -298 0 -298 0 -83 40 -82 40
-825 0 -824 0 -70 35 -70 35 -450 0 -450 0 -80 40 -80 40 -600 0 -600 0 -75
37 -75 37 -75 -37 -75 -37 -70 35 -70 35 -1062 0 -1063 -1 -65 -34z"/>
</g></g></svg>