<svg xmlns="http://www.w3.org/2000/svg" width="1000" height="1000" viewBox="0 0 1000 1000"><g fill="#141413"><path d="m297.1 45.4-1.4.8h-27.1l-1.4.7-1.4.7h-87l-1.6.8-1.7.8h-32.9l-1.4.7-1.4.7h-30l-1.6.8-1.7.8H88.4l-1.4.7-1.4.7h-12l-1.6.8-1.7.8h-8.9l-1.4.7-1.4.7h-15l-3 1.5c-3 1.5-3 1.5-4.5 1.5s-1.6 0-4.6 1.5-3 1.6-5.3 3.8a14 14 0 0 1-3.9 3q-1.6.9-3.2 2.5c-1.5 1.5-1.8 2-3.2 4.7a12 12 0 0 1-2.9 4.4c-1.4 1.3-1.5 1.6-3.6 5.9-2.2 4.4-2.2 4.5-2.2 6 0 1.4 0 1.5-1.5 4.4s-1.5 3-1.5 4.5c0 1.4 0 1.7-.8 3.1-.7 1.4-.8 1.7-.8 3.1 0 1.3 0 1.7-.7 2.9l-.7 1.4v9L.6 121c-.8 1.5-.8 2.5 0 4l.6 1.2v15l.7 1.4.7 1.4v6l.8 1.6c.7 1.5.8 1.8.8 3.1 0 1.5 0 1.5 2.2 5.9l2.2 4.4v1.5a5 5 0 0 0 .8 3 26 26 0 0 0 5.5 6.3l4.8 4.8 5.8 2.9 5.9 2.9h1.5c1.3 0 1.6.1 3 .8l1.7.8h15l1.4.7a5 5 0 0 0 2.9.7c1.2 0 1.6.1 2.9.7l1.4.7v80.7l-.7 1.5-.7 1.4v18.4l.7 1.4.7 1.4v21.2l-.7 1.4-.7 1.4v18l-.8 1.6-.8 1.6.7 1.5.8 1.5-.8 1.5-.7 1.5v21l-.7 1.4-.7 1.4v9l-.8 1.6-.8 1.6v12l-.7 1.4-.7 1.4v15l-.8 1.6-.8 1.6v15l-.7 1.4-.7 1.4v30.3l-.8 1.5-.9 1.6.9 1.6c.7 1.4.8 1.7.8 2.9s0 1.5-.8 2.8c-.8 1.4-.8 1.6-.8 3.2s0 1.8.7 3.1l.8 1.4-.8 1.4-.7 1.4v54.4l.8 1.6.8 1.5v20.9l.7 1.4.7 1.4v18l.7 1.4.7 1.7q0 .5-.7 1.7l-.6 1.3.7 1.6.8 1.6v14.9l.7 1.4.7 1.4v27.1l.8 1.7.8 1.6v27l.7 1.4.7 1.4v54l.8 1.6.8 1.6v12l.7 1.4a5 5 0 0 1 .7 2.9 5 5 0 0 0 .8 3 26 26 0 0 0 5.5 6.3l4.8 4.8 4.4 2.2 4.5 2.2h33l1.4.7 1.4.7h26.9l1.7.8 1.6.8h27l1.4.7 1.4.7h21.4l1.4-.7 1.4-.7h6l1.4.7 1.4.7h129.4l1.4-.7 1.4-.7h51.2l1.5.7 1.5.8 1.5-.8 1.5-.7 1.5.7 1.5.8 1.5-.8 1.6-.7h40.4l40.4.1.6 1.2.7 1.2v27.1l-.7 1.4-.7 1.4v30l-.8 1.6c-.7 1.4-.8 1.7-.8 3.1a5 5 0 0 0 .7 3l.8 1.5-.8 1.5-.7 1.6v12l-1.3 1.3q-1.5 1.4-2.8 2a39 39 0 0 0-7.7 7.1l-6.4 6.4-3.6 7.2-3.6 7.3v1.5c0 1.4 0 1.7-.8 3.1-.7 1.4-.8 1.7-.8 3.1 0 1.3 0 1.7-.7 2.9l-.7 1.4v12.4l.7 1.4.7 1.4v6l.8 1.6c.7 1.4.8 1.7.8 3.1v1.5l2.2 4.4c2 4 2.3 4.4 3.6 5.7q1.4 1.3 2.3 3.1c.7 1.3 1.2 2 2.6 3.4l1.8 1.8 5.9 2.9c5.7 2.9 6 3 7.5 4.5q1.6 1.5 3 2.3a5 5 0 0 0 3 .7c1.5 0 1.6 0 4.5 1.5 3 1.5 3 1.5 4.5 1.5 1.3 0 1.7 0 2.9.7l1.4.7h21.2l1.4-.7a5 5 0 0 1 2.9-.7h1.5l4.5-2.2c4.1-2.1 4.5-2.3 6-3.8q1.5-1.6 3.2-2.4t3-2.2q1.5-1.5 2.9-2.2a12 12 0 0 0 3.3-2.6l1.9-1.9 4.4-8.8 4.4-8.9v-1.5c0-1.3 0-1.7.7-2.9l.7-1.4v-21.2l-.7-1.4a5 5 0 0 1-.7-2.9v-1.5l-4.6-9.2-4.6-9.1-1.4-1.4q-1.5-1.4-2.1-2.8c-1-1.8-1.1-2-2.8-2.8q-1.5-.8-3-2.3t-3-2.3q-1.4-.6-2.8-2.1t-3-2.2c-1.3-.7-1.6-.8-3-.8s-1.5 0-4.5-1.5l-3-1.5h-6l-1.6-.8c-1.4-.7-1.8-.8-3-.8h-1.3l-.8-1.4-.7-1.3v-11.7l.8-1.5.7-1.4.1-31.6.1-31.6 1.2-.6 1.3-.7 1.4.7 1.4.7h45l1.6.8 1.6.8h15l1.4.7a5 5 0 0 0 3.1.7c1.6 0 1.8 0 3-.7l1.5-.7 1.5.7 1.5.7h144l1.6.8 1.6.8h87l1.4-.7 1.7-.7q.5 0 1.7.7 2.8 1.5 5.6 0l1.7-.7q.5 0 1.7.7l1.3.6 1.6-.7 1.6-.8H890l1.7.8 1.6.8h24l6-3 5.9-3 1.8-1.8 1.9-1.9 2.9-5.8 2.9-5.9v-12l.7-1.4.7-1.4v-12l.8-1.6.8-1.6v-18l.7-1.4.7-1.4v-15l.8-1.6.8-1.6v-9l.7-1.4.7-1.4v-21.1l.8-1.7.8-1.6v-12l.7-1.4.7-1.5-.7-1.5-.7-1.5.7-1.5.7-1.4V607l.8-1.6.8-1.6v-18l.8-1.6.8-1.6v-30l.7-1.4.7-1.4v-24l.8-1.6.8-1.6v-60l.7-1.4.7-1.4v-21.1l.8-1.7.8-1.6v-38.8l-.8-1.6-.8-1.7v-35.9l-.7-1.4-.7-1.4v-69.2l-.8-1.6-.8-1.6v-21l-.7-1.4-.7-1.4v-15l-.8-1.6-.8-1.7v-11.9l-.8-1.6-.8-1.6v-11.8l-.7-1.4-.7-1.4v-12l-.8-1.6a5 5 0 0 1-.8-3c0-1 .1-1.6.7-2.8l.7-1.4h1.5c1.4 0 1.6 0 3-.8 1.3-.7 1.6-.8 3-.8 1.5 0 1.6 0 4.5-1.5 3-1.5 3-1.5 4.5-1.5h1.5l7.4-3.7 7.3-3.7 5-5 4.8-4.9 2.9-5.6 2.8-5.7V155c0-1.4 0-1.7.8-3.1.7-1.4.8-1.7.8-3.1 0-1.3 0-1.7.7-2.9l.7-1.4v-3c0-3 0-3 .6-4.2l.6-1.2v-7.6l-.6-1.2-.6-1.2v-18l-.7-1.4-.7-1.4v-6l-1.5-3c-1.5-3-1.5-3-1.5-4.5v-1.5l-2.3-4.6c-2.1-4.3-2.3-4.6-3.7-5.9a11 11 0 0 1-2.2-2.9c-.7-1.3-1.3-2-4.1-4.8a22 22 0 0 0-4.9-4.2q-1.5-.8-2.9-2.2c-1.4-1.4-1.6-1.5-7.3-4.4l-6-3h-1.5c-1.3 0-1.7 0-2.9-.7a5 5 0 0 0-2.9-.7c-1.4 0-1.7 0-3.1-.8l-1.6-.8h-15l-1.4-.7-1.4-.7h-9l-1.6-.8-1.6-.8h-6l-1.6.8-1.6.8H901l-1.7-.8c-1.4-.7-1.8-.8-3-.8s-1.6.1-3 .8l-1.7.8H871l-1.7-.8-1.6-.8H862l-1.6.8-1.7.8h-14.6l-1.7-.8-1.6-.8H660.6l-1.6.8-1.6.8h-92.7L563 53l-1.6-.7-1.3.6-1.7.7q-.5.1-1.7-.7l-1.4-.7h-15l-1.4-.7-1.4-.7h-18L518 50l-1.6-.8h-69l-1.5-.7-1.5-.8-1.5.8-1.5.7h-21l-1.4-.7-1.4-.7h-33.1l-1.7-.8-1.6-.8h-24l-1.5-.7-1.4-.7-1.5.7-1.4.7h-6.2l-1.4-.7-1.4-.7h-21.9l-22-.1zm132.3 42.7 1.4.7h51l1.6.8 1.6.8 1.5-.7 1.5-.8 1.5.8 1.5.7 1.6-.8c1.4-.7 1.8-.8 3-.8s1.5.1 3 .8l1.6.8h30l1.4.7 1.5.7 1.4-.7 1.5-.7h15.2l1.4.7 1.4.7h48l1.6.8 1.6.8h21l1.4.7a5 5 0 0 0 3.1.7 5 5 0 0 0 3.1-.7l1.4-.7h15l1.4.7 1.4.7h9.4l1.4-.7 1.4-.7 1.4.7 1.4.7h30.4l1.4-.7 1.4-.7h12.2l1.4.7 1.5.7 1.4-.7c1.4-.6 1.7-.7 3.1-.7a5 5 0 0 1 3 .7l1.4.7h15.2l1.4-.7 1.4-.7h42l1.6-.8 1.7-.8h32.7l1.6.8 1.6.8h27l1.6-.8 1.6-.8h59.7l1.7.8 1.6.8h18l3 1.5c2.7 1.5 2.8 1.5 4.2 1.5 1.3 0 1.7.1 3 .7s1.4.7 2 2q.8 1.4 2.3 2.9l1.5 1.5v1.6c0 1.4 0 1.6.8 3l.8 1.4v6.1l.8 1.6.8 1.6v14.6l-.8 1.6c-.7 1.4-.8 1.7-.8 3.1s0 1.6-1.5 4.6a14 14 0 0 1-2.8 4.2l-1.2 1.3h-1.5c-1.5 0-1.8 0-3.2.8l-1.6.8h-6l-1.4.7c-1.2.6-1.6.7-2.9.7s-1.7 0-2.9-.7a5 5 0 0 0-3.1-.7 5 5 0 0 0-3.1.7l-1.4.7h-54.2l-1.4-.7-1.4-.7h-8.9l-1.7-.8-1.6-.8h-33l-1.4-.7-1.4-.7h-54l-1.6-.8-1.6-.8h-21l-1.6.8-1.6.8h-54l-1.4.7-1.4.7h-27l-1.6.8-1.7.8h-14.9l-1.4.7-1.4.7H545l-1.4-.7-1.4-.7h-57.4l-1.4.7-1.4.7-1.5-.7-1.5-.8-1.5.8-1.5.7H341l-1.6.8-1.7.8h-33.1l-1.4.7-1.4.7h-21l-1.6.8-1.6.8H248l-1.6-.8-1.6-.8-1.6.8-1.6.8H215l-1.6-.8-1.6-.8h-24.2l-1.4-.7-1.4-.7h-24l-1.5-.8-1.6-.7-1.3.6q-1.2.7-1.7.7t-1.7-.7l-1.4-.7h-60l-1.4-.7-1.4-.7h-30l-1.6-.8a5 5 0 0 0-3.1-.8h-1.6l-1.2-1.2-1.3-1.3v-6.1l-.8-1.5-.8-1.4v-21.1l.7-1.4.7-1.4v-6l2.3-4.5 2.4-4.5 1.4-.7c1.2-.6 1.6-.7 2.8-.7 1.4 0 1.7 0 3.1-.8 1.4-.7 1.8-.8 3-.8s1.6-.1 2.8-.7l1.4-.7h18l1.6-.8 1.7-.8h77.9l1.4-.7 1.4-.7h63.2l1.4.7 1.4.7h9.4l1.4-.7 1.4-.7h33l1.6-.8 1.6-.8h25.7l1.3-.7 1.3-.7H428zm312.4 102.2 1.4.7h39l1.4.7 1.4.7h12.4l1.4-.7 1.5-.7 1.4.7 1.5.7h18.2l1.4-.7 1.5-.7 1.4.7 1.5.7h9.2l1.4-.7 1.4-.7h36.2l1.4.7 1.5.7 1.5-.7 1.5-.7 1.5.7 1.5.7 1.4-.7 1.5-.7h6.2l1.4.7 1.4.7h9l.7 1.4.7 1.5v23.9l.7 1.4.7 1.4v12l.8 1.6.8 1.7v15.1l.7 1.4.7 1.4v24l.8 1.6.8 1.6v54l.7 1.4.7 1.4v69.2l-.7 1.4-.7 1.4v39l-.8 1.6-.8 1.6v30l-.7 1.4-.7 1.4v27l-.8 1.6-.8 1.6v51.2l-.7 1.4-.7 1.4v30l-.8 1.6-.8 1.6v12l-.7 1.4-.7 1.4v8.9l-.8 1.7-.8 1.6v27l-.7 1.4-.7 1.4v24l-.8 1.6-.8 1.6v9l-.7 1.4-.7 1.4v30l-1.3 1.4-1.4 1.4h-87l-1.6-.7-1.5-.7h-78l-1.4-.7-1.4-.7h-39.4l-1.4.7-1.4.7h-93.2l-1.4-.7-1.4-.7h-18l-1.6-.8-1.6-.8h-54l-1.4-.7-1.4-.7h-12.1l-1.7-.8-1.6-.8h-21l-1.4-.7-1.4-.7h-20.9l-1.7-.8-1.6-.8h-36l-1.4-.7-1.4-.7h-18.4l-1.4.7-1.4.7h-60l-1.6.8-1.6.8h-21l-1.4.7-1.4.7h-36l-1.6.8-1.7.8h-23.6l-1.7-.8-1.6-.8H114l-1.4-.7a5 5 0 0 0-2.9-.7c-1.2 0-1.6-.1-2.9-.7l-1.4-.7v-48l-.8-1.5-.8-1.4v-33.3l-.7-1.4-.7-1.4v-18l-.8-1.6-.8-1.6v-27l-.7-1.4-.7-1.4v-15l-.8-1.6-.8-1.6v-15l-.7-1.4-.7-1.4v-12l-.8-1.6-.8-1.7v-14.6l.8-1.7.8-1.6V497l-.8-1.6-.8-1.7v-14.6l.8-1.7.8-1.6V467l-.8-1.6-.8-1.7v-5.6l.8-1.7.8-1.6v-27l.7-1.4.7-1.4v-15l.8-1.6.8-1.6v-12l.7-1.4.7-1.4v-18l.8-1.6.8-1.6v-15l.7-1.4.7-1.4v-27.1l.8-1.7.8-1.6v-32.8l-.7-1.4-.7-1.7q0-.5.7-1.7l.7-1.4v-5.8l-.8-1.6-.8-1.7V254l.8-1.5.7-1.5.1-28.6.1-28.6 1.2-.6 1.2-.7H138l1.4.7 1.4.7h24.1l1.5.8 1.4.8h24l1.7.8 1.7.8h27l1.4.7 1.4.7h12.2l1.4-.7 1.4-.7h27.2l1.4.7a5 5 0 0 0 3 .7 5 5 0 0 0 3-.7l1.5-.7 1.5.7 1.5.7 1.5-.7 1.4-.7h21.2l1.6-.8 1.6-.8h21l1.5-.8 1.4-.8h144.1l1.4-.7 1.4-.7h6.2l1.4.7 1.5.7 1.5-.7 1.5-.7 1.5.7a5 5 0 0 0 3.1.7 5 5 0 0 0 3.1-.7l1.4-.7h6l1.4.7 1.4.7h129.4l1.4-.7 1.4-.7h18l1.4-.7 1.7-.7q.5 0 1.7.7c1.2.6 1.6.7 2.8.7s1.6-.1 3-.8l1.7-.8 33.7.1 33.7.2 1.4-.8 1.7-.7zM521 879.4c6.4 3.2 6.2 3 10.1 10.9l3.1 6.1v1.5c0 1.3 0 1.7.7 2.9a5 5 0 0 1 .7 3 5 5 0 0 1-.7 3 5 5 0 0 0-.7 2.9c0 1.3 0 1.6-.8 3-.7 1.5-1.1 2-5.2 6l-4.5 4.4-2.8 1.5c-2.8 1.4-2.9 1.4-4.4 1.4-1.3 0-1.7 0-2.9-.7a5 5 0 0 0-2.9-.7h-1.5l-7.7-3.8c-9.4-4.7-9.2-4.5-11.5-9.2l-1.6-3.2v-9l.7-1.4a5 5 0 0 0 .7-2.9c0-1.5 0-1.6 1.6-4.7l1.6-3.1 2.8-2.8c3.6-3.6 4.9-4.3 7.2-4.3 1.5 0 1.5 0 2.3-.8q.9-1 1.6-.8.8 0 2.1-.7l1.3-.7h6.3z"/><path d="m326 294.6-1.5.8h-21.1l-1.6.8-1.7.8h-11.9l-1.4.7-1.4.7h-12l-1.6.8-1.7.8h-8.9l-1.4.7-1.4.7h-6l-1.6.8-1.7.8h-5.9l-1.4.7-1.4.7h-6l-1.6.8c-1.5.7-1.8.8-3.1.8a5 5 0 0 0-2.9.7c-1.2.6-1.6.7-2.9.7s-1.6 0-3.1.8c-1.5.7-1.8.8-3.1.8a5 5 0 0 0-2.9.7l-1.4.7h-6.1l-3 1.5c-3 1.4-3.2 1.5-4.6 1.5h-1.4l-1.4 1.4q-1.3 1.4-3.1 2.3l-1.8.9-.8 1.7q-.8 1.5-2.4 3.2-1.5 1.5-2.3 3a5 5 0 0 0-.7 3c0 1.3 0 1.7-.7 2.9l-.7 1.4v18.2l.7 1.4.7 1.4v39.2l-.7 1.4a5 5 0 0 0-.7 3 5 5 0 0 0 .7 3l.7 1.4v24.2l-.7 1.4-.7 1.5.7 1.5.7 1.5-.7 1.5-.7 1.4v12l-.8 1.6-.8 1.6v63l-.7 1.4-.7 1.4v15.4l.7 1.4.7 1.4v24l.8 1.6.8 1.7v8.9l.7 1.4.7 1.4v9l.8 1.6.8 1.7v8.9l.7 1.4.7 1.4v6l.8 1.6.8 1.7v5.9l.7 1.4.7 1.4v6l.8 1.6c.7 1.5.8 1.8.8 3.1 0 1.5 0 1.6 1.5 4.5 1.4 2.7 1.6 3 3.3 4.7l1.9 1.9 5.8 2.9 5.9 2.9h17.8l1.6-.8 1.7-.8h20.9l1.4-.7 1.4-.7h15l1.6-.8 1.7-.8h14.9l1.4-.7 1.4-.7h9.2l1.6-.8 1.6-.8h12l1.4-.7 1.4-.7h9l1.6-.8 1.6-.8h9l1.4-.7 1.4-.7h9l1.6-.8 1.6-.8h15l1.4-.7 1.4-.7H425l1.6-.8 1.6-.8h29.6l1.6.8c1.4.7 1.7.8 3.1.8 1.3 0 1.7 0 2.9.7l1.4.7h6.4l1.4-.7a5 5 0 0 1 2.9-.7c1.4 0 1.7 0 3.1-.8 1.4-.7 1.7-.8 3-.8h1.5l3.2-3.3 3.3-3.2 2.9-5.8 2.9-5.9v-1.5c0-1.3.1-1.6.8-3 .7-1.6.8-1.9.8-3.2 0-1.5 0-1.6 1.5-4.5l1.5-3v-9l.7-1.4.7-1.4v-14.9l.8-1.7.8-1.6v-39l.7-1.4.7-1.4v-12.4l-.7-1.4-.7-1.4v-18l-.8-1.6-.8-1.6v-9l-.7-1.4-.7-1.4v-9l-.8-1.6-.8-1.6v-12l-.7-1.4-.7-1.4v-15l-.8-1.6-.8-1.7v-11.9l-.7-1.4a5 5 0 0 1-.7-2.9c0-1.3 0-1.6-.8-3.1l-.8-1.7v-8.9l-.7-1.4-.7-1.4v-9l-.8-1.6-.8-1.7v-8.9l-.7-1.4a5 5 0 0 1-.7-2.9c0-1.3 0-1.6-.8-3.1l-.8-1.7v-5.9l-.7-1.4-.7-1.4v-6.2l-.8-1.6c-.7-1.4-.8-1.7-.8-3.1 0-1.3 0-1.7-.7-2.9a5 5 0 0 1-.7-2.9c0-1.4 0-1.7-.8-3.1-.7-1.4-.8-1.7-.8-3.1v-1.5l-5.1-10.3-5.1-10.2-1.9-1.9-1.8-1.8-9-4.5-8.9-4.5h-6l-1.4-.7-1.4-.7h-9l-1.6-.8-1.6-.8h-12l-1.5-.8-1.5-.8h-87.1zm55.4 36.8 1.6.8h33l1.4.7 1.4.7h12l1.6.8c1.5.7 1.8.8 3.1.8 1.5 0 1.6 0 4.3 1.4l2.8 1.4.7 1.4a5 5 0 0 1 .7 2.9c0 1.4 0 1.7.8 3.1.7 1.4.8 1.7.8 3.1 0 1.3 0 1.7.7 2.9s.7 1.6.7 2.9c0 1.4 0 1.7.8 3.1l.8 1.6v6l.8 1.5.8 1.4v6.1l.7 1.4a5 5 0 0 1 .7 2.9c0 1.4 0 1.7.8 3.1l.8 1.6v12l.7 1.4.7 1.4v12l.8 1.6.8 1.6v9l.7 1.4.7 1.4v12l.8 1.6.8 1.6v12.2l.7 1.4.7 1.4v12l.8 1.6.8 1.6v9l.7 1.4.7 1.4v12l.8 1.6.8 1.6v15l.7 1.4.7 1.4v18l-.7 1.4-.7 1.4v27l-.8 1.6-.8 1.6v15l-.7 1.4-.7 1.4v6l-1.3 1.4-1.4 1.4h-90.1l-1.6.8-1.6.8h-21l-1.4.8-1.5.8h-9.1l-1.4.7-1.4.7h-9l-1.6.8-1.6.8h-12l-1.4.7-1.4.7h-15l-1.6.8-1.7.8h-11.9l-1.4.7-1.4.7h-9l-1.6.8-1.7.8h-8.9l-1.4.7-1.4.7h-12l-1.4-1.3-1.4-1.4v-6.1l-.8-1.5-.8-1.4v-12.1l-.7-1.4-.7-1.4v-12l-.8-1.6-.8-1.6v-9l-.7-1.4-.7-1.4v-12l-.8-1.6-.8-1.7v-14.6l.8-1.7.8-1.6v-39l.7-1.4.7-1.5-.7-1.4a5 5 0 0 1-.7-3.1 5 5 0 0 1 .7-3l.7-1.5-.7-1.4-.7-1.5v-6.2l.7-1.4.7-1.5-.7-1.5-.7-1.5.7-1.5.7-1.4v-45.4l-.7-1.4-.7-1.4v-27l-.8-1.6-.8-1.6v-21l-.7-1.4a5 5 0 0 1-.7-2.9v-1.4l1.3-.7a5 5 0 0 1 2.8-.6c1.4 0 1.7 0 3.1-.8l1.6-.8h6l1.4-.7 1.4-.7h6l1.6-.8 1.6-.8h6l1.4-.7 1.4-.7h9l1.6-.8 1.6-.8h9l1.4-.7 1.4-.7h15l1.6-.8 1.7-.8h23.9l1.4-.7 1.4-.7h40.6l1.6-.8 1.7-.8h8.6zm345.2 17.3-1.3.7h-18.1l-1.6.8-1.6.8h-9l-1.4.7-1.4.7h-15l-1.6.8-1.6.8h-18l-1.4.7-1.4.7h-15l-1.6.8c-1.4.7-1.8.8-2.9.8s-1.5-.1-2.9-.8l-1.6-.8-1.6.8-1.6.8h-6l-1.4.7-1.4.7H602l-1.6.8-1.6.8h-18l-1.4.7-1.4.7h-18l-1.6.8-1.6.8h-6l-1.4.7q-1.2.7-1.7 1.2c-.3.2-1.4 2.4-2.6 4.7l-2.1 4.2v3l2.3 4.6 2.3 4.6 3.2 1.6c3.1 1.6 3.2 1.6 4.7 1.6 1.3 0 1.7 0 2.9.7l1.4.7h33.4l1.4-.7 1.4-.7h36l1.6-.8 1.6-.8h21l1.4-.7 1.4-.7h15l1.6-.8 1.6-.8h18l1.4-.7 1.4-.7h18l1.6-.8c1.4-.7 1.9-.8 3-.8s1.6.1 3 .8 1.8.8 3 .8 1.6-.1 3-.8l1.7-.8h14.6l1.7.8 1.6.8h18l1.4.7 1.4.7h14.9l1.7.8 1.6.8h12l1.6-.8c1.4-.7 1.7-.8 3.1-.8s1.6 0 4.5-1.5l3-1.5 2.3-4.6 2.3-4.6v-6.2l-.7-1.4a5 5 0 0 1-.7-3v-1.5l-1.7-1.7c-1.8-1.7-1.9-1.8-6.2-4l-4.5-2.2h-6l-1.4-.7-1.4-.7h-12l-1.6-.8-1.6-.8h-15l-1.5-.7-1.5-.8-1.5.8-1.5.7-1.4-.7-1.4-.7h-27.5zm-105 100.6-1.3.7h-15.1l-1.6.8-1.7.8H590l-1.4.7-1.4.7h-12l-1.6.8-1.7.8h-9l-3 1.6-3 1.5-2.3 4.6-2.3 4.6.7 1.6c.7 1.4.8 1.8.8 3v1.4l4 4 3.9 3.9h1.5c1.2 0 1.6.1 2.8.7l1.4.7h15.4l1.4-.7 1.4-.7h21l1.5-.7 1.5-.8 1.5.8 1.5.7h111.2l1.4.7 1.5.7 1.5-.7 1.5-.7 1.5.7 1.4.7h6l1.6.8 1.6.8h9l1.4.7 1.4.7h6l1.6.8 1.6.8h6l1.4.7a5 5 0 0 0 2.9.7c1.3 0 1.6 0 3 .8l1.7.8h6l1.4.7 1.4.7h6.4l1.4-.7a5 5 0 0 1 2.9-.7q3.1 0 6.2-3.2c1.6-1.6 1.8-1.9 3.9-6.1l2.2-4.5v-1.6a5 5 0 0 0-.7-3 5 5 0 0 1-.7-3V467l-3.2-3.2a18 18 0 0 0-4.7-4 5 5 0 0 0-3-.7c-1.3 0-1.7 0-2.9-.7a5 5 0 0 0-2.9-.7c-1.5 0-1.6 0-4.5-1.5l-3-1.5h-6l-1.6-.8c-1.4-.7-1.7-.8-3.1-.8-1.3 0-1.7 0-2.9-.7l-1.4-.7h-6l-1.6-.8-1.6-.8h-12l-1.4-.7-1.4-.7h-57.4l-1.4.7-1.4.7h-24.2l-1.4-.7-1.4-.7h-30.2l-1.4.7-1.5.7-.7-.7-.9-.7zm-3 97.6-1.3.7h-12l-1.7.8-1.7.8H596l-1.4.7-1.4.7h-6l-1.6.8-1.7.8H578l-1.4.7c-1.2.6-1.6.7-2.9.7s-1.6 0-3.1.8c-1.5.7-1.8.8-3.1.8H566l-4.6 2.3-4.6 2.3-.8 1.6c-.7 1.4-.8 1.7-.8 3.1 0 1.3 0 1.7-.7 3l-.8 1.5 2.2 4.4 2.5 4.7 3.2 1.8c3 1.5 3 1.5 4.5 1.5 1.3 0 1.7 0 3 .7l1.5.8 1.5-.8 1.5-.7h9l1.6-.8 1.6-.8h12l1.4-.7 1.4-.7h18l1.6-.8 1.6-.8h20.6l1.6.8 1.6.8h15l1.4.7 1.4.7h18l1.6.8 1.6.8h21.2l1.4.7 1.4.7h14.9l1.7.8 1.6.8h38.8l1.6-.8c1.5-.7 1.9-.8 3.1-.8h1.4l3.3-3.4c2.6-2.6 3.5-3.6 4-4.5l.6-1.3v-9.2l-1.5-3c-1.4-2.7-1.6-3-3.2-4.6s-2-1.9-4.6-3.2l-2.9-1.4h-12l-1.6-.8-1.6-.8h-33l-1.4-.7-1.4-.7h-18l-1.6-.8-1.6-.8h-24l-1.5-.7-1.5-.8-1.5.8-1.5.7-1.4-.7-1.4-.7h-42.5z"/></g></svg>