<svg xmlns="http://www.w3.org/2000/svg" width="1000" height="1000" viewBox="0 0 1000 1000"><path fill="#141413" d="m709.7 4.3-4.3 4.4-2.8 5.6c-2.7 5.4-2.8 5.6-3 7a8 8 0 0 1-1.1 3.8 8 8 0 0 0-1.2 3.5q0 1.3-.6 2.5-.5 1-.6 2.6c-.1 1.2-.3 1.7-1.3 3.8s-1.2 2.6-1.3 3.8q-.1 1.4-.6 2.4t-.6 2.4c-.1 1.2-.3 1.7-1.3 3.8-1.1 2.1-1.2 2.5-1.3 3.9a8 8 0 0 1-1.2 3.7 8 8 0 0 0-1.2 3.6c-.1 1.3-.3 1.8-2 5s-1.7 3.7-1.8 5.1c-.2 1.5-.3 1.7-3.7 8.6A44 44 0 0 0 676 88c-.1 1-.3 1.3-1 2s-1.7 2.6-4 7.2a27 27 0 0 1-4.5 7.7q-1.3 1.3-2.5 3.7c-.8 1.7-1.5 2.6-2.4 3.6-.7.7-1.5 1.8-1.8 2.4q-.6 1.1-3.1 3.7a18 18 0 0 0-3.1 3.7 76 76 0 0 1-14.4 14 29 29 0 0 1-4 3.2c-.8.5-2 1.3-2.6 2l-2.3 1.7-2.4 1.8c-1 1-1.9 1.6-3.8 2.5a13 13 0 0 0-3.9 2.6c-1.4 1.3-1.6 1.4-18 9.6-16.5 8.3-16.6 8.3-18.1 8.5-1.4 0-1.8.2-6.3 2.5s-4.9 2.4-6.2 2.5c-1.4 0-1.8.3-12 5.4l-10.6 5.3-1.8 1.8c-1.7 1.8-1.7 1.8-4.4 7.3l-2.8 5.6v7.4l.6 1.2q.7 1.2.8 2.7a8 8 0 0 0 .8 3c.7 1.6 1 2 5.1 6l4.3 4.4 3 1.5c2.7 1.3 3.4 1.5 4.5 1.6 1 .1 1.8.4 3.8 1.3s2.8 1.2 3.8 1.3 1.8.4 3.6 1.2c2 1 2.6 1.1 3.8 1.2q1.4.1 2.7.7 1.1.7 2.6.7c1.2.1 1.7.3 3.6 1.2 1.9 1 2.4 1.2 3.7 1.2 1.3.1 1.8.3 3.9 1.3s2.6 1.2 3.8 1.3c1.3.1 1.8.3 4.8 1.8 3 1.6 3.5 1.7 4.9 1.8s1.7.3 15.7 7.2 14.2 7.1 15.6 8.5c.8.7 1.9 1.6 2.5 1.9l2.4 1.8c.7.7 1.8 1.5 2.4 1.8s1.7 1.1 2.4 1.8q1.3 1.2 2.5 1.9 1.3.7 3.8 3.2c2 2 2.9 2.7 4 3.3 1.5.7 2.1 1.3 3.3 3.2a35 35 0 0 0 4.3 5q3.6 3.8 4.2 4.9t3.1 3.7c2.3 2.4 2.6 2.8 3.7 4.9.9 1.7 1.5 2.6 2.5 3.7 1.2 1.2 1.6 2 3.2 5.1s2 3.9 3.1 5a18 18 0 0 1 3.4 5.5c1.9 3.8 2 4.3 2.2 5.6 0 1.4.2 1.8 3 7.4 3 5.8 3 6 3.2 7.5 0 1.4.2 1.8 1.9 5.1 1.5 3.2 1.8 3.8 1.9 5 0 .7.3 1.8.6 2.5s.5 1.7.6 2.4c0 1.1.3 1.8 1.3 3.7 1 2.1 1.2 2.6 1.3 4q0 1.5.6 2.4.4 1 .6 2.5 0 1.5.6 2.5.4 1 .6 2.4 0 1.5.6 2.4.5 1 .6 2.5c0 1.4.2 1.8 1.3 4 1 2 1.2 2.5 1.3 3.7q0 1.5.6 2.4.4 1 .6 2.4c0 1.4.2 1.8 3.5 8.3l3.4 6.9 3 3 2.9 3 4.4 2.1c4.1 2 4.5 2.2 5.9 2.3q1.5.1 2.5.7c1 .5 1.2.5 3.7.5s2.8 0 3.7-.5a6 6 0 0 1 2.4-.7c1.4 0 1.8-.2 5.8-2.3l4.4-2.2 3-3 3-3.1 4.7-9.3c4.3-8.7 4.6-9.3 4.7-10.6 0-.7.3-1.8.6-2.5q.5-1 .6-2.6c.1-1.2.3-1.7 1.2-3.6 1-1.8 1.1-2.4 1.2-3.6q.1-1.4.6-2.6.5-1 .6-2.6.1-1.4.7-2.6.7-1.1.7-2.5 0-1.2.6-2.5.5-1 .6-2.6c.1-1.3.3-1.7 2-5s1.7-3.7 1.8-5 .3-1.7 1.2-3.6c1-1.8 1.1-2.4 1.2-3.6s.3-1.7 2.5-6.2 2.4-4.8 2.5-6.3c.2-2 1.4-4.6 3.2-6.4 1.7-1.8 2.9-4.1 3-6s.4-2.4 2-4.1q1.4-1.3 2.6-3.7 1.1-2.4 2.4-3.6c1-1 1.5-1.9 2.4-3.6s1.5-2.6 2.5-3.7l2-2.7c.6-1.1 2.2-2.9 11-11.8a74 74 0 0 1 17-14.9c.6-.3 1.7-1.2 2.5-1.9s1.9-1.6 2.5-1.9 1.7-1.1 2.4-1.8q1.3-1.3 3.6-2.4 2.4-1.3 3.7-2.5c1.4-1.3 1.8-1.5 20.6-11 18.8-9.3 19.2-9.5 20.6-9.7 1.3 0 1.8-.2 5-1.9 3.4-1.6 3.7-1.8 5.1-1.9 1.5 0 1.6-.1 12.1-5.4l10.6-5.3 3-3 3-3.1 2.2-4.3 2.2-4.3v-10l-2.2-4.3-2.2-4.3-3-3.1-3.2-3.1-4.3-2.2c-4-2-4.3-2.1-5.8-2.2q-1.5-.1-2.5-.6t-2.4-.6-2.4-.6q-.9-.6-2.5-.6-1.5-.2-2.5-.6-.9-.6-2.4-.6-1.4-.1-2.6-.8c-1.1-.5-1.4-.6-3.8-.6-2.2-.1-2.8-.2-3.7-.6l-2.5-.6q-1.4-.2-2.4-.6-.9-.6-2.5-.6a7 7 0 0 1-2.5-.6q-.9-.6-2.5-.6-1.5-.1-2.7-.7-1.1-.7-2.5-.7-1.2 0-2.5-.6-1-.5-2.6-.6a8 8 0 0 1-3.6-1.2 8 8 0 0 0-3.6-1.2c-1.2-.2-1.8-.4-5-2-3.4-1.5-4-1.7-5.2-1.8-1.4-.2-1.8-.4-13-6a55 55 0 0 1-15.5-9l-2.4-1.8-2.6-1.9a19 19 0 0 1-3.9-3.2q-2.7-2.6-3.8-3.2a38 38 0 0 1-8-8 18 18 0 0 0-3.1-3.7c-2-2-2.7-3-3.2-3.9l-1.9-2.6c-1-1-1.5-1.9-2.4-3.6a14 14 0 0 0-2.5-3.7 42 42 0 0 1-6-10.6c-4.5-9-4.6-9.2-4.7-10.7 0-1.4-.2-1.8-2.5-6.4-2.1-4.4-2.4-5-2.5-6.2 0-1-.3-1.8-1.2-3.6a10 10 0 0 1-1.2-3.7q0-1.5-.6-2.4-.4-1-.6-2.4 0-1.2-.6-2.5l-.6-2.4q0-1.4-.7-2.5t-.7-2.6q0-1.6-.6-2.6-.5-1.2-.6-2.5T765 40t-.6-2.5l-.5-2.4-.5-2.4q0-1.5-.7-2.7t-.7-2.7a9 9 0 0 0-1.2-3.8 9 9 0 0 1-1.2-3.6c0-1.2-.3-1.8-2.3-5.8l-3.1-5.8a20 20 0 0 0-5.3-5.2l-2.3-1.8L745 0h-30.9zM736 71c0 1.4.3 1.8 9.1 19.5 8.8 17.5 9 18.1 10.3 19.4 1 1 1.5 1.9 2.4 3.6s1.4 2.6 2.5 3.7c.7.8 1.6 1.9 1.9 2.5s1.1 1.7 1.8 2.4l1.8 2.4c.3.6 1.2 1.7 2 2.5.7.8 1.5 2 1.9 2.7.5 1 1.3 2 3.2 3.9q2.5 2.7 3.2 3.8a131 131 0 0 0 20.1 18.9q1.3.7 3.8 3.2c2 2 3 2.7 3.9 3.2a12 12 0 0 1 2.6 1.9c1 1 1.9 1.5 3.6 2.4s2.6 1.4 3.6 2.4a21 21 0 0 0 6.2 3.7c4.4 2.2 5 2.6 6.3 3.8 1.4 1.3 1.8 1.6 10.7 6 9.2 4.6 9.3 4.6 10.8 4.7 1.4.2 1.7.3 7.5 3.1 5.6 2.8 6 3 7.4 3.1 1.3.1 1.8.3 5 2 2.9 1.4 3.7 1.7 4.7 1.8l1.3.2-3.5 1.7c-3.1 1.6-3.6 1.8-4.9 1.9s-1.8.3-14.5 6.6a68 68 0 0 0-14.4 7.8c-1.2 1.1-2 1.6-7.4 4.3a27 27 0 0 0-7.5 4.5c-1.1 1-2 1.6-3.7 2.4-1.8 1-2.6 1.4-3.7 2.5-.8.7-1.9 1.6-2.5 1.9s-1.7 1.1-2.4 1.8-1.9 1.5-2.6 1.9-1.9 1.2-2.6 1.9q-1.2 1.2-2.5 1.9c-1 .5-3 2.3-11.1 10.6a93 93 0 0 0-13.6 14.7 14 14 0 0 0-3.8 5.1 14 14 0 0 1-2.6 4 21 21 0 0 0-3.8 6.2c-2.2 4.3-2.6 5-3.7 6.2a15 15 0 0 0-2.7 4.2c-1.3 2.5-1.4 3-1.5 4.3-.1 1.4-.3 1.7-5 11.2-4.9 9.7-5 9.7-5 11.3-.1 1.3-.3 1.8-1.3 3.9s-1.2 2.5-1.3 3.7c-.1 1.1-.3 1.8-1.8 4.8-1.6 3.2-1.7 3.6-1.8 5s-.3 1.8-1.3 3.9-1.2 2.6-1.3 3.7c-.2 2.1-1.5 4.5-1.5 2.7 0-.3-.8-2-1.8-4-1.6-3.2-1.8-3.8-1.9-5s-.3-1.8-1.8-4.9-1.7-3.7-1.8-5c0-1.3-.2-1.7-9.7-20.6-9.3-18.6-9.7-19.2-10.9-20.6-1-1-1.6-1.9-2.5-3.8-1-2-1.5-2.8-2.6-3.9l-1.9-2.4q-.6-1-1.8-2.3c-.7-.7-1.5-1.9-1.9-2.6-.5-1-1.3-2-3.2-3.9q-2.5-2.7-3.2-3.8c-.5-1-2.4-3-11.2-11.7a105 105 0 0 0-21.6-18.5c-.6-.3-1.7-1.2-2.5-1.9s-1.9-1.6-2.5-1.9-1.7-1.1-2.5-1.9c-1.2-1-2-1.6-4.9-3-2.9-1.5-3.7-2-4.8-3.1-1.3-1.2-2-1.6-15.6-8.4l-14.3-7.1-1.5-.1a6 6 0 0 1-3.3-1.1l-1.7-1 .7-.3 2.1-.4c1.3 0 2-.4 16.2-7.5l16-8.2q1-.7 1.8-1.5t4.3-2.6c3-1.5 3.8-2 5-3.1q1.3-1.3 3.7-2.5c1.7-.9 2.6-1.5 3.7-2.5.8-.8 2-1.6 2.7-2 1-.5 2-1.3 3.9-3.2a18 18 0 0 1 3.7-3.1c.9-.4 2.7-2.1 9.1-8.6a67 67 0 0 0 8.7-9.2q.6-1.2 3.1-3.7c2.3-2.4 2.5-2.6 3.7-5 1-2 1.5-2.8 2.6-3.9 1-1.1 1.6-2 2.5-3.7s1.5-2.6 2.5-3.7c1.3-1.4 1.5-1.7 9.6-18l8.2-16.6.1-1.5c.1-1.4.2-1.7 2.6-6.2 2.2-4.6 2.4-4.9 2.5-6.2 0-1.3.2-1.8 1.2-3.9 1.1-2.1 1.2-2.5 1.3-3.9s.3-1.8 1.8-4.8c1-1.9 1.7-3.6 1.7-3.8 0-.3.9 1.2 2 3.4 1.8 3.6 2 4 2 5.3m-477-14c-.3 0-1 .3-1.3.5-.6.3-1.3.4-4.8.5-4.1.1-4.1.1-5.3.7-1.1.6-1.4.7-3.8.7-2.3.1-2.7.2-3.6.6-.9.5-1.3.6-3.7.6-2.4.1-2.8.2-3.7.6q-1 .6-2.4.7t-2.5.6l-2.5.6q-1.4 0-2.6.7t-2.6.7q-1.6 0-2.6.6c-.7.3-1.8.5-2.5.6-1.1 0-1.8.3-3.5 1.2a8 8 0 0 1-3.7 1.2c-1.4 0-1.7.2-5 1.9s-3.6 1.8-5 1.9-1.8.2-6.3 2.5-4.9 2.3-6.3 2.5c-1.5 0-1.6.1-11.8 5.2a51 51 0 0 0-11.7 6.5 21 21 0 0 1-6.3 3.8c-4.3 2.2-5 2.6-6.2 3.7q-1.3 1.3-3.8 2.5a15 15 0 0 0-3.9 2.6q-1.4 1.3-2.5 1.9c-.6.3-1.7 1.1-2.4 1.8l-2.5 1.9a11 11 0 0 0-2.5 2l-2.6 1.8c-1 .5-2 1.3-3.9 3.2q-2.6 2.5-3.8 3.2c-1 .5-2.5 1.9-8 7.4-5.3 5.4-6.7 7-7.2 7.9s-1.7 2.3-4.4 5.1q-3.8 4-4.4 5-.6 1.1-3.1 3.7-2.5 2.7-3.1 3.7c-.3.6-1.1 1.7-1.8 2.4a13 13 0 0 0-2.4 3.6 12 12 0 0 1-2.5 3.7 17 17 0 0 0-3.2 5.1c-1.6 3.1-2 3.9-3.1 5-1.2 1.3-1.5 1.9-8.4 15.6-7 13.9-7.1 14.3-7.2 15.7s-.3 1.8-2 5-1.7 3.7-1.8 5.1-.3 1.8-1.8 4.9c-1.6 3-1.7 3.5-1.8 4.8q-.1 1.4-.7 2.6t-.7 2.7-.6 2.5q-.6.9-.6 2.4-.1 1.3-.6 2.4-.6.9-.6 2.5-.1 1.5-.6 2.5t-.6 2.4-.8 2.6c-.5 1.1-.6 1.4-.7 3.9 0 2.4-.1 2.8-.6 3.7s-.5 1.3-.6 3.7-.1 2.8-.6 3.7-.5 1-.6 6.3-.1 5.3-.6 6.2l-.5.9v35.4l.5.9c.5.9.5 1 .6 6.2s.1 5.3.6 6.2.5 1.1.6 4.9.1 4 .6 5q.6 1 .7 2.5t.7 2.7.7 2.6.6 2.4c.4.9.5 1.3.5 3.7.1 2.4.2 2.8.6 3.7q.6 1 .7 2.5c0 1.3.3 1.9 1.3 4 1 2 1.2 2.7 1.3 3.8 0 1.1.3 1.8 1.2 3.5a8 8 0 0 1 1.2 3.6c0 1.3.2 1.8 1.9 5s1.8 3.7 1.9 5.1c0 1.5.1 1.6 5.3 12a46 46 0 0 0 6.6 11.9c1.2 1.3 1.6 1.8 3.7 6.1a21 21 0 0 0 3.6 6c1 1 1.5 1.9 2.5 3.8s1.5 2.8 2.5 3.8l1.8 2.4q.6 1.1 2 2.5c.7.8 1.5 2 1.9 2.7s1.2 1.9 1.9 2.6l1.8 2.4q.5 1 4.4 5a27 27 0 0 1 4.4 5c.4.9 2 2.7 8.4 9 6.3 6.4 8 8 9.2 8.6 1 .7 2.6 2 6.4 5.8a43 43 0 0 0 8.7 7.5c.7.7 1.9 1.5 2.6 1.9s1.9 1.2 2.6 1.9 1.8 1.5 2.5 1.9l2.5 1.9c.7.7 1.8 1.5 2.4 1.8l2.4 1.8c.7.7 1.9 1.5 2.6 1.9s2 1.2 2.7 2c1.2 1.1 2 1.6 4.9 3 3 1.6 3.7 2 4.9 3.2 1.4 1.3 1.4 1.4 20.6 10.9 18.8 9.4 19.2 9.6 20.6 9.7 1.3 0 1.7.2 5 1.8 3.1 1.6 3.7 1.8 4.9 2 1 0 1.8.2 3.6 1.1 2 1 2.6 1.1 3.8 1.2q1.4.1 2.7.7 1.1.7 2.6.7l2.5.6q1.1.5 2.5.6t2.4.6 2.3.6c.7 0 1.8.3 2.5.6q1 .5 2.6.6 1.4.1 2.4.7c.9.4 1.3.5 3.7.6s2.8 0 3.9.7 1.2.6 5.2.7c3.7.1 4 .1 5 .6l1 .5h47.4l.9-.5c.9-.5 1.1-.5 5-.6 4.1-.1 4.1-.1 5.3-.7 1.1-.6 1.4-.7 3.8-.7 2.3-.1 2.7-.2 3.6-.6q1-.6 2.5-.7t2.5-.6c.9-.4 1.3-.5 3.7-.5 2.4-.1 2.8-.2 3.7-.6q1-.6 2.4-.7 1.6 0 2.6-.6l2.5-.6c1.1 0 1.8-.3 3.7-1.3 2.1-1 2.6-1.2 4-1.3 1.2 0 1.7-.2 3.6-1.2a9 9 0 0 1 3.6-1.2c1.2 0 1.8-.2 3.8-1.3a9 9 0 0 1 3.8-1.3c1.4 0 1.9-.3 19.2-9 17.5-8.6 17.8-8.8 19.2-10.1 1-1 2-1.6 3.9-2.6s2.8-1.6 3.9-2.6q1.3-1.3 3.7-2.5a13 13 0 0 0 3.6-2.4 12 12 0 0 1 2.6-1.9c1-.5 2-1.3 3.9-3.2a18 18 0 0 1 3.7-3.1q1.1-.6 3.7-3.1 2.7-2.5 3.8-3.2c1-.5 3-2.4 11.8-11.3A119 119 0 0 0 472 444q2.4-2.5 3-3.6t1.9-2.5c.8-.8 1.6-2 2-2.7s1.2-1.9 1.9-2.6c1-1 1.5-1.9 2.4-3.6s1.5-2.6 2.5-3.7q1.3-1.3 2.5-3.7c.8-1.7 1.5-2.6 2.4-3.6 1.2-1.3 1.6-1.9 8.4-15.6l7.1-14.3.1-1.5c.2-1.4.3-1.7 2.5-6.2s2.4-4.8 2.5-6.1q.2-1.4.6-2.6.5-1 .6-2.6c.1-1.2.3-1.7 1.3-3.8s1.2-2.6 1.3-3.8q.1-1.3.6-2.4.6-.9.6-2.5.1-1.5.6-2.5t.6-2.4.8-2.6c.5-1.1.6-1.4.7-3.9 0-2.4.1-2.8.5-3.7q.6-.9.6-2.4.1-1.4.7-2.4c.5-1 .5-1.2.6-5.1s.1-4.1.6-5 .5-1 .6-6.2l.1-5.3.6-1.1.6-1.1v-32.4l-.6-1.1c-.6-1.1-.6-1.1-.7-5.1-.1-3.8-.1-4-.6-4.9s-.5-1.1-.6-5c-.1-4-.1-4.1-.6-5.1a6 6 0 0 1-.7-2.4q0-1.2-.6-2.5c-.4-1-.5-1.5-.6-3.7 0-2.4 0-2.7-.6-3.8q-.7-1.2-.8-2.6 0-1.5-.6-2.4-.4-1-.6-2.5 0-1.5-.6-2.5-.4-1-.6-2.4c0-1.2-.2-1.8-1.3-3.8a9 9 0 0 1-1.3-3.8 10 10 0 0 0-1.2-3.7 10 10 0 0 1-1.2-3.7c0-1.3-.2-1.8-1.9-5s-1.8-3.7-1.9-5c0-1.4-.3-1.8-5.9-13.1a55 55 0 0 0-7.2-13 17 17 0 0 1-3.1-5.1c-1.5-3.2-2-3.8-3.1-5a14 14 0 0 1-2.5-3.7 16 16 0 0 0-2.4-3.6l-1.8-2.4q-.6-1.1-2-2.5c-.7-.8-1.5-2-1.9-2.7s-1.2-1.9-1.9-2.6l-1.8-2.4q-.5-1.1-4.3-4.9a30 30 0 0 1-4.3-4.9c-.5-.9-2.8-3.3-11.2-11.7a103 103 0 0 0-15.6-14.5q-2.5-2.5-3.7-3-1.1-.7-3.7-3.2c-2-2-3-2.7-3.9-3.2a12 12 0 0 1-2.6-1.9 13 13 0 0 0-3.6-2.4c-1.7-.9-2.6-1.5-3.7-2.5q-1.4-1.2-2.5-1.9t-2.5-1.8q-1.3-1.3-3.8-2.5c-1.9-1-2.7-1.5-3.8-2.6-1.4-1.3-1.8-1.5-9.9-5.6s-8.6-4.3-9.8-5.5a12 12 0 0 0-6.5-3.2c-1.3-.1-1.7-.3-9.8-4.3-8.2-4.2-8.4-4.2-9.9-4.3-1.3-.1-1.8-.3-3.9-1.3s-2.6-1.2-3.8-1.3a9 9 0 0 1-3.6-1.2 8 8 0 0 0-3.6-1.2q-1.4-.1-2.6-.7-1.1-.7-2.6-.7-1.3-.1-2.4-.6-.9-.6-2.5-.6-1.5-.1-2.5-.7c-.9-.4-1.3-.5-3.6-.6s-2.7-.1-3.6-.6-1.3-.5-3.7-.6-2.8 0-3.9-.7l-1.2-.6-4.1-.1c-3.9-.1-4.1-.1-5-.6l-.9-.5h-45m48.6 39 1 .5 6.6.1c6.5.1 6.6.1 7.5.6.8.4 1.2.5 3.5.6 2.4 0 2.7.1 3.8.7s1.4.6 4.1.7c2.5.1 3 .2 3.8.6q.8.5 2.3.5 1.3.2 2.4.6.9.6 2.5.6 1.5.1 2.5.6t2.4.6 2.6.7 2.7.7c1.4.1 1.8.3 4.9 1.8 3 1.5 3.5 1.7 4.8 1.8 1.4.1 1.8.4 14.4 6.6 12.5 6.3 13 6.6 14.3 7.8 1 1 1.9 1.5 3.8 2.5 2 1 2.8 1.5 3.8 2.5l2.4 1.8q1.1.7 2.5 1.9c.8.7 1.9 1.6 2.5 1.9q1.1.6 3.7 3.1a83 83 0 0 1 24.3 23.7q.6 1.2 3.2 3.8c2.4 2.4 2.6 2.8 3.7 4.9.9 1.7 1.5 2.6 2.5 3.7s1.6 2 2.6 3.9c1 2 1.5 2.8 2.5 3.8 1.2 1.3 1.5 1.8 9 16.7 7.5 15 7.7 15.4 7.8 16.8 0 1.3.2 1.8 1.9 5 1.6 3.4 1.8 3.7 1.9 5.1s.2 1.8 1.2 3.7a9 9 0 0 1 1.2 3.6q0 1.5.7 2.6t.7 2.6.6 2.6c.3.7.5 1.8.6 2.5q0 1.4.6 2.3.5 1 .6 2.4 0 1.5.6 2.4c.4.9.5 1.3.5 3.7.1 2.5.2 2.8.7 3.9.6 1.1.7 1.4.7 3.9.1 2.4.2 2.8.6 3.6.5.9.5 1 .6 6.2s.1 5.3.7 6.5l.5 1.1v27.6l-.5 1-.6 1.1-.1 5.3c-.1 5.1-.1 5.3-.6 6.2-.4.8-.5 1.2-.6 3.6s0 2.8-.7 3.9c-.5 1.1-.6 1.4-.7 3.9 0 2.4-.1 2.8-.5 3.7q-.5 1-.6 2.3c-.1 1-.3 1.7-1.2 3.6-1 2-1.1 2.6-1.2 3.8q-.1 1.4-.7 2.7-.7 1.1-.7 2.6a9 9 0 0 1-1.2 3.6c-1 1.9-1.2 2.4-1.2 3.7-.2 1.4-.3 1.7-2.5 6.1-2.3 4.5-2.4 4.8-2.5 6.3s-.2 1.6-3.6 8.3a29 29 0 0 1-4.6 8.1c-1 1.1-1.5 1.9-3 4.8-1.5 3-2 3.7-3.1 4.9-1 1.1-1.6 1.9-2.5 3.7s-1.4 2.6-2.5 3.7c-.8.8-1.6 2-2 2.7s-1.2 1.9-1.9 2.6-1.5 1.8-1.8 2.4c-.4.8-1.5 2.1-4.3 4.9a27 27 0 0 0-4.3 4.9 46 46 0 0 1-6.3 6.9c-4.9 5-5.9 5.9-7 6.6-1.2.6-2.2 1.4-5.2 4.4a25 25 0 0 1-4.8 4.2c-.6.3-1.7 1.1-2.4 1.8l-2.5 1.9q-1.2.7-2.5 2l-2.6 1.8c-.7.4-1.9 1.2-2.6 1.9s-2 1.6-2.7 2q-1.4.9-2.4 1.9c-.8.8-1.8 1.4-5.9 3.4-4.4 2.2-5 2.6-6.3 3.8a48 48 0 0 1-11.8 6.6c-10.1 5-10.4 5.1-11.9 5.3-1.3 0-1.7.2-6.3 2.5s-4.9 2.4-6.2 2.5c-1.2 0-1.8.2-3.6 1.2s-2.4 1-3.6 1.2q-1.4 0-2.6.7t-2.6.7q-1.6 0-2.6.6-1.2.4-2.5.6-1.4 0-2.3.6-1 .4-2.4.6-1.4 0-2.5.6l-2.5.6q-1.4 0-2.6.7c-1.1.5-1.4.6-3.9.6-2.4.1-2.8.2-3.6.6-.8.5-1.1.5-4.9.6s-4 .1-5 .7l-1 .5H255l-1-.5c-1-.6-1.2-.6-5.1-.7s-4-.1-4.9-.6c-.8-.4-1.2-.5-3.6-.6s-2.8 0-3.9-.7c-1.1-.5-1.4-.6-3.9-.7-2.4 0-2.8-.1-3.7-.5q-1-.6-2.5-.6a8 8 0 0 1-3.7-1.2 8 8 0 0 0-3.6-1.2q-1.4-.1-2.6-.7t-2.7-.7c-1.4-.1-1.8-.3-4.9-1.8-3-1.6-3.5-1.7-4.8-1.8s-1.8-.4-7.5-3.1c-5.3-2.6-6.3-3-7.3-3.1-2-.2-2-.3-3.7-1.8-1.5-1.4-1.8-1.6-9-5.2-7-3.5-7.6-3.8-8.8-5-1-1-1.9-1.5-3.8-2.5-2-1-2.8-1.5-3.8-2.5-.7-.7-1.8-1.5-2.4-1.8q-1.1-.6-3.7-3.1-2.7-2.5-3.7-3.1-1.2-.6-3.8-3.2c-2-1.9-3-2.8-3.9-3.3a38 38 0 0 1-8-8q-.5-1-4.3-4.9a32 32 0 0 1-4.3-4.9q-.6-1.1-2-2.5c-.7-.8-1.5-2-1.9-2.7s-1.2-1.9-1.9-2.6l-1.8-2.4q-.6-1.1-2-2.5c-1-1-1.5-2-2.5-3.9a15 15 0 0 0-2.5-3.8c-1.2-1.2-1.6-2-6.4-11.7-5-10-5.2-10.4-5.4-11.8 0-1.3-.2-1.8-2.5-6.2s-2.3-4.9-2.5-6.3a9 9 0 0 0-1.2-3.8 10 10 0 0 1-1.2-3.6q0-1.2-.6-2.2-.4-.9-.6-2.4 0-1.5-.6-2.5c-.4-.9-.5-1.3-.5-3.7-.1-2.5-.2-2.8-.7-3.9q-.7-1.2-.8-2.6 0-1.6-.6-2.6c-.4-1.1-.5-1.5-.5-5-.1-3.6-.1-3.8-.6-4.7l-.5-.9-.1-7.8-.1-7.8-.5-1-.6-1v-18.3l.5-1c.6-1.1.6-1.1.7-6.3.1-5 .1-5.2.6-6.1s.5-1.2.5-3.5c.1-2.3.2-2.7.7-3.8s.5-1.5.6-3.8c0-2.4.1-2.7.6-3.8.5-.9.7-1.5.7-2.7q.1-1.5.6-2.5t.6-2.5q.2-1.5.6-2.5.6-.9.6-2.4.1-1.3.6-2.4.6-.9.6-2.5.2-1.5.6-2.5.6-.9.6-2.4c.1-1.3.3-1.7 2-5s1.7-3.7 1.8-5c.2-1.4.4-1.8 8.5-18.2s8.5-16.8 9.7-18.1c.7-.7 1.5-1.8 1.8-2.4s1.2-1.7 1.9-2.5a14 14 0 0 0 2.5-3.7 16 16 0 0 1 2.4-3.6l1.9-2.6c.5-1 1.3-2 3.2-3.9a18 18 0 0 0 3.1-3.7c.4-.9 2.3-2.9 9.9-10.5a82 82 0 0 1 10.5-10q1.2-.5 3.8-3.1c2-2 3-2.7 3.9-3.2.7-.4 1.9-1.2 2.6-1.9l2.4-1.8q1.1-.6 2.5-1.9c1.1-1 1.9-1.6 3.7-2.5s2.6-1.4 3.7-2.5c1.1-1 1.9-1.6 3.9-2.6s2.8-1.5 3.8-2.5c1.3-1.2 1.8-1.5 16.7-9 15-7.5 15.4-7.6 16.8-7.8 1.3 0 1.8-.2 5-1.9 3.4-1.6 3.7-1.8 5.1-1.9s1.8-.2 3.7-1.2a9 9 0 0 1 3.6-1.2q1.5 0 2.4-.6 1-.5 2.5-.6c1.4 0 1.8-.2 4-1.3 2-1 2.5-1.2 3.7-1.3q1.5 0 2.4-.6c.9-.4 1.3-.5 3.7-.5 2.4-.1 2.8-.2 3.7-.6q1-.6 2.4-.7 1.6 0 2.6-.6c1-.4 1.6-.5 3.8-.6 2.4 0 2.7 0 3.7-.6s1.2-.6 5.1-.7 4-.1 5-.7l1.1-.5h17.5l1.1-.5c1-.6 1.2-.7 3.9-.7 2.6 0 2.8 0 3.8.5m561.4 357.6q-.6.1-1.5.6l-.9.5-14 .1-14 .1-.9.5-.9.5-11.6.1-11.6.1-.9.5-.9.5-12.8.1-12.8.1-1 .5-1 .6h-72.9l-1-.6-1.1-.5-12.7-.1-12.7-.1-.9-.5-.9-.5h-70.4l-.9.5c-.9.5-1 .5-6.2.6s-5.3.1-6.3.6q-1 .6-2.4.7-1.5 0-2.5.6c-1 .4-1.5.5-3.8.5-2.6.1-2.8.1-3.8.7s-1.4.7-2.6.8c-1.3 0-1.8.2-3.7 1.2a8 8 0 0 1-3.7 1.2c-1.5 0-1.7.2-9.4 4a35 35 0 0 0-9.3 5.3c-.8.8-2 1.6-2.7 2-2 1-6.9 5.9-8 7.9-.3.8-1.2 2-1.9 2.7s-1.5 1.8-1.8 2.4q-.5 1-1.7 2.3c-1 1-1.6 1.9-3.4 5.5-2.1 4.1-2.2 4.4-2.3 5.8s-.3 1.8-2 5-1.7 3.8-1.8 5q-.1 1.5-.6 2.5t-.6 2.5-.7 2.5c-.4.9-.5 1.3-.6 3.7s0 2.8-.7 3.9l-.6 1.2v3.8c-.1 3.6-.1 3.9-.7 5l-.5 1.2v42.4l.5.9.5.9.1 7.8.1 7.8.6 1.1.6 1.1.1 5.2c.1 5.1.1 5.2.6 6.4.6 1.1.6 1.4.6 5 .1 3.6.1 3.8.6 4.7s.5 1 .6 7.4.1 6.5.6 7.4.5 1 .6 6.2l.1 5.3.6 1.1.6 1.1.1 5.3c.1 5.2.1 5.3.6 6.2l.5.9.1 10.3.1 10.3.6 1 .5 1v60.3l-.5 1-.6 1.1-.1 12.8-.1 12.8-.5.9-.5.9v57.8l.5.9c.5.9.5 1.1.6 5 .1 4 .1 4.1.6 5.1s.6 1.3.6 3.6c.1 2.3.2 2.8.6 3.8q.6 1.2.7 2.5t.7 2.5.7 2.6c0 1.2.2 1.8 1.2 3.6a8 8 0 0 1 1.2 3.7c0 1.5.2 1.7 5.3 12a50 50 0 0 0 8.3 14.2c.3.6 1.2 1.7 2 2.5.7.8 1.6 2 2 2.8 1 2 5.7 6.7 7.7 7.7.7.4 2 1.3 2.7 2s1.9 1.6 2.5 1.9 1.7 1.1 2.4 1.8c1.2 1.1 2 1.6 8.1 4.7 6.6 3.3 6.8 3.4 8.3 3.5a8 8 0 0 1 3.7 1.3l2.2 1 2.7.2c2.4 0 2.8.1 3.7.5q.9.6 2.4.6 1.4.1 2.6.8l1.2.6 5.3.1c5.1.1 5.3.1 6.3.6l1 .5h25l.9-.5.9-.5 10.2-.1 10.2-.1 1.1-.6 1.1-.6 6.6-.1c6.6-.1 6.6-.1 7.5-.6l.9-.5 7.8-.1 7.8-.1.9-.5c.9-.5 1-.5 7.4-.6s6.5-.1 7.4-.6 1-.5 7.4-.6l6.5-.1 1.1-.6 1.1-.6 7.8-.1 7.8-.1.9-.5.9-.5 9-.1 9-.1.9-.5.9-.5 57.7-.1 57.7-.1.9-.5.9-.5 10.2-.1 10.2-.1 1.1-.6c1.1-.6 1.1-.6 5.2-.7s4.1-.1 5.1-.6 1.3-.6 3.7-.6c2.4-.1 2.8-.2 3.7-.6.9-.5 1.3-.6 3.7-.6 2.4-.1 2.8-.2 3.7-.6q1-.6 2.4-.7t2.6-.7 2.7-.7c1.5 0 1.7-.1 11.8-5.2a45 45 0 0 0 14.3-8.5A63 63 0 0 0 986 871c3.9-7.7 4-7.9 4-9.4.1-1.3.3-1.8 1.3-3.9s1.2-2.6 1.3-3.7q0-1.2.6-2.5.5-1 .6-2.6.1-1.4.7-2.4c.4-.9.5-1.3.5-3.5.1-2.2.2-2.7.7-3.7.5-1.1.5-1.4.6-5.2.1-4 .1-4 .7-5.1l.6-1.1v-52.4l-.6-1.1-.6-1.1-.1-6.5c-.1-6.5-.1-6.5-.6-7.4s-.5-1-.6-6.2-.1-5.3-.6-6.2-.5-1-.6-6.1-.1-5.2-.6-6.2-.5-1.2-.6-6.3c-.1-5.2-.1-5.3-.6-6.2s-.5-1-.6-7.4l-.1-6.5-.5-1-.6-1v-68.1l.6-1 .5-1.1.1-6.5c.1-6.5.1-6.5.6-7.4s.5-1 .6-6.2c.1-5.1.1-5.3.6-6.3s.5-1.2.6-6.2l.1-5.2.6-1.1.6-1.1.1-5.3c.1-5.2.1-5.3.6-6.2s.5-1 .6-6.2.1-5.3.6-6.2l.5-.9v-42.8l-.5-.9c-.5-.9-.5-1.1-.6-4.9s-.1-4-.6-5q-.6-1-.7-2.5t-.7-2.7-.7-2.6a8 8 0 0 0-1.2-3.6 8 8 0 0 1-1.2-3.7c0-1.4-.2-1.7-3.4-8.2-3-6.1-3.4-6.8-4.6-8-.7-.7-1.6-2-2-2.8-.7-1.3-1.4-2-6.3-6.8l-5.5-5.4-3.6-1.8a17 17 0 0 1-4.9-3.1 12 12 0 0 0-6.5-3.2c-1.3-.1-1.8-.3-5-2s-3.7-1.7-5-1.8q-1.4-.2-2.4-.6-.9-.6-2.5-.6-1.5-.1-2.5-.6t-2.4-.6-2.4-.7c-.9-.4-1.3-.5-3.8-.6s-2.9-.1-3.8-.6l-1-.5h-7.6l-7.6-.1-1.2-.7-1.2-.6H869m34.6 34 1.2.7 6.6.1c6.6.1 6.6.1 7.5.6.8.5 1.1.5 4.9.6 3.7.1 4 .1 4.9.6q.8.5 2.3.5c1.2.1 1.7.3 4.4 1.6 2.4 1.3 3.2 1.8 4.3 2.8q1.3 1.2 2.5 1.9 1.1.5 3.2 2.6l2 2.1 2.8 5.4c2.5 5 2.7 5.5 2.8 6.8q0 1.5.6 2.4.5 1 .6 2.4 0 1.6.6 2.6c.4 1 .5 1.6.6 3.8 0 2.5 0 2.7.7 3.8l.6 1.3v42.4l-.6 1.3-.7 1.2-.1 9-.1 9-.5.9c-.5.9-.5 1-.6 6.2s-.1 5.3-.6 6.2l-.5.9-.1 7.8c-.1 7.8-.1 7.8-.6 8.8s-.5 1-.6 8.8l-.1 7.8-.5.9-.5.9-.1 12.7-.1 12.7-.5 1-.5 1v15.4l.5.9.5.9.1 12.8.1 12.8.5.9.5.9.1 7.7.1 7.7.5 1 .5 1 .1 11.4.1 11.4.7 1.2.6 1.3v30l-.6 1.3-.7 1.2-.1 6.5c-.1 6.4-.1 6.5-.6 7.5s-.5 1.4-.6 3.6-.1 2.7-.6 3.6-.5 1.3-.6 3.7-.1 2.8-.5 3.7q-.5 1-.6 2.3c-.1 1-.3 1.7-1.3 3.8a10 10 0 0 0-1.3 4c-.2 1.5-.3 1.7-4.2 9.5a35 35 0 0 1-5.2 9.3q-1.2 1.3-1.9 2.5c-.8 1.7-3.9 4.6-5.6 5.5q-1.3.7-2.7 2c-.8.7-1.9 1.6-2.5 1.9s-1.7 1.1-2.4 1.8a23 23 0 0 1-6.7 4c-5 2.5-5.5 2.7-6.8 2.8s-1.8.2-3.8 1.3c-2.1 1-2.6 1.2-4 1.3q-1.5 0-2.4.6a7 7 0 0 1-2.5.6q-1.5 0-2.5.6c-.9.4-1.3.5-3.6.5-2.3.1-2.7.2-3.6.6-.9.5-1.3.6-3.7.6-2.5.1-2.8.2-3.8.7l-1.1.6-5.3.1c-5.2.1-5.3.1-6.2.6s-1 .5-7.5.6-6.6.1-7.5.6l-.9.5-10.3.1-10.3.1-.9.5-.9.5-18.9.1-18.9.1-1 .5-1 .5-17.7.1-17.7.1-1.1.6-1.1.6-10.3.1-10.3.1-.9.5-.9.5-10.3.1-10.3.1-.9.5-.9.5-10.2.1-10.2.1-.9.5-.9.5-10.4.1-10.4.1-1.2.6-1.3.7h-29.9l-1.2-.6-1.2-.7-5.3-.1c-5-.1-5.4-.1-6.3-.6q-.9-.4-2.4-.5-1.4-.2-2.4-.6-.9-.6-2.4-.6c-1.2-.1-1.7-.3-3.8-1.3a10 10 0 0 0-3.6-1.3c-2-.2-2-.2-3.6-1.7-.8-.8-2-1.6-2.7-2a13 13 0 0 1-2.6-1.9q-1.2-1.2-2.5-1.9a6 6 0 0 1-3.1-3.2c-.4-.7-1.2-1.9-1.9-2.6a37 37 0 0 1-5.3-9.2c-3.9-7.7-4-8-4-9.4a9 9 0 0 0-1.3-3.8 9 9 0 0 1-1.2-3.6q0-1.4-.6-2.3c-.4-.9-.5-1.3-.5-3.7a10 10 0 0 0-.6-3.9q-.6-1.2-.7-2.5t-.6-2.4l-.6-1.1-.1-5.2c-.1-5.2-.1-5.2-.7-6.2l-.5-1v-57.9l.6-1.1.5-1.2v-82.6l-.5-1-.5-1-.1-10.2-.1-10.2-.5-.9-.5-.9-.1-19-.1-19-.4-1c-.5-.9-.5-1.2-.5-5 0-4 0-4 .6-5.2l.5-1.2.1-11.4.1-11.4.5-.9c.5-.9.5-1 .6-4.8s0-4 .5-5.1.6-1.5.7-3.8c0-2.4 0-2.7.7-3.8.5-1.1.6-1.4.6-3.8.1-2.3.2-2.7.7-3.8s.5-1.5.6-3.8v-2.6l1.1-2.2c1-1.9 1.1-2.4 1.2-3.7.2-1.5.2-1.7 3.5-8.1 3-6.2 3.3-6.7 4.6-8q1.3-1.5 2-2.8.7-1.4 2.5-3.1c1.7-1.7 2-1.9 5.5-3.6 2.7-1.3 4-2.1 4.7-2.8.9-.8 1.1-1 2.2-1q1-.2 3.3-1.3c1.8-.9 2.3-1 3.5-1.2q1.5 0 2.4-.6 1-.4 2.5-.6c1.2 0 1.8-.2 2.7-.7 1.1-.5 1.4-.6 3.9-.6 2.4-.1 2.8-.2 3.6-.6.8-.5 1.1-.5 4.9-.6s4-.1 4.9-.6l.9-.5 7.8-.1 7.8-.1.9-.5.9-.5 39-.1 39-.1 1.2-.6 1.2-.7h15.1l15.1-.1.9-.5.9-.5 12.8-.1 12.8-.1.9-.5.9-.5 9-.1 9-.1.9-.5.9-.5 10.3-.1 10.3-.1 1.1-.6 1.1-.6 12.6-.1 12.6-.1.9-.5.9-.5 14.1-.1 14.1-.1 1-.5 1-.6h12.7zm-645.9 85.9q-.6.1-1.4.5-.9.5-2.2.6t-2.5.6q-1.2.4-2.6.6c-1.5 0-1.7.2-10.8 4.7-9 4.5-9.3 4.7-10.7 6a14 14 0 0 1-3.7 2.5c-2.3 1.1-2.3 1.2-6.1 4.9-2.8 2.8-4 3.9-4.9 4.3-1.3.7-4.4 3.6-5.3 5q-.6 1-1.6 1.7a6 6 0 0 0-2.5 2.8c-.3.5-1.5 2-3 3.5q-2.5 2.7-3.1 3.7-.6 1.1-1.9 2.5a10 10 0 0 0-1.9 2.5q-.6 1.1-3.1 3.7c-2 2-2.7 3-3.2 3.9a12 12 0 0 1-1.9 2.6 13 13 0 0 0-2.4 3.6 16 16 0 0 1-2.4 3.6c-.7.7-1.5 1.9-1.9 2.6s-1.2 2-2 2.7c-.7.8-1.6 1.9-1.9 2.5l-1.8 2.4c-1 1-1.5 1.9-2.4 3.6s-1.4 2.6-2.5 3.7c-1 1.1-1.6 2-2.5 3.7q-1.1 2.4-2.4 3.7t-2.5 3.8c-1 1.8-1.6 2.7-2.6 3.8s-1.6 2-2.6 4a18 18 0 0 1-2.5 3.7 13 13 0 0 0-2.4 3.6 13 13 0 0 1-2.5 3.7 15 15 0 0 0-2.6 4 18 18 0 0 1-2.5 3.7 13 13 0 0 0-2.4 3.6 12 12 0 0 1-2.5 3.7c-.7.8-1.6 1.9-1.9 2.5s-1.1 1.7-1.8 2.4c-1 1-1.5 1.9-2.5 3.8-1 2-1.5 2.8-2.6 4-1 1-1.6 1.9-2.5 3.6s-1.5 2.6-2.4 3.6c-.7.7-1.5 1.9-1.9 2.6s-1.2 1.9-1.9 2.6a13 13 0 0 0-2.4 3.6c-.9 1.7-1.5 2.6-2.5 3.7q-1.2 1.4-1.9 2.5t-1.9 2.5-1.9 2.5l-1.8 2.4c-.7.7-1.5 1.8-1.8 2.4s-1.1 1.7-1.8 2.4l-1.9 2.6c-.4.7-1.3 2-2 2.7q-1.2 1.4-1.9 2.5l-1.8 2.4c-.7.7-1.5 1.8-1.8 2.4s-1.2 1.7-1.9 2.5c-.8.8-1.6 2-2 2.7s-1.2 1.9-1.9 2.6-1.5 1.8-1.8 2.4q-.6 1.1-1.9 2.5t-1.9 2.5l-1.8 2.4c-.7.7-1.5 1.8-1.8 2.4q-.6 1.2-3.2 3.8-2.6 2.7-3.2 3.8c-.3.6-1.2 1.7-1.9 2.5s-1.6 1.9-1.9 2.5l-1.8 2.4q-1.2 1.3-1.9 2.5-.5 1.3-1.7 2.5l-1.7 2.5q-.7 1.2-2 2.6-1.2 1.4-1.9 2.5l-1.8 2.4c-.7.7-1.5 1.8-1.8 2.4s-1.2 1.7-1.9 2.5q-1.3 1.3-2.5 3.7t-2.6 3.8-2 2.6c-.3.6-1.1 1.7-1.8 2.4s-1.5 1.9-1.9 2.6-1.2 2-2 2.7q-1.3 1.3-2.5 3.7c-.8 1.7-1.5 2.6-2.4 3.6-1 1-1.5 1.9-2.5 3.8-1 2-1.5 2.8-2.6 4-1 1-1.6 1.9-2.5 3.6s-1.5 2.6-2.4 3.6a20 20 0 0 0-3.1 5c-1.6 3.2-2 3.9-3.2 5.1a46 46 0 0 0-6.5 11.7c-5 10.1-5.1 10.3-5.2 11.8-.1 1.3-.3 1.8-1.3 3.9s-1.2 2.6-1.3 3.8q-.1 1.4-.7 2.4c-.4.9-.5 1.3-.6 3.7s-.1 2.8-.6 3.7l-.5 1v12.6l.5 1.2q.6 1.2.7 2.5t.7 2.5.7 2.7c0 1.4.2 1.8 2.1 5.6 1.8 3.6 2.2 4.2 3.4 5.5A73 73 0 0 0 23.5 952c.7.5 4.9 2.6 9.2 4.7 7.6 3.8 7.8 4 9.3 4 1.3.1 1.8.3 3.9 1.3s2.6 1.2 3.8 1.3l2.5.6q1.1.5 2.5.6 1.3.2 2.5.7c1 .4 1.5.5 3.7.6s2.7.1 3.6.5q1 .5 2.3.6t2.5.7c1 .4 1.5.5 3.8.6 2.4 0 2.7 0 3.8.7 1.2.6 1.2.6 5.3.7 3.9.1 4.1.1 5 .6.8.5 1.1.5 4.9.6s4 .1 4.9.6 1.1.5 5 .6 4.1.1 5 .6 1 .5 6.1.6l5.2.1 1.1.6 1.1.6 6.6.1c6.6.1 6.6.1 7.5.6s1 .5 7.3.6 6.4.1 7.3.6 1.1.5 4.7.6 3.9 0 5 .6 1.3.5 6.4.6l5.2.1 1.1.6c1.1.6 1.1.6 5.2.7 3.9.1 4.1.1 5 .6s1 .5 6.1.6 5.2.1 6.1.6 1.1.5 5 .6 4.1.1 5 .6 1.1.5 5 .6 4.1.1 5 .6c.8.5 1.1.5 4.9.6 4 .1 4 .1 5.1.7s1.3.6 3.8.7c2.4 0 2.8.1 3.7.6s1.2.5 5 .6 4 .1 4.9.6c.8.4 1.2.5 3.5.5 2.3.1 2.7.2 3.8.7s1.4.5 5.2.6c4 .1 4 .1 5.1.7s1.3.6 3.8.7c2.4 0 2.8.1 3.7.6s1.2.5 5 .6 4 .1 4.9.6c.8.4 1.2.5 3.6.6s2.8.1 3.7.6 1.2.5 5 .6c4 .1 4 .1 5.1.7s1.1.6 5.2.7c3.9.1 4.1.1 5 .6.8.5 1.1.5 4.9.6s4 .1 4.9.6c.8.4 1.2.5 3.6.6s2.8.1 3.7.6 1 .5 6.3.6q5.4 0 5.7.3c.7.4 122.5.4 123.3 0l2-.4h1.6l10.5-5.4 10.4-5.3 3-3q3-3 3.6-4.2l1.8-2.4a37 37 0 0 0 5.3-9.4c3.9-7.7 4-8.1 4.1-9.5q.1-1.4.7-2.4c.4-.9.5-1.3.5-3.6.1-2.3.2-2.7.7-3.8l.5-1.2v-5.2c0-5.2 0-5.2-.5-6.1s-.5-1-.6-6.2-.1-5.3-.6-6.3q-.6-1-.7-2.4 0-1.5-.6-2.4c-.4-.9-.5-1.3-.5-3.7l-.1-2.7-1.2-2.4c-1.1-2.1-1.3-2.6-1.4-4s-.2-1.7-1.9-5c-1.5-3.2-1.8-3.8-1.9-5 0-1.4-.4-2-12.1-25.5-11.8-23.6-12-24.1-13.3-25.4-1.2-1.3-1.5-1.8-11.2-21.2-9.9-19.7-10-19.9-11.3-21.3s-1.5-1.6-8.7-16.2c-7.2-14.4-7.4-14.8-8.7-16.2a31 31 0 0 1-5-8.7c-3.5-7-3.7-7.4-5-8.7a20 20 0 0 1-3.8-6.3c-2.2-4.3-2.6-5-3.7-6.2a22 22 0 0 1-3.7-6.2c-2.2-4.4-2.6-5-3.8-6.3a22 22 0 0 1-3.8-6.3c-2.2-4.3-2.6-5-3.7-6.2-1-1.1-1.5-1.9-3.1-5s-2-3.9-3.1-5c-1-1.1-1.6-1.9-3.6-6a22 22 0 0 0-3.7-6.1 39 39 0 0 1-5.7-10.1c-4-8-4.4-8.8-5.6-10s-1.6-2-8.7-16.2c-7.2-14.3-7.6-15-8.8-16.3s-1.6-2-5.7-10.1a39 39 0 0 0-5.6-10c-1-1-1.6-2-3.1-4.9s-2.1-3.8-3.1-4.9c-1-1-1.5-1.9-2.5-3.8a14 14 0 0 0-3.8-5.1q-2.5-2.6-3.2-3.8a94 94 0 0 0-15.4-14.7c-1.4-1.4-1.7-1.6-10.5-6l-9.2-4.5h-2.6c-2.4-.1-2.7-.2-3.8-.8l-1.2-.6zm19.8 45.1q1.1.5 2.5.6c1.4.1 1.8.3 5.8 2.3l4.3 2.2 4.4 4.4a28 28 0 0 1 5 5.5q.6 1.3 1.8 2.5c.7.7 1.5 1.9 1.9 2.6q.7 1.3 2 2.7c1.2 1.3 1.6 1.8 3.7 6.1a21 21 0 0 0 3.6 6 54 54 0 0 1 6.9 12.6 53 53 0 0 0 7 12.7c1.3 1.4 1.5 1.8 8.1 14.9a72 72 0 0 0 8 14.8c1.2 1.2 1.6 1.9 6.2 11.2 4.8 9.5 5 9.9 6.3 11.3s1.5 1.7 5 8.8c3.5 7 3.7 7.5 5 8.8s1.5 1.8 6.2 11.1c4.7 9.4 4.9 9.7 6.2 11.1s1.5 1.6 6.2 11.1l11.2 22.4c6 12 6.5 12.9 7.7 14.1 1.2 1.3 1.6 2.2 8.6 16.1 7.1 14.2 7.4 14.7 8.6 16s1.5 1.8 12.2 23l10.8 21.7.2 1.5c0 1.3.2 1.8 1.2 3.7a8 8 0 0 1 1.2 3.7q0 1.5.7 2.7t.7 2.6.6 2.5l.5 1v15.2l-1.2 2.4a10 10 0 0 0-1.3 3.9 8 8 0 0 1-1 3.1c-.8 1.6-1.2 2.1-5.1 6l-4.3 4.4-5.5 2.8c-5.3 2.6-5.6 2.7-7 2.9-1.3 0-1.8.2-3.9 1.3-2 1-2.6 1.2-3.8 1.3q-1.6 0-2.6.6c-1 .4-1.6.5-3.8.5-2.4.1-2.7.2-3.6.7-1 .5-1 .5-6.1.5l-5.1.1-1 .5-1 .6h-50.7l-1-.6-1.1-.5-7.7-.1-7.7-.1-.9-.5c-.9-.5-1-.5-7.5-.6s-6.6-.1-7.5-.6-1-.5-6.2-.6-5.3-.1-6.2-.6-1-.5-6.2-.6l-5.3-.1-1.1-.6c-1.1-.6-1.1-.6-4.9-.7-3.6 0-3.9 0-5-.6s-1.4-.5-5.2-.6-4-.1-4.9-.6-1-.5-6.2-.6-5.3-.1-6.2-.6c-.8-.5-1.1-.5-4.9-.6-4-.1-4-.1-5.1-.7s-1.1-.6-4.9-.7c-3.6 0-3.9 0-5-.6s-1.4-.5-5.2-.6-4-.1-4.9-.6-1-.5-6.2-.6-5.3-.1-6.2-.6-1-.5-6.1-.6l-5.2-.1-1.1-.6-1.1-.6-5.3-.1c-5.2-.1-5.3-.1-6.2-.6s-1-.5-6.2-.6-5.3-.1-6.2-.6-1-.5-7.4-.6-6.5-.1-7.4-.6-1-.5-7.5-.6l-6.6-.1-1.1-.6-1.1-.6-5.3-.1c-5.2-.1-5.3-.1-6.2-.6s-1-.5-6.1-.6-5.2-.1-6.1-.6-1.1-.5-5-.6c-3.8-.1-4.2-.2-5.1-.6s-1.4-.5-3.7-.6-2.8-.1-3.7-.6-1.3-.5-3.7-.6-2.8-.1-3.7-.5q-.9-.6-2.4-.6-1.4-.1-2.4-.6t-2.5-.6-2.7-.7q-1.2-.7-2.6-.7-1.4-.1-2.4-.6t-2.5-.6c-1.4-.2-1.7-.3-6.9-2.9-5-2.5-5.5-2.7-6.9-4l-2.2-1.8q-.6-.3-1-1l-1.7-2.2c-1.7-1.8-3-4.3-3.2-6.4q0-1.4-.6-2.5a6 6 0 0 1 0-4.8q.5-1.1.6-2.5.1-1.5.6-2.5t.6-2.4c.2-1.3.3-1.8 4.8-10.8s4.8-9.5 6-10.7c1-1 1.5-1.9 2.4-3.6s1.5-2.6 2.5-3.7c.7-.8 1.6-1.9 1.9-2.5l1.8-2.4c1-1 1.5-1.9 2.5-3.8 1-2 1.5-2.8 2.6-3.9q1.3-1.4 1.9-2.5l1.8-2.4c.7-.7 1.5-1.8 1.8-2.4s1.1-1.7 1.9-2.5 1.6-1.9 1.9-2.5l1.8-2.4c.7-.7 1.5-1.9 1.9-2.6s1.2-1.9 1.9-2.6 1.5-1.8 1.8-2.4 1.1-1.7 1.9-2.5 1.6-1.9 1.9-2.5q.6-1.1 3.1-3.7 2.5-2.7 3.1-3.7c.3-.6 1.1-1.7 1.9-2.5s1.6-1.9 1.9-2.5l1.8-2.4c.7-.7 1.5-1.9 1.9-2.6s1.2-1.9 1.9-2.6 1.5-1.8 1.8-2.4q.6-1.1 3.1-3.7 2.5-2.7 3.1-3.7c.3-.6 1.2-1.7 1.9-2.5.8-.8 1.6-2 2-2.7s1.2-1.9 1.9-2.6q1.2-1.2 1.9-2.5.6-1.2 1.6-2.2l1.8-2.4c.5-.8 1.4-2 2.1-2.7s1.5-1.8 1.8-2.4 1.1-1.7 1.9-2.5 1.6-1.9 1.9-2.5l1.8-2.4c.7-.7 1.5-1.9 1.9-2.6.5-1 1.3-2 3.2-3.9q2.5-2.7 3.1-3.7c.3-.6 1.1-1.7 1.8-2.4 1-1 1.5-1.9 2.5-3.8 1-2 1.5-2.8 2.6-3.9.7-.8 1.6-1.9 1.9-2.5l1.8-2.4c.7-.7 1.5-1.8 1.8-2.4s1.2-1.7 1.9-2.5 1.6-1.9 1.9-2.5 1.2-1.7 1.9-2.5 1.6-1.9 1.9-2.5 1.1-1.7 1.8-2.4c1-1 1.5-1.9 2.5-3.8 1-2 1.5-2.8 2.5-3.8.7-.7 1.5-1.8 1.8-2.4s1.1-1.7 1.9-2.5 1.6-1.9 1.9-2.5l1.8-2.4c.7-.7 1.5-1.9 1.9-2.6s1.2-2 2-2.7c.7-.8 1.6-1.9 1.9-2.5l1.8-2.4c1-1 1.5-1.9 2.4-3.6s1.5-2.6 2.5-3.7c.7-.8 1.6-1.9 1.9-2.5l1.8-2.4c1-1 1.5-1.9 2.5-3.8 1-2 1.5-2.8 2.6-3.9.7-.8 1.6-1.9 1.9-2.5l1.8-2.4c.7-.7 1.5-1.9 1.9-2.6s1.2-1.9 1.9-2.6c1-1 1.5-1.9 2.4-3.6s1.5-2.6 2.5-3.7c.7-.8 1.6-1.9 1.9-2.5l1.9-2.5c.7-.8 1.6-1.9 1.9-2.5l1.8-2.4c.7-.7 1.5-1.8 1.8-2.4q.6-1.1 3-3.6 2.5-2.5 3.2-3.9a51 51 0 0 1 7.6-8.3 51 51 0 0 1 10.6-9.4l2.7-2c.7-.4 2-1.3 2.7-2 1.6-1.5 1.7-1.5 3.7-1.7 1.1 0 1.8-.3 3.5-1.2a9 9 0 0 1 3.5-1.2q1.4 0 2.5-.7c1.2-.6 1.3-.6 3.8-.6 2.4 0 2.7 0 3.8.5"/></svg>