<svg xmlns="http://www.w3.org/2000/svg" width="1000" height="1000" viewBox="0 0 1000 1000"><g transform="scale(0.2)"><g transform="translate(0.000000,5000.000000) scale(0.100000,-0.100000)"
fill="#141413" stroke="none">
<path d="M27020 42379 l-7365 -1048 -2310 -65 c-1270 -36 -2373 -66 -2450 -66
-111 -1 -788 61 -3279 299 l-3140 301 -1223 0 -1223 0 -876 -236 -875 -235
-887 -691 c-488 -380 -899 -702 -913 -717 -17 -17 -144 -297 -359 -791 l-333
-765 -134 -765 -134 -765 -69 -4975 -69 -4975 -677 -5555 c-454 -3718 -682
-5560 -691 -5571 -17 -20 -17 -58 0 -78 10 -12 48 -511 146 -1919 l131 -1902
274 -853 274 -852 439 -706 439 -706 669 -569 670 -568 1599 -513 1599 -513
1865 0 1865 0 4906 611 c4795 597 4910 611 5071 609 91 0 1477 -30 3080 -65
l2915 -65 1335 -149 c734 -82 3054 -342 5155 -577 l3820 -428 1433 32 1432 32
1290 340 1291 341 642 371 642 371 535 533 535 534 618 1237 617 1238 945
5075 946 5075 1291 4050 1292 4050 100 1166 c75 859 105 1170 115 1183 12 14
12 19 -1 34 -8 9 -120 348 -248 752 l-234 735 -331 333 -330 332 -775 306
-775 306 -820 69 -820 69 -1155 -170 c-928 -137 -1157 -168 -1167 -158 -10 11
81 341 462 1675 l474 1661 70 1256 71 1255 -303 642 -302 641 -267 234 -267
233 -1283 507 -1283 507 -225 4 c-499 9 -5603 63 -5840 62 l-255 -1 -7365
-1049z m6245 -1184 l4120 -35 1490 -238 1490 -238 635 -403 c349 -221 642
-410 651 -419 13 -13 37 -193 113 -847 53 -456 96 -843 96 -860 0 -16 -227
-1033 -505 -2260 l-505 -2230 -340 -2883 -340 -2882 -645 -3200 -644 -3199
-408 -2813 -407 -2813 32 -1907 32 -1908 170 -780 170 -780 236 -436 c206
-382 234 -439 221 -451 -13 -13 -91 -13 -598 -5 -321 6 -2292 37 -4379 68
l-3795 58 -1760 -203 c-2467 -284 -2662 -307 -6220 -718 l-3180 -368 -2400 -3
-2400 -2 -2195 170 -2195 171 -1370 271 -1370 271 -886 377 -886 376 -621 517
-620 517 -510 1023 -509 1023 -302 1458 -302 1458 36 3943 35 3944 305 2476
305 2476 540 2947 541 2947 276 825 277 824 411 551 411 550 514 275 515 275
765 173 765 172 3175 200 3175 200 5026 950 5026 950 2189 239 c1521 166 2226
239 2309 240 66 0 1974 -15 4240 -34z m13389 -8599 c192 -69 358 -134 369
-143 10 -10 93 -123 183 -250 l165 -233 -32 -772 -31 -773 -344 -1820 -343
-1820 -100 -329 -100 -329 -36 -342 -35 -342 -170 -644 -170 -644 -135 -780
-135 -780 -170 -545 -170 -545 -65 -465 -65 -465 -175 -630 -174 -630 -97
-600 -96 -600 -69 -132 -69 -132 0 -206 0 -205 -69 -139 -70 -138 -66 -469
-67 -469 -309 -1234 -310 -1234 -234 -535 -235 -535 0 -103 0 -103 -239 -478
-239 -478 -385 -384 c-275 -274 -389 -381 -398 -376 -34 21 -469 338 -476 348
-5 7 -115 239 -245 517 l-235 505 -137 507 -137 508 -99 982 -100 983 0 2215
0 2215 100 1289 100 1290 235 1750 235 1751 172 690 171 690 104 241 103 241
0 134 0 134 134 340 135 340 36 274 36 275 235 805 235 806 70 518 69 518 101
234 c56 129 109 241 118 249 9 8 457 136 996 285 l980 271 675 33 c371 18 686
30 700 26 14 -4 182 -64 374 -133z"/>
<path d="M10175 31064 c-258 -35 -480 -63 -491 -64 -12 0 -224 -92 -470 -205
l-449 -205 -131 -133 -131 -132 -166 -437 -167 -438 -100 -1702 -100 -1701
-375 -2781 -375 -2781 -32 -1365 -32 -1365 67 -502 67 -503 174 -348 174 -347
159 -155 160 -155 299 -134 299 -134 988 -33 989 -33 1746 235 c1674 226 1754
236 1902 235 85 0 1228 -15 2540 -32 l2385 -32 296 66 296 66 334 201 334 200
202 404 202 404 -139 1204 -140 1203 0 1625 0 1625 171 1440 171 1440 138 485
139 485 236 1295 235 1294 0 236 0 235 -102 307 -103 306 -280 247 c-154 136
-287 254 -296 261 -9 8 -240 60 -515 115 l-499 101 -895 -11 c-492 -6 -1552
-20 -2355 -32 l-1460 -20 -911 66 -912 65 -1303 -1 -1304 -1 -470 -64z m7685
-1454 l585 -69 390 -100 389 -100 111 -111 111 -111 37 -410 38 -409 -135
-608 -135 -608 -100 -1025 -101 -1024 -35 -1800 -35 -1799 -69 -351 -69 -350
-32 -690 -32 -690 -69 -350 -69 -350 33 -406 32 -407 -70 -142 c-38 -79 -77
-147 -85 -152 -8 -4 -259 -69 -557 -143 l-543 -135 -273 0 -273 0 -194 -65
-194 -65 -237 0 -236 0 -444 -100 -444 -101 -538 -69 -538 -70 -825 0 -825 0
-259 65 -259 65 -479 0 -478 0 -173 69 -172 70 -507 67 c-379 50 -512 71 -525
83 -11 9 -64 90 -118 181 l-99 165 0 445 0 445 -68 405 -68 405 33 375 33 374
-33 339 -32 339 132 1812 132 1811 141 845 141 845 69 820 69 820 66 225 65
225 0 407 0 407 34 75 34 75 114 74 113 75 275 67 275 67 2340 168 2340 168
855 1 855 1 585 -70z"/>
<path d="M25300 29161 c-218 -48 -364 -87 -510 -136 -194 -64 -211 -72 -310
-141 -58 -40 -144 -112 -191 -161 l-87 -88 -97 -230 -98 -230 -4 -105 c-4
-100 -3 -109 32 -209 24 -68 69 -159 131 -266 l95 -163 92 -28 c68 -21 120
-47 203 -100 102 -65 121 -73 237 -102 l126 -32 577 0 578 0 721 65 722 65
289 65 289 66 1505 139 1505 140 478 0 478 0 750 100 c719 96 761 103 1056
170 265 61 365 90 716 206 296 99 442 153 530 196 67 33 124 61 126 64 3 3 60
232 61 246 0 5 -58 37 -128 72 -185 93 -687 239 -1137 332 -288 59 -354 69
-665 100 l-345 34 -3710 -1 -3710 0 -305 -68z"/>
<path d="M27985 22159 c-1549 -66 -1609 -69 -1895 -103 -285 -34 -303 -38
-520 -101 l-225 -65 -273 0 -273 0 -244 -69 c-237 -67 -251 -72 -442 -171
l-198 -102 -129 -126 c-126 -125 -129 -129 -192 -257 l-64 -130 0 -280 0 -280
64 -130 c54 -110 74 -140 127 -192 62 -59 73 -65 294 -157 l231 -96 262 0
c402 0 595 26 1442 195 l675 135 1386 140 1385 140 775 0 774 0 705 100 c697
98 708 100 975 169 l270 69 420 194 420 194 3 135 3 134 -63 61 c-61 60 -74
67 -428 227 l-365 165 -355 71 c-338 67 -384 73 -955 136 l-600 65 -695 -1
c-685 -2 -718 -3 -2295 -70z"/>
</g></g></svg>