<svg xmlns="http://www.w3.org/2000/svg" width="1000" height="1000" viewBox="0 0 1000 1000"><g fill="#141413"><path d="m540.4 152.4-147.3 21-46.2 1.3-49 1.3c-2.2 0-15.8-1.2-65.6-6l-62.8-6h-48.9l-17.5 4.7-17.5 4.7-17.8 13.8c-9.7 7.6-18 14-18.2 14.4-.4.3-2.9 6-7.2 15.8l-6.7 15.3-2.6 15.3-2.7 15.3-1.4 99.5-1.4 99.5-13.5 111.1a10746 10746 0 0 1-13.8 113c.2.2 1 10.2 2.9 38.4l2.6 38 5.5 17 5.5 17.1 8.7 14.1 8.8 14.1 13.4 11.4L61.1 848l32 10.2 32 10.3h74.6l98-12.2c96-12 98.3-12.2 101.5-12.2l61.6 1.3 58.3 1.3 26.7 3L648.9 861l76.4 8.6 28.7-.7 28.6-.6 25.8-6.8 25.8-6.8 12.9-7.4 12.8-7.5 10.7-10.6 10.7-10.7 12.4-24.7L906 769l18.9-101.5 19-101.5 25.7-81 25.9-81 2-23.3a392 392 0 0 1 2.3-24.4c-.2-.1-2.4-7-5-15l-4.7-14.7-6.6-6.7-6.6-6.6-15.5-6.1-15.5-6.1-16.4-1.4-16.4-1.4-23.1 3.4a267 267 0 0 1-23.3 3.2c-.2-.3 1.6-6.9 9.2-33.5l9.5-33.3 1.4-25 1.4-25.2-6-12.8-6.1-12.8-5.3-4.7-5.4-4.7-25.6-10.1-25.7-10.2h-4.5l-116.8-1.3h-5.1zm124.9 23.7 82.4.7 29.8 4.8 29.8 4.7 12.7 8 13 8.5a1073 1073 0 0 1 4.2 34.1c0 .3-4.5 20.7-10.1 45.2L817 326.7l-6.8 57.7-6.8 57.6-12.9 64-12.9 64-8.1 56.2-8.2 56.3.7 38.1.6 38.2 3.4 15.6 3.4 15.6 4.7 8.7c4.1 7.7 4.7 8.8 4.4 9-.2.3-1.8.3-12 .1l-87.5-1.3-75.9-1.2-35.2 4-124.4 14.4-63.6 7.4h-48l-48 .1-43.9-3.4-43.9-3.4-27.4-5.4-27.4-5.5-17.7-7.5-17.7-7.5L93.4 788 81 777.8l-10.2-20.5L60.7 737l-6-29.2-6.1-29.1.7-78.9.7-78.9 6.1-49.5 6.1-49.5 10.8-59L83.8 304l5.5-16.5 5.6-16.5 8.2-11 8.2-11 10.3-5.5 10.3-5.5 15.3-3.5 15.3-3.4 63.5-4 63.5-4L390 204l100.5-19 43.8-4.8a1817 1817 0 0 1 46.2-4.8zm267.8 172 7.4 2.8 3.6 5 3.3 4.7-.6 15.4-.6 15.5-7 36.4-6.8 36.4-2 6.6-2 6.6-.7 6.8-.7 6.8-3.4 13-3.4 12.8-2.7 15.6-2.7 15.6-3.4 10.9-3.4 10.9-1.3 9.3-1.3 9.3-3.5 12.6-3.5 12.6-2 12-1.8 12-1.4 2.6-1.4 2.7v8.2l-1.4 2.8-1.4 2.7-1.3 9.4-1.3 9.4-6.2 24.7-6.2 24.7-4.7 10.7-4.7 10.7v4l-4.8 9.6-4.8 9.6-7.7 7.7a72 72 0 0 1-8 7.5l-9.4-7-5-10.3-4.6-10.1-2.8-10.1-2.7-10.2-2-19.6-2-19.7v-88.6l2-25.8 2-25.8 4.7-35 4.7-35 3.4-13.8 3.5-13.8 2-4.8 2.1-4.8v-5.4l2.7-6.8 2.7-6.8.7-5.5.7-5.5 4.7-16 4.7-16.2 1.4-10.4 1.4-10.3 2-4.7c1.1-2.6 2.2-4.8 2.4-5l19.9-5.7 19.6-5.4 13.5-.7c7.4-.3 13.7-.6 14-.5z"/><path d="m203.5 378.7-9.8 1.3c-.3 0-4.5 1.8-9.4 4.1l-9 4.1-2.6 2.7-2.6 2.6-3.4 8.7-3.3 8.8-2 34-2 34-7.5 55.7-7.5 55.6-.6 27.3-.7 27.3 1.4 10 1.3 10.1 3.5 7 3.5 6.9 3.1 3.1 3.2 3.1 6 2.7 6 2.7 19.8.6 19.7.7 35-4.7c33.4-4.5 35-4.7 38-4.7l50.8.6 47.7.7 6-1.4 5.8-1.3 6.7-4 6.7-4 4-8 4-8.2-2.7-24-2.8-24.1v-65l3.4-28.8 3.4-28.8 2.8-9.7 2.8-9.7 4.7-25.9 4.7-25.9v-9.4l-2-6.1-2.1-6.2-5.6-4.9-6-5.2a131 131 0 0 0-10.2-2.3l-10-2-17.9.2-47.1.6-29.2.4-18.2-1.3-18.3-1.3h-52zm153.7 29.1 11.7 1.4 7.8 2 7.8 2 2.2 2.2 2.2 2.2.8 8.2.7 8.2-2.7 12.2-2.7 12.1-2 20.5-2 20.5-.7 36-.7 36-1.4 7-1.4 7-.6 13.8-.6 13.8-1.4 7-1.4 7 .7 8.1.6 8.2-1.4 2.8-1.7 3-11.1 2.9-10.9 2.7h-10.9l-3.9 1.3-3.9 1.3H321l-9 2-8.8 2-10.8 1.4-10.7 1.4h-33l-5.2-1.3-5.2-1.3h-19.1l-3.5-1.4-3.4-1.4-10.2-1.3a61 61 0 0 1-10.5-1.7l-2.3-3.6-2-3.3v-17.8l-1.4-8.1-1.3-8.1.6-7.5.7-7.5-.7-6.8-.6-6.7 2.6-36.3 2.7-36.2 2.8-16.9 2.8-16.9 1.4-16.4 1.4-16.4 1.3-4.5 1.3-4.5v-16.3l.7-1.5.7-1.5 2.2-1.5 2.3-1.5 5.5-1.3 5.5-1.3 46.8-3.4 46.8-3.4h34.2zm148.8 9c-4.4 1-7.3 1.7-10.2 2.7a17 17 0 0 0-6.2 2.8c-1.2.8-2.9 2.3-3.8 3.2l-1.8 1.8-1.9 4.6-2 4.6v2.1c-.1 2-.1 2.2.6 4.2q.8 2 2.6 5.3l2 3.3 1.8.5q1.8.5 4 2c2 1.3 2.4 1.5 4.8 2l2.5.7h23.1l14.4-1.3 14.4-1.3 5.8-1.3 5.8-1.3 30.1-2.8 30.1-2.8h19.1l15-2c14.4-2 15.2-2 21.1-3.4a131 131 0 0 0 14.4-4.1c5.9-2 8.8-3 10.6-4l2.5-1.2 1.2-5-2.6-1.4a123 123 0 0 0-36-8.6l-6.9-.7H512.1zm53.7 140a493 493 0 0 0-37.9 2c-5.7.8-6 .8-10.4 2.1l-4.5 1.3H496l-4.9 1.4c-4.7 1.3-5 1.4-8.8 3.4l-4 2-2.6 2.6a13 13 0 0 0-3.8 5.1l-1.3 2.6v11.2l1.3 2.6c1 2.2 1.5 2.8 2.5 3.8 1.3 1.2 1.5 1.3 5.9 3.2l4.6 1.9h5.3c8 0 11.9-.5 28.8-3.9l13.5-2.7 27.7-2.8 27.7-2.8h31l14.1-2c14-2 14.2-2 19.5-3.4l5.4-1.4 8.4-3.8 8.4-4v-2.6l.1-2.7-1.2-1.2c-1.3-1.2-1.5-1.4-8.6-4.6l-7.3-3.3-7.1-1.4c-6.8-1.3-7.7-1.4-19.1-2.7l-12-1.3h-13.9c-13.7 0-14.4 0-45.9 1.4"/></g></svg>