<svg xmlns="http://www.w3.org/2000/svg" width="1000" height="1000" viewBox="0 0 1000 1000"><g fill="#141413"><path d="m441.1 77.2-1.2.6h-4.5c-4.3 0-4.4 0-5.4.5s-1.2.5-3.2.5-2.3 0-3.4.6-1.3.6-3.4.6-2.3 0-3.2.5-1.2.5-3.2.5-2.3 0-3.5.6q-1.4.6-2.3.6-.8-.1-3.2 1.1c-2 1-2.5 1.1-3.4 1.1s-1.4.1-2.3.6-1.4.6-2.3.6q-1.2 0-2.2.5t-2 .5c-1 0-1.6.2-5.6 2.2s-4.5 2.2-5.5 2.2-1.5.2-4.1 1.5a16 16 0 0 0-4.4 2.8c-1 1-1.9 1.5-4.6 2.9a14 14 0 0 0-4.3 2.6q-1 1-2 1.5c-.5.3-1.6 1.1-2.3 1.8q-1.4 1.3-2.4 1.8a42 42 0 0 0-7.5 7 49 49 0 0 0-8.7 9.8q-1 1-1.5 2t-1.7 2.2-2.3 3.5a9 9 0 0 1-2.3 3.4q-1.1.9-1.3 1.5l-5.2 10.4-21.5 43c-1.4 2.9-2 3.8-3 4.9q-1 1.2-2.3 3.5c-1 2-1.4 2.5-3.4 4.5a16 16 0 0 0-2.9 3.5c-.8 1.7-4.6 5.5-6.2 6.2q-1 .4-2.1 1.5-1 1-2.3 1.7-1.4.6-2.3 1.8c-1 1-1.4 1.3-5.8 3.4-4 2-4.9 2.3-5.7 2.3s-1.5.2-3.3 1.1c-2 1-2.5 1.1-3.4 1.1q-1 0-2.3.6t-2.3.6q-1.1 0-2.1.5t-2 .5q-1.2 0-2.4.6c-1.2.6-1.5.6-3.5.6-1.9 0-2.3 0-2.9.4q-.8.6-2.3 1.1-3 1.4-5.6.2-1.1-.5-2.3-.5c-1 0-1.3-.1-2.5-.8l-1.7-1.2q-.5-1 .3-2.6a5 5 0 0 0 .5-2.2c0-1 .2-1.4 1.1-3.3l1.1-2.1v-2.4c0-2.2 0-2.4.6-3.4s.6-1.3.6-2.6-.1-1.8-.6-2.8c-.6-1.2-.6-1.5-.6-3.5 0-1.9 0-2.2-.5-3.1q-.5-1-.5-2.2c0-1.1-.1-1.5-2-5.2-2.5-5-3-5.5-6.2-7.2q-2.2-1.3-3.4-2.3c-.9-.9-2-1.6-5.3-3.2-3.7-2-4.2-2.1-5.2-2.1q-1 0-2.3-.6l-1.2-.6h-25.4l-1 .5c-1.2.5-1.4.5-5.6.5h-4.5l-1 .6c-1 .6-1.2.6-3.3.6s-2.3 0-3.5.6-1.4.6-4.6.6-3.4 0-4.3.5-1.2.5-3.2.5-2.3 0-3.4.6q-1.4.6-2.3.6c-.8 0-1.5.2-3.4 1.1s-2.5 1.1-3.3 1.1c-.9 0-1.6.3-5.2 2.1a18 18 0 0 0-5.5 3.3l-2.2 1.7q-1 .4-4.1 3.6l-3.2 3.2-2.1 4.2-2.1 4.3v2.2c0 2 0 2.3-.5 3.2s-.5 1.1-.5 5 0 4 .5 5q.6 1 .5 2 0 1.2.6 2.4.6 1.3.6 2.4a11 11 0 0 0 3 5.9c1.4 1.5 2.4 3.4 2.4 4.5 0 .8-.1 1-1.5 2.3l-1.4 1.5h-1.2q-1.3 0-2.4.5c-1 .5-1.3.5-4.4.5H106l-1 .6c-1 .6-1.2.6-3.3.6s-2.3 0-3.4.6q-1.3.7-2.5.6t-2.1.5c-.9.4-1.2.5-3.2.5s-2.3 0-3.4.6c-1 .5-1.5.6-2.4.6-1 0-1.4.1-3.4 1.1a58 58 0 0 0-16.3 7A62 62 0 0 0 43.4 270a56 56 0 0 0-13.9 14.9c-.2.5-1 1.4-1.5 2q-1 1-1.5 2.1t-1.8 2.4a14 14 0 0 0-2.8 4.5 13 13 0 0 1-2.7 4.4 18 18 0 0 0-3.3 5.4c-1.9 3.9-2.1 4.4-2.1 5.4s-.2 1.5-1.6 4.3-1.6 3.3-1.6 4.3-.2 1.4-1.1 3.3-1.1 2.4-1.1 3.3q0 1-.6 2.3t-.6 2.2q0 1.1-.5 2.2a5 5 0 0 0-.5 2.2q.1 1-.7 2.3a4 4 0 0 0-.7 2.4q0 1.1-.5 2.1c-.4.9-.5 1.2-.5 3.2s0 2.3-.6 3.4-.6 1.3-.6 3.4c0 2.2 0 2.4-.7 3.6q-.6 1.4-1.2 1.5l-.7.2v34.6l.7.2c.5.2.7.4 1.3 1.7l.8 1.5v5.6c0 5.5 0 5.5.5 6.5s.5 1 .5 5.5v4.5l.6 1.2.6 1.2v4.4c0 4.3 0 4.4.5 5.4s.5 1.2.5 4.3c0 3.2 0 3.3.6 4.5s.6 1.3.6 4.6 0 3.3.6 4.4l.6 1.1v4.5c0 4.4 0 4.6.5 5.6s.5 1.3.5 4.4c0 3.3 0 3.3.6 4.3l.6 1v3.5c0 3.2 0 3.5.5 4.4s.5 1.2.5 4.3c0 3.3 0 3.3.6 4.5s.6 1.2.6 4.5 0 3.3.6 4.5c.6 1.1.6 1.3.6 3.4s0 2.3.5 3.2.5 1.2.5 4.4c0 3.4 0 3.4.6 4.6s.6 1.3.6 3.4 0 2.3.5 3.2.5 1.1.5 5.4v4.4l.6 1.2.6 1.3v8.8l.6 1.1.6 1.1v4.5c0 4.4 0 4.6.5 5.6l.5 1.1v20l.6 1.1.6 1.2v29.6l-.6 1.2-.6 1.2v15.6l-.5 1c-.5 1-.5 1-.5 6.5v5.5l-.6 1.2c-.6 1.2-.6 1.2-.6 4.4 0 3 0 3.3-.5 4.4s-.5 1.4-.5 4.5c0 3.4 0 3.4-.6 4.5-.6 1-.6 1-.6 4.4 0 3.1 0 3.4-.5 4.4s-.5 1.3-.5 3.4c0 2.2 0 2.4-.6 3.4s-.6 1-.6 4.3 0 3.3-.6 4.5-.6 1.5-.6 3.6c0 2 0 2.3-.5 3.2s-.5 1.2-.5 4.3c0 3.3 0 3.3-.6 4.5-.6 1.1-.6 1.3-.6 3.4s0 2.3-.6 3.4-.6 1.2-.6 4.5c0 3.1 0 3.4-.5 4.3-.5 1-.5 1.2-.5 4.3 0 3.3 0 3.3-.6 4.5-.6 1.1-.6 1.3-.6 3.4 0 1.9 0 2.3-.5 3.3-.5 1.1-.5 1.2-.5 6.6v5.5l-.6 1.2-.6 1.2v5.5c0 5.4 0 5.5-.5 6.6s-.5 1.3-.5 5.2 0 4.1.5 5.1.5 1.2.5 6.7 0 5.5.5 6.5.5 1.2.5 4.3c0 3.2 0 3.3.6 4.5s.6 1.5.6 3.5c0 2.1 0 2.3.6 3.3q.7 1.2.6 2.2t.5 2.3c.4 1 .5 1.4.5 3.3 0 2 0 2.3.5 3q1.7 2.6 1.7 4.5c0 .9.1 1.3.6 2.2q.7 1 .6 2.2c0 1 .2 1.4 1.1 3.3s1.1 2.4 1.1 3.3c0 1.1.2 1.6 5.3 11.9 5 10 5.5 10.8 6.6 12s1.6 2 3 4.6c1.2 2.7 1.7 3.5 2.7 4.5l1.7 2.2q.5 1 3.8 4.4a27 27 0 0 1 3.9 4.5 41 41 0 0 0 8.1 8q1.2.5 3.3 2.7 2 2 3.1 2.6 1 .6 2.3 1.8l2.2 1.7c.5.2 1.4 1 2 1.5.9.9 2 1.5 5.7 3.4s4.8 2.6 5.7 3.4c1 .9 2 1.5 6.3 3.7 4.9 2.5 5.2 2.6 6.3 2.6s1.4.1 4.5 1.7c3 1.6 3.3 1.7 4.4 1.7s1.5.1 3.5 1.1c1.8 1 2.4 1.1 3.3 1.1s1.4.2 3.3 1.1 2.4 1.1 3.3 1.1c1 0 1.4.2 3.3 1.1s2.3 1.1 3.3 1.1q1 0 2.3.6c1.1.6 1.3.6 3.3.6s2.3 0 3.3.5q1 .5 2.2.5a4 4 0 0 1 2.3.6q1.2.7 2.2.6t2.3.6c1.1.6 1.3.6 3.4.6 1.9 0 2.3 0 3.2.5s1.3.5 4.4.5 3.3 0 4.6.6l1.2.6H164l1 .5 1 .5h30.2l1-.5c1-.4 1.5-.5 3.4-.5 2 0 2.2 0 3.2-.6l1.1-.6h22.3l1.1-.5 1.1-.5H256l1.2-.6 1.2-.6H296l1-.5 1-.5h79l1 .5 1 .5h19.9l1.3.6c1.2.6 1.3.6 4.5.6 3.1 0 3.4 0 4.3.5 1 .5 1 .5 5.4.5h4.5l1.3.6c1.2.6 1.3.6 4.5.6 3.1 0 3.4 0 4.3.5 1 .5 1.2.5 4.3.5 3.4 0 3.4 0 4.7.6l1.2.6h11.1l1 .6 1.2.6h5.5c5.5 0 5.6 0 6.6.5l1.1.5H479l1.2.6 1.2.6h20l1 .5 1.1.5h20.1l1 .6q1.1.7 2.3.6t2.1.5c1 .5 1 .5 6.5.5h5.5l1.2.6 1.2.6h17.9l.9.5 1 .5H581l1.1.6 1.2.6h22.2l1 .5 1 .5h26.6l1.2.6 1.2.6h33.2l1.1.5 1.1.5h40l1.1.6 1.1.6h121.2l1-.5c1-.5 1-.5 6.5-.5h5.5l1.2-.6c1.1-.6 1.3-.6 3.4-.6s2.2 0 3.2-.6 1.2-.6 3.4-.6c2 0 2.5 0 3.4-.5q1.1-.5 2.2-.5 1 0 2.2-.6t2.3-.6 2.2-.5 2.2-.5c.8 0 1.4-.2 3.1-1.1 1.9-1 2.3-1.1 3.3-1.1s1.5-.2 4.5-1.7c3.1-1.5 3.5-1.7 4.6-1.7s1.5-.1 5.5-2.2c4-2 4.4-2.2 5.5-2.2s1.4-.1 4.1-1.5c2.3-1.2 3.3-1.8 4.2-2.7 1.1-1 1.9-1.5 6.7-3.9s5.6-2.8 6.7-3.9l2.3-1.7q1-.5 2.3-1.7t2.1-1.6c.5-.2 1.4-1 2-1.5l2.2-1.7 4.6-4 4.5-3.9c1.3-.6 3-2.3 3.5-3.5.2-.7 1.2-1.8 3.7-4.2 2.6-2.6 3.5-3.6 4-4.5q.5-1.1 2.8-3.5l2.3-2.3 2.2-4.5c2.2-4.4 2.3-4.6 3.7-5.8l1.4-1.2h1.1l1.1.2.8-1.6q.6-1.4 2-2.6l1.1-1.2a43 43 0 0 1 4.3-7.7c1-1 1.4-1.7 4.8-8.4 3.5-7 3.7-7.5 3.7-8.6s.2-1.4 1.7-4.5c1.5-3 1.7-3.5 1.7-4.5s.2-1.4 1.1-3.3 1.1-2.4 1.1-3.3q0-1 .6-2.3t.6-2.3.6-2.3.6-2.3.5-2.1a5 5 0 0 0 .5-2.3c0-.9.1-1.3.6-2.2s.6-1.2.6-3.3c0-1.9 0-2.3.5-3.3s.5-1.4.5-4.5v-3.4l.6-1 .6-1.1V768c0-4.3 0-4.4.5-5.4l.5-1V727l-.5-1c-.5-1-.5-1-.5-5.5V716l-.6-1.2c-.6-1.2-.6-1.2-.6-4.5 0-3.1 0-3.4-.5-4.3s-.5-1.2-.5-3.2c0-2.1 0-2.4-.6-3.6-.6-1.1-.6-1.4-.6-3.4s0-2.3-.5-3.2-.5-1.2-.5-4.3c0-3.3 0-3.3-.6-4.5-.6-1.1-.6-1.3-.6-3.4 0-1.9 0-2.3-.5-3.2s-.5-1.4-.5-3.4 0-2.3-.6-3.3q-.7-1-.6-2.2 0-1-.5-2.2c-.4-1-.5-1.4-.5-3.3 0-2 0-2.3-.6-3.3q-.7-1-.6-2.1t-.6-2.4-.6-2.5q0-1.1-.5-2.1t-.5-2.1-.6-2.3c-.6-1.1-.6-1.3-.6-3.4s0-2.3-.5-3.2-.5-1.2-.5-3.2c0-2.1 0-2.4-.6-3.6q-.6-1.2-.6-2.3t-.6-2.1c-.6-1-.6-1.2-.6-3.3s0-2.4-.5-3.4-.5-1.4-.5-3.3c0-2 0-2.3-.6-3.4s-.6-1.3-.6-3.4c0-1.9 0-2.3-.5-3.3s-.5-1.3-.5-4.4 0-3.2-.6-4.3-.6-1.2-.6-3.4c0-2 0-2.3-.5-3.2s-.5-1.2-.5-4.4c0-3.4 0-3.4-.6-4.6l-.6-1.2v-5.5c0-5.5 0-5.5-.5-6.5s-.5-1-.5-6.6v-5.6l-.6-1.2-.6-1.2v-38.6l.5-1.1c.5-1.1.5-1.3.5-5.5v-4.4l.6-1.2c.6-1.1.6-1.3.6-3.3s0-2.3.5-3.3.5-1.2.5-4.5c0-3.4 0-3.4.6-4.5.6-1 .6-1.2.6-3.3s0-2.3.6-3.5q.6-1.2.6-2.3t.5-2.1c.4-.9.5-1.2.5-3.2s0-2.3.6-3.4q.7-1.2.6-2.3t.5-2.1q.5-1 .5-2.1 0-1 .6-2.3c.6-1.1.6-1.4.6-3.3s0-2.2.5-3.2q.5-1.2.5-2.2t.6-2.3.6-2.3.5-2.2c.4-1 .5-1.4.5-3.3 0-2 0-2.3.6-3.4q.6-1.2.6-2.2t.6-2.2c.6-1.1.6-1.3.6-3.4s0-2.3.5-3.2.5-1.2.5-3.2c0-2.1 0-2.4.6-3.6s.6-1.3.6-4.5c0-3.1 0-3.4.5-4.3l.5-1V400l.6-1.3q.6-1.2.6-2.3 0-1.2.6-2.2l.6-1v-15.7l.5-1.1c.7-1.6.7-4 0-5.5l-.5-1v-22.2l-.6-1c-.6-1-.6-1.3-.6-3.4 0-1.9 0-2.3-.5-3.3s-.5-1.4-.5-3.3c0-2 0-2.3-.6-3.4q-.6-1.2-.6-2.3a5 5 0 0 0-.5-2.1 5 5 0 0 1-.5-2.3c0-.9-.1-1.3-.6-2.2q-.7-1-.6-2.2 0-1-.6-2.3t-.6-2.3c0-.9-.2-1.4-1.1-3.3s-1.1-2.4-1.1-3.3c0-1-.2-1.6-2.2-5.6s-2.2-4.5-2.2-5.5-.2-1.5-2.1-5.3a18 18 0 0 0-3.3-5.4 8 8 0 0 1-2.4-5c0-1-.2-1.4-2.7-6.4a24 24 0 0 0-3.9-6.6 18 18 0 0 1-3.3-5.5c-2-4-2.2-4.5-3.2-5.4a80 80 0 0 0-26.2-25q-2-.9-3.3-2.1c-1.2-1.1-2-1.6-8.7-5-7-3.5-7.5-3.7-8.6-3.7s-1.5-.2-4.5-1.7-3.5-1.7-4.5-1.7q-1.1 0-2.1-.5t-2-.5-2.2-.6-2.3-.6-2.1-.5c-.9-.4-1.2-.5-3.2-.5s-2.3 0-3.4-.6q-1.2-.6-2.3-.6a5 5 0 0 1-2.1-.5c-1-.4-1.4-.5-3.4-.5-2.2 0-2.4 0-3.4-.6s-1-.6-4.4-.6c-3.2 0-3.5 0-4.4-.5s-1-.5-5.5-.5h-4.6l-1-.6-1.2-.6h-8.8l-1.3-.6-1.2-.6h-13.2v.6q0 .6-.5 1.1l-.5.5H812l-1-.8c-1.2-1-1.4-1.4-1.2-2.4q.1-.6-.6-.9c-.6-.2-1.4-.3-4.1-.3-3.2 0-3.5 0-4.4-.5s-1-.5-5.4-.5H791l-1.2-.6c-1.2-.6-1.2-.6-4.5-.6s-3.3 0-4.5-.6c-1.1-.6-1.3-.6-3.4-.6s-2.3 0-3.2-.5q-1-.6-2.2-.5c-1 0-1.4-.1-2.3-.6q-1-.7-2.2-.6-1 0-2.2-.5c-1-.4-1.4-.5-3.3-.5-2 0-2.3 0-3.4-.6q-1.2-.7-2.3-.6c-1 0-1.4-.2-3.3-1.1s-2.4-1.1-3.3-1.1c-1 0-1.6-.2-8.5-3.7l-9-4.5c-2-1-6.1-4.9-7-6.7q-.5-1.1-1.7-2.3c-1-1-1.4-1.6-3.5-6-2.1-4.2-2.4-4.9-2.4-5.8s-.2-1.4-1.6-4.2-1.6-3.3-1.6-4.4c0-1-.1-1.4-1.1-3.4-.9-1.8-1.1-2.4-1.1-3.3s-.2-1.4-1.1-3.2c-1-2-1.1-2.3-1.1-3.4s-.1-1.4-1.6-4.4l-9.2-18.5-1.2-1.2a9 9 0 0 1-1.8-2.3 37 37 0 0 0-6-6.5l-5.3-5.4-2.1-1q-2.2-1-3.3-2.2c-1-1-2-1.6-8.7-4.9-7-3.5-7.5-3.7-8.5-3.7s-1.4-.2-3.3-1.1-2.3-1.1-3.3-1.1-1.5-.1-2.5-.6q-1.2-.6-2.2-.6t-2.2-.6c-1.1-.6-1.3-.6-3.4-.6-1.9 0-2.3 0-3.3-.5s-1.4-.5-3.4-.5-2.2 0-3.2-.6l-1.1-.6h-4.5c-4.4 0-4.5 0-5.6-.5s-1.2-.5-6.7-.5H612l-1-.6-1.1-.6h-4.5c-4.3 0-4.4 0-5.4-.5s-1-.5-5.4-.5H590l-1.3-.6-1.2-.6h-4.4c-4.3 0-4.4 0-5.4-.5s-1.2-.5-3.2-.5c-2.1 0-2.4 0-3.6-.6s-1.3-.6-4.5-.6c-3.1 0-3.4 0-4.3-.5-1-.5-1.2-.5-4.3-.5-3.3 0-3.3 0-4.5-.6s-1.2-.6-4.5-.6c-3 0-3.3 0-4.3-.5s-1.2-.5-5.6-.5h-4.4l-1.2-.6-1.2-.6H528c-4.1 0-4.3 0-5.4-.5s-1.2-.5-6.8-.5h-5.6l-1-.6-1.2-.6h-15.4l-1.3-.6-1.2-.6h-47.7zm101.1 44.5 1.1.5h33.3l1 .5 1 .5H592l1.2.6 1.2.6h5.4c5.4 0 5.5 0 6.6.5q1 .5 2.2.5a4 4 0 0 1 2.3.6c1 .6 1.2.6 3.3.6h2.3l2.3 1.1c1.8.9 2.4 1.1 3.2 1.1s1.6.3 4.6 1.7c3 1.5 3.7 1.9 4.8 3 .7.7 1.8 1.5 2.3 1.8q1 .6 4.5 3.8c2.7 2.7 3.5 3.6 4 4.6.4.6 1.2 1.8 1.9 2.5 1 1 1.5 2 3 4.8l5.5 11.2c3.5 7.1 3.8 7.7 3.8 8.7s.2 1.5 1.7 4.5 1.7 3.5 1.7 4.5.2 1.5 1.1 3.4 1.1 2.3 1.1 3.3.2 1.4 1.1 3.3 1.1 2.3 1.1 3.2.3 1.7 4.3 9.7l4.3 8.7 5.4 5.4 5.5 5.5 4.1 2 7.5 3.7c2.9 1.5 3.4 1.7 4.4 1.7q1 0 2.3.6t2.3.6 2.1.5 2 .5c1 0 1.5.2 3.4 1.1l2.3 1.1h3.3c3.3 0 3.3 0 4.6.6s1.3.6 4.6.6 3.3 0 4.4.6l1 .6h13.4l1 .5 1.1.5h17.7l1.2.6 1.2.6H792l1 .5 1.2.5h17.6l1.2.6 1.2.6h15.6l1 .5c1 .5 1 .5 5.4.5h4.4l1.2.6c1.2.6 1.2.6 4.6.6 3.2 0 3.5 0 4.4.5s1.2.5 3.1.5 2.3 0 3.5.6c1.1.6 1.4.6 3.4.6s2.3 0 3.2.5q1 .5 2.1.5 1 0 2.3.6t2.2.6q1.1 0 2.2.5 1 .5 2.2.5c1 0 1.4.1 3.2 1.1s2.3 1.1 3.3 1.1 1.6.2 9.4 4.1c7.7 3.9 8.2 4.1 9 5.1q1 1 2.2 1.6t2.3 1.7a10 10 0 0 0 2.4 1.8 14 14 0 0 1 3.4 2.8q2.1 2 3.3 2.8c1.8 1 5.7 5 6.4 6.5a6 6 0 0 0 1.6 2.1q1 1 1.6 2.1.5 1 1.7 2.3l1.8 2.4q.6 1.3 1.6 2.1c.8.8 1.2 1.4 3.2 5.4s2.3 4.6 3.4 5.7c1 1 1.5 1.8 2.9 4.6 1.5 3.1 1.7 3.6 1.7 4.6s.2 1.5 1.7 4.5 1.7 3.5 1.7 4.6.1 1.4 1.7 4.4 1.7 3.5 1.7 4.5q0 1.1.5 2.1t.5 2q0 1.2.6 2.4.7 1.3.6 2.5t.5 2.1q.5 1 .5 2.1 0 1 .6 2.3c.6 1.1.6 1.3.6 3.4s0 2.2.6 3.2.6 1.2.6 3.4c0 2 0 2.5.5 3.4.5 1 .5 1.3.5 4.4 0 3.3 0 3.3.6 4.4l.6 1.1v40.8l-.6 1.3-.6 1.2v5.5c0 5.5 0 5.5-.5 6.5s-.5 1.2-.5 4.3c0 3.3 0 3.3-.6 4.5s-.6 1.2-.6 4.4c0 3.1 0 3.4-.5 4.4s-.5 1.3-.5 3.4c0 2.2 0 2.4-.6 3.4s-.6 1.2-.6 3.2c0 1.9 0 2.3-.5 3.3s-.5 1.4-.5 3.3c0 2 0 2.3-.6 3.4q-.6 1.3-.6 2.2a5 5 0 0 1-.6 2.4c-.6 1.1-.6 1.4-.6 3.4s0 2.3-.5 3.2-.5 1.2-.5 3.2c0 2.1 0 2.4-.6 3.6-.6 1.1-.6 1.4-.6 3.4s0 2.3-.5 3.2q-.5 1-.5 2.1 0 1-.6 2.3c-.6 1.2-.6 1.2-.6 4.5s0 3.3-.6 4.5-.6 1.2-.6 4.5c0 3.1 0 3.4-.5 4.3s-.5 1.2-.5 3.3c0 2.3 0 2.4-.6 3.4l-.6 1.1v4.5c0 4.4 0 4.5-.5 5.5l-.5 1v13.5l-.6 1-.6 1.1v26.8l-.5 1-.5 1v14.6l.5 1 .5 1v24.6l.6 1.2.6 1.2v4.4c0 4.3 0 4.4.5 5.4s.5 1.2.5 3.2 0 2.3.6 3.4.6 1.5.6 3.6c0 2 0 2.3.5 3.2s.5 1.2.5 3.2c0 2.1 0 2.3.6 3.3s.6 1.2.6 3.4c0 2 0 2.4.5 3.3s.5 1.2.5 3.3c0 2.2 0 2.4.6 3.4q.7 1 .6 2.1t.5 2.3c.4 1 .5 1.4.5 3.3 0 2 0 2.3.6 3.4s.6 1.4.6 3.3 0 2.2.6 3.3c.6 1.2.6 1.5.6 3.6 0 2 0 2.3.5 3.2s.5 1.2.5 3.2 0 2.3.6 3.4c.6 1.3.6 1.4.6 4.6 0 3 0 3.3.5 4.2s.5 1.2.5 4.4c0 3.4 0 3.4.6 4.6l.6 1.2v11l.6 1.2.6 1.2v31.9l-.6 1-.6 1.2v4.4c0 4.3 0 4.4-.5 5.5s-.5 1.3-.5 3.4c0 2.2 0 2.4-.6 3.4s-.6 1.2-.6 3.2c0 1.9 0 2.3-.5 3.3q-.5 1.1-.5 2.2 0 1-.6 2.3t-.6 2.2a5 5 0 0 1-.6 2.4q-.6 1.2-.6 2.3c0 1-.2 1.4-1.1 3.3s-1.1 2.4-1.1 3.3c0 1-.2 1.5-1.7 4.5s-1.7 3.5-1.7 4.5-.2 1.5-1.8 4.7c-1.4 2.8-2 3.7-2.8 4.5a19 19 0 0 0-3.3 5.5 19 19 0 0 1-3.3 5.5c-.6.5-1.3 1.6-1.7 2.3q-.7 1.2-1.7 2.3c-.6.5-1.3 1.5-1.6 2.1q-.6 1.1-2.6 3.1l-2.7 3.2c-1 1.6-1.4 2-2.3 2.4q-1 .3-1.4 1.5c-.5 1-.7 1.3-2 1.9-1 .5-1.9 1.3-4.5 4a16 16 0 0 1-4.5 3.7q-1.2.6-2.2 1.7a8 8 0 0 1-2 1.6q-1 .5-2.3 1.7a19 19 0 0 1-5.5 3.3 21 21 0 0 0-5.6 3.4l-1.4 1.3H883c-1.2 0-1.4.1-9 3.9-7.4 3.7-7.8 3.9-9 3.9q-1.1 0-1.8.4c-1.5 1-3.8 1.8-4.8 1.8q-1 0-2.2.6t-2.3.6c-.9 0-1.4.2-3.3 1.1s-2.4 1.1-3.3 1.1q-1.1 0-2.1.5t-2 .5-2.4.6c-1.2.6-1.5.6-3.6.6-2 0-2.3 0-3.2.5s-1.2.5-3.2.5c-2.2 0-2.4 0-3.3.6s-1.2.6-2.2.6q-1.2 0-2.3.5c-1 .5-1.2.5-5.5.5h-4.4l-1.1.6-1.1.6h-5.6c-5.5 0-5.6 0-6.7.5l-1 .5H782l-1.2.6-1.2.6h-19.8l-1.3.6-1.4.6H724l-1 .5-1 .5h-33.4l-1.2.6-1.2.6h-31l-1 .5-1 .5h-63.4l-1.1-.5-1.1-.5h-28.8l-1.2-.6-1.2-.6H551c-5.5 0-5.5 0-6.5-.5l-1-.5h-17.9l-1.1-.6-1.2-.6h-17.9l-.9-.5-1-.5h-17.9l-1.1-.6-1.2-.6h-17.9l-.9-.5-1-.5h-22.2l-1.2-.6-1.2-.6h-20l-1.1-.6-1.1-.6h-17.8l-1-.5-1.2-.5H379l-1.2-.6-1.2-.6h-5.5c-5.4 0-5.5 0-6.6-.5l-1.1-.5h-15.7l-1-.6-1.1-.6h-13.2l-1-.5-1-.5H317l-1.2-.6-1.2-.6H309c-5.6 0-5.6 0-6.6-.5s-1-.5-5.4-.5h-4.4l-1.2-.6c-1.2-.6-1.2-.6-4.6-.6-3.2 0-3.5 0-4.4-.5s-1.2-.5-4.3-.5c-3.3 0-3.3 0-4.5-.6s-1.2-.6-4.5-.6c-3.1 0-3.4 0-4.3-.5-1-.5-1.2-.5-4.4-.5h-3.5l-1-.6c-1.1-.6-1.3-.6-3.4-.6s-2.4 0-3.3-.5-1.2-.5-3.2-.5-2.3 0-3.4-.6-1.3-.6-3.4-.6-2.3 0-3.4-.6-1.3-.6-3.4-.6-2.3 0-3.2-.5-1.2-.5-3.2-.5c-2.1 0-2.4 0-3.6-.6-1.1-.6-1.4-.6-3.4-.6s-2.3 0-3.2-.5-1.2-.5-4.3-.5c-3.3 0-3.3 0-4.5-.6-1.1-.6-1.3-.6-3.4-.6h-2.2l-2.1-1.1c-2-1-2.4-1.1-3.4-1.1q-1 0-2.3-.6t-2.2-.6q-1 0-2.1-.5c-1-.4-1.4-.5-3.3-.5-2 0-2.3 0-3.4-.6s-1.3-.6-3.4-.6-2.3 0-3.2-.5q-1-.6-2.2-.5c-1 0-1.5-.1-2.4-.6-1.1-.6-1.3-.6-3.4-.6s-2.3 0-3.2-.5-1.2-.5-3.2-.5c-2.1 0-2.4 0-3.6-.6-1.1-.6-1.4-.6-3.4-.6s-2.3 0-3.2-.5q-1-.6-2.1-.5a4 4 0 0 1-2.3-.6q-1-.7-2.1-.6-1 0-2.2-.5-1.1-.5-2.2-.5-1 0-2.3-.6t-2.3-.6c-1 0-1.5-.2-3.3-1.1-1.9-1-2.4-1.1-3.3-1.1-1 0-1.9-.4-14.7-6.8a73 73 0 0 1-21.3-12.8c-1-.5-2.5-2-9.1-8.6a64 64 0 0 1-12.3-14.5q-1.2-2.2-2.3-3.4c-1-1-1.5-1.8-3.5-5.8-2.1-4.3-2.3-4.8-2.3-5.8s-.2-1.5-1.7-4.5-1.7-3.6-1.7-4.5q0-1.1-.5-2.1t-.5-2-.5-2.3-.5-2.2-.6-2.3c-.6-1.1-.6-1.3-.6-3.4s0-2.3-.5-3.2-.5-1-.5-5.5v-4.5l-.6-1-.6-1.1v-36.9l.5-1c.5-1 .5-1 .5-6.5V695l.6-1.3.6-1.2v-82l.5-1 .5-1v-41.4l-.5-1.1-.5-1.1v-22.2l-.6-1.1-.6-1.2v-13.3l-.5-1-.5-1V512l-.6-1.2-.6-1.3v-13.3l-.5-1c-.4-.8-.5-1.3-.5-2.7v-1.7h-.6q-.6 0-1.1-.5l-.5-.5v-10.4l.6-1.3 1-1.7.6-.5v-27.5l-.6-1.2-.6-1.7a1 1 0 0 0-.4-.9q-.4-.2-1-1.4c-.6-1.2-.6-1.2-.6-4.6v-3.4l-.6-1-.6-1.1v-23.5l.5-.5c.4-.4.7-.5 1.9-.5s1.4 0 1.6-.5c.1-.4.2-7.4.2-27.3v-26.7l.6-1c.6-1.1.6-1.3.6-3.3s0-2.3.6-3.4.6-1.3.6-3.4v-2.2l1.1-2.2c1-2 1.1-2.4 1.1-3.4 0-1.1.2-1.5 4-9 3.6-7.3 4-8 5.1-9.2q1.2-1.2 1.7-2.3t1.7-2.3 1.7-2.2 3.9-4.4a21 21 0 0 1 4.7-4.1q1.3-.6 3.4-2.8c2-2 2.3-2.2 4.4-3.3 1.8-1 2.5-1.4 3.3-2.2.8-1 1.5-1.3 9-5.1 7.8-3.9 8.3-4.1 9.4-4.1s1.4-.1 3.3-1.1 2.4-1.1 3.3-1.1q1 0 2.3-.6t2.3-.6a5 5 0 0 0 2.1-.5 5 5 0 0 1 2.2-.5q1 0 2-.5l2.3-1.1c1.2-.5 1.6-.6 3.5-.6 2 0 2.2 0 3.2-.6s1.2-.6 3.4-.6c2 0 2.3 0 3.2-.5s1.2-.5 4.4-.5c3.4 0 3.4 0 4.6-.6s1.2-.6 4.5-.6c3.1 0 3.4 0 4.3-.5 1-.5 1.2-.5 4.3-.5 3.2 0 3.3 0 4.5-.6s1.5-.6 3.6-.6c2 0 2.3 0 3.2-.5s1.2-.5 4.3-.5h3.4l1-.6 1.1-.6h3.4c3.2 0 3.5 0 4.4-.5s1.2-.5 3.3-.5c2.2 0 2.4 0 3.4-.6l1-.6h3.5c3.2 0 3.5 0 4.4-.5s1.2-.5 4.3-.5c3.3 0 3.3 0 4.5-.6 1.1-.6 1.3-.6 3.4-.6s2.3 0 3.4-.6 1.3-.6 3.4-.6 2.3 0 3.2-.5 1.2-.5 3.2-.5 2.3 0 3.4-.6 1.5-.6 3.6-.6c2 0 2.3 0 3.2-.5s1.2-.5 3.2-.5 2.3 0 3.4-.6 1.5-.6 3.5-.6 2.2 0 3.3-.6q1.2-.6 2.3-.6t2.2-.5c1-.4 1.4-.5 3.3-.5 2 0 2.2 0 3.2-.6a4 4 0 0 1 2.2-.6q1.2 0 2.3-.5 1.2-.5 2.2-.5c1 0 1.4-.2 3.2-1.1s2.2-1.1 3.2-1.1c1.2 0 1.5-.1 11-4.9a43 43 0 0 0 13.4-7.8 18 18 0 0 0 4.3-3.9 16 16 0 0 1 4.2-3.7 9 9 0 0 0 3.7-3.6 7 7 0 0 1 1.5-2q1.1-1 1.6-2.3.7-1.4 1.7-2.3c1-.9 1.3-1.4 4.5-7.8 3.1-6.1 3.5-6.9 4.4-7.7 1.4-1.2 3.2-4.8 3.2-6.3s1-3.4 2.4-4.8c1.5-1.4 3.2-4.9 3.2-6.4a7 7 0 0 1 2.3-4.7c1.5-1.5 1.9-2.3 1.9-4v-1.2l1.4-1.5c1.3-1.3 1.5-1.8 4.1-6.9 2.4-4.9 2.9-5.6 3.7-6.4.7-.6 1.2-1.3 2.1-3a13 13 0 0 1 2.3-3.5l1.8-2.4c.5-1 2-2.6 8.5-9.1l8-8 2.2-1q2.3-1.2 3.2-2.2c.9-1 1.9-1.5 9.2-5.1 7.6-3.8 8.2-4.1 9.2-4.1q1.1 0 2.1-.5t2-.5 2.4-.6c1.2-.6 1.5-.6 3.5-.6 2.1 0 2.3 0 3.3-.6 1.1-.6 1.1-.6 4.5-.6 3.3 0 3.5 0 4.5-.5s1.2-.5 5.4-.5 4.4 0 5.4-.5l1.1-.5h105.7zm-345 87.8 3.7 1.8 1.8 3.6 1.9 3.6v6l-1.3 2.5-1.2 2.5-2.6 1.3-2.6 1.4h-4.4c-4.3 0-4.5 0-5.6.5s-1.3.5-5.5.5H177l-1.1.6-1.2.6h-13.3l-1 .5-1 .5h-14.9l-1.4-1.5-1.5-1.4v-1.3c0-1-.1-1.5-.6-2.4-.5-1-.6-1.4-.6-3 0-1.5 0-2 .5-2.8q.5-1 .5-2.3v-1.2l3.8-3.7 3.7-3.8h1.3c1.2 0 1.5-.1 3.5-1.1l2.1-1.1h2.2c1.9 0 2.3 0 3.3-.5 1.1-.5 1.2-.5 6.2-.5h5l1.3-.6 1.3-.6h18.4z"/><path d="m474.4 289.2-1.1.6h-4.5c-4.3 0-4.4 0-5.4.5s-1.2.5-3.2.5-2.3 0-3.4.6-1.5.6-3.5.6c-1.9 0-2.2 0-3.1.5s-1.2.5-3.3.5-2.4 0-3.5.6a5 5 0 0 1-2.4.6q-1 0-2 .5t-2.2.5-2.2.6a4 4 0 0 1-2.4.6c-1.2 0-1.5.1-3.4 1.1s-2.2 1.1-3.2 1.1-1.4.2-3.3 1.1-2.4 1.1-3.2 1.1c-1 0-1.5.2-4.5 1.7-3.1 1.5-3.5 1.7-4.6 1.7s-1.5.2-9 3.9c-7.1 3.6-7.8 3.9-8.8 3.9q-1.8-.1-4 2l-1.2 1.2h-1.2c-1.2 0-1.5.1-4.3 1.5a18 18 0 0 0-4.3 2.8c-1.4 1.3-1.4 1.3-2.5 1.3q-2 0-3.9 1.9c-1 1-1.7 1.4-6.5 3.8a25 25 0 0 0-6.6 3.9c-1 .9-1.9 1.5-4.5 2.8a16 16 0 0 0-4.5 2.8c-.9.9-1.8 1.5-3.6 2.4a9 9 0 0 0-3.3 2.2q-1 .9-2 1.5c-.6.3-1.7 1.1-2.4 1.8-1 1-1.7 1.5-3.4 2.3a9 9 0 0 0-3.1 2q-1 1-2.2 1.6c-.8.5-2 1.5-4.5 4a24 24 0 0 1-4.6 4 67 67 0 0 0-8.7 8.2 57 57 0 0 0-8.3 9c-.4.9-1 1.6-2.6 3a11 11 0 0 0-2.7 3.2q-.7 1.2-1.7 2.3c-.6.5-1.3 1.6-1.7 2.3q-.7 1.2-1.7 2.3t-1.5 2q-.6 1-1.7 2.2a14 14 0 0 0-2.8 4.5 15 15 0 0 1-2.8 4.5c-1 1-1.5 2-4.5 7.8a29 29 0 0 1-4.3 7.6c-.9.9-1.4 1.8-3.7 6.3-2.5 5-2.7 5.5-2.7 6.5s-.2 1.5-2.7 6.6c-2.6 5-2.8 5.5-2.9 6.8s-.3 1.8-2.3 5.6c-2 4-2.1 4.4-2.1 5.4s-.2 1.4-1.1 3.3-1.1 2.4-1.1 3.3q0 1-.6 2.3-.6 1.4-.6 2.4c0 .9-.2 1.4-1.7 4.4s-1.7 3.5-1.7 4.5q0 1.1-.5 2.2t-.5 2.3q0 1-.6 2.1c-.5.9-.6 1.3-.6 2.2q0 1.1-.5 2.1c-.4.9-.5 1.2-.5 3.2 0 2.1 0 2.4-.6 3.6q-.6 1.2-.6 2.3t-.5 2.1c-.5 1-.5 1-.5 5.4v4.5l-.7 1.2c-.7 1.3-.7 1.4-.7 3.5 0 2 0 2.3-.5 3.2s-.5 1-.5 6.5v5.5l-.6 1.2-.6 1.2V546l-.5 1c-.5 1.1-.5 1.1-.5 7.4s0 6.3.5 7.4l.5 1.1v15.5l.6 1.1.6 1.1v4.5c0 4.4 0 4.6.5 5.6s.5 1.3.5 4.4c0 3.3 0 3.3.6 4.4q.7 1.2.6 2.2t.5 2.3c.4 1 .5 1.4.5 3.3 0 2 0 2.3.6 3.4s.6 1.4.6 3.3 0 2.2.5 3.1q.6 1 .5 2.2c0 1 .1 1.5.6 2.4.6 1.1.6 1.3.6 3.4v2.2l1.1 2.2 1.1 2.3v4.3l1.6 3.2c1.5 3 1.6 3.3 1.6 4.4 0 1 .1 1.4.6 2.3q.7 1 .6 2.2c0 1.1.1 1.5 1.7 4.6s1.7 3.5 1.7 4.4.2 1.5 1.6 4.4c1.4 2.8 1.6 3.4 1.6 4.4s.4 1.7 5.5 12a54 54 0 0 0 6.7 12.2c1 1 1.4 1.8 2.6 4.2s1.6 3.2 2.7 4.3c.7.7 1.5 1.8 1.8 2.4q.6 1 1.7 2.3a11 11 0 0 1 2.2 3.3c1 2 1 2.1 4.3 5.4a24 24 0 0 1 3.9 4.4q.5 1 3.8 4.3c2.5 2.5 3.4 3.5 3.9 4.5a21 21 0 0 0 5.9 6c.8.4 2.9 2.3 8.9 8.3a70 70 0 0 0 13.3 11.6q1.3.6 3.4 2.8 2.2 2.2 3.3 2.7 1.2.6 2 1.6c.8.8 1.5 1.3 3.4 2.2s2.7 1.5 3.6 2.4c1 1 1.8 1.5 4.3 2.7a16 16 0 0 1 4.3 2.7c1 1 2.1 1.6 11.2 6.2 9 4.4 10.1 5 11 6s1 1 2 1 1.8.4 11 5c9.6 4.8 10.1 5 11.2 5s1.4.2 4.3 1.6c2.8 1.4 3.3 1.6 4.3 1.6s1.5.2 4.5 1.7c2.9 1.4 3.5 1.7 4.4 1.7q1.3-.1 5.6 2.2c1.7.9 2 1 3.1 1 1 0 1.5.1 2.4.6q1.1.7 2.2.6c1 0 1.4.2 3.3 1.1s2.4 1.1 3.3 1.1q1 0 2.3.6c1 .5 1.5.6 2.4.6q1.2 0 2.2.5t2 .5a5 5 0 0 1 2.4.6q1.2.6 2.3.6t2.1.5c.9.4 1.2.5 3.2.5s2.3 0 3.4.6 1.4.6 3.3.6 2.2 0 3.2.5 1.4.5 4.5.5c3.3 0 3.3 0 4.5.6l1.1.6h4.4c4.2 0 4.4 0 5.5.5l1.1.5h37l1.1-.5c1.1-.5 1.3-.5 5.5-.5s4.5 0 5.3-.5c.7-.3 1.2-.4 3.3-.5l2.5-.1.1-1.8q0-1.8.4-2.2l1.5-1c1.2-.4 1.5-.5 3.5-.5s2.3 0 3.3-.6 1.2-.6 3.2-.6c2.1 0 2.4 0 3.5-.6a5 5 0 0 1 2.4-.6q1 0 2-.5t2.1-.5c1 0 1.5-.1 2.5-.6q1.2-.6 2.3-.6t2.1-.5 2.1-.5 2.3-.6c1-.5 1.4-.6 2.7-.6s1.8 0 3 .7q1.5.8 1.7 1.2c.4.7.8.6 3.5-.6 1.9-.9 2.5-1.1 3.4-1.1 1 0 1.5-.2 5.6-2.3 4.3-2.1 4.8-2.3 5.8-2.3s1.4-.2 5.4-2.2 4.5-2.2 5.5-2.2c1.2 0 1.6-.2 10.9-4.8 8.8-4.4 9.7-5 10.8-6 1-1 2-1.5 5.6-3.4 3.7-1.9 4.6-2.4 5.6-3.4q1.2-1.2 3.4-2.3t3.2-2.1 2.1-1.6c.6-.3 1.6-1 2.1-1.6a9 9 0 0 1 2.2-1.6q1.2-.6 2.4-1.8l2.1-1.6c.6-.3 2.4-1.8 4.5-4l4.5-3.8a197 197 0 0 0 20.7-21.2 33 33 0 0 0 3.9-4.6q.5-.9 1.6-2.1l1.8-2.3q.6-1 1.5-2l1.6-2.3q.8-1.4 1.7-2.3 1-.8 1.6-2l1.8-2.5q1-1.2 2.3-3.4 1.1-2.2 2.2-3.3 1-1 2.1-3.2 1-2.2 2.2-3.3 1.1-1.2 2.3-3.4a9 9 0 0 1 2.2-3.3c1-1 1.4-1.6 3.2-5.4 1.9-3.7 2.3-4.5 3.3-5.5 1.2-1.2 1.7-2.1 10-18.8 8.8-17.5 8.8-17.6 8.8-18.8s.1-1.5 1.1-3.4 1.1-2.4 1.1-3.3c0-1 .2-1.5 1.7-4.5 1.5-3.1 1.7-3.6 1.7-4.6s.2-1.4 1.1-3.3 1.1-2.4 1.1-3.2q0-1 .5-2 .5-1.1.5-2.2 0-1 .6-2.2t.6-2.3.5-2.2.5-2.2.6-2.3.6-2.2q0-1.1.5-2.2c.4-1 .5-1.3.5-3.4 0-2.2 0-2.4.6-3.4s.6-1.2.6-3.1 0-2.2.6-3.3l.6-1.2v-4.5c0-4.4 0-4.5.5-5.5q.6-1 .5-2.3c0-1.3 0-1.3-.5-1.3q-1.1.2-2-1.9l-.7-1.4v-14.1l.6-1.2.6-1.2v-9l.5-.5q.4-.5 1.6-.5h1.1v-3.3c0-3.1 0-3.4-.5-4.3l-.5-1v-13.7l-.6-1c-.6-1.1-.6-1.1-.6-4.4 0-3.2 0-3.3-.6-4.5s-.6-1.5-.6-3.6c0-2 0-2.3-.5-3.2s-.5-1.2-.5-3.2 0-2.3-.6-3.4a5 5 0 0 1-.6-2.4q0-1-.5-2t-.5-2.1-.6-2.3q-.7-1.2-.6-2.3t-.6-2.3q-.6-1.2-.6-2.3a5 5 0 0 0-.5-2.1q-.5-1.1-.5-2.2 0-1-.6-2.2c-.5-1-.6-1.5-.6-2.4 0-1-.1-1.4-1.1-3.3s-1.1-2.3-1.1-3.2q0-1.1-.5-2.1t-.5-2c0-1-.2-1.6-2.2-5.6s-2.2-4.6-2.2-5.6-.2-1.5-2.2-5.5-2.2-4.5-2.2-5.5-.3-1.6-3.2-7.5a29 29 0 0 0-4.4-7.6c-1-1-1.5-1.8-3.3-5.5a18 18 0 0 0-3.3-5.5q-1.2-1.2-2.3-3.4t-2.1-3.2-1.7-2.3c-.4-.7-1.1-1.8-1.8-2.4s-1.4-1.6-1.6-2.1l-1.7-2.2a9 9 0 0 1-1.6-2.2 14 14 0 0 0-2.8-3.4 14 14 0 0 1-2.8-3.4q-.4-1-2.7-3.3a17 17 0 0 1-2.9-3.4 45 45 0 0 0-6-6.5 35 35 0 0 1-6.1-6.7 25 25 0 0 0-6-5.9c-.6-.3-2.5-2-4.3-3.8a23 23 0 0 0-4.5-3.9c-1-.5-2-1.3-4.3-3.8-2.7-2.9-3.2-3.3-4.4-3.8q-1.4-.7-2.3-1.7a9 9 0 0 0-3.3-2.3 11 11 0 0 1-4.4-3.3c-2-2.1-2.1-2.1-5.5-3.8a17 17 0 0 1-4.6-2.9c-1-1-2-1.5-6.7-3.9-5-2.5-5.6-2.9-6.5-3.9-1.3-1.4-4.5-3-6.1-3-1.3 0-1.6-.2-3-1.5q-1-1-4.1-2.6c-2.7-1.3-3.2-1.5-4.1-1.5-1.2 0-1.5-.1-13-6-5.3-2.6-5.9-2.8-6.9-2.8s-1.5-.2-5.7-2.3-4.7-2.3-5.7-2.3-1.4-.2-4.2-1.6-3.2-1.6-4.3-1.6-1.5-.1-3.4-1.1-2.4-1.1-3.3-1.1q-1 0-2.3-.6t-2.3-.6q-1.1 0-2.1-.5t-2.1-.5a4 4 0 0 1-2.3-.6q-1-.7-2.1-.6t-2.2-.5c-1-.4-1.4-.5-3.3-.5-2 0-2.3 0-3.4-.6s-1.3-.6-3.4-.6c-1.9 0-2.3 0-3.3-.5s-1.4-.5-3.4-.5-2.3 0-3.3-.6l-1-.6h-9l-1.2-.6c-1.2-.6-1.2-.6-4.5-.6-3.4 0-3.4 0-4.5-.6l-1-.6h-38.9zm45.6 43.3c1 .5 1 .5 5.4.5h4.4l1.2.6c1.2.6 1.2.6 4.6.6 3.2 0 3.5 0 4.4.5q1 .5 2 .5a5 5 0 0 1 2.4.6q1.2.6 2.4.6a4 4 0 0 1 2.2.6q1 .7 2.1.6t2.2.5q1.2.5 2.2.5t2.3.6 2.3.6a5 5 0 0 1 2.1.5q1.1.5 2.2.5c.8 0 1.4.2 3.2 1.1s2.4 1.1 3.3 1.1c1 0 1.6.3 6.8 2.8s5.8 2.8 6.7 2.8 1.7.3 9 4c7.2 3.6 8.2 4.1 9.3 5.2 1 .9 2 1.5 5.4 3.2a21 21 0 0 1 5.5 3.3q1.3 1.3 3.5 2.4a11 11 0 0 1 3.2 2.1q1 1 2.3 1.7c.7.4 1.8 1.1 2.3 1.7q1 1 2.1 1.6c.6.3 1.6 1 2.1 1.6q1 1 2.2 1.6a16 16 0 0 1 3.4 2.9 464 464 0 0 1 29.8 29.2c.3.5 1 1.5 1.7 2.2l1.7 2.3q.5 1 1.7 2.3t1.7 2.3a6 6 0 0 0 1.6 2.1c.8.8 1.3 1.5 2.2 3.3q1.1 2.3 2.3 3.5t2.3 3.4a9 9 0 0 0 2 3.1c.9.8 1.3 1.4 2.7 4.2l2 4.1 4 8c3.5 6.8 3.7 7.3 3.8 8.6q0 1.4.6 2.4l2.8 5.4c2 4 2.2 4.6 2.2 5.6s.2 1.4 1.1 3.3 1.1 2.4 1.1 3.3q0 1.1.5 2.1t.5 2.1q0 1 .6 2.3t.6 2.3.5 2.2c.4 1 .5 1.4.5 3.3 0 2.1 0 2.3.6 3.3s.6 1.3.6 2.3q0 1.3.5 2.2c.4.9.5 1.2.5 3.2s0 2.3.6 3.4.6 1.2.6 4.5 0 3.3.6 4.5l.6 1.2v36.4l-.6 1.2-.6 1.2v4.5c0 4.4 0 4.5-.5 5.5s-.5 1.2-.5 4.2c0 3.2 0 3.3-.6 4.6-.6 1.1-.6 1.4-.6 3.4s0 2.3-.5 3.2q-.6 1-.5 2 0 1.2-.6 2.4c-.6 1.2-.6 1.5-.6 3.5s0 2.2-.6 3.3q-.6 1.2-.6 2.3t-.5 2.2-.5 2.2c0 1-.1 1.4-.6 2.2s-.6 1.3-.6 2.2q0 1.1-.5 2.2t-.5 2.2c0 1-.2 1.4-1.1 3.2s-1.1 2.2-1.1 3.1c0 1-.2 1.6-1.7 4.7-1.5 3-1.7 3.6-1.7 4.6s-.2 1.5-2.2 5.4-2.2 4.4-2.2 5.4c0 1.2-.2 1.6-6.7 14.7a74 74 0 0 1-8 14.8c-1 1-1.5 1.8-2.7 4.3a13 13 0 0 1-2.7 4.3 12 12 0 0 0-2.4 3.6c-.8 1.7-1.4 2.6-2.3 3.5l-1.7 2.2c-.2.5-1 1.4-1.5 2-.6.5-1.3 1.6-1.7 2.3q-.6 1.3-2.8 3.4a15 15 0 0 0-2.7 3.2 34 34 0 0 1-5 5.5 25 25 0 0 0-5 5.6 25 25 0 0 1-6.7 6.7c-1 .6-2.4 1.8-5.6 5q-4.3 4.4-5.2 4.7a19 19 0 0 0-3.3 2.8 13 13 0 0 1-3.4 2.8q-1.1.6-2.2 1.6-1 1-2.3 1.7l-2.4 1.8a13 13 0 0 1-3.1 2.1 13 13 0 0 0-3.1 2.1q-1.1 1.1-3.5 2.3a10 10 0 0 0-3.5 2.3c-1.1 1.1-2 1.6-17 9-14.7 7.4-16 8-16.9 8s-1.5.2-4.2 1.6c-3 1.4-3.4 1.6-4.4 1.6s-1.5.1-3.4 1.1-2.4 1.1-3.3 1.1q-1 0-2.3.6t-2.3.6q-1.1 0-2.1.5t-2 .5q-1.2 0-2.4.6c-1.2.6-1.5.6-3.6.6-2 0-2.3 0-3.2.5s-1.2.5-3.2.5-2.2 0-3.2.6-1.2.6-3.4.6c-2 0-2.4 0-3.4.5s-1.2.5-4.3.5c-3.3 0-3.3 0-4.5.6l-1.2.6h-30l-1-.5c-1-.5-1.2-.5-4.3-.5-3.4 0-3.4 0-4.7-.6-1.1-.6-1.4-.6-3.5-.6-2 0-2.2 0-3.2-.6s-1.2-.6-3.3-.6c-1.9 0-2.3 0-3.3-.5q-1.2-.5-2.2-.5t-2.3-.6q-1.2-.7-2.3-.6t-2.1-.5q-1-.5-2.2-.5c-1 0-1.5-.1-2.4-.6q-1.2-.7-2.3-.6t-2.1-.5q-1-.5-2-.5c-1 0-1.5-.2-3.4-1.1s-2.4-1.1-3.3-1.1c-1 0-1.5-.2-5.6-2.2l-5.5-2.8a4 4 0 0 0-2.3-.6c-1 0-1.5-.2-7-3-5.2-2.5-6-3-7-4a18 18 0 0 0-5.6-3.4 18 18 0 0 1-5.4-3.2 11 11 0 0 0-3.2-2.1q-2.2-1.1-3.5-2.4a12 12 0 0 0-3.4-2.3 10 10 0 0 1-3.2-2.1 9 9 0 0 0-2.2-1.6q-1-.4-3.4-2.8a18 18 0 0 0-3.3-2.8l-2.1-1.6a93 93 0 0 1-14.5-13.4A131 131 0 0 1 338 693a14 14 0 0 1-2.7-3.3l-1.8-2.4-1.7-2.2a7 7 0 0 0-1.5-2q-1-1-1.6-2.2a11 11 0 0 0-1.8-2.4c-1-1-1.5-1.8-3.3-5.5a18 18 0 0 0-3.3-5.5 53 53 0 0 1-6.8-12.5 51 51 0 0 1-5.6-12.2c0-1-.3-1.6-2.8-6.7s-2.8-5.7-2.8-6.7c0-.8-.2-1.4-1.1-3.2-1-2-1.1-2.3-1.1-3.4 0-1-.1-1.5-1.1-3.4s-1.1-2.4-1.1-3.3c0-1-.2-1.4-1.2-3.5-1-2-1.2-2.5-1.2-3.5q0-1.1-.5-2.2c-.4-1-.5-1.4-.5-3.3 0-2 0-2.2-.6-3.2a4 4 0 0 1-.6-2.3 5 5 0 0 0-.5-2.3c-.4-1-.5-1.4-.5-3.2 0-2 0-2.2-.6-3.2a4 4 0 0 1-.6-2.3q0-1.1-.5-2.1c-.4-.9-.5-1.2-.5-3.2s0-2.3-.6-3.4l-.6-1.2v-4.4c0-4.3 0-4.4-.5-5.4s-.5-1.2-.5-3.4 0-2.5-.6-3.6a6 6 0 0 1-.1-5.3l.5-1.1v-13.5l.6-1 .6-1.2v-11l.6-1.3c.6-1.2.6-1.3.6-4.4 0-3 0-3.2.5-4.2s.5-1.4.5-3.3c0-2 0-2.3.6-3.5q.6-1.2.6-2.3t.5-2.1c.4-.9.5-1.2.5-3.2s0-2.3.6-3.4.6-1.3.6-3.5v-2.3l1.6-3c1.5-2.9 1.6-3.2 1.6-4.3s.2-1.5 1.7-4.6c1.4-3 1.7-3.6 1.7-4.5s.3-1.5 1.7-4.5 1.7-3.7 1.7-4.5c0-1 .6-2.1 6.2-13.5 6.2-12.2 6.3-12.4 7.4-13.5l1.2-1.2a43 43 0 0 1 4.2-7.6q1-.9 1.6-2l1.8-2.5 1.7-2.3a8 8 0 0 1 1.6-2q1.1-1 1.6-2.2a13 13 0 0 1 2.8-3.4l2.8-3.3a500 500 0 0 1 28.5-28.6q1-.6 2.3-1.7l2.2-1.7 2.3-1.8q1.3-1.2 2.2-1.6c.8-.3 1-.5 1.5-1.5l.6-1.1 3.3-1.7c2.8-1.4 3.6-2 4.6-3s1.8-1.4 3.3-2a12 12 0 0 0 3.3-2.3c1.2-1.2 1.8-1.5 5.8-3.5s4.6-2.2 5.5-3.2 1.4-1.3 10-5.6c8.7-4.4 9.2-4.6 10.3-4.6 1 0 1.5-.2 6.6-2.7 5-2.6 5.6-2.8 6.9-2.9a7 7 0 0 0 3.3-1.2c1.7-.9 2-1 3.2-1 1 0 1.4-.1 3.4-1.1 1.9-1 2.4-1.1 3.3-1.1 1 0 1.4-.2 3.3-1.1s2.4-1.1 3.3-1.1q1 0 2.3-.6a5 5 0 0 1 2.4-.6q1 0 2.2-.6c1.1-.6 1.3-.6 3.4-.6 1.9 0 2.3 0 3.3-.5q1.2-.5 2.2-.5t2.1-.6c1.1-.6 1.1-.6 4.5-.6 3.3 0 3.5 0 4.5-.5s1.2-.5 5.4-.5h4.3l1.1-.6 1.1-.6H519z"/><path d="M492 384.7c-.8.4-1.2.5-3.2.5s-2.3 0-3.4.6-1.3.6-3.4.6c-1.9 0-2.3 0-3.3.5q-1.1.5-2.1.5t-2.2.6c-1.1.6-1.3.6-3.5.6h-2.2l-2.2 1.1c-1.8.9-2.4 1.1-3.2 1.1s-1.6.2-4.4 1.6-3.4 1.6-4.3 1.6c-1 0-1.9.4-14.3 6.6-12.7 6.3-13.2 6.6-14.2 7.7a7 7 0 0 1-2 1.6c-.6.2-1.7 1-2.4 1.7q-1.2 1.2-3.3 2.2-2.2 1-3.3 2.2l-2.3 1.7c-.8.4-2 1.5-4.5 3.9a30 30 0 0 1-4.3 3.8c-.7.4-3.3 2.8-8.7 8.2a55 55 0 0 0-8.2 8.7c-.3.8-1.2 1.7-3.8 4.3a20 20 0 0 0-4 4.6 10 10 0 0 1-1.7 2.3c-.6.5-1.3 1.5-1.6 2.1q-.6 1-1.6 2.1-1 1-1.6 2.2l-1.8 2.4-1.7 2.3a8 8 0 0 1-1.6 2c-.8.8-1.3 1.4-2.1 3.1q-1.1 2.2-2.2 3.4a66 66 0 0 0-7.2 13.2c-5.7 11.4-6 12.1-6 13.2s-.2 1.4-1.7 4.5c-1.5 3-1.7 3.5-1.7 4.5s-.2 1.4-1.1 3.3-1.1 2.4-1.1 3.3c0 1-.1 1.4-.6 2.2s-.6 1.3-.6 2.3q0 1.3-.5 2.2t-.5 2.1q0 1-.6 2.3c-.6 1.1-.6 1.3-.6 3.4 0 1.9 0 2.3-.5 3.3s-.5 1.4-.5 3.8 0 2.8.5 3.8q.5 1.2.5 2.2c0 1 .2 1.5 1 3.3 1.5 2.7 2 3.2 6 5.2l3 1.6h5.6l4-2 4.1-2 2-4 2.1-4.2v-4.4l1.7-3.4c1.5-3 1.7-3.5 1.7-4.5s.2-1.5 2.8-6.7 2.8-5.6 2.8-6.7c0-1 .2-1.5 1.7-4.5 1.3-2.6 1.8-3.5 2.8-4.6 1.1-1.1 1.6-2 4-6.8s3-5.7 3.9-6.7q1.2-1.1 2.2-3.3 1-2 2.2-3.3l1.7-2.2q.4-1 3.8-4.3a19 19 0 0 0 4-4.6q.6-1.2 1.6-2.2t1.5-2c.8-1.5 2.9-3.6 4.3-4.3.7-.4 2.9-2.4 7.8-7.3 5.4-5.3 7-6.9 7.9-7.3q1-.6 3.3-2.8c1.7-1.7 2.5-2.3 3.4-2.7q1.3-.6 2.2-1.7 1-1 2.1-1.6 1-.6 2.3-1.7t3.3-2.2q2.2-1 3.3-2.2c1.1-1 2.1-1.6 13.5-7.3 11.8-5.9 12.4-6.2 13.7-6.3a8 8 0 0 0 3.4-1.2c1.8-.8 2.3-1 3.2-1s1.4-.2 3.3-1.1 2.4-1.1 3.3-1.1q1 0 2.3-.6c1.2-.6 1.5-.6 3.5-.6 1.9 0 2.2 0 3.1-.5s1.2-.5 3.2-.5h2.3l2.2-1.1c1.8-.9 2.3-1.1 3.2-1.1s1 0 2-1l1.4-2a7 7 0 0 1 1.5-2c1-.8 1-.9 1-2 0-.9.2-1.4 1.1-3.3 1-2.2 1.1-2.4 1.1-3.8s-.1-1.7-.6-2.7q-.7-1.2-.6-2.3c0-1-.2-1.4-1-3a9 9 0 0 0-3.9-4.3 8 8 0 0 1-2-1.6c-.9-1-1-1-1.9-1q-1 0-2-.5c-1.2-.5-1.3-.5-6-.5-4.6 0-4.7 0-5.6.5m353.2-63.4q-1 .5-2.1.5c-.9 0-1.4.2-3.4 1.2-2.1 1-2.5 1.2-3.6 1.2-1 0-1.4.1-3 1q-2 1-3 2l-2.2 1.7a10 10 0 0 0-3.6 3.6c-.2.5-1 1.4-1.5 2a14 14 0 0 0-2.6 4.1c-1.4 2.8-1.6 3.3-1.6 4.3q0 1-.6 2.3c-.6 1.1-.6 1.3-.6 3.4 0 1.8 0 2.4-.4 3l-.4.8.4 1c.3.8.4 1.4.4 3.1 0 2 0 2.2.6 3.3s.6 1.5.6 2.4c0 1 .1 1.4 1.5 4a18 18 0 0 0 4.4 5.9l3 3.1 4.3 2.2c4 2 4.5 2.2 5.5 2.2q1 0 2.3.6l1.2.6h5c5 0 5 0 6-.5q1-.5 2.1-.5c1 0 1.5-.2 6.4-2.6l5.2-2.6 3.3-3.3c3-3 3.3-3.3 4.2-5.2.8-1.6 1-2.1 1-3s.2-1.4 1.1-3.3l1.1-2.2v-3.3c0-3.1 0-3.4.5-4.3s.5-1 0-1.6c-.2-.6-.3-1.2-.3-3v-2.2l-1.2-2.4c-1-2-1.2-2.5-1.2-3.3 0-1 0-1-1-1.9q-.8-.9-2-3.2c-1-2.1-1.4-2.5-3.2-4.3-2.3-2.3-3-2.7-4.8-2.7-1.2 0-1.2 0-2.5-1.2-1.2-1.2-1.3-1.2-2.3-1.2q-1 0-2-.5t-2-.5a5 5 0 0 1-2.4-.6c-1.1-.6-1.4-.6-3.4-.6-1.8 0-2.3.1-3.2.5"/></g></svg>