<svg xmlns="http://www.w3.org/2000/svg" width="1000" height="1000" viewBox="0 0 1000 1000"><g fill="#141413"><path d="M700.9.7q-.3 2.7-3.6 4l-1.6.8-15.2.1-15.2.1-1.1.6-1.1.6-14.4.1c-14.3.1-14.4.1-15.5.6-1.2.4-1.4.4-8.5.4-7.2 0-7.3 0-8.2.4-.7.5-1.1.5-5.4.6s-4.6.1-5.6.6-1.1.5-6.6.6c-5.1.1-5.7.1-6.3.5-.6.3-1.2.4-4.3.5s-3.8.2-4.7.6-1.6.4-5.2.4c-4 0-4 0-5 .5s-1.2.6-5.8.7c-4.2 0-4.8.1-5.4.5-.6.3-1.2.4-4.2.5-3.2.1-3.6.2-4.5.6-1 .5-1.2.5-5.6.6-4 0-4.7.2-5.3.5-.3.2-1.2.4-1.8.4q-1 .1-2.3.7c-1.1.4-1.5.5-4.7.6-3 .1-3.7.2-4.6.6-1 .3-1.6.4-4.1.4-2.8 0-3 0-4 .5s-1.2.6-4.6.7c-3.1 0-3.7.2-4.3.5s-1.2.4-4.3.5-3.7.2-4.3.5q-.6.4-3.1.5a8 8 0 0 0-3.4.6c-.9.4-1.3.5-4.4.6-2.9 0-3.5.2-4.1.5s-1.2.4-3.3.5-2.7.2-3.3.5-1.2.4-4.2.5c-3.2.1-3.6.1-4.4.6s-1.3.5-3.3.6q-2.4.2-3.5.6c-1 .3-1.6.4-3 .4-1.7 0-2.1 0-3.1.5-1.1.6-1.4.6-4.7.7-3 0-3.6.2-4.2.5q-.6.4-3.2.5-2.5.2-3.6.6c-1 .3-1.5.4-4.3.4s-3.2 0-4 .4c-.6.4-1.2.5-3 .6-2 0-2.3 0-3.2.6s-1.2.5-4.6.6c-3 .1-3.8.2-4.7.6s-1.6.4-4.2.4c-2.8 0-3 0-4.1.5s-1.4.6-4.6.7c-2.9 0-3.5.2-4.1.5s-1.2.4-4.3.5c-3.4.1-3.7.1-4.5.6-.9.5-1 .5-5.6.6-4.2 0-4.8.1-5.4.5s-1.2.4-6.3.5c-5.5.1-5.6.1-6.6.6l-1 .5-9.9.1c-9.6.1-10 .1-11 .6l-1.2.4h-21.4c-20.9-.1-21.3-.1-22-.5s-1.2-.4-12.9-.5l-12.2-.1-1-.5c-1-.5-1.1-.5-6.7-.6-5.2-.1-5.8-.1-6.4-.5-.6-.3-1.2-.4-4.2-.5s-3.6-.2-4.2-.5c-.6-.4-1.2-.4-6.5-.5-5.7-.1-5.8-.1-6.7-.6l-.9-.5L232 35c-10.6-.1-11.1-.1-11.8-.5s-1.2-.4-7.6-.5l-6.9-.1-.9-.5c-.8-.5-1.1-.5-4.4-.6s-3.6-.1-4.5-.7l-1-.5h-5.2c-4.8 0-5.2 0-6.3-.4s-1.7-.5-4.7-.6-3.7-.2-4.3-.5-1.2-.4-4.2-.5c-3.3-.1-3.6-.1-4.5-.7-1-.5-1.2-.5-4-.5-2.5 0-3 0-4-.4s-1.7-.5-5.9-.6-4.8-.1-5.4-.5-1.2-.4-6.3-.5c-5.5-.1-5.6-.1-6.5-.6s-1-.5-6.7-.6c-5.5-.1-5.8-.1-6.6-.6-.9-.4-1-.4-7.7-.4-6.6 0-6.8 0-7.7.4s-1.4.5-6.5.6c-5.3.1-5.5.1-6.5.6s-1.3.5-4.5.6c-2.9.1-3.7.2-4.6.6a8 8 0 0 1-3 .4c-1.6 0-2.2 0-2.8.4q-1 .5-2 .5-1.3.2-2.3.6c-.5.3-1.6.6-2.4.7l-2.5.6-2 .4c-.9 0-1.4.2-3 1-1.6 1-2 1-3.3 1.2-1.3 0-1.7.2-9.1 4a38 38 0 0 0-11.1 6.6q-1.2.6-2 1.5-.7.9-2 1.5a29 29 0 0 0-7.2 7.2q-.7 1.2-1.7 2.3t-1.5 2c-.3.5-1 1.5-1.6 2.1q-1.1 1.1-2.2 3.3t-2.3 3.3c-1 1.2-1 1.2-1.2 2.7-.1 1.3-.3 1.8-2.2 5.4-1.7 3.5-2 4.2-2 5.3-.1 1-.3 1.7-1.2 3.3q-1 2.1-1 3l-.4 1.9-.6 2.5q-.2 1.4-.7 2.5L9 94.9l-.4 1.9q-.4 1-.6 3.6c-.1 2.1-.2 2.6-.6 3.4-.5.8-.5 1.2-.6 4.4s-.1 3.6-.6 4.4l-.5.9-.1 7.8-.1 7.8-.8 1.6q-1.3 3.3-4 3.6l-.7.1v6.4l.7.1c1.8.3 2.9 1.2 4 3.5l.8 1.5.1 13.3.1 13.3.5.9.5.9.1 7.9c.1 7.4.1 8 .5 8.6.4.7.4 1.2.5 7.6l.1 6.9.5.9c.5.9.5 1 .6 6.5.1 5.1.1 5.7.5 6.3s.4 1.2.5 6.5c.1 5.7.1 5.8.6 6.7s.5 1 .6 7.7c.1 6.3.2 6.9.6 7.9s.4 1.5.4 6.2v5l.6 1 .5 1.1.1 7.9c.1 7.5.1 8 .6 9s.4 1.4.4 7.4 0 6.2.4 7c.5.9.5 1.1.6 8.7l.1 7.8.5.9c.5.9.5.9.6 7.7s.1 6.8.6 7.7l.5.9.1 7.9c.1 7.5.1 8 .6 9s.4 1.4.4 8.5v7.3l.6 1 .5 1.1.1 5.7c.1 5.2.2 5.8.6 6.8s.4 1.5.4 6.3c0 5 0 5.1.5 6 .4.8.4 1 .5 7.6.1 6.8.1 6.8.6 7.7l.5.9.1 10c.1 9.5.1 10 .5 10.7s.4 1.1.5 29.8v29.2l-.4 1.1-.5 1.2-.1 18.7-.1 18.7-.5.9-.5.9-.1 11.1c-.1 10.6-.1 11.1-.5 11.8s-.4 1.2-.5 9.8-.1 9.1-.5 9.8-.4 1.2-.5 9.6l-.1 8.9-.6 1.2-.7 1.2v9.7c-.1 9.3-.1 9.7-.5 10.4s-.4 1.2-.5 11.8-.1 11.1-.5 11.8-.4 1.2-.5 10.8l-.1 10.1-.5 1-.6 1v8.4c0 8.1 0 8.4-.4 9.5s-.5 1.5-.6 10.1l-.1 9-.5.9-.5.9-.1 7.9c-.1 7.4-.1 8-.5 8.6-.4.7-.4 1.2-.5 7.4-.1 6.7-.1 6.7-.6 7.6l-.5.9-.1 9c-.1 8.5-.1 9-.5 9.7s-.4 1.2-.5 8.6l-.1 7.9-.5.9-.5.9-.1 11.1c-.1 10.6-.1 11.1-.5 11.8s-.4 1.2-.5 13l-.1 12.3-.5.9c-.4.8-.4 1-.3 4.5 0 3.1 0 3.8.5 4.7s.4 1.4.4 7c0 4.6 0 6-.3 6.7s-.3 1 0 1.8.3 2.7.3 10.4c0 9.5 0 9.5.4 10.4.5.7.5 1.1.6 5.4s.1 4.6.6 5.5c.5.8.5 1.2.6 4.4 0 3 .2 3.6.5 4.2.3.5.4 1.3.5 3.2q0 2.6.6 3.6a9 9 0 0 1 .4 3.1c0 1.7 0 2 .5 3q.5 1 .7 2.3c0 .7.3 1.8.6 2.4a9 9 0 0 1 .4 3.1c0 1.9 0 2 1 4 .9 1.6 1 2.3 1.2 3.3q0 1.3.6 2.3t.6 2.3c0 1 .3 1.7 1 3.3.9 1.6 1 2.3 1.2 3.3 0 1 .3 1.7 1 3.3a67 67 0 0 0 7.3 16.6A58 58 0 0 0 39.5 953a12 12 0 0 1 3.2 4.3l1.2 2.2 8 8.1A72 72 0 0 0 63.5 978c1 1 2.1 1.6 8.9 5 7.3 3.6 7.9 3.9 9.1 4 1.1 0 1.7.2 3.2 1s2.1 1 3.2 1.2l2 .4q.8.3 2.1.5 1.5.2 2.5.7c.9.4 1.2.5 2.9.5 1.5 0 2.2.1 3 .4q1.2.5 3.7.6c2 .1 2.7.2 3.2.5.6.4 1.2.4 6.3.5l5.6.1 1 .5 1 .6h7.8c7.6 0 7.7 0 8.6-.4s.9-.5 10.8-.6l10-.1.9-.5.9-.5 9-.1c8.5-.1 9-.1 9.7-.5s1.2-.4 8.6-.5l7.9-.1.9-.5c.9-.5 1-.5 6.6-.6 5.2-.1 5.8-.1 6.4-.5s1.2-.4 5.3-.5 4.7-.2 5.7-.6 1.6-.4 4.2-.4c2.9 0 3 0 4-.5s1.2-.6 5.7-.7c4 0 4.7-.1 5.3-.5.5-.3 1.2-.4 3.2-.5 2.1-.1 2.6-.2 3.4-.6.8-.5 1.2-.5 4.4-.6 3 0 3.6-.2 4.2-.5.5-.3 1.2-.4 3.2-.5 2.1-.1 2.6-.2 3.4-.6s1.3-.5 3.4-.6q2.6-.2 3.6-.6c1-.3 1.6-.4 4-.4 2.9 0 3 0 4-.5s1.4-.6 3.6-.7c2 0 2.7-.2 3.2-.5s1.2-.4 4.2-.5 3.6-.2 4.2-.5 1.2-.4 4.3-.5c3.4-.1 3.7-.1 4.5-.6.9-.5 1-.5 5.5-.6 4.1 0 4.7-.1 5.3-.5.6-.3 1.2-.4 4.3-.5s3.7-.2 4.3-.5 1.2-.4 4.2-.5c3.2-.1 3.6-.1 4.4-.6s1.3-.5 3.4-.6 2.7-.2 3.2-.5 1.2-.4 4.2-.5c3.2-.1 3.6-.2 4.5-.6s1.3-.5 4.5-.6c3 0 3.6-.2 4.2-.5q.6-.4 3.1-.5a8 8 0 0 0 3.4-.6c.9-.4 1.4-.5 4.5-.6 2.9-.1 3.7-.2 4.6-.6 1-.3 1.5-.4 4-.4 2.9 0 3 0 4-.5s1.3-.6 4.7-.7c3-.1 3.8-.2 4.7-.6s1.5-.4 4-.4c2.7 0 3.1 0 3.9-.5s1-.4 6.6-.5c5.7-.1 5.8-.1 6.7-.6s1-.5 7.6-.6c6.2-.1 6.7-.1 7.4-.5s1.2-.4 13-.5 12.3-.1 13-.5 1-.4 20.4-.4h19.7l1 .4c1 .5 1.1.5 11.7.5s10.6 0 11.8.4c1 .5 1.5.5 7.9.6 6.8.1 6.8.1 7.7.6s1 .5 6.5.6c5.1.1 5.7.1 6.3.5s1.2.4 6.5.5 5.9.1 6.5.5c.6.3 1.2.4 4.2.5 3.2.1 3.6.1 4.4.6s1.1.5 4.5.6c3.1.1 3.7.2 4.3.5s1.2.4 4.2.5 3.6.2 4.2.5 1.2.4 4.3.5c3.4.1 3.6.1 4.6.7s1.2.5 4 .5c2.6 0 3.2 0 4.1.4 1 .4 1.7.5 4.7.6 3.3.1 3.7.1 4.5.6.9.5 1 .5 5.5.6 4.1 0 4.7.1 5.3.5.6.3 1.2.4 4.2.5 3.2.1 3.6.2 4.5.6 1 .5 1.2.5 5.6.6 4.1 0 4.7.1 5.3.5.6.3 1.2.4 4.3.5 3.4.1 3.6.1 4.6.7s1.1.5 5.1.5c3.6 0 4.1 0 5.2.4 1 .4 1.7.5 4.7.6s3.7.2 4.3.5c.6.4 1.2.4 6.4.5 5.6.1 5.7.1 6.6.6s1.1.5 4.4.6c3 .1 3.6.2 4.2.5.7.4 1.2.4 8.6.5 7.7.1 8 .1 8.7.5.9.5 1 .5 10 .5s9 0 9.9-.5 1.2-.4 7.8-.5c6.4-.1 7-.1 7.6-.5.6-.3 1.2-.4 4.1-.5 3 0 3.5-.1 4.3-.6q.8-.4 2.4-.6 1.4-.1 2.2-.5a8 8 0 0 1 3.1-.5q2.5 0 3.1-.5l2-.5q1.3 0 2.3-.5t2.2-.6 2-.6l2.2-.5c1.2 0 1.7-.2 3.3-1s2-1 3.2-1.1 1.7-.3 5.5-2.2 4.3-2.1 5.7-2.3 1.5-.1 2.4-1.2c.7-.9 1.3-1.3 4.4-2.8l3.5-1.8 5.7-5.7c5.7-5.8 5.8-5.8 6.8-7.9q1.1-2 2.2-3.3a17 17 0 0 0 3.6-7.2c.1-1 .5-1.8 1.6-4.3a14 14 0 0 0 1.7-4.3q0-1.2 1-3.3c.8-1.6 1-2.4 1.2-3.3q0-1.2.6-2.2t.5-2.3l.5-2q.4-.5.5-3.2c.1-2 .2-2.7.5-3.2q.4-.6.5-3.1c.1-2 .2-2.5.6-3.3s.5-1.3.6-3.4.2-2.7.5-3.2c.4-.6.4-1.2.5-6.4.1-5.4.1-5.7.6-6.5l.4-.9v-11.2c0-11.1 0-11.1-.4-12.1s-.5-1.2-.6-10c-.1-8.5-.1-9-.5-9.7s-.4-1.2-.5-6.3c-.1-5.5-.1-5.6-.6-6.5s-.5-1-.6-6.7c-.1-5.3-.1-5.9-.5-6.5s-.4-1.2-.5-6.4-.1-5.8-.5-6.4c-.3-.5-.4-1.2-.5-3.2-.1-2.2-.2-2.6-.6-3.4-.5-.9-.5-1-.6-5.5 0-4.1-.1-4.7-.5-5.3-.3-.6-.4-1.2-.5-4.3s-.2-3.7-.5-4.3c-.4-.6-.4-1.2-.5-5.3-.1-4.4-.1-4.6-.6-5.5-.5-.8-.5-1.1-.6-4.5 0-3.1-.2-3.7-.5-4.3s-.4-1.2-.5-4.3c-.1-3.4-.1-3.7-.6-4.5s-.5-1.2-.6-4.4c0-3-.2-3.6-.5-4.2s-.4-1.2-.5-4.2c-.1-3.2-.2-3.6-.6-4.5-.5-1-.5-1.2-.6-5.6-.1-4-.2-4.7-.6-5.7s-.4-1.5-.4-5.2c0-4 0-4-.5-5s-.6-1.2-.7-5.8c0-4.2-.1-4.8-.5-5.4s-.4-1.2-.5-6.4-.1-5.8-.5-6.4-.4-1.2-.5-7.5c-.1-6.8-.1-6.8-.6-7.7l-.5-.9-.1-8.9c-.1-8.4-.1-9-.5-9.6-.4-.7-.4-1.2-.5-15.2s-.1-14.5-.5-15.2-.4-1-.4-15.1v-14.4l.5-.8.4-.9v-45.9l-.4-.8c-.5-.8-.5-1-.6-7.5s-.1-6.7-.6-7.6-.5-1.3-.6-3.4q0-2.7-.5-3.2-.4-.7-.4-1.9l-.7-2.4c-.5-1.2-.5-1.3-.5-5.5V507l1.4-2.8a13 13 0 0 1 2.5-4 11 11 0 0 0 1.8-2.4 11 11 0 0 1 2.5-3q2.1-2 2.7-3.1.6-1.3 2.9-3.6c1.3-1.3 2.5-2.7 2.8-3.3q.4-1 3.6-4.1a18 18 0 0 0 3.7-4.3q.7-1.2 2.9-3.5a19 19 0 0 0 2.8-3.3q.4-1 3.6-4.1a22 22 0 0 0 3.7-4.2q.5-1 3.9-4.5 3.3-3.4 3.7-4.3.3-.8 3.8-4.3a21 21 0 0 0 4-4.6 12 12 0 0 1 2.7-3.2 13 13 0 0 0 2.7-3.2c.4-.9 1.4-2 3.7-4.3 2.4-2.4 3.3-3.4 3.8-4.4s1.2-1.7 2.7-3.2 2.2-2.1 2.7-3.2a11 11 0 0 1 2.7-3.2 11 11 0 0 0 2.7-3.2q.7-1.3 2.7-3.3t2.7-3.3a12 12 0 0 1 2.7-3.2 9 9 0 0 0 2.7-3.2q.7-1.2 1.7-2.3t1.7-2.3c.5-1 1.1-1.7 2.7-3.1 1.5-1.4 2.1-2.2 2.7-3.2l1.6-2.3 1.6-2.2q.6-1.4 1.6-2.1t1.5-2l1.8-2.4 1.7-2.2a7 7 0 0 1 1.5-2q1-1 1.7-2.3.7-1.4 1.6-2.1 1-.9 1.5-2l1.8-2.4 1.7-2.2q.5-1 1.4-1.9.9-1 1.6-2.2a8 8 0 0 1 1.7-2.3q1-1 1.6-2.1c.3-.6 1-1.6 1.6-2.1q1-1 1.7-2.3c.4-.7 1.1-1.8 1.7-2.3q1-1 1.5-2a16 16 0 0 1 4.6-4.7c1-.5 1.1-.5 4.2-.5h3.2l1.9 1c1.8.8 2 1 4.6 3.6l2.7 2.8 2 3.9 2 3.9v5.7c0 5.4 0 5.7-.4 6.5q-.5.8-.6 2c0 1-.4 1.9-2.1 5.4-1.9 3.7-2.2 4.4-2.2 5.5-.1 1.2-.6 2.1-7 15a80 80 0 0 1-8 14.9c-1 1-1.5 2-4.9 8.7-3.3 6.7-3.8 7.6-4.7 8.4a18 18 0 0 0-3.2 5.3 21 21 0 0 1-3.3 5.5 16 16 0 0 0-2.7 4.3 13 13 0 0 1-2.6 4.2q-1 1-2.2 3.2a14 14 0 0 1-2.2 3.4q-1.2 1.2-2.3 3.4t-2.1 3.2q-1 .9-2.2 3.3a11 11 0 0 1-2.2 3.3c-.6.5-1.3 1.6-1.7 2.3q-.7 1.2-1.7 2.3c-.6.5-1.3 1.5-1.6 2.1q-.6 1-1.5 2l-1.6 2.2q-.6 1.4-1.6 2.1-1 .9-1.5 2l-1.8 2.4-1.7 2.2q-.5 1-2.6 3.1a16 16 0 0 0-2.7 3.2q-.6 1-1.6 2.1c-.6.5-1.3 1.6-1.7 2.3q-.6 1.3-1.6 2.2t-1.6 2.2c-.5 1-1.2 1.7-2.7 3.2a11 11 0 0 0-2.6 3l-1.8 2.5-1.7 2.2c-.2.5-1 1.4-1.5 2q-1 1-1.7 2.3a7 7 0 0 1-1.6 2.1c-.7.6-1.2 1.3-2 3s-1.3 2.4-2.2 3.3c-1 1-1.4 1.6-4 6.9a24 24 0 0 0-3.5 9c-.4.8-.4 1.2-.4 5.5s0 4.8.4 5.6l.5 1.6q.2.7.8 1.4.7.8 1.3 2l1.1 1.6 3.8 2 3.3 1.6h2.5c2 0 2.6 0 3.4-.4.5-.3 1.6-.5 2.3-.5 2.2-.2 3-.8 8.5-6.3l4.8-4.9 2.2-4.3c1.8-3.7 2.3-4.4 3.2-5.3s1.4-1.7 4.2-7.4c2.8-5.6 3.3-6.5 4.3-7.6s1.6-2 3.3-5.5a22 22 0 0 1 3.3-5.5q1.1-1.2 2.3-3.4a9 9 0 0 1 2.1-3.1 12 12 0 0 0 2.2-3.3c1-2 1.4-2.6 2.1-3.2s1.2-1.3 2-2.9q1-2.1 2.2-3.4c.7-.7 1.5-1.8 1.8-2.4s1-1.6 1.6-2.2q1.1-1.1 2.1-3.1a14 14 0 0 1 2.2-3.2l1.8-2.4q.6-1.2 1.5-2.1l1.6-2.2q.7-1.4 1.6-2.1c.7-.6 1.2-1.3 2.1-3.1q1.2-2.4 2.2-3.3 1-1 1.7-2.3c.4-.7 1.1-1.8 1.7-2.3l1.5-2c.3-.5 1-1.5 1.6-2.1q1.1-1.1 2.2-3.3t2.2-3.3c.6-.6 1.3-1.7 1.7-2.3q.7-1.3 1.5-2 1-.9 1.5-2l1.8-2.4q1.1-1.2 2.1-3.1t2.1-3.1 2.3-3.4a11 11 0 0 1 2.1-3.2q1-1 1.7-2.3c.4-.7 1.1-1.8 1.7-2.3q1-.9 2.2-3.3t2.1-3.2a14 14 0 0 0 2.1-3.1 14 14 0 0 1 2.1-3.1q1-.9 2-3.1 1.1-2.2 2.3-3.4c1-1 1.5-1.9 3.4-5.6s2.3-4.6 3.2-5.4 1.5-1.9 4.9-8.7c3.6-7.1 3.9-7.8 4-9 0-1 .2-1.7 1-3.3q1-2 1.1-3.2t.7-2.2.5-2.3l.5-2q.4-.6.5-3.1c.1-2.3.2-2.5 1-4.1q.8-1.6 1.3-2.2l.4-.4-.4-.5a11 11 0 0 1-2-6c-.2-2-.3-2.6-.7-3.3q-.5-1-.6-2.2 0-2.6-2.4-4.9-1.2-1.1-2.1-3.2c-1-2-1-2-4.8-5.8q-4-4-5-4.4-1-.6-2.2-1.7t-3.4-2.3q-2.3-1-3.2-2.1a10 10 0 0 0-3-2c-1.6-.7-2.4-1.3-3.4-2.2l-2.1-1.6a20 20 0 0 1-4.7-4.5c-.4-.8-.4-1-.4-5.4v-4.6l5.3-10.6c5-10 5.4-10.7 5.4-11.9.1-1.1.4-1.8 2.3-5.5 1.7-3.6 2-4.4 2.2-5.4a9 9 0 0 1 1-3.1q.9-2 1-3.1t.6-2.2.5-2.3q.1-1.4.6-2.1l.4-1.7.4-2q.4-1 .6-3.6c.1-2.2.2-2.6.7-3.5l.5-1v-6.7c0-6.4 0-6.6-.4-7.5q-.5-.8-.6-2 0-1.3-1-3.5-1-2-1.1-3.2a17 17 0 0 0-1.8-4.6c-1.5-3-1.9-3.7-2.9-4.7s-1.4-1.7-2.1-3.2c-1-2-1-2-5.9-7-4-3.9-5.1-5-6.1-5.5q-1.2-.6-2.2-1.6a9 9 0 0 0-3.1-2 10 10 0 0 1-3.3-2.2 34 34 0 0 0-9-5c-6.9-3.5-8-4-9-4-1-.1-1.8-.5-4.3-1.6a13 13 0 0 0-4.3-1.6 10 10 0 0 1-3.3-1.2 10 10 0 0 0-3.3-1q-1.2-.2-2-.6l-2-.5-2.2-.5c-.8-.4-1.5-.5-3.4-.6a9 9 0 0 1-3.4-.6c-.9-.4-1.2-.4-7.5-.4-6.4 0-6.6 0-7.5.4a6 6 0 0 1-2.2.6l-2.2.4c-.4.3-1.3.5-1.9.5q-1.1.1-3.3 1.1a10 10 0 0 1-3.4 1.1 29 29 0 0 0-11.6 6.4l-3.3 2.8a58 58 0 0 0-12.2 11.7q-.5 1-4.8 5.3a32 32 0 0 0-4.9 5.5q-.6 1.1-2.8 3.4a19 19 0 0 0-2.8 3.3 31 31 0 0 1-4.3 4.8 20 20 0 0 1-5.6 4.7c-1.5.8-1.9.9-3 .9-1 0-1.6-.1-2.9-.8q-2.5-1.1-3.4-2.8c-.4-.8-.4-1-.4-8.6 0-7.7 0-7.8.5-8.6s.4-1.1.4-5c0-3.7 0-4.2.4-5.3q.4-1 .6-3.5c.1-2 .2-2.5.7-3.4.5-1 .5-1.2.5-4.1 0-2.6 0-3.2.4-4.2q.4-1 .6-3.5a8 8 0 0 1 .6-3.4 8 8 0 0 0 .6-3.4 8 8 0 0 1 .5-3.1q.4-.6.5-3.1c.1-2 .2-2.6.7-3.6s.5-1.4.5-3c0-1.5.1-2.2.4-3q.5-1.2.6-3.7c.1-2.2.2-2.6.7-3.5s.5-1.2.5-2.8.1-2.2.4-3q.5-1.2.6-3.7c.1-2 .2-2.7.5-3.2q.4-.6.5-3.1c.1-2 .2-2.5.6-3.3s.5-1.3.6-3.4.2-2.7.6-3.3c.3-.7.4-1.2.4-2.8s.1-2.2.4-3q.4-1.2.6-3.6c.1-2 .2-2.5.6-3.3.5-.9.5-1.1.6-5.4.1-4.1.1-4.6.6-5.5l.4-1V81.2c0-15.5 0-15.5-.4-16.4s-.5-1.4-.6-4.4c0-2.9-.2-3.6-.5-4.2l-.5-2c0-1.2-.4-2-4.4-10.1l-4.4-8.8-3.8-3.8c-3-3-4-3.9-5-4.4a10 10 0 0 1-2.3-1.7c-.9-.9-1.8-1.4-7.7-4.4-6.2-3-6.8-3.4-8-3.4-1.1-.1-1.7-.4-4.3-1.6s-3.2-1.6-4.3-1.6l-2.1-.5-2-.6c-.7 0-1.8-.3-2.4-.6l-2.3-.6q-1 0-2-.5-.8-.3-2-.4l-2.1-.5c-.4-.3-1.4-.5-2.1-.5q-1.2-.2-2.2-.6c-.7-.4-1.3-.5-3.3-.6q-2.5-.1-3.1-.5-.5-.4-3.2-.5c-2.1-.1-2.6-.2-3.4-.6-.8-.5-1.2-.5-4.4-.6s-3.6-.1-4.5-.7l-1-.5h-5.3q-5.3 0-6-.3t-1.5 0q-1.8.8-4.3-.6-3.2-1.5-3.5-4l-.1-.7H701zm-81.3 44c.7.4 1.2.4 10.8.5s10.1.1 10.8.5 1.2.4 9.6.5l8.9.1 1 .5 1 .5 7.8.1c7.3.1 7.8.1 8.5.5s1.2.4 9.8.5l9.1.1 1 .5 1 .6h6.1c6 0 6.3 0 7.4.4 1 .4 1.6.5 5.8.6s4.8.1 5.4.5c.5.3 1.2.4 3.1.5s2.5.2 3.3.6 1.3.5 3.4.6 2.7.2 3.3.6q.9.4 1.7.4l2 .4c.6.3 1.7.5 2.5.6.7.1 1.8.4 2.4.7q1 .5 1.8.5c1.1 0 2.1.4 9 3.8 6.2 3.1 7 3.5 8 4.6l2.3 1.7c.8.4 2 1.4 4.9 4.3l3.7 3.8 1.5 3c1.3 2.6 1.5 3.3 1.7 4.5q.1 1.3.5 2.1.4.7.4 1.9.1 1.2.6 2c.3.6.4 1.3.5 3.3.1 2.2.2 2.6.6 3.4l.5.9v41l-.4 1-.5 1v59.3l.5.9c.4.8.4.9.5 10.9.1 9.6.1 10.1.5 10.8s.4 1.2.5 8.6.1 8 .5 8.6c.3.6.4 1.2.5 4.2.1 3.2.1 3.6.6 4.4s.5 1.3.6 3.4c0 1.9.2 2.7.5 3.2l.5 2q0 1.3.6 2.3.4 1 .6 2.3 0 1.3.5 2.1c.3.7.4 1.1.4 3.2v2.4l-2 4a18 18 0 0 1-3 4.9c-.7.7-1.4 1.8-2.6 4.2s-2 3.6-2.8 4.4c-.9.9-1.5 2-3.3 5.5a22 22 0 0 1-3.3 5.5 20 20 0 0 0-3.3 5.5c-2 3.9-2.3 4.6-3.1 5.2s-1.2 1.3-2.5 3.9a16 16 0 0 1-2.7 4.4q-1.3 1.4-2.4 3.5-1 2.3-2 3.2c-.9.8-1.4 1.7-2.8 4.4s-2 3.6-2.9 4.6l-1.4 1.9q-.4.8-1.5 2-1.2 1.3-2.5 3.6-1.1 2.3-2.1 3.2l-1.6 2.2q-.6 1.4-1.6 2.1c-.7.6-1.2 1.3-2.1 3.1q-1.2 2.4-2.2 3.3a7 7 0 0 0-1.6 2.2q-.7 1.2-1.7 2.3a14 14 0 0 0-2.1 3.1q-1.1 2-2.2 3.2l-1.8 2.4q-.6 1.2-1.5 2.1l-1.6 2.2q-.6 1.4-1.6 2.1c-.7.6-1.2 1.3-2.1 3.1q-1.2 2.4-2.2 3.3c-.6.5-1.3 1.6-1.7 2.3q-.7 1.2-1.7 2.3a11 11 0 0 0-2.1 3.1 11 11 0 0 1-2.1 3.1 7 7 0 0 0-1.6 2.2q-.7 1.2-1.7 2.3-1 1.2-2 3.1-1.1 2-2.2 3.1l-1.6 2.2q-.5 1-1.7 2.3t-2.3 3.4q-1.1 2.2-2.2 3.3-1 1-1.6 2.1c-.2.5-1 1.4-1.5 2q-1 1-2 3.1-1.1 2.2-2.2 3.3l-1.8 2.4q-.5 1.2-1.7 2.3-1 1-2 3t-2 3.1a11 11 0 0 0-1.9 2.4q-.6 1.2-1.6 2.2c-.6.5-1.3 1.5-1.6 2.1q-.6 1-1.6 2.1c-.6.5-1.3 1.6-1.7 2.3q-.7 1.2-1.7 2.3c-.6.5-1.3 1.5-1.6 2.1q-.6 1-1.6 2t-2 3.2-2.3 3.4l-1.8 2.3q-.5 1-1.4 1.9-.9 1-1.6 2.2t-1.7 2.3c-.6.5-1.3 1.5-1.6 2.1q-.6 1-1.6 2.1c-.6.5-1.3 1.6-1.7 2.3q-.7 1.2-1.7 2.3a11 11 0 0 0-2.1 3.1 11 11 0 0 1-2.1 3.1c-.6.5-1.3 1.6-1.7 2.3q-.7 1.2-1.7 2.3c-.6.5-1.3 1.5-1.6 2.1q-.6 1-1.6 2.1c-.6.5-1.3 1.6-1.7 2.3q-.6 1.3-1.6 2.2-.9.8-2.1 3.2a11 11 0 0 1-2.2 3.3c-.6.5-1.3 1.5-1.6 2.1q-.6 1-1.6 2.1c-.6.5-1.3 1.6-1.7 2.3q-.7 1.2-1.7 2.3c-.6.5-1.3 1.5-1.6 2.1q-.6 1-1.5 2l-1.6 2.2q-.6 1.4-1.6 2.1-1 .9-1.5 2l-1.8 2.4-1.7 2.2c-.2.5-1 1.4-1.5 2q-1 1-1.7 2.3-.6 1.4-1.6 2.1t-1.6 2.1q-.7 1.2-1.7 2.3c-.6.5-1.3 1.5-1.6 2.1q-.6 1-1.5 2t-1.6 2.2q-.7 1.4-1.8 2.4-1 1.1-1.7 2.2-.6 1-1.5 2t-1.6 2.2c-.5 1-1.1 1.7-2.6 3.1a12 12 0 0 0-2.7 3.1l-1.8 2.5-1.7 2.2c-.2.5-1 1.4-1.5 2-.6.5-1.3 1.6-1.7 2.3q-.6 1.3-2.7 3.3a15 15 0 0 0-2.6 3.1q-.6 1-2.7 3.2a14 14 0 0 0-2.8 3.4 10 10 0 0 1-1.7 2.3q-1 1-1.4 1.9-.5 1-2.8 3.3a22 22 0 0 0-2.8 3.3c-.2.5-1.4 1.9-2.6 3.1a17 17 0 0 0-2.7 3.3q-.6 1.1-2.8 3.4a19 19 0 0 0-2.8 3.3q-.5 1-2.6 3.1a14 14 0 0 0-2.8 3.4q-.6 1.4-2.7 3.3a15 15 0 0 0-2.6 3.1c-.4.8-1.7 2.2-4.8 5.3q-4.4 4.3-4.7 5.2-.6 1-3.9 4.4a24 24 0 0 0-3.9 4.5q-.5 1-3.8 4.4a21 21 0 0 0-3.9 4.5q-.5 1.2-2.6 3a11 11 0 0 0-2.6 3.2q-.6 1.1-2.9 3.5a19 19 0 0 0-2.8 3.3q-.6 1-2.6 3.1a14 14 0 0 0-2.8 3.4q-.6 1.3-1.6 2.2t-1.5 2a16 16 0 0 1-2.7 3.2 16 16 0 0 0-2.7 3.2q-.6 1-1.6 2.1c-.6.5-1.3 1.6-1.7 2.3q-.6 1.3-2.7 3.3a14 14 0 0 0-2.7 3.3q-.6 1.4-1.6 2.1-1 .9-1.5 2l-1.8 2.4-1.7 2.2c-.2.5-1 1.4-1.5 2q-1 1-2.1 3.2t-2.2 3.3-2.2 3.3-2.3 3.4c-1 1.1-1.6 2-6 11-4.6 9.1-5 9.9-5 11.1a8 8 0 0 1-1.1 3.3c-.8 1.6-1 2.3-1.1 3.3s-.3 1.7-1 3.1c-.8 1.4-1 2-1 3.1a7 7 0 0 1-1.1 3.1c-.8 1.5-1 2-1.1 3.3-.2 1.1-.4 2-1.2 3.6q-1 2.1-1 3.2c-.1.6-.4 1.6-.7 2.1q-.5 1-.5 2.3l-.5 2.1c-.3.4-.5 1.4-.5 2.1-.1 1-.3 1.7-1.1 3.3s-1 2.3-1.1 3.3l-.5 2.1-.6 2c0 .7-.3 1.8-.6 2.4l-.6 2.4a6 6 0 0 1-1 2.8c-.8 1.6-.8 1.6-.9 4.1-.1 2.1-.2 2.6-.6 3.5q-.5 1-.7 2.3a8 8 0 0 1-1 3.2c-1 1.9-1 2-1.1 4.4-.1 2-.2 2.7-.5 3.3-.3.4-.5 1.4-.6 2s-.3 1.8-.6 2.4l-.5 2-.4 1.9q-.4 1-.6 3.5c-.1 2-.2 2.6-.6 3.3-.4.8-.5 1.3-.6 3.3a9 9 0 0 1-.6 3.4c-.4.9-.4 1.2-.4 7.5v6.6l1.7 3.4a14 14 0 0 0 3.3 5q2.7 3 5.3 3c.7.1 1.8.4 2.4.7 1.1.5 1.2.5 5.5.5h4.4l2-1q2-1 3.4-1.2c.7 0 1.8-.3 2.4-.6l2.1-.4q1 0 2-.5l2.2-.7q1.2 0 3.2-1c1.6-.9 2.3-1 3.3-1.1s1.7-.3 3.3-1.1 2.2-1 3.3-1.2c1.1 0 1.7-.3 4.3-1.6a12 12 0 0 1 4.2-1.6 9 9 0 0 0 3.1-1q1.9-.8 3-1 1 0 3.3-1a10 10 0 0 1 3.4-1.2c1 0 1.9-.4 5.5-2.2 3.6-1.7 4.4-2 5.5-2.1s1.7-.4 4.2-1.7c2.6-1.2 3.2-1.5 4.3-1.6 1.2 0 1.8-.3 6.5-2.7 4.7-2.3 5.3-2.6 6.5-2.7 1.2 0 2-.4 12.3-5.6a57 57 0 0 0 17.6-10.9c1.3-1.2 2.6-2.4 3-2.5a34 34 0 0 1 4.5-5q3.3-3.5 3.9-4.5.5-1 2.6-3.1c1.6-1.6 2.3-2.4 2.8-3.4q.7-1.4 1.7-2.2t1.3-1.8q.4-.9 1.7-2.3l1.9-2.4q.5-1 1.4-1.9.9-1 1.6-2.2c.4-.7 1.1-1.8 1.7-2.3q1-1 1.6-2.1c.3-.6 1-1.6 1.6-2.1q1-1 1.7-2.3c.4-.7 1.1-1.8 1.7-2.3q1-1 1.6-2.1c.3-.6 1-1.6 1.6-2.1q1-1 1.7-2.3c.4-.7 1.1-1.8 1.7-2.3q1-1 1.5-2t1.6-2.1q1-1.2 2-3.1 1.1-2 2.2-3.1l1.7-2.3q.6-1.2 1.6-2.2a11 11 0 0 0 2.2-3.3 11 11 0 0 1 2.2-3.3q1-1 1.7-2.3t1.6-2.1q1-.8 1.6-2.1.6-1.2 1.6-2.2t1.5-2q.5-1.1 1.7-2.2 1.1-1 1.8-2.4.6-1.2 1.6-2.2t1.5-2c.3-.6 1-1.6 1.6-2.1q1-1 1.7-2.3.7-1.4 1.7-2.2t1.3-1.8a8 8 0 0 1 1.7-2.3l1.9-2.4q.5-1 1.4-1.9.9-1 1.6-2.2c.5-1 1.1-1.8 2.7-3.2a11 11 0 0 0 2.7-3.2q.7-1.2 1.7-2.3t1.7-2.3c.4-.7 1.1-1.8 1.7-2.3q1-1 1.5-2t1.7-2.2l1.8-2.4q.4-1.2 2.5-3c1.5-1.3 2-2 2.6-3q.7-1.3 1.7-2.4t1.6-2.1a16 16 0 0 1 2.7-3.2c1.6-1.6 2.3-2.4 2.8-3.4s1.2-1.8 2.8-3.3a11 11 0 0 0 2.5-3q.4-1 2.7-3.3t2.9-3.5a12 12 0 0 1 2.7-3.2 11 11 0 0 0 2.5-3q.5-1 1.7-2.3c.7-.7 1.5-1.8 1.8-2.3q.5-1 2.6-3.1a14 14 0 0 0 2.8-3.4c.5-1 1.3-2 3.8-4.4a17 17 0 0 0 3.7-4.2l1.6-2.1q1-1 1.6-2.2c.5-.8 1.4-2 3.8-4.3s3.3-3.4 3.8-4.3q.5-1.1 2.7-3.3a14 14 0 0 0 2.8-3.4c.5-1 1.2-1.7 2.7-3.1s2.1-2.2 2.7-3.2a17 17 0 0 1 3.8-4.5q3.2-3.1 3.7-4.2.6-1 2.7-3.2a14 14 0 0 0 2.8-3.4q.6-1.3 2.7-3.3 2-2 2.6-3.1.6-1 2.7-3.2c1.6-1.6 2.3-2.4 2.8-3.4s1.2-1.8 2.8-3.3a11 11 0 0 0 2.5-3 34 34 0 0 1 6.7-7q.8-.4 2.1-.4c1.1 0 1.5.1 3 .8 2 1 3 1.9 4 4l.7 1.6.1 3.5c.1 3.2.2 3.6.6 4.5.5 1 .5 1 .6 8.7.1 7.2.1 7.7.5 8.4s.4 1.2.5 13l.1 12.3.5.9.5.9V666l.1 54.8-.4 1.2-.5 1.1-.1 22-.1 22-.5.9-.5.9-.1 39.2c-.1 38.7-.1 39.2-.5 39.9s-.4 1.2-.5 7.5c-.1 6.7-.1 6.8-.6 7.8s-.5 1.2-.6 5.6c0 4.1-.1 4.7-.5 5.3-.3.5-.4 1.2-.5 3.1s-.2 2.5-.7 3.4q-.5 1-.5 2l-.4 2-.6 2.5-.7 2.3q-.5 1-.5 2.3c-.1 1.2-.4 1.9-3.6 8.3l-3.5 7-3.8 3.9-3.8 3.9-5 2.4c-4.4 2.2-5.2 2.6-6.3 2.6q-1.3.2-2.3.7t-2.2.5a9 9 0 0 0-3.4 1.2c-2.1 1-2.2 1-4.5 1.1q-2.4 0-3 .5c-.3.2-1.2.4-1.8.4q-1 .1-2.3.7c-1.1.4-1.5.5-4.7.6-3 .1-3.7.2-4.6.6-1 .3-1.6.4-4.1.4-2.8 0-3 0-4 .5l-1 .6-6.8.1c-6.4.1-6.9.1-8 .6s-1.2.4-11.7.4h-10.6l-.9.4-.8.5-43.6.1-43.6.1-1 .5-1 .5-12.1.1c-11.6.1-12.1.1-12.8.5s-1.2.4-8.7.5-8 .1-8.7.5-1.1.4-8.4.5h-7.7l-1 .6-1 .5-7.9.1c-7.6.1-8 .1-9 .6-1.1.4-1.5.4-7.5.4h-6.3l-1 .5-1.1.6-6.7.1c-6.2.1-6.7.1-7.4.5s-1.2.4-7.5.5c-6.8.1-6.8.1-7.8.6s-1.1.5-6.7.6c-5.2.1-5.8.1-6.4.5s-1.2.4-7.4.5c-6.6.1-6.7.1-7.7.6l-1 .5-7.8.1c-7.5.1-7.9.1-9 .6s-1.2.4-11.7.4h-10.6l-.9.4c-.8.5-.9.5-11.9.6l-11.1.1-1 .5-1 .5-53.3.1c-52.8.1-53.3.1-54 .5s-1.1.4-14.6.5h-14l-1.1-.4c-1.2-.5-1.4-.5-12.3-.6l-11.1-.1-.9-.5c-.9-.5-1-.5-5.5-.6-4.1 0-4.7-.1-5.3-.5-.6-.3-1.2-.4-4.3-.5s-3.7-.2-4.3-.5-1.2-.4-4.2-.5c-3.2-.1-3.6-.1-4.4-.6s-1.3-.5-3.4-.6-2.7-.2-3.2-.5q-.6-.4-3.2-.5c-2.1-.1-2.6-.2-3.4-.6s-1.3-.5-3.3-.6-2.6-.2-3.2-.5q-.8-.5-2.2-.5l-2.2-.5q-.8-.4-2-.6-1.2 0-2.2-.6t-2.3-.5q-1.3-.1-2.1-.6l-1.7-.4-2-.4-2.5-.6c-1.2-.1-2-.4-4.6-1.8-2.8-1.3-3.4-1.6-4.5-1.7s-1.8-.3-7.3-3.1a28 28 0 0 1-7.2-4.2l-2.2-1.7q-1-.5-1.9-1.4l-2.2-1.6a29 29 0 0 1-7.2-7.2 7 7 0 0 0-1.6-2.2 11 11 0 0 1-2.2-3.3q-1.2-2.4-2.2-3.3a17 17 0 0 1-3-5c-1.8-3.5-2-4.1-2.2-5.3 0-1.1-.3-1.7-1.6-4.3-1.2-2.6-1.5-3.2-1.6-4.3 0-1-.3-1.7-1-3.3q-1-2-1.2-3.2 0-1.2-.5-2c-.3-.6-.4-1.3-.5-3.3-.1-2.1-.2-2.6-.6-3.4s-.5-1.3-.6-3.4q-.1-2.5-.6-3.6-.4-1-.4-3c0-1.6 0-2-.5-2.9-.6-1-.6-1.2-.7-4.7-.1-3.2-.2-3.8-.5-4.4-.4-.6-.4-1.2-.5-7.5s-.1-6.8-.5-7.5c-.4-.6-.4-1.2-.5-6.3-.1-5.5-.1-5.6-.6-6.5s-.5-1-.6-7.6c-.1-6.2-.1-6.7-.5-7.4-.4-.6-.4-1.2-.5-6.5s-.1-5.9-.5-6.5c-.4-.7-.4-1.2-.5-7.5-.1-6.8-.1-6.8-.6-7.7s-.5-.9-.6-7.7c-.1-6.3-.1-6.8-.5-7.5-.4-.6-.4-1.2-.5-6.4-.1-5.6-.1-5.7-.6-6.7s-.5-1.1-.6-6.6c-.1-5.1-.1-5.7-.5-6.3s-.4-1.2-.5-6.4c-.1-5.6-.1-5.7-.6-6.7s-.5-1.1-.6-6.7c-.1-5.2-.2-5.8-.6-6.8s-.4-1.5-.4-6.3v-5.1l-.5-1-.6-1.1-.1-5.7c-.1-5.2-.2-5.8-.6-6.8s-.4-1.5-.4-6.3c0-5 0-5.1-.4-6-.5-.8-.5-.9-.6-10.9l-.1-10.1-.5-.9-.5-.9-.1-16.6c-.1-16.1-.1-16.6-.5-17.3s-.4-1.2-.5-10.7l-.1-10-.5-1-.5-1-.1-8.9c-.1-8.4-.1-9-.5-9.6-.4-.7-.4-1.2-.5-11.8l-.1-11.1-.5-.9-.5-.9-.1-9c-.1-8.5-.1-9-.5-9.7s-.4-1.2-.5-9.6-.1-9-.5-9.6c-.4-.7-.4-1.2-.5-8.6l-.1-7.9-.5-1c-.5-1-.5-1-.6-7.7-.1-6.2-.1-6.7-.5-7.4s-.4-1.2-.5-13-.1-12.3-.5-13-.4-1-.4-11.8v-11.1l.5-.8.4-.9v-32.2l.4-1.2c.5-1 .5-1.4.6-11.1l.1-10 .5-.9.5-.9.1-8.9c.1-8.4.1-9 .5-9.6.4-.7.4-1.2.5-14.1s.1-13.4.5-14.1.4-1.2.5-8.5l.1-7.8.5-.9.5-.9.1-9c.1-8.9.1-9 .6-9.8s.4-1 .4-8.2 0-7.4.4-8.5.5-1.5.6-11.2l.1-10.1.6-1 .5-1v-10.6c0-10.4 0-10.5.4-11.7l.5-1.1.1-16.5.1-16.5.5-1 .5-1 .1-10c.1-9.5.1-10 .5-10.7.3-.6.4-1.2.5-4.2.1-3.2.1-3.6.6-4.4s.5-1.3.6-3.4.2-2.7.5-3.2q.4-.6.5-3.2c.1-2.1.2-2.6.6-3.5q.5-1 .7-2.2 0-1.2.5-2l.4-2.2.5-2.2q.5-.8.6-2c0-1 .5-2 3.2-7.6l5.4-10.6 2.2-4.2 4.8-4.8a44 44 0 0 1 8-6.9c1-1 1.8-1.5 6.3-3.7 4.3-2.2 5.2-2.5 6.4-2.7.7 0 1.8-.3 2.4-.6l2.1-.4q1 0 2-.5t2.2-.6 2-.6c.6-.3 1.3-.4 3.3-.5 2.1-.1 2.6-.2 3.4-.6.8-.5 1.2-.5 4.5-.6 3.1 0 3.7-.2 4.3-.5.7-.4 1.2-.4 48.6-.5l47.9-.1.9-.5c.9-.5 1-.5 7.7-.6 6.3-.1 6.9-.2 7.9-.6s1.5-.4 5.2-.4 4 0 4.9-.5c.8-.4 1-.4 6.6-.5 5.7-.1 5.8-.1 6.7-.6s1-.5 5.5-.6c4.1 0 4.7-.1 5.3-.5.6-.3 1.2-.4 4.3-.5s3.7-.2 4.3-.5 1.2-.4 4.2-.5c3.2-.1 3.6-.1 4.4-.6s1.3-.5 3.3-.6q2.4-.1 3.5-.6c1-.3 1.6-.4 4.2-.4 2.8 0 3 0 4.1-.5s1.6-.6 3.6-.7q2.5 0 3.1-.5a8 8 0 0 1 3.1-.5 8 8 0 0 0 3.4-.6c.8-.4 1.5-.5 3.5-.6q2.6 0 3.2-.5t3.1-.5c2 0 2.5-.2 3.3-.6s1.3-.5 3.4-.6q2.6 0 3.2-.5t3.1-.5 3.1-.5 3.2-.5c2.1-.1 2.6-.2 3.4-.6s1.3-.5 3.3-.6q2.5 0 3.1-.5t3.2-.5 3.6-.6l2-.4q.8 0 1.9-.5c.9-.5 1.3-.6 3.4-.7q2.4-.1 3.5-.6c1-.3 1.6-.4 3-.4 1.7 0 2.1 0 3.1-.5s1.6-.6 3.6-.7q2.5 0 3.1-.5a8 8 0 0 1 3.1-.5 8 8 0 0 0 3.4-.6c.8-.4 1.4-.5 3.5-.6 2 0 2.7-.2 3.2-.5q.6-.4 3.1-.5c2-.1 2.5-.2 3.3-.6.8-.5 1.2-.5 4.5-.6 3 0 3.7-.2 4.3-.5q.6-.4 3.1-.5t3.1-.5 3.2-.5c2.1-.1 2.6-.2 3.4-.6.8-.5 1.2-.5 4.4-.6 3 0 3.6-.2 4.2-.5s1.2-.4 4.3-.5c3.3-.1 3.7-.1 4.5-.6s1.2-.5 4.5-.6c3 0 3.7-.2 4.3-.5s1.2-.4 4.2-.5c3.2-.1 3.6-.1 4.4-.6s1.2-.5 4.4-.6c2.9-.1 3.7-.2 4.6-.6 1-.3 1.5-.4 5.3-.4 3.9 0 4.2 0 5-.4s1.1-.5 4-.6c3 0 3.2 0 4.2-.6s1-.5 5.7-.6c4.2-.1 4.8-.2 5.8-.6s1.6-.4 4.3-.4c2.8 0 3.2 0 4-.5s1-.4 8.6-.5l7.8-.1.9-.5.9-.5 10.6-.1a56 56 0 0 0 11-.4l1-.4c.4-.1 15.2-.2 33.1-.1 32.1 0 32.5 0 33.2.4m276.8 164.5c.6.3 1.7.5 2.4.6 1.7.2 1.5.1 9.1 4l6.6 3.2 2.3 2.3q2.4 2.3 3.5 2.9c1.7.8 6.2 5.4 7 7.1q.7 1.2 1.7 2.2t1.5 2c.3.5 1 1.5 1.7 2.2 1.5 1.5 2.8 4.2 3 6q0 1.2.5 2c.4.8.4 1 .4 7.6s0 6.8-.4 7.6q-.5.8-.5 2.2l-.5 2.2a83 83 0 0 1-8 18 87 87 0 0 1-8.5 16c-1 1-1.5 1.9-2.7 4.3a15 15 0 0 1-2.7 4.3 14 14 0 0 0-2.3 3.4q-1.1 2.2-2.2 3.3-1 1-1.6 2.1c-.2.5-1 1.4-1.5 2a11 11 0 0 0-2.2 3.3c-1 2.1-1.4 2.5-3.3 4.4a11 11 0 0 0-3.1 4.2c-1 2-1.2 2.3-3.3 4.4a15 15 0 0 0-2.9 3.5q-.7 1.3-1.5 2-1 .9-1.5 2l-1.8 2.4-1.7 2.2q-.5 1-2.6 3.1a14 14 0 0 0-2.8 3.4q-.6 1.3-1.6 2.2t-1.5 2q-.6 1-1.6 2.1c-.6.5-1.3 1.6-1.7 2.3q-.7 1.2-1.7 2.3t-1.5 2q-.5 1-1.7 2.2l-1.7 2.2c-.2.5-1 1.4-1.5 2-.6.5-1.3 1.6-1.7 2.3a10 10 0 0 1-1.7 2.3q-1 1-1.4 1.9-.5.9-1.6 2.1l-1.7 2.2c-.2.5-1 1.4-1.5 2-.6.5-1.3 1.6-1.7 2.3q-.7 1.2-1.7 2.3c-.6.5-1.3 1.5-1.6 2.1q-.6 1-1.6 2.1c-.6.5-1.3 1.6-1.7 2.3a14 14 0 0 1-2.8 3.4 12 12 0 0 0-3.2 4.3 10 10 0 0 1-2.1 3.2c-.6.5-1.3 1.5-1.6 2.1q-.6 1-1.6 2.1c-.6.5-1.3 1.6-1.7 2.3q-.7 1.2-1.7 2.3c-.6.5-1.3 1.5-1.6 2.1q-.6 1-1.6 2.1c-.6.5-1.3 1.6-1.7 2.3q-.7 1.2-1.7 2.3c-.6.5-1.3 1.5-1.6 2.1q-.6 1-1.5 2l-1.6 2.2q-.6 1.4-1.6 2.1-1 .9-1.5 2l-1.8 2.4-1.7 2.2q-.5 1-2.6 3.1a16 16 0 0 0-2.7 3.2q-.6 1-1.6 2.1c-.6.5-1.3 1.6-1.7 2.3q-.7 1.2-1.7 2.3c-.6.5-1.3 1.5-1.6 2.1q-.6 1-1.6 2.1c-.6.5-1.3 1.6-1.7 2.3s-1 1.7-1.6 2.2q-.9 1-1.5 2t-1.6 2.1c-.6.5-1.3 1.6-1.7 2.3q-.7 1.2-1.7 2.3t-1.5 2q-.5 1-1.7 2.2l-1.7 2.2c-.2.5-1 1.4-1.5 2-.6.5-1.3 1.6-1.7 2.3q-.6 1.3-2.7 3.3a15 15 0 0 0-2.6 3.1q-.6 1-1.6 2.1c-.6.5-1.3 1.6-1.7 2.3q-.7 1.2-1.7 2.3c-.6.5-1.3 1.5-1.6 2.1a16 16 0 0 1-2.7 3.2 15 15 0 0 0-2.7 3.2q-.6 1.1-2.6 3.1a13 13 0 0 0-2.7 3.3 14 14 0 0 1-2.8 3.4 16 16 0 0 0-2.7 3.2q-.6 1-1.6 2.1-1 1-1.7 2.3c-.5 1-1.2 1.8-2.8 3.3a13 13 0 0 0-2.7 3.2q-.6 1.2-1.5 2.1t-1.6 2.2c-.5 1-1.1 1.7-2.6 3.1a12 12 0 0 0-2.7 3.1q-.6 1.3-2.9 3.6a20 20 0 0 0-2.8 3.3q-.5 1-1.4 1.9-.9 1-1.6 2.2c-.5 1-1.3 2-3.9 4.5a23 23 0 0 0-3.8 4.3q-.6 1-1.6 2.1c-.6.5-1.3 1.6-1.7 2.3-.5 1-1.1 1.7-2.6 3a11 11 0 0 0-2.6 3.1q-.7 1.3-1.7 2.4t-1.7 2.3c-.5 1-1.2 1.8-2.8 3.3a13 13 0 0 0-2.7 3.2q-.6 1.2-1.6 2.2c-.6.5-1.3 1.5-1.6 2.1q-.6 1-1.5 2t-1.6 2.2c-.5 1-1.1 1.8-2.7 3.2a12 12 0 0 0-2.7 3.2q-.7 1.2-1.7 2.3c-.6.5-1.3 1.6-1.7 2.3q-.7 1.2-1.7 2.3t-1.5 2-1.7 2.2l-1.7 2.2c-.2.5-1 1.4-1.5 2-.6.5-1.3 1.6-1.7 2.3q-.6 1.4-2.7 3.3a15 15 0 0 0-2.6 3.1q-.6 1-1.6 2.1c-.6.5-1.3 1.6-1.7 2.3q-.7 1.2-1.7 2.3c-.6.5-1.3 1.5-1.6 2.1a16 16 0 0 1-2.7 3.2 16 16 0 0 0-2.7 3.2q-.6 1-1.6 2.1c-.6.5-1.3 1.6-1.7 2.3-.5 1-1.3 2-3.8 4.4a22 22 0 0 0-3.7 4.2q-.6 1-2.7 3.2a14 14 0 0 0-2.8 3.4c-.5 1-1.1 1.7-2.6 3a11 11 0 0 0-2.6 3.1c-.5 1.1-1.4 2-3.9 4.6a24 24 0 0 0-3.8 4.3q-.6 1-3.8 4.4a25 25 0 0 0-3.8 4.4q-.6 1-2.7 3.2a15 15 0 0 0-2.7 3.2q-.5 1-3.7 4.2a19 19 0 0 0-3.8 4.4 14 14 0 0 1-2.8 3.4 15 15 0 0 0-2.7 3.2q-.6 1-2.7 3.2a14 14 0 0 0-2.8 3.4c-.5 1-1.2 1.7-2.7 3.2a11 11 0 0 0-2.7 3.2 13 13 0 0 1-2.7 3.3 14 14 0 0 0-2.7 3.3q-.6 1.4-1.6 2.1t-1.5 2q-.7 1.2-2.9 3.5a19 19 0 0 0-2.8 3.3c-.2.5-1 1.4-1.5 2-.6.5-1.3 1.6-1.7 2.3q-.6 1.4-2.7 3.3a15 15 0 0 0-2.6 3.1q-.6 1-2.7 3.2a16 16 0 0 0-2.7 3.2q-.5 1-3.8 4.4a25 25 0 0 0-3.8 4.4c-.5.9-2.3 2.9-9.8 10.3a86 86 0 0 1-10.4 9.8q-1 .4-4.3 3.7a22 22 0 0 1-4.3 3.8q-1 .6-2.1 1.6a11 11 0 0 1-3.3 2.2 11 11 0 0 0-3.3 2.2c-.5.6-1.5 1.3-2.1 1.6q-1 .6-2.1 1.6c-.8.8-1.7 1.4-4.5 2.8-2.9 1.5-3.6 2-4.2 2.7s-1.5 1.2-7.4 4.2-6.8 3.5-7.9 4.5c-1 1-1.9 1.5-8.3 4.7-6.2 3-7.3 3.5-8.3 3.6q-1.2 0-3.4 1.2l-2.2 1H469c-2 0-2.1 0-3.8-.9-2.2-1-3-2-4-3.9-.8-1.4-.9-1.8-.9-3q0-1.4.4-2.2t.5-2.1c.1-1 .3-1.7 1.2-3.3a8 8 0 0 0 1-3.3c.1-1.1.4-1.7 1.6-4.3s1.6-3.2 1.6-4.3c.1-1.2.6-2.3 9.8-20.5 9-18.2 9.6-19.3 10.6-20.1a12 12 0 0 0 2.2-3.3c.9-1.9 1.4-2.6 2-3.2.8-.7 1.3-1.5 2.7-4.2s2-3.6 2.9-4.6l1.7-2.2a7 7 0 0 1 1.5-2q1-1 1.7-2.3c.4-.7 1.1-1.8 1.7-2.3q1-1 1.6-2.1.6-1 1.5-2l1.6-2.2q.6-1.3 1.6-2.1t1.5-2q.7-1.2 2.9-3.5a19 19 0 0 0 2.8-3.3 7 7 0 0 1 1.5-2q1-1 1.7-2.3t1.6-2.2 1.5-2c.3-.6 1-1.6 1.6-2.1q1-1 1.7-2.3c.4-.7 1.1-1.8 1.7-2.3q1-1 1.5-2t1.7-2.2l1.8-2.4q.7-1.3 1.5-2 1-.8 1.6-2.1c.4-.7 1.1-1.8 1.7-2.3l1.4-1.9q.5-.9 1.6-2.1l1.8-2.5q.6-1.2 1.6-2t1.6-2.1a7 7 0 0 1 1.6-2.2q1-1 1.5-2t1.8-2.3l1.3-1.6c0-.6 2.2-4.2 3.1-5l1.6-2.2q.7-1.4 1.7-2.2t1.3-1.8q.4-.9 1.7-2.3l1.9-2.4q.5-1 1.4-1.9t2.1-3.2 2.2-3.3 2.2-3.3a11 11 0 0 1 2.2-3.3q1-1 1.7-2.3t1.6-2.1 2-3 2.3-3.4 2.3-3.4 2.1-3.2a10 10 0 0 0 2-3.1c.8-1.6 1.3-2.4 2.2-3.3q1.2-1.1 2.2-3.3t2.2-3.3l1.6-2.1q.5-1 1.7-2.2l1.3-1.6c0-.6 2.2-4.2 3.1-5a10 10 0 0 0 2-3.1 10 10 0 0 1 2.2-3.3q1.1-1.1 1.8-2.4t1.5-2 1.4-1.9l1.8-2.4c.9-.9 1.5-1.7 2.2-3.3q1-2.1 2.2-3.3l1.7-2.2a7 7 0 0 1 1.5-2q1-1 1.7-2.3.7-1.4 1.7-2.2t1.3-1.8q.4-.8 1.7-2.3l1.9-2.4q.5-1 1.4-1.9 1-1 2-3.1 1.2-2.1 2.3-3.4l1.8-2.5q.7-1.2 1.6-2t1.6-2.1 1.6-2.2 1.6-2.1c.3-.6 1-1.6 1.6-2.1q1-1 1.5-2.1t1.8-2.4c.7-.7 1.5-1.8 1.8-2.3a7 7 0 0 1 1.5-2q1-1 1.7-2.3t1.6-2.2 1.5-2c.3-.6 1-1.6 1.6-2.1q1-1 1.7-2.3c.4-.7 1.1-1.8 1.7-2.3q1-1 1.5-2t1.7-2.2l1.8-2.4q.7-1.3 1.5-2 1-.9 1.5-2 .7-1.2 1.7-2.3 1.1-1 2.1-3.2 1-2.1 2.2-3.3l1.7-2.2a7 7 0 0 1 1.5-2q1-1 1.7-2.3.7-1.4 1.7-2.2t1.3-1.8a8 8 0 0 1 1.7-2.3l1.9-2.4q.5-1 1.4-1.9.9-1 1.6-2.2c.4-.7 1.2-1.8 1.8-2.4q1-1 1.5-2t1.6-2.1l1.8-2.4q.7-1.3 1.5-2 1-.8 1.6-2.1c.4-.7 1.1-1.8 1.7-2.3q1-1 1.7-2.3.6-1.4 1.6-2.1t1.6-2.1q.6-1.2 1.6-2.2t1.5-2q.5-1.1 1.7-2.2c.9-.8 1.3-1.6 2.1-3.2a11 11 0 0 1 2.2-3.3 11 11 0 0 0 1.8-2.4q.6-1.2 1.6-2.2t1.5-2 1.7-2.2l1.8-2.4q.7-1.3 1.5-2 1-.8 1.6-2.1c.4-.7 1.1-1.8 1.7-2.3l1.4-1.9q.5-.9 1.6-2.1l1.8-2.5q.6-1.2 1.6-2t2-3q1.1-2.1 2.2-3.3l1.7-2.3q.5-1 1.7-2.3l1.7-2.2a7 7 0 0 1 1.5-2q1-1 1.7-2.3.6-1.4 1.6-2.1c.7-.6 1.1-1.3 2-3.2a9 9 0 0 1 2.3-3.3q1.1-.9 1.6-2.1.7-1.2 1.7-2.3 1.1-1 2.1-3.2 1-2.1 2.2-3.3l1.7-2.2a7 7 0 0 1 1.5-2q1-1 2.1-3.2t2.2-3.3 2.2-3.3a13 13 0 0 1 2.3-3.4q1.1-1.2 2.3-3.4 1-2.2 2-3.1a14 14 0 0 0 2.1-3.1 14 14 0 0 1 2.1-3.1q.9-.9 2.1-3.2a11 11 0 0 1 2.2-3.3 14 14 0 0 0 2.6-4.2c1.3-2.4 2-3.5 2.8-4.4q1.1-1.3 2.3-3.4a11 11 0 0 1 2.1-3.2q1-.9 2.2-3.3a11 11 0 0 1 2.2-3.3q1-1 1.7-2.3.6-1.4 1.6-2.1t2-3q1.2-2.2 2.2-3.3l1.7-2.3q.6-1.2 1.6-2.2t1.6-2.1a16 16 0 0 1 2.7-3.2c1.6-1.6 2.3-2.4 2.8-3.4s1.2-1.8 2.8-3.3a11 11 0 0 0 2.5-3q.4-1 2.7-3.3t2.9-3.5a17 17 0 0 1 3.7-4.2c2.6-2.5 3.2-3.2 3.6-4.1s1.2-1.8 4-4.6q3.3-3.4 3.7-4.2t2.6-3.1q2.3-2.5 3-3.6.5-1.1 2.7-3.3 2.1-2.1 2.5-3 .5-1 2.7-3.2t2.9-3.5a11 11 0 0 1 2.5-3q2.1-2 2.7-3.1.6-1.3 2.9-3.6c1.3-1.3 2.5-2.7 2.8-3.3.6-1.3 5.6-6.3 7-7q1-.6 3.1-2.6c1.8-1.8 2.4-2.3 3.9-3 1.7-.9 2-1 3.6-1q1.8-.2 2.6-.6a6 6 0 0 1 3.4-.7 7 7 0 0 1 2.7.4"/><path d="m357.5 290-.8.5-66.4.1-66.4.1-.9.5-.9.5-12.2.1c-12 .1-12.2.1-13.3.6l-1.9.4q-.8 0-2.8 1l-3 1.1q-.7.2-1.5.8-.7.7-1.7 1.2t-2.6 2.1c-1.5 1.6-1.8 2-3.4 5.1-1.4 3-1.7 3.6-1.7 4.7a6 6 0 0 1-.6 2.1c-.4.8-.4 1.2-.4 5.5s0 4.6.4 5.5q.4 1 .6 2.2c0 1 .4 1.8 2.2 5.6 1.2 2.4 2.5 4.7 2.8 5l1.6 1.1c.6.3 1.6 1 2.1 1.6a8 8 0 0 0 4.9 2.4q1.4.1 2.3.7l1 .5h39.3l.9-.5c.8-.4.9-.4 10.8-.5l10-.1.9-.5.9-.5 16.5-.1 16.5-.1 1.1-.5 1.2-.4h36.4l1-.6 1.1-.5 28.5-.1c28-.1 28.5-.1 29.2-.5.6-.3 1-.4 3-.4s2.5 0 3.3.4c1 .5 1.3.5 7.7.5s6.6 0 7.5-.5l.8-.4 27.4-.1c27-.1 27.4-.1 28.1-.5s1.2-.4 20.5-.5l19.8-.1.9-.5c.9-.5 1-.5 5.5-.6 4 0 4.7-.1 5.3-.5q.7-.4 1.9-.4t2.3-.6l1.9-.6q.8-.2 1.5-.8l1.7-1.2 2.5-2c1.4-1.4 1.8-2 3.3-5l1.8-3.4.1-2.5c.1-2 .2-2.7.6-3.4l.5-1-.5-1c-.4-.9-.5-1.6-.6-3.4l-.1-2.3-1.6-3.2c-1.5-3.1-1.5-3.1-4-5.9-2-2-3-2.9-4-3.4-1.1-.7-1.3-.7-3.8-.8-2.4-.1-2.7-.2-3.8-.8l-1.2-.6h-10.8c-10.8-.1-10.8-.1-11.6-.6l-.9-.4H457l-.9.4-.8.5h-46l-.8-.5-.9-.4h-49.3zm-50.9 160.4-1.1.5-20.7.1-20.7.1-1 .5-1 .5-29.5.1-29.5.1-1.1.4c-1 .4-1.6.5-4.1.5-2.6 0-3 0-3.8.4q-.8.5-2 .6c-2 .1-4 1.1-5.1 2.4q-.8 1-2.2 1.7c-1.7.8-2 1.2-3.2 3.7-.5 1-1.3 2.4-1.7 2.8l-.7 1.1-.4 1.5-.6 2.5q-.2 1.4-.7 2.5c-.5 1-.5 1-.5 5.4v4.5l1 2.1q1 2.1 1.1 3.3c.2 2 1 3.4 4.1 6.4a15 15 0 0 0 8.4 4.9q1.4.1 2.3.7l1 .5H230l.9-.5.8-.4 14.4-.1c14.3-.1 14.4-.1 15.5-.6 1.2-.4 1.3-.4 11.7-.4h10.5l1-.6 1.1-.5 14.4-.1c14-.1 14.4-.1 15.1-.5s1.2-.4 41.1-.5l40.4-.1 1-.5 1-.5 33.7-.1c33.2-.1 33.7-.1 34.4-.5s1.2-.4 10.8-.5l10.1-.1.9-.5q1-.4 2.2-.6c1 0 1.7-.3 4.5-1.7 1.8-.8 3.5-1.8 3.8-2l1.2-2q.7-1.2 1.6-2a9 9 0 0 0 2.6-5q.1-1.2.5-2.2c.4-.8.4-1.3.4-4.3 0-3.1 0-3.5-.4-4.3a6 6 0 0 1-.6-2.2c0-1.2-.2-1.7-1.8-4.8-1.7-3.4-1.8-3.5-3.5-5.2a16 16 0 0 0-5.1-3.2l-3.3-1.7h-5.6c-5.2-.1-5.7-.1-6.3-.5-.7-.4-1.2-.4-12.9-.5l-12.2-.1-1-.6-1.1-.5H430l-21.9.1-1.1.4-1.2.5h-64l-1.2-.5-1.1-.4h-31.8zM368.2 627l-.9.5-19.7.1-19.7.1-.9.5-.9.5h-69.2l-1-.6-1-.5h-54.5l-.9.4c-.6.4-1.3.5-3.3.6l-2.5.1-4.5 2.3c-4.1 2-4.6 2.4-6 3.7s-1.5 1.5-3.8 6.2a21 21 0 0 0-2.5 6q0 1.2-.5 2c-.4.8-.4 1.2-.4 5.5s0 4.8.4 5.6q.5.9.5 2.1c.1 1 .5 1.9 2.4 5.8 2.3 4.5 2.4 4.6 4 6 1.3 1.3 2 1.8 5 3.3s3.6 1.8 4.7 1.8q1.3.1 2.1.6l.9.4h46l.9-.5.9-.4 15.4-.1c15-.1 15.4-.1 16.1-.5s1.2-.4 18.3-.5l17.6-.1.9-.5.9-.5 13.3-.1c12.8-.1 13.3-.1 14-.5s1.2-.4 20.5-.5 19.8-.1 20.5-.5 1.2-.4 7.5-.5l6.8-.1 4.5-2.3c4.3-2.2 4.5-2.3 6-3.9a15 15 0 0 0 3.4-5.1c1.5-3 1.8-3.7 1.9-4.8q0-1.3.5-2.1c.4-.8.4-1.2.4-5.5s0-4.7-.4-5.5q-.5-.7-.5-2.1c-.1-1.1-.3-1.6-1.4-3.6q-1.1-2.3-2.4-3.6-1.1-1.2-1.5-2c-.5-1.3-1.4-2-4.9-3.7a13 13 0 0 0-4.6-1.8q-1.2 0-2.1-.5c-.9-.5-1.1-.5-5.6-.6s-4.8-.1-5.5-.6c-.9-.4-1-.4-7.6-.4s-6.8 0-7.7.5"/></g></svg>