<svg xmlns="http://www.w3.org/2000/svg" width="1000" height="1000" viewBox="0 0 1000 1000"><g transform="scale(0.2)"><g transform="translate(0.000000,5000.000000) scale(0.100000,-0.100000)"
fill="#141413" stroke="none">
<path d="M35045 49963 c-17 -92 -64 -144 -180 -200 l-80 -38 -760 -5 -760 -5
-55 -30 -55 -30 -720 -5 c-717 -5 -720 -5 -777 -28 -56 -21 -68 -22 -423 -22
-360 0 -366 0 -408 -22 -39 -21 -58 -23 -272 -28 -219 -5 -232 -7 -280 -30
-49 -24 -57 -25 -330 -30 -255 -5 -283 -7 -315 -25 -30 -17 -61 -20 -215 -25
-152 -5 -189 -10 -237 -28 -52 -20 -76 -22 -258 -22 -200 0 -201 0 -253 -27
-51 -28 -55 -28 -287 -33 -210 -4 -239 -7 -270 -25 -30 -17 -61 -20 -210 -25
-159 -5 -179 -8 -225 -30 -48 -24 -61 -25 -280 -30 -198 -4 -235 -8 -264 -23
-18 -10 -59 -21 -90 -24 -31 -2 -83 -17 -116 -31 -55 -24 -74 -27 -235 -32
-146 -5 -184 -10 -232 -28 -50 -19 -78 -22 -203 -22 -139 0 -148 -1 -198 -27
-50 -26 -61 -28 -232 -33 -155 -4 -185 -8 -215 -25 -30 -17 -60 -20 -215 -25
-153 -4 -185 -8 -215 -24 -27 -15 -63 -21 -155 -26 -98 -5 -129 -11 -170 -30
-45 -22 -67 -25 -220 -30 -143 -4 -175 -8 -205 -24 -28 -16 -62 -21 -165 -26
-103 -4 -137 -9 -165 -25 -30 -17 -61 -20 -210 -25 -161 -5 -179 -7 -220 -29
-38 -21 -65 -26 -165 -31 -86 -5 -136 -13 -177 -28 -44 -17 -79 -22 -152 -22
-81 0 -101 -4 -152 -27 -55 -26 -70 -28 -234 -33 -149 -4 -180 -8 -210 -24
-27 -15 -64 -21 -160 -27 -89 -5 -141 -12 -180 -27 -47 -18 -77 -21 -213 -22
-143 0 -162 -2 -200 -22 -34 -18 -63 -23 -152 -26 -96 -3 -116 -6 -160 -30
-47 -26 -59 -27 -230 -33 -152 -4 -189 -9 -237 -27 -50 -19 -77 -22 -207 -22
-141 0 -152 -1 -207 -27 -55 -26 -70 -28 -229 -33 -145 -4 -175 -8 -205 -25
-30 -17 -60 -20 -215 -25 -168 -5 -183 -7 -225 -30 -44 -24 -53 -25 -280 -30
-211 -4 -239 -7 -270 -25 -32 -18 -59 -20 -315 -25 -273 -5 -281 -6 -330 -30
l-50 -25 -495 -6 c-480 -5 -497 -6 -553 -27 l-57 -22 -1068 2 c-1046 3 -1068
3 -1102 23 -34 19 -58 20 -645 25 l-610 5 -50 25 c-49 24 -57 25 -335 30 -261
5 -288 7 -320 25 -30 17 -59 21 -210 25 -150 5 -180 8 -210 25 -32 18 -60 20
-325 25 -286 5 -291 5 -335 30 l-45 25 -555 5 c-532 5 -556 6 -590 25 -33 19
-59 20 -380 25 l-345 5 -45 25 c-42 23 -57 25 -220 30 -166 5 -178 7 -227 33
l-52 27 -256 0 c-239 0 -259 1 -313 22 -48 18 -85 23 -237 28 -154 5 -185 8
-215 25 -30 17 -60 21 -210 25 -166 5 -178 7 -227 33 -50 26 -59 27 -198 27
-126 0 -153 3 -203 22 -51 20 -82 23 -292 28 -211 4 -239 7 -270 25 -32 18
-59 20 -315 25 -276 5 -281 5 -325 30 -44 25 -49 25 -335 30 -277 5 -292 6
-332 28 -41 22 -49 22 -382 22 -330 0 -341 -1 -388 -22 -45 -21 -66 -23 -323
-28 -267 -5 -277 -6 -325 -30 -45 -22 -66 -25 -225 -31 -144 -5 -185 -10 -230
-27 -42 -16 -78 -21 -153 -22 -79 0 -106 -4 -139 -21 -23 -12 -69 -24 -102
-26 -35 -4 -82 -16 -110 -30 -28 -14 -79 -28 -120 -33 -39 -5 -96 -18 -126
-29 -30 -11 -77 -20 -104 -21 -40 0 -67 -10 -145 -51 -82 -45 -105 -53 -166
-57 -67 -5 -85 -12 -455 -198 -338 -170 -391 -200 -440 -248 -30 -30 -82 -68
-115 -84 -37 -19 -75 -48 -98 -76 -24 -29 -61 -58 -100 -77 -90 -45 -316 -269
-362 -359 -18 -36 -57 -87 -85 -115 -28 -27 -63 -72 -77 -99 -14 -28 -50 -75
-79 -106 -36 -37 -73 -94 -110 -166 -39 -76 -73 -126 -112 -166 -55 -57 -56
-59 -63 -131 -6 -66 -16 -92 -107 -273 -88 -176 -100 -207 -104 -264 -4 -52
-15 -85 -57 -167 -37 -75 -51 -114 -51 -145 -1 -24 -10 -68 -21 -98 -11 -30
-24 -87 -29 -126 -5 -43 -18 -91 -34 -122 -14 -28 -26 -68 -26 -89 -1 -21 -10
-63 -22 -93 -15 -39 -22 -91 -27 -180 -6 -106 -11 -132 -32 -170 -22 -41 -24
-59 -29 -220 -5 -162 -7 -178 -30 -220 l-25 -45 -5 -390 -5 -390 -38 -80 c-55
-115 -108 -163 -200 -180 l-37 -7 0 -158 0 -158 37 -7 c90 -17 141 -62 199
-175 l39 -75 5 -665 5 -665 25 -45 25 -45 5 -395 c5 -372 6 -397 25 -430 19
-33 20 -59 25 -380 l5 -345 25 -45 c25 -44 25 -49 30 -325 5 -256 7 -283 25
-315 18 -32 20 -59 25 -325 5 -286 5 -291 30 -335 25 -45 25 -46 31 -385 5
-316 7 -344 27 -395 20 -51 21 -73 22 -308 l0 -253 28 -52 27 -52 6 -395 c5
-373 6 -398 27 -450 20 -52 21 -72 22 -368 0 -305 1 -314 22 -355 22 -41 23
-52 28 -432 l5 -390 25 -45 c25 -45 25 -45 30 -385 5 -340 5 -340 30 -385 l25
-45 6 -395 c5 -373 6 -398 27 -450 20 -53 21 -70 22 -423 l0 -368 28 -52 27
-52 6 -285 c5 -259 7 -290 27 -340 20 -51 21 -74 22 -313 0 -248 1 -259 23
-300 21 -41 22 -53 27 -382 5 -340 5 -340 30 -385 l25 -45 5 -500 c5 -477 6
-502 25 -535 20 -35 20 -56 23 -1492 l2 -1458 -22 -57 -23 -58 -5 -935 -5
-935 -25 -45 -25 -45 -5 -555 c-5 -532 -6 -556 -25 -590 -19 -33 -20 -58 -25
-490 -5 -432 -6 -457 -25 -490 -19 -33 -20 -58 -25 -480 l-5 -445 -32 -60 -33
-60 -2 -485 c-3 -464 -4 -487 -23 -520 -19 -34 -20 -58 -25 -590 -5 -532 -6
-556 -25 -590 -19 -33 -20 -58 -25 -540 l-5 -505 -27 -52 -28 -52 0 -418 c-1
-404 -1 -420 -22 -473 -21 -53 -22 -75 -27 -505 l-6 -450 -25 -45 -25 -45 -5
-395 c-5 -372 -6 -397 -25 -430 -19 -33 -20 -59 -25 -370 -5 -334 -5 -335 -30
-380 l-25 -45 -5 -450 c-5 -427 -6 -452 -25 -485 -19 -33 -20 -58 -25 -430
l-5 -395 -25 -45 -25 -45 -5 -555 c-5 -532 -6 -556 -25 -590 -19 -34 -20 -58
-25 -650 l-5 -615 -23 -43 c-22 -41 -23 -51 -19 -225 3 -157 6 -190 25 -237
20 -52 21 -72 22 -347 0 -231 -3 -301 -15 -336 -13 -37 -13 -49 0 -91 12 -40
15 -135 15 -523 0 -472 0 -474 22 -516 21 -39 23 -58 28 -272 5 -221 6 -232
30 -275 23 -42 25 -58 30 -220 4 -148 8 -180 24 -210 15 -27 21 -63 26 -160 5
-92 12 -140 28 -182 17 -44 22 -79 22 -153 0 -83 3 -102 26 -146 14 -29 29
-81 34 -118 4 -36 17 -92 29 -123 16 -44 21 -80 21 -153 0 -95 0 -96 51 -198
42 -82 53 -115 57 -167 3 -41 14 -83 30 -115 15 -31 27 -74 30 -115 4 -52 15
-85 55 -165 40 -80 51 -113 55 -165 4 -52 15 -85 55 -165 37 -75 50 -114 54
-160 5 -54 34 -118 309 -670 280 -563 307 -613 349 -648 29 -24 58 -63 79
-105 26 -50 61 -94 141 -172 97 -95 112 -115 162 -215 l56 -110 406 -406 c324
-324 418 -412 462 -434 29 -15 79 -51 109 -80 48 -46 105 -78 445 -248 365
-182 394 -195 456 -200 56 -4 83 -13 160 -55 78 -41 105 -50 159 -55 36 -2 81
-12 100 -22 19 -10 67 -21 106 -26 44 -5 92 -18 123 -33 44 -23 63 -26 146
-26 74 0 109 -5 153 -22 42 -16 90 -23 182 -28 97 -5 133 -11 160 -26 32 -17
62 -19 315 -24 l280 -5 52 -27 52 -28 386 0 c381 0 386 0 428 22 42 23 47 23
542 28 l500 5 45 25 45 25 450 5 c427 5 452 6 485 25 33 19 58 20 430 25 l395
5 45 25 c44 25 49 25 330 30 261 5 288 7 320 25 31 18 59 21 265 25 205 5 236
8 287 28 50 19 77 22 208 22 145 0 153 1 203 27 51 28 55 28 282 33 203 4 234
7 265 24 27 16 62 21 160 26 107 5 131 9 170 30 42 23 58 25 220 30 148 4 180
8 210 24 27 16 62 21 160 26 107 5 132 9 170 30 38 20 65 25 170 31 89 5 141
12 180 27 47 18 78 21 203 22 140 0 150 1 200 27 46 23 67 28 177 33 98 4 133
10 160 25 30 17 61 20 210 25 150 4 180 8 210 25 30 17 60 20 215 25 168 5
183 7 225 30 43 24 53 25 275 30 205 4 234 7 265 25 30 17 60 20 215 25 155 4
185 8 215 25 30 17 60 20 210 25 161 5 179 7 220 29 39 21 63 26 170 31 98 4
133 10 160 25 30 17 61 20 210 25 159 5 180 8 225 30 45 22 66 25 225 30 148
4 180 8 210 24 27 15 63 21 155 26 98 5 129 11 170 30 45 22 68 25 225 31 144
5 185 10 230 27 47 18 77 21 203 22 141 0 150 1 200 27 49 26 62 28 232 34
149 5 189 10 235 27 47 18 77 21 203 22 134 0 152 2 190 23 40 21 55 22 332
27 286 5 291 5 335 30 45 25 46 25 380 30 311 5 337 6 370 25 34 19 58 20 650
25 592 5 616 6 650 25 34 20 53 20 1020 20 l985 0 52 -22 c51 -23 54 -23 583
-23 524 0 531 0 588 -22 54 -21 77 -23 397 -28 339 -5 340 -5 385 -30 44 -25
49 -25 325 -30 256 -5 283 -7 315 -25 32 -18 59 -20 325 -25 266 -5 293 -7
325 -25 30 -17 59 -21 210 -25 162 -5 178 -7 220 -30 42 -23 57 -25 225 -30
155 -5 185 -8 215 -25 30 -17 60 -21 210 -25 150 -5 180 -8 210 -25 30 -17 60
-21 215 -25 171 -5 182 -7 232 -33 50 -26 59 -27 200 -27 126 -1 156 -4 203
-22 46 -17 86 -22 235 -27 166 -6 183 -8 225 -31 43 -24 54 -25 275 -30 206
-4 234 -7 265 -25 30 -17 59 -21 210 -25 160 -5 179 -8 225 -30 47 -23 62 -25
280 -30 206 -4 234 -7 265 -25 30 -17 59 -21 215 -25 171 -5 182 -7 232 -33
52 -27 54 -27 253 -27 182 0 206 -2 258 -22 48 -18 85 -23 237 -28 154 -5 185
-8 215 -25 32 -18 60 -20 320 -25 281 -5 286 -5 330 -30 42 -23 57 -25 220
-30 150 -5 180 -8 210 -25 33 -19 60 -20 430 -25 386 -5 396 -6 437 -27 42
-23 44 -23 495 -23 447 0 454 1 498 23 43 21 60 22 390 27 320 5 348 6 380 25
30 17 60 20 205 25 153 4 174 7 214 28 27 15 71 26 120 31 42 5 92 16 111 26
26 14 66 20 155 25 90 4 129 10 155 24 19 10 64 21 100 24 41 3 83 14 114 29
29 15 75 27 110 30 34 3 79 15 101 26 24 12 68 22 110 25 60 4 83 11 164 54
78 42 104 51 160 55 59 4 87 15 276 110 190 94 217 105 284 112 73 7 74 8 119
60 39 46 68 64 221 141 l176 88 286 289 c285 287 287 288 340 393 35 66 74
126 110 165 78 83 174 275 181 360 5 48 21 92 80 216 58 121 76 169 81 215 4
42 20 89 55 164 37 78 51 120 55 166 3 36 15 80 30 110 15 31 26 73 29 114 3
36 14 81 24 100 14 27 20 65 24 160 5 97 10 133 25 160 15 27 21 63 25 155 5
101 10 127 30 165 21 38 25 64 30 170 5 98 10 133 26 160 17 32 19 62 24 320
5 271 6 287 28 327 l22 42 0 559 c0 559 0 559 -22 608 -23 48 -23 59 -28 499
-5 427 -6 452 -25 485 -18 32 -20 59 -25 315 -5 276 -5 281 -30 325 -25 44
-25 49 -30 335 -5 266 -7 293 -25 325 -18 32 -20 59 -25 320 -5 258 -7 288
-24 320 -16 27 -21 62 -26 160 -5 108 -9 131 -30 170 -24 43 -25 54 -30 275
-4 205 -7 234 -25 265 -17 30 -20 60 -25 215 -4 156 -8 185 -25 215 -18 31
-21 59 -25 265 -5 221 -6 232 -30 275 -23 42 -25 57 -30 225 -4 155 -8 185
-25 215 -17 30 -20 60 -25 215 -5 168 -7 183 -30 225 -23 42 -25 58 -30 220
-4 150 -8 180 -25 210 -17 30 -20 61 -25 210 -5 159 -8 179 -30 225 -24 47
-25 62 -31 280 -5 202 -8 237 -27 285 -19 50 -21 75 -22 258 0 201 0 203 -27
255 -27 51 -28 55 -33 287 -4 211 -7 239 -25 270 -18 32 -20 59 -25 320 -5
261 -7 288 -25 320 -19 33 -20 59 -25 375 -5 340 -5 340 -30 385 l-25 45 -5
445 c-5 422 -6 447 -25 480 -19 34 -20 58 -25 760 -5 702 -6 726 -25 760 -19
34 -20 53 -20 755 l0 720 23 42 22 42 0 1146 0 1146 -22 42 c-22 41 -23 54
-28 377 -5 332 -5 335 -29 380 -21 39 -26 63 -31 170 -4 94 -10 133 -24 159
-10 19 -20 62 -23 95 -3 35 -16 86 -31 121 -27 59 -27 64 -27 275 l0 215 68
140 c55 113 79 152 126 200 33 33 73 87 89 120 23 44 56 84 129 151 73 67 108
108 133 155 22 43 70 102 145 179 64 66 123 136 138 165 17 33 78 102 182 205
119 118 164 169 187 215 21 41 66 97 143 175 67 68 123 135 138 165 17 34 77
101 182 205 113 112 164 171 185 211 21 40 77 105 195 225 116 117 172 181
186 213 14 33 69 96 188 216 131 132 176 184 199 231 23 45 57 86 135 160 75
72 113 117 135 160 23 44 70 98 187 214 122 121 164 169 190 220 26 50 58 87
135 159 80 74 108 107 135 161 27 53 55 86 133 159 76 70 109 108 135 159 26
47 66 96 137 167 70 70 112 120 136 165 26 49 60 89 135 159 77 72 107 108
134 160 19 37 56 88 85 116 28 28 67 79 85 115 26 49 57 87 133 157 75 70 107
107 135 160 19 37 57 88 82 113 26 25 62 75 81 112 21 43 50 80 80 105 28 23
58 62 76 98 17 32 56 86 88 120 32 33 69 83 83 110 14 28 49 73 77 100 29 28
66 79 86 117 21 43 50 80 80 105 28 23 58 61 76 98 17 33 56 87 88 120 32 33
69 83 83 110 14 28 46 70 72 95 26 25 62 74 80 110 18 36 57 88 85 115 28 28
64 75 80 105 16 30 52 78 80 105 28 28 67 79 85 115 18 36 57 88 85 115 28 28
63 73 77 100 32 65 164 199 228 233 48 26 56 27 210 27 l160 0 95 -46 c88 -43
104 -56 231 -185 l136 -139 99 -195 99 -195 0 -285 c0 -271 -1 -287 -21 -325
-12 -22 -24 -67 -27 -101 -4 -52 -20 -92 -109 -271 -93 -185 -106 -217 -110
-274 -5 -61 -26 -106 -348 -749 -318 -637 -346 -689 -399 -745 -52 -54 -77
-98 -245 -435 -167 -335 -192 -380 -236 -420 -41 -38 -67 -81 -160 -265 -92
-180 -121 -230 -166 -275 -43 -44 -70 -89 -133 -215 -64 -130 -88 -169 -131
-210 -37 -36 -67 -81 -108 -160 -38 -75 -74 -129 -113 -170 -39 -42 -74 -93
-112 -170 -40 -80 -69 -124 -107 -160 -38 -36 -67 -81 -110 -165 -42 -84 -72
-129 -110 -165 -28 -27 -67 -79 -85 -115 -18 -36 -57 -87 -85 -115 -28 -27
-64 -75 -80 -105 -16 -30 -49 -75 -75 -100 -26 -25 -62 -75 -81 -112 -21 -43
-50 -80 -80 -105 -28 -23 -58 -62 -76 -98 -17 -32 -56 -86 -88 -120 -32 -33
-69 -82 -83 -110 -16 -31 -67 -91 -132 -155 -69 -68 -116 -124 -135 -160 -16
-30 -52 -77 -80 -105 -28 -27 -67 -79 -85 -115 -18 -36 -54 -85 -80 -110 -26
-25 -62 -74 -80 -110 -26 -50 -58 -87 -135 -159 -76 -70 -108 -108 -132 -154
-17 -34 -56 -88 -88 -122 -32 -33 -69 -82 -83 -110 -14 -27 -49 -72 -77 -100
-29 -28 -66 -79 -86 -117 -21 -42 -50 -80 -79 -105 -37 -30 -58 -61 -99 -148
-42 -86 -66 -122 -110 -165 -52 -50 -70 -81 -200 -345 -125 -253 -144 -298
-149 -351 -2 -33 -14 -79 -26 -102 -20 -38 -21 -57 -21 -274 0 -209 2 -237 20
-276 10 -23 22 -59 26 -80 4 -21 20 -52 39 -72 18 -19 47 -63 64 -97 17 -33
43 -70 58 -81 15 -11 101 -56 190 -101 l163 -81 124 0 c104 0 131 3 172 21 26
12 77 24 113 26 112 9 154 39 427 315 l241 243 107 215 c92 184 115 222 160
265 47 45 69 84 211 369 139 279 166 327 217 381 48 52 76 100 165 276 88 177
116 224 163 274 40 41 75 95 114 172 43 85 70 124 106 155 37 34 61 70 109
165 47 95 70 130 106 160 35 29 58 63 97 143 38 76 69 123 114 170 34 36 74
90 89 120 15 30 51 80 80 110 34 35 73 92 105 155 34 65 72 121 110 160 32 34
71 88 88 120 17 33 51 80 77 105 26 25 62 75 81 112 21 43 50 80 80 105 36 29
59 64 104 153 43 84 72 128 110 165 28 28 67 79 85 115 18 36 57 88 85 115 28
28 63 72 77 99 14 28 50 75 79 106 36 37 73 94 110 166 37 73 73 127 109 164
29 30 67 83 84 117 19 39 48 76 77 100 28 23 58 62 76 98 17 32 56 86 88 120
37 38 75 94 106 155 30 59 70 119 106 157 38 41 75 97 112 170 39 78 69 122
106 158 28 28 67 79 85 115 18 36 57 88 85 115 38 36 67 81 110 165 40 79 73
129 105 160 29 28 68 86 105 155 37 70 76 126 105 155 32 31 64 79 102 155 40
80 71 127 113 170 50 51 75 93 168 280 92 184 119 228 162 270 45 44 73 94
244 435 179 357 194 390 198 450 4 52 15 85 55 165 38 76 51 115 55 161 4 35
16 81 31 110 15 31 26 73 29 114 3 36 14 81 24 100 14 26 20 65 24 155 6 116
8 123 49 205 24 47 52 95 64 108 l20 22 -20 23 c-12 12 -38 58 -59 102 -34 74
-37 89 -43 200 -5 99 -11 128 -30 165 -15 28 -26 68 -29 110 -6 86 -47 168
-122 245 -43 44 -71 87 -106 160 -47 98 -52 104 -240 292 -139 139 -207 199
-246 219 -29 14 -80 52 -114 84 -42 41 -93 74 -170 113 -77 39 -123 70 -159
107 -37 37 -77 64 -153 100 -76 36 -119 65 -165 108 -34 33 -82 70 -107 82
-55 27 -203 170 -233 225 -21 38 -22 53 -22 270 l0 230 266 530 c249 496 267
534 271 595 5 57 18 89 111 275 88 178 105 219 110 270 3 42 18 88 49 155 31
67 46 114 50 156 3 34 16 81 31 110 15 31 26 73 29 114 3 38 14 83 27 107 11
23 21 62 21 85 1 24 10 68 22 98 15 39 22 91 27 180 6 108 11 132 34 177 l27
52 0 331 c0 318 -1 332 -21 373 -12 23 -24 69 -27 106 -4 50 -16 89 -54 169
-34 72 -51 122 -55 161 -4 43 -24 96 -90 231 -71 148 -93 184 -143 235 -43 44
-71 87 -106 160 -48 100 -49 101 -294 346 -197 198 -257 252 -305 277 -33 17
-82 54 -110 82 -38 40 -75 64 -155 102 -81 38 -119 62 -165 108 -55 55 -90 74
-450 253 -343 171 -397 195 -450 200 -48 4 -92 21 -215 79 -122 59 -168 76
-215 80 -43 4 -89 20 -165 56 -78 36 -121 51 -166 55 -33 2 -78 14 -100 25
-21 10 -67 22 -100 25 -34 2 -83 15 -110 28 -39 18 -74 24 -169 29 -90 5 -132
12 -168 28 -47 21 -63 22 -378 22 -318 0 -331 -1 -372 -21 -26 -14 -68 -24
-112 -27 -41 -3 -86 -13 -109 -24 -21 -11 -64 -22 -95 -25 -39 -3 -89 -20
-164 -55 -80 -37 -125 -51 -170 -55 -90 -8 -397 -161 -477 -237 -30 -29 -77
-65 -105 -81 -27 -15 -102 -78 -165 -141 -73 -72 -131 -120 -160 -133 -60 -27
-418 -386 -450 -451 -14 -30 -97 -121 -240 -265 -164 -166 -225 -234 -245
-275 -18 -36 -66 -94 -140 -170 -67 -68 -123 -135 -138 -165 -18 -35 -85 -109
-219 -242 -175 -173 -201 -195 -278 -234 -74 -38 -93 -43 -150 -43 -54 0 -78
6 -145 37 -89 42 -136 82 -168 142 -21 39 -22 49 -22 430 0 385 0 391 23 432
21 40 22 54 22 248 0 186 2 211 22 263 15 41 23 91 28 177 5 103 10 127 33
172 26 50 27 59 27 203 0 130 3 158 22 208 15 41 23 91 28 177 5 97 11 130 30
170 19 40 25 73 30 170 5 91 11 128 25 155 15 27 21 63 25 155 5 102 10 129
33 179 23 50 27 71 27 152 0 73 5 108 22 152 16 42 23 90 27 182 6 111 9 130
34 174 24 43 27 59 27 143 0 72 5 107 22 151 16 42 23 90 28 182 5 96 11 133
25 160 15 27 21 63 25 155 5 101 10 127 30 165 21 38 25 64 30 170 5 102 10
133 28 167 18 35 22 59 22 138 0 74 5 109 22 153 15 41 23 91 28 177 5 100 10
127 31 165 23 43 24 55 29 270 5 206 7 229 28 274 l22 49 0 776 c0 775 0 776
-22 821 -19 39 -22 68 -27 220 -5 145 -9 181 -25 210 -10 19 -21 63 -24 99 -5
61 -21 97 -224 506 l-220 440 -186 188 c-151 152 -200 195 -252 222 -36 18
-87 56 -115 85 -44 45 -92 72 -385 219 -309 155 -340 169 -400 173 -56 5 -87
16 -215 80 -129 65 -159 76 -215 80 -36 3 -83 14 -105 25 -22 11 -68 23 -101
26 -34 3 -88 16 -120 30 -33 14 -84 28 -115 30 -31 3 -74 14 -95 25 -22 11
-68 22 -104 24 -36 3 -83 14 -105 25 -22 11 -69 23 -105 25 -42 3 -82 14 -110
29 -37 20 -65 25 -165 29 -91 5 -129 11 -155 25 -27 15 -65 21 -160 25 -106 5
-132 10 -170 31 -41 22 -59 24 -220 29 -166 5 -178 7 -227 33 l-52 27 -263 1
c-179 0 -274 4 -298 12 -28 10 -43 10 -75 -1 -59 -21 -130 -10 -216 33 -111
56 -157 108 -174 198 l-7 37 -458 0 -458 0 -7 -37z m-4065 -2198 c33 -19 58
-20 540 -25 482 -5 507 -6 540 -25 33 -19 58 -20 480 -25 l445 -5 50 -25 50
-25 390 -5 c367 -5 392 -6 425 -25 33 -19 58 -20 490 -25 l455 -5 49 -27 49
-28 309 0 c294 0 311 -1 366 -22 51 -20 82 -23 292 -28 210 -4 239 -7 270 -25
27 -15 61 -21 155 -25 101 -5 127 -10 165 -30 38 -21 64 -25 170 -30 102 -5
133 -10 167 -28 23 -12 60 -22 83 -22 22 0 66 -10 98 -21 31 -12 88 -25 125
-30 37 -4 93 -19 124 -33 30 -14 69 -26 87 -26 58 0 108 -21 450 -191 309
-154 347 -175 401 -228 33 -33 85 -71 115 -86 42 -21 99 -72 243 -217 l188
-190 75 -150 c64 -127 76 -161 83 -222 5 -39 16 -87 26 -106 9 -18 20 -61 22
-94 3 -34 15 -79 26 -101 16 -32 22 -67 27 -165 5 -108 9 -131 30 -170 l25
-45 0 -1025 0 -1025 -22 -52 -23 -52 0 -1481 0 -1481 23 -42 c22 -42 22 -47
27 -547 5 -482 6 -507 25 -540 19 -33 20 -58 25 -430 5 -370 6 -397 25 -430
17 -30 20 -60 25 -210 5 -161 7 -179 29 -220 21 -39 26 -63 31 -170 4 -95 10
-133 24 -160 10 -19 21 -64 24 -100 3 -41 14 -83 30 -115 15 -31 27 -74 30
-115 3 -38 13 -81 26 -105 18 -34 21 -57 21 -160 l0 -120 -102 -200 c-79 -156
-111 -210 -148 -245 -34 -33 -69 -89 -132 -210 -64 -123 -99 -179 -139 -220
-43 -44 -74 -97 -164 -275 -91 -179 -121 -230 -165 -275 -44 -45 -73 -94 -164
-277 -97 -193 -118 -228 -157 -260 -38 -32 -59 -64 -122 -191 -60 -123 -88
-168 -138 -223 -44 -48 -80 -102 -118 -176 -38 -76 -69 -123 -105 -157 -40
-39 -68 -86 -137 -220 -68 -136 -98 -183 -143 -231 -32 -33 -64 -76 -71 -95
-8 -19 -42 -64 -75 -100 -43 -45 -81 -101 -123 -180 -39 -74 -77 -131 -107
-160 -26 -25 -62 -75 -81 -112 -21 -43 -50 -80 -80 -105 -36 -29 -59 -64 -104
-153 -43 -84 -72 -129 -110 -165 -28 -27 -65 -77 -82 -110 -16 -33 -54 -85
-83 -115 -34 -35 -73 -92 -106 -155 -33 -64 -72 -121 -109 -160 -32 -34 -71
-88 -88 -120 -17 -33 -51 -80 -77 -105 -26 -25 -62 -75 -81 -112 -21 -43 -50
-80 -80 -105 -36 -29 -59 -64 -104 -153 -43 -84 -72 -128 -110 -165 -28 -27
-67 -79 -85 -115 -18 -36 -57 -87 -85 -115 -37 -35 -67 -81 -105 -155 -38 -74
-68 -120 -105 -155 -28 -27 -65 -77 -82 -110 -16 -33 -54 -85 -83 -115 -31
-33 -73 -94 -104 -155 -33 -62 -73 -121 -106 -155 -29 -30 -65 -80 -80 -110
-15 -30 -53 -82 -85 -115 -39 -41 -75 -95 -114 -170 -38 -72 -76 -129 -111
-165 -29 -30 -64 -77 -78 -105 -14 -27 -48 -72 -77 -100 -36 -36 -65 -80 -103
-155 -35 -73 -69 -123 -108 -165 -31 -33 -70 -87 -87 -120 -17 -33 -56 -85
-87 -115 -42 -41 -67 -79 -101 -150 -33 -70 -61 -111 -103 -155 -33 -33 -73
-87 -89 -120 -17 -33 -54 -82 -82 -110 -28 -27 -64 -75 -80 -105 -16 -30 -52
-77 -80 -105 -28 -27 -67 -79 -85 -115 -18 -36 -57 -87 -85 -115 -28 -27 -64
-75 -80 -105 -16 -30 -51 -77 -79 -104 -34 -34 -66 -81 -103 -154 -36 -72 -73
-127 -115 -173 -34 -38 -73 -90 -87 -116 -13 -26 -45 -68 -71 -93 -26 -25 -62
-74 -80 -110 -18 -36 -57 -87 -85 -115 -28 -27 -64 -75 -80 -105 -16 -30 -52
-77 -80 -105 -28 -27 -67 -79 -85 -115 -18 -36 -57 -87 -85 -115 -37 -35 -67
-81 -105 -155 -38 -74 -68 -120 -105 -155 -28 -27 -67 -79 -85 -115 -18 -36
-57 -87 -85 -115 -28 -27 -64 -75 -80 -105 -16 -30 -52 -77 -80 -105 -28 -27
-67 -79 -85 -115 -18 -36 -54 -85 -80 -110 -32 -31 -65 -80 -105 -160 -42 -84
-72 -129 -110 -165 -28 -27 -64 -75 -80 -105 -16 -30 -52 -77 -80 -105 -28
-27 -67 -79 -85 -115 -18 -36 -57 -87 -85 -115 -28 -27 -64 -75 -80 -105 -16
-30 -49 -75 -75 -100 -26 -25 -62 -75 -81 -112 -21 -43 -50 -80 -80 -105 -28
-23 -58 -62 -76 -98 -17 -32 -56 -86 -88 -120 -32 -33 -69 -82 -83 -110 -14
-27 -49 -72 -77 -100 -29 -28 -66 -79 -86 -117 -21 -43 -50 -80 -80 -105 -29
-24 -58 -62 -79 -103 -18 -36 -57 -87 -85 -115 -28 -27 -64 -75 -80 -105 -16
-30 -49 -75 -75 -100 -26 -25 -62 -74 -80 -110 -19 -38 -57 -88 -90 -120 -31
-30 -69 -80 -85 -110 -16 -30 -49 -75 -75 -100 -26 -25 -62 -74 -80 -110 -26
-49 -57 -87 -132 -156 -73 -67 -108 -109 -133 -155 -18 -35 -59 -91 -91 -124
-31 -33 -68 -82 -82 -110 -14 -27 -49 -72 -77 -100 -28 -27 -67 -79 -85 -115
-24 -47 -62 -93 -135 -165 -65 -64 -112 -120 -130 -155 -18 -36 -66 -92 -135
-160 -78 -77 -116 -123 -140 -170 -18 -36 -56 -87 -85 -115 -28 -27 -60 -70
-71 -95 -13 -29 -62 -88 -138 -165 -67 -67 -128 -140 -141 -165 -12 -25 -71
-94 -130 -155 -69 -71 -117 -130 -135 -165 -18 -36 -67 -95 -140 -170 -67 -68
-123 -135 -138 -165 -16 -31 -66 -90 -132 -155 -77 -76 -116 -123 -140 -170
-24 -47 -62 -93 -135 -165 -65 -64 -112 -120 -130 -155 -21 -41 -84 -110 -240
-265 -149 -148 -219 -225 -237 -260 -16 -33 -82 -108 -193 -220 -121 -123
-175 -185 -195 -225 -20 -40 -73 -101 -190 -220 -122 -123 -171 -180 -193
-225 -23 -45 -57 -84 -132 -154 -76 -70 -108 -108 -132 -155 -21 -43 -64 -95
-143 -176 -67 -68 -123 -135 -138 -165 -16 -31 -66 -90 -132 -155 -78 -77
-116 -123 -140 -170 -18 -36 -54 -85 -80 -110 -26 -25 -59 -70 -75 -100 -19
-36 -66 -92 -135 -160 -69 -68 -116 -124 -135 -160 -16 -30 -52 -77 -80 -105
-28 -27 -67 -79 -85 -115 -24 -47 -62 -93 -135 -165 -75 -74 -110 -118 -136
-167 -21 -43 -50 -80 -80 -105 -28 -23 -58 -62 -76 -98 -17 -32 -56 -86 -88
-120 -32 -33 -69 -82 -83 -110 -14 -27 -49 -72 -77 -100 -37 -36 -67 -81 -107
-159 -37 -74 -73 -128 -109 -166 -36 -38 -73 -94 -110 -166 -39 -76 -73 -127
-113 -169 -54 -55 -79 -101 -303 -550 -228 -456 -245 -495 -250 -555 -4 -52
-16 -86 -55 -165 -40 -80 -51 -113 -55 -165 -4 -51 -15 -85 -50 -155 -36 -71
-46 -104 -50 -157 -5 -55 -14 -82 -53 -155 -38 -71 -49 -102 -56 -163 -7 -57
-20 -99 -58 -180 -35 -74 -51 -122 -54 -161 -3 -31 -16 -78 -30 -105 -15 -31
-26 -73 -29 -114 -3 -36 -14 -83 -25 -105 -11 -22 -23 -69 -25 -105 -4 -52
-15 -85 -55 -165 -40 -80 -51 -113 -55 -165 -3 -36 -14 -83 -25 -105 -11 -22
-23 -68 -26 -101 -3 -34 -16 -88 -30 -120 -14 -33 -28 -87 -30 -121 -4 -49
-14 -78 -48 -140 -43 -77 -44 -79 -49 -203 -6 -107 -10 -132 -32 -175 -15 -31
-27 -75 -31 -114 -4 -48 -16 -86 -53 -160 -48 -95 -48 -97 -54 -221 -5 -98
-11 -134 -27 -165 -11 -22 -23 -68 -26 -102 -3 -35 -16 -86 -31 -119 -14 -31
-26 -74 -26 -95 0 -22 -10 -65 -22 -97 -15 -41 -23 -91 -28 -177 -5 -100 -10
-128 -30 -165 -21 -38 -26 -65 -31 -165 -4 -91 -11 -132 -27 -168 -21 -47 -22
-63 -22 -377 l0 -329 86 -173 c78 -158 92 -180 162 -251 94 -96 177 -142 269
-150 35 -3 87 -16 119 -31 55 -25 61 -26 275 -26 l219 0 101 51 c75 37 119 53
168 59 36 4 92 17 123 29 32 11 78 21 103 21 29 0 64 9 97 26 31 16 76 28 112
32 46 4 85 17 161 55 80 40 113 51 165 54 53 4 84 15 164 55 81 41 113 52 165
56 57 4 87 15 216 80 121 60 161 75 210 80 42 3 89 18 155 49 62 29 114 46
150 50 37 3 90 21 163 55 79 37 125 52 170 56 53 4 95 21 275 110 181 88 222
105 275 109 51 5 88 19 212 81 128 64 159 75 215 80 59 4 90 17 325 135 234
117 267 130 325 135 61 5 101 23 615 280 504 251 555 279 610 332 33 31 81 68
105 80 25 13 98 73 163 134 65 61 133 119 151 128 20 10 39 31 46 50 8 18 87
108 181 203 110 112 176 187 192 220 16 31 66 90 132 155 79 78 115 122 140
172 23 43 52 81 84 108 32 28 55 57 67 88 11 29 44 74 85 118 37 39 78 93 92
120 14 27 46 69 72 94 26 25 62 74 80 110 18 36 57 88 85 115 28 28 64 75 80
105 16 30 52 78 80 105 28 28 67 79 85 115 18 36 57 88 85 115 28 28 64 75 80
105 16 30 52 78 80 105 28 28 67 79 85 115 18 36 57 88 85 115 28 28 63 73 77
100 14 28 49 75 78 105 31 33 73 95 104 155 33 62 73 121 106 155 29 30 67 82
83 115 17 33 54 83 82 110 38 36 68 81 110 165 42 84 72 129 110 165 29 28 66
79 86 117 21 43 50 80 80 105 29 24 58 62 79 103 18 36 54 85 80 110 26 25 59
70 75 100 16 30 54 80 85 110 33 32 71 82 90 120 18 36 54 85 80 110 26 25 59
70 75 100 16 30 52 78 80 105 29 28 66 79 86 117 22 43 50 81 83 108 33 28 55
57 67 88 11 30 42 73 84 117 37 39 79 93 93 120 14 28 46 70 72 95 26 25 62
75 80 111 27 52 56 87 136 160 78 73 109 109 134 159 18 36 57 87 85 115 28
28 67 79 85 115 18 36 57 88 85 115 28 28 63 72 77 100 14 27 51 77 83 110 32
33 71 87 88 120 23 44 56 83 127 149 74 68 103 103 130 155 19 37 56 88 85
116 28 28 64 75 80 105 19 36 66 92 135 160 79 78 115 122 140 171 25 50 59
89 138 165 75 72 110 113 126 149 15 35 56 85 135 165 82 82 123 132 144 176
23 45 57 86 135 160 75 72 110 113 126 149 12 28 49 78 85 115 35 36 75 88 89
115 16 31 66 90 132 155 78 77 115 122 140 170 26 52 65 96 189 218 116 114
164 169 186 210 15 32 52 80 80 107 28 28 65 76 81 108 22 44 71 99 189 216
118 118 166 173 188 217 21 41 63 91 137 164 77 76 116 123 140 170 26 49 58
87 133 157 75 70 107 107 135 160 28 53 69 101 192 223 110 109 165 171 185
210 18 36 66 92 135 160 77 76 116 123 140 170 24 47 62 93 135 165 65 64 112
120 130 155 18 36 66 92 135 160 79 78 115 122 140 171 25 50 59 89 138 165
75 72 110 113 126 149 26 59 272 313 336 348 29 15 58 21 105 21 56 0 77 -6
150 -40 104 -51 147 -94 197 -199 l37 -80 6 -175 c5 -159 8 -179 30 -225 25
-50 25 -51 30 -435 5 -362 6 -387 25 -420 19 -34 20 -58 25 -650 l5 -615 25
-45 25 -45 3 -2743 2 -2742 -22 -58 -22 -57 -6 -1100 -5 -1100 -25 -45 -25
-45 -5 -1960 c-5 -1937 -5 -1960 -25 -1995 -19 -33 -20 -59 -25 -375 -5 -337
-5 -340 -30 -390 -23 -48 -25 -61 -30 -280 -4 -205 -7 -234 -25 -265 -15 -27
-21 -61 -25 -155 -6 -104 -10 -127 -33 -172 -18 -34 -27 -68 -27 -98 0 -25
-10 -71 -21 -103 -12 -31 -25 -87 -29 -123 -5 -37 -20 -89 -33 -115 -15 -30
-26 -74 -29 -114 -5 -59 -20 -95 -179 -415 l-173 -350 -191 -194 -190 -194
-252 -124 c-220 -109 -260 -126 -315 -130 -37 -4 -83 -16 -112 -31 -30 -14
-74 -26 -110 -29 -47 -3 -87 -17 -170 -56 -107 -50 -111 -51 -225 -57 -85 -4
-125 -10 -150 -24 -18 -10 -59 -20 -90 -23 -31 -2 -83 -17 -116 -31 -55 -24
-74 -27 -235 -32 -146 -5 -184 -10 -232 -28 -50 -19 -78 -22 -203 -22 -140 0
-148 -1 -198 -27 l-52 -28 -340 -5 c-320 -5 -343 -7 -397 -28 -57 -22 -64 -22
-588 -22 l-531 0 -42 -22 -42 -23 -2180 -5 -2180 -5 -50 -25 -50 -25 -605 -5
c-582 -5 -606 -6 -640 -25 -33 -19 -58 -20 -435 -25 -377 -5 -402 -6 -435 -25
-33 -19 -56 -20 -420 -23 l-385 -2 -50 -28 -50 -27 -395 -5 c-378 -5 -397 -6
-452 -28 -55 -21 -71 -22 -373 -22 l-316 0 -52 -27 -52 -28 -335 -5 c-311 -5
-337 -6 -370 -25 -33 -19 -59 -20 -375 -25 -338 -5 -340 -5 -390 -30 -49 -24
-56 -25 -335 -30 -261 -5 -288 -7 -320 -25 -33 -19 -59 -20 -370 -25 -332 -5
-335 -5 -385 -30 l-50 -25 -390 -5 c-373 -5 -393 -7 -447 -28 -57 -22 -63 -22
-588 -22 l-531 0 -42 -22 c-42 -23 -45 -23 -597 -28 l-555 -5 -50 -25 -50 -25
-2665 -5 c-2642 -5 -2665 -5 -2700 -25 -34 -19 -56 -20 -732 -23 l-697 -3 -58
23 c-57 22 -66 23 -613 28 l-555 5 -45 25 c-43 24 -53 25 -275 30 -206 4 -234
7 -265 25 -30 17 -59 21 -215 25 -155 5 -185 8 -215 25 -30 17 -60 21 -210 25
-162 5 -178 7 -220 30 -39 21 -63 25 -170 30 -97 5 -133 10 -160 25 -27 15
-63 21 -160 25 -107 5 -132 10 -170 30 -38 21 -64 26 -165 30 -93 5 -129 11
-160 27 -24 12 -67 22 -110 25 -42 3 -86 13 -110 25 -22 11 -67 23 -101 26
-35 3 -81 15 -110 30 -31 15 -73 26 -114 29 -38 3 -83 14 -107 27 -23 11 -62
21 -85 21 -24 1 -68 10 -98 21 -30 11 -86 24 -125 29 -59 7 -96 21 -230 88
-138 69 -169 81 -225 85 -59 5 -90 18 -365 157 -261 132 -308 159 -360 210
-33 31 -83 69 -110 83 -28 14 -70 46 -95 72 -25 26 -74 62 -110 80 -89 46
-314 272 -358 360 -17 33 -54 83 -82 110 -38 36 -68 81 -110 165 -43 84 -72
128 -110 165 -43 42 -69 84 -152 250 -89 177 -101 207 -106 265 -4 56 -16 87
-80 215 -64 128 -75 159 -80 215 -4 52 -15 85 -55 165 -37 75 -51 114 -55 160
-2 33 -14 78 -25 100 -16 32 -22 67 -27 165 -5 107 -9 132 -30 170 -20 38 -25
65 -31 170 -5 89 -12 141 -27 180 -16 41 -21 78 -22 148 0 81 -3 99 -27 145
-26 50 -28 60 -33 237 -5 160 -8 190 -25 220 -19 32 -20 59 -25 375 -5 316 -6
342 -25 375 -18 32 -20 59 -25 315 -5 276 -5 281 -30 325 -25 45 -25 46 -30
380 -5 311 -6 337 -25 370 -18 32 -20 59 -25 325 -5 266 -7 293 -25 325 -19
33 -20 59 -25 375 -5 340 -5 340 -30 385 -25 45 -25 45 -30 385 -5 316 -6 342
-25 375 -18 32 -20 59 -25 320 -5 278 -6 286 -30 335 -24 49 -25 57 -30 330
-5 256 -7 283 -25 315 -18 32 -20 59 -25 320 -5 278 -6 286 -30 335 -24 49
-25 57 -31 335 -5 259 -7 290 -27 340 -20 51 -21 74 -22 313 l0 258 -27 52
-28 52 -6 285 c-5 259 -7 290 -27 340 -20 51 -21 74 -22 313 0 248 -1 259 -22
300 -23 42 -23 47 -28 547 l-5 505 -25 45 -25 45 -5 830 c-5 807 -6 831 -25
865 -19 33 -20 58 -25 535 l-5 500 -25 50 -25 50 -5 445 c-5 422 -6 447 -25
480 -19 34 -20 58 -25 590 l-5 555 -25 45 -25 45 -5 450 c-5 427 -6 452 -25
485 -19 33 -20 58 -25 480 -5 422 -6 447 -25 480 -19 33 -20 58 -25 430 l-5
395 -25 50 c-25 50 -25 52 -30 385 -5 311 -6 337 -25 370 -19 34 -20 58 -25
650 -5 592 -6 616 -25 650 -19 34 -20 53 -20 590 l0 555 23 42 22 42 0 806 0
805 22 58 c22 56 23 70 28 557 l5 500 25 45 25 45 5 445 c5 422 6 447 25 480
19 34 20 58 25 705 5 647 6 671 25 705 19 33 20 58 25 425 l5 390 25 45 25 45
5 450 c5 443 5 451 28 492 22 42 22 48 22 410 1 353 2 370 22 423 21 53 22 73
27 560 l6 505 28 52 27 52 0 526 c0 521 0 526 22 583 l23 57 5 825 5 825 25
50 25 50 5 500 c5 477 6 502 25 535 17 30 21 59 25 210 5 162 7 178 30 220 21
39 25 63 30 170 5 97 10 133 25 160 15 27 21 63 25 160 5 107 10 132 32 175
15 30 27 74 31 111 2 33 14 78 25 100 11 23 21 68 24 109 3 42 13 86 25 110
11 22 23 67 26 100 4 52 25 101 164 380 87 176 208 415 268 530 l109 210 240
238 c168 166 256 246 291 264 28 14 77 51 110 83 52 51 92 75 313 185 218 109
263 127 320 134 37 5 93 18 124 30 32 11 78 21 103 21 29 0 64 9 97 26 31 16
76 28 112 31 34 3 79 15 101 26 32 16 67 22 165 27 107 5 131 9 170 30 42 23
58 25 225 30 156 4 185 8 215 25 35 20 58 20 2430 25 l2395 5 45 25 c45 25 46
25 385 31 316 5 344 7 395 27 50 19 75 21 258 22 191 0 205 1 245 23 40 21 55
22 332 27 286 5 291 5 335 30 43 24 53 25 275 30 205 4 234 7 265 25 30 17 60
20 215 25 155 4 185 8 215 25 30 17 60 20 210 25 161 5 179 7 220 29 38 21 65
26 165 31 86 5 136 13 177 28 50 19 78 22 207 22 140 0 152 1 207 27 50 23 77
28 179 33 92 4 128 10 155 25 27 14 64 20 155 25 97 5 130 11 170 30 41 19 73
25 175 30 95 4 133 10 160 25 26 14 64 20 155 25 101 4 127 9 165 30 38 20 64
25 170 30 95 4 133 10 160 25 26 14 64 20 155 25 92 4 128 10 155 25 27 15 63
20 160 25 106 5 132 9 170 30 38 20 64 25 165 30 92 4 128 10 155 25 27 14 64
20 160 25 92 5 140 12 182 28 32 12 76 22 98 22 25 0 61 11 93 27 45 23 69 28
172 33 86 5 136 13 177 28 44 17 79 22 152 22 81 0 102 4 152 27 50 23 77 28
179 33 92 4 128 10 155 25 27 14 64 20 155 25 97 5 130 11 170 30 41 20 72 25
175 30 97 4 133 10 160 25 27 14 63 20 155 25 102 5 127 9 165 30 42 23 59 25
225 30 152 4 185 8 215 25 27 14 63 20 155 25 92 4 128 10 155 25 27 15 63 20
160 25 107 5 131 9 170 30 42 23 58 25 220 30 150 4 180 8 210 25 30 17 60 20
215 25 167 5 183 7 225 30 42 23 58 25 225 30 154 4 185 8 215 25 30 17 61 20
210 25 162 5 178 7 220 30 41 23 59 25 220 31 144 5 185 10 230 27 50 19 76
21 263 22 196 0 210 1 250 22 38 20 59 23 202 26 152 3 162 4 210 30 49 27 53
27 285 32 210 5 241 8 292 28 50 19 77 22 213 22 142 0 159 2 198 23 41 21 52
22 432 27 l390 5 45 25 45 25 530 5 c427 4 535 8 554 19 14 8 36 17 50 22 14
4 757 7 1651 6 1605 -2 1625 -2 1660 -22z m13838 -8226 c31 -12 86 -25 122
-29 86 -11 76 -7 455 -196 l330 -166 115 -113 c80 -79 133 -122 175 -143 83
-42 310 -272 353 -357 17 -33 54 -82 82 -110 28 -27 63 -72 77 -100 14 -27 51
-77 84 -110 73 -75 139 -209 147 -300 2 -33 14 -78 26 -100 20 -38 21 -53 21
-380 0 -327 -1 -342 -21 -380 -14 -25 -23 -66 -26 -110 -3 -42 -13 -86 -25
-110 -11 -22 -23 -68 -26 -103 -5 -58 -33 -118 -373 -800 -341 -683 -372 -741
-426 -797 -45 -48 -73 -93 -133 -215 -61 -124 -88 -167 -134 -215 -40 -41 -76
-95 -115 -170 -38 -72 -76 -129 -111 -165 -29 -30 -64 -77 -78 -105 -14 -27
-49 -72 -77 -100 -38 -36 -68 -81 -110 -165 -53 -105 -68 -124 -165 -220 -97
-96 -110 -114 -156 -210 -46 -96 -59 -114 -163 -220 -82 -83 -123 -132 -145
-177 -19 -39 -48 -76 -77 -100 -28 -23 -58 -62 -76 -98 -17 -32 -56 -86 -88
-120 -32 -33 -69 -82 -83 -110 -16 -31 -67 -91 -132 -155 -78 -77 -116 -123
-140 -170 -18 -36 -54 -85 -80 -110 -26 -25 -59 -70 -75 -100 -16 -30 -52 -77
-80 -105 -28 -27 -67 -79 -85 -115 -18 -36 -57 -87 -85 -115 -28 -27 -63 -72
-77 -100 -14 -27 -51 -77 -83 -110 -32 -33 -69 -82 -83 -110 -14 -27 -49 -72
-77 -100 -28 -27 -67 -79 -85 -115 -18 -36 -56 -87 -85 -115 -28 -27 -60 -70
-71 -95 -11 -25 -46 -72 -78 -105 -33 -33 -70 -82 -84 -110 -14 -27 -49 -72
-77 -100 -28 -27 -67 -79 -85 -115 -18 -36 -57 -87 -85 -115 -28 -27 -64 -75
-80 -105 -16 -30 -52 -77 -80 -105 -28 -27 -67 -79 -85 -115 -25 -48 -62 -93
-140 -170 -100 -98 -111 -113 -160 -215 -40 -84 -65 -122 -105 -160 -28 -27
-64 -75 -80 -105 -16 -30 -52 -77 -80 -105 -28 -27 -67 -79 -85 -115 -18 -36
-57 -87 -85 -115 -28 -27 -64 -75 -80 -105 -16 -30 -52 -77 -80 -105 -28 -27
-67 -79 -85 -115 -18 -36 -57 -87 -85 -115 -28 -27 -64 -75 -80 -105 -16 -30
-49 -75 -75 -100 -26 -25 -62 -75 -81 -112 -21 -43 -50 -80 -80 -105 -28 -23
-58 -62 -76 -98 -17 -32 -56 -86 -88 -120 -32 -33 -69 -82 -83 -110 -16 -31
-67 -91 -132 -155 -69 -68 -116 -124 -135 -160 -16 -30 -52 -77 -80 -105 -28
-27 -67 -79 -85 -115 -18 -36 -57 -87 -85 -115 -28 -27 -64 -75 -80 -105 -16
-30 -52 -77 -80 -105 -28 -27 -67 -79 -85 -115 -18 -36 -54 -85 -80 -110 -26
-25 -59 -70 -75 -100 -16 -30 -52 -77 -80 -105 -28 -27 -67 -79 -85 -115 -18
-36 -57 -87 -85 -115 -28 -27 -63 -72 -77 -100 -14 -27 -51 -77 -83 -110 -32
-33 -69 -82 -83 -110 -14 -27 -49 -72 -77 -100 -28 -27 -67 -79 -85 -115 -24
-47 -62 -93 -135 -165 -65 -64 -112 -120 -130 -155 -16 -30 -52 -77 -80 -105
-28 -27 -67 -79 -85 -115 -18 -36 -57 -87 -85 -115 -28 -27 -64 -75 -80 -105
-19 -36 -66 -92 -135 -160 -69 -68 -117 -124 -135 -160 -18 -35 -65 -91 -130
-155 -73 -72 -111 -118 -135 -165 -24 -47 -63 -94 -140 -170 -69 -68 -116
-124 -135 -160 -16 -30 -52 -77 -80 -105 -29 -28 -66 -79 -85 -116 -25 -50
-58 -89 -138 -165 -75 -72 -113 -117 -135 -160 -17 -32 -51 -79 -77 -104 -26
-25 -62 -74 -80 -110 -26 -49 -57 -87 -132 -156 -73 -67 -108 -108 -133 -155
-22 -43 -70 -102 -145 -179 -65 -66 -123 -136 -138 -165 -14 -27 -46 -70 -72
-95 -26 -25 -62 -74 -80 -110 -27 -51 -67 -99 -195 -225 -115 -114 -170 -176
-190 -215 -16 -30 -52 -77 -80 -105 -28 -27 -67 -79 -85 -115 -25 -49 -57 -86
-128 -152 -71 -65 -102 -103 -130 -155 -20 -37 -59 -90 -87 -118 -29 -28 -67
-79 -85 -116 -25 -50 -58 -89 -138 -165 -75 -72 -113 -117 -135 -160 -17 -32
-54 -81 -82 -109 -28 -27 -64 -75 -80 -105 -16 -30 -49 -75 -75 -100 -26 -25
-62 -75 -80 -111 -27 -52 -56 -87 -134 -159 -75 -70 -108 -109 -135 -159 -19
-36 -58 -88 -86 -116 -29 -27 -67 -79 -85 -115 -18 -36 -57 -87 -85 -115 -28
-27 -63 -72 -77 -100 -14 -27 -51 -77 -83 -110 -32 -33 -69 -82 -83 -110 -14
-27 -49 -72 -77 -100 -28 -27 -67 -79 -85 -115 -24 -47 -62 -93 -135 -165 -65
-64 -112 -120 -130 -155 -16 -30 -52 -77 -80 -105 -28 -27 -67 -79 -85 -115
-18 -36 -57 -87 -85 -115 -28 -27 -64 -75 -80 -105 -19 -36 -66 -92 -135 -160
-69 -68 -116 -124 -135 -160 -16 -30 -52 -77 -80 -105 -28 -27 -67 -79 -85
-115 -26 -51 -67 -98 -190 -220 -110 -109 -165 -171 -185 -210 -18 -36 -66
-92 -135 -160 -77 -76 -116 -123 -140 -170 -25 -49 -57 -86 -128 -152 -71 -65
-102 -103 -130 -155 -28 -54 -70 -101 -197 -228 -113 -112 -170 -177 -190
-215 -20 -37 -81 -108 -190 -218 -114 -116 -169 -180 -190 -220 -19 -38 -63
-91 -135 -162 -69 -68 -117 -124 -135 -160 -20 -39 -75 -101 -185 -210 -123
-122 -164 -169 -190 -220 -24 -47 -63 -94 -140 -170 -69 -68 -117 -124 -135
-160 -18 -36 -66 -92 -135 -160 -77 -76 -116 -123 -140 -170 -26 -50 -58 -87
-135 -159 -79 -73 -108 -108 -135 -160 -25 -48 -60 -93 -135 -166 -75 -74
-110 -118 -136 -167 -21 -43 -50 -80 -80 -105 -28 -23 -58 -61 -76 -98 -21
-41 -66 -96 -143 -175 -67 -68 -123 -135 -138 -165 -14 -27 -49 -72 -77 -100
-28 -27 -67 -79 -85 -115 -24 -47 -62 -93 -135 -165 -65 -64 -112 -120 -130
-155 -18 -36 -66 -92 -135 -160 -68 -67 -117 -125 -135 -160 -20 -37 -81 -108
-190 -218 -114 -116 -169 -180 -190 -220 -23 -46 -117 -145 -492 -519 -375
-373 -473 -466 -518 -488 -41 -20 -97 -69 -213 -186 -116 -116 -174 -167 -215
-188 -31 -16 -79 -53 -107 -81 -36 -38 -81 -68 -165 -110 -84 -42 -129 -72
-165 -110 -27 -28 -75 -64 -105 -80 -30 -16 -77 -52 -105 -80 -40 -42 -83 -69
-225 -140 -145 -73 -181 -96 -212 -133 -33 -39 -74 -63 -370 -211 -298 -150
-339 -174 -393 -226 -54 -52 -93 -75 -416 -235 -310 -154 -363 -177 -415 -181
-43 -4 -88 -19 -169 -57 l-110 -52 -105 0 c-104 0 -106 0 -190 43 -109 56
-152 98 -203 197 -37 71 -41 88 -41 150 0 52 5 81 20 110 13 23 23 67 26 105
4 53 15 85 56 165 40 81 51 113 55 165 4 56 15 86 79 215 64 128 76 159 80
215 5 62 29 113 486 1026 456 911 484 964 531 1005 38 35 62 70 109 165 47 93
71 131 106 160 36 32 62 72 132 209 69 135 98 182 144 230 32 33 69 83 83 110
14 28 49 73 77 100 28 28 67 79 85 115 18 36 57 88 85 115 28 28 64 75 80 105
16 30 49 75 75 100 26 25 62 75 81 112 21 43 50 80 80 105 28 23 58 61 76 98
21 41 66 96 143 175 67 68 123 135 138 165 14 28 49 73 77 100 28 28 67 79 85
115 18 36 54 85 80 110 26 25 59 70 75 100 16 30 52 78 80 105 28 28 67 79 85
115 18 36 57 88 85 115 28 28 63 72 77 100 14 27 51 77 83 110 32 33 72 88 89
122 19 39 48 76 77 100 29 24 58 62 79 103 18 36 56 88 85 115 28 28 60 70 71
95 11 25 46 72 78 105 32 33 73 88 92 123 18 36 53 82 80 105 27 24 60 68 77
102 17 33 54 83 82 110 28 28 63 73 77 100 14 28 54 80 89 117 35 36 64 72 64
79 0 28 111 207 155 249 26 25 62 75 81 112 22 43 50 81 83 108 32 28 55 57
67 88 11 29 44 74 85 118 37 39 78 93 92 120 14 27 46 69 72 94 32 31 65 80
105 160 43 84 72 128 110 165 38 36 67 81 110 165 42 84 72 129 110 165 29 28
66 79 85 116 21 40 52 82 79 105 33 29 60 68 101 149 40 79 73 127 115 170 42
44 73 90 113 170 40 79 70 124 107 160 37 37 64 77 101 155 37 79 64 120 108
165 42 42 74 91 112 165 36 71 71 125 110 165 31 33 67 80 79 105 12 25 51 75
86 112 35 36 64 72 64 79 0 28 112 207 156 249 34 33 61 75 99 155 42 86 65
122 110 165 34 33 70 82 91 122 20 40 50 80 74 100 23 19 54 59 71 93 17 33
57 87 90 120 43 44 72 87 109 164 36 74 67 121 109 165 32 33 70 84 84 111 14
28 49 73 77 100 29 28 66 79 86 117 22 43 50 81 83 108 32 28 55 57 67 88 11
29 44 74 85 118 37 39 78 93 92 120 14 27 46 69 72 94 30 29 66 83 103 155 36
69 77 131 113 170 31 33 71 88 89 123 19 35 55 82 81 105 27 24 60 68 77 102
17 33 54 83 82 110 28 28 64 75 80 105 16 30 52 78 80 105 30 29 62 73 76 105
15 33 50 81 88 120 35 36 75 88 89 115 14 28 49 73 77 100 28 28 67 79 85 115
18 36 54 85 80 110 26 25 59 70 75 100 16 30 52 78 80 105 28 28 67 79 85 115
18 36 57 88 85 115 28 28 63 72 77 100 14 27 51 77 83 110 32 33 72 88 89 122
19 39 48 76 77 100 28 23 57 61 76 98 16 33 54 85 84 115 37 39 68 86 104 159
36 74 67 121 109 165 32 33 70 84 84 111 14 28 49 73 77 100 29 28 66 79 86
117 22 43 50 81 83 108 33 28 55 57 67 88 11 30 42 73 84 117 37 39 79 93 93
120 14 28 46 70 72 95 26 25 62 74 80 110 19 37 58 89 90 120 31 30 65 75 76
100 11 25 46 72 78 105 33 33 73 88 90 122 19 39 48 76 77 100 29 24 58 62 79
103 18 36 57 88 85 115 29 28 66 79 86 117 21 43 50 80 80 105 29 24 58 62 79
103 18 36 54 85 80 110 26 25 59 70 75 100 16 30 54 80 85 110 43 42 67 79
106 160 38 79 64 120 108 165 33 33 73 87 89 120 17 33 54 83 82 110 28 28 63
72 77 100 14 27 51 77 83 110 32 33 72 88 89 122 19 39 48 76 77 100 29 24 58
62 79 103 18 36 56 88 85 115 28 28 60 70 71 95 11 25 46 72 78 105 32 33 73
88 92 123 18 36 53 82 80 105 33 31 61 71 100 147 35 71 72 125 110 165 31 33
69 85 84 115 15 30 53 82 85 115 32 33 69 83 83 110 14 28 49 73 77 100 29 28
66 79 86 117 21 42 50 81 78 104 36 30 58 64 105 160 50 101 69 130 111 166
33 27 63 65 82 103 16 33 54 85 84 115 37 39 68 86 104 159 36 74 67 121 109
165 32 33 70 84 84 111 14 28 49 73 77 100 37 36 67 81 107 159 37 74 73 128
109 166 36 38 73 94 110 166 39 77 73 127 114 169 42 44 73 90 113 170 38 75
70 124 102 155 29 28 68 86 105 155 37 70 76 126 105 155 32 31 65 81 105 160
42 84 72 129 110 165 41 39 69 84 132 210 62 121 95 174 139 221 39 42 76 98
113 171 39 78 69 122 106 158 38 36 67 81 110 165 42 84 72 129 110 165 29 28
66 79 85 116 21 40 52 82 79 105 33 29 60 68 101 149 38 75 73 128 110 165 29
30 67 82 83 115 17 33 54 83 82 110 28 28 64 75 80 105 19 36 66 92 135 160
79 78 115 122 140 171 25 50 59 89 138 165 75 72 110 113 126 149 15 35 56 85
135 165 82 82 123 132 144 176 25 49 61 89 188 210 128 122 161 159 181 204
19 44 59 91 197 230 109 110 178 188 186 210 8 20 63 86 131 155 81 83 126
139 147 180 22 42 62 91 137 165 69 68 113 121 126 150 13 29 61 86 133 160
80 80 123 133 144 175 23 44 56 84 129 151 73 67 108 108 133 155 22 43 70
102 145 179 64 66 123 136 138 165 34 67 284 314 352 348 31 16 90 66 155 132
89 90 119 114 195 153 83 42 97 46 180 50 64 3 102 10 130 25 60 30 83 35 168
36 56 1 93 -5 135 -20z"/>
<path d="M17875 35497 l-40 -22 -3320 -5 -3320 -5 -45 -25 -45 -25 -610 -5
c-602 -5 -611 -6 -667 -28 -32 -12 -74 -22 -93 -22 -23 0 -75 -19 -141 -50
-57 -27 -123 -53 -147 -56 -28 -4 -54 -17 -77 -39 -19 -18 -57 -44 -85 -58
-29 -15 -85 -61 -132 -109 -75 -77 -88 -96 -166 -253 -74 -148 -85 -178 -89
-235 -3 -39 -14 -83 -27 -107 -20 -39 -21 -57 -21 -271 0 -212 2 -233 21 -277
12 -26 24 -75 27 -109 4 -52 21 -93 114 -281 60 -121 122 -233 136 -248 15
-16 52 -42 82 -57 30 -16 78 -52 105 -80 67 -69 160 -116 245 -122 43 -4 83
-14 117 -32 l52 -26 981 0 981 0 42 23 c42 22 47 22 542 27 l500 5 45 25 45
25 825 5 825 5 57 23 58 22 910 0 911 0 52 28 52 27 1425 5 c1402 5 1426 5
1460 25 29 17 53 20 150 20 97 0 123 -3 167 -22 50 -22 61 -23 383 -23 324 0
332 0 373 23 l42 22 1370 5 c1347 5 1371 5 1405 25 34 20 58 20 1025 25 l990
5 45 25 c43 24 53 25 275 30 199 4 235 7 264 24 19 10 62 20 95 23 34 2 86 15
116 28 30 13 73 27 95 30 25 5 53 20 75 40 19 18 58 44 85 58 28 14 85 61 127
104 69 70 87 96 165 248 l88 170 6 125 c5 103 10 133 29 172 l23 46 -23 54
c-18 41 -25 79 -30 168 l-6 115 -77 158 c-76 159 -77 159 -206 296 -99 104
-146 146 -193 172 -60 32 -69 34 -193 39 -122 5 -134 8 -190 38 l-60 32 -540
2 c-538 3 -540 3 -582 26 l-42 22 -931 0 -931 0 -42 -22 -42 -23 -1150 0
-1150 0 -42 23 -42 22 -1233 0 -1233 -1 -40 -22z"/>
<path d="M15330 27482 l-55 -27 -1035 -5 -1035 -5 -50 -25 -50 -25 -1475 -5
-1475 -5 -57 -22 c-50 -20 -76 -23 -203 -23 -129 0 -151 -2 -188 -21 -24 -13
-69 -24 -106 -27 -93 -7 -196 -58 -251 -123 -27 -33 -64 -61 -108 -83 -85 -43
-99 -59 -161 -184 -28 -56 -67 -120 -86 -141 -19 -21 -35 -47 -35 -57 -1 -11
-10 -44 -21 -74 -11 -30 -24 -87 -29 -126 -5 -43 -18 -91 -34 -122 -26 -51
-26 -54 -26 -274 l0 -223 51 -105 c37 -77 52 -121 56 -165 10 -104 52 -171
205 -322 125 -123 140 -135 243 -186 89 -44 122 -55 175 -59 43 -4 83 -14 117
-32 l52 -26 876 0 876 0 42 23 42 22 720 5 c717 5 720 5 777 28 57 22 62 22
583 22 l526 0 52 28 52 27 720 5 c697 5 721 6 755 25 35 20 58 20 2055 25
l2020 5 50 25 50 25 1685 5 c1662 5 1685 5 1720 25 33 19 58 20 540 25 l505 5
45 24 c28 15 68 26 109 29 55 4 88 17 225 85 89 44 174 91 189 106 16 14 44
56 63 93 22 43 50 80 80 105 61 50 119 164 127 248 3 33 15 82 26 108 19 43
21 68 21 218 0 154 -2 174 -21 212 -14 26 -24 69 -27 110 -4 61 -14 87 -92
243 -86 171 -89 175 -176 257 -80 74 -106 91 -254 164 l-165 82 -280 3 c-259
3 -283 5 -315 23 -34 19 -58 20 -645 25 l-610 5 -52 28 -53 27 -1092 -2 -1093
-3 -57 -22 -58 -23 -1600 0 -1600 0 -58 23 -57 22 -795 2 -795 1 -55 -26z"/>
<path d="M18410 18647 l-45 -22 -985 -5 -985 -5 -45 -25 -45 -25 -1730 0
-1730 0 -52 28 -52 27 -1361 0 -1361 0 -42 -22 c-34 -18 -65 -23 -167 -28
l-125 -5 -225 -114 c-205 -104 -232 -121 -298 -185 -71 -69 -77 -78 -192 -311
-102 -207 -119 -248 -123 -301 -3 -33 -14 -79 -26 -102 -20 -38 -21 -57 -21
-274 0 -214 2 -237 21 -278 12 -25 23 -72 26 -105 5 -51 23 -95 120 -289 113
-226 116 -230 194 -303 68 -65 102 -87 251 -163 153 -77 181 -88 238 -92 38
-3 83 -14 107 -27 l42 -21 1153 0 1153 0 45 23 45 22 770 5 c747 5 771 6 805
25 34 19 58 20 915 25 l880 5 45 25 45 25 665 5 c642 5 666 6 700 25 34 20 58
20 1025 25 967 5 991 5 1025 25 33 19 59 20 375 25 l340 5 224 113 c218 111
227 116 304 195 73 75 87 96 167 257 77 154 89 183 93 240 2 39 13 83 26 107
20 39 21 57 21 273 0 216 -1 234 -21 273 -13 24 -24 68 -26 107 -5 55 -14 82
-66 180 -42 80 -79 135 -122 180 -33 36 -67 81 -75 100 -25 65 -68 97 -245
184 -142 70 -180 85 -231 89 -36 3 -78 14 -105 28 -42 23 -56 24 -279 29 -219
5 -238 7 -277 28 -41 22 -48 22 -380 21 -326 0 -340 -1 -383 -22z"/>
</g></g></svg>