<svg xmlns="http://www.w3.org/2000/svg" width="1000" height="1000" viewBox="0 0 1000 1000"><g transform="scale(0.2)"><g transform="translate(0.000000,5000.000000) scale(0.100000,-0.100000)"
fill="#141413" stroke="none">
<path d="M15112 47525 l-54 -25 -526 0 -527 0 -53 -25 c-54 -25 -56 -25 -340
-25 -285 0 -287 0 -340 -25 -53 -24 -59 -25 -295 -25 -237 0 -243 -1 -295 -25
-52 -24 -63 -25 -245 -25 -183 0 -194 -1 -245 -25 -50 -23 -66 -25 -195 -25
-130 0 -146 -2 -195 -25 -49 -23 -66 -25 -195 -25 -120 0 -149 -4 -186 -20
-36 -17 -65 -20 -185 -20 -129 0 -145 -2 -194 -25 -52 -24 -63 -25 -245 -25
-183 0 -194 -1 -245 -25 -54 -25 -56 -25 -340 -25 -285 0 -287 0 -340 -25
l-54 -25 -1601 0 -1602 0 -53 -25 c-53 -24 -60 -25 -290 -25 -231 0 -238 -1
-290 -25 -51 -24 -63 -25 -240 -25 -178 0 -190 -1 -240 -25 -49 -23 -66 -25
-193 -25 -115 0 -148 -3 -191 -20 -44 -17 -77 -20 -193 -20 -128 0 -145 -2
-193 -25 -45 -21 -69 -25 -145 -25 -77 0 -101 -4 -145 -25 -30 -14 -73 -25
-95 -25 -23 0 -69 -12 -102 -25 -48 -20 -77 -25 -150 -25 -75 0 -99 -4 -143
-25 -33 -15 -72 -25 -100 -25 -27 0 -67 -10 -92 -22 -25 -11 -73 -24 -107 -28
-42 -5 -92 -21 -149 -49 -59 -28 -99 -41 -128 -41 -30 0 -69 -13 -137 -47 -66
-33 -112 -48 -156 -53 -55 -6 -122 -37 -548 -250 -388 -193 -499 -253 -548
-295 -34 -29 -77 -60 -96 -70 -18 -9 -62 -43 -96 -75 -35 -32 -85 -70 -112
-84 -27 -14 -88 -65 -138 -116 -53 -54 -110 -102 -140 -117 -66 -33 -258 -222
-291 -286 -14 -27 -49 -75 -79 -107 -30 -32 -65 -80 -79 -107 -13 -26 -43 -66
-66 -88 -23 -22 -53 -62 -67 -89 -14 -28 -49 -75 -78 -105 -46 -49 -83 -117
-299 -549 -220 -441 -246 -498 -246 -541 0 -31 -9 -69 -25 -103 -14 -29 -25
-71 -25 -95 0 -23 -11 -65 -25 -95 -15 -32 -25 -71 -25 -100 0 -28 -10 -67
-25 -100 -15 -32 -25 -71 -25 -99 0 -29 -10 -69 -26 -104 l-26 -57 4 -1221 4
-1222 27 -59 27 -58 0 -843 0 -843 -25 -54 -25 -53 0 -990 0 -990 25 -53 c24
-52 25 -63 25 -245 0 -170 3 -197 20 -236 17 -36 20 -65 20 -185 0 -129 2
-145 25 -194 23 -50 25 -66 25 -195 0 -130 2 -146 25 -195 24 -52 25 -63 25
-245 0 -183 1 -194 25 -245 24 -52 25 -63 25 -245 0 -183 1 -194 25 -245 24
-52 25 -63 25 -245 0 -183 1 -194 25 -245 24 -52 25 -63 25 -245 0 -170 3
-197 20 -236 18 -39 20 -66 20 -280 0 -230 1 -237 25 -289 24 -52 25 -63 25
-245 0 -183 1 -194 25 -245 24 -51 25 -63 25 -240 0 -178 1 -190 25 -240 24
-53 25 -59 25 -295 0 -237 1 -243 25 -295 24 -53 25 -59 25 -295 0 -237 1
-243 25 -295 24 -53 25 -60 25 -290 0 -231 1 -238 25 -290 25 -54 25 -56 25
-340 0 -264 2 -290 20 -331 19 -41 20 -67 20 -575 l0 -531 25 -53 25 -54 0
-948 0 -948 -25 -54 -25 -53 0 -817 0 -816 -25 -54 -25 -53 0 -1742 0 -1741
-25 -54 -25 -53 0 -337 0 -336 -25 -54 c-24 -52 -25 -58 -25 -294 0 -219 -2
-246 -20 -285 -18 -40 -20 -67 -20 -281 0 -230 -1 -237 -25 -290 -23 -49 -25
-65 -25 -195 0 -129 -2 -145 -25 -195 -24 -51 -25 -62 -25 -243 0 -179 -2
-193 -25 -250 -22 -54 -25 -74 -25 -202 0 -129 -2 -146 -25 -195 -24 -50 -25
-62 -25 -240 0 -177 -1 -189 -25 -240 -24 -51 -25 -62 -25 -245 0 -182 -1
-193 -25 -245 -24 -52 -25 -59 -25 -289 0 -214 -2 -241 -20 -280 -19 -43 -20
-69 -20 -1089 l0 -1045 25 -53 c23 -50 25 -66 25 -195 0 -130 2 -146 25 -195
21 -45 25 -69 25 -145 0 -77 4 -101 25 -145 21 -45 25 -69 25 -143 0 -65 5
-102 20 -139 11 -28 20 -70 20 -93 0 -24 11 -65 25 -95 16 -35 25 -72 25 -103
0 -39 10 -67 50 -144 39 -73 50 -106 50 -140 0 -26 11 -71 25 -105 14 -34 25
-79 25 -104 0 -39 37 -120 275 -597 230 -460 284 -560 324 -603 27 -28 71 -94
99 -146 28 -52 67 -111 87 -130 20 -19 52 -64 71 -100 28 -55 88 -119 377
-406 246 -245 357 -349 392 -367 28 -14 70 -46 95 -72 29 -31 79 -64 143 -96
58 -29 121 -71 155 -102 48 -44 126 -87 492 -271 389 -195 442 -219 500 -225
47 -6 91 -21 159 -54 73 -36 106 -47 142 -47 37 0 71 -11 150 -50 74 -36 114
-50 145 -50 24 0 65 -11 96 -25 32 -15 71 -25 100 -25 28 0 67 -10 100 -25 32
-15 71 -25 99 -25 26 0 66 -9 90 -20 34 -15 66 -20 141 -20 81 0 104 -4 150
-25 44 -21 68 -25 145 -25 76 0 100 -4 145 -25 48 -23 65 -25 193 -25 126 0
146 -3 200 -25 56 -23 71 -25 247 -25 177 0 189 -1 240 -25 53 -25 55 -25 340
-25 284 0 286 0 340 -25 l53 -25 1326 0 1326 0 49 25 49 25 335 0 335 0 53 25
c53 24 60 25 290 25 231 0 238 1 290 25 52 24 63 25 245 25 183 0 194 1 245
25 45 21 69 25 145 25 77 0 101 4 145 25 50 23 66 25 195 25 130 0 146 2 195
25 50 23 66 25 195 25 130 0 146 2 195 25 46 21 69 25 150 25 82 0 105 4 150
25 49 23 66 25 195 25 120 0 149 4 186 20 36 17 65 20 185 20 129 0 145 2 194
25 53 24 60 25 290 25 231 0 238 1 290 25 52 24 63 25 245 25 183 0 194 1 245
25 50 23 66 25 195 25 130 0 146 2 195 25 53 24 59 25 295 25 237 0 243 1 295
25 53 24 60 25 290 25 231 0 238 1 290 25 l54 25 436 0 c414 0 439 1 481 20
42 19 68 20 960 20 l916 0 53 25 c53 25 57 25 322 25 265 0 269 0 322 -25 l53
-25 677 0 676 0 54 -25 53 -25 382 0 381 0 54 -25 53 -25 337 0 336 0 54 -25
c53 -25 55 -25 339 -25 264 0 290 -2 330 -20 41 -18 67 -20 331 -20 284 0 286
0 340 -25 l53 -25 382 0 381 0 54 -25 53 -25 480 0 480 0 60 -25 60 -25 1597
0 1596 0 54 -25 c50 -24 62 -25 240 -25 177 0 189 -1 240 -25 44 -21 68 -25
145 -25 76 0 100 -4 145 -25 32 -15 71 -25 99 -25 26 0 66 -9 90 -20 24 -11
65 -20 92 -20 38 0 73 -13 185 -69 125 -63 144 -76 218 -152 98 -101 154 -201
154 -276 0 -30 10 -68 25 -101 l25 -54 0 -1016 0 -1017 25 -53 c24 -51 25 -63
25 -240 0 -178 1 -190 25 -240 15 -33 25 -72 25 -100 0 -29 10 -68 25 -100 15
-33 25 -72 25 -100 0 -29 10 -68 25 -100 14 -30 25 -73 25 -95 0 -23 10 -62
22 -87 12 -25 24 -76 28 -113 6 -57 19 -91 74 -200 53 -106 66 -141 66 -178 0
-67 100 -267 165 -329 31 -30 64 -79 100 -150 46 -91 66 -117 145 -195 58 -57
102 -110 120 -145 33 -65 117 -148 186 -183 27 -14 69 -46 94 -72 25 -26 70
-59 100 -75 30 -16 75 -49 100 -75 38 -40 99 -74 403 -226 317 -158 364 -179
407 -179 38 0 71 -11 151 -50 74 -36 114 -50 145 -50 24 0 65 -11 96 -25 45
-21 68 -25 149 -25 75 0 107 -4 140 -20 24 -11 65 -20 91 -20 28 0 67 -10 100
-25 49 -23 65 -25 195 -25 129 0 145 -2 195 -25 l53 -25 795 0 795 0 53 25 54
25 386 0 387 0 53 25 c54 25 56 25 341 25 287 0 288 0 337 25 48 24 53 25 284
25 229 0 236 1 288 25 l54 25 336 0 337 0 53 25 c54 25 56 25 345 25 269 0
295 2 336 20 42 20 68 20 1091 20 l1048 0 54 -25 53 -25 432 0 431 0 54 -25
53 -25 432 0 431 0 54 -25 53 -25 1175 0 1175 0 53 25 c50 23 66 25 195 25
130 0 146 2 195 25 45 21 69 25 145 25 77 0 101 4 145 25 33 15 72 25 100 25
29 0 68 10 100 25 30 14 72 25 95 25 24 0 66 11 95 25 33 15 72 25 100 25 29
0 68 10 100 25 33 15 72 25 100 25 39 0 97 25 407 180 302 151 369 188 406
226 24 25 67 58 95 72 37 20 125 103 326 307 253 258 278 287 322 370 27 50
70 113 96 140 36 37 75 104 154 260 89 177 106 218 106 257 0 35 12 70 46 142
33 67 49 115 54 158 5 45 20 90 53 157 45 91 47 98 47 182 0 65 5 102 20 139
11 28 20 68 20 89 0 22 11 63 25 93 l25 53 0 1575 0 1575 -25 53 c-23 50 -25
66 -25 195 0 130 -2 146 -25 195 -24 52 -25 63 -25 245 0 183 -1 194 -25 245
l-25 54 0 431 0 432 -25 53 -25 54 0 1306 c0 1281 -1 1308 -20 1351 -17 36
-20 65 -20 185 0 129 -2 145 -25 194 -21 46 -25 69 -25 150 0 82 -4 105 -25
150 -21 45 -25 69 -25 146 0 91 -1 95 -50 195 -39 79 -50 113 -50 150 0 39
-13 73 -70 187 -59 116 -70 147 -70 189 0 68 -45 161 -114 233 -40 43 -72 94
-126 202 -53 107 -85 159 -124 200 -29 30 -65 77 -81 104 -17 30 -139 159
-324 343 -226 226 -309 302 -351 323 -30 16 -75 49 -100 75 -39 41 -98 73
-440 242 -354 175 -402 196 -460 202 -69 7 -95 17 -123 48 -16 18 -16 22 -1
60 16 40 16 43 -10 98 l-26 57 0 513 0 513 25 54 25 53 0 740 0 740 -25 53
c-23 50 -25 66 -25 195 0 130 -2 146 -25 195 -21 44 -25 69 -25 140 0 72 -5
97 -25 140 -21 46 -25 69 -25 148 0 78 -4 105 -25 154 -14 33 -25 79 -25 102
0 25 -11 66 -25 96 -16 34 -25 72 -25 102 0 39 -12 72 -67 181 -52 105 -68
148 -73 197 -7 57 -37 122 -280 605 -230 459 -279 550 -320 592 -30 31 -67 88
-98 150 -34 67 -66 115 -97 145 -26 25 -59 70 -75 100 -16 30 -49 75 -75 100
-26 25 -58 68 -72 95 -14 28 -69 95 -123 150 -54 55 -103 110 -109 122 -6 13
-11 74 -11 146 0 112 3 131 25 179 l25 53 0 400 0 400 -25 53 c-24 51 -25 64
-25 227 0 163 1 176 25 227 l25 53 0 577 0 576 25 54 25 53 0 382 0 381 25 54
c24 52 25 59 25 290 0 230 1 237 25 290 23 49 25 65 25 195 0 119 3 151 20
193 17 42 20 74 20 189 0 127 2 144 25 193 23 49 25 65 25 195 0 129 2 145 25
195 23 49 25 65 25 195 0 129 2 145 25 195 24 52 25 58 25 295 0 236 1 242 25
295 l25 53 0 432 0 431 25 54 c24 52 25 59 25 289 0 214 2 241 20 280 18 41
20 67 20 336 0 289 0 291 25 345 l25 53 0 382 0 381 25 54 25 53 0 460 0 460
-25 53 -25 54 0 671 0 672 -25 53 -25 54 0 1183 0 1183 25 54 25 53 0 1865 0
1865 -25 53 c-23 50 -25 66 -25 195 0 130 -2 146 -25 195 -23 50 -25 66 -25
195 0 130 -2 146 -25 195 -14 30 -25 72 -25 95 0 24 -11 66 -25 95 -21 46 -25
69 -25 150 0 75 -5 107 -20 141 -11 24 -20 65 -20 92 0 39 -10 66 -47 136 -36
69 -48 102 -53 155 -7 63 -27 107 -279 610 -231 461 -280 551 -321 593 -26 28
-58 70 -70 95 -32 66 -607 642 -675 677 -27 14 -75 49 -106 78 -35 34 -92 71
-155 103 -61 31 -114 66 -139 92 -31 33 -96 70 -298 171 -222 111 -265 129
-305 129 -39 0 -72 12 -187 71 -113 58 -152 73 -205 78 -47 6 -91 20 -159 54
-72 36 -106 47 -142 47 -26 0 -66 9 -90 20 -34 15 -66 20 -141 20 -81 0 -104
4 -150 25 -43 20 -68 25 -140 25 -71 0 -96 4 -140 25 -49 23 -65 25 -195 25
-129 0 -145 2 -195 25 l-53 25 -1135 0 -1135 0 -53 -25 -54 -25 -2548 0 -2548
0 -54 25 -53 25 -480 0 -480 0 -49 25 -49 25 -438 0 -437 0 -54 25 -53 25
-822 0 -821 0 -54 25 -53 25 -622 0 c-599 0 -624 1 -673 20 -48 19 -74 20
-529 20 l-479 0 -54 25 -53 25 -332 0 -331 0 -54 25 c-53 25 -55 25 -345 25
-289 0 -291 0 -345 25 -52 24 -59 25 -290 25 -230 0 -237 1 -290 25 -53 25
-55 25 -340 25 -284 0 -286 0 -340 25 -52 24 -59 25 -290 25 -214 0 -242 2
-288 20 -46 18 -74 20 -289 20 -234 0 -240 1 -293 25 -52 24 -59 25 -290 25
-230 0 -237 1 -290 25 -52 24 -59 25 -290 25 -230 0 -237 1 -290 25 -52 24
-58 25 -295 25 -236 0 -242 1 -295 25 -52 24 -58 25 -295 25 -236 0 -242 1
-295 25 -52 24 -59 25 -288 25 -231 0 -236 1 -284 25 -49 25 -53 25 -292 25
-220 0 -246 2 -285 20 -40 18 -67 20 -286 20 -236 0 -242 1 -295 25 l-53 25
-432 0 -431 0 -54 25 -53 25 -1061 0 -1061 0 -61 25 -62 25 -762 0 -763 0 -53
-25z m17510 -2040 l53 -25 1420 0 1420 0 53 25 54 25 1093 0 1093 0 54 -25 53
-25 482 0 481 0 54 -25 c53 -25 56 -25 335 -25 278 0 282 0 335 -25 52 -24 58
-25 295 -25 236 0 242 -1 295 -25 48 -23 65 -25 190 -25 124 0 141 -2 190 -25
49 -23 64 -25 199 -25 125 0 153 -3 190 -20 24 -11 65 -20 91 -20 28 0 67 -10
100 -25 44 -21 68 -25 145 -25 76 0 100 -4 145 -25 30 -14 71 -25 96 -25 23 0
69 -11 102 -25 33 -14 78 -25 102 -25 34 1 71 -14 173 -66 105 -53 143 -67
195 -73 91 -10 403 -166 470 -235 33 -34 82 -65 185 -116 l140 -70 235 -233
235 -234 138 -274 c116 -232 138 -281 137 -319 0 -27 10 -66 25 -98 15 -33 25
-72 25 -100 0 -29 10 -68 25 -100 21 -45 25 -69 25 -143 0 -65 5 -102 20 -139
15 -38 20 -74 20 -142 0 -75 4 -100 25 -147 l25 -56 -2 -2285 -3 -2285 -130
-3 c-121 -2 -134 -1 -186 23 -55 24 -62 25 -292 25 -229 0 -236 1 -289 25
l-53 25 -337 0 -336 0 -54 25 -53 25 -382 0 -381 0 -54 25 -53 25 -772 0
c-749 0 -774 1 -823 20 -50 20 -74 20 -1304 20 l-1254 0 -54 25 -53 25 -2110
0 -2110 0 -53 -25 -54 -25 -1251 0 -1252 0 -53 -25 -54 -25 -531 0 -532 0 -53
-25 -54 -25 -331 0 -332 0 -53 -25 -54 -25 -386 0 c-364 0 -390 -2 -431 -20
-38 -18 -65 -20 -235 -20 -182 0 -193 -1 -244 -25 -52 -24 -63 -25 -245 -25
-183 0 -194 -1 -245 -25 -53 -24 -60 -25 -288 -25 -228 0 -236 -1 -294 -25
-59 -25 -59 -25 -397 -25 l-338 0 -53 -25 -54 -25 -576 0 -577 0 -53 -25 -54
-25 -743 0 -743 0 -54 25 -53 25 -430 0 -430 0 -49 25 c-49 25 -53 25 -292 25
-237 0 -243 1 -296 25 -53 25 -55 25 -340 25 -284 0 -286 0 -340 25 -53 25
-55 25 -338 25 -284 0 -285 0 -334 25 l-49 25 -438 0 -437 0 -54 25 -53 25
-677 0 -676 0 -54 25 -53 25 -1225 0 -1225 0 -53 -25 -54 -25 -821 0 -822 0
-53 -25 -54 -25 -866 0 -867 0 -53 -25 -54 -25 -463 0 -463 0 -54 25 -53 25
-867 0 -866 0 -54 25 -53 25 -1950 0 -1950 0 -53 -25 c-50 -23 -66 -25 -195
-25 -130 0 -146 -2 -195 -25 -46 -21 -69 -25 -150 -25 -82 0 -105 -4 -150 -25
-30 -14 -72 -25 -95 -25 -29 0 -74 -15 -142 -46 -64 -30 -122 -49 -160 -54
-86 -10 -544 -239 -619 -309 -28 -27 -67 -56 -86 -66 -19 -9 -47 -29 -62 -43
l-28 -26 0 231 c0 225 1 232 25 285 l25 53 0 527 0 526 25 54 c24 51 25 62 25
245 0 182 1 193 25 245 23 49 25 65 25 195 0 129 2 145 25 195 21 45 25 68 25
150 0 81 4 104 25 150 21 44 25 68 25 145 0 76 4 100 25 145 20 43 25 68 25
140 0 71 4 96 25 140 21 45 25 68 25 150 0 74 5 110 20 148 11 28 20 68 20 89
0 22 11 63 25 93 21 45 25 68 25 150 0 81 4 104 25 150 14 29 25 71 25 95 0
23 11 65 25 95 15 32 25 71 25 100 0 28 10 67 25 100 14 30 25 71 25 96 0 30
13 69 42 129 29 61 43 105 48 152 6 60 25 101 189 425 147 291 191 369 230
411 27 28 60 74 74 101 14 27 46 69 72 94 26 25 59 70 75 100 38 72 284 317
355 353 28 14 70 46 95 72 25 25 66 55 91 66 25 11 70 45 100 75 50 51 90 73
516 284 390 194 470 230 506 230 32 0 71 13 146 50 78 38 113 50 149 50 29 0
68 10 100 25 30 14 72 25 95 25 24 0 66 11 95 25 32 15 72 25 98 25 24 0 66 9
94 20 38 15 74 20 143 20 77 0 101 4 145 25 45 21 69 25 145 25 77 0 101 4
145 25 49 23 66 25 193 25 126 0 145 2 201 25 l61 25 838 0 837 0 54 -25 53
-25 337 0 336 0 54 -25 c53 -25 55 -25 340 -25 284 0 286 0 340 -25 l53 -25
1040 0 1040 0 53 25 c54 25 56 25 340 25 285 0 287 0 340 25 53 24 60 25 290
25 231 0 238 1 290 25 52 24 63 25 245 25 183 0 194 1 245 25 53 24 60 25 290
25 231 0 238 1 290 25 51 24 63 25 240 25 178 0 190 1 240 25 54 25 56 25 345
25 269 0 295 2 336 20 41 19 67 20 575 20 l531 0 53 25 54 25 576 0 577 0 53
25 54 25 993 0 993 0 54 -25 53 -25 772 0 771 0 54 -25 53 -25 820 0 820 0 49
-25 49 -25 791 0 791 0 53 25 54 25 386 0 387 0 53 25 c54 25 56 25 340 25
285 0 287 0 340 25 53 24 60 25 290 25 231 0 238 1 290 25 54 25 56 25 345 25
290 0 292 0 345 25 54 25 56 25 340 25 285 0 287 0 340 25 l54 25 336 0 c314
0 340 2 381 20 41 19 66 20 425 20 l381 0 53 25 54 25 576 0 577 0 50 24 50
24 517 1 516 1 54 -25z m-6160 -9020 l53 -25 432 0 431 0 54 -25 53 -25 577 0
576 0 54 -25 53 -25 382 0 381 0 54 -25 53 -25 335 0 335 0 49 -25 49 -25 343
0 c319 0 345 -1 385 -20 41 -18 67 -20 331 -20 284 0 286 0 340 -25 53 -25 55
-25 345 -25 289 0 291 0 345 -25 l53 -25 433 0 433 0 59 -25 59 -25 1060 0
1059 0 54 -25 53 -25 690 0 690 0 53 25 54 25 526 0 527 0 53 25 c54 25 56 25
340 25 285 0 287 0 340 25 54 25 56 25 340 25 285 0 287 0 340 25 53 24 59 25
295 25 237 0 243 1 295 25 54 25 56 25 340 25 285 0 287 0 340 25 53 24 60 25
290 25 231 0 238 1 290 25 53 24 59 25 295 25 219 0 246 2 286 20 39 18 66 20
285 20 236 0 242 1 294 25 53 25 57 25 335 25 279 0 282 0 335 25 51 24 63 25
236 25 l182 0 27 -62 27 -63 0 -1382 0 -1381 -25 -54 -25 -53 0 -532 0 -531
-25 -54 -25 -53 0 -577 0 -576 -25 -54 -25 -53 0 -545 0 -545 25 -53 25 -54 0
-576 0 -577 25 -53 c24 -51 25 -63 25 -240 0 -178 1 -190 25 -240 23 -50 25
-66 25 -195 0 -130 2 -146 25 -195 23 -49 25 -66 25 -195 0 -128 3 -148 25
-202 20 -48 25 -77 25 -150 0 -75 4 -99 25 -143 23 -50 25 -66 25 -195 0 -130
2 -146 25 -195 21 -45 25 -69 25 -145 0 -77 4 -101 25 -145 21 -46 25 -69 25
-150 0 -75 5 -107 20 -141 15 -33 20 -65 20 -135 0 -76 4 -100 25 -144 21 -45
25 -69 25 -145 0 -77 4 -101 25 -145 21 -46 25 -69 25 -150 0 -82 4 -105 25
-150 21 -46 25 -69 25 -151 0 -84 3 -104 25 -147 15 -30 25 -66 25 -94 0 -27
10 -67 25 -98 14 -30 25 -70 25 -90 l0 -36 -72 71 c-40 39 -95 82 -123 96 -27
14 -70 46 -95 72 -25 26 -70 59 -100 75 -30 16 -75 49 -100 75 -32 34 -73 61
-138 91 -65 31 -111 61 -151 99 -51 49 -105 79 -452 252 -333 165 -403 197
-454 203 -37 4 -91 22 -140 45 -50 24 -103 41 -140 45 -41 5 -89 21 -154 53
-68 34 -107 47 -137 47 -24 0 -65 11 -96 25 -44 21 -68 25 -144 25 -73 0 -102
5 -152 25 -50 20 -79 25 -151 25 -74 0 -98 4 -143 25 -52 24 -59 25 -290 25
-230 0 -237 1 -290 25 -53 25 -54 25 -363 25 -309 0 -310 0 -363 -25 -53 -24
-60 -25 -290 -25 -231 0 -238 -1 -290 -25 -45 -21 -69 -25 -145 -25 -77 0
-101 -4 -145 -25 -30 -14 -72 -25 -95 -25 -24 0 -66 -11 -95 -25 -33 -15 -72
-25 -100 -25 -27 0 -67 -10 -92 -22 -25 -11 -74 -24 -110 -28 -55 -7 -94 -23
-252 -104 -163 -84 -193 -96 -237 -96 -44 0 -80 -15 -303 -126 -205 -102 -263
-136 -308 -178 -39 -36 -98 -74 -200 -126 -85 -43 -163 -91 -190 -115 -25 -24
-85 -64 -135 -90 -50 -27 -114 -71 -145 -100 -30 -29 -77 -64 -105 -78 -29
-15 -87 -63 -140 -117 -52 -52 -116 -105 -150 -125 -39 -22 -107 -81 -195
-170 -88 -89 -156 -148 -195 -170 -72 -40 -155 -123 -185 -185 -13 -27 -82
-106 -175 -200 -93 -94 -161 -173 -175 -200 -12 -25 -69 -92 -126 -150 -88
-90 -109 -117 -143 -190 -27 -57 -55 -100 -86 -130 -41 -39 -78 -108 -276
-503 -205 -410 -229 -463 -229 -507 0 -38 -11 -71 -50 -151 -39 -80 -50 -113
-50 -150 0 -39 -10 -68 -50 -144 -40 -76 -50 -105 -50 -144 0 -27 -9 -68 -20
-92 -15 -34 -20 -66 -20 -141 0 -81 -4 -104 -25 -150 -14 -29 -25 -71 -25 -95
0 -23 -11 -65 -25 -95 -23 -49 -25 -65 -25 -195 0 -129 -2 -145 -25 -195 l-25
-53 0 -996 0 -996 25 -49 c22 -44 25 -61 25 -166 0 -103 -3 -122 -25 -170 -24
-52 -25 -59 -25 -290 0 -230 -1 -237 -25 -290 -15 -33 -25 -71 -25 -101 0 -59
-25 -109 -80 -162 -23 -22 -52 -60 -65 -85 -36 -70 -99 -121 -237 -194 -107
-56 -135 -66 -177 -66 -44 0 -88 -19 -408 -179 -304 -153 -365 -186 -403 -226
-29 -30 -78 -63 -135 -92 -54 -27 -112 -66 -146 -98 -30 -29 -77 -64 -105 -78
-70 -36 -552 -522 -587 -592 -14 -27 -46 -70 -72 -95 -40 -39 -76 -105 -267
-490 -189 -380 -222 -453 -228 -505 -4 -33 -17 -80 -28 -105 -12 -25 -22 -65
-22 -92 0 -28 -10 -67 -25 -100 -14 -30 -25 -71 -25 -95 0 -23 -9 -65 -20 -93
-11 -28 -20 -68 -20 -89 0 -22 -11 -63 -25 -93 -24 -51 -25 -62 -25 -245 0
-182 -1 -193 -25 -245 l-25 -53 0 -337 0 -336 -25 -54 -25 -53 0 -482 0 -481
-25 -54 c-15 -32 -25 -71 -25 -100 0 -28 -10 -67 -25 -100 -14 -29 -25 -69
-25 -89 0 -27 -8 -43 -35 -69 -20 -19 -47 -54 -61 -77 -14 -24 -39 -50 -57
-59 -18 -9 -57 -40 -87 -70 -74 -72 -199 -134 -268 -134 -42 0 -68 -9 -146
-50 -76 -40 -105 -50 -143 -50 -30 0 -68 -10 -101 -25 -30 -14 -71 -25 -93
-25 -21 0 -62 -9 -91 -20 -39 -15 -77 -20 -143 -20 -75 0 -99 -4 -143 -25 -50
-23 -66 -25 -195 -25 -130 0 -146 -2 -195 -25 -52 -24 -63 -25 -245 -25 -183
0 -194 -1 -245 -25 l-54 -25 -336 0 -337 0 -53 -25 -54 -25 -626 0 -627 0 -53
-25 -54 -25 -429 0 c-405 0 -431 -1 -479 -20 -47 -19 -74 -20 -388 -20 l-337
0 -53 -25 -54 -25 -381 0 -382 0 -53 -25 -54 -25 -331 0 -332 0 -53 -25 -54
-25 -529 0 -530 0 -59 -25 -59 -25 -1035 0 -1034 0 -54 25 -53 25 -577 0 -576
0 -54 25 -53 25 -382 0 -381 0 -54 25 c-52 24 -58 25 -295 25 -236 0 -242 1
-295 25 -52 24 -58 25 -295 25 -236 0 -242 1 -295 25 -52 24 -59 25 -290 25
-230 0 -237 1 -290 25 l-53 25 -527 0 -526 0 -54 25 -53 25 -1225 0 -1225 0
-53 -25 -54 -25 -581 0 -582 0 -53 -25 -54 -25 -1623 0 -1623 0 -54 25 c-52
24 -59 25 -290 25 -230 0 -237 1 -290 25 -49 23 -64 25 -199 25 -125 0 -153 3
-190 20 -33 15 -66 20 -136 20 -76 0 -100 4 -145 25 -31 15 -71 25 -98 25 -28
0 -64 10 -94 25 -43 22 -63 25 -147 25 -97 0 -100 1 -207 50 -74 34 -122 50
-150 50 -22 0 -64 11 -94 25 -33 16 -71 25 -102 25 -40 0 -71 12 -184 70 -114
59 -143 70 -185 70 -43 0 -79 15 -281 116 -181 90 -242 126 -281 164 -27 26
-72 59 -100 73 -27 14 -70 46 -95 72 -25 25 -67 59 -95 75 -27 16 -68 47 -90
70 -22 23 -62 53 -90 67 -66 33 -121 87 -152 148 -15 28 -70 95 -128 155 -62
63 -110 121 -120 145 -9 22 -40 65 -69 95 -48 48 -79 104 -260 466 -174 347
-206 418 -206 455 0 26 -11 66 -25 97 -15 33 -25 72 -25 100 0 29 -10 68 -25
100 -15 33 -25 72 -25 100 0 29 -10 68 -25 100 -14 30 -25 72 -25 95 0 24 -11
66 -25 95 -15 32 -25 72 -25 98 0 24 -9 66 -20 94 -17 42 -20 74 -20 193 0
130 -2 146 -25 195 -23 49 -25 66 -25 190 0 125 -2 142 -25 190 l-25 54 0 431
0 432 -25 53 c-22 48 -25 67 -25 177 0 110 3 129 25 177 l25 53 0 677 0 676
25 54 25 53 0 400 0 400 -25 53 -25 54 0 917 0 918 -25 49 -25 49 0 775 0 775
-25 53 -25 54 0 481 0 482 -25 53 -25 54 0 626 0 627 -25 53 -25 54 0 548 0
548 25 54 25 53 0 532 0 531 25 54 25 53 0 332 0 331 25 54 c25 53 25 55 25
340 0 284 0 286 25 340 l25 53 0 337 0 336 25 54 25 53 0 482 0 481 25 54 25
53 0 1112 0 1111 25 54 c24 52 25 58 25 295 0 236 1 242 25 295 21 44 25 68
25 145 0 76 4 100 25 145 21 44 25 68 25 145 0 69 5 105 20 143 11 28 20 68
20 89 0 22 11 63 25 93 15 32 25 71 25 100 0 28 10 67 25 100 16 33 25 71 25
102 0 43 18 85 162 367 153 302 165 322 239 402 50 54 97 94 136 114 32 18 76
50 98 73 22 23 62 53 88 66 27 14 75 49 107 79 45 41 102 76 230 140 145 73
177 85 220 85 40 0 68 9 145 50 75 39 105 50 143 50 29 0 67 10 100 25 33 15
72 25 100 25 29 0 68 10 100 25 45 21 69 25 145 25 77 0 101 4 145 25 50 23
66 25 200 25 125 0 154 3 191 20 39 18 66 20 280 20 230 0 237 1 289 25 l54
25 721 0 722 0 53 25 54 25 386 0 387 0 53 25 c52 24 63 25 245 25 183 0 194
1 245 25 52 24 63 25 245 25 183 0 194 1 245 25 51 24 63 25 240 25 178 0 190
1 240 25 50 23 66 25 200 25 125 0 154 3 191 20 36 17 65 20 185 20 129 0 145
2 194 25 45 21 69 25 145 25 77 0 101 4 145 25 50 23 66 25 195 25 130 0 146
2 195 25 50 23 65 25 200 25 136 0 151 2 200 25 45 21 69 25 145 25 77 0 101
4 145 25 52 24 63 25 245 25 170 0 197 3 236 20 40 19 66 20 380 20 l336 0 53
25 54 25 463 0 463 0 54 -25 53 -25 575 0 575 0 49 -25 49 -25 1231 0 1231 0
53 25 54 25 1106 0 1107 0 53 25 54 25 1401 0 1402 0 50 24 50 24 1292 1 1291
1 54 -25z m15130 -12660 c44 -21 68 -25 145 -25 76 0 100 -4 145 -25 32 -15
71 -25 100 -25 28 0 67 -10 100 -25 32 -15 71 -25 99 -25 26 0 66 -9 90 -20
24 -11 65 -20 91 -20 39 0 73 -13 192 -75 125 -65 152 -75 196 -75 63 0 101
-18 165 -81 38 -37 96 -72 240 -145 l190 -95 278 -277 c212 -211 285 -290 307
-332 15 -30 49 -75 75 -100 26 -25 57 -66 70 -91 13 -25 46 -70 73 -100 63
-69 82 -107 82 -163 0 -38 23 -91 145 -336 118 -235 145 -299 145 -333 0 -24
11 -65 25 -95 16 -34 25 -72 25 -102 0 -39 13 -74 75 -199 61 -123 75 -161 75
-199 0 -26 9 -67 20 -91 16 -33 20 -65 20 -140 0 -81 4 -104 25 -149 24 -51
25 -63 25 -240 0 -178 1 -190 25 -240 l25 -54 0 -753 0 -753 -25 -54 c-24 -51
-25 -62 -25 -245 0 -182 -1 -193 -25 -245 -21 -44 -25 -68 -25 -143 0 -76 -4
-98 -25 -139 -22 -43 -25 -63 -25 -148 l0 -98 -52 -105 -53 -105 -1021 0
-1022 0 -54 25 c-53 25 -55 25 -340 25 -284 0 -286 0 -340 25 -52 24 -58 25
-295 25 -236 0 -242 1 -295 25 -53 25 -55 25 -340 25 -284 0 -286 0 -340 25
l-53 25 -527 0 c-504 0 -530 1 -578 20 -50 20 -74 20 -1109 20 l-1059 0 -54
25 c-42 20 -69 25 -130 25 l-78 0 -55 110 -55 110 0 337 0 338 -25 53 -25 54
0 498 0 498 25 54 c24 51 25 62 25 245 0 182 1 193 25 245 21 45 25 68 25 150
0 81 4 104 25 150 21 44 25 68 25 145 0 76 4 100 25 145 15 32 25 71 25 100 0
36 11 68 50 144 40 79 50 108 50 147 0 45 21 92 206 461 181 361 212 418 259
466 30 30 63 75 73 100 11 25 41 65 67 90 31 30 63 78 97 145 48 95 59 109
231 282 127 128 197 191 236 212 34 18 94 68 151 126 55 56 116 107 144 122
27 14 72 47 100 73 30 28 92 68 151 98 67 33 115 66 145 97 36 38 88 68 262
156 188 94 224 109 267 109 41 0 74 13 200 75 127 63 160 75 201 75 40 0 68
10 145 50 l95 50 98 0 c83 0 105 4 152 26 50 23 63 25 135 20 71 -5 85 -3 130
18 l50 24 417 1 416 1 54 -25z m2220 -7850 l53 -25 337 0 336 0 54 -25 c49
-23 65 -25 195 -25 129 0 145 -2 195 -25 49 -23 65 -25 195 -25 129 0 145 -2
195 -25 44 -21 68 -25 145 -25 76 0 100 -4 145 -25 49 -23 64 -25 200 -25 135
0 150 -2 200 -25 48 -23 65 -25 190 -25 124 0 141 -2 190 -25 32 -15 71 -25
100 -25 28 0 67 -10 100 -25 32 -15 71 -25 99 -25 39 0 87 -21 315 -134 l269
-135 87 -88 c86 -87 87 -90 222 -357 113 -223 136 -277 136 -313 0 -24 11 -70
25 -103 23 -54 25 -73 25 -202 0 -131 2 -147 25 -196 l25 -54 0 -453 0 -453
-25 -54 c-24 -50 -25 -62 -25 -240 0 -177 -1 -189 -25 -240 -24 -52 -25 -59
-25 -290 0 -230 -1 -237 -25 -290 l-25 -53 0 -387 0 -386 -25 -54 -25 -53 0
-455 0 -455 25 -53 25 -54 0 -431 0 -432 25 -53 25 -54 0 -988 0 -988 -25 -54
c-24 -50 -25 -62 -25 -240 0 -177 -1 -189 -25 -240 -21 -45 -25 -68 -25 -150
0 -81 -4 -104 -25 -150 -15 -32 -25 -71 -25 -100 0 -28 -10 -67 -25 -100 -14
-29 -25 -71 -25 -95 0 -23 -11 -65 -25 -95 -15 -32 -25 -71 -25 -100 0 -35
-11 -70 -45 -139 -34 -71 -45 -104 -45 -141 0 -63 -63 -191 -129 -262 -30 -32
-74 -102 -120 -191 l-72 -140 -182 -183 c-132 -133 -197 -191 -237 -212 -30
-16 -77 -52 -105 -80 -39 -41 -76 -65 -174 -111 -89 -42 -135 -59 -165 -59
-29 0 -73 -15 -146 -50 -77 -37 -117 -50 -150 -50 -27 0 -67 -10 -98 -25 -45
-21 -69 -25 -145 -25 -77 0 -101 -4 -145 -25 -49 -23 -66 -25 -195 -25 -120 0
-149 -4 -186 -20 -40 -19 -66 -20 -380 -20 l-336 0 -53 -25 -54 -25 -1161 0
-1162 0 -53 -25 -54 -25 -1673 0 -1673 0 -54 25 -53 25 -337 0 -336 0 -54 25
c-52 24 -59 25 -290 25 -230 0 -237 1 -290 25 -50 24 -62 25 -240 25 -177 0
-189 1 -240 25 -51 24 -62 25 -245 25 -182 0 -193 1 -245 25 -49 23 -65 25
-194 25 -120 0 -149 3 -185 20 -34 15 -66 20 -141 20 -81 0 -104 4 -150 25
-29 14 -71 25 -95 25 -23 0 -65 11 -95 25 -32 15 -71 25 -100 25 -28 0 -67 10
-100 25 -32 15 -71 25 -100 25 -28 0 -67 10 -100 25 -31 14 -71 25 -97 25 -65
0 -454 193 -526 260 -27 26 -72 59 -100 73 -33 17 -98 74 -191 169 l-141 143
-112 219 c-91 180 -111 227 -111 263 0 24 -11 70 -25 103 -14 33 -25 79 -25
102 0 25 -11 66 -25 96 -21 45 -25 69 -25 145 0 77 -4 101 -25 145 l-25 54 0
743 0 743 25 54 25 53 0 365 0 365 -25 53 -25 54 0 386 c0 364 -2 390 -20 431
-19 42 -20 67 -20 720 l0 676 -25 53 -25 54 0 703 0 703 25 54 c24 52 25 59
25 290 0 230 1 237 25 290 23 49 25 65 25 195 0 129 2 145 25 195 21 44 25 68
25 145 0 76 4 100 25 145 15 32 25 71 25 100 0 35 11 70 45 139 35 72 45 104
45 142 0 44 14 77 116 276 l115 226 177 177 c123 124 193 187 232 207 30 16
75 51 100 76 66 68 378 225 448 225 38 0 71 11 151 50 73 36 114 50 144 50 24
0 66 11 95 25 33 15 72 25 100 25 29 0 68 10 100 25 33 15 72 25 100 25 26 0
67 9 91 20 33 15 65 20 135 20 76 0 100 4 144 25 50 23 66 25 195 25 130 0
146 2 195 25 52 24 63 25 245 25 183 0 194 1 245 25 53 24 60 25 290 25 231 0
238 1 290 25 52 24 63 25 245 25 183 0 194 1 245 25 54 25 56 25 345 25 269 0
295 2 336 20 40 18 66 20 330 20 284 0 286 0 339 25 53 24 60 25 290 25 231 0
238 1 290 25 53 24 60 25 290 25 231 0 238 1 290 25 l54 25 334 0 c334 0 335
0 396 25 l61 25 451 0 451 0 50 24 50 24 747 1 746 1 54 -25z"/>
<path d="M13452 42815 c-49 -23 -66 -25 -190 -25 -125 0 -142 -2 -190 -25 -34
-16 -72 -25 -102 -25 -42 0 -83 -17 -307 -129 l-258 -129 -207 -209 -206 -208
-56 -114 c-44 -90 -56 -124 -56 -162 0 -36 -11 -70 -45 -140 l-45 -93 0 -315
c0 -316 0 -316 25 -369 14 -31 25 -72 25 -97 0 -63 102 -265 165 -325 26 -25
58 -67 72 -95 17 -33 79 -103 180 -204 l154 -153 167 -84 c137 -69 175 -84
214 -84 28 0 67 -10 100 -25 32 -15 71 -25 99 -25 26 0 66 -9 90 -20 40 -18
66 -20 264 -20 214 0 222 1 273 25 30 14 73 25 95 25 23 0 62 10 87 22 25 11
72 24 105 28 92 11 337 131 412 203 32 30 81 66 108 80 32 16 87 64 155 134
l105 108 128 252 c112 222 127 257 127 301 0 32 9 69 25 104 24 52 25 57 25
318 0 261 -1 266 -25 318 -16 34 -25 72 -25 102 0 40 -15 77 -106 256 l-106
209 -152 153 -151 154 -268 134 -268 134 -133 0 c-112 0 -138 3 -171 20 -51
26 -69 25 -133 -5z"/>
<path d="M7112 42770 c-43 -20 -79 -30 -111 -30 -36 0 -70 -11 -140 -45 -64
-31 -105 -45 -134 -45 -29 0 -76 -17 -161 -56 -96 -44 -134 -68 -181 -114 -33
-32 -78 -67 -100 -78 -22 -11 -88 -69 -146 -129 -85 -86 -116 -126 -154 -198
-26 -49 -67 -110 -91 -135 -49 -51 -74 -103 -74 -154 0 -21 -19 -74 -50 -137
-39 -79 -50 -113 -50 -150 0 -26 -9 -66 -20 -90 -18 -40 -20 -66 -20 -264 0
-214 1 -222 25 -273 15 -32 25 -72 25 -97 0 -36 23 -90 126 -297 l125 -253
112 -113 c62 -63 132 -124 157 -137 25 -13 65 -44 90 -70 63 -66 262 -165 330
-165 30 0 68 -9 102 -25 29 -14 71 -25 95 -25 23 0 65 -11 95 -25 52 -24 57
-25 318 -25 261 0 266 1 318 25 34 16 72 25 101 25 41 0 83 18 307 131 209
106 270 142 314 184 30 28 76 64 103 79 32 18 54 40 68 69 12 23 67 89 121
147 92 97 106 117 184 268 71 139 84 171 84 212 0 30 9 68 25 102 14 30 25 71
25 96 0 23 11 69 25 102 23 55 25 71 25 217 0 147 -2 162 -25 211 -14 31 -25
72 -25 96 0 34 -26 95 -134 311 -112 225 -142 278 -181 315 -26 25 -56 63 -67
85 -28 54 -46 74 -93 97 -22 11 -65 45 -96 74 -75 71 -358 214 -423 214 -24 0
-70 11 -104 25 -34 14 -79 25 -101 25 -21 0 -63 11 -93 25 -51 24 -61 25 -258
25 l-205 0 -63 -30z"/>
<path d="M23102 31565 c-31 -14 -72 -25 -96 -25 -56 0 -170 -56 -221 -109 -22
-23 -67 -57 -100 -76 -36 -20 -101 -75 -163 -137 l-102 -104 -275 -549 c-243
-485 -275 -555 -275 -597 0 -39 -18 -83 -116 -284 -96 -195 -118 -247 -124
-298 -5 -51 -27 -101 -128 -304 -105 -210 -122 -250 -122 -292 0 -41 -17 -82
-120 -290 -98 -198 -120 -250 -120 -286 0 -35 -22 -87 -120 -284 -104 -210
-120 -248 -120 -290 0 -42 -14 -77 -95 -241 -80 -160 -95 -198 -95 -238 0 -41
-20 -87 -147 -342 -124 -250 -147 -303 -152 -354 -5 -49 -23 -94 -95 -238 -72
-144 -90 -189 -96 -240 -5 -50 -24 -96 -98 -245 -79 -158 -92 -191 -92 -234 0
-44 -15 -79 -125 -297 -112 -222 -125 -252 -125 -299 0 -46 -11 -74 -95 -239
-81 -159 -95 -193 -95 -234 0 -41 -15 -78 -95 -240 -81 -162 -95 -198 -95
-239 0 -41 -13 -75 -75 -201 -63 -126 -75 -159 -75 -200 0 -43 -13 -74 -91
-227 -76 -148 -92 -189 -99 -243 -6 -52 -24 -99 -100 -254 -73 -149 -94 -203
-100 -250 -4 -40 -21 -89 -48 -144 -32 -64 -42 -97 -42 -133 0 -41 -14 -76
-96 -237 -81 -158 -98 -199 -104 -252 -5 -50 -21 -93 -73 -198 -55 -109 -67
-142 -67 -182 0 -40 -13 -74 -75 -200 -63 -127 -75 -159 -75 -201 0 -43 -11
-71 -75 -195 -65 -125 -75 -151 -75 -196 0 -44 -10 -72 -70 -191 -57 -115 -70
-148 -70 -187 0 -40 -13 -75 -75 -200 -62 -125 -75 -160 -75 -200 0 -39 -12
-73 -70 -190 -57 -116 -70 -150 -70 -190 0 -37 -11 -70 -50 -150 -36 -74 -50
-114 -50 -145 0 -33 -16 -76 -70 -185 -57 -116 -70 -150 -70 -190 0 -37 -11
-70 -50 -150 -39 -79 -50 -113 -50 -150 0 -37 -11 -71 -50 -150 -36 -74 -50
-114 -50 -145 0 -24 -11 -65 -25 -96 -15 -32 -25 -71 -25 -100 0 -35 -11 -70
-45 -139 -44 -90 -45 -95 -45 -190 0 -82 -4 -105 -25 -151 -23 -50 -25 -63
-25 -218 0 -155 2 -168 25 -218 15 -33 25 -72 25 -100 0 -85 42 -152 181 -287
111 -108 134 -125 217 -164 61 -29 114 -46 155 -51 34 -4 82 -17 107 -28 58
-28 83 -27 148 3 46 21 69 25 148 25 l94 0 107 56 c101 52 118 66 266 212 147
145 162 164 207 252 31 62 65 111 95 140 61 58 115 167 115 230 0 40 24 94
166 381 141 281 168 343 174 394 5 48 26 98 103 253 81 161 97 202 97 240 0
38 16 79 92 231 73 149 92 197 98 246 5 49 25 97 103 255 81 163 97 204 97
242 0 38 14 75 70 189 58 116 70 150 70 190 0 41 15 78 100 249 85 172 100
209 100 250 0 37 11 70 45 141 34 70 45 104 45 140 0 41 15 79 100 249 80 162
100 210 100 245 0 31 13 70 45 136 34 70 45 104 45 140 0 40 13 75 75 200 62
125 75 160 75 200 0 41 14 77 95 240 76 153 95 199 95 234 0 34 16 76 71 188
56 114 73 158 79 208 5 50 21 93 73 198 55 109 67 142 67 182 0 41 15 78 100
249 85 171 100 209 100 250 0 40 12 71 70 184 59 114 70 143 70 185 0 43 14
78 100 252 85 172 100 209 100 250 0 42 16 81 120 289 104 210 120 248 120
291 0 41 12 72 75 195 64 124 75 154 75 196 0 44 15 80 116 286 95 191 118
246 124 296 6 50 28 102 120 286 98 194 114 234 120 290 5 55 21 94 98 248 75
149 92 192 92 228 0 37 18 81 96 237 80 161 97 203 103 257 6 56 25 99 124
298 101 201 117 240 117 282 0 41 17 82 120 290 102 205 120 249 120 289 0 39
16 79 100 246 85 169 100 206 100 247 0 38 13 73 70 189 57 116 70 150 70 190
0 40 13 74 75 200 62 125 75 160 75 199 0 30 9 68 25 102 14 29 25 71 25 95 0
23 11 65 25 95 24 51 25 60 25 261 l0 209 -111 216 c-135 267 -163 298 -342
391 -97 50 -126 61 -166 61 -27 0 -68 9 -92 20 -34 15 -66 20 -144 20 -86 0
-108 -4 -153 -25z"/>
<path d="M15306 29120 c-77 -40 -105 -50 -144 -50 -69 0 -268 -98 -332 -164
-29 -31 -76 -61 -138 -92 -59 -28 -115 -65 -152 -99 -32 -30 -80 -65 -107 -79
-26 -13 -68 -45 -93 -71 -25 -26 -70 -59 -100 -75 -30 -16 -75 -49 -100 -75
-25 -26 -67 -57 -95 -70 -27 -12 -70 -44 -95 -70 -25 -25 -63 -56 -85 -67 -22
-11 -87 -66 -145 -123 -60 -58 -127 -113 -155 -128 -27 -14 -68 -44 -90 -67
-22 -22 -67 -56 -100 -75 -35 -20 -98 -72 -150 -125 -56 -57 -111 -102 -145
-120 -30 -16 -75 -49 -100 -75 -25 -26 -67 -58 -95 -72 -28 -14 -95 -69 -150
-123 -56 -55 -122 -109 -150 -123 -27 -14 -70 -46 -95 -72 -25 -26 -65 -57
-90 -70 -25 -13 -85 -65 -135 -115 -56 -57 -111 -102 -145 -120 -35 -18 -90
-64 -150 -125 -63 -65 -112 -104 -145 -120 -27 -12 -70 -44 -95 -70 -25 -26
-70 -59 -100 -75 -35 -18 -90 -64 -150 -125 -60 -61 -115 -107 -150 -125 -34
-18 -89 -63 -145 -120 -53 -54 -110 -102 -140 -117 -28 -14 -94 -68 -150 -122
-55 -54 -122 -111 -150 -126 -32 -18 -157 -135 -343 -319 -224 -222 -300 -304
-322 -346 -15 -30 -49 -75 -75 -100 -26 -25 -58 -67 -72 -95 -14 -27 -47 -72
-73 -100 -37 -39 -77 -107 -176 -304 l-129 -254 -6 -111 c-4 -85 -10 -121 -27
-156 -18 -38 -22 -63 -22 -155 0 -96 3 -117 25 -163 21 -45 25 -69 25 -147 l0
-93 80 -161 c59 -120 93 -175 134 -220 30 -33 66 -81 80 -108 31 -61 225 -253
286 -283 25 -13 90 -67 145 -120 55 -54 120 -108 144 -120 25 -12 67 -44 95
-70 28 -26 74 -60 101 -75 28 -16 73 -49 100 -76 28 -26 68 -56 90 -67 22 -11
63 -44 90 -72 28 -29 73 -63 100 -75 28 -13 70 -44 95 -70 25 -26 70 -59 100
-75 34 -18 89 -63 145 -120 56 -57 111 -102 145 -120 30 -16 75 -49 100 -75
25 -26 67 -58 94 -72 27 -14 72 -46 100 -73 28 -26 74 -60 101 -75 28 -16 73
-49 100 -75 28 -27 66 -56 85 -65 19 -10 82 -63 140 -120 60 -58 127 -113 155
-128 28 -14 68 -44 90 -67 22 -23 67 -57 100 -75 33 -19 78 -53 100 -75 22
-23 65 -54 95 -70 30 -16 75 -49 100 -75 25 -26 70 -59 100 -75 30 -16 73 -47
95 -70 22 -23 67 -57 100 -75 33 -19 78 -53 100 -75 22 -23 62 -53 89 -67 28
-14 75 -49 105 -78 31 -29 74 -62 96 -73 22 -11 60 -41 85 -67 25 -26 70 -59
100 -75 30 -16 75 -49 100 -75 31 -32 75 -61 145 -94 74 -36 113 -62 150 -100
36 -37 76 -64 141 -95 61 -29 112 -63 154 -101 76 -70 167 -115 232 -115 38 0
74 -13 189 -70 l141 -70 122 0 c108 0 127 3 174 25 31 14 72 25 97 25 65 0
250 95 327 168 53 50 71 78 144 225 70 141 84 177 84 217 0 30 9 68 25 102 18
38 25 70 25 113 0 43 -7 75 -25 113 -15 32 -25 72 -25 97 0 67 -200 463 -265
525 -26 25 -57 68 -70 95 -12 28 -44 70 -70 95 -26 25 -58 68 -72 95 -34 69
-607 645 -676 681 -27 14 -75 49 -107 79 -32 30 -80 65 -107 79 -26 13 -66 43
-88 66 -22 23 -62 53 -89 67 -28 14 -75 49 -105 78 -31 29 -78 64 -106 78 -27
14 -70 46 -95 72 -25 26 -65 57 -90 70 -25 13 -65 44 -90 70 -25 26 -70 59
-100 75 -30 16 -73 47 -95 70 -24 26 -78 61 -138 91 -59 30 -121 71 -157 104
-32 30 -80 65 -107 79 -26 13 -66 43 -88 66 -22 23 -58 51 -80 62 -22 11 -67
46 -100 79 -33 32 -80 67 -105 78 -25 11 -65 41 -90 66 -25 26 -70 59 -100 75
-30 16 -75 49 -100 75 -25 26 -67 58 -95 72 -27 14 -75 49 -105 78 -31 29 -76
62 -100 75 -55 27 -390 356 -390 383 0 36 31 74 175 217 102 101 155 162 175
200 36 69 186 219 255 253 36 18 117 93 285 262 175 176 250 244 293 267 41
22 97 72 195 173 86 90 154 151 182 165 25 13 92 67 150 120 58 54 121 105
140 115 19 9 105 86 190 170 100 98 173 162 205 178 30 15 88 65 145 122 60
61 115 107 150 125 33 17 88 62 140 115 48 48 107 98 134 112 28 14 75 49 105
78 31 29 79 64 106 78 28 14 70 46 95 72 25 26 70 60 101 75 39 20 81 56 138
118 55 60 100 100 139 120 34 19 93 67 147 122 53 54 111 102 140 117 68 34
357 320 392 387 14 28 49 75 78 105 69 73 165 263 165 327 0 24 9 66 20 94 17
44 20 74 20 220 l0 169 -81 158 c-78 151 -86 163 -188 267 -118 121 -208 176
-286 176 -23 0 -69 11 -103 25 -55 22 -76 25 -196 25 l-135 0 -95 -50z"/>
<path d="M26172 28950 c-39 -18 -80 -30 -105 -30 -27 0 -75 -16 -151 -51 -104
-48 -118 -58 -224 -162 l-114 -112 -84 -168 -84 -169 0 -210 0 -210 131 -256
131 -256 205 -211 c140 -144 219 -217 251 -234 26 -13 92 -67 147 -121 55 -54
122 -109 150 -123 30 -15 89 -65 145 -122 60 -61 115 -107 150 -125 30 -15 73
-47 95 -70 22 -23 65 -55 95 -70 34 -18 89 -63 145 -120 52 -53 115 -106 150
-125 40 -23 108 -82 200 -175 96 -97 157 -150 195 -170 38 -20 97 -71 190
-165 88 -89 152 -145 185 -162 34 -17 116 -91 255 -228 113 -111 223 -212 245
-223 23 -11 120 -102 225 -209 182 -185 186 -190 248 -309 34 -67 62 -131 62
-143 0 -13 -31 -82 -70 -154 -61 -117 -79 -142 -160 -222 -56 -55 -103 -111
-120 -145 -21 -40 -81 -107 -220 -245 -122 -121 -200 -207 -215 -236 -17 -32
-34 -50 -57 -60 -49 -19 -156 -127 -185 -184 -37 -75 -657 -696 -733 -735 -61
-31 -178 -147 -199 -197 -7 -18 -29 -39 -54 -53 -25 -14 -353 -333 -825 -804
l-784 -781 -109 -218 -109 -219 0 -257 0 -257 34 -69 c26 -53 55 -91 122 -157
81 -78 104 -94 246 -167 l157 -81 173 0 c163 0 176 2 226 25 32 15 72 25 99
25 65 0 436 189 508 259 28 27 69 59 93 71 24 11 70 45 102 75 32 30 80 65
107 79 26 13 68 45 93 71 30 31 79 64 144 97 57 29 120 70 150 98 28 26 69 57
91 68 22 11 83 64 135 117 56 57 115 107 145 122 28 14 75 49 105 78 31 29 76
63 100 75 25 12 90 66 145 120 56 54 122 109 150 123 28 14 68 44 90 67 22 23
63 53 90 67 32 16 105 79 205 178 104 103 172 161 206 178 35 18 78 56 133
116 62 67 99 98 150 125 54 28 97 65 204 175 87 90 150 146 174 156 25 10 110
87 243 219 132 132 221 212 250 226 26 13 105 81 186 160 77 75 165 151 195
168 74 42 548 519 579 582 12 25 46 70 75 100 44 46 77 104 200 347 134 264
149 298 155 360 4 37 16 88 28 113 20 42 22 60 22 310 0 262 -1 266 -25 318
-14 31 -25 72 -25 96 0 31 -14 71 -50 145 -36 73 -50 114 -50 144 0 60 -56
171 -115 227 -26 25 -58 68 -72 95 -36 71 -697 736 -768 772 -34 17 -114 88
-250 223 -136 134 -216 206 -250 223 -33 17 -98 74 -190 167 -101 103 -154
149 -190 165 -33 16 -82 56 -145 120 -60 61 -115 107 -150 125 -38 20 -98 72
-195 170 -77 78 -158 151 -180 162 -22 11 -87 67 -145 124 -65 64 -122 111
-150 123 -32 14 -98 74 -230 206 -134 135 -200 194 -240 215 -35 18 -90 64
-150 125 -60 61 -115 107 -150 125 -34 18 -89 63 -145 120 -56 57 -111 102
-145 120 -30 16 -77 52 -105 80 -27 28 -72 63 -100 77 -27 14 -75 49 -105 77
-43 41 -99 74 -255 151 l-200 100 -110 5 c-84 5 -121 11 -155 28 -34 16 -64
22 -125 22 -68 0 -89 -4 -143 -30z"/>
<path d="M40272 13235 c-31 -14 -72 -25 -97 -25 -33 0 -77 -17 -194 -75 -101
-50 -164 -75 -187 -75 -49 0 -93 -21 -134 -65 -20 -21 -77 -58 -135 -87 -97
-48 -107 -57 -308 -256 -199 -197 -211 -211 -257 -302 -31 -62 -65 -111 -95
-140 -61 -58 -115 -167 -115 -232 0 -36 -12 -70 -50 -149 -37 -75 -50 -114
-50 -146 0 -24 -11 -70 -25 -103 -25 -59 -25 -62 -25 -362 0 -302 0 -303 25
-356 14 -30 25 -72 25 -95 0 -24 11 -66 25 -95 16 -34 25 -72 25 -101 0 -70
148 -367 215 -431 26 -25 58 -67 72 -95 34 -67 213 -249 278 -282 56 -28 129
-94 151 -135 10 -20 14 -69 14 -195 0 -159 -1 -171 -25 -217 l-25 -49 0 -343
0 -342 -25 -54 -25 -53 0 -600 0 -600 25 -53 c14 -30 25 -72 25 -95 0 -24 11
-66 25 -95 14 -31 25 -72 25 -96 0 -57 56 -170 110 -221 23 -22 54 -65 70 -95
16 -30 57 -83 92 -117 55 -54 89 -75 276 -167 172 -85 222 -106 257 -106 25 0
65 -10 97 -25 51 -24 60 -25 263 -25 203 0 212 1 263 25 32 15 72 25 99 25 65
0 357 151 430 222 28 28 73 63 100 77 37 20 55 39 81 86 18 33 55 83 82 110
61 62 160 258 160 315 0 21 11 62 25 92 21 44 25 68 25 145 0 69 5 105 20 143
16 41 20 74 20 168 0 104 -3 123 -25 170 -21 45 -25 69 -25 145 0 77 -4 101
-25 145 -21 45 -25 69 -25 145 0 77 -4 101 -25 145 -24 52 -25 63 -25 245 0
170 -3 197 -20 236 -19 41 -20 66 -20 450 l0 406 133 132 c72 72 150 140 172
151 47 23 65 42 93 97 11 22 64 83 117 135 l96 95 101 203 c83 166 102 214
108 265 5 44 20 90 53 156 l47 95 0 140 c0 127 3 147 25 201 21 51 25 76 25
170 0 96 -3 117 -25 163 -21 45 -25 69 -25 145 0 77 -4 101 -25 145 -16 34
-25 72 -25 102 0 42 -16 80 -109 267 -88 176 -118 227 -156 263 -26 25 -59 70
-75 100 -34 67 -214 247 -280 280 -24 12 -69 46 -100 75 -73 70 -262 165 -327
165 -31 0 -69 12 -130 42 -62 29 -105 43 -152 48 -36 4 -86 16 -111 28 -44 21
-58 22 -430 22 l-385 0 -53 -25z"/>
</g></g></svg>