<svg xmlns="http://www.w3.org/2000/svg" width="1000" height="1000" viewBox="0 0 1000 1000"><g fill="#141413"><path d="m302.2 49.5-1 .5H280l-1 .5c-1.1.5-1.2.5-6.9.5s-5.7 0-6.8.5-1.1.5-5.9.5c-4.7 0-4.8 0-5.9.5-1 .5-1.2.5-4.9.5-3.6 0-3.8 0-4.9.5-1 .5-1.3.5-3.9.5s-2.9 0-3.9.5-1.3.5-3.9.5c-2.4 0-3 0-3.7.4-.7.3-1.3.4-3.7.4-2.6 0-2.9 0-3.9.5s-1.2.5-4.9.5c-3.6 0-3.8 0-4.9.5-1 .5-1 .5-6.8.5s-5.7 0-6.8.5l-1 .5h-64.1l-1 .5c-1.1.5-1.3.5-5.9.5s-4.7 0-5.8.5-1.2.5-4.8.5-3.8 0-4.8.5-1.3.5-3.8.5c-2.3 0-3 0-3.8.4-1 .3-1.6.4-3.9.4-2.6 0-2.9 0-3.9.5s-1.3.5-2.9.5-2 0-2.9.5q-1 .5-1.9.5t-2 .5c-1 .4-1.5.5-3 .5s-2 0-2.9.5q-1 .5-2 .5l-1.8.4-2.1.6q-1.4.1-3 1t-2.6.8q-.8 0-2.7 1t-3.1 1a51 51 0 0 0-11 5A75 75 0 0 0 28 91.5c-1.3.7-5.2 4.5-5.8 5.8-.3.5-1 1.5-1.6 2.1s-1.3 1.6-1.6 2.1q-.4 1-1.3 1.8t-1.3 1.8A58 58 0 0 0 9 118a45 45 0 0 0-6.5 16.7q-.5 1.1-.5 2 0 1-.5 2-.5 1.1-.5 2 0 1-.5 2.1L0 144v24.5l.1 24.4.6 1.2.5 1.1V229l-.5 1-.5 1.1v39.6l.5 1c.5 1.1.5 1.3.5 5 0 3.4 0 3.9.4 4.7.3.7.4 1.3.4 3.7 0 2.6 0 2.9.5 3.9s.5 1.3.5 3.9 0 2.9.5 3.9.5 1.2.5 4.9c0 3.6 0 3.8.5 4.9.5 1 .5 1.2.5 4.9 0 3.6 0 3.8.5 4.9.5 1 .5 1.2.5 4.9 0 3.6 0 3.8.5 4.9.5 1 .5 1.2.5 4.9 0 3.4 0 3.9.4 4.7s.4 1.3.4 5.6c0 4.6 0 4.7.5 5.8s.5 1.2.5 4.9c0 3.6 0 3.8.5 4.9.5 1 .5 1.2.5 4.8s0 3.8.5 4.8.5 1.1.5 5.9c0 4.7 0 4.8.5 5.9.5 1 .5 1.1.5 5.9 0 4.7 0 4.8.5 5.9.5 1 .5 1.2.5 5.8s0 4.7.5 5.8.5 1 .5 6.8c0 5.2 0 5.8.4 6.6s.4 1.3.4 11.5v10.6l.5 1 .5 1.1v38l-.5 1-.5 1.1v32.7l-.5 1-.5 1.1V584l-.5 1-.5 1.1v13.5l-.5 1c-.5 1-.5 1.2-.5 6 0 4.3 0 4.8-.4 5.6s-.4 1.4-.4 5.6c0 4.6 0 4.8-.5 5.8s-.5 1.3-.5 4c0 2.5 0 2.8-.5 3.8s-.5 1.3-.5 4.9 0 3.9-.5 5c-.4 1-.5 1.5-.5 4 0 2.6 0 3-.5 4s-.5 1.2-.5 4.7c0 3.6 0 3.8-.5 4.8s-.5 1.3-.5 5c0 3.6 0 3.8-.5 4.8s-.5 1.2-.5 5.8c0 4.3 0 4.8-.4 5.6-.4.9-.4 1.4-.4 21.8v20.9l.5 1c.5 1 .5 1.4.5 4s0 2.9.5 3.9.5 1.3.5 2.9 0 2 .5 2.9.5 1.3.5 2.8q0 1.8.4 2.8t.4 1.9.5 1.9.5 2c0 .8.2 1.4 1 2.9s1 2.1 1 2.8q0 .9.5 2.1t.5 2c0 .9.7 2.5 5.5 12a78 78 0 0 0 10.2 17.6l1.4 2a48 48 0 0 0 7.6 8.1A73 73 0 0 0 49 809a54 54 0 0 0 13 7.5c7.7 3.9 8.7 4.4 9.9 4.5q1.3.1 3.2 1 2 1.1 2.8 1c.8 0 1.4.2 3 1q2.1 1 3 1t1.8.5 2 .5q1 0 2 .5 1.1.5 2 .5t1.8.4c.7.3 1.3.4 2.8.4 1.7 0 2.1 0 3 .5 1 .4 1.4.5 3 .5 1.5 0 2 0 2.8.5 1 .5 1.3.5 3.9.5s3 0 4 .5c1.1.5 1.4.5 5 .5 3.5 0 3.7 0 4.7.5 1.1.5 1.1.5 6.8.5s5.8 0 6.8.5l1.1.5h53l1-.5 1-.5h13.4l1-.5c1.1-.5 1.3-.5 5.9-.5s4.7 0 5.8-.5 1.2-.5 4.9-.5c3.6 0 3.8 0 4.9-.5.9-.4 1.3-.5 2.9-.5s2 0 2.9-.5c1-.5 1.3-.5 3.9-.5s2.9 0 3.9-.5 1.3-.5 3.9-.5 2.9 0 3.9-.5 1.3-.5 3-.5 2 0 3-.5 1.3-.5 3.9-.5c2.4 0 3 0 3.7-.4.7-.3 1.3-.4 3.7-.4 2.6 0 2.9 0 3.9-.5s1.2-.5 5.8-.5 4.7 0 5.8-.5 1.2-.5 4.9-.5c3.6 0 3.8 0 4.9-.5 1-.5 1.3-.5 3.9-.5s2.9 0 3.9-.5 1.1-.5 5.9-.5c4.7 0 4.8 0 5.9-.5 1-.5 1.2-.5 5.8-.5s4.7 0 5.8-.5l1-.5h8.8c8.2 0 8.7 0 9.6-.4.8-.4 1.3-.4 19.2-.4h18.3l1-.5c1.1-.5 1.2-.5 6.5-.5s5.4 0 6.4.5l1.1.5h27.1l1 .5 1.1.5H440l1 .5 1.1.5h13.5l1 .5c1.1.5 1.1.5 6.8.5 5.3 0 5.8 0 6.6.4s1.4.4 6.6.4c5.7 0 5.8 0 6.8.5l1.1.5h15.3l1 .5 1.1.5h19.2l1.2.5 1.2.5h63.9l1 .5c1 .5 1.3.5 4.8.5 3.6 0 3.8 0 4.8.5s1.4.5 3 .5c1.5 0 2 0 2.8.5q1.1.5 2 .5t1.8.4 1.9.4c.7 0 1.4.3 3.7 1.4 2.5 1.2 2.8 1.5 4.3 3q3 3.1 3.1 5.5 0 1 .5 2l.5 1.1v40.7l.5 1c.5 1 .5 1.3.5 4.9 0 3.5 0 3.8.5 4.8q.5 1 .5 2 0 .8.5 2 .5 1 .5 2 0 .8.5 2 .5 1 .5 1.9l.4 1.7q.5 1 .6 2.3c.1 1.1.4 1.8 1.5 4 1 2 1.3 2.8 1.3 3.5 0 1.4 2 5.4 3.3 6.6q1 .9 2 3c1 1.8 1.3 2.3 2.9 3.9q1.8 1.8 2.4 2.9a10 10 0 0 0 3.7 3.7q1 .5 1.9 1.4 1 .9 2 1.5t2 1.5c.8.8 2 1.5 8 4.5 6.4 3.2 7.3 3.6 8.2 3.6s1.4.2 3 1q2.1 1 3 1t1.8.5c1 .4 1.4.5 3 .5q2-.1 2.8.4.9.4 1.8.4t2 .5c1 .5 1.3.5 4 .5 2.5 0 2.8 0 3.8.5l1.1.5h31.8l1-.5 1.1-.5h15.5l1-.5c1.1-.5 1.2-.5 6.9-.5s5.7 0 6.7-.5 1-.5 5.7-.5c4.6 0 4.7 0 5.8-.5l1-.5h13.5l1-.5c1.1-.5 1.2-.5 7-.5 5.3 0 5.9 0 6.7-.4s1.3-.4 21.8-.4h21l1 .5 1.1.5H859l1 .5 1.1.5h17.3l1 .5 1.1.5h47l1-.5c1-.5 1.4-.5 4-.5s2.9 0 3.9-.5 1.3-.5 2.9-.5 2 0 2.9-.5q1-.5 2-.5.8 0 2-.5 1-.5 1.9-.5t1.9-.5 2-.5q.9 0 2-.5 1-.5 2-.5c.7 0 1.9-.5 8.1-3.6a38 38 0 0 0 10-6c.8-.4 2.5-2 6.5-6.1 5.1-5.2 5.6-5.7 6.5-7.4.5-1 1.4-2.3 1.9-2.8.7-.7 1.5-2 3-5.2 1.9-3.5 2.2-4.4 2.2-5.1q-.1-.9 1-2.9.9-2 1-3.1.1-1.3 1-3.2c1-1.8 1-2 1-3.6q0-1.8.4-2.8l.4-1.8q0-.7.5-1.8l.5-1.1v-63l-.5-1c-.5-1-.5-1.4-.5-4s0-2.9-.5-3.9-.5-1.2-.5-4.9c0-3.6 0-3.8-.5-4.9l-.5-1v-17.3l-.5-1-.5-1.1v-26.2c0-25.6 0-26.1-.4-27-.3-.7-.4-1.3-.4-3.7 0-2.6 0-2.9-.5-3.9s-.5-1.3-.5-3 0-2-.5-3-.5-1.3-.5-2.9c0-1.8 0-1.9-1-3.9-.8-1.6-1-2.2-1-3s-.3-1.4-1.4-3.7c-1.2-2.3-1.4-3-1.4-3.8q-.1-2.3-2.3-4.7c-.8-.8-1.4-1.8-2.5-4q-1.4-3-2.5-4l-1.6-2c-.3-.7-2.8-3.3-6.5-7a47 47 0 0 0-9-7.9 38 38 0 0 0-8.8-4.8c-7-3.5-8-4-9.2-4-1.4-.2-1.9-.4-2.5-1-.3-.4-.3-.5 0-1.2.3-.8.3-.9-.2-2l-.5-1.1v-20.6l.5-1 .5-1.1v-29.6l-.5-1c-.5-1-.5-1.4-.5-4s0-2.9-.5-3.9c-.4-.8-.5-1.3-.5-2.8s-.1-1.9-.5-2.8-.5-1.3-.5-3c0-1.5 0-2-.5-3q-.5-1.2-.5-2 0-1-.5-2a5 5 0 0 1-.5-2c0-.8-.2-1.4-1.3-3.6-1-2.1-1.4-3-1.5-4-.1-1.1-.7-2.4-5.6-12a70 70 0 0 0-8.4-14.9 11 11 0 0 0-1.9-2.9l-1.5-2q-.6-1-1.5-2l-1.4-1.9c-.3-.6-1.4-1.9-2.5-3l-2.2-2.4-.2-3c0-2.2 0-2.6.5-3.5l.5-1.1v-16l-.5-1c-.5-1-.5-1.3-.5-4.6s0-3.5.5-4.5l.5-1.1v-23.1l.5-1 .5-1.1V454l.5-1c.5-1 .5-1.2.5-5.8s0-4.8.5-5.8.5-1.3.5-4c0-2.3 0-3 .4-3.8.3-.8.4-1.5.4-3.8 0-2.5 0-2.9.5-3.8.5-1 .5-1.3.5-4 0-2.5 0-2.8.5-3.8s.5-1.3.5-4c0-2.5 0-2.8.5-3.8s.5-1.2.5-6 0-4.8.5-5.8l.5-1.1v-17.3l.5-1c.5-1 .5-1.2.5-5.8 0-4.3 0-4.8.4-5.6s.4-1.4.4-6.7c0-5.8 0-5.9.5-7l.5-1v-15.3l.5-1 .5-1.1v-18.4l-.5-1-.5-1.1v-26.9l-.5-1-.5-1.1v-47.4l.5-1 .5-1.1v-74.6l-.5-1c-.5-1-.5-1.4-.5-4s0-2.9-.5-3.9-.5-1.3-.5-3.9 0-2.9-.5-3.9q-.5-1-.5-1.9c0-.4-.2-1.3-.5-1.9-.4-.9-.5-1.3-.5-3 0-1.5-.1-2.1-.4-2.8q-.4-.9-.4-1.8c0-.8-.2-1.3-1-2.7A52 52 0 0 0 910 116a69 69 0 0 0-7.8-13.8 129 129 0 0 0-15.6-15.1q-1.2-1-3.1-2-2-1.1-2.8-1.9c-.6-.7-2-1.4-6-3.4-4.4-2.2-5.3-2.6-6-2.6s-1.5-.2-3.8-1.4-3-1.5-4.1-1.6q-1.3-.1-3.2-1-2-1.1-2.8-1-.9 0-1.8-.4c-.7-.3-1.3-.4-2.8-.4-1.7 0-2.1 0-3-.5s-1.4-.5-2.8-.5c-1.5 0-2 0-2.8-.5-1-.5-1.3-.5-4-.5-2.5 0-2.8 0-3.8-.5l-1.1-.5h-45.4l-1 .5-1.1.5h-102l-1-.5-1.1-.5h-19.2l-1-.5-1-.5h-17.5l-1-.5-1.1-.5h-32.9l-1-.5-1.1-.5h-12.4c-12 0-12.5 0-13.5-.4s-1.5-.4-10.6-.4h-9.6l-1-.5-1.1-.5h-13.3l-1-.5c-1.1-.5-1.1-.5-7-.5-5.7 0-5.8 0-6.8-.5s-1.2-.5-5.8-.5-4.8 0-5.8-.5c-1.1-.5-1.1-.5-6.8-.5s-5.8 0-6.8-.5-1.2-.5-5.8-.5c-4.3 0-4.9 0-5.8-.4-1-.4-1.5-.4-5.8-.4-4.7 0-4.8 0-5.8-.5s-1.2-.5-5.8-.5-4.8 0-5.8-.5-1.2-.5-5.8-.5-4.8 0-5.8-.5-1.2-.5-6-.5-4.8 0-5.8-.5-1.2-.5-6-.5-4.8 0-5.8-.5-1.2-.5-5.8-.5-4.7 0-5.7-.5-1-.5-5.8-.5c-4.4 0-5 0-5.7-.4s-1.4-.4-5.7-.4c-4.8 0-4.9 0-6-.5l-1-.5h-17.3l-1-.5-1.1-.5h-42.4l-1.3-.5-1.2-.5h-30.5zm350.2 40.8 1.1.5h56.8l1-.5 1.1-.5h43.8l1 .5 1.1.5h19.3l1 .5c1.1.5 1.2.5 6.7.5s5.7 0 6.7.5 1.2.5 6 .5 4.8 0 5.8.5 1.3.5 3.8.5 2.9 0 3.8.5c1 .5 1.3.5 4 .5 2.5 0 3 0 3.8.4l1.8.4q1 0 2 .5c1 .4 1.4.5 3 .5 1.5 0 2 0 2.8.5q1 .5 2 .5.8 0 2 .5t2 .5c.7 0 1.5.3 3.5 1.3 2.1 1 2.9 1.4 3.9 1.5 1.8.2 8 3.3 9.4 4.7.7.7 1.6 1.3 3.7 2.3l2.8 1.4 4.7 4.7 4.7 4.6 2.8 5.5c2.3 4.7 2.7 5.6 2.7 6.4q0 .9.5 2 .5 1 .5 2t.5 2c.4.9.5 1.3.5 2.8q0 1.8.4 2.8t.4 2.8c0 1.5 0 2 .5 3l.5 1.1v45.7l-.1 45.7h-2.6c-2.4.1-2.7 0-3.7-.4-1.1-.5-1.3-.5-5.9-.5-4.5 0-4.7 0-5.7-.5l-1.1-.5h-13.5l-1-.5-1.1-.5h-15.3l-1-.5-1.1-.5h-15.4c-15 0-15.5 0-16.5-.4s-1.5-.4-26-.4h-25.2l-1-.5-1.1-.5h-84.4l-1 .5-1.1.5h-50.1l-1 .5-1.1.5h-21.3l-1 .5-1.1.5H564l-1 .5-1.1.5h-7.8c-7.2 0-7.8 0-8.6.4s-1.3.4-4.7.4c-3.6 0-3.8 0-4.9.5-1 .5-1.2.5-4.9.5-3.6 0-3.8 0-4.9.5-1 .5-1.2.5-5.7.5s-4.7 0-5.9.5-1.2.5-8 .5H500l-1 .5-1.1.5h-23.1l-1 .5-1.1.5h-29.8l-1-.5-1.1-.5h-17.2l-1-.5c-1-.5-1-.5-5.8-.5s-4.9 0-6-.5-1-.5-6.7-.5-5.8 0-6.8-.5c-1.1-.5-1.1-.5-6.8-.5s-5.7 0-6.7-.5l-1-.5h-17.5l-1-.5-1.1-.5H336l-1-.5-1.1-.5h-49l-1 .5-1.1.5h-32.9l-1 .5-1.1.5H213l-1 .5-1.1.5h-18.6l-1-.5-1.1-.5h-34.7l-1-.5-1.1-.5h-78l-1 .5c-1 .5-1.4.5-4 .5s-2.9 0-3.9.5-1.3.5-3 .5-2 0-3 .5q-1 .5-1.9.5-.7 0-2.8 1-2 .8-3.2 1a55 55 0 0 0-15.3 8.4l-.6.5v-4.6c0-4.5 0-4.7.5-5.7l.5-1.1v-21.1l.5-1c.5-1 .5-1.3.5-5 0-3.6 0-3.8.5-4.8s.5-1.3.5-4c0-2.5 0-2.8.5-3.8s.5-1.4.5-3 0-2.1.5-3c.4-1 .5-1.4.5-3 0-1.5 0-2 .5-2.8.4-.9.5-1.4.5-2.8 0-1.5 0-2 .5-2.8.4-1 .5-1.4.5-3 0-1.5.1-2.2.4-3l.4-1.8q0-.7.5-1.8c.4-1 .5-1.4.5-3s0-2.1.5-3q.5-1 .5-2 0-.7.5-1.8t.5-2q0-1 .5-2t.5-2q0-.8.8-2.5a9 9 0 0 0 1-3c.1-1.3.5-2.1 3.8-8.6a44 44 0 0 1 7.5-12.1q.9-1 1.5-2a34 34 0 0 1 9-8.5q.9-.9 1.8-1.3c.5-.2 1.4-1 2-1.5 1-1 1.8-1.5 10.3-5.7a48 48 0 0 1 13-5.6c1.6-.8 2.3-1 3-1q1 0 2-.5 1.1-.5 2-.5t1.9-.5 2-.5l1.8-.4q1-.4 2.9-.4c1.5 0 2 0 2.9-.5s1.3-.5 2.9-.5 2 0 2.9-.5c1-.5 1.3-.5 3.8-.5s3 0 4-.5l1.3-.5h33.5l1 .5 1.1.5h13.5l1 .5c1.1.5 1.1.5 6.8.5s5.8 0 6.8.5l1.1.5H239l1-.5c1.1-.5 1.2-.5 6.9-.5s5.7 0 6.8-.5 1.2-.5 5.8-.5 4.7 0 5.8-.5 1.2-.5 4.9-.5c3.6 0 3.8 0 4.9-.5 1-.5 1.2-.5 5.8-.5s4.7 0 5.8-.5 1.2-.5 4.8-.5 3.8 0 4.8-.5 1-.5 6.9-.5c5.3 0 5.9 0 6.7-.4s1.3-.4 11.5-.4H332l1-.5 1.1-.5h23.1l1-.5 1.1-.5h39.8l1 .5 1.1.5h30.9l1 .5 1.1.5H467l1 .5 1 .5h31.6l1-.5 1.1-.5h15.5l1-.5c1.1-.5 1.2-.5 6.9-.5s5.7 0 6.8-.5 1.2-.5 5.8-.5 4.7 0 5.8-.5 1-.5 6.9-.5c5.8 0 5.8 0 6.9-.5 1-.5 1-.5 6.8-.5s5.7 0 6.8-.5l1-.5h6.8c6.2 0 6.8 0 7.6-.4s1.3-.4 8.5-.4h7.6l1-.5 1.1-.5h23.1l1-.5 1-.5h20.7zM529.2 270.7l1.1.5h17.3l1 .5 1.1.5h23.1l1 .5 1.1.5h15.3l1 .5 1.1.5h13.4l1 .5 1 .5h6.8c6.4 0 7 0 7.7.4s1.4.4 6.6.4c5.7 0 5.8 0 6.8.5 1.1.5 1.1.5 7 .5 5.7 0 5.8 0 6.8.5l1.1.5h17.3l1.2.5 1.2.5h42.4l1 .5 1.1.5h27.6l1-.5 1.1-.5h21.1l1-.5c1.1-.5 1.2-.5 6.9-.5s5.7 0 6.8-.5 1-.5 6.8-.5 5.7 0 6.8-.5 1.1-.5 5.9-.5c4.7 0 4.8 0 5.9-.5 1-.5 1-.5 6.8-.5s5.7 0 6.8-.5 1.2-.5 5.8-.5 4.7 0 5.8-.5 1.1-.5 5.9-.5c4.3 0 4.9 0 5.7-.4s1.3-.4 5.7-.4c4.7 0 4.8 0 5.9-.5 1-.5 1.1-.5 6.7-.5s5.6 0 6.7-.5c1-.5 1.2-.5 4.7-.5h3.6l.6 1.2.5 1.3V328l-.5 1-.5 1.1v21.3l-.5 1-.5 1.1v23.1l-.5 1-.5 1.1v21.8l.5 1 .5 1.1v23.1l.5 1c.5 1 .5 1.3.5 4.9 0 3.5 0 3.8.5 4.8s.5 1.3.5 3.9 0 2.9.5 3.9.5 1.3.5 3.9 0 3 .5 4 .5 1.5.5 3 0 2 .5 2.9c.5 1 .5 1.3.5 3.9s0 2.9.5 3.9.5 1.3.5 2.9 0 2 .5 2.9.5 1.3.5 3c0 1.5.1 2.1.4 2.8q.4.8.4 2.7c0 1.5 0 2 .5 2.9s.5 1.3.5 2.9 0 2 .5 2.9.5 1.3.5 3 0 2 .5 3 .5 1.3.5 3 0 2 .5 3q.5.8.5 1.8t.5 2 .5 1.8v.7l-1.4-1.4-2.5-2c-.5-.2-1.4-.9-1.9-1.4l-2-1.5q-1-.6-2-1.5a8 8 0 0 0-2.8-1.8q-1.9-.9-3-2c-1-1-2-1.6-9-5a42 42 0 0 0-11.9-5q-1.5-.7-2.8-.9-1.2-.1-3-1-2-1-2.8-1-.9 0-2-.5c-.8-.4-1.3-.5-2.8-.5s-2-.1-3-.5-1.6-.5-3-.5c-1.6 0-2 0-3-.5s-1.1-.5-5.7-.5-4.8 0-5.8-.5c-1.1-.5-1.1-.5-7.3-.5s-6.2 0-7.3.5-1.2.5-5.8.5-4.7 0-5.8.5c-.9.4-1.3.5-2.9.5s-2 0-2.9.5q-1 .5-1.9.5t-1.9.5-2 .5l-1.8.4-2.2.6c-1.1.1-1.9.5-5 2-3.3 1.8-3.9 2-4.8 2s-1.6.3-6 2.5c-4.1 2-5.3 2.7-6.2 3.6q-1.1 1-4 2.5a23 23 0 0 0-3.8 2.3c-.5.5-1.7 1.3-2.7 1.8s-2.3 1.4-2.9 2q-1 1-2.1 1.6-1 .6-2.8 2.3c-1 1-2.3 2.1-3 2.5q-1.2.6-3.9 3.4t-3.9 3.4c-1.4.8-3.1 2.5-3.7 3.7q-.5 1-3.5 4a28 28 0 0 0-3.5 4c-.2.5-1.4 1.8-2.5 3a11 11 0 0 0-2.9 3.8q-.7 1.7-1.7 2.6c-.8.8-1.6 2.2-5.5 10a39 39 0 0 0-4.6 10.2c0 .8-.2 1.4-1 3s-1 2.3-1 3-.2 1.4-1 2.9-1 2.1-1 2.9q0 .9-.4 1.8c-.3.7-.4 1.3-.4 2.8 0 1.7 0 2.1-.5 3q-.5 1-.5 2 0 .8-.5 1.8c-.5 1-.5 1.3-.5 4 0 2.5 0 2.8-.5 3.8l-.5 1.1v39.8l.5 1c.4.9.5 1.2.5 3.3s0 2.5-.5 3.4c-.5 1-.5 1.2-.5 5.8s0 4.8-.5 5.8q-.5 1.2-.5 2 0 1.7-1.6 3.3-.8.8-1.3 1.7c-.7 1.4-2 2.4-4.7 3.9-2.2 1.1-2.7 1.3-3.6 1.3s-1.7.4-8.1 3.6c-6.1 3-7.3 3.7-8.1 4.5q-1 1-2.7 1.8l-3 2a95 95 0 0 0-15.3 15.3c-.7.8-1.4 2.1-5.2 9.8a48 48 0 0 0-6.6 18l-.4 1.8-.4 1.8q0 .8-.5 1.8c-.5 1-.5 1.3-.5 5 0 3.6 0 3.8-.5 4.8l-.5 1.1V745l-.5 1-.5 1.1v19.3l-.5 1q-.5 1.2-.5 2 0 1-.5 2t-.5 1.8-.7 1.4q-.7.7-1.2 1.5t-1.2 1.2l-1.7 1.4a10 10 0 0 1-5.4 2.7c-.8 0-1.3.2-2.9 1s-2 1-2.8 1q-1 0-2 .5-1.1.5-2 .5l-1.7.4q-1 .4-2.9.4c-1.5 0-2 0-2.9.5-1 .5-1.3.5-3.9.5s-2.9 0-3.9.5-1.2.5-4.9.5c-3.6 0-3.8 0-4.9.5l-1 .5H562l-1 .5-1.1.5h-25.1l-1 .5-1.1.5h-8.6c-8.1 0-8.6 0-9.6.4s-1.5.4-7.8.4H500l-1 .5-1.1.5h-15.3l-1 .5-1.1.5h-13.3l-1 .5-1.1.5H444l-1.2.5-1.2.5h-41.4l-1-.5-1.1-.5H375l-1-.5-1.1-.5h-15.3l-1-.5c-1-.5-1.2-.5-6-.5s-4.8 0-5.8-.5-1.2-.5-6-.5-4.8 0-5.8-.5-1.2-.5-5.8-.5-4.8 0-5.8-.5l-1.1-.5h-21.1l-1-.5-1.1-.5h-49l-1 .5-1.1.5h-23.3l-1 .5-1.1.5h-65l-1-.5c-1-.5-1.2-.5-5.8-.5s-4.8 0-5.8-.5-1.3-.5-4-.5c-2.5 0-3 0-3.8-.4a6 6 0 0 0-2.7-.4c-1.6 0-2 0-3-.5l-1.9-.5q-1 0-1.9-.5c-.8-.4-1.2-.5-3-.5s-2 0-4-1q-2.2-1-3-1t-2-.5a5 5 0 0 0-2-.5c-.8 0-1.4-.2-3.7-1.4-2.2-1.2-2.8-1.4-3.7-1.4-.8 0-1.5-.3-5.6-2.3a24 24 0 0 1-5.6-3.3l-2-1.5q-1-.5-1.9-1.4l-1.9-1.5-1.8-1.4q-.8-.8-1.8-1.3a7 7 0 0 1-3-3q-.6-1.1-2.6-3.1a15 15 0 0 1-2.4-2.9l-1.4-1.9c-1-1-1.6-2-5.2-9.3a39 39 0 0 1-5.6-15q-.5-1.1-.5-2 0-1-.5-2-.5-1.1-.5-2t-.5-1.9-.5-2l-.4-1.8c-.3-.8-.4-1.5-.4-3.9 0-2.6 0-2.9-.5-3.9s-.5-1.3-.5-3.8 0-2.8-.5-3.8l-.5-1V686l-.5-1c-.4-1-.5-1.4-.5-3.6s0-2.6.5-3.5l.5-1.1v-27.1l.5-1 .5-1.1v-16l-.5-1-.5-1.1v-36.7l-.5-1-.5-1v-31l-.5-1-.5-1.1v-19.3l-.5-1-.5-1.1v-25.1l-.5-1-.5-1.1v-22l.5-1 .5-1.1v-21.3l.5-1 .5-1.1v-13.3l.5-1c.5-1.1.5-1.1.5-6.8s0-5.8.5-6.8l.5-1.1v-13.5l.5-1 .5-1.1v-19.3l.5-1 .5-1.1v-44.5l.5-1c.5-1 .5-1.2.5-6s0-4.8.5-5.8.5-1.4.5-3c0-1.5 0-2 .5-2.8.4-1 .5-1.4.5-3q0-1.8.4-2.8l.4-1.8q0-.7.5-1.8t.5-2q0-1 .5-2a5 5 0 0 0 .5-2c0-1 .4-1.8 3.2-7.4 3.1-6 3.3-6.5 4.8-8q1.6-1.8 2.7-2.3 1.2-.7 2-1.5t1.8-1.3c.5-.3 1.5-1 2.1-1.6.9-.8 2-1.5 4.6-2.8 2.9-1.5 3.5-1.7 4.4-1.7.8 0 1.4-.2 2.9-1s2.1-1 2.9-1q.8 0 2-.5 1-.5 2-.5.8 0 2-.5c.9-.4 1.3-.5 2.9-.5s2 0 2.9-.5c1-.5 1.3-.5 4-.5 2.5 0 3 0 3.8-.4s1.3-.4 5.6-.4c4.6 0 4.7 0 5.8-.5l1-.5h28.9l1-.5 1.1-.5H176l1-.5c1.1-.5 1.3-.5 5-.5 3.6 0 3.8 0 4.9-.5 1-.5 1.2-.5 4.9-.5 3.6 0 3.8 0 4.9-.5 1-.5 1.2-.5 4.8-.5s3.8 0 4.8-.5 1.3-.5 4-.5c2.5 0 3 0 3.8-.4.7-.3 1.3-.4 3.7-.4 2.6 0 2.9 0 3.9-.5s1.3-.5 2.9-.5 2 0 2.9-.5c1-.5 1.3-.5 3.9-.5s2.9 0 3.9-.5 1.3-.5 4-.5 3 0 4-.5 1.3-.5 2.9-.5 2 0 2.9-.5c1-.5 1.2-.5 4.9-.5 3.4 0 3.9 0 4.7-.4s1.3-.4 7.6-.4h6.7l1-.5 1.1-.5h18.6l1 .5 1.1.5h23l1 .5 1 .5H370l1-.5 1.1-.5h44.3l1-.5 1.1-.5h56.1l1-.5 1-.5h51.7zm302.6 253.2c1 .4 1.4.5 3 .5 1.5 0 2 0 2.8.5q1.1.5 2 .5 1 0 2 .5 1.1.5 2 .5t1.8.4 1.8.4c.8 0 1.5.3 3.9 1.5 2.5 1.3 3 1.5 3.9 1.5 1.3 0 2 .4 3.3 1.6.8.8 2 1.5 4.8 3l3.8 1.8 5.6 5.6a46 46 0 0 1 7.6 8.6l1.4 1.8 1.5 2c1.2 1.4 1.6 2.2 1.6 3.3 0 .7.5 1.8 2.9 6.7a25 25 0 0 1 3.4 8.6q.5 1 .5 2c0 .8.3 1.5 1.5 4 1.2 2.4 1.5 3.2 1.5 4q0 .9.4 1.8.4.7.4 2.8c0 1.6 0 2 .5 3s.5 1.2.5 4.8 0 3.8.5 4.8l.5 1v30.1l-.5 1.1c-.5 1-.5 1.3-.5 5 0 3.6 0 3.8-.5 4.8s-.5 1.4-.5 2.9 0 2-.5 2.8-.5 1.2-.5 3v1.9l-1 2.1-1.1 2.1h-40.9l-1-.5c-1.1-.5-1.1-.5-6.8-.5s-5.8 0-6.8-.5-1.2-.5-6-.5-4.8 0-5.8-.5c-1.1-.5-1.1-.5-6.8-.5s-5.8 0-6.8-.5l-1.1-.5h-10.5a42 42 0 0 1-11.6-.4c-1-.4-1.5-.4-22.2-.4h-21.2l-1-.5a5 5 0 0 0-2.6-.5h-1.6l-1.1-2.2-1.1-2.2v-13.5l-.5-1-.5-1.1v-20l.5-1c.5-1 .5-1.3.5-5 0-3.6 0-3.8.5-4.8s.5-1.4.5-3 0-2.1.5-3c.4-1 .5-1.4.5-3 0-1.5 0-2 .5-2.8q.5-1.2.5-2c0-.8.2-1.4 1-3 .8-1.5 1-2 1-2.9s.4-1.8 4.1-9.2a42 42 0 0 1 6.7-11.3l1.3-1.8a11 11 0 0 0 2-2.9c.9-1.9 1.1-2.2 4.6-5.6a29 29 0 0 1 4.7-4.3q1.2-.6 3-2.5t2.9-2.4l2-1.5q1-1 3-2t2.9-1.9c.7-.8 1.8-1.4 5.2-3.1 3.8-1.9 4.5-2.2 5.4-2.2.8 0 1.5-.3 4-1.5 2.5-1.3 3.2-1.5 4-1.5s1.4-.2 2.9-1l1.9-1h2c1.6 0 2 0 3-.5s1.3-.5 2.7-.4 1.7 0 2.6-.4l1-.5h16.7zm44.4 157 1.1.5h13.5l1 .5c1 .5 1.3.5 4 .5 2.5 0 2.8 0 3.8.5s1.3.5 4 .5c2.5 0 2.8 0 3.8.5s1.4.5 3 .5c1.5 0 2 0 2.8.5 1 .5 1.3.5 4 .5s3 0 4 .5 1.3.5 3.8.5 2.9 0 3.8.5q1.1.5 2 .5 1 0 2 .5 1.1.5 2 .5c.8 0 1.8.4 6.3 2.7l5.4 2.7 1.7 1.7c1.8 1.8 1.8 1.8 4.5 7.2a22 22 0 0 1 2.7 6.2q0 .9.5 2.1c.5 1 .5 1.5.5 4 0 2.7 0 3 .5 4l.5 1v18.1l-.5 1.1c-.5 1-.5 1.3-.5 4.8 0 3.6 0 3.8-.5 4.8s-.5 1.2-.5 5.8 0 4.8-.5 5.8l-.5 1.1V777l-.5 1-.5 1.1v18.2l.5 1 .5 1.1v17.3l.5 1 .5 1.1v39.6l-.5 1c-.5 1-.5 1.3-.5 4.8 0 3.6 0 3.8-.5 4.8s-.5 1.4-.5 3 0 2.1-.5 3q-.5 1.1-.5 2 0 1-.5 2t-.5 2q0 .8-.5 1.8-.5 1.2-.5 2t-.9 2.8q-1 2-.9 2.8c0 1.3-1.3 3.9-2.6 5.3q-1 1-2.4 3.8l-1.4 2.8-3.7 3.7a27 27 0 0 1-4.7 4.2q-1 .6-2.1 1.6a10 10 0 0 1-3.5 2.2 10 10 0 0 1-3.3 1.2 8 8 0 0 0-2.9 1q-2.1 1-3 1a5 5 0 0 0-2 .5c-.9.4-1.3.5-2.9.5s-2 0-2.9.5c-1 .5-1.3.5-3.9.5-2.4 0-3 0-3.7.4s-1.3.4-7.6.4h-6.7l-1 .5-1.1.5h-46.5l-1 .5-1.1.5h-67l-1-.5-1.1-.5H756l-1-.5c-1-.5-1.2-.5-5.8-.5s-4.8 0-5.8-.5-1.3-.5-4.8-.5c-3.6 0-3.8 0-4.8-.5s-1.3-.5-5-.5c-3.6 0-3.8 0-4.8-.5s-1.3-.5-4-.5c-2.3 0-2.9 0-3.6-.4-.7-.3-1.3-.4-2.8-.4-1.7 0-2.1 0-3-.5q-1-.5-2-.5-.8 0-1.8-.5-1.2-.5-2-.5-1 0-2-.5-1.2-.5-2-.5-1 0-2-.5-1.2-.5-2-.5a40 40 0 0 1-16.3-10l-2.8-2.9-2.3-4.4c-1.8-3.6-2.2-4.5-2.2-5.2q0-.9-.5-2.1t-.5-2q0-1-.5-2c-.4-.9-.5-1.3-.5-2.9s0-2-.5-2.9l-.5-1V847l.5-1 .5-1.1v-14.6l-.5-1-.5-1.1v-7.8c0-7.2 0-7.8-.4-8.6s-.4-1.3-.4-14.4V784l-.5-1-.5-1.1v-28.1l.5-1.1c.5-1 .5-1.2.5-5.8s0-4.8.5-5.8.5-1.3.5-4c0-2.5 0-2.8.5-3.8s.5-1.4.5-3c0-1.5 0-2 .5-2.8q.5-1.1.5-2t.9-2.8c.7-1.5.9-2.1.9-2.9s.3-1.5 2.3-5.5l2.3-4.5 3.6-3.5q3.5-3.7 4.6-4.2t2-1.5a27 27 0 0 1 9-4.5c.7 0 1.4-.2 3-1q2-1 2.9-1t1.9-.5 2-.5 2-.5 2-.5 1.8-.4a6 6 0 0 1 2.7-.4c1.5 0 2 0 2.9-.5 1-.5 1.3-.5 3.9-.5s2.9 0 3.9-.5 1.2-.5 4.9-.5c3.6 0 3.8 0 4.9-.5 1-.5 1.2-.5 5.8-.5s4.7 0 5.8-.5 1.2-.5 4.9-.5c3.6 0 3.8 0 4.9-.5 1-.5 1-.5 6.9-.5 5.3 0 5.9 0 6.7-.4s1.3-.4 6.6-.4c5.7 0 5.7 0 6.8-.5s1.2-.5 5.8-.5 4.7 0 5.8-.5 1.2-.5 5.8-.5 4.7 0 5.8-.5l1-.5h6.7c6.7 0 6.7 0 8-.5l1.2-.5h18l1-.5 1-.5h29.9z"/><path d="M269 143.7c-1 .5-1.3.5-3.8.5s-2.8 0-3.8.5a5 5 0 0 1-2 .5c-.8 0-1.7.3-6.1 2.6l-5.2 2.6-4.1 4.1-4.2 4.2-1 2.3c-1 1.8-1.2 2.5-1.2 3.2q0 .9-.9 2.8l-.9 1.9v6.3c0 6.3 0 6.3.5 7.4q.5 1 .5 1.9c0 1.3 2 5.3 3.3 6.5q1 .9 1.4 1.9.6 1 3.6 4l3.1 3.1 3.4 1.7c2.7 1.4 3.5 1.7 4.2 1.7q1 0 2 .5 1.1.5 2 .5t1.8.4c.8.4 1.3.4 5.3.4 4.3 0 4.4 0 5.5-.5q1-.5 1.9-.5l1.7-.4 2.1-.6c1.8-.2 6.7-2.6 8.2-4l2.2-1.7q.9-.6 3.1-2.6l2.1-2.2 2.6-5c2.2-4.5 2.5-5.2 2.5-6q0-1 .5-2.1c.5-1 .5-1.2.5-6.4s0-5.3-.5-6.4a5 5 0 0 1-.5-2c0-.8-.3-1.5-2.1-5.1l-2.1-4.2-3-3-3.1-3.1-5.4-2.7-5.3-2.7H275c-2.2 0-2.7 0-3.4-.4-1-.5-1.4-.5-2.7.1m-126.7.9q-1.2.6-2.2.6-.9 0-2.8.9a7 7 0 0 1-2.7.9q-.7 0-3.2 1.1c-1.9.9-2.7 1.4-3.6 2.3l-2 1.6c-.4.2-1.8 1.3-3 2.5a15 15 0 0 0-3 4l-1.8 2.7q-1.5 1.5-1.5 3a9 9 0 0 1-1 2.8c-.8 1.6-1 2.3-1 3q0 .9-.4 1.8c-.4.8-.4 1.3-.4 5.3 0 4.3 0 4.4.5 5.5q.5 1 .5 1.9c0 .7.5 1.8 2.5 6l2.5 5 2.3 2.3c1.2 1.2 2.6 2.4 3.1 2.7l1.8 1.4a15 15 0 0 0 6.6 3.3 5 5 0 0 1 2 .5q1 .5 2 .5.8 0 1.8.5c1 .5 1.2.5 6.4.5s5.3 0 6.4-.5a5 5 0 0 1 2-.5c.8 0 1.6-.4 6.1-2.6 4.2-2.1 5.4-2.9 6.3-3.7l2-1.6q1-.5 1.4-1.4l2.4-2.9c1.9-2 2.2-2.3 3.7-5.4 1.4-2.7 1.7-3.4 1.7-4.2q0-1 .5-2t.5-2 .5-2c.5-1.1.5-1.4.5-4.3 0-3 0-3.3-.5-4.3q-.5-1-.5-1.9c0-.7-.5-1.9-2.7-6.2a24 24 0 0 0-5-8q-.6-1.4-1.8-2l-2-1.4a26 26 0 0 0-10.5-4.8q-1-.5-2-.5-.7 0-1.8-.5c-1-.5-1.3-.5-5.2-.5h-4.1zM462 368.7q-1 .5-1.9.5a8 8 0 0 0-4.4 2.2l-2 1.5q-1.2.8-3.3 2.7l-2 2.1-5.5 11a55 55 0 0 0-5.5 12c0 .7-.4 1.6-2.3 5.6-2 4-2.4 5-2.5 6s-.5 2-2.6 6c-2 4.3-2.4 5-2.4 5.9 0 .8-.3 1.6-2.4 5.8-2 4-2.4 5-2.4 5.7s-.4 1.8-2.4 5.7c-2 4.2-2.4 5-2.4 5.8s-.3 1.5-1.9 4.8-1.9 4-1.9 4.8-.4 1.7-3 6.8c-2.4 5-2.9 6-3 7.1 0 1-.4 1.9-1.9 4.8a15 15 0 0 0-1.9 4.8c-.1 1-.5 1.9-2 4.9s-1.8 3.8-1.8 4.6c0 1-.3 1.6-2.5 6s-2.5 5-2.5 6-.2 1.4-1.9 4.7c-1.6 3.2-1.9 3.9-1.9 4.7s-.3 1.6-1.9 4.8c-1.6 3.3-1.9 4-1.9 4.8s-.3 1.5-1.5 4c-1.3 2.5-1.5 3.2-1.5 4 0 .9-.3 1.5-1.8 4.6s-1.9 3.7-2 4.8-.5 2-2 5.1-1.9 4-2 5a9 9 0 0 1-1 2.9q-.9 1.8-.8 2.6c0 .9-.3 1.6-2 4.8-1.5 3.1-1.9 4-2 5s-.4 1.9-1.5 4c-1 2.2-1.3 2.8-1.3 3.6s-.3 1.5-1.5 4c-1.3 2.6-1.5 3.2-1.5 4 0 .9-.2 1.5-1.5 4-1.3 2.4-1.5 3-1.5 3.9s-.2 1.4-1.4 3.8c-1.1 2.3-1.4 3-1.4 3.7s-.3 1.5-1.5 4-1.5 3.2-1.5 4-.2 1.5-1.4 3.8-1.4 3-1.4 3.8-.2 1.4-1 3q-1 2.1-1 3c0 .6-.3 1.4-1.4 3.6s-1.4 3-1.4 3.8-.2 1.4-1 3-1 2.3-1 3-.2 1.4-1 3q-1 2.1-1 3t-.5 1.8-.5 2-.9 2.8c-.9 1.8-.9 2-.9 3.8s0 2.1-.5 3c-.5 1-.5 1.3-.5 4.4s0 3.4.5 4.4q.5 1 .5 2c0 1.7.8 3 3.6 5.7 2.2 2.2 2.7 2.5 4.4 3.3q1.8.9 3 1l2.2.6c1.2.5 1.7.5 3-.1.9-.4 1.3-.5 3-.5h1.8l2.1-1.1c2-1 2.4-1.3 5.4-4.3 2.9-2.9 3.2-3.2 4.1-5q1-1.9 1.9-2.8a8 8 0 0 0 2.3-4.6c0-.8.5-1.9 3.3-7.6a32 32 0 0 0 3.5-7.9c.1-1 .5-2 2-5 1.7-3.3 2-4.1 2-4.9 0-.7.3-1.5 1.8-4.6s1.9-4 2-4.9.5-2 2-5.1c1.7-3.3 2-4 2-4.8s.3-1.5 1.4-3.8c1.2-2.3 1.4-3 1.4-3.8s.3-1.6 2-5 2-4.2 2-5q0-.9.9-2.8 1-2 .9-2.8c0-.8.3-1.6 2-5 1.6-3.2 2-4.2 2-4.9q0-.8.9-2.7t.9-2.8c0-.8.3-1.5 1.5-4s1.5-3.2 1.5-4 .3-1.6 1.9-4.8c1.5-3 1.9-4 1.9-4.7s.3-1.5 1.4-3.8 1.5-3.1 1.6-4.1.4-1.9 1.5-4c1-2.2 1.3-2.8 1.3-3.6s.3-1.6 2-5 2-4.2 2-5 .2-1.4 1.4-3.7 1.4-2.8 1.4-3.7c0-.8.3-1.5 2-5s2-4.2 2-5c0-.9.3-1.6 2.4-5.8 2-4.2 2.4-5 2.4-5.8s.2-1.5 1.5-4c1.3-2.4 1.5-3 1.5-3.8 0-1 .3-1.6 2.3-5.8 2-3.8 2.4-4.9 2.5-5.9s.6-2 2.4-5.7c2-3.9 2.3-4.7 2.4-5.8s.4-1.9 2-5c1.5-3 1.8-3.8 1.8-4.5s.4-1.6 2-4.8c1.5-3.2 1.9-4 2-5.1s.5-2 2.5-6 2.3-4.8 2.3-5.6.3-1.6 2.4-5.8c2-4.1 2.4-5 2.4-5.8s.3-1.6 2-4.9 2-4.1 2-5c0-.7.3-1.4 1.4-3.7s1.4-3 1.4-3.8.3-1.5 1.5-4 1.5-3.2 1.5-4q0-1 .5-2t.5-2q0-.7.5-1.8c.5-1 .5-1.2.5-5.3v-4.1L480 378c-2.7-5.3-3.3-6-6.9-7.8-1.9-1-2.5-1.2-3.3-1.2q-.9 0-1.8-.4c-.7-.3-1.3-.4-2.9-.4-1.7 0-2.2 0-3 .5m-156 48.9c-1.5.8-2 1-2.9 1a15 15 0 0 0-6.6 3.3 10 10 0 0 1-2.8 1.8q-1.8 1-3 2l-2.1 1.6q-1 .5-1.9 1.4-1 .9-2 1.5t-2 1.5q-.9.9-1.9 1.4t-1.9 1.4l-1.7 1.3-2.9 2.5a20 20 0 0 1-3.1 2.6c-.5.2-1.4.8-1.8 1.3l-2 1.5c-.7.4-2 1.4-3 2.5q-1.7 1.7-2.9 2.4-1 .6-2 1.5t-1.9 1.4c-.6.3-1.9 1.4-3 2.5a17 17 0 0 1-3 2.5c-.5.2-1.4.9-1.9 1.4l-1.8 1.4-2.7 2.3q-1.7 1.7-2.9 2.4t-3 2.5q-1.9 1.9-2.9 2.4c-.5.2-1.4.9-1.9 1.4q-1 .9-2 1.5-1.1.6-3 2.5a15 15 0 0 1-3 2.5q-1.2.7-2.9 2.4t-2.8 2.3a18 18 0 0 0-3 2.5c-1.1 1-2.4 2.2-3 2.5q-1 .7-6.9 6.4a48 48 0 0 0-9.3 10.8l-1.5 2a32 32 0 0 0-3.5 6L191 517l-.1 2.2c-.1 1.7-.2 2.4-.6 3.1s-.4 1.3-.4 3.1c0 2 0 2.3.5 3.3s.5 1.3.5 2.9v1.9l1.6 3.2a18 18 0 0 0 2.7 4.4l1.6 2.1c.6 1.3 4.5 5.1 5.7 5.7.5.3 1.8 1.3 2.9 2.4s2.4 2.2 2.9 2.4q.9.5 1.9 1.4l2 1.5q1 .6 2 1.5l1.8 1.4c.4.2 1.3.8 1.8 1.4l2 1.5q1 .5 1.9 1.4 1 .9 2 1.5 1.1.7 2.9 2.4t2.9 2.4q1 .6 2 1.5t1.9 1.4l2 1.5 2 1.5q1 .6 2 1.5l1.7 1.3c.4.2 1.6 1.3 2.8 2.4 1.2 1.2 2.5 2.3 3.1 2.6q1 .4 1.8 1.3t2 1.5q1.2.7 2 1.5l1.9 1.4q1 .6 2 1.5t2 1.5l1.9 1.4q.8.8 2 1.5t2 1.5 1.8 1.3c.5.3 1.5 1 2 1.6l2 1.5 1.7 1.3q1 .9 2 1.5t2 1.5q.9.9 2.9 1.9 2.1 1 3 2 1 1 2.8 1.9 1.9.9 3.1 2 2.4 2.2 4.6 2.3c.8 0 1.5.3 3.8 1.4l2.8 1.4h2.5c2.1 0 2.5 0 3.5-.5q1-.5 1.9-.5c1.3 0 5-1.9 6.5-3.4 1.1-1 1.5-1.5 3-4.5 1.3-2.8 1.6-3.5 1.6-4.3q0-1 .5-2t.5-2.3-.5-2.3-.5-1.9a38 38 0 0 0-6.7-12.4q-.5-1-1.4-1.9l-1.4-1.9a128 128 0 0 0-15.7-15.2l-2.1-1.6q-1-.4-1.8-1.3-.7-.8-1.8-1.3c-.5-.3-1.5-1-2-1.6q-1.2-1-2.2-1.6-1-.5-1.9-1.4l-1.8-1.4-1.8-1.4-2-1.5-1.9-1.4q-.9-.8-2.8-1.8t-3.1-2.1l-2.1-1.6q-1-.4-1.8-1.3t-1.6-1.2l-2-1.6-2.1-1.6q-.9-.4-1.8-1.3l-2-1.5q-1-.6-2-1.5l-1.9-1.4-2.1-1.6-2-1.5c-1.1-.5-7.8-7.1-7.8-7.7s.6-1.4 3.5-4.3q3-2.9 3.5-4a18 18 0 0 1 5.1-5 39 39 0 0 0 5.7-5.3c3.5-3.5 5-4.9 5.9-5.3q1-.6 3.9-3.5 2.6-2.8 3.6-3.3c.5-.3 1.8-1.3 3-2.4l2.8-2.3c.4-.2 2.1-1.7 3.8-3.4q3.1-3 4.1-3.6t2.9-2.4 3-2.5 2.8-2.3q1.7-1.7 2.7-2.2c.5-.3 1.5-1 2-1.6l2.2-1.6q1-.5 1.9-1.4 1-.9 2-1.5 1.1-.5 2.8-2.4t2.8-2.4a16 16 0 0 0 2.9-2.4q1.7-1.7 2.8-2.3a44 44 0 0 0 9.4-9.9 16 16 0 0 0 3.7-8.4c.3-.9.4-1.5.4-4.4v-3.4l-1.6-3.1c-1.6-3-1.7-3.3-3.8-5.4q-3.4-3.6-5.7-3.5-1 0-2-.5a10 10 0 0 0-4-.5H308zm217.3 3.4q-1.2.6-2 .6a9 9 0 0 0-3 1c-2.2 1-2.4 1.2-4.6 3.3l-2.2 2.2-1.7 3.4-1.7 3.3v8.4l2.6 5.2 2.6 5 4.1 4.3q4.1 4.2 5 4.7c.6.2 1.9 1.3 3 2.4s2.4 2.2 3 2.5a15 15 0 0 1 2.9 2.4q1.9 1.9 3 2.5t1.9 1.4q.8.9 1.9 1.4 1.2.7 2.9 2.4c1 1 2.3 2.1 3 2.5q1.3.7 4 3.5 2.9 2.9 3.9 3.4 1.1.5 3.8 3.3a21 21 0 0 0 3.7 3.2q1 .6 5.1 4.6l4.9 4.5c.5.2 2.4 2 4.5 4.1 3.6 3.7 3.7 3.8 5 6.2l1.2 2.9c0 .2-.6 1.6-1.4 3a13 13 0 0 1-3.2 4.5q-1.7 1.8-2.4 2.9c-.4.8-1.6 2.1-4.4 4.9q-3.7 3.7-4.3 4.7t-1.1 1.2a11 11 0 0 0-3.7 3.7 136 136 0 0 1-14.7 14.7c-1.2.6-3.6 3-4 4q-.3.5-1 1c-.6.3-7.1 6.7-16.6 16L507.8 592l-2.2 4.4-2.2 4.3V611l.7 1.4c.5 1 1 1.8 2.4 3.1 1.6 1.6 2.1 2 5 3.4l3 1.6h3.5c3.3 0 3.6 0 4.6-.5q1-.5 2-.5a37 37 0 0 0 12-6.6l2-1.5 2.1-1.6q1-.5 1.9-1.4 1-1 2.9-2a12 12 0 0 0 3-1.9l1.8-1.4c.4-.2 1.7-1.2 2.7-2.3a15 15 0 0 1 2.9-2.4q1-.6 2.1-1.6l2-1.5c.5-.2 1.8-1.3 2.9-2.4s2.4-2.2 3-2.5q1-.4 1.8-1.3c.4-.5 1.3-1 1.8-1.3a25 25 0 0 0 4.1-3.6q3-3 4.1-3.6a11 11 0 0 0 2.7-2.3q1.6-1.8 3-2.5c1-.5 2-1.3 4-3.5q2.7-2.7 3.5-3.1t4.9-4.4 5-4.5c.5-.3 2.1-1.6 3.7-3.2a99 99 0 0 0 17-17c.9-1 1.5-2 4-7 2.7-5.2 3-5.9 3.1-7.1q0-1.4.6-2.3c.4-.8.4-1.2.4-6.2 0-5.2 0-5.3-.5-6.4q-.5-1-.5-1.9t-1-2.9-1-2.9c0-1.2-1.1-3.4-2.3-4.5l-1.4-1.9a160 160 0 0 0-20.4-19.9 34 34 0 0 0-5-4.5q-1-.4-3.8-3.3c-2-2-3-3-3.8-3.3q-1-.5-2.9-2.4a15 15 0 0 0-3-2.5q-1.1-.5-3.9-3.4a28 28 0 0 0-3.6-3.2l-2.9-2.5a14 14 0 0 0-3-2.5 26 26 0 0 1-4.6-4.1c-2.7-2.7-4-3.9-4.8-4.3q-1.1-.6-3-2.5a15 15 0 0 0-3-2.5q-1.2-.7-2.9-2.4-1.8-1.7-2.9-2.4t-2.1-1.6l-2-1.5-2.1-1.6a21 21 0 0 0-5.1-3l-4-2-2.2-.1a8 8 0 0 1-3.1-.6q-.9-.4-2.5-.4c-1.4 0-1.8 0-2.9.6m282 314.2q-1 .5-1.9.5c-.7 0-1.5.3-3.9 1.5q-3 1.5-3.7 1.5-1.5 0-2.7 1.3-.7.8-2.7 1.7c-2 1-2.1 1.2-6.2 5.2-4 3.9-4.2 4.2-5.1 6q-1 1.9-1.9 2.8a8 8 0 0 0-2.3 4.6c0 .8-.2 1.4-1 3q-1 2.1-1 3t-.5 2c-.5 1.2-.5 1.2-.5 7.2s0 6.1.5 7.2q.5 1 .5 1.9t.5 1.9.5 2c0 1.4 3 7.3 4.3 8.6q1 .9 1.4 1.9a23 23 0 0 0 5.6 5.6c1.1.6 2.6 2 3 2.7.2.4.3 1.4.3 4 0 3.1 0 3.4-.5 4.3l-.5 1v13.7l-.5 1-.5 1.1v24l.5 1q.5 1.2.5 2t.5 1.9q.5 1 .5 1.9a8 8 0 0 0 2.2 4.4l1.4 1.9a9 9 0 0 0 1.8 2.3c1.1 1.1 1.8 1.5 5.6 3.4 3.4 1.7 4.4 2.1 5.1 2.1q.8 0 2 .5c1 .5 1.1.5 5.2.5s4.2 0 5.3-.5q1-.5 2-.5c1.2 0 7-3 8.5-4.4l2-1.6q1-.5 1.7-1.7t1.6-2.2a16 16 0 0 0 3.2-6.3q0-.7.5-1.8c.4-1 .5-1.4.5-3q0-1.8.4-2.8c.3-.8.4-1.5.4-3.4 0-2 0-2.4-.5-3.4s-.5-1.3-.5-2.9 0-2-.5-2.9-.5-1.3-.5-2.9 0-2-.5-2.9c-.5-1-.5-1.2-.5-4.9 0-3.4 0-3.9-.4-4.7s-.4-1.3-.4-9v-8.1l2.7-2.6c1.4-1.5 3-2.8 3.4-3 1-.5 1.3-.9 1.9-2 .2-.4 1.2-1.7 2.3-2.7l2-1.9 2-4c1.6-3.4 2-4.3 2.1-5.4q.1-1.2 1-3l1-2v-2.8c0-2.5 0-3 .5-4s.5-1.5.5-3.4c0-2 0-2.3-.5-3.3s-.5-1.3-.5-2.9 0-2-.5-2.9a5 5 0 0 1-.5-2c0-.8-.3-1.6-2.2-5.3a19 19 0 0 0-3.1-5.3l-1.5-2a23 23 0 0 0-5.6-5.6l-2-1.5a15 15 0 0 0-6.5-3.3q-1 0-2.6-.8a9 9 0 0 0-3-1q-1.4 0-2.3-.6c-.9-.4-1.2-.4-8.6-.4h-7.7z"/></g></svg>