<svg xmlns="http://www.w3.org/2000/svg" width="1000" height="1000" viewBox="0 0 1000 1000"><path fill="#141413" fill-rule="evenodd" d="m413.8 62.2-2 1h-6l-2 1h-4l-2 1h-2l-2 1h-2l-2 1h-2l-2 1-2 1h-2l-2 1h-2l-2 1-2 1-2 1h-2l-2 1-2 1-2 1-2 1-2 1-2 1h-2l-2 1-2.1 1-2 1-2 1-2 1-2 1-2 1-2 1.1-2 1-2 1-2 1-2 1-2 1-2 1-2 1-2 2-2 1-2 1-2 1-2 1-2 1-2 1-2 1-2 1-2 1-2 1-2.1 1-2 1-2 1-2 1-2 1-2 1-2 1-2 1-2 1-2 1-2 1-2 1-2 2-2 1-2 1-2 1-2 1-2 1-2 1-2 1-2 1-2 1-2 1-2 1-2 1-2.1 1h-2l-2 1-2 1-2 1-2 1.1-2 1-2 1-2 1-2 1-2 1-2 1-2 1-2 1-2 1-2 1-2 1-2 1-2 1-2 1-2 1h-2l-2 1-2 1-2 1-2.1 1-2 1-2 1-2 1-2 1-2 1h-2l-2 1-2 1-2 1-2 1-2 1-2 1h-2l-2 1-2 1-2 1-2 1-2 1-2 1-2 1h-2l-2 1-2 1-2 1-2.1 1-2 1-2 1h-2l-2 1-2 1-2 1-2 1-2 1-2 1-2 1.1-2 1-2 1-2 1-2 1-2 1-2 1-2 1-2 1-2 1-2 1-2 1-2 1-2 1-2 1-2.1 1-2 1-2 2-2 1-2 1-2 1-2 2-2 1-2 1-2 2-2 1-2 2-2 2-2 2-2 1-2 2-2 2-1 2-2 2-2 2-1 2-2 2.1-1 2-2 2-1 2-1 2-2 2-1 2-1.1 2-1 2-1 2-1 2-1 2v2l-1 2-1 2-1 2v2l-1 2v2l-1 2v2l-1 2v2l-1 2v4.1l-1 2v4l-1 2v24l1 2v8l1 2v4l1 2.1v2l1 2v4l1 2 1 2v2l1 2v2l1 2 1 2v2l1 2 1 2 1 2 1 2 1 2 1 2 1 2 1 2 1 2 1 2 2 2 1 2 2 2.1 1 2 2 2 1 2 2 2 2 2 2 1 2 2 2 2 2 1 2 2 2 1 2 1v2l-2 2-1 2-2 2-2 2-1 2-2 2-1 2-2 2-1 2-1 2-1 2-1 2-1 2-1 2.1-1 2v2l-1 2-1 2-1 2v2l-1 2v2l-1 2v2l-1 2v4l-1 2v4l-1 2v8l-1 2v14.1l1 2v8l1 2v4l1 2v6l1 2v2l1 2v2l1 2v2l1 2v2l1 2.1v2l1 2 1 2 1 2v2l1 2 1 2 1 2 1 2 1 2 1 2 2 2 1 2 1 2 2 2 2 2 2 2-1 2-2 1-2 1-2 1-2 1-2 1-2 1-2 2-2 1-2 1-2 1-2 1-2 1-2 1.1-2 2-2 1-2 1-2 1-2 2-2 1-2 2-2 1-2 2-2 2-2 2-2 1-2 2-1 2-2 2-2 2-1 2-2 2-1 2-1 2-2 2-1 2-1 2-1 2-1 2-1 2-1 2-1 2.1-1 2v2l-1 2-1 2v2l-1 2-1 2v2l-1 2v2l-1 2v4l-1 2v2l-1.1 2v6l-1 2v8l-1 2.1v10l1 2v12l1 2v8l1 2v6l1 2v4l1 2.1v4l1 2v2l1 2v2l1 2v2l1 2v2l1 2 1 2 1 2v2l1 2 1 2 2 2 1 2 1 2 1 2 1 2 2 2 1 2 2 2 2 2.1 2 2 2 2 2 1 2 2 2 2 2 1 2 1 2 2 2 1 2 1 2.1 1 2 1 2 1 2 1h2l2 1 2 1h2l2 1 2 1h2l2 1h4l2 1h2l2 1h2l2 1h4l2 1h2l2 1h4.1l2 1h2l2 1h2l2 1h2l2 1h2l2 1h2l2 1h2l2 1h2l2 1h2l2 1h2l2 1h2l2 1h2l2 1h2l2.1 1h2l2 1h2l2 1h2l2 1h2l2 1h2l2 1h2l2 1h2l2 1.1h2l2 1h2l2 1h2l2 1h2l2 1h2l2 1h2.1l2 1h2l2 1h2l2 1h2l2 1h2l2 1h2l2 1h4l2 1h2l2 1 2 1h2l2 1h2l2 1h2l2 1h2l2.1 1h2l2 1h2l2 1h2l2 1h2l2 1 2 1h2l2 1h2l2 1h2l2 1h2l2 1 2 1h2l2 1h2l2 1h2l2.1 1h2l2 1h2l2 1h2l2 1h2l2 1h2l2 1h2l2 1h4l2 1h2l2 1h2l2 1h4l2 1h2l2 1h2.1l2 1h2l2 1h4l2 1h2l2 1h2l2 1h2l2 1h4l2 1h2l2 1.1h2l2 1h4l2 1h2l2 1h2.1l2 1h2l2 1h2l2 1h4l2 1h2l2 1h2l2 1h2l2 1h4l2 1h2l2 1h2l2 1h2l2 1h2l2.1 1h2l2 1h2l2 1h4l2 1h2l2 1h2l2 1h2l2 1h2l2 1h2l2 1h2l2 1h2l2 1h2l2 1h2l2.1 1h2l2 1h2l2 1h2l2 1h2l2 1h2l2 1h2l2 1h2l2 1h2l2 1h2l2 1h2l2 1h4l2 1h2l2.1 1h2l2 1h2l2 1h4l2 1h2l2 1h2l2 1h4l2 1h4l2 1h2l2 1h4l2 1h4l2.1 1h4l2 1.1h6l2 1h8l2 1h24l2.1-1h6l2-1h2l2-1h2l2-1h2l2-1 2-1 2-1h2l2-1 2-1 2-1 2-1 2-1 2-2 2-1 2-1 2-1 2-2 2-1 2.1-1 2-1 2-2 2-1 2-1 2-2 2-1 2-1 2-2 2-1 2-1 2-2 2-1 2-1 2-1 2-2 2-1 2-1 2-2 2-1 2-1 2-1.1 2-2 2-1 2-1 2.1-1 2-2 2-1 2-1 2-1 2-2 2-1 2-1 2-1 2-2 2-1 2-1 2-1 2-1 2-2 2-1 2-1 2-1 2-2 2-1 2-1 2-1 2-2 2-1 2-1 2.1-1 2-2 2-1 2-1 2-2 2-1 2-1 2-1 2-2 2-1 2-1 2-2.1 2-1 2-1 2-1 2-1 2-2 2-1 2-1 2-1 2-2 2-1 2-1 2-1 2-1 2.1-2 2-1 2-1 2-1 2-1 2-1 2-2 2-1 2-1 2-1 2-1 2-1 2-2 2-1 2-1 2-1 2-1 2-1 2-1 2-1 2-2 2-1 2-1 2-1 2-1 2.1-1 2-1 2-1 2-1 2-2.1 2-1 2-1 2-1 2-1 2-1 2-1 2-1 2-1 2-2 2-1 2-1 2-1 2-1 2-1 2-1 2-2 2-1 2-1 2-1 2-1 2.1-1 2-1 2-1 2-2 2-1 2-1 2-1 2-2 2-1 2-1 2-1 2-2 2-1 2-1 2-1 2-2 2-1 2-2 2-2 1-2.1 1-2 1-2 1-2 1-2v-6l-1-2v-2l-1-2-2-2-2-2-2-1-2-1-2-1h-2l-2-1-2-1-2-1-2-2-2-2-1-2-1-2-1-2-1-2-1-2v-2l-1-2v-4.1l-1-2v-16l1-2v-4l1-2v-4l1-2v-2l1-2v-2l1-2 1-2v-2l1-2 1-2.1v-2l1-2 1-2 1-2v-2l1-2 1-2 1-2 2-2 2-2 2-1 2-1h2l2-1 2-1 2-1 2-2 2-1 1-2 2-2 1-2 1.1-2 1-2 1-2v-4l-1-2v-2l-1-2.1-1-2-2-2-2-2-2-1-2-1-2-1-2-1h-2l-2-1-2-1h-2l-2-1-2-1h-2l-2-1-2-1-2-1h-2l-2-1-2-1-2-1h-2l-2-1-2.1-1-2-1-2-1 2-2 2-2 2-2 1-2 1-2 1-2v-2l1-2v-10.1l-1-2-1-2-1-2-2-2-2-2-2-1-2-1-2-1h-2l-2-1-2-2-2-2-1-2-1-2-1-2-1-2v-2l-1-2v-2l-1-2v-8l-1-2V490l1-2v-10l1-2v-4l1-2v-2l1-2v-2l1-2v-2l1-2v-2l1-2v-2l1-2v-2l1-2v-2l1-2 1-2.1 1-2 1-2 2-1 2-2 2-1 2-2 2-2 2-2 1-2 1-2v-2l1-2v-8l-1-2v-2l-1-2-2-2-1-2-2-2-2-1-2-1-2-1-2-1-2-1-2-1h-2l-2-1.1h-2l-2-1h-2l-2-1h-2l-2-1h-2l-2-1h-2l-2-1h-2l-2-1h-2l-2-1h-2l-2.1-1h-2l-2-1h-4l-2-1h-2l-2-1h-2l-2-1h-2l-2-1h-4l-2-1h-2l-2-1h-2l-2-1h-2l-2-1h-2l-2-1h-2l-2-1h-2.1v-2l2-1 2-2 2-1 2-2 2-1 2-1 2-2 2-1 2-2 2-1 2-1 2-2 2-1 2-2 2-1 2-2 2-1 2-2 2-2 2-1.1 2-2 2-2 2.1-2 2-2 2-2 1-2 1-2 1-2 1-2v-4l1-2v-2l-1-2v-2l-1-2v-2l-1-2-2-2-2-2-2-2-2-1h-2l-2-1-2-1-2-1-2-2-2-1-1-2.1-2-2-1-2-1-2-1-2-1-2-1-2v-2l-1-2v-2l-1-2v-2l-1-2v-6l-1-2v-16l1-2.1v-6l1-2v-4l1-2v-4l1-2v-2l1-2 1-2v-2l1-2 1-2 1-2 1-2 2-1 2-1h2l2-1 2-1 2-1 2-2 2-2 1-2 2-2.1 1-2v-2l1-2v-8l-1-2v-2l-1-2-2-2-2-2-2-2-2-1-2-1h-2l-2-1-2-1h-2l-2-1-2-1-2-1h-2l-2-1h-2l-2-1-2-1h-2l-2-1-2-1h-2l-2-1-2-1h-2l-2.1-1h-2l-2-1-2-1h-2l-2-1h-2l-2-1-2-1h-2l-2-1h-2l-2-1-2-1.1h-2l-2-1h-2l-2-1h-2l-2-1h-2l-2-1h-2l-2-1h-4.1l-2-1h-2l-2-1h-2l-2-1h-2l-2-1h-2l-2-1h-4l-2-1h-2l-2-1h-2l-2-1h-4l-2-1h-2l-2-1h-2l-2-1h-2l-2.1-1h-2l-2-1h-4l-2-1h-2l-2-1h-2l-2-1h-2l-2-1h-2l-2-1h-2l-2-1h-2l-2-1h-4l-2-1h-2l-2-1h-4.1l-2-1h-2l-2-1h-4l-2-1h-4l-2-1h-4l-2-1h-6l-2-1h-4l-2-1h-6l-2-1h-4.1l-2-1h-4l-2-1h-4l-2-1h-6l-2-1h-4l-2-1h-4l-2-1h-2l-2-1h-4l-2-1h-4l-2.1-1h-2l-2-1h-4l-2-1h-2l-2-1h-2l-2-1h-2l-2-1h-4l-2-1.1h-2l-2-1h-2l-2-1h-2l-2-1h-4l-2-1h-2l-2.1-1h-2l-2-1h-4l-2-1h-2l-2-1h-4l-2-1h-2l-2-1h-4l-2-1h-2l-2-1h-2l-2-1h-2l-2-1h-2l-2-1h-2l-2.1-1h-2l-2-1h-2l-2-1h-2l-2-1h-2l-2-1h-2l-2-1h-2l-2-1h-2l-2-1h-2l-2-1h-2l-2-1h-4l-2-1h-4l-2-1h-4.1l-2-1h-6l-2-1h-25ZM63.1 638.4l2-1h4l2 1h2l2 1 2 1h2l2 1 2 1 2 1h2l2 1 2 1 2 1h2l2 1 2.1 1h2l2 1 2 1h2l2 1h2l2 1 2 1h2l2 1h2l2 1h2l2 1h2l2 1 2 1h2l2 1h2l2 1h2l2 1h2l2.1 1h2l2 1h2l2 1 2 1h2l2 1h2l2 1h2l2 1h2l2 1 2 1h2l2 1h2l2 1h2l2 1h2l2 1 2 1h2l2.1 1h2l2 1h2l2 1 2 1h2l2 1h2l2 1h2l2 1 2 1h2l2 1h2l2 1h2l2 1h2l2 1.1 2 1h2l2 1h2l2.1 1h2l2 1 2 1h2l2 1h2l2 1h2l2 1h2l2 1 2 1h2l2 1h2l2 1h2l2 1 2 1h2l2 1h2l2 1h2.1l2 1h2l2 1h2l2 1 2 1h2l2 1h2l2 1h2l2 1h2l2 1h2l2 1h2l2 1h2l2 1h2l2 1h2l2 1h2.1l2 1h4l2 1h2l2 1h2l2 1h2l2 1h2l2 1h2l2 1h2l2 1h4l2 1h2l2 1h2l2 1h2l2.1 1h2l2 1h2l2 1h4l2 1h2l2 1h2l2 1h2l2 1h4l2 1h2l2 1.1h2l2 1h4l2 1h2l2.1 1h2l2 1h4l2 1h2l2 1h4l2 1h2l2 1h4l2 1h2l2 1h4l2 1h4l2 1h2l2.1 1h4l2 1h4l2 1h4l2 1h2l2 1h4l2 1h4l2 1h2l2 1h4l2 1h4l2.1 1h4l2 1h2l2 1h4l2 1h4l2 1h4l2 1h2l2 1h4l2 1h4l2 1h2l2 1h4.1l2 1h4l2 1h2l2 2-1 2-2 2-1 2-2 2-1 2-2 2-1 2-1 2.1-1 2-1 2-1 2-1 2-1 2-1 2-1 2v2l-1 2-1 2-1 2v2l-1 2v2l-1 2v2l-1 2v2l-1 2v4l-1 2v8.1l-1 2v14l1 2v8l1 2v2l1 2v2l1 2v2l1 2 1 2 1 2v2l1 2.1 1 2 1 2 2 2 1 2-1 2h-6l-2-1h-2l-2-1h-2l-2-1h-4l-2-1h-4l-2-1h-2l-2-1h-2l-2-1h-4l-2-1h-2l-2.1-1h-4l-2-1h-2l-2-1h-2l-2-1h-4l-2-1h-2l-2-1h-4l-2-1h-2l-2-1h-2l-2-1h-4l-2-1h-2l-2-1H501l-2-1h-2l-2-1h-4l-2-1h-2l-2-1h-2l-2-1h-2l-2-1h-2l-2-1h-2l-2-1h-2l-2-1h-2l-2-1h-2l-2-1h-2l-2-1h-2.1l-2-1h-2l-2-1h-2l-2-1h-2l-2-1h-2l-2-1h-2l-2-1h-2l-2-1h-4l-2-1h-2l-2-1h-2l-2-1h-2l-2-1h-2l-2-1h-2.1l-2-1h-4l-2-1h-2l-2-1h-2l-2-1h-2l-2-1h-4l-2-1h-2l-2-1h-2l-2-1h-4l-2-1h-2l-2-1h-4l-2.1-1h-2l-2-1h-4l-2-1h-2l-2-1.1h-4l-2-1h-2l-2-1h-4l-2-1h-2l-2-1h-4l-2-1h-2l-2-1h-2l-2-1h-4.1l-2-1h-2l-2-1h-4l-2-1h-2l-2-1h-2l-2-1h-2l-2-1h-2l-2-1h-2l-2-1h-2l-2-1h-2l-2-1-2-1h-2l-2-1h-2.1l-2-1h-2l-2-1h-2l-2-1-2-1h-2l-2-1h-2l-2-1h-2l-2-1-2-1h-2l-2-2-1-2-1-2v-2l-1-2v-2l-1-2v-2l-1-2v-4l-1-2.1v-4l-1-2v-10l-1-2v-28l1-2v-10.1l1-2v-8l1-2v-4l1-2v-6l-1-2v-2l-1-2-2-2-2-2-2-1h-4l-2.1 1h-2l-2 2-2 2-1 2-1 2-1 2v2l-1 2v2l-1 2v2l-1 2v4l-1 2v4l-1 2v8l-1 2v26l1 2v8l1 2v4l1 2v2.1l1 2v2l1 2v2l1 2 1 2v2l1 2v2h-2l-2-1h-2l-2-1h-2l-2-1h-2l-2-1h-2l-2-1h-2l-2-1-2-1h-2l-2-1h-2l-2-1-2-2-1-2-1-2-1-2v-2l-1-2v-2l-1-2v-4l-1-2v-6l-1.1-2v-34.1l1-2v-8l1-2v-4l1-2v-4l1-2v-4l1-2v-2l1-2v-10.1l-1-2-1-2-2-2-2-1-2-1h-4l-2 1h-2l-2 2-2 2-1 2-1 2-1 2v2l-1 2-1 2v2l-1 2v2l-1 2v2l-1 2v4l-1 2v4l-1 2v6l-1 2v12.1l-1 2v4l1 2v14l1 2v4l1 2v2l1 2v2l1 2v2l1 2 1 2-1 2.1h-2l-2-1h-2l-2-1h-2l-2-1h-2l-2-1h-2l-2-1h-2l-2-1h-2l-2-1h-2.1l-2-1h-2l-2-1-2-1h-2l-2-1h-2l-2-1h-2l-2-1h-2l-2-1-2-1h-2l-2-1-2-1h-2l-2-1-2-2-2-1-2-1-2-2-2-2-2-2-1-2-2.1-2-1-2-1-2-1-2-1-2v-2l-1-2-1-2v-2.1l-1-2v-4l-1-2v-4l-1-2v-6l-1-2v-30.1l1-2v-4l1-2v-4l1-2v-2l1-2 1-2v-2l1-2 1-2v-2l1-2 1-2 1-2 1-2 1-2 1-2 2-2 2-2 1-2.1 2-2 1-1Zm878.8-5 2-1 1 2-2 2-1 2-1 2-1 2-1 2v2l-1 2-1 2-1 2v2l-1 2-1 2v2l-1 2v4l-1 2v2l-1 2v22.1l1 2v4l1 2v2l1 2 1 2v2l1 2 1 2 1 2 1 2 2 2 1 2 1 2 2 2 2 2 2 2 2 1 1 2-2 2-2 1.1-2 2-2 1-2 1-2 1-2 1-2 1-2 2-2 1-2 1-2 1-2 1-2 1-2 1-2 1-2 1-2 2-2 1-2 1-2 1-2 1-2 1-2 1-2.1 1-2 1-2 1-2 1-2 1-2 1-2 1-2 1-2 1-2 1-2 1-2 1-2 1-2 1-2 1-2 1-2 1-2 1-2 1-2 1-2 1-2 1-2 1-2 1-2 1.1-2.1 1-2 1-2 1-2 1-2 1-2 1-2 1-2 1-2 1-2 1-2 1-2 1-2 1-2 1-2 1-2 1-2 1-2 1-2 1-2 1-2 1-2 1-2 1-2 1-2 1-2.1 2-2 1-2 1-2 1-2 1-2 1-2 1-2 2-2 1-2 1-2 1-2 1-2 1-2 2-2 1-2 1-2 1-2 1-2 1-2 2-2 1.1-2 1-2 1-2 1-2 1-2.1 2-2 1-2 1-2 1-2 1-2 1-2 1-2 1-2 2-2 1-2 1-2 1-2 1-2 1-2 1-2 2-2 1-2 1-2 1-2 1-2 2-2 1-2 1-2 1-2 1-2.1 2-2 1-2 1-2 1-2 1-2 2-2 1-2 1-2 1-2 1-2 1-2 1-2 2-2 1.1-2 1-2 1h-2l-2 1-2 1-2 1-2 1h-10.1l-2-1-2-1-2-2-2-2-2-2-2-2-1-2-1-2-2-2-1-2v-2l-1-2-1-2v-2l-1-2v-4l-1-2v-24.1l1-2v-4l1-2v-4l1-2v-2l1-2 1-2v-2l1-2 1-2 1-2 1-2 1-2 1-2 1-2 1-2 1-2 2-2 1-2.1 2-2 1-2 2-2 2-2 2-2 2-2 2-2 2-1 2-2 2-1 2-1 2-2 2-1 2-1 2-1 2-1 2-1 2-1 2-1 2-1 2-1 2-1 2-1 2-1 2-1 2.1-1 2-1 2-1 2-1 2-1 2-1 2-1h2l2-1 2-1 2-2 2-1 2-1 2-1 2-1 2-1.1h2l2-2h2l2-1 2-1 2-1 2-1 2-1 2-1 2.1-1 2-1 2-1 2-2 2-1 2-1 2-1 2-1 2-1h2l2-1 2-1 2-1 2-1 2-1 2-1 2-1 2-2 2-1 2-1 2-1 2-1 2-1 2-1 2-1 2.1-1 2-1 2-1 2-1 2-1 2-1 2-1 2-1 2-1 2-1 2-2 2-1 2-1 2-1 2-1.1 2-1 2-1 2-1 2-1 2-1 2-1 2-2 2-1 2-1 2-1 2.1-1 2-1 2-1 2-1 2-1 2-1 2-1 2-2 2-1 2-1 2-1 2-1 2-1 2-1 2-1 2-1 2-1 2-1 2-1 2-1 2-1 2-1 2-1 2-1 2-1 2.1-1 2-1 2-1 2-1 2-1 2-1 2-1 2-1 2-1 2-1 2-1 2-1.1h2l2-1 2-1 2-1 2-1 2-1 2-1h2l2-1 2-1Zm-29-47.1 2-1h2l2 1h2l2 1h2l2 1h2l2 1h2l2 1h4l2 1h2l2 1h2l2 1 2 1h2l2 1h2l2 1h2l2 1h2l1 2-2 1-2 1-2 1h-2l-2 1-2 1-2 1-2 1-2 1h-2l-2 1-2 1-2 1-2 1-2 1-2 1h-2l-2 1-2 1-2 1-2 1-2 1-2 1-2 1-2 1-2 1-2 1h-2l-2 1-2 1-2 1-2.1 1-2 1-2 1-2 1-2 1-2 1-2 1-2 1-2 1-2 1-2 1.1-2 1-2 1-2 1-2 1h-2l-2 1-2 1-2 1-2 1-2 1-2 1-2 1-2 1-2 1-2.1 1-2 1-2 1-2 1-2 1-2 1-2 1-2 1-2 1-2 1-2 1-2 1-2 1-2 1-2 1-2 1-2 1-2 1-2 1-2 1-2 1-2 1-2 1-2 1-2 1-2.1 1-2 1-2 1-2 1-2 1-2 1-2 1-2 1-2 1-2 1-2 1-2 1.1-2 1-2 1h-2l-2 1-2 1-2 1-2 1-2 1-2 1-2 1-2 1-2 1-2 1-2.1 1-2 1-2 1h-2l-2 1-2 1-2 1-2 1-2 1-2 1-2 1-2 1-2 1-2 1h-2l-2 1-2 1-2 1-2 1-2 1-2 1-2 1-2 1-2 1h-2l-2.1 1-2 1-2 1-2 1-2 1-2 1-2 1h-2l-2 1-2 1-2 1-2 1-2 1-2 1h-2l-2 1-2 1.1-2 1-2 1-2 1-2 1h-2l-2 1-2 1-2 1-2.1 1-2 1-2 1-2 1h-6l-2-1h-4l-2-1h-4l-2-1h-4l-2-1h-2l-2-1h-4l-2-1h-4l-2-1h-2.1l-2-1h-4l-2-1h-2l-2-1h-4l-2-1h-2l-2-1h-4l-2-1h-2l-2-1h-4l-2-1h-2l-2-1h-2l-2-1H551l-2-1h-2l-2-1h-2l-2-1h-4l-2-1h-2l-2-1h-2l-2-1h-4l-2-1h-2l-2-1h-4l-2-1h-2l-2-1h-2l-2-1h-4l-2-1h-2l-2-1h-4l-2-1h-2l-2-1h-2l-2-1h-4l-2-1h-2l-2-1h-4l-2-1h-2l-2-1h-2l-2-1h-2l-2.1-1h-4l-2-1h-2l-2-1h-2l-2-1h-2l-2-1h-4l-2-1h-2l-2-1h-2l-2-1h-2l-2-1h-2l-2-1h-4l-2-1h-2l-2.1-1h-2l-2-1h-2l-2-1h-2l-2-1h-2l-2-1h-2l-2-1h-2l-2-1h-2l-2-1.1h-4l-2-1h-2l-2-1h-2l-2-1h-2l-2-1h-2l-2.1-1h-2l-2-1h-4l-2-1h-2l-2-1-2-1h-4l-2-1h-2l-2-1h-2l-2-1h-2l-2-1h-2l-2-1h-2l-2-1-2-1h-2l-2-1h-2.1l-2-1h-2l-2-1h-2l-2-1h-2l-2-1h-2l-2-1h-2l-2-1h-2l-2-1h-2l-2-1h-2l-2-1-2-1h-2l-2-1h-2l-2-1h-2l-2-1h-2.1l-2-1-2-1h-2l-2-1h-2l-2-1h-2l-2-1h-2l-2-1h-2l-2-1-2-1h-2l-2-1h-2l-2-1h-2l-2-1h-2l-2-1h-2l-2-1h-2.1l-2-1-2-1h-2l-2-1h-2l-2-1h-2l-2-1h-2l-2-1.1-2-1h-2l-2-1h-2l-2-1h-2l-2-1h-2l-2-1h-2l-2-1h-2l-2-1h-2l-2.1-1h-2l-2-1-2-1h-2l-2-1h-2l-2-1h-2l-2-1h-2l-2-1h-2l-2-1-2-1h-2l-2-1h-2l-2-1-2-1h-2l-2-1h-2l-2-1-2-1h-2.1l-2-1-2-1-2-1h-2l-2-1-2-1-2-1-2-1-2-1-1-2 2-2 2-1 2-2 2-1 2-1 2-2 2-1 2-1 2-1 2-1 2-1 2-1 2-1 2-1h6l2 1 2 1h2l2 1h2l2 1h2l2 1h2l2 1h2l2 1h2l2 1h2l2.1 1h2l2 1h2l2 1h2l2 1h2l2 1h2l2 1h2l2 1h4l2 1h2l2 1h2l2 1h4l2 1h2l2 1h2.1l2 1h2l2 1h4l2 1h2l2 1h2l2 1h2l2 1h2l2 1h2l2 1h4l2 1h2l2 1h2l2 1h2l2.1 1h2l2 1h2l2 1h2l2 1h2l2 1h2l2 1h2l2 1h2l2 1h2l2 1h2l2 1h2l2 1h2l2 1h2l2.1 1h2l2 1h2l2 1h4l2 1h2l2 1h2l2 1h2l2 1h2l2 1h2l2 1h2l2 1h2l2 1h2l2 1h4.1l2 1h2l2 1h2l2 1h2l2 1h4l2 1h2l2 1h2l2 1h4l2 1h2l2 1h2l2 1h4l2 1h2.1l2 1h4l2 1h2l2 1h4l2 1h2l2 1h2l2 1h4l2 1h2l2 1h2l2 1h4l2 1h2l2.1 1h2l2 1h4l2 1h2l2 1h2l2 1h2l2 1h2l2 1h2l2 1h2l2 1h2l2 1h2l2 1h2l2 1h2l2.1 1h2l2 1h4l2 1h2l2 1h2l2 1h2l2 1h2l2 1.1h2l2 1h2l2 1h2l2 1h4l2 1h2l2 1h2.1l2 1h2l2 1h4l2 1h2l2 1h4l2 1h2l2 1h4l2 1h2l2 1h4l2 1h2l2 1h4.1l2 1h4l2 1h4l2 1h4l2 1h6l2 1h10l2 1h12.1l2-1h6l2-1h4l2-1h2l2-1h2l2-1 2-1 2-1h2l2-1 2-1 2-1 2-1 2-1 2-2 2-1 2-1 2.1-1 2-1 2-1 2-1 2-1 2-1 2-1 2-1 2-1 2-1 2-2 2-1 2-1 2-1 2-1 2-1 2-1 2-1 2-1 2-1 2-1 2-1 2-1 2-2 2-1 2.1-1 2-1 2-1 2-1 2-1 2-1 2-1 2-1 2-1 2-1 2-1 2-1 2-1 2-1 2-1 2-1 2-1 2-1 2-1 2-1 2-1 2-1 2-1 2-1.1 2-1 2.1-1 2-1 2-1 2-1 2-1 2-1h2l2-1 2-1 2-1 2-1 2-1 2-1 2-1 2-1 2-1 2-1 2-1 2-1 2-1 2-1 2-1 2-1 2-1h2l2.1-1 2-1 2-1 2-1 2-1 2-1 2-1 2-1 2-1 2-1 2-1 2-1 2-1 2-1 2-1 2-1h2l2-1 2-1 2-1 2-1 2-1 2-1 2-1 2-1 2.1-1 2-1.1 2-1 2-1 2-1 2-1h2l1-1Zm-1-141.3 2-1v2l-1 2v2l-1 2-1 2-1 2-1 2-1 2-1 2v2l-1 2v2l-1 2v2l-1 2v2l-1 2v2l-1.1 2v6.1l-1 2v18l1 2v4l1 2v4l1 2 1 2v2l1 2 1 2 1 2 1 2 1 2 1 2.1 1 2 2 2 1 2v2l-2 2-2 1-2 1-2 1-2 1-2 1-2 1-2 1-2 1-2 1-2 1-2 1-2 1-2 1-2 1h-2l-2 2h-2l-2 1-2 1-2 1-2 1-2 1-2 1-2 1-2 1-2 1-2 1-2 1-2 1-2 1-2.1 1h-2l1-2v-6l1-2v-26l-1-2v-8l-1-2v-2l-1-2-1-2-2-2-2-1-2-1-2 1h-2l-2 1-2 2-1 2-1 2v4l-1 2v4l1 2v16l-1 2v12l-1 2v4l-1 2v6l-1 2v2.1l-1 2-2 2-2 1-2 1-2 1-2 1-2 1-2 1-2 1-1-2v-2l1-2v-4l1-2v-12l1-2v-6l-1-2v-14l-1-2v-4l-1-2v-2.1l-2-2-2-2-2-1h-4.1l-2 1-2 1-1 2-1 2-1 2-1 2v26l-1 2v8l-1 2v6.1l-1 2v6l-1 2v2l-1 2v4l-1 2-1 2-1 2-2 1-2 1-2 1-2 1-2 1-2 1-2 1-2 1-2 1-2 1-2 1-2 2-2 1-2 1-2 1-2.1 1-2 1-2 1-2 1-2 1-2 1-2 1.1-2 1-2 1-2 1-2 1-2 1-2 1-2 1-2 1-2 1-2 1-2 1-2 1-2 1-2 1-2 1-2 1-2 1-2.1 1-2 1-2 1-2 1-2 1-2 1-2 1-2 1-2 1h-2l-2 1-2 1-2 1-2 1-2 1h-2l-2 1h-4l-2-1-2-1-2-1-2-2-2-2-2-2-1-2-1.1-2-1-2-1-2-1-2-1-2v-2l-1-2v-2l-1-2v-4l-1-2v-4l-1-2v-24l1-2v-6l1-2v-2l1-2.1v-2l1-2v-2l1-2v-2l1-2 1-2 1-2 1-2 1-2 1-2 1-2 2-2 1-2 2-2 2-2 1-2 2-1 2-2 2-2 2-1 2-1 2-1 2-1 2-1 2-1 2-1 2-1 2-1 2-1.1h2l2-1 2-1 2.1-1 2-1 2-1h2l2-1 2-1 2-1 2-1 2-1 2-1h2l2-1 2-1 2-1 2-1 2-1 2-1 2-1h2l2-1 2-1 2-1 2-1 2-1 2-1 2.1-1 2-1 2-1h2l2-1 2-1 2-1 2-1 2-1 2-1 2-1 2-1 2-1h2l2-1 2-1 2-1 2-1 2-1 2-1h2l2-1 2-1 2-1 2-1 2.1-1 2-1h2l2-1 2-1.1 2-1 2-1 2-1 2-1h2l2-1 2-1 2-1 2-1 2-1 2-1 2-1 2-1 2-1 2-1 2-1 2-1 2-1 2-1 2-1 2.1-1 2-1 2-1 2-1 2-1h2l2-1 2-1 2-1 2-1 2-1 2-1 2-1 2-1 2-1h2l2-1 2-1 2-1 2-1 2-1 2-1h2l2-1 2-1 2.1-1h2l2-1 2-1 2-1h2l2-1Zm-99.3-49 2-1h4l2 1h2l2 1h4l2 1h2l2 1h2l2 1h2l2 1h2l2 1h2.1l2 1h4l2 1h2l2 1h2l2 1h4l2 1h2l2 1h2l2 1h2l2 1h2l2 1h4l2 1h2l2 1h2.1l2 1 2 1h2v2l-2 1h-2l-2 1-2 1-2 1-2 1-2 1h-2l-2 1-2 1-2 1-2 1-2 1h-2l-2 1-2 1-2 1-2 1-2 1-2 1h-2l-2 1-2 1-2 1-2 1-2 1-2.1 1-2 1-2 1-2 1-2 1h-2l-2 1-2 1-2 1-2 1-2 1-2 1-2 1h-2l-2 1-2 1-2 1-2 1-2 1h-2l-2 1-2 1-2 1-2 1-2 1-2.1 1h-2l-2 1-2 1-2 1-2 1-2 1h-2l-2 1-2 1-2 1-2 1h-2l-2 1-2 1-2 1-2 1-2 1h-2l-2 1-2 1-2 1-2 1h-2l-2 1-2.1 1-2 1-2 1-2 1h-2l-2 1-2 1.1-2 1-2 1h-2l-2 1-2 1-2 1-2 1-2 1h-2l-2 1-2 1-2 1-2 1-2 1h-2l-2 1-2 1-2.1 1-2 1h-2l-2 1-2 1-2 1-2 1h-2l-2 1-2 1-2 1-2 1-2 1h-2l-2 1-2 1-2 1h-2l-2 1-2 1-2 1-2 1-2 1-2 1-2 1-2.1 1-2 1-2 1-2 1-2 1-2 2-2 1-2 2-2 1-2 2-2 1-2 2.1-2 2-1 2-2 2-2 2-1 2-2 2-1 2-1 2-1 2-2 2-1 2-1 2-1 2-1 2-1 2v2l-1 2-1 2v2l-1 2-1 2v2l-1 2-1 2v4.1l-1 2v2l-1.1 2v6l-1 2v30l1 2v4.1l1 2v4l1 2v2l1 2 1 2v2l1 2 1 2 1 2 1 2 1 2 1 2v2l-2 1-2-1h-6l-2-1h-4l-2-1h-4l-2-1h-4l-2-1h-4l-2-1h-4l-2-1h-2l-2-1h-4l-2-1h-2l-2-1H552l-2-1h-2l-2-1h-2l-2-1h-2l-2-1h-4l-2-1h-2l-2-1h-2l-2-1h-2l-2-1h-4l-2-1h-2l-2-1h-2l-2-1h-2l-2.1-1h-2l-2-1h-2l-2-1h-2l-2-1h-2l-2-1h-2l-2-1h-2l-2-1h-2l-2-1h-2l-2-1h-2l-2-1h-2l-2-1h-2l-2-1h-2l-2-1h-2.1l-2-1h-2l-2-1h-2l-2-1h-4l-2-1h-2l-2-1h-2l-2-1h-2l-2-1h-2l-2-1h-4l-2-1h-2l-2-1h-2l-2-1h-4.1l-2-1h-2l-2-1h-4l-2-1h-2l-2-1h-2l-2-1h-4l-2-1h-2l-2-1h-2l-2-1h-2l-2-1h-4l-2-1h-2l-2-1h-2.1l-2-1h-2l-2-1h-2l-2-1h-2l-2-1h-4l-2-1h-2l-2-1h-2l-2-1h-2l-2-1h-2l-2-1h-2l-2-1h-2l-2-1h-2l-2-1h-2.1l-2-1h-2l-2-1h-2l-2-1h-2l-2-1h-2l-2-1h-2l-2-1h-2l-2-1h-2l-2-1h-2l-2-1h-2l-2-1-2-1h-2l-2-1.1h-2l-2-1h-2.1l-2-1h-2l-2-1h-2l-2-1h-2l-2-1h-2l-2-1h-2l-2-1h-2l-2-1h-2l-2-1h-4l-2-1h-2l-2-1h-2l-2-1h-4l-2.1-1h-2l-2-1h-2l-2-1h-4l-2-1h-2l-2-1h-2l-2-1h-4l-2-1h-2l-2-1h-2l-2-1h-2l-2-1h-2l-2-1-2-1h-2l-2.1-1h-2l-2-1-2-1h-2l-2-1h-2l-2-1-2-1h-2l-2-1-2-1h-2l-2-1-2-1-2-1-2-1-2-1-2-1-2-2-2-1-2-2-1-2-2-2-1-2-1-2.1-1-2-1.1-2-1-2-1-2v-2l-1-2v-2l-1-2v-2l-1-2v-2l-1-2v-6l-1-2V478l1-2v-2l1-2v-4l1-2v-2l1-2 1-2v-2l1-2 1-2 1-2 1-2 1-2 1-2 1-2 1-2 2-2.1 1-2 2-2 2-2 2-2 2-2 2-1 2-2 2-1 2-1h4l2 1h4l2 1h4l2 1h4.1l2 1h4l2 1h2l2 1h4l2 1h2l2 1h4l2 1h4l2 1h2l2 1h6l2 1h4.1l2 1h6l2 1h4l2 1h6l2 1h4l2 1h4l2 1h4l2 1h4l2 1h4.1l2 1h2l2 1h4l2 1h4l2 1h2l2 1h4l2 1h2l2 1h4l2 1h2l2 1h4.1l2 1h2l2 1h4l2 1h2l2 1h2l2 1h4l2 1h4l2 1h4l2 1h2l2 1h4l2 1h4.1l2 1h2l2 1h4l2 1h2l2 1h4l2 1h2l2 1h4l2 1h4l2 1h4l2 1h2l2.1 1h4l2 1h2l2 1h4l2 1h4l2 1h4l2 1h2l2 1h4l2 1h4l2 1h2l2 1h4.1l2 1h4l2 1h2l2 1h4l2 1.1h2l2 1h4l2 1h2l2 1h4l2 1h2l2 1h4l2.1 1h4l2 1h2l2 1h4l2 1h2l2 1h4l2 1h2l2 1h4l2 1h2l2 1h4l2 1h4.1l2 1h6l2 1h4l2 1h4l2 1h6l2 1h8l2 1h12.1l2 1h6l2-1h14l2-1h4l2-1 2-1h2l2-1 2-1 2-1h2l2-1 2.1-1 2-1 2-1 2-1 2-2 2-1 2-1 2-1 2-1 2-1 2-1 2-2 2-1 2-1 2-1 2-2 2-1 2-1 2-1 2-2 2-1 2-1 2-1 2-1 2-2 2.1-1 2-1 2-2 2-1 2-1 2-1 2-2 2-1 2-1 2-1 2-2 2-1 2-1 2-2 2-1 2-1 2-1 2-2 2-1 2-1 2-1 2-2 2-1 2-1.1 2-2 2.1-1 2-1 2-2 2-1 2-1 2-1 2-2 2-1 2-1 2-2 2-1 2-1 2-2 2-1 2-1 2-2 2-1 2-1 2-2 2-1 2-1 2-2 2-1 2-1 2-2 2.1-1 2-1 2-2 2-1 2-1 2-2 2-1 1-1ZM120.2 252.5l2-1h4l2 1h4l2 1 2 1h2l2 1 2 1h2l2 1 2.1 1 2 1h2l2 1 2 1 2 1 2 1h2l2 1 2 1 2 1h2l2 1 2 1 2 1 2 1h2l2 1 2 1h2l2 1 2 1 2 1h2l2 1 2.1 1h2l2 1h2l2 1 2 1h2l2 1h2l2 1 2 1h2l2 1h2l2 1h2l2 1.1h2l2 1h2l2 1h2l2 1h2l2 1h2.1l2 1h2l2 1h4l2 1h2l2 1h2l2 1h2l2 1h2l2 1h2l2 1h2l2 1h2l2 1h2l2 1h2l2 1h4.1l2 1h2l2 1h2l2 1h2l2 1h4l2 1h2l2 1h2l2 1h4l2 1h4l2 1h4l2 1h4.1l2 1h2l2 1h4l2 1h4l2 1h4l2 1h4l2 1h4l2 1h2l2 1h4l2 1h2.1l2 1h4l2 1h4l2 1h2l2 1h4l2 1h2l2 1h4l2 1h2l2 1h2l2 1h4l2 1h2.1l2 1h4l2 1h2l2 1h2l2 1h2l2 1.1h2l2 1h4l2 1h2l2 1h2l2 1h4l2 1h2l2 1h2.1l2 1h4l2 1h2l2 1h4l2 1h2l2 1h4l2 1h4l2 1h4l2 1h4l2 1h4.1l2 1h4l2 1h4l2 1h6l2 1h6l2 1 2 2-1 2-1 2-1 2-1 2-1 2-1 2-1 2-1 2-1 2v2l-1 2-1 2v2l-1 2.1v2l-1 2v4l-1 2v6l-1 2v26l1 2v4.1l1 2v4l1 2v2l1 2v2l1 2 1 2v2l1 2 1 2 1 2 1 2v2l2 2 1 2 1 2 1 2 2 2 1 2v2h-10l-2-1h-6l-2-1h-6l-2-1h-4l-2-1h-4l-2-1h-4l-2-1h-4l-2-1h-2l-2-1h-4l-2-1h-2l-2-1h-4l-2-1h-2l-2-1h-2l-2-1H502l-2-1h-2l-2-1h-4l-2-1h-2l-2-1h-2l-2-1h-2l-2-1h-2l-2-1h-2l-2-1h-4l-2-1h-2l-2-1h-2l-2-1h-4.1l-2-1h-2l-2-1h-4l-2-1h-2l-2-1h-4l-2-1h-2l-2-1h-4l-2-1h-2l-2-1h-4l-2-1h-4l-2-1h-2.1l-2-1h-4l-2-1h-2l-2-1h-4l-2-1h-2l-2-1h-4l-2-1h-2l-2-1h-2l-2-1h-2l-2-1h-2l-2-1h-4l-2.1-1h-2l-2-1h-2l-2-1h-2l-2-1h-4l-2-1h-2l-2-1h-2l-2-1h-4l-2-1h-2l-2-1h-2l-2-1h-2l-2-1h-4l-2.1-1h-2l-2-1h-2l-2-1-2-1h-4l-2-1h-2l-2-1h-2l-2-1h-2l-2-1-2-1h-2l-2-2-1-2v-2l-1-2v-2l-1-2v-4l-1-2v-8.1l-1-2v-6l-1-2v-32l1-2v-6.1l1-2v-14l-1-2-1-2-1-2-2-1-2-1-2-1h-2l-2.1 1h-2l-2 1-2 2-1 2-1 2-1 2-1 2v2l-1 2v2l-1 2v2l-1 2v2l-1 2v4l-1 2v4l-1 2v26l1 2v6.1l1 2v2l1 2v2l1 2 1 2v2l1 2 1 2-1 2h-2l-2-1h-4l-2-1h-2l-2-1h-4l-2-1h-2l-2-1h-4l-2-1h-2l-2-1h-2l-2.1-1-2-1-1-2-1-2v-4l-1-2v-2l-1-2v-4l-1-2v-4l-1-2v-6l-1-2v-16l-1-2 1-2v-12.1l1-2v-6l1-2v-4l1-2v-12l-1-2-1-2-2-2-2-1-2-1h-6l-2 1-2 1-2 2-2 2-1 2-1 2v2l-1 2-1 2-1 2v2l-1 2v2l-1 2v2l-1 2v4l-1 2v4l-1 2v26l1 2v4l1 2v2l1 2v2l1 2v2l1 2.1 1 2 1 2v4h-2l-2-1h-2l-2-1h-4l-2-1h-2l-2-1h-2.1l-2-1h-2l-2-1h-4l-2-1h-2l-2-1h-2l-2-1-2-1h-2l-2-1h-2l-2-1-2-1-2-1-2-1-2-1-2-1-2-2-2-2-2-1-2-2-2.1-2-1-2-1-2-2-2-1-2-1-2-1-2-1-2-1-2-1-2-1-2v-2l-1-2v-2l-1-2.1v-2l-1-2v-2l-1-2v-6l-1-2v-22l1-2v-2l1-2v-2l1-2v-2.1l1-2v-2l1-2 1-2 1-2 1-2 1-2 1-2 1-2 1-2 2-2 1-2 2-2 2-2 2-2 2-2 2-2 2-1 2-1 2-1 2-1h1Zm736.5-45h2l-1 2-1 2-1 2-1 2-1 2-1 2-1 2-1 2-1 2v2l-1 2-1 2v2l-1 2v4l-1 2v2l-1 2v8l-1 2v16l1 2v4l1 2v2l1 2v2l1 2.1v2l1 2 1 2 1 2 1 2 1 2 1 2 1 2 1 2 2 2 1 2 2 2 2 2 2 2 1 2v2l-2 1-2 2-2 2-2 1-2 1-2 2-2 1-2 1-2 2-2 1-2 1-2 1-2 2.1-2 1-2 1-2 2-2 1-2 1-2 2-2 1-2 1-2 2-2 1-2 2-2 1-2 1-2 2-2 1-2 2-2 1-2 2-2.1 1-2 2-2 1-2 2-2 1-2 2-2 1-2 1-2 2-2 1-2 2-2 1-2 1-2 2-2 1-2 1-2 2.1-2 1-2 1-2 1-2 2-2 1-2 1-2 2-2 1-2.1 1-2 1-2 2-2 1-2 1-2 1-2 2-2 1-2 1-2 1-2 2-2 1-2 1-2 1-2 1-2 2-2 1-2 1-2 1-2 2-2 1-2 1-2 2-2 1-2 2-2.1 1-2 2-2 1-2 2-2 1-2 2.1-2 1-2 2-2 1-2 2-2 1-2 2-2 1-2 1-2 2-2 1-2 2-2 1-2 1-2 2-2 1-2 1-2 2-2 1-2 1-2.1 1-2 1-2 2-2 1-2 1h-2l-2 1-2 1-2 1h-10l-2-1-2-2-2-1-2-2-1-2-2-2-2-2-1-2-1-2-1-2-1-2-1-2-1-2v-2l-1-2-1-2v-2l-1-2v-2l-1.1-2v-4l-1-2v-28l1-2v-2l1-2v-4.1l1-2 1-2v-2l1-2 1-2 1-2v-2l1-2 1-2 1-2 2-2 1-2 1-2 1-2 2-2 2-2 2-2 1-2 2-2 2-2 2-2 2-2 2-2 2-2 2-1 2-2.1 2-2 2-1 2-2 2-1 2.1-2 2-2 2-1 2-2 2-1 2-2 2-1 2-2 2-1 2-2 2-1 2-1 2-2 2-1 2-2 2-1 2-2 2-1 2-2 2-1 2-1 2-2 2-1 2-2 2-1 2.1-2 2-1 2-1 2-2.1 2-1 2-2 2-1 2-2 2-1 2-2 2-1 2-2 2-1 2-1 2-2 2-1 2-1 2-2 2-1 2-2 2-1 2-1 2-1 2-2 2-1 2.1-1 2-2 2-1 2-1 2-1 2-2 2-1 2-1 2-1 2-1 2-2 2-1 2-1 2-1 2-1 2-1 2-2.1 2-1 2-1 2-1 2-1 2-1 2-1 2-1 2.1-2 2-1 2-1 2-1 2-1 2-1 2-1 2-1 2-1 2-1 2-1 2-1 2-1 2-1 2-1 2-1 2-1h2l2-1 2-1 2-1 2-1h2l2-1 2-1h2.1l2-1h2l2-1h2ZM411.8 96.2l2-1h28l2 1h4.1l2 1h4l2 1h4l2 1h4l2 1h2l2 1h2l2 1h2l2 1h4l2 1h2l2 1h2l2 1h2l2.1 1h2l2 1h4l2 1h2l2 1h2l2 1h4l2 1h2l2 1h4l2 1h2l2 1h4l2 1h4l2.1 1h2l2 1h4l2 1h4l2 1h2l2 1h4l2 1h4l2 1h2l2 1h2l2 1h4l2 1h4.1l2 1h2l2 1h4l2 1h2l2 1h4l2 1h4l2 1h4l2 1h6l2 1h6l2.1 1h6l2 1h6l2 1.1h8l2 1h8l2 1h6l2 1h6.1l2 1h6l2 1h6l2 1h4l2 1h4l2 1h6l2 1h4l2 1h4l2.1 1h4l2 1h4l2 1h4l2 1h4l2 1h4l2 1h4l2 1h4l2 1h2l2 1h4.1l2 1h4l2 1h2l2 1h4l2 1h2l2 1h2l2 1h2l2 1h2l2 1h2l2 1h2l2 1h2l2 1h2l2.1 1 2 1h2l2 1 2 1h2l2 1 2 1h2l2 1 2 1 2 1h2l1 2-2 1h-2l-2 1h-2l-2 1h-2l-2 1-2 1h-2l-2 1h-2l-2 1-2 1h-2l-2 1.1-2 1h-2l-2 1-2 1-2 1h-2l-2 1-2 1-2 1-2 1-2 1h-2l-2 1-2 1-2 1-2 1-2 1-2 1-2 1-2 1-2.1 1-2 1-2 1-2 1-2 1-2 1-2 1-2 1-2 1-2 2-2 1-2 1-2 1-2 1-2 1-2 1-2 1-2 1-2 1-2 2-2 1-2 1-2 1-2 1-2 1-2.1 2-2 1-2 1-2 1.1-2 1-2 2-2 1-2 1-2 1-2 1-2 1-2 2-2 1-2 1-2 1-2 2-2 1-2 1-2 1-2 2-2 1-2 1-2 1-2 2-2 1-2.1 1-2 2-2 1-2 1-2 1-2 2-2 1-2 1-2 2-2 1-2 1-2 2-2 1-2 1-2 2-2 1-2 1-2 2.1-2 1-2 2-2 1-2 1-2 2-2 1-2 1-2.1 2-2 1-2 2-2 1-2 2-2 1-2 1-2 2-2 1-2 2-2 1-2 2-2 1-2 2-2 1-2 2-2 2-2 1-2 2-2 1-2 2-2 2-2 1-2 1h-10.1l-2-1h-10l-2-1h-6l-2-1h-8l-2-1h-4l-2-1H551l-2-1h-4l-2-1h-4l-2-1h-4l-2-1h-2l-2-1h-4l-2-1h-2l-2-1h-2l-2-1h-4l-2-1h-2l-2-1h-2l-2-1h-2l-2-1h-4l-2-1h-2l-2-1h-2l-2-1h-2l-2-1h-2l-2-1h-2l-2-1h-2l-2-1h-2l-2-1h-2l-2-1-2-1h-2l-2.1-1h-2l-2-1h-2l-2-1h-2l-2-1h-2l-2-1h-2l-2-1h-2l-2-1h-2l-2-1h-2l-2-1h-2l-2-1h-4l-2-1h-2l-2-1h-2l-2.1-1h-4l-2-1h-2l-2-1h-2l-2-1h-4l-2-1h-2l-2-1h-4l-2-1h-4l-2-1h-2l-2-1h-4l-2-1h-2l-2.1-1h-4l-2-1h-4l-2-1h-2l-2-1h-2l-2-1h-4l-2-1h-4l-2-1h-2l-2-1h-4l-2-1h-2l-2-1h-2l-2.1-1h-4l-2-1h-2l-2-1h-4l-2-1h-2l-2-1h-4l-2-1h-2l-2-1h-4l-2-1h-2l-2-1h-4l-2-1h-2l-2.1-1h-2l-2-1h-4l-2-1h-2l-2-1h-2l-2-1h-2l-2-1h-2l-2-1h-2l-2-1h-2l-2-1h-2l-2-1-2-1h-2l-2-1h-2l-2.1-1-2-1h-2l-2-1-2-1h-2l-2-1-2-1h-2l-2-1-2-1h-2l-2-1-2-1.1-2-1-2-1h-2l-2-1-2-1-2-1-2-1-2-1-2-1-2-1-2-1v-2l2-1 2-1 2-1 2-1 2-1 2-2 2-1 2-1 2-1 2-1 2-1 2-1 2-1 2-2 2-1 2-1 2-1 2-1 2-1 2-1 2-1 2-1 2-2 2-1 2-1 2-1 2-1 2-1 2-1 2-1 2-1 2-1 2-2 2-1.1 2-1 2-1 2-1 2-1 2-1 2-1 2-1 2-2 2-1 2-1 2-1 2-1 2.1-1 2-1 2-1 2-2 2-1 2-1 2-1 2-1 2-1 2-1 2-1 2-2 2-1 2-1 2-1 2-1 2-1 2-1 2-2 2-1 2-1 2-1 2-1 2-1 2-1 2.1-1 2-1 2-2 2-1 2-1 2-1 2-1.1 2-1 2-1 2-1 2-1 2-1 2-1 2-1 2-2 2-1 2-1 2-1 2-1 2-1 2-1 2-1 2-1 2-1 2-1 2.1-1 2-1 2-1 2-1h2l2-1 2-1 2-1 2-1 2-1 2-1 2-1 2-1 2-1h2l2-1 2-1 2-1 2-1 2-1 2-1 2-1 2-1 2-1h2l2.1-1 2-1 2-1h4l2-1h2Z"/></svg>