<svg xmlns="http://www.w3.org/2000/svg" width="1000" height="1000" viewBox="0 0 1000 1000"><path fill="#141413" d="M490.1.4c-11.3.4-11.2.4-11.8 1-.4.4-.7.4-5 .4-4 .1-4.5.1-4.9.5-.3.3-1.2.4-6.6.8-5.6.4-6.3.5-6.8.8s-.9.5-2.8.5c-2 .1-2.2.1-2.6.5-.5.5-.7.5-2.7.5s-2.2 0-4.4.9-2.4.9-4.5.9c-2.2 0-2.3 0-4.5.9-2.1.8-2.5.9-4 .9-1.7 0-2.1.1-5.7 1.3-3.7 1.2-4 1.3-5.8 1.3-1.9 0-2 0-3.8.9-1.6.8-2 .9-3 .9-1.2 0-1.6.1-3.2 1s-2.2.9-5 1.3c-3.1.5-3.7.6-7.3 2.2-1.8.8-2.2.9-3.4.9-1.3 0-1.6.1-3.3.9s-2 .9-3 .9c-1.1 0-2 .3-6.3 1.8-4.4 1.6-5 1.8-6.3 1.8s-1.8.2-7.3 2.3-6.1 2.3-7.3 2.3c-1.1 0-2.4.4-11 3.2a62 62 0 0 0-11 4.1c-1.1.8-1.8 1-4.9 1.8s-3.8 1-4.9 1.8c-1.1.7-1.6.9-3.5 1.3-2 .4-2.8.7-8.8 3.5a33 33 0 0 1-7.7 3.1c-1 .1-1.5.3-3.5 1.6a23 23 0 0 1-7 2.8l-4.6 1.4-20.1 9.8c-17.8 8.7-20.2 10-21.1 10.8s-1.8 1.3-6.7 3.6a26 26 0 0 0-6.6 3.5c-.7.7-2.7 1.8-7.8 4.6l-6.8 3.6-12.7 10-12.6 9.9-18 18.5c-18.1 18.5-18.2 18.6-25.3 27a352 352 0 0 0-27.5 37.4 247 247 0 0 0-11.7 20.2c-4 7.6-5 9.6-5.8 10.4-.9.9-1.4 1.8-3.7 6.9-2.3 5-2.9 6-3.7 6.9s-1.5 2.1-5 9.4c-3.3 7-4 8.6-4.8 9.4-1.4 1.4-9.2 17.1-9.2 18.3 0 .7-.4 1.6-2.2 4.9-1.9 3.2-2.3 4.2-2.4 5-.1 1-.4 1.7-1.3 3.2-1 1.7-1.4 2.6-2.1 5.1-.8 2.7-1.3 4-4.4 10.5-3 6.6-3.6 8-5.4 13.2a95 95 0 0 1-5.5 13.3 87 87 0 0 0-7.3 20c0 1.2-.1 1.7-1.4 4.6-1.3 3-1.4 3.5-1.4 4.7 0 1.1-.1 1.5-.9 3.1s-.9 2-.9 3.1c0 1-.1 1.5-.9 3.1s-1 2.2-1.3 5c-.4 3-.5 3.4-2.7 9.5s-2.3 6.5-2.3 8q0 1.7-.3 2-.4.3-.5 2.2c-.1 1.5-.4 2.5-1.5 5.7-1.3 3.8-1.3 4-1.3 5.9 0 1.6 0 2-.3 2.4s-.4.8-.5 2.7 0 2.4-.5 2.8c-.3.4-.4.7-.5 2.7q0 2.3-.4 2.6c-.2.3-.3.8-.4 2.7 0 2 0 2.4-.5 2.8-.3.4-.4.7-.5 2.7q0 2.4-.4 2.6c-.2.3-.3.8-.4 2.7 0 2 0 2.4-.5 2.8-.3.4-.4.7-.5 2.7q0 2.3-.4 2.6c-.2.3-.3.9-.4 3 0 2.3 0 2.9-.4 3.2l-.5.7-.5 8.2c-.4 7.4-.5 8-.9 8.4s-.5 1.6-1 19.1c-.3 12.5-.4 12.8-.8 13.3s-.4.5-.4 11.7v11.3l.4.4.5.5v17.1c.1 15.9.1 17.2.4 17.5s.4 1 .4 6.3c.1 5.8.1 6 .5 6.4s.5.7.5 4.1c.1 3.2.1 3.7.5 4 .3.4.4 1.3.8 7.1.4 6 .5 6.7.8 7.2s.5.9.5 2.8c.1 1.9.2 2.2.5 2.6.4.5.5.8.5 3.2.1 2.3.2 2.8.5 3.2.3.3.4 1.2.8 5.2.4 4.9.4 4.9 1.4 7.2a15 15 0 0 1 1.2 5.4c.4 4.3.6 5.2 1.1 5.7.4.4.9 2.6 2.7 10.8l2.3 10.4 6.8 20.3a189 189 0 0 0 8.4 23.7c.1.9.3 1.4 1 2.4.8 1.1 1.3 2.4 2.7 6.7 1.6 4.9 1.9 5.5 3.5 8.3 1.4 2.5 1.7 3.2 1.8 4.2s.6 1.9 2.8 5.9 2.6 4.9 2.6 5.8c.1 1 1.2 3.1 9.6 19l9.4 18 4.6 7c4.3 6.4 5.2 7.6 12.2 16.2 7.5 9.2 7.6 9.4 14 18.9 6.2 9.4 6.7 10 22.5 30.6a327 327 0 0 1 19.8 26.7c1.6 1.7 1.9 2 2.3 3.2s.6 1.5 2.2 3.1c1.4 1.4 2.4 2.7 4.5 5.8l2.7 4 11.3 12.2 11.3 12.3 10.9 9 10.8 9 11.7 8.1a106 106 0 0 0 13 8.5 34 34 0 0 1 6.6 4l5.4 3.6 13.8 6.9a97 97 0 0 0 14.7 6.9c.8 0 2.8.8 11.3 4.5a83 83 0 0 0 15.2 5.8c4.3 1.2 5 1.4 6.2 2.2 2 1.3 9.1 3.7 11 3.7 1.2 0 1.7.1 4.6 1.4 3 1.2 3.5 1.4 4.6 1.4s1.4.1 3 .9 2 .9 3.2.9 1.6.1 3.2.9 2 .9 3 .9q1.4 0 1.6.3.4.4 1.8.5t1.8.5 1.9.5q1.4 0 1.8.4.3.3 1.7.4 1.4 0 1.8.5c.3.3.8.4 2.4.5s2.5.3 5.5 1.4c3.3 1.1 3.7 1.2 5.3 1.2s1.8 0 2 .4c.5.5.5.5 7.5 1.5 5.6.8 6.1 1 8.3 1.8s2.5.9 6.3 1.3 4.1.5 6.2 1.3c2 .8 2.4.9 4 .9s2.1.1 4.5.9c2.5.8 2.8.9 4.9.9 2 0 2.2 0 2.7.4s.7.5 2.7.6q2.4 0 2.6.4c.3.2.8.3 2.7.4 2 0 2.4 0 2.8.5s.7.4 3.2.5c2.2 0 2.8.1 3 .4.4.2 1 .3 4 .4 3.2 0 3.7 0 4.1.4l.8.5 11.9.5c10 .4 14.4.4 34.3.4a160 160 0 0 0 28.1-.8c4.3-.1 4.6-.1 5-.5s1-.5 6.7-.8c8.1-.4 9.2-.6 9.8-1 .4-.4 1-.5 7-.9l6.5-.4 2.3-.8a13 13 0 0 1 5.1-1c2.5 0 2.8-.1 3.2-.5s.8-.5 2.8-.5c2-.1 2.4-.2 2.8-.5s1.9-.6 8.8-1.7a41 41 0 0 0 10.7-2.2 9 9 0 0 0 3.3-.9c2.1-.8 2.4-.9 4-.9s2 0 4.1-.9c2.2-.8 2.5-.9 4.2-.9s1.9 0 3.7-.9c1.5-.8 2-.9 3-.9s1.7-.2 3.5-.9c2.2-.8 2.5-.9 4.2-.9s1.9 0 3.8-1c1.8-.8 2.4-1 5.9-1.7s5-1.1 15.4-4.6a79 79 0 0 0 12.8-4.6c1-.7 1.6-1 3.4-1.3 1.9-.3 2.6-.6 6.6-2.6 3.6-1.8 4.6-2.2 5.3-2.2s2.1-.6 9-4c6.8-3.5 8.2-4.1 9.2-4.2s2.1-.6 8.5-4c6.3-3.4 7.4-3.9 8.5-4s1.4-.4 4-2a51 51 0 0 1 8.6-4.6c5-2.3 6-2.8 6.8-3.6a8 8 0 0 1 3.1-1.8 8 8 0 0 0 3.1-1.8c.7-.7 3-2 9.1-5.5 7.2-4 9.5-5.3 19.8-12.1l11.7-7.6 16.6-13 16.7-13.1 13.2-12.7a207 207 0 0 0 18-18.5c3.7-3.8 6.2-6.5 13.7-15.6a95 95 0 0 0 10.2-12.9c.7-1.4 2.5-3.9 6.8-9.5 5.4-7 6.3-8.3 11.3-16.2 3.9-6.1 5.5-9 5.8-9.9a191 191 0 0 0 15.7-27.9 184 184 0 0 0 11.9-23.1c0-1 .6-2.1 4-8.7 3.6-6.7 4-7.6 4.2-8.8.1-1 .6-2 3.1-7.2l3-6 3.6-10.6a64 64 0 0 1 4.5-12.2c.9-1.3 1.5-3 7.4-20.7a153 153 0 0 0 7.3-23.6c.8-1.7.9-2 .9-3.3s.2-2 1.3-5.3c1.2-3.6 1.3-4 1.3-5.6s0-2 .9-4a29 29 0 0 0 1.8-8.5c.8-5.4 1-6.2 1.3-6.6s.5-1 1-4.9c.3-3.9.4-4.4.8-5s.5-.9.6-2.9c0-1.7.1-2.3.4-2.6.2-.3.3-.8.4-2.6 0-1.8.1-2.3.5-2.7.3-.5.4-1 .5-2.9 0-1.7.1-2.3.4-2.6.2-.3.3-.8.4-2.6 0-1.8.1-2.3.5-2.7.3-.5.4-1 .5-2.9 0-1.7.1-2.3.4-2.6.2-.3.3-.9.4-3 0-2.4 0-2.9.4-3.2.5-.6.5-.7 1-8.7.4-6.7.4-7.1.9-7.6s.4-.5.5-7.3c0-6 0-6.8.4-7.2.3-.3.3-1.7.4-19.3v-18.9l.5-.5c.4-.4.4-.6.4-4.9s0-4.5-.4-5l-.5-.4V467c-.1-14-.1-14.5-.5-14.9s-.4-1.1-.8-10l-.6-10q-.1-.5-.4-.8-.3-.2-.3-3.4c-.1-3-.1-3.2-.6-3.7s-.5-1.2-1.7-10.2c-1.5-11.4-1.4-10.9-1.9-11.4-.3-.3-.5-1.1-.9-4-.4-3.1-.5-3.8-.9-4.2s-.4-.7-.4-2.5c0-2 0-2.2-.8-4.1a10 10 0 0 1-1-4.2q0-2.4-.5-2.6-.3-.3-.3-2c0-1.3-.1-1.7-.8-3.5a10 10 0 0 1-1-4.3c0-2-.2-2.3-.6-2.8s-.6-1.5-1.8-7.1a29 29 0 0 0-2.2-8.5c-.9-1.7-1-2.1-1.8-6.6s-1-5-1.7-6.7c-.8-1.5-.9-2-.9-3 0-1.1-.7-3.3-5.4-17.5a110 110 0 0 1-5.4-17.5 34 34 0 0 0-2.5-8.7 66 66 0 0 0-4.1-10.7 18 18 0 0 1-2.1-5.5c-.4-2-.8-2.9-3.6-9a60 60 0 0 1-4.1-10c-.9-3-1.2-3.6-2.7-6.3-1.5-2.5-1.7-3-1.7-3.9s-.7-2.3-5.4-11.7a64 64 0 0 0-6.4-11.9c-.8-.8-1.2-1.5-2.4-4.2-1.3-3-1.7-3.7-6.7-11.3a282 282 0 0 0-23.9-34.6c-17-23.2-17.7-24-24.7-32.4l-7.1-8.5-13-13-12.9-13-8.8-7.4c-8-6.7-9.5-7.9-14.7-11.5a57 57 0 0 1-7.9-6 99 99 0 0 0-14-10l-12-8-16.2-8.7c-9-4.8-16.6-9-17-9.1l-1.6-.4c-.6 0-1.4-.4-3.8-1.7-2.4-1.4-3.2-1.8-4.1-1.9s-1.5-.4-3-1.3c-1.7-1-2.2-1.2-3.3-1.3a45 45 0 0 1-9.1-3.7l-7.9-3.5-6.3-1.8c-5.7-1.6-6.7-2-9.2-3.2-2.7-1.3-3-1.4-4.2-1.4s-1.6-.1-4.3-1.3-3.2-1.3-4.4-1.3-1.6-.1-4.5-1.3a13 13 0 0 0-4.4-1.5q-1.2 0-1.7-.4-.3-.3-1.9-.4c-1.2 0-2.3-.3-5.7-1.4a55 55 0 0 0-12.5-2.7c-7.3-1.1-8.3-1.4-8.8-1.8s-.7-.4-2.8-.5c-1.8 0-2.4-.1-2.7-.4q-.3-.3-2.6-.4a13 13 0 0 1-4.6-1 21 21 0 0 0-7-1.3l-4.5-.5-3.6-1.3c-3.5-1.3-3.5-1.3-9.3-2.2-5.3-.8-6-1-8-1.8a8 8 0 0 0-4.4-.9c-2 0-2.2 0-2.7-.5s-.7-.4-2.8-.5c-1.8 0-2.4-.1-2.7-.4-.3-.2-.9-.3-3-.4-2.5 0-2.8 0-3.3-.5s-.7-.4-4-.5c-3.1 0-3.8 0-4-.4-.4-.3-2.4-.3-27-.3a922 922 0 0 0-36.1.3M518.9 41c.6.6 1 .6 8.2 0 2.6-.2 4.9-.3 5-.2l-.2 1c-.2.7-.7 1-8.3 6.1l-8.1 5.4-6.1 5.8q-6.3 5.7-6.8 5.8c-.4.1-3.7 3.3-13.3 13.3l-12.7 13.2-8.9 11a336 336 0 0 0-18.4 24.8 109 109 0 0 0-10 15c-.3 1-1.8 3.3-5.4 9-4.9 7.5-5.2 8-10.9 19a62 62 0 0 0-6 12.5c-.1 1-.5 2-2.7 6.3a37 37 0 0 0-4.5 11.9l-.1 1.6-4.2.1c-4 .1-4.3.1-4.7.5s-.7.5-3.6.5c-2.8.1-3.2.1-3.6.5-.3.3-1.2.4-4.7.8l-4.4.5-11.7 4-11.6 4-4.3.5c-4.2.4-4.3.4-4.7 0-.4-.3-.8-.4-2.6-.5l-2.1-.1-3.1-1.6-3.1-1.5-2.7-2.7a14 14 0 0 1-3.6-4.5 44 44 0 0 0-17.1-13.8 20 20 0 0 0-7.3-2.3q-3.2-.5-3.4-.8c-.4-.3-.9-.4-3.2-.5s-2.7 0-3.2-.5l-.4-.4h-22.6l-.4.4c-.5.4-.7.5-4.1.5-3 0-3.7.2-4 .4q-.2.4-2.6.4c-2 .1-2.3.1-2.7.5s-.7.5-2.3.5-1.9 0-4 .9c-2 .8-2.4.9-6.2 1.3-3.7.4-4 .5-6.2 1.3a8 8 0 0 1-4 .9c-1.6 0-2 0-3.8.8-1.9.8-2.1.9-4.6 1s-2.7.2-3.1.5c-.4.4-.8.5-2.8.5s-2.4.2-2.7.4-1 .4-3.1.4c-2.4.1-2.8.2-3.2.5-.4.4-.5.4-5.1 0l-4.7-.5-1.6-.8c-1.4-.7-1.6-1-3.6-3.3l-2.1-2.6-.4-2.8-.4-2.9 1.7-3.8 1.7-3.9 5-6.7 4.9-6.7 6.5-6.5c6.3-6.3 7-6.9 16.6-14.8l10-8.3 13.1-9 13.1-9 16.5-9c14.9-8 16.7-8.9 17.5-8.9.7 0 2-.5 8.2-3.7 7.1-3.5 7.6-3.7 12.7-5.4 4.7-1.6 5.6-1.9 7.6-3.1s2.7-1.5 5.4-2.3 3.5-1 5.3-2.2c2-1.2 2.4-1.3 4.5-1.8 2-.4 3-.8 9-3.6l6.7-3.1 5-1.4c4.6-1.3 5.2-1.5 6.4-2.3a19 19 0 0 1 6.2-2.2c5-1.4 5-1.4 6.7-2.5.9-.6 3.8-1.7 15.4-5.5l14.3-4.8 2.3-.1c2.1 0 2.4-.2 2.8-.6.5-.3.7-.4 2.2-.4 1.4 0 1.8 0 3.8-.9a8 8 0 0 1 4.1-.9 11 11 0 0 0 4.5-.9c2.5-.9 2.8-.9 4.9-.9 2 0 2.4 0 4.9-.9l2.7-.9 9.2-.8c9.5-.8 11-1 11.5-1.5.2-.2 1.2-.3 4-.3 3.3-.1 3.6-.1 4-.5.5-.5.7-.5 14.8-.9l15-.5.9-.5c.3-.4.6-.4 3.6-.4s3.2 0 3.6.4m55.8 15.7 4.8 3.5 7 7c7 7 7.2 7.2 12.2 13.5 5 6.4 5 6.5 13.4 19.7l8.5 13.3 7.7 15.5a99 99 0 0 1 7.7 16.3c0 .7.4 1.7 2.3 5.5a29 29 0 0 1 3.2 8.1c.8 3.1 1 3.8 1.8 4.9.7 1.1.9 1.6 1.3 3.5.3 1.8.6 2.7 1.7 4.9s1.3 2.8 1.3 3.8.6 3 3.6 11.9a67 67 0 0 1 4 14.2c.5 3 .6 3.5 1.4 5s.9 2.1 1 3.3q0 1.5.4 2 .4.3.4 1.7c.1 1.2.2 1.6.5 2q.6.3.5 1.7.1 1.4.5 1.8.3.3.3 1.4c0 .8.3 2 1.3 5a17 17 0 0 1 1.5 6.2q0 2.6.4 2.7.4.4.4 2.2c.1 1.6.2 2 .6 2.3.3.5.4.7.4 2.1 0 1.3.2 2 .9 4.4.8 2.7.9 3 .9 5s0 2.4.8 4.6c.8 2.3.9 2.5 1 5.6 0 2.8.1 3.3.5 3.7.3.4.4 1.1.8 10l.4 9.5-2.5 4.7-2.6 4.7-3.1 3.1-3.2 3.2-5.7 2.6c-5 2.3-6.3 2.8-10.2 4a59 59 0 0 0-26.6 16.2 52 52 0 0 0-13.5 21c-1 2.6-1.1 3.3-1.1 4.6q0 1.6-.3 1.9c-.4.3-.4 1-.4 8.5 0 8.1 0 8.2.4 8.6s.6 1 .9 3.5a25 25 0 0 0 1.9 6.8l1.4 3.8 3.2 4.6 3.3 4.6 4 3.6 4 3.5 5.7 2.9 5.8 2.8 2.4.4q2.5.4 2.9.8c.4.3.7.4 2.2.5h1.8l.1.6v.7a77 77 0 0 1-7.7 3.1c-1.2.1-1.8.5-7 3.3a35 35 0 0 1-7.7 3.6c-1.8.5-2.1.6-3 1.5s-2 1.5-6.4 3.7c-5 2.5-5.8 3-11.1 6.6a86 86 0 0 0-18.2 16l-6.8 7.2-4 5.8a64 64 0 0 0-6.2 10.2c-2.3 4.4-2.3 4.4-6.4 16.9l-4.2 12.5v1.8a11 11 0 0 1-.9 4.5l-.9 2.7v3c0 2.8 0 3-.4 3.5s-.5.6-.6 5.5c0 4.4 0 5-.4 5.4-.3.3-.3 1-.3 7.2 0 6.5 0 6.9.4 7.3.3.4.4 1.2.8 7.3.4 6.7.5 7.3 1 7.9q.3.4.3 2.1c.1 1.6.2 2 .5 2.3.4.4.6 1 1 3.5.3 3 .4 3 2.2 7.1a38 38 0 0 1 3.3 10.9l-12.3.1h-12.2l-.5-.5c-.4-.4-.5-.4-6.8-.5-5.2 0-6.3 0-6.6-.3-.5-.4-2-.6-8.3-1-4.8-.3-5.7-.4-6-.7-.6-.5-1.7-.7-6.9-1.1-4-.3-4.6-.4-5-.8-.4-.3-.7-.4-2.7-.5s-2.3 0-2.7-.5c-.4-.3-.7-.4-2.3-.5q-1.8 0-2.1-.3c-.5-.4-1.6-.7-9.7-2a30 30 0 0 1-8.3-1.6q-.3-.4-2.2-.5c-1.4-.1-2.1-.3-3.8-1a8 8 0 0 0-3.6-.8c-1.5 0-1.7 0-2.1-.4q-.4-.5-2-.6-1.3 0-1.8-.4-.3-.3-1.7-.4-1.3 0-1.8-.5-.3-.4-2.2-.5a7 7 0 0 1-3.4-1 5 5 0 0 0-3-.8c-1 0-1.4-.1-2.8-.8s-2.2-1-3.9-1.2l-2.6-.5q-.2.2-8-10.6l-7.4-10.6-6.2-6.3a88 88 0 0 0-10.5-9.6 114 114 0 0 0-11.5-7.9c-7-4.3-7.5-4.6-13.3-7.3l-6.1-2.8-6-1.3c-5-1-6.2-1.3-6.6-1.7-.5-.5-.7-.5-2.9-.6-1.8 0-2.4-.1-2.7-.4s-1-.3-5.3-.4c-4.7 0-5 0-5.4-.5-.4-.3-.7-.4-2.3-.5-1.7 0-1.8 0-2.4-.7l-.7-.6v-3.2c0-3 0-3.2.4-3.6.5-.5.5-.9 1-8.5.3-7.1.4-8 .7-8.4s.4-.9.5-3.2 0-2.7.5-3.2.4-.7.5-3.2c0-2.2.1-2.8.4-3 .2-.4.3-1 .4-3.7 0-3 0-3.2.5-3.7s.4-.7.5-3.2c0-2.4 0-2.7.5-3.2.3-.4.4-.7.5-2.7q0-2.4.4-2.6c.2-.3.3-.9.4-3.6 0-2.9 0-3.2.4-3.6s.6-1.4 1.4-8.4c1-7.9 1-8 1.9-10.7a11 11 0 0 0 .9-5.1v-2.4l1.6-1.2q1.5-1 3.8-2a29 29 0 0 0 7.2-4.5l5-3.6 4.6-5 4.5-5.1 3.6-6.3 3.7-6.4 2.3-7c2.3-6.8 2.3-7 2.3-8.7s0-2 1.7-7 1.8-5.2 2.7-6.2q1-1 1.4-2.3c.4-1.3.6-1.5 4.3-5.1l3.8-3.9 4-2.2c3.3-1.8 4-2.2 5-2.2q1 0 2.3-1c1.2-.8 1.2-.8 8-2.2 5.4-1 7-1.4 7.3-1.8.4-.3.7-.4 2.1-.4 1.6 0 1.8 0 3.4-.8a7 7 0 0 1 3.3-1c1.5-.1 1.7-.2 2.8-1 1.2-.7 1.4-.8 2.5-.8 2.5 0 6-1.4 15.4-6a57 57 0 0 0 18.7-13l4-3.9 4-6.8 4.1-6.9 1-4.4c.6-3.5 1-4.6 1.3-5s.4-.7.5-2.7 0-2.3.5-2.7.4-.6.4-5.4 0-5-.4-5.4-.5-1-1-4.8l-.4-4.3-2.3-6.1-2.4-6.1-2.8-4.2-2.8-4.2-4.6-4.6a48 48 0 0 0-9-7.7l-4.4-3-7.3-3-7.4-3 .3-1.9c.3-1.6.6-2.2 2.1-4.8 1.4-2.5 1.8-3.3 1.9-4.2s1.1-3.2 6.4-13.8l6.4-12.6 10.1-16.4a287 287 0 0 1 29.4-40.9l9-10.9 12.3-12.2L532 77.7l6.9-5.6 6.8-5.5 10.7-6.7 10.6-6.7h3zm48.1-2.9c2 .3 3.3.7 7.5 2.2s5 1.8 6.2 1.8 1.6.1 5.1 1.7a38 38 0 0 0 7.5 2.6c3.1.8 3.7 1 4.9 1.8 1 .7 2.3 1.2 6.7 2.7 5.1 1.7 5.7 2 8.6 3.6s3.5 1.9 6.3 2.7l3.2 1 14.8 7.6c12.7 6.5 15.5 8 18.7 10.1l14.4 9.5 10.5 6.9 9 7.6c6.2 5.3 9.8 8.2 11.6 9.4 2.5 1.7 3.5 2.6 13 11.6a69 69 0 0 1 11.9 12.3c1.2 1.8 2.3 3.1 4.5 5.4 2.1 2.2 5 5.5 10.2 12l7.2 9 9.7 10.2a281 281 0 0 1 27.7 32.7c3.1 4.5 4.8 6.8 7.2 9.5l3.2 3.6 11.1 17.8 11.1 17.8 8.6 17.1a144 144 0 0 1 8.6 18c0 .7.8 2.7 3.6 9a45 45 0 0 1 4 10.5c.5 2 .7 2.5 1.5 3.8s1.4 2.6 5 13.3c3.6 11 3.9 12 3.9 13.3s.1 1.6.9 3.3.9 2 .9 3c0 1.1.2 1.9 1.4 5 1.2 3.4 1.4 4 1.7 6.5.4 3.6.7 4.8 1 5.1q.3.3.3 1.3c0 .7.4 2 1.3 4.9 1.3 3.7 1.4 4 1.5 6.2 0 2 .2 2.4.6 2.8.3.5.4.7.4 2.2s.1 2 .8 4.1a45 45 0 0 1 1.8 11.8c.8 8.2 1 9.4 1.4 9.9s.4.9.4 3.7c.1 2.8.1 3.1.5 3.5.4.5.5.7.5 3.7 0 2.7.2 3.3.4 3.6s.4 1 .4 5c.1 4.3.1 4.5.5 5s.5.5.5 6.2c.1 5.2.1 5.9.4 6.2.4.4.4 1.6.4 17.1l.1 16.8.5.4c.4.5.4.7.4 2.7s0 2.2-.4 2.7l-.5.4v16c-.1 14.6-.1 15.8-.5 16.2-.3.3-.3 1-.4 7.7l-.1 7.3h-1.6c-1.3.1-1.6 0-2-.2-.3-.4-.8-.4-5.3-.4-4.3 0-5 0-5.3.3q-.3.4-2.2.4c-1.6 0-2 .2-2.3.5-.4.4-.8.5-2 .5q-1.4 0-1.8.5-.3.3-1.4.3c-.8 0-2.2.4-5.5 1.5l-4.4 1.4-8.2 4.6a55 55 0 0 0-19 14.9l-5.4 5.9-3.2 5c-2.8 4.5-3.2 5-3.3 6s-.4 1.8-1.8 4.2a25 25 0 0 0-3.6 10q0 1.3-.3 1.5c-.6.5-.7 1-1.1 6.7-.4 5.1-.5 5.6-.9 6s-.4.6-.5 12.7a49 49 0 0 1-.8 15.2c0 2-.1 2.4-.4 2.7-.5.5-.7 1.5-1.1 5.2l-.4 2.8-2.6 5.6a34 34 0 0 0-2.7 6.7c-.1 1-.4 1.5-4 6.7L830 675l-6.1 6.1-6 6.1-3.8 5.5-4.2 6.3c-.3.4-2.2 4.7-4.3 9.5l-4 8.7-.4 2.8a56 56 0 0 1-2.6 9.2c-2 5.9-2.3 6.6-3.5 8.7a13 13 0 0 0-1.9 4.1c-.4 1.6-.5 1.9-1.3 2.7q-1 .9-3.6 5.8l-2.6 4.9-5.8 6.2-5.8 6.2-2.8 1.6c-2.7 1.5-2.9 1.6-4.3 1.7q-1.7 0-2 .6c-.5.4-.7.4-3 .4h-2.3l-4-1.7-3.8-1.7-4.8-4.8c-4.7-4.7-4.7-4.7-7.5-8.8l-2.8-4.1-4-9.4c-3.8-9-4-9.5-4-10.7a24 24 0 0 0-1.8-6.7l-1.8-5.4-.3-5.6c-.4-7-.6-8-1-8.6-.5-.4-.5-.6-.5-10.3v-9.9l.5-.5c.4-.4.4-.6.5-4.6 0-3.5 0-4.1.4-4.5.3-.3.3-1 .4-4.4 0-3.8 0-4 .5-4.5l.4-.4v-23.6l-.4-.4c-.4-.4-.5-.8-.5-2.7s-.2-2.3-.5-2.7q-.4-.2-.8-3.5l-.5-3-2.3-5.6-2.3-5.6-3.1-4.4c-2.8-4-3.4-4.7-6.5-7.8l-3.5-3.5-7.2-4-7.2-4-4.4-1c-3.5-.6-4.5-.9-4.9-1.2-.4-.4-.7-.5-2.3-.6q-1.8 0-2.2-.4c-.3-.2-1-.3-3.6-.4-3 0-3.2 0-3.7-.5l-.4-.4h-17.6a94 94 0 0 1-21.9-.9c-3.1 0-3.7 0-4-.4-.5-.5-1.2-.7-5.5-1.5l-4.5-1-4.6-2.7-3.8-2.3-4.9-5.3-4.8-5.3-2.7-5.4a44 44 0 0 1-5.8-16.7q-.5-.4-.5-2.3 0-2-.5-2.4a44 44 0 0 1-1.3-11.7c-.8-10.6-.8-11-.5-11.4s.4-1 .5-5.9c0-5.2 0-5.4.5-5.9s.4-.7.5-2.8c0-1.8.1-2.4.4-2.7q.3-.2.4-2.4a7 7 0 0 1 1-3.7c.7-1.5.8-1.8.8-3 0-1.3.1-1.5 2.6-7a48 48 0 0 1 11.2-16.5l4.8-5.3 8.1-5.8 8.2-6 4-1.7c3.3-1.4 4.2-1.9 5-2.6s1-1 2.6-1.4q2-.4 3.7-1.6a7 7 0 0 1 3-1.3c1-.1 1.7-.4 3.5-1.5 2.2-1.3 2.3-1.4 8.7-3.2 5.6-1.7 6.6-2 7.6-2.7s1.3-.8 2.4-.8 1.7-.2 3.3-.8a10 10 0 0 1 4.2-1c2 0 2.4-.2 2.7-.5.4-.4 1-.5 4.9-.8 4.9-.4 6.4-.6 6.7-1 .2-.2.9-.3 3.2-.3s3 0 3.3.3.9.4 3 .5l2.6.1 4 1.7 4 1.6 5.2 5.2a42 42 0 0 1 5.4 5.8q0 .4 4.2 4.2c5.8 5.2 9.8 7.8 17.6 11.7l5.8 3 8 2.6a43 43 0 0 1 9.4 3.6c1.4 1 1.5 1 3.3 1.1s2.8.4 15 4.5l13.1 4.4 5.6.9c4.5.7 5.7 1 6.2 1.3s1 .4 2.8.5c2 0 2.3 0 2.7.5s.7.4 3.7.5c2.7 0 3.3 0 3.6.4.3.3 1.4.3 12.1.3 11.7 0 11.8 0 12.2-.4s1-.5 3.1-.8l3.3-.5 5.6-3 4.9-2.6 4-4 4-4 2-4c1.9-3.8 2-4 2.3-6.4.3-1.9.5-2.6.9-3 .3-.4.4-.7.5-2.3s.1-1.9.5-2.3.4-.6.4-5.3 0-4.9-.4-5.3c-.4-.5-.5-.7-.5-2.2s-.1-2-1.9-7.4-2-5.7-2.8-6.6q-.9-.9-1.3-2.2c-.4-1.2-.8-1.7-4.1-5.4a46 46 0 0 0-25.8-14.6q-.4-.5-2-.6-1.4 0-2-.5c-.5-.3-1.8-.5-17-1.7a102 102 0 0 1-22.9-3c-2.1-.7-2.9-1.1-6-3.1l-3.7-2.3-3.5-4-3.5-3.8-3.6-8.2-3.7-8.2-2.2-3.1c-2.2-3-2.5-3.3-6.7-7.1l-5-4.6q-.7-.6-6.1-3l-5.5-2.2-3.6-.5c-3-.4-3.6-.6-4-1l-.5-.4h-9.9c-9.9 0-9.9 0-10.3.4s-.8.5-3.2.5c-2.5.1-2.8.1-3.2.5s-1 .5-3.5.9c-2.7.3-3.6.6-8.6 2.3l-5.6 1.8-15.6 8-15.6 8.1-3.7.5c-3 .4-3.7.5-4 .9-.5.3-.8.4-2.4.4s-2 0-2.3-.4q-.3-.4-3.2-1c-3.6-.5-4.3-1-7.3-4.5-2.8-3.4-3-4-3-8v-2.8l1.2-2.9 1.3-2.9 2.7-2.8 2.7-2.7 5.3-2.7c5.1-2.5 5.6-2.7 12.1-4.9l6.8-2.3 7.5-4.4 7.5-4.3 5.2-5.2 5.1-5.1 6.4-9.5 6.4-9.5 5.5-5.5c7.2-7.1 8.2-7.8 15.7-10.9l5.1-2.1 5-.5c4.4-.4 5-.5 5.5-.9l.6-.4 20.8.4c11.4.2 21.1.4 21.7.3q.8 0 1.3-.4.2-.3 2.6-.3c2.1-.1 2.4-.1 2.8-.6.5-.3.7-.4 2.2-.4s1.8 0 3.6-.9c1.4-.7 2.3-1 4.2-1.3l3-.6 3.9-2.4c3-1.8 3.8-2.2 6.3-3.1l2.8-1 4.5-4 4.5-4.2 1.4-2.8 1.4-2.7v-9l-1.4-2.7a12 12 0 0 0-3.3-4.7l-2-2-4.1-1.8-4.1-1.9h-2.4l-2.4-.1-5.3 1.9-5.3 2-2.3 2.2-2.3 2.3-5.2 2.6-5.3 2.6-4.1.5c-3.5.4-4.2.5-4.6.9s-.5.4-10.3.4h-9.9l-.5-.5c-.4-.4-.6-.4-4.5-.4-4 0-4 0-4.5.4s-.9.5-7.8.9l-7.3.4-5.4 1.8a26 26 0 0 1-7 1.8c-1.6.1-1.7.1-7.6 2.9-4.6 2.1-6.2 3-6.8 3.5-1.2 1.1-1.6 1-2.3-.5-.7-1.1-.7-1.4-.8-3.7 0-2-.2-2.6-.4-3q-.4-.2-.4-2c0-1.3-.1-1.9-.8-3.9-.8-2.2-.9-2.6-1-5.2s-.1-3-.5-3.3c-.4-.4-.5-.8-.5-2.3q0-2-.4-2.2t-.4-2c0-1.2-.2-1.9-1.3-5.3-1.3-3.7-1.4-4-1.5-6.2 0-2-.2-2.4-.5-2.8-.4-.4-.5-1.1-.9-3.5-.4-2.7-.5-3.2-1.3-4.9-.8-1.6-.9-2-.9-3 0-1.1-.3-2-1.8-6.2a50 50 0 0 1-2.7-9.5c-.8-4.1-1-4.7-2.2-7.5s-1.3-3.2-1.3-4.4c0-1.1-.3-2.2-2.4-8.4-2-6-2.5-7.3-3.2-8.5s-1-1.8-1.8-4.9c-.7-2.9-1-3.6-1.7-4.7a179 179 0 0 0-9.2-20.6l-8-17-12.7-20a227 227 0 0 0-17.6-26.1 25 25 0 0 0-4.4-5.7c-2.8-2.8-3-3.3-2.8-4.4.3-.8.2-.8 3.6-.3M174.1 212.5l2.6 4.3 4 3.7c5.6 5 7.3 6 13.1 7.9 3.4 1.1 4.5 1.4 5.5 1.4q1.3-.1 1.7.4l.4.5h9.4c9.3 0 9.4 0 9.8-.4s.8-.5 3.2-.5c2.5-.1 2.8-.1 3.2-.5s1-.5 5.3-.9c4.7-.4 4.8-.4 6.8-1.2a10 10 0 0 1 4.2-1c2 0 2.3-.2 2.7-.5.4-.4 1-.5 3.2-.8 3.3-.4 4.4-.6 4.9-1.1.3-.3 1.1-.4 3.3-.7 3.2-.4 4.4-.6 4.8-1q.4-.3 2.1-.3c1.6-.1 2-.2 2.4-.6s.9-.5 10.3-1.3l9.9-.9.4.4c.4.4 1.1.5 5 1l4.7.4 1.6.8a24 24 0 0 1 3.9 2.6c2 1.5 2.3 2 4.5 5 2 2.8 3 3.9 6.3 7.2l4 4 4 2.2c3.9 2.2 4.1 2.3 9.9 4.2 5.4 1.8 6 2 7.4 2q1.6 0 1.9.3c.3.4 1.1.4 10.8.4 10.3 0 10.5 0 11-.4.3-.4 1-.5 4.7-.9l4.3-.4 13-4.5 13-4.5 8.3-.9 8.3-.8.5.4c.3.3 1 .4 6 .8l5.6.5 5.2 2.2 5.2 2.2 4.3 4 4.4 3.9 1.7 2.9c1.6 2.8 1.7 3 1.8 4.4q0 1.5.5 2c.3.3.3.9.3 4.2 0 4.9 0 5-3 9.6l-2 3.5-3.2 2.6-3 2.7-6.7 3-6.6 3.2-2.6.4c-2 .3-3.4.7-6.3 1.8-3.2 1.2-4 1.4-5 1.4-1.2 0-1.6.1-3.2.9s-2 .9-3.2.9c-1.1 0-2 .3-7 1.9-4.4 1.5-5.8 2-6.8 2.7q-1.2.9-1.9.8l-1.4.3-7.8 4.5-7.2 4.2-5.6 5.6-5.5 5.5-4.1 6.8-4.1 6.8-3.6 12.2-3.6 12.2-1.8 3.5a22 22 0 0 1-4.5 6.7l-2.6 3-4.3 3c-3.8 2.8-4.4 3.1-5.1 3.1q-.7-.1-3.5 1.3c-2.4 1.2-2.7 1.3-3.9 1.3-1 0-2 .3-5.4 1.4l-4.2 1.4-6 .5c-5.2.4-6 .5-6.5.8s-.9.5-2.8.5c-1.9.1-2.2.2-2.6.5-.4.4-1.6.6-8.7 1.8l-8.7 1.5q-.5.1-.8.5-.2.3-1.6.3c-2.1 0-8.2 2.1-15.3 5.4-5.8 2.6-5.8 2.7-10.5 6l-4.7 3.2-5.9 6.4-6 6.4-3.5 6.2-3.6 6.3-.1 1.7a16 16 0 0 1-1.5 5.3l-1.3 3.5v7.9c.1 7.8.1 7.9.6 8.3.3.5.4.7.4 2.2s.1 2 1 4.6c1.6 4.7 3.1 7.5 7.3 13.3l3.6 5 5.8 5.4 6 5.4 5 3.2c3.8 2.4 7.9 5.4 15.8 11.4l10.8 8 9 5.4 9 5.4 4.3 1.5 4.3 1.4 4.3.4c3.7.4 4.4.5 4.8.9s.6.4 9 .5c8 .1 8.5.1 9 .5.6.3 1.5.5 6.2.8l5.5.5 4.9 1.6c4.3 1.4 5.5 2 9.7 4 6.6 3.4 9 5.1 16.2 11.7 5.1 4.7 5.8 5.3 10 10.3 3.5 4.3 4.5 5.6 5.2 7.1q1 1.7 6.2 8.8l5.2 7 6.5 6.6 6.5 6.5 6 4.2 6 4.2 12.5 6.2a88 88 0 0 1 13.5 7.2q.9.9 5.9 3.6l4.9 2.7 5.8 5.3 5.7 5.3 1.8 3.1c1.6 2.8 2 3.7 3.1 7l1.3 3.9V662l-3 9.6-3 9.5-7.3 13.7-7.3 13.7-7.3 10.4c-6.9 9.9-7.6 10.9-15.2 20.2l-8 9.8-7.3 10.8c-7 10.6-7.3 11-9.8 16.1a27 27 0 0 1-3.6 6.3c-.9.9-1.5 2.1-6.4 12.8l-5.5 11.8-.1 1.8c-.1 1.6-.4 2.4-2.4 8-2.2 6.2-2.2 6.2-2.2 8a11 11 0 0 1-.9 4.5l-.9 2.7v2.9c0 2.5 0 3-.3 3.3-.4.3-.4 1.3-.4 14a68 68 0 0 0 .3 13.8c.5.5.1 1.7-.5 1.7q-.4 0-5-4.6a60 60 0 0 1-9.9-12.6c-.3-1-.6-1.5-1.8-2.7a42 42 0 0 1-6.2-10.7c-4.9-9.2-4.9-9.3-5.3-11.5-.4-1.9-.7-2.7-1.8-4.9-1.2-2.4-1.3-2.7-1.3-3.9 0-1-.2-1.9-1.2-4.8a16 16 0 0 1-1.4-6c0-2.2-.2-2.5-.6-3s-.4-.8-.9-6.3c-.4-5.3-.5-5.8-.9-6.3s-.4-.6-.4-6.3c-.1-5.3-.1-6-.4-6.3-.4-.4-.4-1.1-.4-7.6-.1-7.2-.1-7.3-.5-7.7s-.5-.6-.5-8.6c-.1-8-.1-8.2-.5-8.6s-.5-.9-.8-9.6c-.4-10.5-.5-12.3-1-12.8q-.3-.2-.3-2.6c-.1-2.1-.1-2.4-.5-2.8s-.5-.8-.5-2.8c-.1-2.1-.1-2.4-.5-2.8s-.5-1-.9-3.3c-.4-3.1-.5-3.3-2.6-8-1.1-2.5-1.4-3.3-1.4-4.1s-.3-1.6-2.3-5.5a48 48 0 0 0-6-9.7l-3.7-5.1-6-5.5-5.9-5.5-13-9.4-13-9.4-4.4-4.8-4.4-4.9-2.6-4.8-2.7-4.8-.5-2.8q-.5-3-.9-3.3c-.4-.4-.4-1-.8-7.2-.4-6.6-.4-6.7 0-7.1.3-.4.3-.9.4-4 0-3.5 0-3.7.5-4.2s.4-.7.5-2.8c0-1.8.1-2.4.4-2.7q.3-.3.4-2.6a13 13 0 0 1 1-4.6c.8-2.3.8-2.5.8-4.7s0-2.4.9-5l.9-2.7v-9.3c-.1-9.2-.1-9.4-.5-9.8s-.5-1-.8-4.7l-.5-5-3.8-8.4-3.6-7.7-6.3-8.1-6.4-8.2-5.4-5c-5.4-5-5.4-5-12.7-10L233 492l-5-2.3a40 40 0 0 1-15.7-11.3l-5.5-5.5-4.8-9.3-4.9-9.3-6.3-6.8-6.4-6.8-8.2-4.6-8.2-4.5-7.3-2.3a55 55 0 0 1-19.5-9.3 62 62 0 0 1-8.7-7.8l-5-5.1-5.2-7.4a70 70 0 0 1-11.6-21.4 21 21 0 0 1-2.2-5.3c-1.3-3.9-1.3-4-1.7-8.3-.4-4.2-.5-4.8-1-5.5-.2-.3-.2-1.8.2-6.8l.4-6.5 3-9.2c2.7-8 3.3-9.4 4-10.6.9-1.2 1-1.8 1.9-5s1.1-4 3.1-8.5c2-4.2 2.3-5.2 2.7-7.2s.6-2.5 1.8-4.4c1-1.8 1.5-2.9 2.6-6.2a89 89 0 0 1 7.8-16.4 81 81 0 0 0 6.5-13.4c0-.9.4-1.7 1.8-4 1.3-2.4 1.7-3.2 1.8-4.2s.4-1.6 1.8-4c1.4-2.5 1.7-3 1.8-4 0-1 .8-2.7 5.7-13l5.7-11.7 5.7-8 5.7-7.9h1.7zm555.1 168.3 4 .4 2.5 1.3a10 10 0 0 1 4.2 3l1.7 1.6 4.8 9.3c3.7 7 5.2 9.8 6.3 11.3a77 77 0 0 0 8.3 8.4l6.9 6.3 5.3 2.7a59 59 0 0 0 16.8 6c.3.4 1.7.6 5.9 1 3 .3 3.7.4 4 .7.6.6 2 .7 10.8 1.1 7.2.3 7.6.4 8 .8.5.3.8.4 2.4.5q2 0 2.2.4t3.2.9c2.7.4 3 .5 5.4 1.8 2.5 1.2 2.7 1.4 4.8 3.5l2.3 2.3.7 2.2c.7 2 .7 2.1.3 2.8q-.3.8-2.3 2.3l-2 1.6h-6.9c-6.3 0-6.9 0-7.3-.4-.3-.2-.8-.3-3-.4-2.5 0-2.8 0-3.3-.5s-.7-.4-3.3-.5-3-.2-5.2-1a10 10 0 0 0-4.3-.8c-1.7 0-2.1 0-2.6-.4-.3-.3-2.4-.8-7.4-1.8-6.8-1.4-7-1.4-14.9-4a98 98 0 0 1-14.6-5.8 59 59 0 0 1-21.4-15.7c-.2-.6-1.8-2.2-8-8l-7.8-7.4-6.9-3.2-6.9-3.2-4-.4c-3.5-.4-4-.5-4.4-1s-.8-.4-7-.8l-6.6-.5-.5-1.3 5.2-3.5a80 80 0 0 1 11.2-6.4l6-3 2.9-.5q2.9-.5 3.2-.9c.3-.3.8-.4 2.7-.4s2.5-.2 2.7-.5c.5-.4 1-.4 5.9 0M88.6 409.9q.7.8 1.7 3c.7 1.8 1.6 3.5 4.9 8.5l4 6.2 7.7 8.6 7.7 8.7 6.4 4.5 6.3 4.5 6.9 3.3c6.3 2.9 7.3 3.3 11.2 4.4l4.3 1.3 6.3 3.6 6.4 3.6 4.4 5 4.5 4.8 4 7.6 4 7.6 5.5 6.4 5.5 6.4 6.8 4.5 6.8 4.6 2.7.9c2.3.8 3.5 1.4 9.9 5l7.2 4 4.9 4.5c5.3 4.8 6.5 6.1 6.4 7.4l-.1.7-2.4.1c-2 0-2.5.2-3 .5-.6.4-1.1.5-6.7.8-6.3.3-7.9.5-8.4 1q-.1.3-3 .3c-2.5.1-2.8.1-3.2.5s-.8.5-3.2.5c-2.5.1-2.8.1-3.2.5s-1.3.5-7 1.2c-8.5 1-8.8 1-9.3 1.5s-1.4.6-6.1 1.3c-4.3.7-5.8 1-6.2 1.3q-.6.4-2 .4t-1.9.6q-.4.4-1.6.4c-1 0-2 .3-5.1 1.3-3.7 1.2-4 1.3-5.8 1.3-1.9 0-2 0-4 1a12 12 0 0 1-5 1.4c-2.9.4-3.2.5-22 6.8l-19.1 6.3-10.6 5.4c-7.6 3.7-10.9 5.3-11.4 5.3q-.6 0-1.1-.6c-.5-.5-.6-.6-.6-2.8-.1-2.1-.1-2.4-.5-2.8-.4-.5-.5-.7-.5-2.1s-.1-2-.9-4.3l-.9-2.7-.4-6c-.5-6.7-.5-6.8-1-7.4-.3-.4-.4-.8-.4-4.1-.1-3.2-.2-3.8-.4-4.1-.3-.4-.4-1-.4-4.4-.1-3.9-.1-4.1-.5-4.5s-.5-.6-.5-6.8c-.1-5.7-.1-6.4-.4-6.7-.4-.4-.4-1.7-.4-21.2s0-20.8.4-21.2c.3-.3.3-1 .4-8 0-7.7 0-7.8.5-8.3.4-.4.4-.7.5-3.2 0-2.2.1-2.8.4-3 .2-.4.3-1 .4-3.7 0-3 0-3.2.5-3.7.3-.4.4-.7.5-2.7q0-2.4.4-2.6c.2-.3.3-.9.4-3 0-2.5 0-2.8.5-3.3.3-.4.4-.7.5-2.7s.2-2.4 1-4.3c.8-2 .8-2 .8-4.2s0-2.2.8-3.9c.8-1.4 1-2 1.7-6.3l.9-4.8 1.4-.6zM308.8 422c0 3.4 0 4-.3 4.3s-.4.8-.5 3c0 2.5 0 2.8-.5 3.3-.3.4-.4.7-.5 2.7q0 2.4-.4 2.6c-.2.3-.3.9-.4 3 0 2.5 0 2.8-.5 3.3s-.4.7-.5 3.2c0 2.2-.1 2.8-.4 3-.2.4-.3 1-.4 3.2 0 2.4 0 2.7-.5 3.2s-.4.7-.5 3.7c0 2.7 0 3.3-.4 3.6-.2.3-.3.8-.4 2.6 0 2 0 2.3-.5 2.7s-.4.9-.8 8c-.5 7.2-.5 7.6-1 8.2q-.4.6-.5 2l-.1 1.5h-2.2l-12.7-8.8-12.7-8.7-6-6-6-5.9-1.2-2.4-1.2-2.4-.4-3.8c-.4-3.7-.4-3.8 0-4.2q.3-.3.8-3.2l.4-2.7 1.9-2.8c2.7-4 4.9-6.1 10.1-9.6l4-2.6 9-3 9-3 4.5-.5c4.4-.5 5.4-.7 5.7-1q.1-.3 3.1-.3h3zm-64 147.6.2 2c0 1.7 0 2-.4 2.4s-.5.7-.6 2.8-.2 2.5-1.4 5.9-1.2 3.7-1.2 5.4a11 11 0 0 1-.9 4.5c-.9 2.6-.9 2.7-.9 5.3 0 2.4 0 2.6-.4 3l-.5.5V624l.4.4c.4.3.5.5.5 2.2.1 1.7.2 2 .5 2.4.4.4.6 1.4 1.2 4.6l1 5.1 3.4 7.6 3 6.6 3.5 4.8c3.4 4.7 3.6 4.9 9.3 10.7l5.8 5.8 11.1 8.4 11.1 8.4 4.5 4.5 4.5 4.6 3.5 6 3.4 6 .9 4.6q.9 4.8 1.3 5t.4 2.2.4 2.2c.3.3.4 1 .4 3.5.1 3 .1 3.2.5 3.6.5.5.5.7.5 5.5.1 4.4.1 5.1.4 5.4s.4 1 .4 5.3c.1 4.8.1 5 .5 5.4s.5.6.5 6.8c.1 5.7.1 6.4.4 6.7.4.4.4 1.1.4 7.6.1 7.2.1 7.3.5 7.7s.5.7.5 5.5c.1 4.8.1 5 .5 5.5s.5 1 .8 5.9c.4 6.4.6 8 1 8.5q.3.3.3 2.5c.1 2 .2 2.3.6 2.9.3.5.4.8.4 2.1s.1 1.8.9 3.8c.8 2.1.9 2.5.9 4 0 1.7.1 2 1.5 6.2 1 3.3 1.7 4.8 2.3 5.6.6 1 .8 1.6 1.2 3.3.4 2 .6 2.5 5 11.3l4.5 9.2 6.4 9.1a168 168 0 0 0 31.5 35.2c4.6 3.7 4.8 3.8 9.8 6.5 6.7 3.6 6.9 3.7 8.3 3.7q1.3-.1 1.7.4c.4.5.5.5 7.2.5h6.7l5.5-2.7 5.5-2.8 2.8-3.2 2.7-3.2 2-5.7 1.8-5.6v-15.2c-.1-14.2-.1-15.3-.4-15.6-.4-.4-.4-.8 0-7.2.4-6.3.5-6.8.9-7.3.3-.4.4-.7.5-2.6s.1-2.4.4-2.8q.5-.4.9-3.8c.4-3 .7-3.8 2.7-9.8 1.8-5.4 2.3-6.8 3-7.8s.9-1.5 1-2.5.6-2.2 3.6-8.2c3.3-6.5 3.9-7.5 8.4-14.5 4.1-6.3 6.2-9.3 13.2-18.6a160 160 0 0 1 10-12.7c1.3-1.3 2-2.3 3.9-5.2 1.6-2.7 2.9-4.4 4.9-6.7 2.2-2.6 3-3.8 5.4-7.7a30 30 0 0 1 4-5.9c1.2-1 1.5-1.5 1.8-2.6.3-1 1.8-3.4 5.5-9.1l5-7.8 6.3-13.4 6.3-13.4.1-1.8a12 12 0 0 1 1.5-4.8c1.2-2.8 1.3-3.2 1.3-4.4s.1-1.8.9-3.7a8 8 0 0 0 .9-4.2c0-1.7 0-2.1.4-2.5.3-.3.3-1 .4-5.4 0-4.5 0-5 .4-5.4l.5-.7c.1-.5-.8-13.6-1-14.1l-.4-.7q-.3-.4-.3-2.1c-.1-1.6-.2-2-.5-2.3q-.5-.5-.5-1.7a48 48 0 0 0-6-15.6l-3.1-5.7-3.5-4c-3.4-3.7-3.4-3.9-3.3-4.5.3-.8.3-.8 8.6-.3 5.9.3 6.8.4 7.1.7.4.4 1 .4 6.4.5 5.8 0 5.9 0 6.4.5l.4.4H577l.4-.5c.5-.3.7-.4 2.3-.4h1.8l3.5 2.6c3 2.4 3.7 2.8 5.8 3.6q2.4 1 4 2.3l1.8 1.3 8.5 2.8 8.4 2.8 6.5.4c6 .4 6.5.5 7 .9s.4.4 19 .5c18.4 0 18.5 0 19 .4.3.4 1 .5 3.6 1 3.2.4 3.2.4 5.8 1.7 2 1 3 1.7 5.1 3.4l2.6 2.2 2.6 4.3 2.6 4.3.4 4.8.5 4.8-1 2.2c-.7 2-.8 2.4-.8 4 0 1.4 0 1.6-.4 2q-.5.4-.6 1.8a107 107 0 0 0-3.1 13l-2.3 10.6-3.1 9.3a46 46 0 0 0-3.1 10.6c0 1.2-.3 2-3.2 10s-3.2 8.8-3.2 10c0 1.3-.2 1.8-1.8 5.9s-1.8 4.6-1.8 5.9c0 1.2-.3 2.2-2.6 9.1s-2.7 8-3.5 9.2c-1 1.3-1 1.5-1 2.9-.1 1.3-.2 1.6-.9 2.6s-1.2 2.6-3.5 9.8l-2.8 8.7-2.2 4.6c-2.1 4.1-2.4 4.7-2.8 6.8s-.6 2.5-5 11.3a44 44 0 0 0-4.5 9.9c0 1.3-3.8 9-5.2 10.4-.8.8-1.3 1.7-3.1 5.8s-2.3 5-3.1 5.8-1.2 1.5-2 3.3a8 8 0 0 1-1.8 3.3c-.7.8-1.4 2-3.2 5.4a29 29 0 0 1-3.9 6.6 14 14 0 0 0-2.7 4.5c-.8 2-1.5 3.2-5.4 9a90 90 0 0 0-6.2 10.2c-1.6 3.3-2.7 5-10.5 16.4a219 219 0 0 1-28.3 35.5c-7.7 8.2-8.2 8.7-13.8 13.4l-5.9 5-8.2 5.2-8.2 5.2-2 .1c-1.8 0-2.1.2-2.5.5-.5.5-.6.5-6.4.5-5.3.1-6 .1-6.3.5-.4.3-1.1.3-8.6.3s-8.2 0-8.6-.4c-.3-.3-1-.3-5.8-.4-5 0-5.4 0-5.8-.4-.5-.5-.8-.5-10.3-1.5-6.5-.7-7.3-.8-7.8-1.2s-.8-.4-2.6-.5-2.3-.2-4.2-1-2-.8-4.3-.8-2.3 0-4.5-.9c-2-.8-2.4-.9-3.8-.9s-1.7 0-2.1-.4a53 53 0 0 0-9.2-2.3c-8.2-1.7-9-1.9-10.7-2.8s-2.2-1-4.9-1.3a12 12 0 0 1-4.7-1.3c-1.6-.8-2-.9-3.2-.9s-1.7-.1-4.6-1.4c-3-1.3-3.5-1.4-4.7-1.4s-2-.2-6.5-1.7a27 27 0 0 1-6.5-2.6 8 8 0 0 0-3.7-1.4c-1.9-.4-2.5-.7-3.6-1.3q-1.2-1-2.3-1t-2.2-.9a31 31 0 0 0-6.7-2.6c-5.3-1.8-5.8-2-15.8-6.8a49 49 0 0 0-11.5-5c-1-.2-2.9-1.1-18-9l-16.7-8.9-7.3-5c-5.6-3.8-7.5-5-8.6-5.4-1.3-.5-2.5-1.4-14.1-10.6l-12.7-10-5.7-5.7q-5.8-5.8-6.3-5.8c-.9-.3-17.8-18-18-18.9 0-.4-3.7-4.5-11.8-13.2l-11.7-12.5-9.5-12.2a187 187 0 0 0-16.2-19.4l-6.7-7.2-10.3-13.9a494 494 0 0 1-30.5-45 55 55 0 0 0-4.8-8 32 32 0 0 1-4.4-7.3c-1-2.5-1.4-3.2-2.2-4-.9-.9-1.1-1.3-1.9-3.7s-1-2.8-1.8-3.6a41 41 0 0 1-4.5-8.5c-3.4-7.3-3.7-8-5.8-14.4a32 32 0 0 0-3.2-8.1c-.8-1.3-1-2-2.2-6.4a20 20 0 0 0-2.2-6.2c-.7-1-.8-1.3-.8-2.5 0-1-.1-1.5-.9-3-.8-1.7-.9-2.1-.9-3.2 0-1-.1-1.5-.8-3a7 7 0 0 1-1-3.3c-.1-1.5-.2-1.9-.6-2.3q-.4-.4-.4-1.6c0-1-.3-2-1.3-5.1-1.3-3.8-1.3-4-1.3-5.9v-2l8.2-4.4c7.2-3.7 8.4-4.3 9.2-4.3s2-.6 7.6-3.1c6.2-3 6.9-3.2 9-3.6s2.5-.6 3.7-1.4c1.2-.9 2.7-1.4 14.5-5.3 12.5-4.2 13.3-4.5 17.9-5.4 4.4-.9 5-1 7.9-2.3s3-1.3 4.8-1.3 1.9 0 5.5-1.4 3.8-1.4 5.5-1.4 2 0 4-.9c2.2-.8 2.4-.9 6.6-1.3 4-.4 4.6-.5 7-1.3 2.6-.9 2.9-1 7.2-1.3 4.8-.4 6.1-.6 6.6-1.1.3-.3 1.7-.5 6.9-.8 6.3-.4 7-.5 7.5-1q.3-.3 3.4-.3c3-.1 3.2-.1 3.6-.6.5-.4.7-.4 3.2-.4q2.7 0 3 .2m674.8 5.7 2.6.5c.1.2.2 1 .2 3.2v3l-.9 2.6c-.8 2.5-.9 2.8-.9 4.8 0 1.8 0 2.1-.4 2.5s-.5 1-1 5c-.3 4-.4 4.6-.8 5s-.5 1-1 4.6c-.4 4-.4 4.3-1.3 6.4s-.9 2.5-1.3 6.2c-.4 3.9-.5 4.1-1.8 8.2s-1.4 4.3-1.4 6 0 2-1.8 7.2a39 39 0 0 0-2.2 8.4c-.4 2.9-.5 3.1-2.3 7.8-1.8 4.4-1.9 4.8-1.9 6.2 0 1.3-.2 2-2 7.6a64 64 0 0 1-4 10.1c-1.8 3.4-2 4.2-2.4 6a10 10 0 0 1-1.7 4.3c-1.1 1.8-1.4 2.4-1.5 3.3 0 .9-.3 1.5-1.2 3-1 1.6-1.5 2.8-2.6 6.1a52 52 0 0 1-5 11 45 45 0 0 0-4.6 9.4c-.8.8-.9 1-1 2.1s-.5 2-2.6 6.2a26 26 0 0 1-3.4 5.9c-.8.8-1.9 2.7-5.6 9.7l-4.5 8.7-10.8 16.6-10.8 16.6-10.4 13.1-10.3 13.1-5.4 5.4a56 56 0 0 0-5.5 6q-.2.4-9 8.8c-7.8 7.5-10 9.4-19.6 17.4a312 312 0 0 1-23.9 18.5 108 108 0 0 1-18 12.1 49 49 0 0 1-8.7 5.3c-5.1 2.7-6.8 3.7-7.7 4.5s-1.5 1.2-3.3 1.9-2.4 1-3.2 1.8-3.5 2.2-18.9 9.9a149 149 0 0 0-18.9 9.9c-.9.9-1.3 1-3.6 1.8a21 21 0 0 0-4.7 2.1c-1.7 1-2.3 1.3-3.1 1.3-.9.1-1.7.5-4.3 2l-3.3 1.9-21.2 7c-20.3 6.8-21.3 7.1-22.7 7.1s-1.6 0-3.2.9-2 .9-3 .9a24 24 0 0 0-6.7 1.8l-5.4 1.8h-2.2q-2.3 0-2.3-.2l.3-1.5c.3-1.2.5-1.5 7.5-9.8l7.1-8.4 10-14.4c8.3-12.1 10-14.7 10.3-15.8.4-1 1.3-2.7 4-6.8a41 41 0 0 0 4.6-7.6c.6-1.7 1-2.4 1.8-3.2s1.2-1.5 2.3-4.1 1.5-3.3 2.2-4 1.1-1.4 2.2-4c1.1-2.5 1.5-3.3 2.3-4.1.8-.9 1.4-2 4-7.6a31 31 0 0 1 4.1-7.7c1-1 1-1.3 1.5-3s1-2.8 4.5-9.4a34 34 0 0 0 4-8.6c.1-1 .5-1.7 2.4-5 1.9-3.5 2.2-4.2 2.3-5.3s.7-2.4 4-9.3c3.2-6.8 3.9-8.3 4-9.2 0-.9.6-2.3 2.7-7 2.4-5.1 2.8-6 3.2-8s.6-2.7 2.1-5.7c1.6-3.1 2-4 4-10.6 2-6.4 2.3-7.4 3.2-8.7s1-1.9 1.8-4.9l1.1-3.7q.2-.3 1 0l.8.2 1.3 4.4c1.2 4.2 1.4 4.5 4.4 10.6a78 78 0 0 0 7 12c3.6 5.5 3.9 5.8 6.7 8.6q3 2.9 3 3.4a55 55 0 0 0 12.5 9.8l5.7 3.5 5.8 2a32 32 0 0 0 8.4 2.3c.3.2.8.3 3.6.4 2.8 0 3.3 0 3.6.4l.9.5a107 107 0 0 0 14.4-1.3q.6-.4 1.6-.4c.8 0 2.2-.4 5.5-1.5l4.4-1.4 7-4.4 7-4.4 6.2-6 6.1-6.2 4-5.8 4-5.7 4.6-9.2 4.6-9.1 4.5-14.4a98 98 0 0 1 6.2-18 94 94 0 0 1 14.4-19.3l5.4-5.8 5.9-10 5.8-9.8 2-5.7c1.6-5 1.9-6 2.2-8.6q.5-3 .8-3.4c.6-.6.7-1.7 1.1-7 .3-4.5.4-5 .8-5.6s.4-.7.5-13.2v-12.6l.5-.5c.4-.4.4-.7.5-3.1s0-2.8.4-3.3q.4-.4.9-3.6c.4-3 .4-3.1 1.3-4.3a9 9 0 0 0 1.2-3 47 47 0 0 1 33-24.3c.4-.5.5-.5 3.4 0"/></svg>