<?xml version="1.0" encoding="UTF-8"?>
<!-- Generated by Pixelmator Pro 3.6.14 -->
<svg width="90" height="88" viewBox="0 0 90 88" xmlns="http://www.w3.org/2000/svg">
    <g id="ICML-Logo-2018">
        <g id="g618">
            <g id="g620">
                <g id="g792">
                    <path id="path794" fill="#94d222" stroke="none" d="M 24.23032 38.261261 C 24.23032 39.170589 23.492989 39.907921 22.583656 39.907921 L 11.383684 39.907921 C 10.474353 39.907921 9.735688 39.170589 9.735688 38.261261 L 9.735688 27.061287 C 9.735688 26.15062 10.474353 25.413292 11.383684 25.413292 L 22.583656 25.413292 C 23.492989 25.413292 24.23032 26.15062 24.23032 27.061287 L 24.23032 38.261261 Z"/>
                </g>
                <g id="g796">
                    <path id="path798" fill="#2a419e" stroke="none" d="M 38.161217 23.766495 C 38.161217 24.675827 37.422554 25.413162 36.514557 25.413162 L 27.034578 25.413162 C 26.125248 25.413162 25.386583 24.675827 25.386583 23.766495 L 25.386583 14.286522 C 25.386583 13.37719 26.125248 12.639854 27.034578 12.639854 L 36.514557 12.639854 C 37.422554 12.639854 38.161217 13.37719 38.161217 14.286522 L 38.161217 23.766495 Z"/>
                </g>
                <g id="g800">
                    <path id="path802" fill="#ed1e24" stroke="none" d="M 21.688593 15.473587 C 21.688593 16.384247 20.951262 17.120247 20.043262 17.120247 L 13.477945 17.120247 C 12.568615 17.120247 11.82995 16.384247 11.82995 15.473587 L 11.82995 8.909599 C 11.82995 8.000267 12.568615 7.261604 13.477945 7.261604 L 20.043262 7.261604 C 20.951262 7.261604 21.688593 8.000267 21.688593 8.909599 L 21.688593 15.473587 Z"/>
                </g>
                <g id="g804">
                    <path id="path806" fill="#f79011" stroke="none" d="M 7.88796 23.361031 C 7.88796 24.270363 7.149295 25.00769 6.239964 25.00769 L 1.647976 25.00769 C 0.738645 25.00769 -2e-05 24.270363 -2e-05 23.361031 L -2e-05 18.769043 C -2e-05 17.858376 0.738645 17.121048 1.647976 17.121048 L 6.239964 17.121048 C 7.149295 17.121048 7.88796 17.858376 7.88796 18.769043 L 7.88796 23.361031 Z"/>
                </g>
                <g id="g808">
                    <path id="path810" fill="#231f20" stroke="none" d="M 70.862999 19.047844 C 70.862999 19.957169 70.124336 20.694504 69.216339 20.694504 L 67.333679 20.694504 C 66.424347 20.694504 65.685684 19.957169 65.685684 19.047844 L 65.685684 17.165176 C 65.685684 16.255852 66.424347 15.519852 67.333679 15.519852 L 69.216339 15.519852 C 70.124336 15.519852 70.862999 16.255852 70.862999 17.165176 L 70.862999 19.047844 Z M 68.891006 32.727806 C 68.891006 33.637138 68.153679 34.37447 67.243011 34.37447 L 61.172363 34.37447 C 60.263031 34.37447 59.524364 33.637138 59.524364 32.727806 L 59.524364 26.655823 C 59.524364 25.745155 60.263031 25.007828 61.172363 25.007828 L 67.243011 25.007828 C 68.153679 25.007828 68.891006 25.745155 68.891006 26.655823 L 68.891006 32.727806 Z M 57.429703 46.899773 C 57.429703 47.80777 56.69104 48.546436 55.781708 48.546436 L 44.903069 48.546436 C 43.995071 48.546436 43.257736 47.80777 43.257736 46.899773 L 43.257736 36.021133 C 43.257736 35.111801 43.995071 34.37447 44.903069 34.37447 L 55.781708 34.37447 C 56.69104 34.37447 57.429703 35.111801 57.429703 36.021133 L 57.429703 46.899773 Z M 54.719044 9.895866 C 54.719044 8.985199 55.45504 8.247871 56.364372 8.247871 L 60.341698 8.247871 C 61.25103 8.247871 61.989693 8.985199 61.989693 9.895866 L 61.989693 13.871857 C 61.989693 14.781189 61.25103 15.519852 60.341698 15.519852 L 56.364372 15.519852 C 55.45504 15.519852 54.719044 14.781189 54.719044 13.871857 L 54.719044 9.895866 Z M 84.79097 36.945129 C 83.761635 37.461128 83.502968 37.71846 83.502968 36.301132 L 83.502968 27.934486 C 83.502968 25.998489 84.233635 -0.000114 54.281712 -0.000114 C 46.163063 -0.000114 38.751083 2.059883 38.751083 3.991882 C 38.751083 5.922539 38.707081 8.625198 38.707081 10.170532 C 38.707081 11.829193 39.607082 12.639854 40.895077 12.639854 L 48.361725 12.639854 C 49.264389 12.639854 50.677719 12.73452 50.677719 14.326523 L 50.677719 22.657166 C 50.677719 24.845161 49.599056 25.134491 48.440392 25.134491 L 40.717747 25.134491 C 39.559078 25.134491 38.448418 25.74649 38.448418 27.162491 L 38.448418 34.993134 C 38.448418 36.131798 37.935085 37.074463 36.261757 37.074463 L 28.511108 37.074463 C 27.481779 37.074463 26.369781 38.359795 26.369781 40.290455 C 26.369781 42.221115 26.348446 46.214439 26.348446 47.373104 C 26.348446 48.531769 25.319115 48.402435 22.744455 48.402435 C 22.744455 48.402435 22.744455 52.134426 24.417786 56.383751 C 25.312452 58.655743 26.735111 59.214409 29.180443 58.44241 C 29.180443 58.44241 29.476437 64.601059 30.892433 68.462387 C 32.308434 72.323708 33.557762 74.79303 37.54842 77.623695 C 41.540409 80.457016 41.925743 81.229019 44.628399 83.417015 C 47.331062 85.606339 48.489723 87.665009 55.313709 87.665009 C 62.264359 87.665009 63.937691 84.962341 66.769676 82.130348 C 69.601669 79.297028 72.849663 79.187691 76.809654 73.246368 C 80.157646 68.226379 80.338982 64.163727 80.800308 58.313076 C 80.800308 58.313076 84.405632 60.115738 85.564301 56.511745 C 86.273628 54.302422 88.394958 44.411777 89.168289 39.134457 C 89.940285 33.855804 85.821632 36.430466 84.79097 36.945129"/>
                </g>
            </g>
        </g>
    </g>
</svg>
