<?xml version="1.0" encoding="UTF-8"?>
<!-- Generated by Pixelmator Pro 3.6.14 -->
<svg width="574" height="384" viewBox="0 0 574 384" xmlns="http://www.w3.org/2000/svg">
    <g id="Group">
        <path id="Path" fill="#0b345f" stroke="none" d="M 530.466675 1.133331 C 481.133331 8.333344 456.333344 36.600006 456.333344 85.666656 L 456.333344 98.333344 L 441 98.333344 L 425.666656 98.333344 L 425.666656 131 L 425.666656 163.666672 L 441 163.666672 L 456.333344 163.666672 L 456.333344 273.666656 L 456.333344 383.666656 L 498.333344 383.666656 L 540.333313 383.666656 L 540.333313 273.666656 L 540.333313 163.666672 L 557 163.666672 L 573.666687 163.666672 L 573.666687 131 L 573.666687 98.333344 L 557 98.333344 L 540.333313 98.333344 L 540.333313 89.266663 C 540.333313 68.466675 546.733337 60.466675 565 58.733337 L 573.666687 57.933319 L 573.666687 28.866669 L 573.666687 -0.333344 L 556.06665 -0.200012 C 546.333313 -0.066681 534.733337 0.466675 530.466675 1.133331 Z"/>
        <path id="path1" fill="#c63238" stroke="none" d="M 32.333332 3.533325 C 13.799999 9.266663 1.8 24.466675 0.6 43.799988 C -0.466666 61.533325 6.200001 75.799988 19.799999 84.733337 C 28.200001 90.333344 34.866665 92.200012 46.466667 92.200012 C 63.933334 92.066681 79.133331 81.933319 86.466667 65.799988 C 89.533333 59.133331 90.199997 55.799988 90.333336 47 C 90.333336 37.533325 89.800003 35.266663 85.933334 27.399994 C 77.800003 10.866669 63.800003 2.200012 45.266666 2.466675 C 39.933334 2.466675 34.200001 3 32.333332 3.533325 Z"/>
        <path id="path2" fill="#0b345f" stroke="none" d="M 274.333344 94.866669 C 251.133331 99.533325 233.53334 109.933319 221 126.600006 L 214.866669 134.866669 L 215.800003 116.600006 L 216.733337 98.333344 L 175.800003 98.333344 L 135 98.333344 L 135 241 L 135 383.666656 L 177 383.666656 L 219 383.666656 L 219 301.93335 C 219 248.46666 219.53334 217.399994 220.46666 212.199997 C 223.53334 195.266663 232.066666 183.53334 245.533325 177.133331 C 251.533325 174.333328 255.533325 173.53334 265.533325 173.266663 C 272.733337 173 280.333344 173.399994 283.666656 174.333328 C 291 176.333328 298.333344 182.46666 301.799988 189.266663 C 307.933319 201.266663 308.333344 207 308.333344 297.93335 L 308.333344 383.666656 L 351 383.666656 L 393.799988 383.666656 L 393.399994 278.06665 C 393 174.600006 392.866669 172.066666 390.066681 162.199997 C 380.066681 127 360.200012 106.466675 326.866669 97 C 313.933319 93.399994 287.533325 92.333344 274.333344 94.866669 Z"/>
        <path id="path3" fill="#0b345f" stroke="none" d="M 78.333336 104.600006 C 67.133331 113.133331 52.066666 121.666656 40.333332 126.200012 C 30.200001 130.200012 12.6 134.333344 6.333334 134.333344 L 3 134.333344 L 3 259 L 3 383.666656 L 45 383.666656 L 87 383.666656 L 87 241 C 87 162.46666 86.866669 98.333344 86.73333 98.333344 C 86.466667 98.466675 82.73333 101.133331 78.333336 104.600006 Z"/>
    </g>
</svg>
