<?xml version="1.0" encoding="UTF-8"?>
<!-- Generated by Pixelmator Pro 3.6.14 -->
<svg width="800" height="266" viewBox="0 0 800 266" xmlns="http://www.w3.org/2000/svg">
    <path id="Path" fill="#e60012" stroke="none" d="M 701.466675 142.600006 C 701.466675 159.266663 690.033325 171.5 674.299988 171.5 C 658.833313 171.5 646.733337 158.833313 646.733337 142.600006 C 646.733337 125.600006 658.166687 113.666656 673.899963 113.666656 C 689.366638 113.666656 701.466675 126.366669 701.466675 142.600006 Z M 224.633331 111.93335 C 216.172516 111.643188 208.091736 115.453949 202.933334 122.166687 C 197.838776 129.283325 195.776749 138.13092 197.199997 146.766663 L 246.5 126.299988 C 242.765472 117.552277 234.144623 111.901459 224.633331 111.966675 Z M 456.733337 113.666656 C 441 113.666656 429.533325 125.600006 429.533325 142.600006 C 429.533325 158.800018 441.666656 171.5 457.133331 171.5 C 472.866669 171.5 484.300018 159.233337 484.300018 142.600006 C 484.300018 126.366669 472.200012 113.666656 456.733337 113.666656 Z M 800 -0.43335 L 800 266.43335 L 0 266.43335 L 0 -0.43335 L 800 -0.43335 Z M 167 168 L 102.933334 168 L 102.933334 60.5 L 74.333336 60.5 L 74.333336 193.93335 L 167 193.93335 L 167 168.033325 Z M 204.899994 164.866669 L 277 134.966675 C 275.71167 124.429169 271.431732 114.481232 264.666656 106.300018 C 255.200012 95.300018 241.199997 89.466675 224.133331 89.466675 C 193.100006 89.466675 169.699997 112.333344 169.699997 142.56665 C 169.699997 173.566681 193.166672 195.666656 227.233337 195.666656 C 246.300003 195.666656 265.833344 186.600006 274.966644 176.033356 L 257.133331 162.333344 C 245.233322 171.133331 238.46666 173.200012 227.633331 173.200012 C 217.900009 173.200012 210.300003 170.200012 204.899994 164.866669 Z M 390.566681 130.233337 C 390.566681 106.600006 373.666656 89.466675 348.833344 89.466675 C 335.730621 89.520508 323.379211 95.591736 315.333344 105.933319 L 315.333344 91.200012 L 287.133331 91.200012 L 287.133331 193.899994 L 315.333344 193.899994 L 315.333344 135.466675 C 315.333344 124.93335 323.5 113.766663 338.600006 113.766663 C 350.266693 113.766663 362.333344 121.866669 362.333344 135.466675 L 362.333344 193.899994 L 390.566681 193.899994 L 390.566681 130.233337 Z M 512.133362 142.56665 C 512.133362 112.43335 487.966675 89.466675 457.133331 89.466675 C 426.033325 89.466675 401.699982 112.799988 401.699982 142.56665 C 401.699982 172.666656 425.900024 195.633331 456.733337 195.633331 C 487.799988 195.633331 512.133362 172.299988 512.133362 142.56665 Z M 581 193.899994 L 623.266663 91.200012 L 591.033386 91.200012 L 565.533325 161.166687 L 540.033325 91.166656 L 507.833313 91.166656 L 550.100037 193.866669 L 581 193.866669 Z M 729.299988 142.56665 C 729.299988 112.43335 705.133301 89.466675 674.299988 89.466675 C 643.233337 89.466675 618.899963 112.799988 618.899963 142.56665 C 618.899963 172.666656 643.06665 195.633331 673.899963 195.633331 C 704.966675 195.633331 729.299988 172.299988 729.299988 142.56665 Z"/>
</svg>
